<?xml version="1.0" encoding="utf-8" standalone="no"?>
<!DOCTYPE svg PUBLIC "-//W3C//DTD SVG 1.1//EN"
  "http://www.w3.org/Graphics/SVG/1.1/DTD/svg11.dtd">
<!-- Created with matplotlib (https://matplotlib.org/) -->
<svg height="345.6pt" version="1.1" viewBox="0 0 460.8 345.6" width="460.8pt" xmlns="http://www.w3.org/2000/svg" xmlns:xlink="http://www.w3.org/1999/xlink">
 <metadata>
  <rdf:RDF xmlns:cc="http://creativecommons.org/ns#" xmlns:dc="http://purl.org/dc/elements/1.1/" xmlns:rdf="http://www.w3.org/1999/02/22-rdf-syntax-ns#">
   <cc:Work>
    <dc:type rdf:resource="http://purl.org/dc/dcmitype/StillImage"/>
    <dc:date>2022-10-28T17:05:42.183633</dc:date>
    <dc:format>image/svg+xml</dc:format>
    <dc:creator>
     <cc:Agent>
      <dc:title>Matplotlib v3.3.4, https://matplotlib.org/</dc:title>
     </cc:Agent>
    </dc:creator>
   </cc:Work>
  </rdf:RDF>
 </metadata>
 <defs>
  <style type="text/css">*{stroke-linecap:butt;stroke-linejoin:round;}</style>
 </defs>
 <g id="figure_1">
  <g id="patch_1">
   <path d="M 0 345.6 
L 460.8 345.6 
L 460.8 0 
L 0 0 
z
" style="fill:#ffffff;"/>
  </g>
  <g id="axes_1">
   <g id="patch_2">
    <path d="M 83.146352 277.574739 
L 439.2 277.574739 
L 439.2 21.6 
L 83.146352 21.6 
z
" style="fill:#ffffff;"/>
   </g>
   <g id="matplotlib.axis_1">
    <g id="xtick_1">
     <g id="line2d_1">
      <defs>
       <path d="M 0 0 
L 0 3.5 
" id="m85f3bbe995" style="stroke:#000000;stroke-width:0.8;"/>
      </defs>
      <g>
       <use style="stroke:#000000;stroke-width:0.8;" x="99.330609" xlink:href="#m85f3bbe995" y="277.574739"/>
      </g>
     </g>
     <g id="text_1">
      <!-- $\mathdefault{0}$ -->
      <g transform="translate(94.761561 298.411736)scale(0.2 -0.2)">
       <defs>
        <path d="M 42 31.640625 
C 42 37.75 41.90625 48.125 37.703125 56.109375 
C 34 63.109375 28.09375 65.59375 22.90625 65.59375 
C 18.09375 65.59375 12 63.40625 8.203125 56.203125 
C 4.203125 48.71875 3.796875 39.4375 3.796875 31.640625 
C 3.796875 25.953125 3.90625 17.28125 7 9.671875 
C 11.296875 -0.609375 19 -2 22.90625 -2 
C 27.5 -2 34.5 -0.109375 38.59375 9.375 
C 41.59375 16.28125 42 24.359375 42 31.640625 
z
M 22.90625 -0.40625 
C 16.5 -0.40625 12.703125 5.078125 11.296875 12.6875 
C 10.203125 18.5625 10.203125 27.15625 10.203125 32.75 
C 10.203125 40.4375 10.203125 46.828125 11.5 52.921875 
C 13.40625 61.390625 19 64 22.90625 64 
C 27 64 32.296875 61.296875 34.203125 53.125 
C 35.5 47.4375 35.59375 40.734375 35.59375 32.75 
C 35.59375 26.25 35.59375 18.265625 34.40625 12.375 
C 32.296875 1.484375 26.40625 -0.40625 22.90625 -0.40625 
z
" id="CMR17-48"/>
       </defs>
       <use transform="scale(0.996264)" xlink:href="#CMR17-48"/>
      </g>
     </g>
    </g>
    <g id="xtick_2">
     <g id="line2d_2">
      <g>
       <use style="stroke:#000000;stroke-width:0.8;" x="190.100417" xlink:href="#m85f3bbe995" y="277.574739"/>
      </g>
     </g>
     <g id="text_2">
      <!-- $\mathdefault{500}$ -->
      <g transform="translate(176.393273 298.411736)scale(0.2 -0.2)">
       <defs>
        <path d="M 11.40625 57.6875 
C 12.40625 57.28125 16.5 56 20.703125 56 
C 30 56 35.09375 61.109375 38 64.0625 
C 38 64.953125 38 65.5 37.40625 65.5 
C 37.296875 65.5 37.09375 65.5 36.296875 65.046875 
C 32.796875 63.40625 28.703125 62.078125 23.703125 62.078125 
C 20.703125 62.078125 16.203125 62.484375 11.296875 64.671875 
C 10.203125 65.171875 10 65.171875 9.90625 65.171875 
C 9.40625 65.171875 9.296875 65.0625 9.296875 63.078125 
L 9.296875 34.421875 
C 9.296875 32.640625 9.296875 32.140625 10.296875 32.140625 
C 10.796875 32.140625 11 32.34375 11.5 33.03125 
C 14.703125 37.515625 19.09375 39.40625 24.09375 39.40625 
C 27.59375 39.40625 35.09375 37.21875 35.09375 20.140625 
C 35.09375 16.953125 35.09375 11.171875 32.09375 6.578125 
C 29.59375 2.484375 25.703125 0.390625 21.40625 0.390625 
C 14.796875 0.390625 8.09375 5 6.296875 12.71875 
C 6.703125 12.609375 7.5 12.421875 7.90625 12.421875 
C 9.203125 12.421875 11.703125 13.125 11.703125 16.21875 
C 11.703125 18.90625 9.796875 20 7.90625 20 
C 5.59375 20 4.09375 18.59375 4.09375 15.796875 
C 4.09375 7.09375 11 -2 21.59375 -2 
C 31.90625 -2 41.703125 6.875 41.703125 19.75 
C 41.703125 31.71875 33.90625 41 24.203125 41 
C 19.09375 41 14.796875 39.109375 11.40625 35.53125 
z
" id="CMR17-53"/>
       </defs>
       <use transform="scale(0.996264)" xlink:href="#CMR17-53"/>
       <use transform="translate(45.690477 0)scale(0.996264)" xlink:href="#CMR17-48"/>
       <use transform="translate(91.380954 0)scale(0.996264)" xlink:href="#CMR17-48"/>
      </g>
     </g>
    </g>
    <g id="xtick_3">
     <g id="line2d_3">
      <g>
       <use style="stroke:#000000;stroke-width:0.8;" x="280.870224" xlink:href="#m85f3bbe995" y="277.574739"/>
      </g>
     </g>
     <g id="text_3">
      <!-- $\mathdefault{1000}$ -->
      <g transform="translate(262.594033 298.411736)scale(0.2 -0.2)">
       <defs>
        <path d="M 26.59375 63.40625 
C 26.59375 65.5 26.5 65.5 25.09375 65.5 
C 21.203125 61.1875 15.296875 59.796875 9.703125 59.796875 
C 9.40625 59.796875 8.90625 59.796875 8.796875 59.5 
C 8.703125 59.296875 8.703125 59.09375 8.703125 57 
C 11.796875 57 17 57.59375 21 59.984375 
L 21 7.203125 
C 21 3.6875 20.796875 2.5 12.203125 2.5 
L 9.203125 2.5 
L 9.203125 0 
C 14 0 19 0 23.796875 0 
C 28.59375 0 33.59375 0 38.40625 0 
L 38.40625 2.5 
L 35.40625 2.5 
C 26.796875 2.5 26.59375 3.59375 26.59375 7.15625 
z
" id="CMR17-49"/>
       </defs>
       <use transform="scale(0.996264)" xlink:href="#CMR17-49"/>
       <use transform="translate(45.690477 0)scale(0.996264)" xlink:href="#CMR17-48"/>
       <use transform="translate(91.380954 0)scale(0.996264)" xlink:href="#CMR17-48"/>
       <use transform="translate(137.071431 0)scale(0.996264)" xlink:href="#CMR17-48"/>
      </g>
     </g>
    </g>
    <g id="xtick_4">
     <g id="line2d_4">
      <g>
       <use style="stroke:#000000;stroke-width:0.8;" x="371.640032" xlink:href="#m85f3bbe995" y="277.574739"/>
      </g>
     </g>
     <g id="text_4">
      <!-- $\mathdefault{1500}$ -->
      <g transform="translate(353.363841 298.411736)scale(0.2 -0.2)">
       <use transform="scale(0.996264)" xlink:href="#CMR17-49"/>
       <use transform="translate(45.690477 0)scale(0.996264)" xlink:href="#CMR17-53"/>
       <use transform="translate(91.380954 0)scale(0.996264)" xlink:href="#CMR17-48"/>
       <use transform="translate(137.071431 0)scale(0.996264)" xlink:href="#CMR17-48"/>
      </g>
     </g>
    </g>
    <g id="text_5">
     <!-- Epoch -->
     <g transform="translate(235.85764 320.124366)scale(0.2 -0.2)">
      <defs>
       <path d="M 60.703125 25.234375 
L 58.90625 25.234375 
C 56.703125 10.5625 55.40625 2.59375 37.796875 2.59375 
L 23.90625 2.59375 
C 19.90625 2.59375 19.703125 3.078125 19.703125 6.46875 
L 19.703125 34 
L 29.09375 34 
C 38.5 34 39.40625 30.625 39.40625 22.34375 
L 41.203125 22.34375 
L 41.203125 48.140625 
L 39.40625 48.140625 
C 39.40625 39.953125 38.5 36.59375 29.09375 36.59375 
L 19.703125 36.59375 
L 19.703125 61.140625 
C 19.703125 64.5 19.90625 65 23.90625 65 
L 37.59375 65 
C 53.09375 65 54.90625 58.890625 56.296875 45.765625 
L 58.09375 45.765625 
L 55.703125 67.578125 
L 5.09375 67.578125 
L 5.09375 65 
C 12 65 13.09375 65 13.09375 60.53125 
L 13.09375 7.046875 
C 13.09375 2.59375 12 2.59375 5.09375 2.59375 
L 5.09375 0 
L 57.09375 0 
z
" id="CMR17-69"/>
       <path d="M 22 -16.609375 
C 15.59375 -16.609375 15.203125 -16.203125 15.203125 -12.328125 
L 15.203125 6.28125 
C 18.09375 2.09375 22.296875 -0.59375 27.59375 -0.59375 
C 37.59375 -0.59375 47.703125 8.171875 47.703125 21.6875 
C 47.703125 34.234375 39 43.78125 28.703125 43.78125 
C 22.703125 43.78125 17.796875 40.5 15 36.53125 
L 15 43.78125 
L 3.09375 42.6875 
L 3.09375 40.109375 
C 9 40.109375 9.90625 39.5 9.90625 34.734375 
L 9.90625 -12.328125 
C 9.90625 -16.109375 9.5 -16.609375 3.09375 -16.609375 
L 3.09375 -19.1875 
C 5.5 -19 9.90625 -19 12.5 -19 
C 15.09375 -19 19.59375 -19 22 -19.1875 
z
M 15.203125 31.4375 
C 15.203125 32.84375 15.203125 34.921875 19.09375 38.609375 
C 19.59375 39.015625 23 42 28 42 
C 35.296875 42 41.296875 32.9375 41.296875 21.59375 
C 41.296875 10.25 34.90625 1 27 1 
C 23.40625 1 19.5 2.6875 16.5 7.375 
C 15.203125 9.5625 15.203125 10.15625 15.203125 11.75 
z
" id="CMR17-112"/>
       <path d="M 43.09375 21.1875 
C 43.09375 34 33.796875 44 22.90625 44 
C 12 44 2.703125 34 2.703125 21.1875 
C 2.703125 8.609375 12 -1 22.90625 -1 
C 33.796875 -1 43.09375 8.609375 43.09375 21.1875 
z
M 22.90625 0.796875 
C 18.203125 0.796875 14.203125 3.59375 11.90625 7.5 
C 9.40625 11.984375 9.09375 17.59375 9.09375 22 
C 9.09375 26.203125 9.296875 31.40625 11.90625 35.90625 
C 13.90625 39.203125 17.796875 42.40625 22.90625 42.40625 
C 27.40625 42.40625 31.203125 39.90625 33.59375 36.40625 
C 36.703125 31.703125 36.703125 25.109375 36.703125 22 
C 36.703125 18.09375 36.5 12.109375 33.796875 7.296875 
C 31 2.703125 26.703125 0.796875 22.90625 0.796875 
z
" id="CMR17-111"/>
       <path d="M 34.90625 35 
C 33 35 30.203125 35 30.203125 31.515625 
C 30.203125 28.71875 32.5 27.921875 33.796875 27.921875 
C 34.5 27.921875 37.40625 28.234375 37.40625 31.625 
C 37.40625 38.546875 30.59375 43.796875 22.90625 43.796875 
C 12.296875 43.796875 3.296875 34.03125 3.296875 21.296875 
C 3.296875 8.0625 12.703125 -1 22.90625 -1 
C 35.296875 -1 38.40625 10.578125 38.40625 11.6875 
C 38.40625 12.09375 38.296875 12.390625 37.59375 12.390625 
C 36.90625 12.390625 36.796875 12.296875 36.40625 10.984375 
C 33.796875 2.8125 28.09375 0.796875 23.796875 0.796875 
C 17.40625 0.796875 9.703125 6.671875 9.703125 21.390625 
C 9.703125 36.53125 17.09375 42 23 42 
C 26.90625 42 32.703125 40.203125 34.90625 35 
z
" id="CMR17-99"/>
       <path d="M 41.5 30.203125 
C 41.5 35.296875 40.5 43.59375 28.703125 43.59375 
C 20.5 43.59375 16.5 37 15.296875 33.703125 
L 15.203125 33.703125 
L 15.203125 68.6875 
L 3.296875 67.59375 
L 3.296875 65 
C 9.203125 65 10.09375 64.40625 10.09375 59.640625 
L 10.09375 6.65625 
C 10.09375 2.875 9.703125 2.390625 3.296875 2.390625 
L 3.296875 -0.203125 
C 5.703125 0 10.09375 0 12.703125 0 
C 15.296875 0 19.796875 0 22.203125 -0.203125 
L 22.203125 2.390625 
C 15.796875 2.390625 15.40625 2.78125 15.40625 6.6875 
L 15.40625 25.90625 
C 15.40625 35.109375 21 42 28 42 
C 35.40625 42 36.203125 35.40625 36.203125 30.59375 
L 36.203125 6.6875 
C 36.203125 2.875 35.796875 2.390625 29.40625 2.390625 
L 29.40625 -0.203125 
C 31.796875 0 36.203125 0 38.796875 0 
C 41.40625 0 45.90625 0 48.296875 -0.203125 
L 48.296875 2.390625 
C 41.90625 2.390625 41.5 2.78125 41.5 6.6875 
z
" id="CMR17-104"/>
      </defs>
      <use transform="scale(0.996264)" xlink:href="#CMR17-69"/>
      <use transform="translate(62.586301 0)scale(0.996264)" xlink:href="#CMR17-112"/>
      <use transform="translate(116.084109 0)scale(0.996264)" xlink:href="#CMR17-111"/>
      <use transform="translate(164.377025 0)scale(0.996264)" xlink:href="#CMR17-99"/>
      <use transform="translate(202.260231 0)scale(0.996264)" xlink:href="#CMR17-104"/>
     </g>
    </g>
   </g>
   <g id="matplotlib.axis_2">
    <g id="ytick_1">
     <g id="line2d_5">
      <defs>
       <path d="M 0 0 
L -3.5 0 
" id="m4742a6ef39" style="stroke:#000000;stroke-width:0.8;"/>
      </defs>
      <g>
       <use style="stroke:#000000;stroke-width:0.8;" x="83.146352" xlink:href="#m4742a6ef39" y="267.381929"/>
      </g>
     </g>
     <g id="text_6">
      <!-- $\mathdefault{0.0}$ -->
      <g transform="translate(52.450726 274.300427)scale(0.2 -0.2)">
       <defs>
        <path d="M 18.40625 4.796875 
C 18.40625 7.6875 16 9.671875 13.59375 9.671875 
C 10.703125 9.671875 8.703125 7.28125 8.703125 4.890625 
C 8.703125 2 11.09375 0 13.5 0 
C 16.40625 0 18.40625 2.390625 18.40625 4.796875 
z
" id="CMMI12-58"/>
       </defs>
       <use transform="scale(0.996264)" xlink:href="#CMR17-48"/>
       <use transform="translate(45.690477 0)scale(0.996264)" xlink:href="#CMMI12-58"/>
       <use transform="translate(72.787654 0)scale(0.996264)" xlink:href="#CMR17-48"/>
      </g>
     </g>
    </g>
    <g id="ytick_2">
     <g id="line2d_6">
      <g>
       <use style="stroke:#000000;stroke-width:0.8;" x="83.146352" xlink:href="#m4742a6ef39" y="224.265784"/>
      </g>
     </g>
     <g id="text_7">
      <!-- $\mathdefault{2.5}$ -->
      <g transform="translate(52.450726 231.184283)scale(0.2 -0.2)">
       <defs>
        <path d="M 41.703125 15.453125 
L 39.90625 15.453125 
C 38.90625 8.375 38.09375 7.171875 37.703125 6.5625 
C 37.203125 5.765625 30 5.765625 28.59375 5.765625 
L 9.40625 5.765625 
C 13 9.671875 20 16.75 28.5 24.953125 
C 34.59375 30.734375 41.703125 37.53125 41.703125 47.421875 
C 41.703125 59.21875 32.296875 66 21.796875 66 
C 10.796875 66 4.09375 56.3125 4.09375 47.34375 
C 4.09375 43.4375 7 42.9375 8.203125 42.9375 
C 9.203125 42.9375 12.203125 43.546875 12.203125 47.03125 
C 12.203125 50.109375 9.59375 51 8.203125 51 
C 7.59375 51 7 50.90625 6.59375 50.703125 
C 8.5 59.21875 14.296875 63.40625 20.40625 63.40625 
C 29.09375 63.40625 34.796875 56.515625 34.796875 47.421875 
C 34.796875 38.734375 29.703125 31.25 24 24.75 
L 4.09375 2.28125 
L 4.09375 0 
L 39.296875 0 
z
" id="CMR17-50"/>
       </defs>
       <use transform="scale(0.996264)" xlink:href="#CMR17-50"/>
       <use transform="translate(45.690477 0)scale(0.996264)" xlink:href="#CMMI12-58"/>
       <use transform="translate(72.787654 0)scale(0.996264)" xlink:href="#CMR17-53"/>
      </g>
     </g>
    </g>
    <g id="ytick_3">
     <g id="line2d_7">
      <g>
       <use style="stroke:#000000;stroke-width:0.8;" x="83.146352" xlink:href="#m4742a6ef39" y="181.14964"/>
      </g>
     </g>
     <g id="text_8">
      <!-- $\mathdefault{5.0}$ -->
      <g transform="translate(52.450726 188.068139)scale(0.2 -0.2)">
       <use transform="scale(0.996264)" xlink:href="#CMR17-53"/>
       <use transform="translate(45.690477 0)scale(0.996264)" xlink:href="#CMMI12-58"/>
       <use transform="translate(72.787654 0)scale(0.996264)" xlink:href="#CMR17-48"/>
      </g>
     </g>
    </g>
    <g id="ytick_4">
     <g id="line2d_8">
      <g>
       <use style="stroke:#000000;stroke-width:0.8;" x="83.146352" xlink:href="#m4742a6ef39" y="138.033496"/>
      </g>
     </g>
     <g id="text_9">
      <!-- $\mathdefault{7.5}$ -->
      <g transform="translate(52.450726 144.951995)scale(0.2 -0.2)">
       <defs>
        <path d="M 45.09375 61.578125 
L 45.09375 63.765625 
L 21.59375 63.765625 
C 9.90625 63.765625 9.703125 65.078125 9.296875 67 
L 7.5 67 
L 4.59375 48.34375 
L 6.40625 48.34375 
C 6.703125 50.234375 7.40625 55.3125 8.59375 57.203125 
C 9.203125 58 16.59375 58 18.296875 58 
L 40.296875 58 
L 29.203125 41.578125 
C 21.796875 30.53125 16.703125 15.609375 16.703125 2.578125 
C 16.703125 1.390625 16.703125 -2 20.296875 -2 
C 23.90625 -2 23.90625 1.390625 23.90625 2.671875 
L 23.90625 7.265625 
C 23.90625 23.5625 26.703125 34.3125 31.296875 41.1875 
z
" id="CMR17-55"/>
       </defs>
       <use transform="scale(0.996264)" xlink:href="#CMR17-55"/>
       <use transform="translate(45.690477 0)scale(0.996264)" xlink:href="#CMMI12-58"/>
       <use transform="translate(72.787654 0)scale(0.996264)" xlink:href="#CMR17-53"/>
      </g>
     </g>
    </g>
    <g id="ytick_5">
     <g id="line2d_9">
      <g>
       <use style="stroke:#000000;stroke-width:0.8;" x="83.146352" xlink:href="#m4742a6ef39" y="94.917352"/>
      </g>
     </g>
     <g id="text_10">
      <!-- $\mathdefault{10.0}$ -->
      <g transform="translate(43.31263 101.83585)scale(0.2 -0.2)">
       <use transform="scale(0.996264)" xlink:href="#CMR17-49"/>
       <use transform="translate(45.690477 0)scale(0.996264)" xlink:href="#CMR17-48"/>
       <use transform="translate(91.380954 0)scale(0.996264)" xlink:href="#CMMI12-58"/>
       <use transform="translate(118.478131 0)scale(0.996264)" xlink:href="#CMR17-48"/>
      </g>
     </g>
    </g>
    <g id="ytick_6">
     <g id="line2d_10">
      <g>
       <use style="stroke:#000000;stroke-width:0.8;" x="83.146352" xlink:href="#m4742a6ef39" y="51.801208"/>
      </g>
     </g>
     <g id="text_11">
      <!-- $\mathdefault{12.5}$ -->
      <g transform="translate(43.31263 58.719706)scale(0.2 -0.2)">
       <use transform="scale(0.996264)" xlink:href="#CMR17-49"/>
       <use transform="translate(45.690477 0)scale(0.996264)" xlink:href="#CMR17-50"/>
       <use transform="translate(91.380954 0)scale(0.996264)" xlink:href="#CMMI12-58"/>
       <use transform="translate(118.478131 0)scale(0.996264)" xlink:href="#CMR17-53"/>
      </g>
     </g>
    </g>
    <g id="text_12">
     <!-- MSE Loss -->
     <g transform="translate(35.436997 189.879276)rotate(-90)scale(0.2 -0.2)">
      <defs>
       <path d="M 20.90625 66 
C 20.296875 67.5 20.203125 67.5 18.09375 67.5 
L 5.296875 67.5 
L 5.296875 65 
C 12.203125 65 13.296875 65 13.296875 60.546875 
L 13.296875 9.53125 
C 13.296875 7.046875 13.296875 2.390625 5.296875 2.390625 
L 5.296875 -0.203125 
C 7.59375 0 11.796875 0 14.296875 0 
C 16.796875 0 21 0 23.296875 -0.203125 
L 23.296875 2.390625 
C 15.296875 2.390625 15.296875 7.046875 15.296875 9.53125 
L 15.296875 64.609375 
L 15.40625 64.609375 
L 38.90625 1.390625 
C 39.296875 0.390625 39.5 -0.203125 40.296875 -0.203125 
C 41.09375 -0.203125 41.296875 0.390625 41.703125 1.390625 
L 65.40625 65.09375 
L 65.5 65.09375 
L 65.5 6.84375 
C 65.5 2.390625 64.40625 2.390625 57.5 2.390625 
L 57.5 -0.203125 
C 60.203125 0 65.59375 0 68.5 0 
C 71.40625 0 76.90625 0 79.59375 -0.203125 
L 79.59375 2.390625 
C 72.703125 2.390625 71.59375 2.390625 71.59375 6.84375 
L 71.59375 60.546875 
C 71.59375 65 72.703125 65 79.59375 65 
L 79.59375 67.5 
L 66.90625 67.5 
C 64.796875 67.5 64.703125 67.40625 64.09375 65.90625 
L 42.5 7.84375 
z
" id="CMR17-77"/>
       <path d="M 43.796875 67.03125 
C 43.796875 68.8125 43.703125 68.921875 43.09375 68.921875 
C 42.5 68.921875 42.296875 68.515625 41.90625 67.625 
L 38.90625 61.046875 
C 35.09375 66.515625 29.296875 69 23 69 
C 12.796875 69 4.59375 60.953125 4.59375 50.828125 
C 4.59375 47.75 5.296875 43.375 8.703125 39.21875 
C 12.40625 34.65625 15.90625 33.859375 23.90625 31.765625 
C 26.90625 30.96875 31.90625 29.671875 32.90625 29.28125 
C 38.59375 26.90625 41.59375 20.953125 41.59375 15.390625 
C 41.59375 8.234375 36.5 0.59375 27.796875 0.59375 
C 17.09375 0.59375 7.09375 6.546875 6.40625 20.484375 
C 6.296875 22.078125 6.203125 22.171875 5.5 22.171875 
C 4.703125 22.171875 4.59375 22.078125 4.59375 20.078125 
L 4.59375 -0.015625 
C 4.59375 -1.796875 4.703125 -1.90625 5.296875 -1.90625 
C 6 -1.90625 6.203125 -1.40625 7.59375 1.6875 
C 7.703125 1.984375 7.703125 2.1875 9.59375 5.953125 
C 14.59375 -0.609375 23 -2 27.796875 -2 
C 38.703125 -2 46.40625 7.046875 46.40625 17.5625 
C 46.40625 22.71875 44.5 26.6875 43.40625 28.484375 
C 39.203125 34.84375 34.703125 36.03125 29.90625 37.21875 
C 29.203125 37.53125 29 37.53125 23.40625 38.90625 
C 18 40.296875 15.703125 41 13.203125 43.6875 
C 10.40625 46.75 9.40625 49.9375 9.40625 53.109375 
C 9.40625 59.5625 14.59375 66.609375 23.09375 66.609375 
C 33.703125 66.609375 40.296875 59.15625 41.796875 46.765625 
C 42.09375 44.96875 42.203125 44.875 42.90625 44.875 
C 43.796875 44.875 43.796875 45.171875 43.796875 46.859375 
z
" id="CMR17-83"/>
       <path d="M 54.203125 25.234375 
L 52.40625 25.234375 
C 51.59375 15.359375 50.296875 2.59375 33.203125 2.59375 
L 23.90625 2.59375 
C 19.90625 2.59375 19.703125 3.078125 19.703125 6.46875 
L 19.703125 60.90625 
C 19.703125 64.515625 19.90625 65.5 27.5 65.5 
L 29.703125 65.5 
L 29.703125 68 
C 25.59375 68 20.796875 68 16.703125 68 
C 13.59375 68 8 68 5.09375 68 
L 5.09375 65.5 
C 12 65.5 13.09375 65.5 13.09375 61.015625 
L 13.09375 7.0625 
C 13.09375 2.59375 12 2.59375 5.09375 2.59375 
L 5.09375 0 
L 51.796875 0 
z
" id="CMR17-76"/>
       <path d="M 30.90625 42.140625 
C 30.90625 43.953125 30.796875 44.046875 30.203125 44.046875 
C 29.796875 44.046875 29.703125 43.953125 28.5 42.453125 
C 28.203125 42.046875 27.296875 41.03125 27 40.640625 
C 23.796875 44.046875 19.296875 44.046875 17.59375 44.046875 
C 6.5 44.046875 2.5 38.234375 2.5 32.4375 
C 2.5 23.40625 12.703125 21.328125 15.59375 20.703125 
C 21.90625 19.421875 24.09375 19.015625 26.203125 17.203125 
C 27.5 16.015625 29.703125 13.8125 29.703125 10.21875 
C 29.703125 6 27.296875 0.59375 18.09375 0.59375 
C 9.40625 0.59375 6.296875 7.1875 4.5 15.953125 
C 4.203125 17.34375 4.203125 17.453125 3.40625 17.453125 
C 2.59375 17.453125 2.5 17.34375 2.5 15.359375 
L 2.5 0.984375 
C 2.5 -0.796875 2.59375 -0.90625 3.203125 -0.90625 
C 3.703125 -0.90625 3.796875 -0.796875 4.296875 0 
C 4.90625 0.890625 6.40625 3.296875 7 4.3125 
C 9 1.609375 12.5 -1 18.09375 -1 
C 28 -1 33.296875 4.421875 33.296875 12.25 
C 33.296875 17.375 30.59375 20.078125 29.296875 21.28125 
C 26.296875 24.390625 22.796875 25.09375 18.59375 25.890625 
C 13.09375 27.109375 6.09375 28.515625 6.09375 34.640625 
C 6.09375 37.234375 7.5 42.765625 17.59375 42.765625 
C 28.296875 42.765625 28.90625 32.71875 29.09375 29.5 
C 29.203125 29 29.703125 28.890625 30 28.890625 
C 30.90625 28.890625 30.90625 29.203125 30.90625 30.90625 
z
" id="CMR17-115"/>
      </defs>
      <use transform="scale(0.996264)" xlink:href="#CMR17-77"/>
      <use transform="translate(84.686941 0)scale(0.996264)" xlink:href="#CMR17-83"/>
      <use transform="translate(135.58231 0)scale(0.996264)" xlink:href="#CMR17-69"/>
      <use transform="translate(228.244577 0)scale(0.996264)" xlink:href="#CMR17-76"/>
      <use transform="translate(285.625985 0)scale(0.996264)" xlink:href="#CMR17-111"/>
      <use transform="translate(331.316462 0)scale(0.996264)" xlink:href="#CMR17-115"/>
      <use transform="translate(367.1178 0)scale(0.996264)" xlink:href="#CMR17-115"/>
     </g>
    </g>
   </g>
   <g id="line2d_11">
    <path clip-path="url(#p3ea6454bfb)" d="M 99.330609 33.235215 
L 99.512148 187.737893 
L 99.693688 224.055769 
L 99.875228 234.426159 
L 100.056767 237.796063 
L 100.419846 249.036623 
L 100.601386 249.087453 
L 100.964465 253.262234 
L 101.146005 253.79871 
L 101.509084 255.673827 
L 102.053703 257.481758 
L 102.779861 258.998514 
L 103.50602 260.027433 
L 104.232178 260.765967 
L 105.139876 261.456973 
L 105.684495 261.775357 
L 106.592193 262.283254 
L 106.955273 262.476493 
L 107.318352 262.386062 
L 107.499891 262.194561 
L 107.862971 262.230999 
L 108.04451 262.310887 
L 108.22605 262.196895 
L 108.40759 261.906896 
L 108.589129 262.34222 
L 108.770669 262.221207 
L 109.133748 262.635907 
L 109.315288 262.556514 
L 109.496827 262.844278 
L 109.678367 262.698553 
L 110.041446 262.982578 
L 110.222986 262.937947 
L 110.404525 263.133782 
L 110.586065 262.997891 
L 110.949144 263.291069 
L 111.312223 263.255366 
L 111.493763 263.377984 
L 111.675303 263.230261 
L 112.219921 263.414225 
L 112.401461 263.324553 
L 112.76454 263.430694 
L 112.94608 263.134172 
L 113.490699 263.255046 
L 113.672238 263.038425 
L 113.853778 263.372012 
L 114.035318 263.237336 
L 114.216857 263.275087 
L 114.398397 263.482469 
L 114.761476 263.377248 
L 114.943016 263.552313 
L 115.124555 263.376252 
L 115.306095 263.604152 
L 115.850714 263.706117 
L 116.032253 263.615112 
L 116.576872 263.77236 
L 116.758412 263.779321 
L 116.939951 263.898191 
L 117.121491 263.795572 
L 117.84765 263.969786 
L 118.210729 263.93397 
L 118.392268 263.945917 
L 118.573808 263.82489 
L 118.936887 264.109775 
L 119.118427 263.907244 
L 119.299966 263.9169 
L 119.481506 264.056375 
L 119.663046 263.723785 
L 120.026125 264.04277 
L 120.570744 263.924112 
L 120.752283 264.079704 
L 121.115363 263.67176 
L 121.296902 263.96956 
L 121.478442 263.968148 
L 121.659981 263.743571 
L 121.841521 263.882933 
L 122.023061 263.81174 
L 122.2046 263.565892 
L 122.38614 263.906527 
L 122.749219 263.77464 
L 122.930759 264.020607 
L 123.112298 263.728345 
L 123.475378 264.059358 
L 123.656917 263.939377 
L 123.838457 264.117832 
L 124.019996 263.887918 
L 124.383076 264.249474 
L 124.564615 264.158339 
L 124.746155 264.248567 
L 124.927695 264.128857 
L 125.472313 264.370738 
L 125.653853 264.348504 
L 125.835393 264.451618 
L 126.016932 264.338057 
L 126.380011 264.543743 
L 126.743091 264.498159 
L 126.92463 264.550377 
L 127.10617 264.315303 
L 127.469249 264.551298 
L 127.832328 264.355769 
L 128.013868 264.518165 
L 128.195408 264.246468 
L 128.376947 264.22311 
L 128.558487 264.381461 
L 128.921566 264.260588 
L 129.103106 264.332428 
L 129.284645 264.080178 
L 129.466185 264.034683 
L 129.647725 264.293179 
L 130.010804 264.05711 
L 130.192343 264.303431 
L 130.373883 264.006844 
L 130.736962 264.417685 
L 130.918502 264.258956 
L 131.100042 264.476236 
L 131.281581 264.394661 
L 131.64466 264.564 
L 132.370819 264.549253 
L 132.552358 264.712169 
L 132.915438 264.670974 
L 133.096977 264.752983 
L 133.278517 264.513552 
L 133.641596 264.752359 
L 133.823136 264.555652 
L 134.186215 264.734639 
L 134.367755 264.44568 
L 134.730834 264.702742 
L 134.912373 264.55951 
L 135.275453 264.72869 
L 135.456992 264.496329 
L 135.820072 264.719438 
L 136.001611 264.580846 
L 136.36469 264.700765 
L 136.54623 264.515925 
L 136.72777 264.500797 
L 136.909309 264.673148 
L 137.272388 264.560398 
L 137.453928 264.660142 
L 137.817007 264.425824 
L 137.998547 264.626131 
L 138.361626 264.541668 
L 138.543166 264.647652 
L 138.724705 264.439647 
L 138.906245 264.42033 
L 139.087785 264.652876 
L 139.450864 264.498846 
L 139.632403 264.712779 
L 139.813943 264.357722 
L 140.177022 264.695263 
L 140.358562 264.485648 
L 140.540102 264.614502 
L 140.903181 264.460551 
L 141.08472 264.703061 
L 141.810879 264.62633 
L 141.992418 264.825152 
L 142.355498 264.790528 
L 142.537037 264.885573 
L 142.718577 264.635974 
L 143.081656 264.932665 
L 143.263196 264.77609 
L 143.626275 264.908113 
L 143.807815 264.538013 
L 144.170894 264.912371 
L 144.352433 264.729538 
L 144.715513 264.808779 
L 144.897052 264.519997 
L 145.260132 264.900486 
L 145.441671 264.709113 
L 145.623211 264.859203 
L 145.80475 264.804593 
L 145.98629 264.569391 
L 146.16783 264.830632 
L 146.349369 264.881839 
L 146.530909 264.723605 
L 146.712448 264.872429 
L 147.075528 264.700959 
L 147.257067 264.906446 
L 147.438607 264.928685 
L 147.620147 264.831174 
L 147.801686 264.940759 
L 147.983226 264.771593 
L 148.527845 264.923064 
L 148.709384 264.874403 
L 148.890924 264.960027 
L 149.072463 264.767749 
L 149.980162 264.926412 
L 150.161701 264.754755 
L 150.52478 264.908621 
L 151.069399 264.943376 
L 151.250939 264.801 
L 151.795558 264.947675 
L 152.340177 264.818561 
L 152.884795 264.940408 
L 153.610954 264.890032 
L 154.337112 264.944705 
L 154.518652 264.742155 
L 154.881731 264.924629 
L 155.42635 264.843164 
L 155.60789 264.760749 
L 155.789429 264.989964 
L 156.152508 264.920376 
L 156.334048 265.046344 
L 156.515588 264.787764 
L 156.878667 265.013481 
L 157.060207 264.836738 
L 157.423286 265.000303 
L 157.604825 264.568511 
L 157.967905 264.932162 
L 158.149444 264.778528 
L 158.330984 264.877425 
L 158.694063 264.638054 
L 158.875603 264.908397 
L 159.601761 264.825797 
L 159.783301 265.003995 
L 160.14638 264.946467 
L 160.32792 265.078176 
L 160.509459 264.802907 
L 160.872538 265.100945 
L 161.054078 264.886841 
L 161.235618 265.024925 
L 161.417157 264.989731 
L 161.598697 264.834258 
L 161.780237 265.046948 
L 162.324855 265.096619 
L 162.506395 264.967567 
L 163.051014 265.1367 
L 165.592568 265.103485 
L 165.774108 264.990092 
L 166.137187 265.10444 
L 166.681806 265.111209 
L 166.863346 264.938568 
L 167.044885 264.922086 
L 167.407965 265.112315 
L 167.589504 265.012669 
L 167.771044 265.127801 
L 168.134123 264.815727 
L 168.315663 265.055268 
L 168.497202 265.076862 
L 168.678742 264.881201 
L 168.860282 265.025382 
L 169.223361 264.705822 
L 169.4049 264.97358 
L 169.58644 264.991637 
L 169.76798 264.895018 
L 169.949519 265.046746 
L 170.131059 264.79053 
L 170.675678 264.951546 
L 170.857217 264.97086 
L 171.038757 264.857152 
L 171.220297 264.879404 
L 171.401836 265.093431 
L 171.583376 264.953148 
L 171.946455 265.123348 
L 172.127995 264.867594 
L 172.309534 265.154935 
L 172.491074 265.152026 
L 172.672613 264.976997 
L 172.854153 265.132825 
L 173.035693 265.0053 
L 173.761851 265.191095 
L 174.12493 265.042394 
L 174.30647 265.205261 
L 174.48801 265.130445 
L 174.851089 265.26826 
L 175.032628 265.00105 
L 175.395708 265.279115 
L 175.577247 265.186817 
L 175.940327 265.248336 
L 176.121866 265.02849 
L 176.303406 265.235598 
L 176.484945 265.249608 
L 176.666485 265.082957 
L 177.029564 265.26178 
L 177.211104 264.893196 
L 177.392643 265.170553 
L 178.118802 265.235722 
L 178.300342 264.96231 
L 178.663421 265.232677 
L 178.84496 265.018538 
L 179.20804 265.203862 
L 179.389579 264.877692 
L 179.571119 265.175316 
L 179.934198 265.087161 
L 180.115738 265.195299 
L 180.297277 265.142153 
L 180.478817 264.868676 
L 180.841896 265.204678 
L 181.568055 264.984021 
L 181.749594 265.241771 
L 182.657292 265.140558 
L 183.201911 265.305326 
L 183.383451 265.323954 
L 183.56499 265.12326 
L 184.109609 265.255289 
L 184.291149 265.05624 
L 184.472688 265.187758 
L 184.654228 265.079275 
L 185.743466 265.210973 
L 185.925005 265.192191 
L 186.288085 265.276136 
L 186.469624 265.18448 
L 186.651164 265.307277 
L 187.014243 265.140631 
L 187.195783 265.33355 
L 187.558862 265.212741 
L 187.740402 265.304766 
L 187.921941 265.245622 
L 188.103481 264.982423 
L 188.28502 265.221713 
L 188.6481 265.231505 
L 188.829639 265.128956 
L 189.011179 265.233145 
L 189.192718 265.052388 
L 189.555798 265.246513 
L 189.737337 265.129876 
L 190.100417 265.308633 
L 190.281956 265.107313 
L 190.645035 265.286767 
L 191.008115 265.200032 
L 191.189654 265.29836 
L 191.371194 265.095861 
L 192.278892 265.277309 
L 192.460432 265.115334 
L 192.641971 265.110027 
L 193.00505 265.232554 
L 193.18659 265.200699 
L 193.36813 265.298716 
L 193.549669 265.079761 
L 194.094288 265.196981 
L 195.546605 265.413187 
L 195.728145 265.158692 
L 196.272763 265.344198 
L 196.454303 265.220772 
L 196.635843 265.339804 
L 196.998922 265.116744 
L 197.180462 265.296362 
L 197.543541 265.257488 
L 197.90662 265.214289 
L 198.08816 265.031719 
L 198.269699 265.265991 
L 199.177397 264.99147 
L 199.358937 265.21972 
L 199.540477 265.079946 
L 199.722016 265.112366 
L 199.903556 265.284193 
L 200.085095 265.072468 
L 200.448175 265.228055 
L 201.174333 265.201058 
L 201.355873 265.356516 
L 201.718952 265.28674 
L 201.900492 265.36867 
L 202.082031 265.17142 
L 202.44511 265.367164 
L 202.62665 265.247108 
L 202.989729 265.337827 
L 203.171269 265.160213 
L 203.352808 265.368543 
L 203.715888 265.324237 
L 203.897427 265.400762 
L 204.260507 265.218429 
L 204.442046 265.361955 
L 205.349744 265.271751 
L 205.531284 265.350161 
L 205.712823 265.255525 
L 206.075903 265.382048 
L 206.257442 265.255613 
L 206.438982 265.379699 
L 206.802061 265.351279 
L 206.983601 265.434416 
L 207.34668 265.316977 
L 207.709759 265.412417 
L 208.435918 265.22664 
L 208.617457 265.385513 
L 208.980537 265.291564 
L 209.162076 265.421496 
L 209.525155 265.235546 
L 209.706695 265.376614 
L 210.069774 265.392555 
L 210.251314 265.377643 
L 210.432853 265.201251 
L 210.614393 265.192016 
L 210.795933 265.356316 
L 211.159012 265.229711 
L 211.340552 265.361381 
L 212.06671 265.272458 
L 212.429789 265.410565 
L 212.792868 265.267203 
L 212.974408 265.384425 
L 213.882106 265.233891 
L 214.063646 265.374086 
L 214.245185 265.242388 
L 214.608265 265.402056 
L 214.789804 265.178718 
L 215.697502 265.388914 
L 215.879042 265.205958 
L 216.242121 265.363056 
L 216.423661 265.276536 
L 216.6052 265.346618 
L 216.96828 265.202013 
L 217.149819 265.387388 
L 217.331359 265.229574 
L 218.239057 265.357373 
L 218.420597 265.353492 
L 218.602136 265.470812 
L 219.328295 265.426764 
L 220.599072 265.282492 
L 220.780612 265.43121 
L 220.962151 265.270354 
L 221.32523 265.410092 
L 221.50677 265.352421 
L 221.869849 265.492587 
L 222.051389 265.220046 
L 222.414468 265.409174 
L 223.140627 265.211127 
L 223.322166 265.396099 
L 223.685245 265.28229 
L 223.866785 265.436802 
L 224.229864 265.309586 
L 224.411404 265.41553 
L 224.592943 265.318843 
L 224.956023 265.482557 
L 225.137562 265.270302 
L 225.500642 265.405047 
L 226.04526 265.410058 
L 226.2268 265.317945 
L 226.589879 265.445061 
L 226.771419 265.387517 
L 226.952959 265.496675 
L 227.860657 265.447174 
L 228.042196 265.498581 
L 228.405275 265.311875 
L 228.768355 265.431648 
L 228.949894 265.324273 
L 229.131434 265.424504 
L 229.494513 265.285102 
L 229.676053 265.438273 
L 229.857592 265.315307 
L 230.402211 265.326116 
L 230.583751 265.284791 
L 230.94683 265.341436 
L 231.309909 265.452174 
L 231.491449 265.156845 
L 231.854528 265.381525 
L 232.217607 265.265754 
L 232.580687 265.143313 
L 232.762226 265.381191 
L 233.125305 265.303973 
L 233.306845 265.425281 
L 233.488385 265.3122 
L 233.669924 265.481644 
L 234.033004 265.433342 
L 234.214543 265.572226 
L 234.577622 265.47224 
L 235.122241 265.580501 
L 235.303781 265.609926 
L 235.48532 265.423511 
L 236.393019 265.524026 
L 236.756098 265.375111 
L 236.937637 265.461518 
L 237.119177 265.359669 
L 237.482256 265.5076 
L 237.663796 265.220599 
L 238.208415 265.336447 
L 238.389954 265.253958 
L 238.571494 265.396235 
L 238.753034 265.192627 
L 239.116113 265.390325 
L 239.297652 265.248841 
L 239.479192 265.384889 
L 239.842271 265.323618 
L 240.023811 265.477831 
L 240.20535 265.375815 
L 240.56843 265.559557 
L 240.749969 265.357875 
L 241.113049 265.497659 
L 241.657667 265.49283 
L 241.839207 265.39449 
L 242.202286 265.500513 
L 242.383826 265.406949 
L 242.565365 265.522493 
L 243.473064 265.506996 
L 243.654603 265.580642 
L 244.199222 265.50182 
L 244.92538 265.409205 
L 245.10692 265.281056 
L 245.28846 265.474021 
L 245.651539 265.354503 
L 245.833079 265.511923 
L 246.196158 265.338934 
L 246.377697 265.444214 
L 246.740777 265.463981 
L 246.922316 265.512844 
L 247.103856 265.279048 
L 247.648475 265.34714 
L 247.830014 265.267109 
L 248.011554 265.374683 
L 248.193094 265.188975 
L 248.374633 265.388316 
L 249.82695 265.54174 
L 250.00849 265.579324 
L 250.190029 265.376886 
L 250.734648 265.493438 
L 250.916188 265.379574 
L 251.097727 265.476548 
L 251.279267 265.357658 
L 251.642346 265.492627 
L 251.823886 265.410228 
L 252.186965 265.55085 
L 252.368505 265.415472 
L 252.550044 265.538885 
L 253.094663 265.492073 
L 253.276203 265.470701 
L 253.457742 265.297752 
L 253.639282 265.442234 
L 254.54698 265.257336 
L 254.72852 265.429427 
L 254.910059 265.299941 
L 255.273139 265.510233 
L 255.454678 265.245001 
L 255.636218 265.388009 
L 256.543916 265.352314 
L 256.725455 265.489425 
L 257.088535 265.409436 
L 257.270074 265.517005 
L 257.451614 265.377699 
L 257.814693 265.564063 
L 257.996233 265.476911 
L 258.177772 265.581698 
L 258.540852 265.512221 
L 258.722391 265.621134 
L 258.903931 265.520713 
L 259.26701 265.641101 
L 259.630089 265.50636 
L 259.993169 265.555488 
L 260.174708 265.474259 
L 260.537787 265.524435 
L 260.719327 265.382101 
L 260.900867 265.54584 
L 261.082406 265.416781 
L 261.627025 265.490912 
L 261.808565 265.311903 
L 261.990104 265.468348 
L 262.897802 265.247321 
L 263.079342 265.463269 
L 263.442421 265.282775 
L 263.623961 265.441999 
L 263.8055 265.27401 
L 263.98704 265.421115 
L 264.350119 265.372767 
L 264.531659 265.560524 
L 265.257817 265.48041 
L 265.620897 265.627342 
L 265.802436 265.435997 
L 266.347055 265.541959 
L 266.528595 265.503623 
L 266.710134 265.60225 
L 266.891674 265.484011 
L 267.799372 265.642653 
L 267.980912 265.451331 
L 268.52553 265.479006 
L 268.70707 265.37822 
L 268.88861 265.504945 
L 269.070149 265.348532 
L 269.433229 265.469236 
L 269.614768 265.355058 
L 269.977847 265.566141 
L 270.159387 265.409829 
L 270.340927 265.526728 
L 270.704006 265.465729 
L 271.067085 265.490936 
L 271.248625 265.360192 
L 271.430164 265.508374 
L 271.793244 265.416809 
L 271.974783 265.567304 
L 272.156323 265.424561 
L 272.519402 265.589493 
L 272.700942 265.466204 
L 273.064021 265.655954 
L 273.24556 265.492712 
L 273.4271 265.605762 
L 275.060957 265.506246 
L 275.242496 265.568043 
L 275.424036 265.337298 
L 275.605575 265.527378 
L 275.787115 265.442421 
L 276.331734 265.490576 
L 276.513274 265.356597 
L 276.694813 265.520497 
L 277.057892 265.345157 
L 277.239432 265.53066 
L 277.420972 265.343258 
L 277.784051 265.513595 
L 277.96559 265.38707 
L 278.14713 265.543881 
L 278.32867 265.545435 
L 278.510209 265.428742 
L 278.691749 265.563717 
L 278.873289 265.514643 
L 279.236368 265.681215 
L 279.417907 265.511863 
L 279.780987 265.611229 
L 280.507145 265.514603 
L 280.688685 265.631786 
L 281.051764 265.533746 
L 281.233304 265.660641 
L 282.68562 265.438297 
L 282.86716 265.544484 
L 283.230239 265.439534 
L 283.411779 265.576579 
L 283.774858 265.464902 
L 283.956398 265.561557 
L 284.137937 265.424947 
L 284.501017 265.596249 
L 284.682556 265.38313 
L 285.045635 265.504058 
L 285.408715 265.453408 
L 285.590254 265.533182 
L 285.771794 265.325555 
L 285.953334 265.533605 
L 286.316413 265.367614 
L 286.497952 265.564656 
L 286.861032 265.489892 
L 287.042571 265.600519 
L 287.224111 265.4733 
L 287.58719 265.681078 
L 287.76873 265.52728 
L 288.131809 265.667005 
L 289.584126 265.650617 
L 289.765665 265.663953 
L 289.947205 265.436078 
L 290.128745 265.569434 
L 290.854903 265.622357 
L 291.036443 265.356713 
L 291.217982 265.505239 
L 291.399522 265.489554 
L 291.581062 265.336258 
L 291.762601 265.506503 
L 292.670299 265.525052 
L 292.851839 265.652821 
L 293.214918 265.509981 
L 293.941077 265.610713 
L 294.122616 265.475798 
L 294.485695 265.55478 
L 294.848775 265.588636 
L 295.756473 265.523061 
L 295.938012 265.629213 
L 296.119552 265.475768 
L 296.84571 265.532179 
L 297.02725 265.634332 
L 297.20879 265.338648 
L 297.390329 265.532917 
L 298.298027 265.380502 
L 298.479567 265.593729 
L 298.661107 265.427219 
L 299.024186 265.597639 
L 299.205725 265.421487 
L 299.568805 265.522185 
L 299.750344 265.498843 
L 299.931884 265.661395 
L 300.294963 265.594179 
L 301.021122 265.729926 
L 301.202661 265.54161 
L 301.384201 265.690643 
L 302.291899 265.538618 
L 302.473439 265.674421 
L 302.836518 265.55206 
L 303.018057 265.664564 
L 303.381137 265.43467 
L 303.562676 265.629449 
L 303.744216 265.504123 
L 304.107295 265.63778 
L 304.288835 265.365645 
L 304.651914 265.56927 
L 304.833454 265.416212 
L 305.196533 265.477103 
L 305.378072 265.38415 
L 305.559612 265.570634 
L 305.741152 265.455971 
L 307.556548 265.713355 
L 307.738087 265.671481 
L 307.919627 265.80984 
L 309.008865 265.709677 
L 309.190404 265.768076 
L 309.371944 265.614876 
L 309.735023 265.66752 
L 309.916563 265.497071 
L 310.279642 265.703945 
L 310.461182 265.47158 
L 311.36888 265.644 
L 311.550419 265.33118 
L 311.913499 265.530588 
L 312.095038 265.350329 
L 312.276578 265.460732 
L 312.458117 265.414934 
L 312.639657 265.22414 
L 312.821197 265.482377 
L 313.002736 265.292596 
L 313.365815 265.46112 
L 313.547355 265.368493 
L 313.728895 265.580831 
L 313.910434 265.406945 
L 314.273514 265.513742 
L 314.455053 265.447273 
L 314.636593 265.602673 
L 314.818132 265.479486 
L 314.999672 265.572068 
L 315.362751 265.566516 
L 315.544291 265.6699 
L 315.72583 265.551257 
L 315.90737 265.640485 
L 316.270449 265.56717 
L 316.451989 265.676688 
L 316.633529 265.553337 
L 316.996608 265.599669 
L 317.178147 265.579193 
L 317.359687 265.699986 
L 317.541227 265.602388 
L 317.904306 265.716432 
L 318.085845 265.595918 
L 318.267385 265.74695 
L 318.630464 265.687325 
L 318.812004 265.796339 
L 319.175083 265.705703 
L 319.356623 265.777945 
L 319.538162 265.700189 
L 319.901242 265.842525 
L 320.082781 265.698738 
L 320.6274 265.717845 
L 320.80894 265.628666 
L 320.990479 265.759002 
L 321.353559 265.597264 
L 321.535098 265.728982 
L 321.716638 265.574975 
L 322.079717 265.723015 
L 322.442796 265.464987 
L 322.624336 265.635165 
L 322.987415 265.516135 
L 323.168955 265.638532 
L 323.350494 265.373463 
L 323.713574 265.550973 
L 323.895113 265.361659 
L 324.258192 265.414581 
L 324.439732 265.318019 
L 324.621272 265.527553 
L 324.802811 265.374226 
L 324.984351 265.451372 
L 325.34743 265.342384 
L 325.52897 265.524358 
L 325.710509 265.341056 
L 325.892049 265.537791 
L 326.073589 265.35608 
L 326.436668 265.531945 
L 326.618207 265.480569 
L 326.799747 265.651477 
L 326.981287 265.39939 
L 327.162826 265.567578 
L 327.525906 265.474762 
L 327.707445 265.581301 
L 327.888985 265.441232 
L 328.070524 265.624987 
L 328.252064 265.538631 
L 328.615143 265.539534 
L 329.159762 265.560905 
L 329.341302 265.671083 
L 329.522841 265.473995 
L 329.885921 265.619123 
L 330.06746 265.520913 
L 330.249 265.675527 
L 330.430539 265.463323 
L 330.612079 265.605181 
L 330.975158 265.553244 
L 331.156698 265.683032 
L 331.338237 265.484196 
L 331.519777 265.624934 
L 332.245936 265.58316 
L 332.427475 265.715523 
L 332.790554 265.708525 
L 334.061332 265.675133 
L 334.242871 265.785723 
L 334.605951 265.724748 
L 335.150569 265.788399 
L 335.513649 265.697597 
L 335.695188 265.808306 
L 335.876728 265.672296 
L 336.239807 265.780246 
L 336.421347 265.686986 
L 336.784426 265.806898 
L 336.965966 265.626688 
L 337.329045 265.735192 
L 337.873664 265.680003 
L 338.055203 265.559184 
L 338.236743 265.694591 
L 338.599822 265.520679 
L 338.781362 265.671225 
L 338.962901 265.510003 
L 339.325981 265.665554 
L 339.50752 265.50789 
L 339.68906 265.668262 
L 340.778297 265.743531 
L 340.959837 265.539121 
L 341.141377 265.682913 
L 342.049075 265.587105 
L 342.230614 265.691603 
L 342.593694 265.616982 
L 342.775233 265.641476 
L 342.956773 265.544264 
L 343.138312 265.6815 
L 343.501392 265.62078 
L 343.682931 265.666747 
L 343.864471 265.565696 
L 344.046011 265.718536 
L 344.40909 265.651188 
L 344.590629 265.788323 
L 344.772169 265.644493 
L 345.135248 265.790389 
L 345.316788 265.705887 
L 345.498327 265.826007 
L 346.224486 265.746981 
L 346.587565 265.816222 
L 346.950644 265.709524 
L 347.132184 265.80121 
L 347.495263 265.660237 
L 347.676803 265.768004 
L 348.039882 265.558153 
L 348.221422 265.686072 
L 348.402961 265.546898 
L 348.766041 265.719213 
L 348.94758 265.519304 
L 349.310659 265.635783 
L 349.492199 265.575012 
L 349.673739 265.738118 
L 350.036818 265.541314 
L 350.218357 265.671606 
L 350.399897 265.557812 
L 350.762976 265.685838 
L 350.944516 265.375617 
L 351.126056 265.575778 
L 351.489135 265.577488 
L 351.670674 265.672496 
L 351.852214 265.384981 
L 352.033754 265.55518 
L 352.578372 265.670195 
L 352.759912 265.42653 
L 352.941452 265.586468 
L 353.304531 265.547295 
L 353.486071 265.647008 
L 353.66761 265.453185 
L 353.84915 265.64574 
L 354.212229 265.616743 
L 354.393769 265.656286 
L 354.575308 265.51815 
L 354.756848 265.662763 
L 355.301467 265.622484 
L 358.932259 265.742479 
L 359.113799 265.689916 
L 359.295338 265.816091 
L 359.658417 265.741227 
L 359.839957 265.829148 
L 360.021497 265.720305 
L 360.384576 265.845471 
L 360.566116 265.759362 
L 360.929195 265.835363 
L 361.110734 265.713821 
L 361.473814 265.795427 
L 362.563051 265.725738 
L 362.744591 265.537221 
L 363.10767 265.701817 
L 363.28921 265.500189 
L 363.470749 265.660484 
L 363.833829 265.574642 
L 364.015368 265.670148 
L 364.378447 265.500239 
L 364.559987 265.627837 
L 364.741527 265.510402 
L 364.923066 265.604972 
L 365.286146 265.464774 
L 365.467685 265.609615 
L 365.649225 265.508209 
L 365.830764 265.578944 
L 366.193844 265.468791 
L 366.375383 265.636228 
L 366.556923 265.53172 
L 366.738462 265.657489 
L 366.920002 265.536805 
L 367.283081 265.645071 
L 367.464621 265.561069 
L 367.646161 265.715977 
L 367.8277 265.520932 
L 368.00924 265.670398 
L 368.372319 265.568088 
L 368.553859 265.695354 
L 368.735398 265.549421 
L 368.916938 265.710442 
L 369.098477 265.626426 
L 369.280017 265.665189 
L 369.643096 265.60972 
L 369.824636 265.709258 
L 370.006176 265.607216 
L 370.187715 265.693526 
L 370.369255 265.52314 
L 370.732334 265.669424 
L 370.913874 265.63632 
L 371.095413 265.737284 
L 371.276953 265.529845 
L 371.458492 265.707979 
L 371.821572 265.656428 
L 376.904681 265.878471 
L 377.086221 265.781157 
L 377.4493 265.88126 
L 377.630839 265.793632 
L 377.993919 265.871497 
L 379.809315 265.59994 
L 379.990854 265.734407 
L 380.353934 265.604216 
L 380.535473 265.744637 
L 380.717013 265.56537 
L 381.624711 265.611142 
L 381.806251 265.535864 
L 381.98779 265.688854 
L 382.16933 265.525468 
L 382.532409 265.634017 
L 382.713949 265.506748 
L 382.895488 265.699745 
L 383.077028 265.600613 
L 383.440107 265.712408 
L 383.621647 265.658002 
L 383.803186 265.783216 
L 383.984726 265.70821 
L 384.347805 265.796847 
L 384.529345 265.748801 
L 384.710884 265.873183 
L 384.892424 265.79985 
L 385.255503 265.871312 
L 385.437043 265.745017 
L 385.800122 265.850349 
L 387.252439 265.836945 
L 387.433979 265.666862 
L 388.341677 265.675408 
L 388.523216 265.503416 
L 388.704756 265.687869 
L 388.886296 265.544412 
L 389.067835 265.555461 
L 389.249375 265.682436 
L 389.430914 265.508823 
L 389.612454 265.683085 
L 389.975533 265.625892 
L 390.157073 265.743173 
L 390.338612 265.662584 
L 390.520152 265.793168 
L 390.883231 265.786769 
L 391.246311 265.816336 
L 391.972469 265.919348 
L 394.332484 265.677799 
L 394.514024 265.507545 
L 394.695563 265.675344 
L 394.877103 265.529864 
L 395.240182 265.663494 
L 395.421722 265.387431 
L 395.603261 265.588433 
L 395.966341 265.545835 
L 396.14788 265.68337 
L 396.32942 265.40958 
L 396.692499 265.567408 
L 396.874039 265.543861 
L 397.055578 265.663953 
L 397.237118 265.557785 
L 397.418657 265.711593 
L 397.600197 265.632275 
L 397.963276 265.677809 
L 398.144816 265.600215 
L 398.326356 265.754879 
L 398.507895 265.658699 
L 398.689435 265.768885 
L 398.870974 265.66814 
L 399.234054 265.764873 
L 399.415593 265.719083 
L 399.597133 265.804591 
L 399.778672 265.65703 
L 399.960212 265.772455 
L 400.686371 265.68636 
L 400.86791 265.797257 
L 401.594069 265.752524 
L 401.957148 265.820602 
L 402.683306 265.898077 
L 403.409465 265.812474 
L 403.772544 265.863035 
L 404.317163 265.803613 
L 404.680242 265.873577 
L 404.861782 265.817351 
L 405.043321 265.898359 
L 405.406401 265.821331 
L 405.58794 265.892034 
L 405.76948 265.819172 
L 406.132559 265.903118 
L 406.314099 265.808421 
L 406.677178 265.870821 
L 408.492574 265.712711 
L 408.674114 265.831528 
L 409.037193 265.73835 
L 409.218732 265.831487 
L 409.581812 265.683626 
L 410.126431 265.809866 
L 411.034129 265.730017 
L 411.215668 265.766631 
L 411.397208 265.457205 
L 411.760287 265.678325 
L 411.941827 265.629186 
L 412.123366 265.747092 
L 412.304906 265.528309 
L 413.031064 265.759946 
L 413.212604 265.608898 
L 413.575683 265.754298 
L 413.757223 265.68809 
L 413.938762 265.825634 
L 414.120302 265.713342 
L 414.483381 265.817771 
L 414.664921 265.762042 
L 414.846461 265.872687 
L 415.028 265.78775 
L 415.391079 265.885614 
L 415.572619 265.81525 
L 415.754159 265.915736 
L 416.117238 265.853899 
L 416.298778 265.926068 
L 416.480317 265.838491 
L 416.843396 265.939524 
L 417.024936 265.825718 
L 417.569555 265.890404 
L 417.932634 265.893906 
L 418.114174 265.788691 
L 418.477253 265.859135 
L 418.658793 265.796002 
L 418.840332 265.879928 
L 419.203411 265.694991 
L 419.384951 265.808997 
L 419.566491 265.693753 
L 419.92957 265.836249 
L 420.111109 265.669563 
L 420.474189 265.777276 
L 420.655728 265.722832 
L 420.837268 265.831183 
L 421.200347 265.692284 
L 421.381887 265.813237 
L 421.563426 265.726033 
L 421.926506 265.824363 
L 422.108045 265.596237 
L 422.471124 265.751054 
L 422.834204 265.814626 
L 423.015743 265.564633 
L 423.015743 265.564633 
" style="fill:none;stroke:#4c72b0;stroke-linecap:square;stroke-width:2;"/>
   </g>
   <g id="line2d_12">
    <path clip-path="url(#p3ea6454bfb)" d="M 99.330609 179.54494 
L 99.512148 218.738054 
L 100.056767 246.126061 
L 100.238307 249.004331 
L 100.419846 247.865734 
L 100.782926 253.147474 
L 100.964465 253.270791 
L 101.327545 255.14943 
L 101.872163 257.136536 
L 102.416782 258.172823 
L 103.32448 259.462002 
L 104.776797 260.580213 
L 106.955273 261.410941 
L 107.136812 261.330991 
L 107.499891 260.795224 
L 107.681431 260.934718 
L 107.862971 261.641746 
L 108.22605 259.684218 
L 108.40759 261.363778 
L 108.589129 260.905361 
L 108.770669 261.419636 
L 108.952208 261.240961 
L 109.133748 260.609463 
L 109.315288 261.785847 
L 109.496827 261.251348 
L 109.678367 261.918411 
L 110.041446 261.102374 
L 110.222986 261.937145 
L 110.404525 261.533979 
L 110.767605 262.014922 
L 110.949144 261.459866 
L 111.130684 261.549894 
L 111.312223 262.14411 
L 111.493763 261.734847 
L 111.675303 261.849764 
L 111.856842 262.259566 
L 112.219921 261.321657 
L 112.583001 262.247633 
L 112.76454 261.554228 
L 112.94608 261.554542 
L 113.12762 262.341882 
L 113.490699 260.749053 
L 113.672238 262.23991 
L 114.035318 261.612878 
L 114.216857 262.389186 
L 114.398397 261.202756 
L 114.579936 261.41279 
L 114.761476 262.336848 
L 114.943016 261.63963 
L 115.124555 262.245381 
L 115.306095 262.125218 
L 115.487635 261.382388 
L 115.669174 262.148125 
L 116.032253 262.010965 
L 116.213793 262.480437 
L 116.576872 261.679065 
L 116.758412 262.403431 
L 117.121491 262.139403 
L 117.303031 262.464124 
L 117.66611 261.821829 
L 117.84765 261.955662 
L 118.029189 262.527012 
L 118.210729 262.342006 
L 118.392268 261.882201 
L 118.573808 262.642638 
L 118.755348 262.302945 
L 118.936887 261.645309 
L 119.118427 261.899986 
L 119.299966 262.51552 
L 119.481506 262.078856 
L 119.663046 262.04462 
L 119.844585 262.309933 
L 120.026125 262.339854 
L 120.207665 261.453184 
L 120.389204 261.71461 
L 120.570744 262.52968 
L 120.752283 262.088378 
L 120.933823 261.354038 
L 121.115363 262.567803 
L 121.478442 260.968725 
L 121.659981 262.0099 
L 121.841521 262.296679 
L 122.023061 261.230915 
L 122.2046 262.556504 
L 122.56768 261.130048 
L 122.749219 262.536512 
L 122.930759 261.632588 
L 123.293838 262.38261 
L 123.475378 261.270398 
L 123.656917 262.439185 
L 123.838457 261.896053 
L 124.019996 262.051543 
L 124.201536 262.526981 
L 124.383076 261.557544 
L 124.564615 262.314878 
L 124.746155 262.264248 
L 124.927695 262.085673 
L 125.109234 262.695683 
L 125.290774 261.9804 
L 125.472313 262.025447 
L 125.653853 262.690133 
L 125.835393 262.179727 
L 126.198472 262.65325 
L 126.380011 261.956918 
L 126.743091 262.684846 
L 126.92463 262.074299 
L 127.28771 262.767882 
L 127.469249 261.898529 
L 127.650789 261.820149 
L 127.832328 262.655779 
L 128.195408 261.789859 
L 128.376947 262.737543 
L 128.740026 261.424763 
L 128.921566 262.36833 
L 129.103106 262.203384 
L 129.284645 261.620773 
L 129.466185 262.66666 
L 129.647725 261.710565 
L 129.829264 261.42116 
L 130.010804 262.74142 
L 130.192343 261.584456 
L 130.373883 262.430124 
L 130.555423 262.397052 
L 130.736962 261.560036 
L 130.918502 262.637629 
L 131.100042 262.244588 
L 131.281581 262.292697 
L 131.463121 262.636737 
L 131.64466 261.890798 
L 131.8262 262.410813 
L 132.00774 262.544631 
L 132.189279 262.19033 
L 132.370819 262.758442 
L 132.733898 262.091812 
L 132.915438 262.699067 
L 133.096977 262.320208 
L 133.278517 262.318413 
L 133.460057 262.80165 
L 133.641596 262.032197 
L 133.823136 262.045024 
L 134.004675 262.683757 
L 134.186215 262.295152 
L 134.367755 262.256396 
L 134.549294 262.762764 
L 134.912373 261.89834 
L 135.093913 262.652386 
L 135.456992 262.16742 
L 135.638532 262.705008 
L 136.001611 261.794712 
L 136.183151 262.540255 
L 136.36469 262.395943 
L 136.54623 261.991768 
L 136.72777 262.611228 
L 136.909309 262.372265 
L 137.090849 261.628946 
L 137.272388 262.44331 
L 137.453928 262.459395 
L 137.635468 261.823565 
L 137.817007 262.576521 
L 137.998547 262.33019 
L 138.180087 261.574656 
L 138.361626 262.486467 
L 138.543166 262.311504 
L 138.724705 261.796861 
L 138.906245 262.75074 
L 139.087785 261.934622 
L 139.269324 261.671786 
L 139.450864 262.82615 
L 139.632403 261.822606 
L 139.995483 262.688075 
L 140.177022 261.485031 
L 140.358562 262.363312 
L 140.540102 262.484642 
L 140.721641 261.765895 
L 140.903181 262.813294 
L 141.08472 261.89483 
L 141.26626 261.913609 
L 141.4478 262.739966 
L 141.629339 262.113018 
L 141.810879 262.658827 
L 142.173958 261.976025 
L 142.355498 262.828262 
L 142.537037 262.263366 
L 142.718577 262.457758 
L 142.900117 262.819596 
L 143.081656 261.946183 
L 143.444735 262.838305 
L 143.626275 261.968168 
L 143.807815 262.608407 
L 143.989354 262.742829 
L 144.170894 261.794275 
L 144.533973 262.752513 
L 144.715513 261.79978 
L 144.897052 262.708007 
L 145.078592 262.590205 
L 145.260132 261.781847 
L 145.441671 262.553085 
L 145.623211 262.657076 
L 145.80475 261.808185 
L 145.98629 262.809842 
L 146.349369 261.809623 
L 146.530909 262.668117 
L 146.712448 262.469694 
L 146.893988 261.985733 
L 147.075528 262.884933 
L 147.257067 262.206642 
L 147.438607 262.023659 
L 147.620147 262.829409 
L 147.801686 262.311851 
L 147.983226 262.258566 
L 148.164765 262.856053 
L 148.346305 262.07915 
L 148.527845 262.160283 
L 148.709384 262.871358 
L 148.890924 262.185521 
L 149.072463 262.275455 
L 149.254003 262.812238 
L 149.435543 262.022061 
L 149.617082 262.130352 
L 149.798622 262.83292 
L 149.980162 262.184662 
L 150.161701 262.300739 
L 150.343241 262.780151 
L 150.52478 262.014654 
L 150.70632 262.248911 
L 150.88786 262.860634 
L 151.069399 262.194885 
L 151.250939 262.353569 
L 151.432478 262.693036 
L 151.614018 262.044426 
L 151.795558 262.295393 
L 151.977097 262.825339 
L 152.158637 262.249448 
L 152.340177 262.368584 
L 152.521716 262.707833 
L 152.703256 261.969679 
L 152.884795 262.284196 
L 153.066335 262.846553 
L 153.247875 262.207593 
L 153.429414 262.361248 
L 153.610954 262.724644 
L 153.792493 261.919948 
L 153.974033 262.19947 
L 154.155573 262.840392 
L 154.337112 262.101136 
L 154.700192 262.637319 
L 154.881731 261.859385 
L 155.24481 262.67864 
L 155.42635 262.057649 
L 155.60789 262.746517 
L 155.970969 261.922239 
L 156.152508 262.813756 
L 156.515588 262.150593 
L 156.697127 262.902126 
L 156.878667 261.909706 
L 157.060207 262.008775 
L 157.241746 262.942392 
L 157.423286 261.885059 
L 157.786365 262.699999 
L 157.967905 261.546747 
L 158.149444 262.449832 
L 158.330984 262.585296 
L 158.512523 261.814841 
L 158.694063 262.91987 
L 158.875603 261.987421 
L 159.057142 261.973665 
L 159.238682 262.890565 
L 159.420222 262.230867 
L 159.601761 262.767069 
L 159.96484 262.029036 
L 160.14638 262.941022 
L 160.32792 262.293888 
L 160.509459 262.674817 
L 160.690999 262.781095 
L 160.872538 261.787918 
L 161.054078 262.61779 
L 161.235618 262.778216 
L 161.417157 262.089355 
L 161.598697 262.959896 
L 161.780237 262.25681 
L 161.961776 262.079361 
L 162.143316 262.996862 
L 162.324855 262.48405 
L 162.687935 262.790418 
L 162.869474 262.20916 
L 163.232553 262.877267 
L 163.414093 262.456184 
L 163.595633 262.884064 
L 163.958712 262.266391 
L 164.140252 262.813488 
L 164.321791 262.779466 
L 164.503331 262.414757 
L 164.68487 262.913393 
L 165.04795 262.311543 
L 165.411029 262.909167 
L 165.592568 262.277925 
L 165.955648 262.820235 
L 166.137187 262.214655 
L 166.318727 262.220349 
L 166.500267 263.049023 
L 166.681806 262.392076 
L 166.863346 262.290504 
L 167.044885 262.946519 
L 167.407965 262.051982 
L 167.589504 262.954471 
L 167.771044 262.633763 
L 167.952583 262.079635 
L 168.134123 262.969352 
L 168.497202 261.778851 
L 168.678742 262.733388 
L 168.860282 262.668855 
L 169.041821 261.839681 
L 169.223361 262.976806 
L 169.58644 261.905646 
L 169.76798 262.965812 
L 169.949519 262.385595 
L 170.131059 262.255535 
L 170.312598 262.880388 
L 170.494138 261.832839 
L 170.857217 262.76028 
L 171.038757 262.221246 
L 171.220297 263.004349 
L 171.401836 262.141914 
L 171.583376 262.31978 
L 171.764915 263.034543 
L 171.946455 262.233726 
L 172.127995 262.896574 
L 172.309534 262.686882 
L 172.491074 261.967221 
L 172.672613 262.97103 
L 173.035693 262.511918 
L 173.217232 262.986455 
L 173.398772 262.172393 
L 173.761851 263.006648 
L 173.943391 262.385828 
L 174.12493 262.9597 
L 174.48801 262.345655 
L 174.669549 262.967885 
L 174.851089 262.637974 
L 175.032628 262.630513 
L 175.214168 263.060601 
L 175.395708 262.326483 
L 175.577247 262.565857 
L 175.758787 263.071681 
L 175.940327 262.461682 
L 176.303406 263.046652 
L 176.484945 262.081616 
L 176.848025 263.079488 
L 177.029564 262.32763 
L 177.392643 262.982908 
L 177.574183 262.264037 
L 177.937262 263.043479 
L 178.118802 262.352748 
L 178.481881 263.029055 
L 178.663421 261.937618 
L 179.0265 263.092347 
L 179.20804 262.272223 
L 179.389579 262.813474 
L 179.571119 262.815777 
L 179.752658 262.105675 
L 179.934198 262.784266 
L 180.115738 263.007407 
L 180.297277 262.071155 
L 180.478817 262.96167 
L 180.660357 262.838806 
L 180.841896 262.187738 
L 181.023436 262.82821 
L 181.204975 262.782572 
L 181.386515 262.314504 
L 181.568055 263.0523 
L 181.931134 262.195927 
L 182.112673 263.06144 
L 182.475753 262.479314 
L 182.657292 263.079544 
L 182.838832 262.553955 
L 183.020372 262.635566 
L 183.201911 263.094606 
L 183.383451 262.541974 
L 183.56499 262.620263 
L 183.74653 263.08804 
L 184.109609 262.159703 
L 184.291149 262.99791 
L 184.654228 262.532631 
L 184.835768 263.138505 
L 185.017307 262.470807 
L 185.198847 262.429402 
L 185.380387 263.137758 
L 185.561926 262.737621 
L 185.743466 262.645469 
L 185.925005 263.098048 
L 186.288085 262.214192 
L 186.469624 263.046497 
L 186.832703 262.55467 
L 187.014243 263.07731 
L 187.377322 262.287268 
L 187.558862 262.954835 
L 187.740402 262.977919 
L 187.921941 262.248795 
L 188.103481 262.896442 
L 188.28502 263.044494 
L 188.46656 262.398617 
L 188.6481 262.370281 
L 188.829639 263.011421 
L 189.011179 262.575812 
L 189.192718 262.568714 
L 189.374258 263.161999 
L 189.555798 262.286466 
L 189.737337 262.440697 
L 189.918877 263.087113 
L 190.100417 262.577955 
L 190.281956 262.687708 
L 190.463496 263.141596 
L 190.826575 262.281406 
L 191.008115 263.064804 
L 191.371194 262.474473 
L 191.552733 263.150719 
L 191.734273 262.310402 
L 191.915813 262.19077 
L 192.097352 263.078825 
L 192.460432 262.427156 
L 192.641971 263.09789 
L 193.00505 262.255387 
L 193.18659 263.048785 
L 193.549669 262.507738 
L 193.731209 263.091979 
L 193.912748 262.38151 
L 194.094288 262.405843 
L 194.275828 263.184258 
L 194.457367 262.732859 
L 194.638907 262.580994 
L 194.820447 263.058252 
L 195.001986 262.633669 
L 195.183526 262.722976 
L 195.365065 263.096743 
L 195.546605 262.65266 
L 195.728145 262.627378 
L 195.909684 263.108773 
L 196.272763 262.277353 
L 196.454303 262.904033 
L 196.635843 263.004785 
L 196.817382 262.334799 
L 196.998922 263.033566 
L 197.180462 262.869744 
L 197.362001 262.294564 
L 197.72508 262.953527 
L 197.90662 262.33625 
L 198.08816 262.988974 
L 198.269699 262.871138 
L 198.451239 261.923212 
L 198.632778 262.73589 
L 198.814318 262.963759 
L 198.995858 262.220592 
L 199.177397 263.104095 
L 199.358937 262.424105 
L 199.540477 262.176761 
L 199.722016 263.203056 
L 199.903556 262.513855 
L 200.085095 262.669328 
L 200.266635 262.976429 
L 200.448175 262.284173 
L 200.811254 263.032659 
L 200.992793 262.530538 
L 201.174333 263.206208 
L 201.355873 262.544514 
L 201.537412 262.401973 
L 201.718952 263.184711 
L 201.900492 262.673016 
L 202.082031 262.792398 
L 202.263571 263.139578 
L 202.44511 262.254558 
L 202.80819 263.17258 
L 202.989729 262.417008 
L 203.171269 263.051394 
L 203.352808 262.831517 
L 203.534348 262.373804 
L 203.715888 263.043428 
L 204.078967 262.54438 
L 204.260507 263.160813 
L 204.623586 262.31072 
L 204.805125 263.177145 
L 204.986665 262.647145 
L 205.168205 262.733694 
L 205.349744 263.066665 
L 205.531284 262.283308 
L 205.712823 262.626873 
L 205.894363 263.233606 
L 206.075903 262.527755 
L 206.257442 263.014803 
L 206.620522 262.473892 
L 206.802061 262.962421 
L 206.983601 263.081247 
L 207.16514 262.555436 
L 207.34668 263.121999 
L 207.709759 262.414887 
L 207.891299 262.953267 
L 208.072838 262.988683 
L 208.254378 262.462208 
L 208.435918 263.11866 
L 208.798997 262.314969 
L 208.980537 263.043381 
L 209.162076 262.962978 
L 209.343616 262.3859 
L 209.525155 263.108568 
L 209.888235 262.536027 
L 210.069774 262.880382 
L 210.251314 262.84139 
L 210.432853 262.501573 
L 210.614393 263.044027 
L 210.795933 262.9078 
L 210.977472 262.206155 
L 211.159012 262.853153 
L 211.340552 263.026275 
L 211.522091 262.424644 
L 211.703631 263.154849 
L 212.06671 262.459228 
L 212.24825 262.918115 
L 212.429789 262.910527 
L 212.611329 262.59019 
L 212.792868 263.144824 
L 212.974408 262.87758 
L 213.155948 262.173847 
L 213.337487 262.938135 
L 213.519027 262.973899 
L 213.700567 262.482262 
L 213.882106 263.194931 
L 214.245185 262.241498 
L 214.426725 263.127957 
L 214.789804 262.507818 
L 214.971344 263.142257 
L 215.152883 262.448582 
L 215.334423 262.458676 
L 215.515963 263.199561 
L 215.697502 262.603434 
L 216.060582 263.052014 
L 216.242121 262.15851 
L 216.6052 263.109828 
L 216.78674 262.468523 
L 216.96828 263.18972 
L 217.149819 262.473238 
L 217.331359 262.327533 
L 217.512898 263.210892 
L 217.694438 262.71756 
L 218.057517 263.01253 
L 218.239057 262.371668 
L 218.602136 263.149023 
L 218.783676 262.588494 
L 218.965215 263.154893 
L 219.328295 262.402457 
L 219.509834 262.98613 
L 219.691374 262.997978 
L 219.872913 262.583522 
L 220.054453 263.185053 
L 220.417532 262.300104 
L 220.599072 263.196947 
L 220.780612 262.748626 
L 220.962151 262.66551 
L 221.143691 263.143947 
L 221.32523 262.483881 
L 221.50677 262.759433 
L 221.68831 263.246244 
L 221.869849 262.492806 
L 222.051389 262.961028 
L 222.232928 263.083558 
L 222.414468 262.433492 
L 222.596008 262.648811 
L 222.777547 263.121465 
L 222.959087 262.520973 
L 223.140627 263.079484 
L 223.322166 262.937947 
L 223.503706 262.268248 
L 223.685245 263.055945 
L 223.866785 262.988948 
L 224.048325 262.564363 
L 224.229864 263.213213 
L 224.411404 262.602041 
L 224.592943 262.561839 
L 224.774483 263.230892 
L 224.956023 262.649577 
L 225.319102 263.086531 
L 225.500642 262.613798 
L 225.682181 262.606352 
L 225.863721 263.154513 
L 226.04526 262.711316 
L 226.2268 263.091231 
L 226.40834 263.04647 
L 226.589879 262.455992 
L 226.952959 263.161558 
L 227.134498 262.586838 
L 227.316038 263.24077 
L 227.679117 262.565595 
L 228.042196 263.145217 
L 228.223736 262.56852 
L 228.405275 263.124902 
L 228.586815 262.967578 
L 228.768355 262.222823 
L 229.131434 263.135222 
L 229.312974 262.53546 
L 229.494513 263.2173 
L 229.857592 262.351662 
L 230.039132 263.170112 
L 230.220672 262.949258 
L 230.402211 262.510057 
L 230.583751 263.161504 
L 230.76529 262.549871 
L 230.94683 262.394814 
L 231.12837 263.19634 
L 231.309909 262.578115 
L 231.491449 262.701467 
L 231.672989 263.110817 
L 231.854528 262.184472 
L 232.217607 263.150773 
L 232.399147 262.420483 
L 232.580687 263.110989 
L 232.943766 262.396342 
L 233.125305 263.276478 
L 233.306845 262.79101 
L 233.488385 262.981463 
L 233.669924 262.927649 
L 233.851464 262.489267 
L 234.033004 263.131184 
L 234.214543 263.119903 
L 234.396083 262.75587 
L 234.577622 263.203013 
L 234.940702 262.737588 
L 235.122241 263.155629 
L 235.48532 262.792776 
L 235.66686 263.22637 
L 236.029939 262.37747 
L 236.211479 263.119709 
L 236.393019 262.972323 
L 236.574558 262.565519 
L 236.756098 263.278159 
L 236.937637 262.592645 
L 237.119177 262.516007 
L 237.300717 263.110596 
L 237.663796 262.57778 
L 237.845335 263.228479 
L 238.208415 262.187601 
L 238.389954 263.129932 
L 238.571494 262.67639 
L 238.753034 262.789929 
L 238.934573 263.199385 
L 239.116113 262.121487 
L 239.479192 263.095411 
L 239.660732 262.540565 
L 239.842271 263.275346 
L 240.023811 262.636546 
L 240.20535 262.630694 
L 240.38689 263.234748 
L 240.56843 262.748838 
L 240.931509 263.133051 
L 241.113049 262.640314 
L 241.294588 262.792568 
L 241.476128 263.196138 
L 241.657667 262.732033 
L 241.839207 263.12641 
L 242.020747 263.051813 
L 242.202286 262.367549 
L 242.565365 263.178643 
L 242.746905 262.631567 
L 242.928445 263.226625 
L 243.291524 262.553225 
L 243.473064 263.03117 
L 243.654603 263.148313 
L 243.836143 262.663373 
L 244.017682 263.131859 
L 244.199222 263.007915 
L 244.380762 262.236509 
L 244.743841 263.14219 
L 244.92538 262.524576 
L 245.10692 263.110584 
L 245.469999 262.23753 
L 245.651539 263.128578 
L 245.833079 262.966827 
L 246.014618 262.513573 
L 246.196158 263.157196 
L 246.559237 262.511636 
L 246.740777 263.139424 
L 246.922316 262.743349 
L 247.103856 262.697873 
L 247.285395 263.177264 
L 247.648475 262.215639 
L 247.830014 263.229174 
L 248.011554 262.537366 
L 248.374633 262.997961 
L 248.556173 262.307948 
L 248.737712 262.955082 
L 248.919252 263.132254 
L 249.100792 262.575194 
L 249.282331 263.241382 
L 249.463871 262.730919 
L 249.64541 262.735293 
L 249.82695 263.091265 
L 250.00849 262.831015 
L 250.190029 262.787245 
L 250.371569 263.188407 
L 250.734648 262.41378 
L 250.916188 263.124432 
L 251.097727 262.823028 
L 251.279267 262.782987 
L 251.460807 263.238723 
L 251.642346 262.456257 
L 252.005425 263.20193 
L 252.186965 262.69727 
L 252.368505 263.017035 
L 252.550044 263.099983 
L 252.731584 262.577023 
L 252.913124 262.682153 
L 253.094663 263.185562 
L 253.276203 262.622873 
L 253.457742 262.961327 
L 253.639282 263.046992 
L 253.820822 262.061645 
L 254.183901 263.119078 
L 254.36544 262.405658 
L 254.54698 263.260636 
L 254.72852 262.53633 
L 254.910059 262.377508 
L 255.091599 263.208521 
L 255.273139 262.664341 
L 255.454678 262.789072 
L 255.636218 263.112692 
L 255.817757 262.409295 
L 256.180837 263.038497 
L 256.362376 262.648362 
L 256.543916 263.233793 
L 256.906995 262.428462 
L 257.088535 263.164145 
L 257.270074 262.810792 
L 257.633154 263.145047 
L 257.814693 262.452518 
L 257.996233 263.015865 
L 258.177772 263.142543 
L 258.359312 262.7562 
L 258.540852 263.248752 
L 258.903931 262.615295 
L 259.08547 263.043882 
L 259.26701 263.087779 
L 259.44855 262.761634 
L 259.630089 263.215811 
L 259.811629 263.042886 
L 259.993169 262.381382 
L 260.356248 263.201549 
L 260.537787 262.628352 
L 260.719327 263.078628 
L 260.900867 262.892002 
L 261.082406 262.400471 
L 261.263946 262.969218 
L 261.445485 263.152534 
L 261.627025 262.544678 
L 261.808565 263.036387 
L 261.990104 262.963746 
L 262.171644 262.216154 
L 262.353184 262.830467 
L 262.534723 263.013424 
L 262.716263 262.480846 
L 262.897802 263.146404 
L 263.260882 262.122456 
L 263.442421 263.275672 
L 263.623961 262.685462 
L 263.8055 262.723292 
L 263.98704 263.067797 
L 264.16858 262.392248 
L 264.350119 263.010676 
L 264.531659 263.175271 
L 264.713199 262.607929 
L 264.894738 263.219793 
L 265.076278 262.733481 
L 265.257817 262.705021 
L 265.439357 263.119053 
L 265.802436 262.777116 
L 265.983976 263.242239 
L 266.347055 262.568051 
L 266.528595 263.164155 
L 266.710134 262.993325 
L 266.891674 262.668868 
L 267.073214 263.271813 
L 267.254753 262.659701 
L 267.436293 262.725314 
L 267.617832 263.169408 
L 267.980912 262.781157 
L 268.162451 263.231106 
L 268.52553 262.264244 
L 268.70707 263.074098 
L 269.070149 262.571326 
L 269.251689 263.287445 
L 269.433229 262.411942 
L 269.614768 262.58072 
L 269.796308 263.232667 
L 269.977847 262.647493 
L 270.159387 262.989112 
L 270.340927 263.075359 
L 270.522466 262.555105 
L 270.704006 262.734178 
L 270.885545 263.127731 
L 271.067085 262.596889 
L 271.248625 263.172078 
L 271.430164 262.918848 
L 271.611704 262.338261 
L 271.793244 263.070698 
L 271.974783 262.969134 
L 272.156323 262.700127 
L 272.337862 263.341501 
L 272.519402 262.582927 
L 272.700942 262.720813 
L 272.882481 263.239647 
L 273.064021 262.837689 
L 273.24556 262.936917 
L 273.4271 263.265096 
L 273.60864 262.635624 
L 273.790179 262.712314 
L 273.971719 263.254887 
L 274.153259 262.808716 
L 274.334798 262.880043 
L 274.516338 263.253345 
L 274.697877 262.292702 
L 275.060957 263.295772 
L 275.242496 262.58027 
L 275.424036 262.996287 
L 275.605575 263.074866 
L 275.787115 262.434518 
L 276.150194 263.16039 
L 276.331734 262.636021 
L 276.513274 263.17361 
L 276.694813 262.787187 
L 276.876353 262.139433 
L 277.057892 263.215285 
L 277.239432 262.760331 
L 277.420972 262.841336 
L 277.602511 263.200127 
L 277.784051 262.422952 
L 278.14713 263.229975 
L 278.32867 262.596666 
L 278.510209 263.283123 
L 278.691749 262.788985 
L 278.873289 262.759134 
L 279.054828 263.213001 
L 279.236368 262.934785 
L 279.417907 262.930129 
L 279.599447 263.26204 
L 279.780987 262.777437 
L 279.962526 262.689061 
L 280.144066 263.199457 
L 280.325605 262.842077 
L 280.688685 263.117874 
L 280.870224 262.59656 
L 281.233304 263.224656 
L 281.414843 262.75753 
L 281.596383 263.240591 
L 281.959462 262.695875 
L 282.141002 262.81078 
L 282.322541 263.17411 
L 282.504081 262.706109 
L 282.68562 263.12454 
L 282.86716 263.041427 
L 283.0487 262.366469 
L 283.411779 263.189341 
L 283.593319 262.636466 
L 283.774858 263.328837 
L 283.956398 262.732612 
L 284.137937 262.53457 
L 284.319477 263.06614 
L 284.682556 262.641961 
L 284.864096 263.314868 
L 285.045635 262.618981 
L 285.227175 262.508525 
L 285.408715 263.239142 
L 285.590254 262.678916 
L 285.953334 263.055168 
L 286.134873 262.224036 
L 286.316413 263.174939 
L 286.679492 262.765079 
L 286.861032 263.254727 
L 287.042571 262.678515 
L 287.224111 262.782207 
L 287.40565 263.305629 
L 287.58719 262.8203 
L 287.76873 263.195635 
L 287.950269 263.103958 
L 288.131809 262.836254 
L 288.313349 262.898183 
L 288.494888 263.228027 
L 288.676428 262.819998 
L 288.857967 263.165359 
L 289.039507 263.206877 
L 289.221047 262.506529 
L 289.584126 263.251038 
L 289.765665 262.673881 
L 289.947205 263.02953 
L 290.128745 263.128061 
L 290.310284 262.555766 
L 290.491824 262.773388 
L 290.673364 263.225663 
L 290.854903 262.696736 
L 291.217982 263.145627 
L 291.399522 262.122815 
L 291.581062 262.934169 
L 291.762601 263.15715 
L 291.944141 262.722865 
L 292.12568 263.225331 
L 292.48876 262.537538 
L 292.670299 263.297322 
L 292.851839 262.935186 
L 293.033379 262.889913 
L 293.214918 263.231748 
L 293.396458 262.730301 
L 293.577997 262.648705 
L 293.759537 263.318211 
L 293.941077 262.757043 
L 294.122616 263.085677 
L 294.304156 263.161012 
L 294.485695 262.608101 
L 294.667235 262.79575 
L 294.848775 263.312861 
L 295.030314 262.671971 
L 295.211854 263.197508 
L 295.574933 262.579827 
L 295.756473 263.056589 
L 295.938012 263.107755 
L 296.119552 262.585666 
L 296.301092 263.311751 
L 296.482631 262.587829 
L 296.664171 262.649982 
L 296.84571 263.243774 
L 297.02725 262.813915 
L 297.20879 262.800932 
L 297.390329 263.276933 
L 297.571869 262.328399 
L 297.934948 263.154433 
L 298.116488 262.686388 
L 298.298027 263.173472 
L 298.661107 262.427364 
L 298.842646 263.38486 
L 299.024186 262.778829 
L 299.205725 263.095734 
L 299.387265 263.001512 
L 299.568805 262.594472 
L 299.750344 263.128008 
L 299.931884 263.169966 
L 300.113424 262.796156 
L 300.294963 263.353015 
L 300.476503 262.710135 
L 300.839582 263.262528 
L 301.021122 262.928544 
L 301.384201 263.253128 
L 301.56574 262.55396 
L 301.92882 263.254073 
L 302.110359 262.851918 
L 302.473439 263.151224 
L 302.654978 262.410292 
L 302.836518 263.06567 
L 303.018057 263.192956 
L 303.199597 262.618173 
L 303.381137 263.187884 
L 303.744216 262.405045 
L 303.925755 263.230871 
L 304.107295 262.810568 
L 304.288835 262.775781 
L 304.470374 263.259323 
L 304.651914 262.44801 
L 304.833454 262.605655 
L 305.014993 263.257437 
L 305.196533 262.532127 
L 305.378072 263.262926 
L 305.559612 262.603725 
L 305.741152 262.623677 
L 305.922691 263.334282 
L 306.104231 262.756164 
L 306.28577 263.104266 
L 306.64885 262.598453 
L 306.830389 263.342843 
L 307.011929 263.0091 
L 307.375008 263.162593 
L 307.556548 262.843509 
L 307.919627 263.278921 
L 308.101167 262.915817 
L 308.282706 263.245653 
L 308.464246 263.22285 
L 308.827325 262.809309 
L 309.008865 263.292872 
L 309.371944 262.851985 
L 309.553484 263.355721 
L 309.735023 262.625121 
L 309.916563 262.571378 
L 310.098102 263.200231 
L 310.461182 262.651909 
L 310.642721 263.250499 
L 311.0058 262.410398 
L 311.18734 263.267034 
L 311.36888 262.734683 
L 311.550419 262.72754 
L 311.731959 263.227668 
L 311.913499 262.159103 
L 312.276578 263.222818 
L 312.458117 262.355034 
L 312.639657 263.176248 
L 312.821197 262.396532 
L 313.002736 262.444272 
L 313.184276 263.312883 
L 313.365815 262.579898 
L 313.547355 263.25784 
L 313.728895 262.435221 
L 313.910434 262.715753 
L 314.091974 263.202942 
L 314.273514 262.761102 
L 314.455053 263.194634 
L 314.636593 262.484923 
L 314.999672 263.207776 
L 315.181212 262.858055 
L 315.362751 263.27685 
L 315.544291 262.519664 
L 315.90737 263.170866 
L 316.08891 262.90072 
L 316.270449 263.259395 
L 316.451989 262.624029 
L 316.633529 262.785517 
L 316.815068 263.281608 
L 316.996608 262.838867 
L 317.178147 263.281948 
L 317.359687 262.732623 
L 317.541227 262.754771 
L 317.722766 263.268403 
L 317.904306 262.953516 
L 318.085845 263.152119 
L 318.267385 263.054891 
L 318.448925 262.685403 
L 318.630464 263.323524 
L 318.993544 262.952962 
L 319.175083 263.254451 
L 319.356623 262.936113 
L 319.538162 262.932831 
L 319.719702 263.251772 
L 319.901242 263.016955 
L 320.082781 263.034055 
L 320.264321 263.281253 
L 320.445861 263.071785 
L 320.6274 262.51414 
L 320.80894 263.182223 
L 320.990479 263.122583 
L 321.172019 262.754787 
L 321.353559 263.268021 
L 321.716638 262.53078 
L 321.898177 263.099917 
L 322.079717 263.131214 
L 322.261257 262.618502 
L 322.442796 263.211794 
L 322.624336 262.875216 
L 322.805876 262.302892 
L 322.987415 263.154295 
L 323.350494 262.630201 
L 323.532034 263.279046 
L 323.713574 262.263029 
L 323.895113 262.560334 
L 324.076653 263.198121 
L 324.258192 262.413979 
L 324.439732 263.264423 
L 324.621272 262.326103 
L 324.984351 263.102588 
L 325.165891 262.549938 
L 325.34743 263.206137 
L 325.52897 262.209112 
L 325.710509 262.953375 
L 326.073589 262.945384 
L 326.255128 263.05727 
L 326.436668 262.318427 
L 326.618207 263.275326 
L 326.799747 262.694585 
L 326.981287 263.260795 
L 327.344366 262.450306 
L 327.525906 263.223868 
L 327.707445 262.678881 
L 327.888985 263.344506 
L 328.070524 262.582523 
L 328.433604 263.139527 
L 328.615143 262.854813 
L 328.796683 263.32066 
L 328.978222 262.486465 
L 329.159762 263.098498 
L 329.341302 262.938035 
L 329.704381 263.130893 
L 329.885921 262.383399 
L 330.06746 263.238741 
L 330.249 262.794655 
L 330.430539 263.153533 
L 330.612079 262.934961 
L 330.793619 262.500035 
L 330.975158 263.286687 
L 331.156698 262.771176 
L 331.338237 263.342482 
L 331.519777 262.784782 
L 331.701317 262.673724 
L 331.882856 263.191093 
L 332.064396 262.812474 
L 332.245936 263.39272 
L 332.427475 262.73762 
L 332.609015 262.901066 
L 332.790554 263.244861 
L 332.972094 262.907688 
L 333.153634 263.366572 
L 333.335173 262.788138 
L 333.516713 262.862089 
L 333.698252 263.281147 
L 333.879792 262.913399 
L 334.061332 263.340698 
L 334.242871 262.811793 
L 334.424411 262.840233 
L 334.605951 263.30864 
L 334.78749 262.949149 
L 334.96903 263.266567 
L 335.332109 262.708258 
L 335.513649 263.329625 
L 335.876728 263.010836 
L 336.058267 263.306824 
L 336.239807 262.707394 
L 336.602886 263.315292 
L 336.784426 262.846841 
L 336.965966 263.15869 
L 337.147505 263.196065 
L 337.329045 262.777684 
L 337.510584 262.909642 
L 337.692124 263.20318 
L 337.873664 262.763705 
L 338.055203 263.258435 
L 338.236743 263.033382 
L 338.418282 262.327712 
L 338.599822 263.182565 
L 338.962901 262.8367 
L 339.144441 263.303842 
L 339.325981 262.462437 
L 339.68906 263.25624 
L 339.870599 262.786593 
L 340.052139 263.32828 
L 340.233679 262.775514 
L 340.415218 262.760022 
L 340.596758 263.290414 
L 340.778297 262.862259 
L 341.141377 263.176286 
L 341.322916 262.588998 
L 341.504456 263.027883 
L 341.685996 263.111494 
L 341.867535 262.775492 
L 342.049075 263.357129 
L 342.230614 262.684543 
L 342.412154 262.705803 
L 342.593694 263.284456 
L 342.775233 262.769287 
L 342.956773 263.271684 
L 343.319852 262.59821 
L 343.501392 263.29385 
L 343.682931 262.830624 
L 343.864471 263.184344 
L 344.046011 263.021012 
L 344.22755 262.609714 
L 344.40909 263.276634 
L 344.590629 263.03425 
L 344.772169 263.019112 
L 344.953709 263.288029 
L 345.135248 262.730125 
L 345.498327 263.28212 
L 345.679867 262.902489 
L 345.861407 263.297232 
L 346.224486 262.833449 
L 346.587565 263.182322 
L 346.769105 262.907405 
L 346.950644 263.288545 
L 347.132184 263.05053 
L 347.313724 262.52409 
L 347.495263 263.141463 
L 347.676803 263.128468 
L 347.858342 262.692082 
L 348.039882 263.325512 
L 348.221422 262.682605 
L 348.402961 262.508663 
L 348.584501 263.34588 
L 348.766041 262.847303 
L 349.12912 263.126169 
L 349.310659 262.49424 
L 349.492199 263.074488 
L 349.673739 263.234879 
L 349.855278 262.620643 
L 350.036818 263.314107 
L 350.218357 262.654548 
L 350.399897 262.622407 
L 350.581437 263.301023 
L 350.762976 262.551615 
L 350.944516 263.044389 
L 351.126056 262.908228 
L 351.307595 262.48799 
L 351.489135 263.21227 
L 351.670674 262.661495 
L 351.852214 262.966663 
L 352.033754 262.988626 
L 352.215293 262.435919 
L 352.396833 263.224736 
L 352.578372 262.708377 
L 352.759912 263.082745 
L 352.941452 262.920741 
L 353.122991 262.43015 
L 353.304531 263.286668 
L 353.486071 262.698403 
L 353.66761 263.229189 
L 353.84915 262.786912 
L 354.030689 262.652002 
L 354.212229 263.275009 
L 354.393769 262.754803 
L 354.575308 263.326809 
L 354.756848 262.614777 
L 355.119927 263.11854 
L 355.301467 262.871286 
L 355.483006 263.33623 
L 355.664546 262.643985 
L 356.027625 263.063144 
L 356.209165 262.987971 
L 356.390704 263.284448 
L 356.572244 262.743503 
L 356.935323 263.08733 
L 357.116863 262.987676 
L 357.298402 263.2962 
L 357.479942 262.757206 
L 357.843021 263.120149 
L 358.024561 262.932898 
L 358.206101 263.33765 
L 358.38764 262.841038 
L 358.56918 262.831059 
L 358.750719 263.252058 
L 358.932259 262.891015 
L 359.113799 263.258617 
L 359.476878 262.737518 
L 359.658417 263.282183 
L 359.839957 263.0231 
L 360.021497 263.062538 
L 360.203036 263.273659 
L 360.384576 262.795405 
L 360.747655 263.223803 
L 360.929195 262.945592 
L 361.292274 263.266987 
L 361.655353 262.69545 
L 361.836893 263.258048 
L 362.018432 262.971469 
L 362.199972 262.969145 
L 362.381512 263.334011 
L 362.563051 262.432644 
L 362.744591 262.638982 
L 362.926131 263.317435 
L 363.10767 262.688805 
L 363.28921 263.018128 
L 363.470749 263.049641 
L 363.652289 262.41183 
L 363.833829 263.02589 
L 364.015368 263.073575 
L 364.196908 262.633537 
L 364.378447 263.280253 
L 364.559987 262.396868 
L 364.923066 263.191807 
L 365.104606 262.546201 
L 365.286146 263.320957 
L 365.467685 262.395925 
L 365.649225 262.658694 
L 365.830764 263.18263 
L 366.012304 262.580699 
L 366.193844 263.3259 
L 366.375383 262.365381 
L 366.556923 262.937243 
L 366.738462 263.032958 
L 366.920002 262.852693 
L 367.101542 263.169782 
L 367.283081 262.341493 
L 367.464621 263.209095 
L 367.646161 262.828969 
L 367.8277 263.123236 
L 368.00924 262.886438 
L 368.190779 262.395644 
L 368.372319 263.275714 
L 368.553859 262.780908 
L 368.735398 263.314046 
L 368.916938 262.651301 
L 369.098477 262.716289 
L 369.280017 263.085428 
L 369.461557 262.861213 
L 369.643096 263.244063 
L 369.824636 262.49525 
L 370.006176 263.023684 
L 370.187715 262.896515 
L 370.550794 263.031148 
L 370.732334 262.471509 
L 370.913874 263.25165 
L 371.095413 262.73039 
L 371.276953 263.278928 
L 371.458492 262.64492 
L 371.640032 262.612114 
L 371.821572 263.234752 
L 372.003111 262.719637 
L 372.184651 263.345791 
L 372.366191 262.480952 
L 372.54773 262.968164 
L 373.092349 263.194636 
L 373.273889 262.543026 
L 373.455428 263.23518 
L 373.636968 262.993559 
L 373.818507 263.223211 
L 374.000047 263.004398 
L 374.181587 262.602542 
L 374.363126 263.247431 
L 374.544666 262.968239 
L 374.726206 263.184966 
L 374.907745 263.057367 
L 375.089285 262.522061 
L 375.270824 263.265548 
L 375.452364 263.060333 
L 375.815443 263.21028 
L 375.996983 262.591083 
L 376.178522 263.107762 
L 376.360062 263.202772 
L 376.541602 263.0157 
L 376.723141 263.312688 
L 376.904681 262.735733 
L 377.086221 262.89614 
L 377.26776 263.274898 
L 377.4493 262.984861 
L 377.812379 263.155058 
L 377.993919 262.778543 
L 378.175458 262.9317 
L 378.356998 263.265578 
L 378.538537 262.847809 
L 378.901617 263.183755 
L 379.083156 262.610541 
L 379.264696 262.693891 
L 379.446236 263.157728 
L 379.627775 262.757671 
L 379.809315 263.068083 
L 379.990854 262.977936 
L 380.172394 262.323356 
L 380.353934 263.112948 
L 380.535473 262.95436 
L 380.717013 262.62273 
L 380.898552 263.241467 
L 381.080092 262.276028 
L 381.443171 263.13881 
L 381.624711 262.587763 
L 381.806251 263.290033 
L 381.98779 262.377487 
L 382.16933 262.611844 
L 382.350869 263.208288 
L 382.532409 262.570802 
L 382.713949 263.271519 
L 382.895488 262.504556 
L 383.258567 263.208385 
L 383.440107 262.751102 
L 383.621647 263.274785 
L 383.803186 262.643582 
L 384.166266 263.207946 
L 384.347805 262.874231 
L 384.529345 263.24676 
L 384.710884 262.82534 
L 384.892424 262.786607 
L 385.073964 263.308985 
L 385.255503 262.925886 
L 385.437043 263.135786 
L 385.618582 263.135942 
L 385.800122 262.722131 
L 386.163201 263.184968 
L 386.344741 262.899864 
L 386.526281 263.21333 
L 386.88936 262.481403 
L 387.070899 263.188237 
L 387.433979 262.792284 
L 387.615518 263.245525 
L 387.797058 262.398817 
L 387.978597 262.647854 
L 388.160137 263.273134 
L 388.341677 262.547413 
L 388.523216 263.148995 
L 388.886296 262.282968 
L 389.067835 263.309848 
L 389.249375 262.689851 
L 389.430914 263.049246 
L 389.793994 262.457459 
L 389.975533 263.29192 
L 390.157073 262.910642 
L 390.338612 263.107007 
L 390.701692 262.706596 
L 390.883231 263.272516 
L 391.246311 263.041134 
L 391.42785 263.118424 
L 391.60939 262.741529 
L 391.790929 263.120895 
L 391.972469 263.240818 
L 392.154009 262.874934 
L 392.335548 263.177134 
L 392.880167 262.911348 
L 393.061707 263.12413 
L 393.243246 262.877965 
L 393.606326 263.130134 
L 393.787865 262.389333 
L 394.150944 263.187331 
L 394.332484 262.425982 
L 394.514024 263.217032 
L 394.877103 262.338798 
L 395.058642 263.185283 
L 395.240182 262.551844 
L 395.421722 262.971101 
L 395.603261 262.837733 
L 395.784801 262.249668 
L 395.966341 263.180794 
L 396.14788 262.614071 
L 396.32942 262.921942 
L 396.510959 262.793002 
L 396.692499 262.326809 
L 396.874039 263.232485 
L 397.055578 262.681774 
L 397.237118 263.244226 
L 397.418657 262.565202 
L 397.600197 262.697057 
L 397.781737 263.156478 
L 397.963276 262.763492 
L 398.144816 263.249426 
L 398.326356 262.447095 
L 398.507895 262.998756 
L 399.052514 263.068018 
L 399.234054 262.504057 
L 399.415593 263.259813 
L 399.597133 262.819567 
L 399.778672 263.197661 
L 399.960212 262.767584 
L 400.141752 262.677712 
L 400.323291 263.180801 
L 400.504831 262.829787 
L 400.686371 263.259542 
L 400.86791 262.677903 
L 401.230989 263.08424 
L 401.412529 262.941937 
L 401.594069 263.212424 
L 401.775608 262.727492 
L 401.957148 263.054269 
L 402.320227 263.015044 
L 402.501767 263.225549 
L 402.683306 262.760109 
L 403.046386 263.155551 
L 403.227925 262.935137 
L 403.409465 263.279901 
L 403.591004 262.844927 
L 403.772544 262.805339 
L 403.954084 263.203057 
L 404.135623 262.930592 
L 404.317163 263.13349 
L 404.498702 263.052498 
L 404.680242 262.626777 
L 404.861782 263.16409 
L 405.224861 262.896047 
L 405.406401 263.264301 
L 405.58794 262.714261 
L 405.951019 263.212359 
L 406.132559 262.902155 
L 406.314099 263.139601 
L 406.495638 263.086995 
L 406.677178 262.761785 
L 406.858717 262.804167 
L 407.040257 263.193663 
L 407.221797 262.92057 
L 407.584876 263.086587 
L 407.766416 262.434575 
L 408.129495 263.182129 
L 408.311034 262.756241 
L 408.492574 263.113515 
L 408.855653 262.439453 
L 409.037193 263.236144 
L 409.400272 262.702878 
L 409.581812 263.142358 
L 409.763351 262.474378 
L 410.126431 263.203221 
L 410.30797 262.585871 
L 410.48951 263.13243 
L 410.852589 262.589105 
L 411.034129 263.066487 
L 411.215668 262.665748 
L 411.578747 262.970895 
L 411.760287 262.356373 
L 411.941827 263.018879 
L 412.304906 262.757813 
L 412.486446 263.036229 
L 412.667985 262.31654 
L 412.849525 263.027733 
L 413.031064 262.892408 
L 413.394144 262.992945 
L 413.575683 262.457986 
L 413.757223 263.147363 
L 413.938762 262.921843 
L 414.301842 263.060626 
L 414.483381 262.496086 
L 414.664921 263.150304 
L 414.846461 262.974863 
L 415.20954 263.130455 
L 415.391079 262.58379 
L 415.572619 263.113516 
L 415.935698 262.975551 
L 416.117238 263.187832 
L 416.298778 262.728915 
L 416.480317 262.824395 
L 416.661857 263.215268 
L 416.843396 262.971717 
L 417.206476 263.104035 
L 417.388015 262.744534 
L 417.751094 263.208135 
L 417.932634 262.802936 
L 418.114174 263.123913 
L 418.295713 263.023125 
L 418.477253 262.496203 
L 418.658793 263.037205 
L 418.840332 263.160863 
L 419.021872 262.673492 
L 419.203411 263.172628 
L 419.384951 262.62572 
L 419.566491 262.499755 
L 419.74803 263.255409 
L 419.92957 262.830702 
L 420.111109 262.842987 
L 420.292649 263.073572 
L 420.474189 262.427977 
L 420.655728 263.011959 
L 420.837268 263.138893 
L 421.018808 262.636593 
L 421.200347 263.205085 
L 421.381887 262.648621 
L 421.563426 262.656032 
L 421.744966 263.202934 
L 421.926506 262.594159 
L 422.108045 263.038972 
L 422.289585 262.888867 
L 422.471124 262.518066 
L 422.652664 263.036739 
L 422.834204 262.801068 
L 423.015743 262.808179 
L 423.015743 262.808179 
" style="fill:none;stroke:#dd8452;stroke-linecap:square;stroke-width:2;"/>
   </g>
   <g id="patch_3">
    <path d="M 83.146352 277.574739 
L 83.146352 21.6 
" style="fill:none;stroke:#000000;stroke-linecap:square;stroke-linejoin:miter;stroke-width:0.8;"/>
   </g>
   <g id="patch_4">
    <path d="M 439.2 277.574739 
L 439.2 21.6 
" style="fill:none;stroke:#000000;stroke-linecap:square;stroke-linejoin:miter;stroke-width:0.8;"/>
   </g>
   <g id="patch_5">
    <path d="M 83.146352 277.574739 
L 439.2 277.574739 
" style="fill:none;stroke:#000000;stroke-linecap:square;stroke-linejoin:miter;stroke-width:0.8;"/>
   </g>
   <g id="patch_6">
    <path d="M 83.146352 21.6 
L 439.2 21.6 
" style="fill:none;stroke:#000000;stroke-linecap:square;stroke-linejoin:miter;stroke-width:0.8;"/>
   </g>
   <g id="legend_1">
    <g id="patch_7">
     <path d="M 244.747749 93.753759 
L 425.2 93.753759 
Q 429.2 93.753759 429.2 89.753759 
L 429.2 35.6 
Q 429.2 31.6 425.2 31.6 
L 244.747749 31.6 
Q 240.747749 31.6 240.747749 35.6 
L 240.747749 89.753759 
Q 240.747749 93.753759 244.747749 93.753759 
z
" style="fill:#ffffff;opacity:0.8;stroke:#cccccc;stroke-linejoin:miter;"/>
    </g>
    <g id="line2d_13">
     <path d="M 248.747749 46.6 
L 288.747749 46.6 
" style="fill:none;stroke:#4c72b0;stroke-linecap:square;stroke-width:2;"/>
    </g>
    <g id="line2d_14"/>
    <g id="text_13">
     <!-- Train loss -->
     <g transform="translate(304.747749 53.6)scale(0.2 -0.2)">
      <defs>
       <path d="M 62.203125 67.59375 
L 4.5 67.59375 
L 2.796875 45.59375 
L 4.59375 45.59375 
C 5.90625 62.125 7.296875 65 22.703125 65 
C 24.5 65 27.40625 65 28.203125 64.90625 
C 30.09375 64.609375 30.09375 63.40625 30.09375 61.125 
L 30.09375 7.171875 
C 30.09375 3.59375 29.796875 2.5 21.5 2.5 
L 18.703125 2.5 
L 18.703125 0 
C 23.5 0 28.5 0 33.40625 0 
C 38.296875 0 43.296875 0 48.09375 0 
L 48.09375 2.5 
L 45.296875 2.5 
C 37 2.5 36.703125 3.59375 36.703125 7.171875 
L 36.703125 61.125 
C 36.703125 63.3125 36.703125 64.515625 38.5 64.90625 
C 39.296875 65 42.203125 65 44 65 
C 59.296875 65 60.796875 62.125 62.09375 45.59375 
L 63.90625 45.59375 
z
" id="CMR17-84"/>
       <path d="M 15 23.390625 
C 15 33 19.09375 42 26.59375 42 
C 27.296875 42 28 41.90625 28.703125 41.59375 
C 28.703125 41.59375 26.5 40.890625 26.5 38.3125 
C 26.5 35.90625 28.40625 34.90625 29.90625 34.90625 
C 31.09375 34.90625 33.296875 35.609375 33.296875 38.40625 
C 33.296875 41.609375 30.09375 43.59375 26.703125 43.59375 
C 19.09375 43.59375 15.796875 36.203125 14.796875 32.703125 
L 14.703125 32.703125 
L 14.703125 43.59375 
L 3.09375 42.5 
L 3.09375 39.90625 
C 9 39.90625 9.90625 39.296875 9.90625 34.5 
L 9.90625 6.6875 
C 9.90625 2.875 9.5 2.390625 3.09375 2.390625 
L 3.09375 -0.203125 
C 5.5 0 10.09375 0 12.703125 0 
C 15.59375 0 20.703125 0 23.40625 -0.203125 
L 23.40625 2.390625 
C 16.203125 2.390625 15 2.390625 15 6.875 
z
" id="CMR17-114"/>
       <path d="M 36 25.828125 
C 36 32.375 36 35.84375 31.796875 39.734375 
C 28.09375 43 23.796875 44 20.40625 44 
C 12.5 44 6.796875 37.609375 6.796875 30.796875 
C 6.796875 27 9.796875 27 10.40625 27 
C 11.703125 27 14 27.78125 14 30.53125 
C 14 33 12.09375 34.078125 10.40625 34.078125 
C 10 34.078125 9.5 33.96875 9.203125 33.875 
C 11.296875 40.5 16.703125 42.40625 20.203125 42.40625 
C 25.203125 42.40625 30.703125 37.953125 30.703125 29.453125 
L 30.703125 25 
C 24.796875 25 17.703125 24.203125 12.09375 21.203125 
C 5.796875 17.703125 4 12.703125 4 8.90625 
C 4 1.203125 13 -1 18.296875 -1 
C 23.796875 -1 28.90625 2.171875 31.09375 7.984375 
C 31.296875 3.640625 34.09375 -0.28125 38.5 -0.28125 
C 40.59375 -0.28125 45.90625 1.09375 45.90625 8.859375 
L 45.90625 14.375 
L 44.09375 14.375 
L 44.09375 8.78125 
C 44.09375 2.78125 41.40625 2 40.09375 2 
C 36 2 36 7.15625 36 11.53125 
z
M 30.703125 13.59375 
C 30.703125 4.953125 24.5 0.59375 19 0.59375 
C 14 0.59375 10.09375 4.296875 10.09375 8.90625 
C 10.09375 11.890625 11.40625 17.1875 17.203125 20.390625 
C 22 23.09375 27.5 23.5 30.703125 23.5 
z
" id="CMR17-97"/>
       <path d="M 15.5 61.078125 
C 15.5 63.265625 13.703125 65.15625 11.40625 65.15625 
C 9.203125 65.15625 7.296875 63.375 7.296875 61.078125 
C 7.296875 58.890625 9.09375 57 11.40625 57 
C 13.59375 57 15.5 58.796875 15.5 61.078125 
z
M 3.796875 42.28125 
L 3.796875 39.703125 
C 9.40625 39.703125 10.203125 39.09375 10.203125 34.328125 
L 10.203125 6.671875 
C 10.203125 2.875 9.796875 2.390625 3.40625 2.390625 
L 3.40625 -0.203125 
C 5.796875 0 10.09375 0 12.59375 0 
C 15 0 19.09375 0 21.40625 -0.203125 
L 21.40625 2.390625 
C 15.5 2.390625 15.296875 2.984375 15.296875 6.5625 
L 15.296875 43.375 
z
" id="CMR17-105"/>
       <path d="M 41.5 30.203125 
C 41.5 35.296875 40.5 43.59375 28.703125 43.59375 
C 20.796875 43.59375 16.703125 37.5 15.203125 33.5 
L 15.09375 33.5 
L 15.09375 43.59375 
L 3.296875 42.5 
L 3.296875 39.90625 
C 9.203125 39.90625 10.09375 39.296875 10.09375 34.5 
L 10.09375 6.6875 
C 10.09375 2.875 9.703125 2.390625 3.296875 2.390625 
L 3.296875 -0.203125 
C 5.703125 0 10.09375 0 12.703125 0 
C 15.296875 0 19.796875 0 22.203125 -0.203125 
L 22.203125 2.390625 
C 15.796875 2.390625 15.40625 2.78125 15.40625 6.6875 
L 15.40625 25.90625 
C 15.40625 35.109375 21 42 28 42 
C 35.40625 42 36.203125 35.40625 36.203125 30.59375 
L 36.203125 6.6875 
C 36.203125 2.875 35.796875 2.390625 29.40625 2.390625 
L 29.40625 -0.203125 
C 31.796875 0 36.203125 0 38.796875 0 
C 41.40625 0 45.90625 0 48.296875 -0.203125 
L 48.296875 2.390625 
C 41.90625 2.390625 41.5 2.78125 41.5 6.6875 
z
" id="CMR17-110"/>
       <path d="M 15.296875 68.6875 
L 3.40625 67.59375 
L 3.40625 65 
C 9.296875 65 10.203125 64.40625 10.203125 59.640625 
L 10.203125 6.65625 
C 10.203125 2.875 9.796875 2.390625 3.40625 2.390625 
L 3.40625 -0.203125 
C 5.796875 0 10.203125 0 12.703125 0 
C 15.296875 0 19.703125 0 22.09375 -0.203125 
L 22.09375 2.390625 
C 15.703125 2.390625 15.296875 2.78125 15.296875 6.65625 
z
" id="CMR17-108"/>
      </defs>
      <use transform="scale(0.996264)" xlink:href="#CMR17-84"/>
      <use transform="translate(58.702625 0)scale(0.996264)" xlink:href="#CMR17-114"/>
      <use transform="translate(93.983393 0)scale(0.996264)" xlink:href="#CMR17-97"/>
      <use transform="translate(139.67387 0)scale(0.996264)" xlink:href="#CMR17-105"/>
      <use transform="translate(164.544929 0)scale(0.996264)" xlink:href="#CMR17-110"/>
      <use transform="translate(245.516265 0)scale(0.996264)" xlink:href="#CMR17-108"/>
      <use transform="translate(270.387323 0)scale(0.996264)" xlink:href="#CMR17-111"/>
      <use transform="translate(316.0778 0)scale(0.996264)" xlink:href="#CMR17-115"/>
      <use transform="translate(351.879138 0)scale(0.996264)" xlink:href="#CMR17-115"/>
     </g>
    </g>
    <g id="line2d_15">
     <path d="M 248.747749 74.878125 
L 288.747749 74.878125 
" style="fill:none;stroke:#dd8452;stroke-linecap:square;stroke-width:2;"/>
    </g>
    <g id="line2d_16"/>
    <g id="text_14">
     <!-- Validation loss -->
     <g transform="translate(304.747749 81.878125)scale(0.2 -0.2)">
      <defs>
       <path d="M 59 58.515625 
C 59.90625 60.71875 61.5 65 68.203125 65 
L 68.203125 67.6875 
C 65.90625 67.484375 63.296875 67.484375 60.796875 67.484375 
C 58.40625 67.484375 54.296875 67.484375 52 67.6875 
L 52 65 
C 57 65 57.203125 61.5 57.203125 60.90625 
C 57.203125 59.796875 56.90625 59.109375 56.59375 58.3125 
L 36.90625 6.96875 
L 16.296875 60.71875 
C 16 61.421875 15.796875 61.921875 15.796875 62.40625 
C 15.796875 65 19.796875 65 21.90625 65 
L 21.90625 67.484375 
C 18.703125 67.484375 14 67.484375 10.703125 67.484375 
C 8.09375 67.484375 3.40625 67.484375 1 67.6875 
L 1 65 
C 6.796875 65 7.90625 64.609375 9.09375 61.421875 
L 32.90625 -0.40625 
C 33.40625 -1.796875 33.5 -2 34.59375 -2 
C 35.703125 -2 35.796875 -1.796875 36.296875 -0.40625 
z
" id="CMR17-86"/>
       <path d="M 29.203125 67.59375 
L 29.203125 65 
C 35.09375 65 36 64.40625 36 59.6875 
L 36 36.640625 
C 35.59375 37.140625 31.5 43.59375 23.40625 43.59375 
C 13.203125 43.59375 3.296875 34.5 3.296875 21.3125 
C 3.296875 8.203125 12.59375 -1 22.40625 -1 
C 30.90625 -1 35.296875 5.265625 35.796875 5.9375 
L 35.796875 -0.984375 
L 47.90625 -0.984375 
L 47.90625 2 
C 42 2 41.09375 2.59375 41.09375 7.390625 
L 41.09375 68.6875 
z
M 35.796875 11.796875 
C 35.796875 8.796875 34 6.09375 31.703125 4.09375 
C 28.296875 1.09375 24.90625 0.59375 23 0.59375 
C 20.09375 0.59375 9.703125 2.09375 9.703125 21.1875 
C 9.703125 40.8125 21.296875 42 23.90625 42 
C 28.5 42 32.203125 39.40625 34.5 35.796875 
C 35.796875 33.703125 35.796875 33.40625 35.796875 31.609375 
z
" id="CMR17-100"/>
       <path d="M 15.09375 40 
L 29.09375 40 
L 29.09375 42.578125 
L 15.09375 42.578125 
L 15.09375 61 
L 13.296875 61 
C 13.09375 50.703125 9.59375 41.6875 1.09375 41.6875 
L 1.09375 40 
L 9.796875 40 
L 9.796875 12.046875 
C 9.796875 10.15625 9.796875 -1 21.40625 -1 
C 27.296875 -1 30.703125 4.78125 30.703125 12.140625 
L 30.703125 17.8125 
L 28.90625 17.8125 
L 28.90625 12.234375 
C 28.90625 5.375 26.203125 0.796875 22 0.796875 
C 19.09375 0.796875 15.09375 2.78125 15.09375 11.84375 
z
" id="CMR17-116"/>
      </defs>
      <use transform="scale(0.996264)" xlink:href="#CMR17-86"/>
      <use transform="translate(61.265174 0)scale(0.996264)" xlink:href="#CMR17-97"/>
      <use transform="translate(106.955652 0)scale(0.996264)" xlink:href="#CMR17-108"/>
      <use transform="translate(131.82671 0)scale(0.996264)" xlink:href="#CMR17-105"/>
      <use transform="translate(156.697768 0)scale(0.996264)" xlink:href="#CMR17-100"/>
      <use transform="translate(207.593138 0)scale(0.996264)" xlink:href="#CMR17-97"/>
      <use transform="translate(253.283615 0)scale(0.996264)" xlink:href="#CMR17-116"/>
      <use transform="translate(288.564383 0)scale(0.996264)" xlink:href="#CMR17-105"/>
      <use transform="translate(313.435442 0)scale(0.996264)" xlink:href="#CMR17-111"/>
      <use transform="translate(359.125919 0)scale(0.996264)" xlink:href="#CMR17-110"/>
      <use transform="translate(440.097255 0)scale(0.996264)" xlink:href="#CMR17-108"/>
      <use transform="translate(464.968313 0)scale(0.996264)" xlink:href="#CMR17-111"/>
      <use transform="translate(510.658791 0)scale(0.996264)" xlink:href="#CMR17-115"/>
      <use transform="translate(546.460128 0)scale(0.996264)" xlink:href="#CMR17-115"/>
     </g>
    </g>
   </g>
  </g>
 </g>
 <defs>
  <clipPath id="p3ea6454bfb">
   <rect height="255.974739" width="356.053648" x="83.146352" y="21.6"/>
  </clipPath>
 </defs>
</svg>
