<?xml version="1.0" encoding="utf-8" standalone="no"?>
<!DOCTYPE svg PUBLIC "-//W3C//DTD SVG 1.1//EN"
  "http://www.w3.org/Graphics/SVG/1.1/DTD/svg11.dtd">
<!-- Created with matplotlib (https://matplotlib.org/) -->
<svg height="345.6pt" version="1.1" viewBox="0 0 460.8 345.6" width="460.8pt" xmlns="http://www.w3.org/2000/svg" xmlns:xlink="http://www.w3.org/1999/xlink">
 <metadata>
  <rdf:RDF xmlns:cc="http://creativecommons.org/ns#" xmlns:dc="http://purl.org/dc/elements/1.1/" xmlns:rdf="http://www.w3.org/1999/02/22-rdf-syntax-ns#">
   <cc:Work>
    <dc:type rdf:resource="http://purl.org/dc/dcmitype/StillImage"/>
    <dc:date>2022-10-19T13:34:32.438213</dc:date>
    <dc:format>image/svg+xml</dc:format>
    <dc:creator>
     <cc:Agent>
      <dc:title>Matplotlib v3.3.4, https://matplotlib.org/</dc:title>
     </cc:Agent>
    </dc:creator>
   </cc:Work>
  </rdf:RDF>
 </metadata>
 <defs>
  <style type="text/css">*{stroke-linecap:butt;stroke-linejoin:round;}</style>
 </defs>
 <g id="figure_1">
  <g id="patch_1">
   <path d="M 0 345.6 
L 460.8 345.6 
L 460.8 0 
L 0 0 
z
" style="fill:#ffffff;"/>
  </g>
  <g id="axes_1">
   <g id="patch_2">
    <path d="M 77.726917 277.574739 
L 439.2 277.574739 
L 439.2 21.6 
L 77.726917 21.6 
z
" style="fill:#ffffff;"/>
   </g>
   <g id="matplotlib.axis_1">
    <g id="xtick_1">
     <g id="line2d_1">
      <path clip-path="url(#p42f8f3d267)" d="M 94.157511 277.574739 
L 94.157511 21.6 
" style="fill:none;stroke:#cccccc;stroke-linecap:round;stroke-width:0.8;"/>
     </g>
     <g id="text_1">
      <!-- $\mathdefault{0}$ -->
      <g style="fill:#262626;" transform="translate(89.588464 298.411736)scale(0.2 -0.2)">
       <defs>
        <path d="M 42 31.640625 
C 42 37.75 41.90625 48.125 37.703125 56.109375 
C 34 63.109375 28.09375 65.59375 22.90625 65.59375 
C 18.09375 65.59375 12 63.40625 8.203125 56.203125 
C 4.203125 48.71875 3.796875 39.4375 3.796875 31.640625 
C 3.796875 25.953125 3.90625 17.28125 7 9.671875 
C 11.296875 -0.609375 19 -2 22.90625 -2 
C 27.5 -2 34.5 -0.109375 38.59375 9.375 
C 41.59375 16.28125 42 24.359375 42 31.640625 
z
M 22.90625 -0.40625 
C 16.5 -0.40625 12.703125 5.078125 11.296875 12.6875 
C 10.203125 18.5625 10.203125 27.15625 10.203125 32.75 
C 10.203125 40.4375 10.203125 46.828125 11.5 52.921875 
C 13.40625 61.390625 19 64 22.90625 64 
C 27 64 32.296875 61.296875 34.203125 53.125 
C 35.5 47.4375 35.59375 40.734375 35.59375 32.75 
C 35.59375 26.25 35.59375 18.265625 34.40625 12.375 
C 32.296875 1.484375 26.40625 -0.40625 22.90625 -0.40625 
z
" id="CMR17-48"/>
       </defs>
       <use transform="scale(0.996264)" xlink:href="#CMR17-48"/>
      </g>
     </g>
    </g>
    <g id="xtick_2">
     <g id="line2d_2">
      <path clip-path="url(#p42f8f3d267)" d="M 167.508381 277.574739 
L 167.508381 21.6 
" style="fill:none;stroke:#cccccc;stroke-linecap:round;stroke-width:0.8;"/>
     </g>
     <g id="text_2">
      <!-- $\mathdefault{50}$ -->
      <g style="fill:#262626;" transform="translate(158.370285 298.411736)scale(0.2 -0.2)">
       <defs>
        <path d="M 11.40625 57.6875 
C 12.40625 57.28125 16.5 56 20.703125 56 
C 30 56 35.09375 61.109375 38 64.0625 
C 38 64.953125 38 65.5 37.40625 65.5 
C 37.296875 65.5 37.09375 65.5 36.296875 65.046875 
C 32.796875 63.40625 28.703125 62.078125 23.703125 62.078125 
C 20.703125 62.078125 16.203125 62.484375 11.296875 64.671875 
C 10.203125 65.171875 10 65.171875 9.90625 65.171875 
C 9.40625 65.171875 9.296875 65.0625 9.296875 63.078125 
L 9.296875 34.421875 
C 9.296875 32.640625 9.296875 32.140625 10.296875 32.140625 
C 10.796875 32.140625 11 32.34375 11.5 33.03125 
C 14.703125 37.515625 19.09375 39.40625 24.09375 39.40625 
C 27.59375 39.40625 35.09375 37.21875 35.09375 20.140625 
C 35.09375 16.953125 35.09375 11.171875 32.09375 6.578125 
C 29.59375 2.484375 25.703125 0.390625 21.40625 0.390625 
C 14.796875 0.390625 8.09375 5 6.296875 12.71875 
C 6.703125 12.609375 7.5 12.421875 7.90625 12.421875 
C 9.203125 12.421875 11.703125 13.125 11.703125 16.21875 
C 11.703125 18.90625 9.796875 20 7.90625 20 
C 5.59375 20 4.09375 18.59375 4.09375 15.796875 
C 4.09375 7.09375 11 -2 21.59375 -2 
C 31.90625 -2 41.703125 6.875 41.703125 19.75 
C 41.703125 31.71875 33.90625 41 24.203125 41 
C 19.09375 41 14.796875 39.109375 11.40625 35.53125 
z
" id="CMR17-53"/>
       </defs>
       <use transform="scale(0.996264)" xlink:href="#CMR17-53"/>
       <use transform="translate(45.690477 0)scale(0.996264)" xlink:href="#CMR17-48"/>
      </g>
     </g>
    </g>
    <g id="xtick_3">
     <g id="line2d_3">
      <path clip-path="url(#p42f8f3d267)" d="M 240.85925 277.574739 
L 240.85925 21.6 
" style="fill:none;stroke:#cccccc;stroke-linecap:round;stroke-width:0.8;"/>
     </g>
     <g id="text_3">
      <!-- $\mathdefault{100}$ -->
      <g style="fill:#262626;" transform="translate(227.152107 298.411736)scale(0.2 -0.2)">
       <defs>
        <path d="M 26.59375 63.40625 
C 26.59375 65.5 26.5 65.5 25.09375 65.5 
C 21.203125 61.1875 15.296875 59.796875 9.703125 59.796875 
C 9.40625 59.796875 8.90625 59.796875 8.796875 59.5 
C 8.703125 59.296875 8.703125 59.09375 8.703125 57 
C 11.796875 57 17 57.59375 21 59.984375 
L 21 7.203125 
C 21 3.6875 20.796875 2.5 12.203125 2.5 
L 9.203125 2.5 
L 9.203125 0 
C 14 0 19 0 23.796875 0 
C 28.59375 0 33.59375 0 38.40625 0 
L 38.40625 2.5 
L 35.40625 2.5 
C 26.796875 2.5 26.59375 3.59375 26.59375 7.15625 
z
" id="CMR17-49"/>
       </defs>
       <use transform="scale(0.996264)" xlink:href="#CMR17-49"/>
       <use transform="translate(45.690477 0)scale(0.996264)" xlink:href="#CMR17-48"/>
       <use transform="translate(91.380954 0)scale(0.996264)" xlink:href="#CMR17-48"/>
      </g>
     </g>
    </g>
    <g id="xtick_4">
     <g id="line2d_4">
      <path clip-path="url(#p42f8f3d267)" d="M 314.210119 277.574739 
L 314.210119 21.6 
" style="fill:none;stroke:#cccccc;stroke-linecap:round;stroke-width:0.8;"/>
     </g>
     <g id="text_4">
      <!-- $\mathdefault{150}$ -->
      <g style="fill:#262626;" transform="translate(300.502976 298.411736)scale(0.2 -0.2)">
       <use transform="scale(0.996264)" xlink:href="#CMR17-49"/>
       <use transform="translate(45.690477 0)scale(0.996264)" xlink:href="#CMR17-53"/>
       <use transform="translate(91.380954 0)scale(0.996264)" xlink:href="#CMR17-48"/>
      </g>
     </g>
    </g>
    <g id="xtick_5">
     <g id="line2d_5">
      <path clip-path="url(#p42f8f3d267)" d="M 387.560988 277.574739 
L 387.560988 21.6 
" style="fill:none;stroke:#cccccc;stroke-linecap:round;stroke-width:0.8;"/>
     </g>
     <g id="text_5">
      <!-- $\mathdefault{200}$ -->
      <g style="fill:#262626;" transform="translate(373.853845 298.411736)scale(0.2 -0.2)">
       <defs>
        <path d="M 41.703125 15.453125 
L 39.90625 15.453125 
C 38.90625 8.375 38.09375 7.171875 37.703125 6.5625 
C 37.203125 5.765625 30 5.765625 28.59375 5.765625 
L 9.40625 5.765625 
C 13 9.671875 20 16.75 28.5 24.953125 
C 34.59375 30.734375 41.703125 37.53125 41.703125 47.421875 
C 41.703125 59.21875 32.296875 66 21.796875 66 
C 10.796875 66 4.09375 56.3125 4.09375 47.34375 
C 4.09375 43.4375 7 42.9375 8.203125 42.9375 
C 9.203125 42.9375 12.203125 43.546875 12.203125 47.03125 
C 12.203125 50.109375 9.59375 51 8.203125 51 
C 7.59375 51 7 50.90625 6.59375 50.703125 
C 8.5 59.21875 14.296875 63.40625 20.40625 63.40625 
C 29.09375 63.40625 34.796875 56.515625 34.796875 47.421875 
C 34.796875 38.734375 29.703125 31.25 24 24.75 
L 4.09375 2.28125 
L 4.09375 0 
L 39.296875 0 
z
" id="CMR17-50"/>
       </defs>
       <use transform="scale(0.996264)" xlink:href="#CMR17-50"/>
       <use transform="translate(45.690477 0)scale(0.996264)" xlink:href="#CMR17-48"/>
       <use transform="translate(91.380954 0)scale(0.996264)" xlink:href="#CMR17-48"/>
      </g>
     </g>
    </g>
    <g id="text_6">
     <!-- Epoch -->
     <g style="fill:#262626;" transform="translate(233.86455 320.124366)scale(0.2 -0.2)">
      <defs>
       <path d="M 30.59375 6.765625 
C 22.59375 6.765625 19 6.765625 17.203125 6.765625 
L 17.203125 32.921875 
L 48.203125 32.921875 
L 48.203125 39 
L 17.203125 39 
L 17.203125 62.640625 
L 30.09375 62.640625 
C 31.296875 62.640625 32.5 62.640625 33.703125 62.640625 
L 50.796875 62.640625 
L 50.796875 69 
L 8.796875 69 
L 8.796875 0 
L 52.09375 0 
L 52.09375 6.765625 
z
" id="CMSS17-69"/>
       <path d="M 15.09375 5.203125 
C 18.40625 2.015625 22.90625 -0.078125 27.703125 -0.078125 
C 37 -0.078125 45 9.421875 45 22.0625 
C 45 33.734375 39 44 30.40625 44 
C 25.40625 44 19.40625 42.21875 14.90625 38.625 
L 14.90625 43.203125 
L 7.5 43.203125 
L 7.5 -19 
L 15.09375 -19 
z
M 15.09375 32.8125 
C 15.90625 34 19.296875 37.734375 24.796875 37.734375 
C 31.796875 37.734375 37.40625 30.625 37.40625 22.0625 
C 37.40625 12.296875 30.59375 6 23.90625 6 
C 21.90625 6 19.796875 6.484375 17.796875 8.171875 
C 15.09375 10.53125 15.09375 12 15.09375 13.390625 
z
" id="CMSS17-112"/>
       <path d="M 44.203125 21.1875 
C 44.203125 34 34.703125 44 23.5 44 
C 12 44 2.703125 33.703125 2.703125 21.1875 
C 2.703125 8.5 12.296875 -1 23.40625 -1 
C 34.796875 -1 44.203125 8.796875 44.203125 21.1875 
z
M 23.5 5.265625 
C 16.40625 5.265625 10.296875 11.078125 10.296875 22 
C 10.296875 33.609375 17.40625 37.921875 23.40625 37.921875 
C 29.90625 37.921875 36.59375 33.21875 36.59375 22 
C 36.59375 10.671875 30.09375 5.265625 23.5 5.265625 
z
" id="CMSS17-111"/>
       <path d="M 38.5 39.703125 
C 38.5 40.390625 33.90625 42.40625 32.703125 42.796875 
C 29.40625 44 25.203125 44 24.09375 44 
C 11.09375 44 3.296875 32.703125 3.296875 21.296875 
C 3.296875 9.296875 12 -1 23.703125 -1 
C 30.40625 -1 35.203125 1.1875 39.09375 3.78125 
L 38.5 10.375 
C 34.203125 7.078125 29.203125 5.265625 23.796875 5.265625 
C 16 5.265625 10.90625 12.09375 10.90625 21.390625 
C 10.90625 28.609375 14.203125 37.71875 24.203125 37.71875 
C 29.703125 37.71875 32.796875 36.609375 37.40625 33.515625 
z
" id="CMSS17-99"/>
       <path d="M 40.90625 29.546875 
C 40.90625 35.8125 39.40625 44.0625 28.09375 44.0625 
C 21.796875 44.0625 17.703125 40.984375 14.796875 37.609375 
L 14.796875 69.5 
L 7.40625 69.5 
L 7.40625 0.5 
L 15 0.5 
L 15 24.578125 
C 15 30.828125 17.40625 38 24.203125 38 
C 33 38 33.296875 32.125 33.296875 28.734375 
L 33.296875 0.5 
L 40.90625 0.5 
z
" id="CMSS17-104"/>
      </defs>
      <use transform="scale(0.996264)" xlink:href="#CMSS17-69"/>
      <use transform="translate(55.892013 0)scale(0.996264)" xlink:href="#CMSS17-112"/>
      <use transform="translate(106.699395 0)scale(0.996264)" xlink:href="#CMSS17-111"/>
      <use transform="translate(156.145457 0)scale(0.996264)" xlink:href="#CMSS17-99"/>
      <use transform="translate(197.784279 0)scale(0.996264)" xlink:href="#CMSS17-104"/>
     </g>
    </g>
   </g>
   <g id="matplotlib.axis_2">
    <g id="ytick_1">
     <g id="line2d_6">
      <path clip-path="url(#p42f8f3d267)" d="M 77.726917 266.229331 
L 439.2 266.229331 
" style="fill:none;stroke:#cccccc;stroke-linecap:round;stroke-width:0.8;"/>
     </g>
     <g id="text_7">
      <!-- $\mathdefault{0}$ -->
      <g style="fill:#262626;" transform="translate(61.588821 273.147829)scale(0.2 -0.2)">
       <use transform="scale(0.996264)" xlink:href="#CMR17-48"/>
      </g>
     </g>
    </g>
    <g id="ytick_2">
     <g id="line2d_7">
      <path clip-path="url(#p42f8f3d267)" d="M 77.726917 214.027791 
L 439.2 214.027791 
" style="fill:none;stroke:#cccccc;stroke-linecap:round;stroke-width:0.8;"/>
     </g>
     <g id="text_8">
      <!-- $\mathdefault{100}$ -->
      <g style="fill:#262626;" transform="translate(43.31263 220.946289)scale(0.2 -0.2)">
       <use transform="scale(0.996264)" xlink:href="#CMR17-49"/>
       <use transform="translate(45.690477 0)scale(0.996264)" xlink:href="#CMR17-48"/>
       <use transform="translate(91.380954 0)scale(0.996264)" xlink:href="#CMR17-48"/>
      </g>
     </g>
    </g>
    <g id="ytick_3">
     <g id="line2d_8">
      <path clip-path="url(#p42f8f3d267)" d="M 77.726917 161.826251 
L 439.2 161.826251 
" style="fill:none;stroke:#cccccc;stroke-linecap:round;stroke-width:0.8;"/>
     </g>
     <g id="text_9">
      <!-- $\mathdefault{200}$ -->
      <g style="fill:#262626;" transform="translate(43.31263 168.74475)scale(0.2 -0.2)">
       <use transform="scale(0.996264)" xlink:href="#CMR17-50"/>
       <use transform="translate(45.690477 0)scale(0.996264)" xlink:href="#CMR17-48"/>
       <use transform="translate(91.380954 0)scale(0.996264)" xlink:href="#CMR17-48"/>
      </g>
     </g>
    </g>
    <g id="ytick_4">
     <g id="line2d_9">
      <path clip-path="url(#p42f8f3d267)" d="M 77.726917 109.624712 
L 439.2 109.624712 
" style="fill:none;stroke:#cccccc;stroke-linecap:round;stroke-width:0.8;"/>
     </g>
     <g id="text_10">
      <!-- $\mathdefault{300}$ -->
      <g style="fill:#262626;" transform="translate(43.31263 116.54321)scale(0.2 -0.2)">
       <defs>
        <path d="M 22.09375 33.703125 
C 31 33.703125 34.90625 25.96875 34.90625 17.03125 
C 34.90625 5 28.5 0.390625 22.703125 0.390625 
C 17.40625 0.390625 8.796875 3.03125 6.09375 10.828125 
C 6.59375 10.625 7.09375 10.625 7.59375 10.625 
C 10 10.625 11.796875 12.21875 11.796875 14.8125 
C 11.796875 17.703125 9.59375 19 7.59375 19 
C 5.90625 19 3.296875 18.203125 3.296875 14.46875 
C 3.296875 5.234375 12.296875 -2 22.90625 -2 
C 34 -2 42.5 6.71875 42.5 16.953125 
C 42.5 26.671875 34.5 33.703125 25 34.796875 
C 32.59375 36.375 39.90625 43.0625 39.90625 52.015625 
C 39.90625 59.6875 32 65.296875 23 65.296875 
C 13.90625 65.296875 5.90625 59.828125 5.90625 52.015625 
C 5.90625 48.59375 8.5 48 9.796875 48 
C 11.90625 48 13.703125 49.296875 13.703125 51.890625 
C 13.703125 54.46875 11.90625 55.765625 9.796875 55.765625 
C 9.40625 55.765625 8.90625 55.765625 8.5 55.578125 
C 11.40625 61.859375 19.296875 63 22.796875 63 
C 26.296875 63 32.90625 61.328125 32.90625 51.875 
C 32.90625 49.109375 32.5 44.1875 29.09375 39.84375 
C 26.09375 36 22.703125 36 19.40625 35.6875 
C 18.90625 35.6875 16.59375 35.453125 16.203125 35.453125 
C 15.5 35.359375 15.09375 35.265625 15.09375 34.5 
C 15.09375 33.796875 15.203125 33.703125 17.203125 33.703125 
z
" id="CMR17-51"/>
       </defs>
       <use transform="scale(0.996264)" xlink:href="#CMR17-51"/>
       <use transform="translate(45.690477 0)scale(0.996264)" xlink:href="#CMR17-48"/>
       <use transform="translate(91.380954 0)scale(0.996264)" xlink:href="#CMR17-48"/>
      </g>
     </g>
    </g>
    <g id="ytick_5">
     <g id="line2d_10">
      <path clip-path="url(#p42f8f3d267)" d="M 77.726917 57.423172 
L 439.2 57.423172 
" style="fill:none;stroke:#cccccc;stroke-linecap:round;stroke-width:0.8;"/>
     </g>
     <g id="text_11">
      <!-- $\mathdefault{400}$ -->
      <g style="fill:#262626;" transform="translate(43.31263 64.34167)scale(0.2 -0.2)">
       <defs>
        <path d="M 33.59375 64.40625 
C 33.59375 66.5 33.5 66.5 31.703125 66.5 
L 2 19.59375 
L 2 17 
L 27.796875 17 
L 27.796875 7.140625 
C 27.796875 3.5 27.59375 2.5 20.59375 2.5 
L 18.703125 2.5 
L 18.703125 0 
C 21.90625 0 27.296875 0 30.703125 0 
C 34.09375 0 39.5 0 42.703125 0 
L 42.703125 2.5 
L 40.796875 2.5 
C 33.796875 2.5 33.59375 3.5 33.59375 7.140625 
L 33.59375 17 
L 43.796875 17 
L 43.796875 19.59375 
L 33.59375 19.59375 
z
M 28.09375 57.859375 
L 28.09375 19.59375 
L 4 19.59375 
z
" id="CMR17-52"/>
       </defs>
       <use transform="scale(0.996264)" xlink:href="#CMR17-52"/>
       <use transform="translate(45.690477 0)scale(0.996264)" xlink:href="#CMR17-48"/>
       <use transform="translate(91.380954 0)scale(0.996264)" xlink:href="#CMR17-48"/>
      </g>
     </g>
    </g>
    <g id="text_12">
     <!-- MSE Loss -->
     <g style="fill:#262626;" transform="translate(35.436997 188.6077)rotate(-90)scale(0.2 -0.2)">
      <defs>
       <path d="M 49.90625 37.046875 
L 45.09375 23.015625 
C 44.296875 20.421875 41.59375 12.359375 41 9.171875 
L 40.90625 9.171875 
C 40.59375 11.171875 40 13.265625 38.40625 18.34375 
C 37.5 21.328125 36.5 24.40625 35.5 27.203125 
L 20.703125 69 
L 9 69 
L 9 0 
L 16.796875 0 
L 16.796875 60.9375 
L 16.90625 60.9375 
C 16.90625 60.84375 17.796875 56.453125 23.90625 39.046875 
L 37.09375 1.5 
L 44.5 1.5 
L 56.40625 34.859375 
C 57.203125 37.15625 59.703125 44.421875 60.796875 47.90625 
C 61.796875 50.890625 64.296875 58.25 64.90625 61.140625 
L 65 61.140625 
L 65 0 
L 72.90625 0 
L 72.90625 69 
L 61.296875 69 
z
" id="CMSS17-77"/>
       <path d="M 43.703125 65.140625 
C 39.296875 67.71875 34.5 70 26.40625 70 
C 13.5 70 5.203125 60.609375 5.203125 51.03125 
C 5.203125 47.265625 6.296875 43.015625 10.203125 38.671875 
C 14.09375 34.3125 18.5 33.140625 24.09375 31.765625 
C 26.40625 31.15625 30.296875 30.0625 31 29.78125 
C 36.59375 27.609375 39.296875 22.5625 39.296875 17.8125 
C 39.296875 11.59375 34.40625 4.96875 25.703125 4.96875 
C 22.703125 4.96875 13.90625 4.96875 5.59375 12.796875 
L 4.203125 4.96875 
C 12.40625 -1 21.296875 -2 25.796875 -2 
C 38.09375 -2 46.90625 7.625 46.90625 18.53125 
C 46.90625 22.5 45.703125 27.546875 41.5 32.203125 
C 37.40625 36.671875 33.796875 37.65625 25.59375 39.828125 
C 20.90625 41.03125 17.90625 41.828125 15.40625 44.890625 
C 13.703125 47.078125 12.796875 49.15625 12.796875 51.828125 
C 12.796875 57.390625 17.59375 63.4375 26.40625 63.4375 
C 30.796875 63.4375 36.5 62.53125 42.296875 57.1875 
z
" id="CMSS17-83"/>
       <path d="M 26.09375 6.46875 
C 24.90625 6.46875 23.703125 6.46875 22.5 6.46875 
L 17.203125 6.46875 
L 17.203125 69 
L 8.796875 69 
L 8.796875 0 
L 46.90625 0 
L 46.90625 6.46875 
z
" id="CMSS17-76"/>
       <path d="M 32.203125 41.046875 
C 26.296875 43.859375 21.703125 43.859375 18.703125 43.859375 
C 11.59375 43.859375 3.09375 41.375 3.09375 31.296875 
C 3.09375 21.234375 14.09375 19.03125 17.09375 18.421875 
C 21.703125 17.53125 26.796875 16.53125 26.796875 11.5625 
C 26.796875 5.265625 19.59375 5.265625 18.296875 5.265625 
C 14.296875 5.265625 8.796875 6.359375 3.796875 9.96875 
L 2.59375 3.28125 
C 8.296875 0 13.796875 -1 18.40625 -1 
C 30.703125 -1 33.796875 6.5 33.796875 12.203125 
C 33.796875 17.09375 31 20.390625 29.09375 21.890625 
C 25.796875 24.5 24.59375 24.796875 16.40625 26.5 
C 15 26.703125 10.09375 27.796875 10.09375 32.28125 
C 10.09375 38 16.40625 38 17.796875 38 
C 24.296875 38 28.296875 35.984375 31 34.5 
z
" id="CMSS17-115"/>
      </defs>
      <use transform="scale(0.996264)" xlink:href="#CMSS17-77"/>
      <use transform="translate(81.67603 0)scale(0.996264)" xlink:href="#CMSS17-83"/>
      <use transform="translate(133.724546 0)scale(0.996264)" xlink:href="#CMSS17-69"/>
      <use transform="translate(220.845672 0)scale(0.996264)" xlink:href="#CMSS17-76"/>
      <use transform="translate(271.532777 0)scale(0.996264)" xlink:href="#CMSS17-111"/>
      <use transform="translate(318.376401 0)scale(0.996264)" xlink:href="#CMSS17-115"/>
      <use transform="translate(354.289943 0)scale(0.996264)" xlink:href="#CMSS17-115"/>
     </g>
    </g>
   </g>
   <g id="line2d_11">
    <path clip-path="url(#p42f8f3d267)" d="M 94.157511 33.235215 
L 95.624529 263.54317 
L 97.091546 262.997855 
L 98.558563 263.806047 
L 100.025581 264.98502 
L 101.492598 265.094924 
L 104.426633 265.482675 
L 105.89365 265.518576 
L 107.360668 265.36048 
L 108.827685 265.031264 
L 110.294703 265.429499 
L 111.76172 265.340847 
L 113.228737 265.534665 
L 116.162772 265.591407 
L 117.629789 265.43887 
L 119.096807 265.617062 
L 133.766981 265.79223 
L 135.233998 265.530882 
L 136.701015 265.536258 
L 138.168033 264.834255 
L 139.63505 265.296098 
L 141.102068 265.562261 
L 145.50312 265.616083 
L 146.970137 265.687108 
L 148.437155 265.376643 
L 149.904172 265.587853 
L 154.305224 265.766749 
L 155.772241 265.664554 
L 157.239259 265.437498 
L 158.706276 265.711367 
L 160.173294 265.566206 
L 164.574346 265.69935 
L 167.508381 265.791893 
L 170.442415 265.764702 
L 179.24452 265.772287 
L 182.178554 265.506429 
L 183.645572 265.513533 
L 185.112589 265.797642 
L 189.513641 265.622758 
L 192.447676 265.823336 
L 224.722058 265.825312 
L 226.189076 265.574984 
L 229.123111 265.868328 
L 234.99118 265.881629 
L 237.925215 265.885432 
L 243.793284 265.678132 
L 245.260302 265.835907 
L 248.194337 265.816346 
L 251.128371 265.744204 
L 265.798545 265.874914 
L 267.265563 265.729632 
L 268.73258 265.433656 
L 270.199597 265.796753 
L 274.60065 265.845992 
L 280.468719 265.836871 
L 281.935736 265.67708 
L 283.402754 265.82291 
L 286.336789 265.801711 
L 292.204858 265.918046 
L 309.809067 265.704986 
L 312.743102 265.874452 
L 317.144154 265.939486 
L 323.012223 265.820573 
L 325.946258 265.826966 
L 327.413275 265.638471 
L 330.34731 265.832022 
L 333.281345 265.852468 
L 340.616432 265.869988 
L 350.885553 265.861418 
L 355.286606 265.798619 
L 356.753623 265.784661 
L 358.22064 265.543768 
L 359.687658 265.787713 
L 361.154675 265.913607 
L 371.423797 265.858713 
L 374.357832 265.758174 
L 378.758884 265.872428 
L 384.626953 265.905582 
L 387.560988 265.752557 
L 389.028005 265.820658 
L 390.495023 265.76006 
L 393.429058 265.888841 
L 396.363092 265.894935 
L 397.83011 265.61503 
L 400.764145 265.829129 
L 422.769405 265.915815 
L 422.769405 265.915815 
" style="fill:none;stroke:#4c72b0;stroke-linecap:round;stroke-width:2;"/>
   </g>
   <g id="line2d_12">
    <path clip-path="url(#p42f8f3d267)" d="M 94.157511 262.285363 
L 95.624529 262.173034 
L 97.091546 260.122033 
L 98.558563 264.162831 
L 100.025581 265.268138 
L 101.492598 265.088324 
L 102.959616 265.405611 
L 105.89365 265.426189 
L 107.360668 259.827561 
L 108.827685 265.059659 
L 110.294703 259.338145 
L 111.76172 265.278218 
L 113.228737 265.578056 
L 116.162772 265.438636 
L 117.629789 264.624379 
L 119.096807 265.646236 
L 120.563824 265.575881 
L 122.030842 265.640522 
L 123.497859 265.544213 
L 124.964876 265.576251 
L 127.898911 265.047355 
L 129.365929 265.703134 
L 130.832946 265.618167 
L 133.766981 265.65198 
L 135.233998 265.316556 
L 136.701015 265.57101 
L 138.168033 261.495724 
L 139.63505 264.97675 
L 141.102068 265.133464 
L 142.569085 265.141938 
L 144.036102 265.487674 
L 145.50312 265.565497 
L 146.970137 262.665048 
L 148.437155 265.274885 
L 149.904172 265.592882 
L 152.838207 265.676635 
L 154.305224 265.032063 
L 155.772241 264.135296 
L 157.239259 264.452978 
L 158.706276 262.310192 
L 160.173294 263.421228 
L 161.640311 261.953046 
L 163.107328 263.217121 
L 164.574346 263.595886 
L 166.041363 262.152094 
L 167.508381 262.51423 
L 168.975398 261.671516 
L 170.442415 261.769663 
L 171.909433 263.931331 
L 173.37645 265.403741 
L 174.843467 263.289273 
L 176.310485 264.308928 
L 177.777502 263.298727 
L 179.24452 262.585697 
L 180.711537 265.182509 
L 182.178554 263.948699 
L 185.112589 264.514793 
L 186.579607 262.882294 
L 188.046624 263.474572 
L 189.513641 265.626796 
L 192.447676 264.13557 
L 193.914693 263.655435 
L 196.848728 263.737368 
L 198.315746 264.067481 
L 199.782763 262.040431 
L 201.24978 262.470282 
L 202.716798 264.513989 
L 204.183815 261.855374 
L 205.650833 260.773539 
L 207.11785 264.126338 
L 208.584867 261.128097 
L 210.051885 261.968611 
L 211.518902 261.651578 
L 212.985919 262.607595 
L 214.452937 260.516221 
L 215.919954 261.425009 
L 217.386972 258.494209 
L 218.853989 260.311412 
L 220.321006 260.723485 
L 221.788024 260.917677 
L 223.255041 262.370552 
L 224.722058 263.053802 
L 226.189076 262.931597 
L 227.656093 264.938773 
L 229.123111 264.612862 
L 230.590128 265.023864 
L 232.057145 263.915673 
L 233.524163 264.380295 
L 234.99118 264.520816 
L 236.458198 264.837568 
L 237.925215 263.676486 
L 239.392232 264.308523 
L 240.85925 264.725387 
L 242.326267 261.198869 
L 243.793284 265.26263 
L 245.260302 262.84973 
L 246.727319 261.85053 
L 248.194337 261.329255 
L 249.661354 263.506606 
L 251.128371 261.189589 
L 252.595389 261.635945 
L 254.062406 263.754926 
L 255.529424 264.162649 
L 256.996441 263.795612 
L 258.463458 263.92832 
L 259.930476 262.596471 
L 261.397493 263.444801 
L 262.86451 260.649848 
L 264.331528 258.360664 
L 265.798545 255.744522 
L 267.265563 261.971273 
L 268.73258 263.790624 
L 270.199597 262.284373 
L 271.666615 263.582686 
L 273.133632 262.37408 
L 274.60065 262.227522 
L 276.067667 262.343948 
L 277.534684 257.314352 
L 279.001702 259.993315 
L 280.468719 259.146949 
L 281.935736 263.226735 
L 283.402754 264.466546 
L 286.336789 264.932896 
L 287.803806 264.860415 
L 289.270823 265.01666 
L 292.204858 263.630009 
L 293.671876 263.085838 
L 295.138893 261.509632 
L 296.60591 261.155977 
L 298.072928 258.783739 
L 299.539945 261.134626 
L 301.006962 260.039967 
L 302.47398 258.230724 
L 303.940997 261.174483 
L 305.408015 259.736871 
L 306.875032 261.384017 
L 308.342049 265.242216 
L 309.809067 264.60752 
L 311.276084 264.332695 
L 312.743102 265.629142 
L 314.210119 264.426679 
L 317.144154 263.787059 
L 318.611171 261.386098 
L 320.078188 265.300485 
L 321.545206 263.438538 
L 323.012223 262.668324 
L 324.479241 263.187884 
L 325.946258 261.76363 
L 327.413275 264.263594 
L 328.880293 265.219471 
L 330.34731 263.559005 
L 331.814328 264.730036 
L 333.281345 265.501293 
L 336.21538 264.058134 
L 337.682397 264.586864 
L 339.149414 263.173089 
L 340.616432 264.807569 
L 342.083449 264.091688 
L 343.550467 262.47026 
L 345.017484 264.541 
L 346.484501 264.212012 
L 347.951519 261.799349 
L 349.418536 263.322195 
L 350.885553 264.027151 
L 352.352571 262.242191 
L 353.819588 261.849612 
L 355.286606 260.427201 
L 356.753623 264.53999 
L 358.22064 265.38562 
L 361.154675 264.971215 
L 362.621693 263.534882 
L 364.08871 264.329712 
L 365.555727 262.428333 
L 368.489762 264.521663 
L 369.956779 264.160899 
L 371.423797 262.552699 
L 372.890814 265.482983 
L 374.357832 263.845314 
L 375.824849 264.232416 
L 377.291866 263.352093 
L 378.758884 265.277334 
L 380.225901 264.374405 
L 381.692919 264.788928 
L 383.159936 264.18501 
L 384.626953 264.668606 
L 386.093971 263.663812 
L 387.560988 263.598911 
L 389.028005 265.138083 
L 390.495023 264.278931 
L 391.96204 265.428473 
L 393.429058 264.025145 
L 394.896075 263.643411 
L 396.363092 262.459023 
L 397.83011 265.417633 
L 399.297127 265.471679 
L 400.764145 264.627333 
L 402.231162 264.428091 
L 403.698179 264.43607 
L 406.632214 263.282726 
L 408.099231 263.747369 
L 409.566249 264.594368 
L 411.033266 263.515063 
L 412.500284 262.685871 
L 415.434318 263.417791 
L 416.901336 263.508123 
L 419.835371 263.120354 
L 421.302388 264.304585 
L 422.769405 263.992074 
L 422.769405 263.992074 
" style="fill:none;stroke:#dd8452;stroke-linecap:round;stroke-width:2;"/>
   </g>
   <g id="patch_3">
    <path d="M 77.726917 277.574739 
L 77.726917 21.6 
" style="fill:none;stroke:#cccccc;stroke-linecap:square;stroke-linejoin:miter;stroke-width:0.8;"/>
   </g>
   <g id="patch_4">
    <path d="M 439.2 277.574739 
L 439.2 21.6 
" style="fill:none;stroke:#cccccc;stroke-linecap:square;stroke-linejoin:miter;stroke-width:0.8;"/>
   </g>
   <g id="patch_5">
    <path d="M 77.726917 277.574739 
L 439.2 277.574739 
" style="fill:none;stroke:#cccccc;stroke-linecap:square;stroke-linejoin:miter;stroke-width:0.8;"/>
   </g>
   <g id="patch_6">
    <path d="M 77.726917 21.6 
L 439.2 21.6 
" style="fill:none;stroke:#cccccc;stroke-linecap:square;stroke-linejoin:miter;stroke-width:0.8;"/>
   </g>
   <g id="legend_1">
    <g id="patch_7">
     <path d="M 248.166661 94.081884 
L 425.2 94.081884 
Q 429.2 94.081884 429.2 90.081884 
L 429.2 35.6 
Q 429.2 31.6 425.2 31.6 
L 248.166661 31.6 
Q 244.166661 31.6 244.166661 35.6 
L 244.166661 90.081884 
Q 244.166661 94.081884 248.166661 94.081884 
z
" style="fill:#ffffff;opacity:0.8;stroke:#cccccc;stroke-linejoin:miter;"/>
    </g>
    <g id="line2d_13">
     <path d="M 252.166661 46.915625 
L 292.166661 46.915625 
" style="fill:none;stroke:#4c72b0;stroke-linecap:round;stroke-width:2;"/>
    </g>
    <g id="line2d_14"/>
    <g id="text_13">
     <!-- Train loss -->
     <g style="fill:#262626;" transform="translate(308.166661 53.915625)scale(0.2 -0.2)">
      <defs>
       <path d="M 36.203125 62 
L 44.5 62 
C 45.703125 62 46.90625 62 48.09375 62 
L 60.59375 62 
L 60.59375 68.375 
L 3.40625 68.375 
L 3.40625 62 
L 15.90625 62 
C 17.09375 62 18.296875 62 19.5 62 
L 27.796875 62 
L 27.796875 -0.5 
L 36.203125 -0.5 
z
" id="CMSS17-84"/>
       <path d="M 14.90625 21.296875 
C 14.90625 30.703125 21.796875 37 30.59375 37 
L 30.59375 43.578125 
C 24.203125 43.578125 18.203125 40.390625 14.59375 35.203125 
L 14.59375 43.09375 
L 7.5 43.09375 
L 7.5 0 
L 14.90625 0 
z
" id="CMSS17-114"/>
       <path d="M 37.59375 27.984375 
C 37.59375 37.375 30.90625 43.875 21.90625 43.875 
C 17.5 43.875 12.703125 43.078125 7.203125 39.890625 
L 7.796875 33.359375 
C 10.296875 35.125 14.59375 38 21.796875 38 
C 26.90625 38 30 34.0625 30 27.84375 
L 30 24 
C 14 24 4 19.34375 4 11.34375 
C 4 7.203125 6.5 -1 14.796875 -1 
C 16.296875 -1 24.40625 -1 30.203125 3.390625 
L 30.203125 -0.296875 
L 37.59375 -0.296875 
z
M 30 12.75 
C 30 10.953125 30 8.5625 27 6.78125 
C 24.40625 5.078125 21.09375 5.078125 19.703125 5.078125 
C 14.703125 5.078125 11.296875 7.984375 11.296875 11.625 
C 11.296875 18.921875 26.90625 18.921875 30 18.921875 
z
" id="CMSS17-97"/>
       <path d="M 15.296875 65.359375 
L 6.90625 65.359375 
L 6.90625 57 
L 15.296875 57 
z
M 14.796875 42.796875 
L 7.40625 42.796875 
L 7.40625 0 
L 14.796875 0 
z
" id="CMSS17-105"/>
       <path d="M 40.90625 29.328125 
C 40.90625 35.671875 39.40625 44 28.09375 44 
C 21.703125 44 17.5 40.71875 14.703125 37.328125 
L 14.703125 43.09375 
L 7.40625 43.09375 
L 7.40625 0 
L 15 0 
L 15 24.359375 
C 15 30.6875 17.40625 37.9375 24.203125 37.9375 
C 33 37.9375 33.296875 32 33.296875 28.578125 
L 33.296875 0 
L 40.90625 0 
z
" id="CMSS17-110"/>
       <path d="M 14.796875 69 
L 7.40625 69 
L 7.40625 0 
L 14.796875 0 
z
" id="CMSS17-108"/>
      </defs>
      <use transform="scale(0.996264)" xlink:href="#CMSS17-84"/>
      <use transform="translate(56.012199 0)scale(0.996264)" xlink:href="#CMSS17-114"/>
      <use transform="translate(87.921971 0)scale(0.996264)" xlink:href="#CMSS17-97"/>
      <use transform="translate(132.843892 0)scale(0.996264)" xlink:href="#CMSS17-105"/>
      <use transform="translate(155.024615 0)scale(0.996264)" xlink:href="#CMSS17-110"/>
      <use transform="translate(234.458671 0)scale(0.996264)" xlink:href="#CMSS17-108"/>
      <use transform="translate(256.639394 0)scale(0.996264)" xlink:href="#CMSS17-111"/>
      <use transform="translate(303.483017 0)scale(0.996264)" xlink:href="#CMSS17-115"/>
      <use transform="translate(339.396559 0)scale(0.996264)" xlink:href="#CMSS17-115"/>
     </g>
    </g>
    <g id="line2d_15">
     <path d="M 252.166661 75.20625 
L 292.166661 75.20625 
" style="fill:none;stroke:#dd8452;stroke-linecap:round;stroke-width:2;"/>
    </g>
    <g id="line2d_16"/>
    <g id="text_14">
     <!-- Validation loss -->
     <g style="fill:#262626;" transform="translate(308.166661 82.20625)scale(0.2 -0.2)">
      <defs>
       <path d="M 61.09375 69 
L 53.296875 69 
L 36 21.28125 
C 35.5 19.890625 32.40625 10.75 31.796875 7.5625 
L 31.703125 7.5625 
C 30.90625 11.34375 27.703125 20.1875 26 25.0625 
L 14.40625 57.375 
L 10.09375 69 
L 1.296875 69 
L 26.796875 0 
L 35.59375 0 
z
" id="CMSS17-86"/>
       <path d="M 40.796875 69 
L 33.40625 69 
L 33.40625 38.09375 
C 30.296875 40.671875 25.203125 43.0625 19.59375 43.0625 
C 10.5 43.0625 3.296875 33.296875 3.296875 21.046875 
C 3.296875 8.78125 10.40625 -1 19.296875 -1 
C 26.203125 -1 30.796875 2.6875 33.203125 4.78125 
L 33.203125 -0.203125 
L 40.796875 -0.203125 
z
M 33.203125 13.0625 
C 33.203125 11.671875 33.203125 10.203125 30.09375 7.53125 
C 28.09375 5.859375 25.703125 5.078125 23.40625 5.078125 
C 18 5.078125 10.90625 9 10.90625 20.9375 
C 10.90625 33.34375 18.90625 37 24.40625 37 
C 28.09375 37 31.09375 35.21875 33.203125 32.265625 
z
" id="CMSS17-100"/>
       <path d="M 16.703125 37 
L 29.703125 37 
L 29.703125 42.765625 
L 16.703125 42.765625 
L 16.703125 55 
L 9.59375 55 
L 9.59375 42.765625 
L 1.703125 42.765625 
L 1.703125 37 
L 9.40625 37 
L 9.40625 11.703125 
C 9.40625 6 10.703125 -1 17.296875 -1 
C 22.296875 -1 26.90625 0.390625 31.296875 2.6875 
L 29.703125 8.5625 
C 27.296875 6.46875 24.40625 5.265625 21.296875 5.265625 
C 16.90625 5.265625 16.703125 10.875 16.703125 13.375 
z
" id="CMSS17-116"/>
      </defs>
      <use transform="scale(0.996264)" xlink:href="#CMSS17-86"/>
      <use transform="translate(59.615401 0)scale(0.996264)" xlink:href="#CMSS17-97"/>
      <use transform="translate(104.537322 0)scale(0.996264)" xlink:href="#CMSS17-108"/>
      <use transform="translate(126.718045 0)scale(0.996264)" xlink:href="#CMSS17-105"/>
      <use transform="translate(148.898768 0)scale(0.996264)" xlink:href="#CMSS17-100"/>
      <use transform="translate(197.103711 0)scale(0.996264)" xlink:href="#CMSS17-97"/>
      <use transform="translate(242.025631 0)scale(0.996264)" xlink:href="#CMSS17-116"/>
      <use transform="translate(275.857198 0)scale(0.996264)" xlink:href="#CMSS17-105"/>
      <use transform="translate(298.037921 0)scale(0.996264)" xlink:href="#CMSS17-111"/>
      <use transform="translate(344.881545 0)scale(0.996264)" xlink:href="#CMSS17-110"/>
      <use transform="translate(424.315601 0)scale(0.996264)" xlink:href="#CMSS17-108"/>
      <use transform="translate(446.496324 0)scale(0.996264)" xlink:href="#CMSS17-111"/>
      <use transform="translate(493.339947 0)scale(0.996264)" xlink:href="#CMSS17-115"/>
      <use transform="translate(529.253489 0)scale(0.996264)" xlink:href="#CMSS17-115"/>
     </g>
    </g>
   </g>
  </g>
 </g>
 <defs>
  <clipPath id="p42f8f3d267">
   <rect height="255.974739" width="361.473083" x="77.726917" y="21.6"/>
  </clipPath>
 </defs>
</svg>
