<?xml version="1.0" encoding="utf-8" standalone="no"?>
<!DOCTYPE svg PUBLIC "-//W3C//DTD SVG 1.1//EN"
  "http://www.w3.org/Graphics/SVG/1.1/DTD/svg11.dtd">
<!-- Created with matplotlib (https://matplotlib.org/) -->
<svg height="345.6pt" version="1.1" viewBox="0 0 460.8 345.6" width="460.8pt" xmlns="http://www.w3.org/2000/svg" xmlns:xlink="http://www.w3.org/1999/xlink">
 <metadata>
  <rdf:RDF xmlns:cc="http://creativecommons.org/ns#" xmlns:dc="http://purl.org/dc/elements/1.1/" xmlns:rdf="http://www.w3.org/1999/02/22-rdf-syntax-ns#">
   <cc:Work>
    <dc:type rdf:resource="http://purl.org/dc/dcmitype/StillImage"/>
    <dc:date>2022-10-30T11:32:26.169710</dc:date>
    <dc:format>image/svg+xml</dc:format>
    <dc:creator>
     <cc:Agent>
      <dc:title>Matplotlib v3.3.4, https://matplotlib.org/</dc:title>
     </cc:Agent>
    </dc:creator>
   </cc:Work>
  </rdf:RDF>
 </metadata>
 <defs>
  <style type="text/css">*{stroke-linecap:butt;stroke-linejoin:round;}</style>
 </defs>
 <g id="figure_1">
  <g id="patch_1">
   <path d="M 0 345.6 
L 460.8 345.6 
L 460.8 0 
L 0 0 
z
" style="fill:#ffffff;"/>
  </g>
  <g id="axes_1">
   <g id="patch_2">
    <path d="M 68.588821 277.574739 
L 439.2 277.574739 
L 439.2 21.6 
L 68.588821 21.6 
z
" style="fill:#ffffff;"/>
   </g>
   <g id="matplotlib.axis_1">
    <g id="xtick_1">
     <g id="line2d_1">
      <defs>
       <path d="M 0 0 
L 0 3.5 
" id="mcbd2e7f837" style="stroke:#000000;stroke-width:0.8;"/>
      </defs>
      <g>
       <use style="stroke:#000000;stroke-width:0.8;" x="85.434784" xlink:href="#mcbd2e7f837" y="277.574739"/>
      </g>
     </g>
     <g id="text_1">
      <!-- $\mathdefault{0}$ -->
      <g transform="translate(80.865736 298.411736)scale(0.2 -0.2)">
       <defs>
        <path d="M 42 31.640625 
C 42 37.75 41.90625 48.125 37.703125 56.109375 
C 34 63.109375 28.09375 65.59375 22.90625 65.59375 
C 18.09375 65.59375 12 63.40625 8.203125 56.203125 
C 4.203125 48.71875 3.796875 39.4375 3.796875 31.640625 
C 3.796875 25.953125 3.90625 17.28125 7 9.671875 
C 11.296875 -0.609375 19 -2 22.90625 -2 
C 27.5 -2 34.5 -0.109375 38.59375 9.375 
C 41.59375 16.28125 42 24.359375 42 31.640625 
z
M 22.90625 -0.40625 
C 16.5 -0.40625 12.703125 5.078125 11.296875 12.6875 
C 10.203125 18.5625 10.203125 27.15625 10.203125 32.75 
C 10.203125 40.4375 10.203125 46.828125 11.5 52.921875 
C 13.40625 61.390625 19 64 22.90625 64 
C 27 64 32.296875 61.296875 34.203125 53.125 
C 35.5 47.4375 35.59375 40.734375 35.59375 32.75 
C 35.59375 26.25 35.59375 18.265625 34.40625 12.375 
C 32.296875 1.484375 26.40625 -0.40625 22.90625 -0.40625 
z
" id="CMR17-48"/>
       </defs>
       <use transform="scale(0.996264)" xlink:href="#CMR17-48"/>
      </g>
     </g>
    </g>
    <g id="xtick_2">
     <g id="line2d_2">
      <g>
       <use style="stroke:#000000;stroke-width:0.8;" x="149.366331" xlink:href="#mcbd2e7f837" y="277.574739"/>
      </g>
     </g>
     <g id="text_2">
      <!-- $\mathdefault{200}$ -->
      <g transform="translate(135.659188 298.411736)scale(0.2 -0.2)">
       <defs>
        <path d="M 41.703125 15.453125 
L 39.90625 15.453125 
C 38.90625 8.375 38.09375 7.171875 37.703125 6.5625 
C 37.203125 5.765625 30 5.765625 28.59375 5.765625 
L 9.40625 5.765625 
C 13 9.671875 20 16.75 28.5 24.953125 
C 34.59375 30.734375 41.703125 37.53125 41.703125 47.421875 
C 41.703125 59.21875 32.296875 66 21.796875 66 
C 10.796875 66 4.09375 56.3125 4.09375 47.34375 
C 4.09375 43.4375 7 42.9375 8.203125 42.9375 
C 9.203125 42.9375 12.203125 43.546875 12.203125 47.03125 
C 12.203125 50.109375 9.59375 51 8.203125 51 
C 7.59375 51 7 50.90625 6.59375 50.703125 
C 8.5 59.21875 14.296875 63.40625 20.40625 63.40625 
C 29.09375 63.40625 34.796875 56.515625 34.796875 47.421875 
C 34.796875 38.734375 29.703125 31.25 24 24.75 
L 4.09375 2.28125 
L 4.09375 0 
L 39.296875 0 
z
" id="CMR17-50"/>
       </defs>
       <use transform="scale(0.996264)" xlink:href="#CMR17-50"/>
       <use transform="translate(45.690477 0)scale(0.996264)" xlink:href="#CMR17-48"/>
       <use transform="translate(91.380954 0)scale(0.996264)" xlink:href="#CMR17-48"/>
      </g>
     </g>
    </g>
    <g id="xtick_3">
     <g id="line2d_3">
      <g>
       <use style="stroke:#000000;stroke-width:0.8;" x="213.297878" xlink:href="#mcbd2e7f837" y="277.574739"/>
      </g>
     </g>
     <g id="text_3">
      <!-- $\mathdefault{400}$ -->
      <g transform="translate(199.590735 298.411736)scale(0.2 -0.2)">
       <defs>
        <path d="M 33.59375 64.40625 
C 33.59375 66.5 33.5 66.5 31.703125 66.5 
L 2 19.59375 
L 2 17 
L 27.796875 17 
L 27.796875 7.140625 
C 27.796875 3.5 27.59375 2.5 20.59375 2.5 
L 18.703125 2.5 
L 18.703125 0 
C 21.90625 0 27.296875 0 30.703125 0 
C 34.09375 0 39.5 0 42.703125 0 
L 42.703125 2.5 
L 40.796875 2.5 
C 33.796875 2.5 33.59375 3.5 33.59375 7.140625 
L 33.59375 17 
L 43.796875 17 
L 43.796875 19.59375 
L 33.59375 19.59375 
z
M 28.09375 57.859375 
L 28.09375 19.59375 
L 4 19.59375 
z
" id="CMR17-52"/>
       </defs>
       <use transform="scale(0.996264)" xlink:href="#CMR17-52"/>
       <use transform="translate(45.690477 0)scale(0.996264)" xlink:href="#CMR17-48"/>
       <use transform="translate(91.380954 0)scale(0.996264)" xlink:href="#CMR17-48"/>
      </g>
     </g>
    </g>
    <g id="xtick_4">
     <g id="line2d_4">
      <g>
       <use style="stroke:#000000;stroke-width:0.8;" x="277.229425" xlink:href="#mcbd2e7f837" y="277.574739"/>
      </g>
     </g>
     <g id="text_4">
      <!-- $\mathdefault{600}$ -->
      <g transform="translate(263.522282 298.411736)scale(0.2 -0.2)">
       <defs>
        <path d="M 10.59375 34 
C 10.59375 57.65625 21.796875 63 28.296875 63 
C 30.40625 63 35.5 62.640625 37.5 59 
C 35.90625 59 32.90625 59 32.90625 55.515625 
C 32.90625 52.828125 35.09375 51.921875 36.5 51.921875 
C 37.40625 51.921875 40.09375 52.3125 40.09375 55.625 
C 40.09375 61.78125 35.09375 65.296875 28.203125 65.296875 
C 16.296875 65.296875 3.796875 52.96875 3.796875 31 
C 3.796875 3.953125 15.09375 -2 23.09375 -2 
C 32.796875 -2 42 6.671875 42 20.046875 
C 42 32.515625 33.90625 41.59375 23.703125 41.59375 
C 17.59375 41.59375 13.09375 37.609375 10.59375 30.625 
z
M 23.09375 0.390625 
C 10.796875 0.390625 10.796875 18.75 10.796875 22.4375 
C 10.796875 29.625 14.203125 40 23.5 40 
C 25.203125 40 30.09375 40 33.40625 33.125 
C 35.203125 29.21875 35.203125 25.140625 35.203125 20.140625 
C 35.203125 14.75 35.203125 10.78125 33.09375 6.78125 
C 30.90625 2.671875 27.703125 0.390625 23.09375 0.390625 
z
" id="CMR17-54"/>
       </defs>
       <use transform="scale(0.996264)" xlink:href="#CMR17-54"/>
       <use transform="translate(45.690477 0)scale(0.996264)" xlink:href="#CMR17-48"/>
       <use transform="translate(91.380954 0)scale(0.996264)" xlink:href="#CMR17-48"/>
      </g>
     </g>
    </g>
    <g id="xtick_5">
     <g id="line2d_5">
      <g>
       <use style="stroke:#000000;stroke-width:0.8;" x="341.160972" xlink:href="#mcbd2e7f837" y="277.574739"/>
      </g>
     </g>
     <g id="text_5">
      <!-- $\mathdefault{800}$ -->
      <g transform="translate(327.453829 298.411736)scale(0.2 -0.2)">
       <defs>
        <path d="M 27.203125 35.375 
C 33.5 38.546875 39.90625 43.328125 39.90625 50.984375 
C 39.90625 60.015625 31.09375 65.296875 23 65.296875 
C 13.90625 65.296875 5.90625 58.734375 5.90625 49.6875 
C 5.90625 47.203125 6.5 42.921875 10.40625 39.140625 
C 11.40625 38.15625 15.59375 35.171875 18.296875 33.28125 
C 13.796875 30.984375 3.296875 25.53125 3.296875 14.59375 
C 3.296875 4.359375 13.09375 -2 22.796875 -2 
C 33.5 -2 42.5 5.65625 42.5 15.78125 
C 42.5 24.84375 36.40625 29.015625 32.40625 31.703125 
z
M 14.09375 44.09375 
C 13.296875 44.59375 9.296875 47.671875 9.296875 52.359375 
C 9.296875 58.421875 15.59375 63 22.796875 63 
C 30.703125 63 36.5 57.4375 36.5 50.96875 
C 36.5 41.703125 26.09375 36.421875 25.59375 36.421875 
C 25.5 36.421875 25.40625 36.421875 24.59375 37.03125 
z
M 32.5 23.734375 
C 34 22.640625 38.796875 19.375 38.796875 13.296875 
C 38.796875 5.953125 31.40625 0.390625 23 0.390625 
C 13.90625 0.390625 7 6.84375 7 14.6875 
C 7 22.546875 13.09375 29.09375 20 32.1875 
z
" id="CMR17-56"/>
       </defs>
       <use transform="scale(0.996264)" xlink:href="#CMR17-56"/>
       <use transform="translate(45.690477 0)scale(0.996264)" xlink:href="#CMR17-48"/>
       <use transform="translate(91.380954 0)scale(0.996264)" xlink:href="#CMR17-48"/>
      </g>
     </g>
    </g>
    <g id="xtick_6">
     <g id="line2d_6">
      <g>
       <use style="stroke:#000000;stroke-width:0.8;" x="405.09252" xlink:href="#mcbd2e7f837" y="277.574739"/>
      </g>
     </g>
     <g id="text_6">
      <!-- $\mathdefault{1000}$ -->
      <g transform="translate(386.816329 298.411736)scale(0.2 -0.2)">
       <defs>
        <path d="M 26.59375 63.40625 
C 26.59375 65.5 26.5 65.5 25.09375 65.5 
C 21.203125 61.1875 15.296875 59.796875 9.703125 59.796875 
C 9.40625 59.796875 8.90625 59.796875 8.796875 59.5 
C 8.703125 59.296875 8.703125 59.09375 8.703125 57 
C 11.796875 57 17 57.59375 21 59.984375 
L 21 7.203125 
C 21 3.6875 20.796875 2.5 12.203125 2.5 
L 9.203125 2.5 
L 9.203125 0 
C 14 0 19 0 23.796875 0 
C 28.59375 0 33.59375 0 38.40625 0 
L 38.40625 2.5 
L 35.40625 2.5 
C 26.796875 2.5 26.59375 3.59375 26.59375 7.15625 
z
" id="CMR17-49"/>
       </defs>
       <use transform="scale(0.996264)" xlink:href="#CMR17-49"/>
       <use transform="translate(45.690477 0)scale(0.996264)" xlink:href="#CMR17-48"/>
       <use transform="translate(91.380954 0)scale(0.996264)" xlink:href="#CMR17-48"/>
       <use transform="translate(137.071431 0)scale(0.996264)" xlink:href="#CMR17-48"/>
      </g>
     </g>
    </g>
    <g id="text_7">
     <!-- Epoch -->
     <g transform="translate(228.578875 320.124366)scale(0.2 -0.2)">
      <defs>
       <path d="M 60.703125 25.234375 
L 58.90625 25.234375 
C 56.703125 10.5625 55.40625 2.59375 37.796875 2.59375 
L 23.90625 2.59375 
C 19.90625 2.59375 19.703125 3.078125 19.703125 6.46875 
L 19.703125 34 
L 29.09375 34 
C 38.5 34 39.40625 30.625 39.40625 22.34375 
L 41.203125 22.34375 
L 41.203125 48.140625 
L 39.40625 48.140625 
C 39.40625 39.953125 38.5 36.59375 29.09375 36.59375 
L 19.703125 36.59375 
L 19.703125 61.140625 
C 19.703125 64.5 19.90625 65 23.90625 65 
L 37.59375 65 
C 53.09375 65 54.90625 58.890625 56.296875 45.765625 
L 58.09375 45.765625 
L 55.703125 67.578125 
L 5.09375 67.578125 
L 5.09375 65 
C 12 65 13.09375 65 13.09375 60.53125 
L 13.09375 7.046875 
C 13.09375 2.59375 12 2.59375 5.09375 2.59375 
L 5.09375 0 
L 57.09375 0 
z
" id="CMR17-69"/>
       <path d="M 22 -16.609375 
C 15.59375 -16.609375 15.203125 -16.203125 15.203125 -12.328125 
L 15.203125 6.28125 
C 18.09375 2.09375 22.296875 -0.59375 27.59375 -0.59375 
C 37.59375 -0.59375 47.703125 8.171875 47.703125 21.6875 
C 47.703125 34.234375 39 43.78125 28.703125 43.78125 
C 22.703125 43.78125 17.796875 40.5 15 36.53125 
L 15 43.78125 
L 3.09375 42.6875 
L 3.09375 40.109375 
C 9 40.109375 9.90625 39.5 9.90625 34.734375 
L 9.90625 -12.328125 
C 9.90625 -16.109375 9.5 -16.609375 3.09375 -16.609375 
L 3.09375 -19.1875 
C 5.5 -19 9.90625 -19 12.5 -19 
C 15.09375 -19 19.59375 -19 22 -19.1875 
z
M 15.203125 31.4375 
C 15.203125 32.84375 15.203125 34.921875 19.09375 38.609375 
C 19.59375 39.015625 23 42 28 42 
C 35.296875 42 41.296875 32.9375 41.296875 21.59375 
C 41.296875 10.25 34.90625 1 27 1 
C 23.40625 1 19.5 2.6875 16.5 7.375 
C 15.203125 9.5625 15.203125 10.15625 15.203125 11.75 
z
" id="CMR17-112"/>
       <path d="M 43.09375 21.1875 
C 43.09375 34 33.796875 44 22.90625 44 
C 12 44 2.703125 34 2.703125 21.1875 
C 2.703125 8.609375 12 -1 22.90625 -1 
C 33.796875 -1 43.09375 8.609375 43.09375 21.1875 
z
M 22.90625 0.796875 
C 18.203125 0.796875 14.203125 3.59375 11.90625 7.5 
C 9.40625 11.984375 9.09375 17.59375 9.09375 22 
C 9.09375 26.203125 9.296875 31.40625 11.90625 35.90625 
C 13.90625 39.203125 17.796875 42.40625 22.90625 42.40625 
C 27.40625 42.40625 31.203125 39.90625 33.59375 36.40625 
C 36.703125 31.703125 36.703125 25.109375 36.703125 22 
C 36.703125 18.09375 36.5 12.109375 33.796875 7.296875 
C 31 2.703125 26.703125 0.796875 22.90625 0.796875 
z
" id="CMR17-111"/>
       <path d="M 34.90625 35 
C 33 35 30.203125 35 30.203125 31.515625 
C 30.203125 28.71875 32.5 27.921875 33.796875 27.921875 
C 34.5 27.921875 37.40625 28.234375 37.40625 31.625 
C 37.40625 38.546875 30.59375 43.796875 22.90625 43.796875 
C 12.296875 43.796875 3.296875 34.03125 3.296875 21.296875 
C 3.296875 8.0625 12.703125 -1 22.90625 -1 
C 35.296875 -1 38.40625 10.578125 38.40625 11.6875 
C 38.40625 12.09375 38.296875 12.390625 37.59375 12.390625 
C 36.90625 12.390625 36.796875 12.296875 36.40625 10.984375 
C 33.796875 2.8125 28.09375 0.796875 23.796875 0.796875 
C 17.40625 0.796875 9.703125 6.671875 9.703125 21.390625 
C 9.703125 36.53125 17.09375 42 23 42 
C 26.90625 42 32.703125 40.203125 34.90625 35 
z
" id="CMR17-99"/>
       <path d="M 41.5 30.203125 
C 41.5 35.296875 40.5 43.59375 28.703125 43.59375 
C 20.5 43.59375 16.5 37 15.296875 33.703125 
L 15.203125 33.703125 
L 15.203125 68.6875 
L 3.296875 67.59375 
L 3.296875 65 
C 9.203125 65 10.09375 64.40625 10.09375 59.640625 
L 10.09375 6.65625 
C 10.09375 2.875 9.703125 2.390625 3.296875 2.390625 
L 3.296875 -0.203125 
C 5.703125 0 10.09375 0 12.703125 0 
C 15.296875 0 19.796875 0 22.203125 -0.203125 
L 22.203125 2.390625 
C 15.796875 2.390625 15.40625 2.78125 15.40625 6.6875 
L 15.40625 25.90625 
C 15.40625 35.109375 21 42 28 42 
C 35.40625 42 36.203125 35.40625 36.203125 30.59375 
L 36.203125 6.6875 
C 36.203125 2.875 35.796875 2.390625 29.40625 2.390625 
L 29.40625 -0.203125 
C 31.796875 0 36.203125 0 38.796875 0 
C 41.40625 0 45.90625 0 48.296875 -0.203125 
L 48.296875 2.390625 
C 41.90625 2.390625 41.5 2.78125 41.5 6.6875 
z
" id="CMR17-104"/>
      </defs>
      <use transform="scale(0.996264)" xlink:href="#CMR17-69"/>
      <use transform="translate(62.586301 0)scale(0.996264)" xlink:href="#CMR17-112"/>
      <use transform="translate(116.084109 0)scale(0.996264)" xlink:href="#CMR17-111"/>
      <use transform="translate(164.377025 0)scale(0.996264)" xlink:href="#CMR17-99"/>
      <use transform="translate(202.260231 0)scale(0.996264)" xlink:href="#CMR17-104"/>
     </g>
    </g>
   </g>
   <g id="matplotlib.axis_2">
    <g id="ytick_1">
     <g id="line2d_7">
      <defs>
       <path d="M 0 0 
L -3.5 0 
" id="m62d956c58a" style="stroke:#000000;stroke-width:0.8;"/>
      </defs>
      <g>
       <use style="stroke:#000000;stroke-width:0.8;" x="68.588821" xlink:href="#m62d956c58a" y="266.832575"/>
      </g>
     </g>
     <g id="text_8">
      <!-- $\mathdefault{0}$ -->
      <g transform="translate(52.450726 273.751073)scale(0.2 -0.2)">
       <use transform="scale(0.996264)" xlink:href="#CMR17-48"/>
      </g>
     </g>
    </g>
    <g id="ytick_2">
     <g id="line2d_8">
      <g>
       <use style="stroke:#000000;stroke-width:0.8;" x="68.588821" xlink:href="#m62d956c58a" y="184.454652"/>
      </g>
     </g>
     <g id="text_9">
      <!-- $\mathdefault{10}$ -->
      <g transform="translate(43.31263 191.37315)scale(0.2 -0.2)">
       <use transform="scale(0.996264)" xlink:href="#CMR17-49"/>
       <use transform="translate(45.690477 0)scale(0.996264)" xlink:href="#CMR17-48"/>
      </g>
     </g>
    </g>
    <g id="ytick_3">
     <g id="line2d_9">
      <g>
       <use style="stroke:#000000;stroke-width:0.8;" x="68.588821" xlink:href="#m62d956c58a" y="102.076728"/>
      </g>
     </g>
     <g id="text_10">
      <!-- $\mathdefault{20}$ -->
      <g transform="translate(43.31263 108.995227)scale(0.2 -0.2)">
       <use transform="scale(0.996264)" xlink:href="#CMR17-50"/>
       <use transform="translate(45.690477 0)scale(0.996264)" xlink:href="#CMR17-48"/>
      </g>
     </g>
    </g>
    <g id="text_11">
     <!-- MSE Loss -->
     <g transform="translate(35.436997 189.879276)rotate(-90)scale(0.2 -0.2)">
      <defs>
       <path d="M 20.90625 66 
C 20.296875 67.5 20.203125 67.5 18.09375 67.5 
L 5.296875 67.5 
L 5.296875 65 
C 12.203125 65 13.296875 65 13.296875 60.546875 
L 13.296875 9.53125 
C 13.296875 7.046875 13.296875 2.390625 5.296875 2.390625 
L 5.296875 -0.203125 
C 7.59375 0 11.796875 0 14.296875 0 
C 16.796875 0 21 0 23.296875 -0.203125 
L 23.296875 2.390625 
C 15.296875 2.390625 15.296875 7.046875 15.296875 9.53125 
L 15.296875 64.609375 
L 15.40625 64.609375 
L 38.90625 1.390625 
C 39.296875 0.390625 39.5 -0.203125 40.296875 -0.203125 
C 41.09375 -0.203125 41.296875 0.390625 41.703125 1.390625 
L 65.40625 65.09375 
L 65.5 65.09375 
L 65.5 6.84375 
C 65.5 2.390625 64.40625 2.390625 57.5 2.390625 
L 57.5 -0.203125 
C 60.203125 0 65.59375 0 68.5 0 
C 71.40625 0 76.90625 0 79.59375 -0.203125 
L 79.59375 2.390625 
C 72.703125 2.390625 71.59375 2.390625 71.59375 6.84375 
L 71.59375 60.546875 
C 71.59375 65 72.703125 65 79.59375 65 
L 79.59375 67.5 
L 66.90625 67.5 
C 64.796875 67.5 64.703125 67.40625 64.09375 65.90625 
L 42.5 7.84375 
z
" id="CMR17-77"/>
       <path d="M 43.796875 67.03125 
C 43.796875 68.8125 43.703125 68.921875 43.09375 68.921875 
C 42.5 68.921875 42.296875 68.515625 41.90625 67.625 
L 38.90625 61.046875 
C 35.09375 66.515625 29.296875 69 23 69 
C 12.796875 69 4.59375 60.953125 4.59375 50.828125 
C 4.59375 47.75 5.296875 43.375 8.703125 39.21875 
C 12.40625 34.65625 15.90625 33.859375 23.90625 31.765625 
C 26.90625 30.96875 31.90625 29.671875 32.90625 29.28125 
C 38.59375 26.90625 41.59375 20.953125 41.59375 15.390625 
C 41.59375 8.234375 36.5 0.59375 27.796875 0.59375 
C 17.09375 0.59375 7.09375 6.546875 6.40625 20.484375 
C 6.296875 22.078125 6.203125 22.171875 5.5 22.171875 
C 4.703125 22.171875 4.59375 22.078125 4.59375 20.078125 
L 4.59375 -0.015625 
C 4.59375 -1.796875 4.703125 -1.90625 5.296875 -1.90625 
C 6 -1.90625 6.203125 -1.40625 7.59375 1.6875 
C 7.703125 1.984375 7.703125 2.1875 9.59375 5.953125 
C 14.59375 -0.609375 23 -2 27.796875 -2 
C 38.703125 -2 46.40625 7.046875 46.40625 17.5625 
C 46.40625 22.71875 44.5 26.6875 43.40625 28.484375 
C 39.203125 34.84375 34.703125 36.03125 29.90625 37.21875 
C 29.203125 37.53125 29 37.53125 23.40625 38.90625 
C 18 40.296875 15.703125 41 13.203125 43.6875 
C 10.40625 46.75 9.40625 49.9375 9.40625 53.109375 
C 9.40625 59.5625 14.59375 66.609375 23.09375 66.609375 
C 33.703125 66.609375 40.296875 59.15625 41.796875 46.765625 
C 42.09375 44.96875 42.203125 44.875 42.90625 44.875 
C 43.796875 44.875 43.796875 45.171875 43.796875 46.859375 
z
" id="CMR17-83"/>
       <path d="M 54.203125 25.234375 
L 52.40625 25.234375 
C 51.59375 15.359375 50.296875 2.59375 33.203125 2.59375 
L 23.90625 2.59375 
C 19.90625 2.59375 19.703125 3.078125 19.703125 6.46875 
L 19.703125 60.90625 
C 19.703125 64.515625 19.90625 65.5 27.5 65.5 
L 29.703125 65.5 
L 29.703125 68 
C 25.59375 68 20.796875 68 16.703125 68 
C 13.59375 68 8 68 5.09375 68 
L 5.09375 65.5 
C 12 65.5 13.09375 65.5 13.09375 61.015625 
L 13.09375 7.0625 
C 13.09375 2.59375 12 2.59375 5.09375 2.59375 
L 5.09375 0 
L 51.796875 0 
z
" id="CMR17-76"/>
       <path d="M 30.90625 42.140625 
C 30.90625 43.953125 30.796875 44.046875 30.203125 44.046875 
C 29.796875 44.046875 29.703125 43.953125 28.5 42.453125 
C 28.203125 42.046875 27.296875 41.03125 27 40.640625 
C 23.796875 44.046875 19.296875 44.046875 17.59375 44.046875 
C 6.5 44.046875 2.5 38.234375 2.5 32.4375 
C 2.5 23.40625 12.703125 21.328125 15.59375 20.703125 
C 21.90625 19.421875 24.09375 19.015625 26.203125 17.203125 
C 27.5 16.015625 29.703125 13.8125 29.703125 10.21875 
C 29.703125 6 27.296875 0.59375 18.09375 0.59375 
C 9.40625 0.59375 6.296875 7.1875 4.5 15.953125 
C 4.203125 17.34375 4.203125 17.453125 3.40625 17.453125 
C 2.59375 17.453125 2.5 17.34375 2.5 15.359375 
L 2.5 0.984375 
C 2.5 -0.796875 2.59375 -0.90625 3.203125 -0.90625 
C 3.703125 -0.90625 3.796875 -0.796875 4.296875 0 
C 4.90625 0.890625 6.40625 3.296875 7 4.3125 
C 9 1.609375 12.5 -1 18.09375 -1 
C 28 -1 33.296875 4.421875 33.296875 12.25 
C 33.296875 17.375 30.59375 20.078125 29.296875 21.28125 
C 26.296875 24.390625 22.796875 25.09375 18.59375 25.890625 
C 13.09375 27.109375 6.09375 28.515625 6.09375 34.640625 
C 6.09375 37.234375 7.5 42.765625 17.59375 42.765625 
C 28.296875 42.765625 28.90625 32.71875 29.09375 29.5 
C 29.203125 29 29.703125 28.890625 30 28.890625 
C 30.90625 28.890625 30.90625 29.203125 30.90625 30.90625 
z
" id="CMR17-115"/>
      </defs>
      <use transform="scale(0.996264)" xlink:href="#CMR17-77"/>
      <use transform="translate(84.686941 0)scale(0.996264)" xlink:href="#CMR17-83"/>
      <use transform="translate(135.58231 0)scale(0.996264)" xlink:href="#CMR17-69"/>
      <use transform="translate(228.244577 0)scale(0.996264)" xlink:href="#CMR17-76"/>
      <use transform="translate(285.625985 0)scale(0.996264)" xlink:href="#CMR17-111"/>
      <use transform="translate(331.316462 0)scale(0.996264)" xlink:href="#CMR17-115"/>
      <use transform="translate(367.1178 0)scale(0.996264)" xlink:href="#CMR17-115"/>
     </g>
    </g>
   </g>
   <g id="line2d_10">
    <path clip-path="url(#p219d0e1b18)" d="M 85.434784 33.235215 
L 85.754442 184.429751 
L 86.074099 218.527263 
L 86.393757 234.368862 
L 86.713415 244.029841 
L 87.033073 248.534253 
L 87.992046 254.249077 
L 88.631361 256.287164 
L 89.590334 257.931324 
L 90.549308 259.281559 
L 91.508281 260.382647 
L 92.467254 261.269548 
L 93.745885 262.157177 
L 95.024516 262.771575 
L 96.942462 263.334802 
L 100.778355 263.919224 
L 106.212537 264.462629 
L 107.810825 264.583136 
L 108.450141 264.625502 
L 109.409114 264.535302 
L 111.646718 264.553981 
L 112.925349 264.684779 
L 113.245007 264.755024 
L 113.884322 264.700146 
L 114.523638 264.757172 
L 117.720215 264.914678 
L 118.359531 264.866999 
L 118.998846 264.901809 
L 119.318504 264.849306 
L 119.957819 264.975461 
L 120.597135 264.852103 
L 122.515081 264.976433 
L 123.154397 264.932115 
L 123.474054 265.002806 
L 124.11337 264.961849 
L 124.433028 265.057469 
L 125.392001 265.018386 
L 126.670632 265.115476 
L 127.309947 265.026179 
L 127.949263 265.099905 
L 128.26892 265.044814 
L 128.908236 265.145289 
L 129.547551 265.06637 
L 130.186867 265.116701 
L 130.506525 265.067744 
L 131.14584 265.164364 
L 131.785156 265.10901 
L 132.424471 265.123851 
L 132.744129 265.087775 
L 133.383444 265.176565 
L 134.02276 265.130111 
L 134.662075 265.133395 
L 136.260364 265.168276 
L 136.580022 265.220258 
L 137.219337 265.16868 
L 137.538995 265.252819 
L 138.17831 265.150167 
L 138.817626 265.238581 
L 139.456941 265.218543 
L 139.776599 265.281986 
L 140.415914 265.195671 
L 141.05523 265.269129 
L 141.374888 265.203859 
L 142.014203 265.313687 
L 142.653519 265.22328 
L 143.292834 265.285021 
L 143.612492 265.21318 
L 144.571465 265.25577 
L 145.21078 265.258763 
L 146.489411 265.333499 
L 147.128727 265.231084 
L 147.768042 265.30022 
L 148.0877 265.236115 
L 148.727016 265.354912 
L 149.366331 265.277018 
L 150.005647 265.311223 
L 150.325304 265.26587 
L 150.96462 265.366752 
L 151.284277 265.285779 
L 152.882566 265.408376 
L 154.800513 265.323764 
L 155.439828 265.413871 
L 156.079143 265.347713 
L 156.718459 265.373389 
L 157.038117 265.309708 
L 157.677432 265.408239 
L 158.316748 265.325241 
L 158.956063 265.359776 
L 159.275721 265.285083 
L 159.915036 265.410299 
L 160.554352 265.353183 
L 160.87401 265.419953 
L 161.513325 265.343417 
L 161.832983 265.443362 
L 162.472298 265.366274 
L 163.111614 265.450188 
L 163.750929 265.430825 
L 164.070587 265.479811 
L 164.709902 265.415529 
L 165.349218 265.450743 
L 165.988533 265.470619 
L 167.586822 265.451195 
L 167.90648 265.40445 
L 168.545795 265.475395 
L 169.185111 265.446708 
L 169.824426 265.438457 
L 170.144084 265.40371 
L 170.783399 265.467709 
L 171.422715 265.447009 
L 171.742373 265.489379 
L 172.381688 265.393067 
L 172.701346 265.48953 
L 173.340661 265.419876 
L 173.979977 265.485974 
L 174.299634 265.416926 
L 174.93895 265.505751 
L 175.578265 265.484261 
L 175.897923 265.534653 
L 176.537239 265.481946 
L 176.856896 265.553356 
L 177.496212 265.499703 
L 178.135527 265.536462 
L 178.455185 265.467925 
L 179.0945 265.559055 
L 179.733816 265.516212 
L 180.373131 265.51934 
L 180.692789 265.475718 
L 181.332105 265.549193 
L 181.97142 265.520546 
L 182.291078 265.564057 
L 182.930393 265.456761 
L 183.569709 265.544341 
L 184.209024 265.527319 
L 184.528682 265.563223 
L 185.167997 265.50464 
L 185.807313 265.540662 
L 187.405602 265.537992 
L 188.044917 265.52682 
L 199.232938 265.623407 
L 199.552596 265.53088 
L 201.150884 265.623673 
L 202.109857 265.590232 
L 203.388488 265.630749 
L 203.708146 265.537836 
L 205.306435 265.645575 
L 205.94575 265.554115 
L 206.585066 265.619502 
L 207.863697 265.566904 
L 208.503012 265.665093 
L 209.142328 265.636419 
L 209.461985 265.673647 
L 210.101301 265.610999 
L 210.740616 265.638641 
L 222.567953 265.643789 
L 223.846583 265.69311 
L 224.166241 265.608667 
L 224.805557 265.706618 
L 225.444872 265.685771 
L 225.76453 265.724526 
L 226.403845 265.637192 
L 227.043161 265.674313 
L 229.600423 265.674066 
L 229.92008 265.708393 
L 230.239738 265.60101 
L 231.838027 265.704765 
L 232.477342 265.612997 
L 233.116658 265.661347 
L 235.354262 265.671882 
L 235.993577 265.708665 
L 236.313235 265.645807 
L 236.952551 265.730791 
L 237.591866 265.727506 
L 238.870497 265.746471 
L 239.509813 265.715487 
L 239.82947 265.760269 
L 240.468786 265.66665 
L 241.108101 265.720282 
L 242.70639 265.67646 
L 243.345705 265.673245 
L 245.583309 265.661746 
L 245.902967 265.716124 
L 246.542283 265.599866 
L 246.86194 265.706798 
L 248.460229 265.642111 
L 248.779887 265.733604 
L 250.378176 265.689351 
L 251.017491 265.743446 
L 265.402089 265.749108 
L 265.721747 265.791433 
L 266.361062 265.732705 
L 267.000378 265.747961 
L 269.55764 265.793102 
L 270.196955 265.706288 
L 270.836271 265.747081 
L 272.114902 265.711126 
L 272.754217 265.772698 
L 274.032848 265.726327 
L 274.672163 265.788892 
L 276.270452 265.802299 
L 282.983265 265.761233 
L 283.62258 265.738267 
L 289.696077 265.764972 
L 290.015735 265.727399 
L 290.65505 265.795123 
L 290.974708 265.727086 
L 291.614023 265.787622 
L 291.933681 265.671586 
L 292.572997 265.794331 
L 292.892654 265.726069 
L 293.53197 265.806135 
L 293.851628 265.702318 
L 294.490943 265.801414 
L 295.130259 265.786534 
L 295.449916 265.815929 
L 295.769574 265.71037 
L 296.408889 265.819571 
L 297.048205 265.802544 
L 297.367863 265.832352 
L 297.68752 265.724117 
L 298.326836 265.824676 
L 298.966151 265.794526 
L 299.285809 265.832576 
L 299.605467 265.714735 
L 300.244782 265.829805 
L 300.884098 265.79863 
L 301.203755 265.848881 
L 301.523413 265.758775 
L 303.121702 265.850453 
L 303.761017 265.793485 
L 304.400333 265.817832 
L 306.637937 265.815568 
L 307.916568 265.725134 
L 308.555883 265.805351 
L 308.875541 265.724681 
L 309.514857 265.790214 
L 309.834514 265.677526 
L 310.47383 265.808887 
L 310.793488 265.732051 
L 311.432803 265.802235 
L 311.752461 265.724696 
L 312.391776 265.821832 
L 313.670407 265.755764 
L 314.309723 265.845331 
L 315.588354 265.785997 
L 316.227669 265.876427 
L 316.866985 265.864564 
L 319.104589 265.876576 
L 319.743904 265.780324 
L 320.38322 265.832951 
L 321.981508 265.729623 
L 322.620824 265.812825 
L 322.940482 265.736142 
L 323.579797 265.785584 
L 323.899455 265.719309 
L 324.53877 265.841944 
L 324.858428 265.771154 
L 325.497743 265.822057 
L 325.817401 265.780473 
L 326.456717 265.858743 
L 327.735348 265.770081 
L 328.374663 265.87305 
L 329.013979 265.862635 
L 329.333636 265.873644 
L 329.653294 265.758466 
L 330.292609 265.878283 
L 330.931925 265.8384 
L 331.251583 265.874356 
L 331.57124 265.756788 
L 332.849871 265.832071 
L 333.489187 265.812262 
L 336.046449 265.747651 
L 336.685764 265.834542 
L 337.005422 265.757661 
L 337.644737 265.804926 
L 337.964395 265.75609 
L 338.603711 265.84004 
L 339.243026 265.848262 
L 340.201999 265.857529 
L 356.184886 265.855321 
L 356.504544 265.911527 
L 357.143859 265.863265 
L 357.463517 265.90117 
L 358.102832 265.809253 
L 358.742148 265.857737 
L 361.29941 265.820723 
L 361.938725 265.811758 
L 362.578041 265.874268 
L 366.094276 265.772273 
L 366.733591 265.880215 
L 367.372907 265.864375 
L 367.692565 265.878008 
L 368.012222 265.757629 
L 368.651538 265.888557 
L 368.971195 265.810335 
L 369.610511 265.892736 
L 369.930169 265.763136 
L 370.569484 265.902684 
L 370.889142 265.828875 
L 371.528457 265.908812 
L 371.848115 265.788867 
L 372.487431 265.919892 
L 373.126746 265.880513 
L 373.446404 265.91948 
L 373.766062 265.81076 
L 375.044692 265.888443 
L 375.684008 265.857705 
L 378.24127 265.821919 
L 378.880585 265.871403 
L 379.200243 265.798823 
L 379.839558 265.838522 
L 380.159216 265.755018 
L 380.798532 265.871978 
L 381.118189 265.790967 
L 381.757505 265.86974 
L 382.077163 265.766207 
L 382.716478 265.879262 
L 383.355794 265.862941 
L 383.675451 265.887056 
L 383.995109 265.77507 
L 384.634425 265.894519 
L 385.27374 265.877879 
L 385.593398 265.890499 
L 385.913055 265.770076 
L 386.552371 265.911804 
L 386.872029 265.832467 
L 387.511344 265.908284 
L 387.831002 265.803762 
L 388.470317 265.921971 
L 389.109633 265.899303 
L 389.429291 265.927973 
L 389.748948 265.811287 
L 390.388264 265.939524 
L 391.027579 265.896183 
L 391.347237 265.93418 
L 391.666895 265.829246 
L 392.625868 265.903448 
L 401.895942 265.778714 
L 402.535258 265.886453 
L 403.174573 265.873017 
L 411.485674 265.868678 
L 412.12499 265.903939 
L 413.403621 265.85831 
L 414.042936 265.906229 
L 415.001909 265.87491 
L 416.28054 265.866807 
L 416.919856 265.887176 
L 417.239514 265.839462 
L 417.878829 265.919518 
L 418.198487 265.85446 
L 418.837802 265.896802 
L 419.15746 265.820304 
L 419.796775 265.919793 
L 420.116433 265.843266 
L 420.755749 265.903621 
L 421.075406 265.803243 
L 421.714722 265.929319 
L 422.03438 265.851697 
L 422.354037 265.896938 
L 422.354037 265.896938 
" style="fill:none;stroke:#4c72b0;stroke-linecap:square;stroke-width:2;"/>
   </g>
   <g id="line2d_11">
    <path clip-path="url(#p219d0e1b18)" d="M 85.434784 201.16871 
L 85.754442 199.918778 
L 86.074099 238.786056 
L 86.393757 243.006487 
L 86.713415 248.838039 
L 87.033073 249.154872 
L 87.35273 253.571458 
L 87.672388 253.853224 
L 87.992046 255.216967 
L 88.311704 255.716071 
L 88.631361 256.766505 
L 88.951019 257.259141 
L 89.270677 257.546561 
L 89.909992 258.589224 
L 91.188623 260.023869 
L 92.467254 261.143618 
L 93.745885 262.029531 
L 95.024516 262.538311 
L 98.860409 263.462008 
L 99.499724 263.462072 
L 100.458697 263.40697 
L 100.778355 263.636883 
L 101.098013 263.686931 
L 101.417671 263.485915 
L 101.737328 263.71271 
L 102.056986 263.765807 
L 102.376644 263.440143 
L 103.015959 263.853933 
L 103.335617 263.679502 
L 103.655275 263.89996 
L 104.29459 263.642902 
L 104.614248 263.93174 
L 105.253564 263.926929 
L 105.573221 264.014612 
L 106.212537 263.829507 
L 106.851852 264.082144 
L 107.491168 264.040559 
L 108.130483 264.125953 
L 109.089456 263.748531 
L 109.728772 264.149198 
L 110.368087 263.866343 
L 110.687745 264.191675 
L 111.007403 264.146407 
L 111.32706 263.718869 
L 111.646718 263.724856 
L 111.966376 264.138027 
L 112.605691 264.035673 
L 112.925349 264.268415 
L 113.564665 263.851154 
L 113.884322 264.176015 
L 114.20398 264.207717 
L 114.523638 264.095311 
L 114.843296 264.305624 
L 115.162953 264.186397 
L 115.482611 263.940741 
L 116.441584 264.237988 
L 116.761242 264.203116 
L 117.0809 264.380865 
L 117.400557 264.290544 
L 117.720215 264.013352 
L 118.039873 263.982189 
L 118.359531 264.24094 
L 118.679188 264.352652 
L 118.998846 264.157128 
L 119.318504 264.231969 
L 119.638162 264.450476 
L 120.277477 263.90259 
L 120.597135 263.98927 
L 120.916793 264.355298 
L 121.556108 264.140244 
L 121.875766 264.414485 
L 122.195423 264.394221 
L 122.515081 264.010356 
L 122.834739 263.982568 
L 123.154397 264.351196 
L 123.793712 264.163423 
L 124.11337 264.48286 
L 124.433028 264.358923 
L 124.752685 264.011375 
L 125.072343 264.142124 
L 125.392001 264.458 
L 125.711659 264.283044 
L 126.031316 264.288371 
L 126.350974 264.535545 
L 126.99029 264.056879 
L 127.629605 264.49382 
L 127.949263 264.26951 
L 128.588578 264.553324 
L 128.908236 264.230665 
L 129.227894 264.093213 
L 129.547551 264.409636 
L 129.867209 264.490456 
L 130.186867 264.255689 
L 130.506525 264.474238 
L 130.826182 264.548889 
L 131.14584 264.205211 
L 131.465498 264.136374 
L 131.785156 264.452318 
L 132.104813 264.482944 
L 132.424471 264.252355 
L 132.744129 264.520599 
L 133.063787 264.546105 
L 133.383444 264.177627 
L 133.703102 264.162168 
L 134.02276 264.512664 
L 134.342417 264.475612 
L 134.662075 264.289691 
L 134.981733 264.582047 
L 135.301391 264.508558 
L 135.621048 264.134306 
L 135.940706 264.238067 
L 136.260364 264.581953 
L 136.899679 264.350585 
L 137.219337 264.644933 
L 137.858653 264.13134 
L 138.497968 264.615169 
L 138.817626 264.415646 
L 139.137283 264.426454 
L 139.456941 264.673896 
L 140.096257 264.177784 
L 140.735572 264.634685 
L 141.05523 264.420515 
L 141.374888 264.479815 
L 141.694545 264.692583 
L 142.333861 264.200901 
L 142.973176 264.655534 
L 143.292834 264.432506 
L 143.612492 264.449838 
L 143.93215 264.705504 
L 144.571465 264.140021 
L 145.21078 264.665309 
L 145.530438 264.433752 
L 145.850096 264.450434 
L 146.169754 264.722692 
L 146.809069 264.162439 
L 147.448385 264.674484 
L 147.768042 264.416366 
L 148.407358 264.712875 
L 148.727016 264.360793 
L 149.046673 264.227888 
L 149.366331 264.566289 
L 149.685989 264.631555 
L 150.005647 264.395123 
L 150.325304 264.625119 
L 150.644962 264.696093 
L 150.96462 264.304696 
L 151.284277 264.2982 
L 151.603935 264.642727 
L 151.923593 264.623455 
L 152.243251 264.46049 
L 152.562908 264.68893 
L 152.882566 264.67092 
L 153.202224 264.335747 
L 153.521882 264.346909 
L 153.841539 264.661877 
L 154.161197 264.643904 
L 154.480855 264.446243 
L 154.800513 264.663872 
L 155.12017 264.720426 
L 155.439828 264.381739 
L 155.759486 264.291273 
L 156.079143 264.606868 
L 156.398801 264.682223 
L 156.718459 264.424223 
L 157.357774 264.749724 
L 157.677432 264.388018 
L 157.99709 264.22445 
L 158.316748 264.553997 
L 158.636405 264.702547 
L 158.956063 264.391698 
L 159.595379 264.750126 
L 159.915036 264.339223 
L 160.234694 264.278958 
L 160.554352 264.673569 
L 160.87401 264.612615 
L 161.193667 264.426058 
L 161.513325 264.745184 
L 161.832983 264.623079 
L 162.15264 264.280443 
L 162.791956 264.756345 
L 163.111614 264.543702 
L 163.431271 264.57382 
L 163.750929 264.788562 
L 164.390245 264.343042 
L 164.709902 264.654515 
L 165.02956 264.726646 
L 165.349218 264.517434 
L 165.988533 264.769023 
L 166.308191 264.442096 
L 166.627849 264.384797 
L 166.947506 264.69594 
L 167.267164 264.714498 
L 167.586822 264.494307 
L 168.226137 264.762234 
L 168.545795 264.417497 
L 168.865453 264.381069 
L 169.185111 264.711823 
L 169.504768 264.691825 
L 169.824426 264.474994 
L 170.144084 264.703168 
L 170.463742 264.715261 
L 170.783399 264.344245 
L 171.103057 264.383526 
L 171.422715 264.751026 
L 172.06203 264.427376 
L 172.381688 264.779563 
L 172.701346 264.600449 
L 173.021003 264.28532 
L 173.660319 264.779186 
L 173.979977 264.498058 
L 174.619292 264.794387 
L 174.93895 264.418261 
L 175.258608 264.421434 
L 175.578265 264.768991 
L 176.217581 264.544442 
L 176.537239 264.813603 
L 177.176554 264.39957 
L 177.81587 264.792625 
L 178.135527 264.550786 
L 178.774843 264.819164 
L 179.0945 264.525267 
L 179.414158 264.416149 
L 179.733816 264.719088 
L 180.053474 264.749331 
L 180.373131 264.523938 
L 181.012447 264.783284 
L 181.332105 264.45261 
L 181.651762 264.424717 
L 181.97142 264.758616 
L 182.291078 264.693717 
L 182.610736 264.48257 
L 182.930393 264.751198 
L 183.250051 264.767711 
L 183.569709 264.419643 
L 183.889366 264.47466 
L 184.209024 264.805807 
L 184.84834 264.542982 
L 185.167997 264.828321 
L 185.807313 264.388136 
L 186.446628 264.809124 
L 186.766286 264.541205 
L 187.405602 264.827412 
L 187.725259 264.509451 
L 188.044917 264.395741 
L 188.364575 264.742771 
L 188.684233 264.721141 
L 189.00389 264.497279 
L 189.323548 264.765749 
L 189.643206 264.765196 
L 189.962863 264.417159 
L 190.282521 264.511151 
L 190.602179 264.82072 
L 190.921837 264.564414 
L 191.241494 264.57771 
L 191.561152 264.852706 
L 192.200468 264.388003 
L 192.520125 264.72452 
L 192.839783 264.753978 
L 193.159441 264.527213 
L 193.479099 264.773633 
L 193.798756 264.763636 
L 194.118414 264.445849 
L 194.438072 264.56312 
L 194.75773 264.830921 
L 195.077387 264.605111 
L 195.397045 264.609346 
L 195.716703 264.858014 
L 196.356018 264.412886 
L 196.675676 264.72235 
L 196.995334 264.773387 
L 197.314991 264.527681 
L 197.634649 264.745414 
L 197.954307 264.810334 
L 198.273965 264.462652 
L 198.593622 264.487427 
L 198.91328 264.826408 
L 199.232938 264.631064 
L 199.552596 264.571192 
L 199.872253 264.857245 
L 200.511569 264.405862 
L 200.831226 264.682572 
L 201.150884 264.797756 
L 201.470542 264.506913 
L 202.109857 264.802684 
L 202.429515 264.434558 
L 202.749173 264.468577 
L 203.068831 264.829713 
L 203.388488 264.611982 
L 203.708146 264.576772 
L 204.027804 264.870762 
L 204.667119 264.418212 
L 204.986777 264.751593 
L 205.306435 264.740223 
L 205.626093 264.532324 
L 205.94575 264.809889 
L 206.265408 264.734983 
L 206.585066 264.430696 
L 207.224381 264.831533 
L 207.544039 264.558444 
L 208.183354 264.846268 
L 208.503012 264.52227 
L 208.82267 264.530945 
L 209.142328 264.843602 
L 209.781643 264.607466 
L 210.101301 264.87351 
L 210.740616 264.469196 
L 211.060274 264.740938 
L 211.379932 264.796685 
L 211.699589 264.563735 
L 212.019247 264.761021 
L 212.338905 264.814034 
L 212.658563 264.504278 
L 212.97822 264.54805 
L 213.297878 264.856378 
L 213.937194 264.597127 
L 214.256851 264.871713 
L 214.896167 264.448059 
L 215.535482 264.840003 
L 215.85514 264.560406 
L 216.494456 264.861608 
L 216.814113 264.533387 
L 217.133771 264.443654 
L 217.453429 264.809481 
L 218.092744 264.483324 
L 218.412402 264.822647 
L 218.73206 264.687641 
L 219.051717 264.364167 
L 219.691033 264.823779 
L 220.010691 264.507568 
L 220.330348 264.761577 
L 220.650006 264.815336 
L 220.969664 264.435698 
L 221.289322 264.558161 
L 221.608979 264.84956 
L 221.928637 264.5489 
L 222.567953 264.852418 
L 222.88761 264.485394 
L 223.207268 264.549772 
L 223.526926 264.85647 
L 223.846583 264.605196 
L 224.485899 264.871766 
L 224.805557 264.557988 
L 225.125214 264.538674 
L 225.444872 264.841908 
L 226.084188 264.601029 
L 226.403845 264.873454 
L 227.043161 264.463387 
L 227.362819 264.731858 
L 227.682476 264.806991 
L 228.002134 264.560429 
L 228.321792 264.761347 
L 228.641449 264.815121 
L 228.961107 264.485851 
L 229.280765 264.533129 
L 229.600423 264.862976 
L 229.92008 264.612507 
L 230.239738 264.586713 
L 230.559396 264.883055 
L 231.198711 264.421046 
L 231.518369 264.792743 
L 232.157685 264.545053 
L 232.477342 264.859858 
L 233.116658 264.429733 
L 233.436316 264.728048 
L 233.755973 264.792049 
L 234.075631 264.538514 
L 234.395289 264.84027 
L 234.714946 264.754168 
L 235.034604 264.471582 
L 235.67392 264.840328 
L 235.993577 264.583522 
L 236.313235 264.789831 
L 236.632893 264.8415 
L 236.952551 264.533487 
L 237.272208 264.61581 
L 237.591866 264.867244 
L 237.911524 264.634205 
L 238.231182 264.686472 
L 238.550839 264.890411 
L 238.870497 264.612459 
L 239.190155 264.516794 
L 239.509813 264.827306 
L 240.149128 264.586576 
L 240.468786 264.840038 
L 240.788443 264.76743 
L 241.108101 264.483093 
L 241.747417 264.867129 
L 242.067074 264.580893 
L 242.386732 264.642653 
L 242.70639 264.886413 
L 243.026048 264.546888 
L 243.345705 264.418002 
L 243.665363 264.808266 
L 244.304679 264.522308 
L 244.624336 264.881249 
L 245.263652 264.403603 
L 245.583309 264.749071 
L 245.902967 264.756193 
L 246.222625 264.493679 
L 246.542283 264.84581 
L 246.86194 264.691255 
L 247.181598 264.39049 
L 247.501256 264.731832 
L 247.820914 264.759322 
L 248.140571 264.54341 
L 248.460229 264.870217 
L 249.099545 264.47925 
L 249.419202 264.783513 
L 249.73886 264.75823 
L 250.058518 264.60658 
L 250.378176 264.891599 
L 251.017491 264.52986 
L 251.337149 264.781412 
L 251.656806 264.786511 
L 251.976464 264.613694 
L 252.296122 264.83477 
L 252.61578 264.784329 
L 252.935437 264.538767 
L 253.574753 264.866956 
L 253.894411 264.607888 
L 254.533726 264.880916 
L 254.853384 264.577344 
L 255.173042 264.519366 
L 255.492699 264.823608 
L 256.132015 264.575413 
L 256.451672 264.834116 
L 256.77133 264.747533 
L 257.090988 264.460901 
L 257.730303 264.853925 
L 258.049961 264.590528 
L 258.369619 264.645986 
L 258.689277 264.877496 
L 259.008934 264.544307 
L 259.328592 264.461382 
L 259.64825 264.838699 
L 260.287565 264.572965 
L 260.607223 264.888402 
L 261.246539 264.424505 
L 261.566196 264.805065 
L 262.205512 264.575721 
L 262.525169 264.909493 
L 263.164485 264.472982 
L 263.484143 264.815242 
L 264.123458 264.630401 
L 264.443116 264.903489 
L 264.762774 264.604594 
L 265.082431 264.533107 
L 265.402089 264.840933 
L 265.721747 264.673212 
L 266.041405 264.66913 
L 266.361062 264.898637 
L 266.68072 264.606463 
L 267.000378 264.545121 
L 267.320036 264.84782 
L 267.639693 264.660705 
L 267.959351 264.636963 
L 268.279009 264.887881 
L 268.918324 264.502568 
L 269.237982 264.82905 
L 269.877297 264.59523 
L 270.196955 264.891709 
L 270.836271 264.474352 
L 271.155928 264.795107 
L 271.795244 264.576455 
L 272.114902 264.894392 
L 272.754217 264.498335 
L 273.073875 264.794221 
L 273.393532 264.770247 
L 273.71319 264.595764 
L 274.032848 264.871506 
L 274.672163 264.529158 
L 274.991821 264.763105 
L 275.311479 264.81711 
L 275.631137 264.585807 
L 275.950794 264.832925 
L 276.270452 264.799727 
L 276.59011 264.504685 
L 277.229425 264.863631 
L 277.549083 264.564061 
L 278.188399 264.870618 
L 278.508056 264.533635 
L 278.827714 264.555847 
L 279.147372 264.857744 
L 279.467029 264.643701 
L 279.786687 264.642219 
L 280.106345 264.889356 
L 280.426003 264.598069 
L 280.74566 264.503552 
L 281.065318 264.816737 
L 281.704634 264.605406 
L 282.024291 264.868021 
L 282.663607 264.499293 
L 282.983265 264.771837 
L 283.302922 264.754394 
L 283.62258 264.613207 
L 283.942238 264.853626 
L 284.581553 264.540892 
L 284.901211 264.748057 
L 285.220869 264.799992 
L 285.540526 264.627059 
L 285.860184 264.808207 
L 286.179842 264.806844 
L 286.4995 264.560685 
L 287.138815 264.855888 
L 287.458473 264.653347 
L 287.778131 264.696456 
L 288.097788 264.879044 
L 288.417446 264.640599 
L 288.737104 264.549517 
L 289.056762 264.846054 
L 289.696077 264.559383 
L 290.015735 264.857469 
L 290.335392 264.745697 
L 290.65505 264.428648 
L 291.294366 264.850533 
L 291.614023 264.478573 
L 291.933681 264.770376 
L 292.253339 264.82423 
L 292.572997 264.444264 
L 293.212312 264.868526 
L 293.53197 264.561751 
L 294.171285 264.85954 
L 294.490943 264.516204 
L 294.810601 264.601934 
L 295.130259 264.863737 
L 295.449916 264.583061 
L 296.089232 264.874925 
L 296.408889 264.534216 
L 296.728547 264.605512 
L 297.048205 264.868479 
L 297.367863 264.605801 
L 298.007178 264.874201 
L 298.326836 264.552987 
L 298.646494 264.56235 
L 298.966151 264.858462 
L 299.285809 264.608173 
L 299.605467 264.662283 
L 299.925125 264.894364 
L 300.244782 264.595917 
L 300.56444 264.543548 
L 300.884098 264.832628 
L 301.523413 264.63926 
L 301.843071 264.894678 
L 302.482386 264.563482 
L 302.802044 264.80177 
L 303.44136 264.639648 
L 303.761017 264.849944 
L 304.400333 264.569487 
L 305.039648 264.838123 
L 305.359306 264.638211 
L 305.998622 264.864734 
L 306.318279 264.61375 
L 306.637937 264.518524 
L 306.957595 264.839437 
L 307.59691 264.524113 
L 307.916568 264.859999 
L 308.236226 264.726843 
L 308.555883 264.392095 
L 308.875541 264.70665 
L 309.195199 264.81693 
L 309.514857 264.453447 
L 309.834514 264.82502 
L 310.154172 264.795328 
L 310.47383 264.414457 
L 310.793488 264.692282 
L 311.113145 264.816284 
L 311.432803 264.542279 
L 311.752461 264.84294 
L 312.072119 264.778694 
L 312.391776 264.489209 
L 312.711434 264.747528 
L 313.031092 264.793806 
L 313.350749 264.572768 
L 313.670407 264.839961 
L 313.990065 264.778586 
L 314.309723 264.540302 
L 314.62938 264.75708 
L 314.949038 264.836343 
L 315.268696 264.595973 
L 315.588354 264.822533 
L 315.908011 264.843596 
L 316.227669 264.575006 
L 316.866985 264.864876 
L 317.186642 264.636837 
L 317.5063 264.692079 
L 317.825958 264.882097 
L 318.465273 264.572041 
L 318.784931 264.775029 
L 319.104589 264.797397 
L 319.424246 264.582468 
L 320.063562 264.832126 
L 320.38322 264.562757 
L 320.702877 264.50434 
L 321.022535 264.859622 
L 321.661851 264.511076 
L 321.981508 264.867368 
L 322.620824 264.39425 
L 322.940482 264.766899 
L 323.260139 264.754981 
L 323.579797 264.485635 
L 323.899455 264.87111 
L 324.219112 264.75845 
L 324.53877 264.449534 
L 324.858428 264.752847 
L 325.178086 264.791041 
L 325.497743 264.590234 
L 325.817401 264.86947 
L 326.137059 264.786273 
L 326.456717 264.518245 
L 326.776374 264.749633 
L 327.096032 264.81136 
L 327.41569 264.579734 
L 327.735348 264.814632 
L 328.055005 264.832636 
L 328.374663 264.531767 
L 329.013979 264.855666 
L 329.333636 264.583626 
L 329.972952 264.869144 
L 330.292609 264.5753 
L 330.612267 264.573866 
L 330.931925 264.851746 
L 331.251583 264.65976 
L 331.57124 264.631966 
L 331.890898 264.862257 
L 332.530214 264.539818 
L 332.849871 264.739459 
L 333.169529 264.795766 
L 333.489187 264.5922 
L 333.808845 264.797413 
L 334.128502 264.822701 
L 334.44816 264.563957 
L 334.767818 264.534081 
L 335.087475 264.841728 
L 335.726791 264.506682 
L 336.046449 264.874988 
L 336.366106 264.706637 
L 336.685764 264.407005 
L 337.005422 264.754416 
L 337.32508 264.7672 
L 337.644737 264.517377 
L 337.964395 264.853287 
L 338.284053 264.731737 
L 338.603711 264.453089 
L 338.923368 264.735135 
L 339.243026 264.79398 
L 339.562684 264.520436 
L 339.882342 264.844148 
L 340.201999 264.774823 
L 340.521657 264.504575 
L 340.841315 264.725664 
L 341.160972 264.798061 
L 341.48063 264.539772 
L 341.800288 264.80608 
L 342.119946 264.805494 
L 342.439603 264.501309 
L 343.078919 264.840593 
L 343.398577 264.565495 
L 343.718234 264.65366 
L 344.037892 264.865527 
L 344.35755 264.545897 
L 344.677208 264.490242 
L 344.996865 264.815331 
L 345.636181 264.585141 
L 345.955838 264.852415 
L 346.595154 264.498382 
L 347.234469 264.800513 
L 347.554127 264.602941 
L 348.193443 264.831173 
L 348.5131 264.59339 
L 348.832758 264.560182 
L 349.152416 264.854284 
L 349.472074 264.6634 
L 349.791731 264.61546 
L 350.111389 264.873768 
L 350.750705 264.447448 
L 351.070362 264.7873 
L 351.39002 264.76569 
L 351.709678 264.519166 
L 352.029335 264.84514 
L 352.348993 264.778645 
L 352.668651 264.43586 
L 353.307966 264.83478 
L 353.627624 264.559359 
L 354.26694 264.851863 
L 354.586597 264.52674 
L 354.906255 264.629201 
L 355.225913 264.861151 
L 355.545571 264.61528 
L 356.184886 264.875145 
L 356.504544 264.620136 
L 356.824202 264.541606 
L 357.143859 264.774678 
L 357.463517 264.742359 
L 357.783175 264.57751 
L 358.102832 264.807837 
L 358.42249 264.765568 
L 358.742148 264.521461 
L 359.061806 264.599845 
L 359.381463 264.840439 
L 359.701121 264.605885 
L 360.020779 264.65626 
L 360.340437 264.85746 
L 360.660094 264.590181 
L 360.979752 264.475905 
L 361.29941 264.82046 
L 361.938725 264.542624 
L 362.258383 264.869764 
L 362.897698 264.420363 
L 363.217356 264.770026 
L 363.537014 264.759455 
L 363.856672 264.519675 
L 364.176329 264.852231 
L 364.495987 264.767164 
L 364.815645 264.447568 
L 365.135303 264.726362 
L 365.45496 264.806431 
L 365.774618 264.546927 
L 366.094276 264.787216 
L 366.413934 264.800135 
L 366.733591 264.457594 
L 367.372907 264.836027 
L 367.692565 264.521178 
L 368.012222 264.7697 
L 368.33188 264.840622 
L 368.651538 264.467033 
L 369.290853 264.84789 
L 369.610511 264.562538 
L 370.249826 264.864968 
L 370.569484 264.512916 
L 370.889142 264.606745 
L 371.2088 264.850199 
L 371.528457 264.594436 
L 372.167773 264.864477 
L 372.487431 264.566764 
L 372.807088 264.579947 
L 373.126746 264.843651 
L 373.446404 264.653585 
L 373.766062 264.665696 
L 374.085719 264.866663 
L 374.725035 264.564586 
L 375.044692 264.757334 
L 375.36435 264.772126 
L 375.684008 264.608372 
L 376.003666 264.800774 
L 376.323323 264.798592 
L 376.642981 264.544672 
L 376.962639 264.573463 
L 377.282297 264.853987 
L 377.921612 264.577397 
L 378.24127 264.865313 
L 378.880585 264.386091 
L 379.200243 264.755558 
L 379.519901 264.758926 
L 379.839558 264.47837 
L 380.159216 264.825981 
L 380.478874 264.754229 
L 380.798532 264.384032 
L 381.118189 264.681614 
L 381.437847 264.816003 
L 381.757505 264.506767 
L 382.077163 264.804062 
L 382.39682 264.813723 
L 382.716478 264.441608 
L 383.355794 264.825546 
L 383.675451 264.550771 
L 383.995109 264.762053 
L 384.314767 264.82397 
L 384.634425 264.486039 
L 385.27374 264.846255 
L 385.593398 264.533308 
L 385.913055 264.793475 
L 386.232713 264.841076 
L 386.552371 264.483936 
L 387.191686 264.837659 
L 387.511344 264.584326 
L 388.15066 264.85113 
L 388.470317 264.540916 
L 389.109633 264.861449 
L 389.429291 264.60539 
L 390.068606 264.874662 
L 390.388264 264.598821 
L 390.707921 264.59381 
L 391.027579 264.819357 
L 391.666895 264.649976 
L 391.986552 264.864962 
L 392.625868 264.562025 
L 393.265183 264.79788 
L 393.584841 264.626528 
L 394.224157 264.832654 
L 394.543814 264.594781 
L 394.863472 264.533003 
L 395.18313 264.840711 
L 395.822445 264.55033 
L 396.142103 264.858739 
L 396.461761 264.71822 
L 396.781418 264.39462 
L 397.101076 264.71661 
L 397.420734 264.810508 
L 397.740392 264.466904 
L 398.060049 264.775726 
L 398.379707 264.806556 
L 398.699365 264.387401 
L 399.33868 264.844712 
L 399.658338 264.466694 
L 399.977996 264.730204 
L 400.297654 264.843277 
L 400.617311 264.427204 
L 401.256627 264.813577 
L 401.576285 264.536559 
L 401.895942 264.800822 
L 402.2156 264.7939 
L 402.535258 264.425724 
L 402.854915 264.687148 
L 403.174573 264.799646 
L 403.494231 264.511764 
L 403.813889 264.823998 
L 404.133546 264.735629 
L 404.453204 264.447074 
L 404.772862 264.764419 
L 405.09252 264.748333 
L 405.412177 264.560855 
L 405.731835 264.878058 
L 406.371151 264.464925 
L 406.690808 264.794997 
L 407.330124 264.618003 
L 407.649781 264.874606 
L 408.289097 264.518866 
L 408.608755 264.826539 
L 409.24807 264.643398 
L 409.567728 264.883184 
L 410.207043 264.517463 
L 410.526701 264.83422 
L 410.846359 264.670929 
L 411.166017 264.640203 
L 411.485674 264.876763 
L 412.12499 264.491959 
L 412.444648 264.828019 
L 413.083963 264.619106 
L 413.403621 264.876784 
L 414.042936 264.475979 
L 414.362594 264.814 
L 415.001909 264.61987 
L 415.321567 264.871646 
L 415.960883 264.472895 
L 416.28054 264.802641 
L 416.600198 264.744502 
L 416.919856 264.56374 
L 417.239514 264.869083 
L 417.559171 264.741198 
L 417.878829 264.438384 
L 418.198487 264.756786 
L 418.518144 264.775492 
L 418.837802 264.549205 
L 419.15746 264.829 
L 419.477118 264.768007 
L 419.796775 264.425157 
L 420.116433 264.705765 
L 420.436091 264.810226 
L 420.755749 264.523657 
L 421.075406 264.815175 
L 421.395064 264.793303 
L 421.714722 264.447054 
L 422.354037 264.803208 
L 422.354037 264.803208 
" style="fill:none;stroke:#dd8452;stroke-linecap:square;stroke-width:2;"/>
   </g>
   <g id="patch_3">
    <path d="M 68.588821 277.574739 
L 68.588821 21.6 
" style="fill:none;stroke:#000000;stroke-linecap:square;stroke-linejoin:miter;stroke-width:0.8;"/>
   </g>
   <g id="patch_4">
    <path d="M 439.2 277.574739 
L 439.2 21.6 
" style="fill:none;stroke:#000000;stroke-linecap:square;stroke-linejoin:miter;stroke-width:0.8;"/>
   </g>
   <g id="patch_5">
    <path d="M 68.588821 277.574739 
L 439.2 277.574739 
" style="fill:none;stroke:#000000;stroke-linecap:square;stroke-linejoin:miter;stroke-width:0.8;"/>
   </g>
   <g id="patch_6">
    <path d="M 68.588821 21.6 
L 439.2 21.6 
" style="fill:none;stroke:#000000;stroke-linecap:square;stroke-linejoin:miter;stroke-width:0.8;"/>
   </g>
   <g id="legend_1">
    <g id="patch_7">
     <path d="M 244.747749 93.753759 
L 425.2 93.753759 
Q 429.2 93.753759 429.2 89.753759 
L 429.2 35.6 
Q 429.2 31.6 425.2 31.6 
L 244.747749 31.6 
Q 240.747749 31.6 240.747749 35.6 
L 240.747749 89.753759 
Q 240.747749 93.753759 244.747749 93.753759 
z
" style="fill:#ffffff;opacity:0.8;stroke:#cccccc;stroke-linejoin:miter;"/>
    </g>
    <g id="line2d_12">
     <path d="M 248.747749 46.6 
L 288.747749 46.6 
" style="fill:none;stroke:#4c72b0;stroke-linecap:square;stroke-width:2;"/>
    </g>
    <g id="line2d_13"/>
    <g id="text_12">
     <!-- Train loss -->
     <g transform="translate(304.747749 53.6)scale(0.2 -0.2)">
      <defs>
       <path d="M 62.203125 67.59375 
L 4.5 67.59375 
L 2.796875 45.59375 
L 4.59375 45.59375 
C 5.90625 62.125 7.296875 65 22.703125 65 
C 24.5 65 27.40625 65 28.203125 64.90625 
C 30.09375 64.609375 30.09375 63.40625 30.09375 61.125 
L 30.09375 7.171875 
C 30.09375 3.59375 29.796875 2.5 21.5 2.5 
L 18.703125 2.5 
L 18.703125 0 
C 23.5 0 28.5 0 33.40625 0 
C 38.296875 0 43.296875 0 48.09375 0 
L 48.09375 2.5 
L 45.296875 2.5 
C 37 2.5 36.703125 3.59375 36.703125 7.171875 
L 36.703125 61.125 
C 36.703125 63.3125 36.703125 64.515625 38.5 64.90625 
C 39.296875 65 42.203125 65 44 65 
C 59.296875 65 60.796875 62.125 62.09375 45.59375 
L 63.90625 45.59375 
z
" id="CMR17-84"/>
       <path d="M 15 23.390625 
C 15 33 19.09375 42 26.59375 42 
C 27.296875 42 28 41.90625 28.703125 41.59375 
C 28.703125 41.59375 26.5 40.890625 26.5 38.3125 
C 26.5 35.90625 28.40625 34.90625 29.90625 34.90625 
C 31.09375 34.90625 33.296875 35.609375 33.296875 38.40625 
C 33.296875 41.609375 30.09375 43.59375 26.703125 43.59375 
C 19.09375 43.59375 15.796875 36.203125 14.796875 32.703125 
L 14.703125 32.703125 
L 14.703125 43.59375 
L 3.09375 42.5 
L 3.09375 39.90625 
C 9 39.90625 9.90625 39.296875 9.90625 34.5 
L 9.90625 6.6875 
C 9.90625 2.875 9.5 2.390625 3.09375 2.390625 
L 3.09375 -0.203125 
C 5.5 0 10.09375 0 12.703125 0 
C 15.59375 0 20.703125 0 23.40625 -0.203125 
L 23.40625 2.390625 
C 16.203125 2.390625 15 2.390625 15 6.875 
z
" id="CMR17-114"/>
       <path d="M 36 25.828125 
C 36 32.375 36 35.84375 31.796875 39.734375 
C 28.09375 43 23.796875 44 20.40625 44 
C 12.5 44 6.796875 37.609375 6.796875 30.796875 
C 6.796875 27 9.796875 27 10.40625 27 
C 11.703125 27 14 27.78125 14 30.53125 
C 14 33 12.09375 34.078125 10.40625 34.078125 
C 10 34.078125 9.5 33.96875 9.203125 33.875 
C 11.296875 40.5 16.703125 42.40625 20.203125 42.40625 
C 25.203125 42.40625 30.703125 37.953125 30.703125 29.453125 
L 30.703125 25 
C 24.796875 25 17.703125 24.203125 12.09375 21.203125 
C 5.796875 17.703125 4 12.703125 4 8.90625 
C 4 1.203125 13 -1 18.296875 -1 
C 23.796875 -1 28.90625 2.171875 31.09375 7.984375 
C 31.296875 3.640625 34.09375 -0.28125 38.5 -0.28125 
C 40.59375 -0.28125 45.90625 1.09375 45.90625 8.859375 
L 45.90625 14.375 
L 44.09375 14.375 
L 44.09375 8.78125 
C 44.09375 2.78125 41.40625 2 40.09375 2 
C 36 2 36 7.15625 36 11.53125 
z
M 30.703125 13.59375 
C 30.703125 4.953125 24.5 0.59375 19 0.59375 
C 14 0.59375 10.09375 4.296875 10.09375 8.90625 
C 10.09375 11.890625 11.40625 17.1875 17.203125 20.390625 
C 22 23.09375 27.5 23.5 30.703125 23.5 
z
" id="CMR17-97"/>
       <path d="M 15.5 61.078125 
C 15.5 63.265625 13.703125 65.15625 11.40625 65.15625 
C 9.203125 65.15625 7.296875 63.375 7.296875 61.078125 
C 7.296875 58.890625 9.09375 57 11.40625 57 
C 13.59375 57 15.5 58.796875 15.5 61.078125 
z
M 3.796875 42.28125 
L 3.796875 39.703125 
C 9.40625 39.703125 10.203125 39.09375 10.203125 34.328125 
L 10.203125 6.671875 
C 10.203125 2.875 9.796875 2.390625 3.40625 2.390625 
L 3.40625 -0.203125 
C 5.796875 0 10.09375 0 12.59375 0 
C 15 0 19.09375 0 21.40625 -0.203125 
L 21.40625 2.390625 
C 15.5 2.390625 15.296875 2.984375 15.296875 6.5625 
L 15.296875 43.375 
z
" id="CMR17-105"/>
       <path d="M 41.5 30.203125 
C 41.5 35.296875 40.5 43.59375 28.703125 43.59375 
C 20.796875 43.59375 16.703125 37.5 15.203125 33.5 
L 15.09375 33.5 
L 15.09375 43.59375 
L 3.296875 42.5 
L 3.296875 39.90625 
C 9.203125 39.90625 10.09375 39.296875 10.09375 34.5 
L 10.09375 6.6875 
C 10.09375 2.875 9.703125 2.390625 3.296875 2.390625 
L 3.296875 -0.203125 
C 5.703125 0 10.09375 0 12.703125 0 
C 15.296875 0 19.796875 0 22.203125 -0.203125 
L 22.203125 2.390625 
C 15.796875 2.390625 15.40625 2.78125 15.40625 6.6875 
L 15.40625 25.90625 
C 15.40625 35.109375 21 42 28 42 
C 35.40625 42 36.203125 35.40625 36.203125 30.59375 
L 36.203125 6.6875 
C 36.203125 2.875 35.796875 2.390625 29.40625 2.390625 
L 29.40625 -0.203125 
C 31.796875 0 36.203125 0 38.796875 0 
C 41.40625 0 45.90625 0 48.296875 -0.203125 
L 48.296875 2.390625 
C 41.90625 2.390625 41.5 2.78125 41.5 6.6875 
z
" id="CMR17-110"/>
       <path d="M 15.296875 68.6875 
L 3.40625 67.59375 
L 3.40625 65 
C 9.296875 65 10.203125 64.40625 10.203125 59.640625 
L 10.203125 6.65625 
C 10.203125 2.875 9.796875 2.390625 3.40625 2.390625 
L 3.40625 -0.203125 
C 5.796875 0 10.203125 0 12.703125 0 
C 15.296875 0 19.703125 0 22.09375 -0.203125 
L 22.09375 2.390625 
C 15.703125 2.390625 15.296875 2.78125 15.296875 6.65625 
z
" id="CMR17-108"/>
      </defs>
      <use transform="scale(0.996264)" xlink:href="#CMR17-84"/>
      <use transform="translate(58.702625 0)scale(0.996264)" xlink:href="#CMR17-114"/>
      <use transform="translate(93.983393 0)scale(0.996264)" xlink:href="#CMR17-97"/>
      <use transform="translate(139.67387 0)scale(0.996264)" xlink:href="#CMR17-105"/>
      <use transform="translate(164.544929 0)scale(0.996264)" xlink:href="#CMR17-110"/>
      <use transform="translate(245.516265 0)scale(0.996264)" xlink:href="#CMR17-108"/>
      <use transform="translate(270.387323 0)scale(0.996264)" xlink:href="#CMR17-111"/>
      <use transform="translate(316.0778 0)scale(0.996264)" xlink:href="#CMR17-115"/>
      <use transform="translate(351.879138 0)scale(0.996264)" xlink:href="#CMR17-115"/>
     </g>
    </g>
    <g id="line2d_14">
     <path d="M 248.747749 74.878125 
L 288.747749 74.878125 
" style="fill:none;stroke:#dd8452;stroke-linecap:square;stroke-width:2;"/>
    </g>
    <g id="line2d_15"/>
    <g id="text_13">
     <!-- Validation loss -->
     <g transform="translate(304.747749 81.878125)scale(0.2 -0.2)">
      <defs>
       <path d="M 59 58.515625 
C 59.90625 60.71875 61.5 65 68.203125 65 
L 68.203125 67.6875 
C 65.90625 67.484375 63.296875 67.484375 60.796875 67.484375 
C 58.40625 67.484375 54.296875 67.484375 52 67.6875 
L 52 65 
C 57 65 57.203125 61.5 57.203125 60.90625 
C 57.203125 59.796875 56.90625 59.109375 56.59375 58.3125 
L 36.90625 6.96875 
L 16.296875 60.71875 
C 16 61.421875 15.796875 61.921875 15.796875 62.40625 
C 15.796875 65 19.796875 65 21.90625 65 
L 21.90625 67.484375 
C 18.703125 67.484375 14 67.484375 10.703125 67.484375 
C 8.09375 67.484375 3.40625 67.484375 1 67.6875 
L 1 65 
C 6.796875 65 7.90625 64.609375 9.09375 61.421875 
L 32.90625 -0.40625 
C 33.40625 -1.796875 33.5 -2 34.59375 -2 
C 35.703125 -2 35.796875 -1.796875 36.296875 -0.40625 
z
" id="CMR17-86"/>
       <path d="M 29.203125 67.59375 
L 29.203125 65 
C 35.09375 65 36 64.40625 36 59.6875 
L 36 36.640625 
C 35.59375 37.140625 31.5 43.59375 23.40625 43.59375 
C 13.203125 43.59375 3.296875 34.5 3.296875 21.3125 
C 3.296875 8.203125 12.59375 -1 22.40625 -1 
C 30.90625 -1 35.296875 5.265625 35.796875 5.9375 
L 35.796875 -0.984375 
L 47.90625 -0.984375 
L 47.90625 2 
C 42 2 41.09375 2.59375 41.09375 7.390625 
L 41.09375 68.6875 
z
M 35.796875 11.796875 
C 35.796875 8.796875 34 6.09375 31.703125 4.09375 
C 28.296875 1.09375 24.90625 0.59375 23 0.59375 
C 20.09375 0.59375 9.703125 2.09375 9.703125 21.1875 
C 9.703125 40.8125 21.296875 42 23.90625 42 
C 28.5 42 32.203125 39.40625 34.5 35.796875 
C 35.796875 33.703125 35.796875 33.40625 35.796875 31.609375 
z
" id="CMR17-100"/>
       <path d="M 15.09375 40 
L 29.09375 40 
L 29.09375 42.578125 
L 15.09375 42.578125 
L 15.09375 61 
L 13.296875 61 
C 13.09375 50.703125 9.59375 41.6875 1.09375 41.6875 
L 1.09375 40 
L 9.796875 40 
L 9.796875 12.046875 
C 9.796875 10.15625 9.796875 -1 21.40625 -1 
C 27.296875 -1 30.703125 4.78125 30.703125 12.140625 
L 30.703125 17.8125 
L 28.90625 17.8125 
L 28.90625 12.234375 
C 28.90625 5.375 26.203125 0.796875 22 0.796875 
C 19.09375 0.796875 15.09375 2.78125 15.09375 11.84375 
z
" id="CMR17-116"/>
      </defs>
      <use transform="scale(0.996264)" xlink:href="#CMR17-86"/>
      <use transform="translate(61.265174 0)scale(0.996264)" xlink:href="#CMR17-97"/>
      <use transform="translate(106.955652 0)scale(0.996264)" xlink:href="#CMR17-108"/>
      <use transform="translate(131.82671 0)scale(0.996264)" xlink:href="#CMR17-105"/>
      <use transform="translate(156.697768 0)scale(0.996264)" xlink:href="#CMR17-100"/>
      <use transform="translate(207.593138 0)scale(0.996264)" xlink:href="#CMR17-97"/>
      <use transform="translate(253.283615 0)scale(0.996264)" xlink:href="#CMR17-116"/>
      <use transform="translate(288.564383 0)scale(0.996264)" xlink:href="#CMR17-105"/>
      <use transform="translate(313.435442 0)scale(0.996264)" xlink:href="#CMR17-111"/>
      <use transform="translate(359.125919 0)scale(0.996264)" xlink:href="#CMR17-110"/>
      <use transform="translate(440.097255 0)scale(0.996264)" xlink:href="#CMR17-108"/>
      <use transform="translate(464.968313 0)scale(0.996264)" xlink:href="#CMR17-111"/>
      <use transform="translate(510.658791 0)scale(0.996264)" xlink:href="#CMR17-115"/>
      <use transform="translate(546.460128 0)scale(0.996264)" xlink:href="#CMR17-115"/>
     </g>
    </g>
   </g>
  </g>
 </g>
 <defs>
  <clipPath id="p219d0e1b18">
   <rect height="255.974739" width="370.611179" x="68.588821" y="21.6"/>
  </clipPath>
 </defs>
</svg>
