<?xml version="1.0" encoding="utf-8" standalone="no"?>
<!DOCTYPE svg PUBLIC "-//W3C//DTD SVG 1.1//EN"
  "http://www.w3.org/Graphics/SVG/1.1/DTD/svg11.dtd">
<!-- Created with matplotlib (https://matplotlib.org/) -->
<svg height="345.6pt" version="1.1" viewBox="0 0 460.8 345.6" width="460.8pt" xmlns="http://www.w3.org/2000/svg" xmlns:xlink="http://www.w3.org/1999/xlink">
 <metadata>
  <rdf:RDF xmlns:cc="http://creativecommons.org/ns#" xmlns:dc="http://purl.org/dc/elements/1.1/" xmlns:rdf="http://www.w3.org/1999/02/22-rdf-syntax-ns#">
   <cc:Work>
    <dc:type rdf:resource="http://purl.org/dc/dcmitype/StillImage"/>
    <dc:date>2022-10-22T18:03:01.406676</dc:date>
    <dc:format>image/svg+xml</dc:format>
    <dc:creator>
     <cc:Agent>
      <dc:title>Matplotlib v3.3.4, https://matplotlib.org/</dc:title>
     </cc:Agent>
    </dc:creator>
   </cc:Work>
  </rdf:RDF>
 </metadata>
 <defs>
  <style type="text/css">*{stroke-linecap:butt;stroke-linejoin:round;}</style>
 </defs>
 <g id="figure_1">
  <g id="patch_1">
   <path d="M 0 345.6 
L 460.8 345.6 
L 460.8 0 
L 0 0 
z
" style="fill:#ffffff;"/>
  </g>
  <g id="axes_1">
   <g id="patch_2">
    <path d="M 68.588821 277.574739 
L 439.2 277.574739 
L 439.2 28.164709 
L 68.588821 28.164709 
z
" style="fill:#ffffff;"/>
   </g>
   <g id="matplotlib.axis_1">
    <g id="xtick_1">
     <g id="line2d_1">
      <defs>
       <path d="M 0 0 
L 0 3.5 
" id="m42d7a3131c" style="stroke:#000000;stroke-width:0.8;"/>
      </defs>
      <g>
       <use style="stroke:#000000;stroke-width:0.8;" x="85.434784" xlink:href="#m42d7a3131c" y="277.574739"/>
      </g>
     </g>
     <g id="text_1">
      <!-- $\mathdefault{0}$ -->
      <g transform="translate(80.865736 298.411736)scale(0.2 -0.2)">
       <defs>
        <path d="M 42 31.640625 
C 42 37.75 41.90625 48.125 37.703125 56.109375 
C 34 63.109375 28.09375 65.59375 22.90625 65.59375 
C 18.09375 65.59375 12 63.40625 8.203125 56.203125 
C 4.203125 48.71875 3.796875 39.4375 3.796875 31.640625 
C 3.796875 25.953125 3.90625 17.28125 7 9.671875 
C 11.296875 -0.609375 19 -2 22.90625 -2 
C 27.5 -2 34.5 -0.109375 38.59375 9.375 
C 41.59375 16.28125 42 24.359375 42 31.640625 
z
M 22.90625 -0.40625 
C 16.5 -0.40625 12.703125 5.078125 11.296875 12.6875 
C 10.203125 18.5625 10.203125 27.15625 10.203125 32.75 
C 10.203125 40.4375 10.203125 46.828125 11.5 52.921875 
C 13.40625 61.390625 19 64 22.90625 64 
C 27 64 32.296875 61.296875 34.203125 53.125 
C 35.5 47.4375 35.59375 40.734375 35.59375 32.75 
C 35.59375 26.25 35.59375 18.265625 34.40625 12.375 
C 32.296875 1.484375 26.40625 -0.40625 22.90625 -0.40625 
z
" id="CMR17-48"/>
       </defs>
       <use transform="scale(0.996264)" xlink:href="#CMR17-48"/>
      </g>
     </g>
    </g>
    <g id="xtick_2">
     <g id="line2d_2">
      <g>
       <use style="stroke:#000000;stroke-width:0.8;" x="149.245249" xlink:href="#m42d7a3131c" y="277.574739"/>
      </g>
     </g>
     <g id="text_2">
      <!-- $\mathdefault{250}$ -->
      <g transform="translate(135.538105 298.411736)scale(0.2 -0.2)">
       <defs>
        <path d="M 41.703125 15.453125 
L 39.90625 15.453125 
C 38.90625 8.375 38.09375 7.171875 37.703125 6.5625 
C 37.203125 5.765625 30 5.765625 28.59375 5.765625 
L 9.40625 5.765625 
C 13 9.671875 20 16.75 28.5 24.953125 
C 34.59375 30.734375 41.703125 37.53125 41.703125 47.421875 
C 41.703125 59.21875 32.296875 66 21.796875 66 
C 10.796875 66 4.09375 56.3125 4.09375 47.34375 
C 4.09375 43.4375 7 42.9375 8.203125 42.9375 
C 9.203125 42.9375 12.203125 43.546875 12.203125 47.03125 
C 12.203125 50.109375 9.59375 51 8.203125 51 
C 7.59375 51 7 50.90625 6.59375 50.703125 
C 8.5 59.21875 14.296875 63.40625 20.40625 63.40625 
C 29.09375 63.40625 34.796875 56.515625 34.796875 47.421875 
C 34.796875 38.734375 29.703125 31.25 24 24.75 
L 4.09375 2.28125 
L 4.09375 0 
L 39.296875 0 
z
" id="CMR17-50"/>
        <path d="M 11.40625 57.6875 
C 12.40625 57.28125 16.5 56 20.703125 56 
C 30 56 35.09375 61.109375 38 64.0625 
C 38 64.953125 38 65.5 37.40625 65.5 
C 37.296875 65.5 37.09375 65.5 36.296875 65.046875 
C 32.796875 63.40625 28.703125 62.078125 23.703125 62.078125 
C 20.703125 62.078125 16.203125 62.484375 11.296875 64.671875 
C 10.203125 65.171875 10 65.171875 9.90625 65.171875 
C 9.40625 65.171875 9.296875 65.0625 9.296875 63.078125 
L 9.296875 34.421875 
C 9.296875 32.640625 9.296875 32.140625 10.296875 32.140625 
C 10.796875 32.140625 11 32.34375 11.5 33.03125 
C 14.703125 37.515625 19.09375 39.40625 24.09375 39.40625 
C 27.59375 39.40625 35.09375 37.21875 35.09375 20.140625 
C 35.09375 16.953125 35.09375 11.171875 32.09375 6.578125 
C 29.59375 2.484375 25.703125 0.390625 21.40625 0.390625 
C 14.796875 0.390625 8.09375 5 6.296875 12.71875 
C 6.703125 12.609375 7.5 12.421875 7.90625 12.421875 
C 9.203125 12.421875 11.703125 13.125 11.703125 16.21875 
C 11.703125 18.90625 9.796875 20 7.90625 20 
C 5.59375 20 4.09375 18.59375 4.09375 15.796875 
C 4.09375 7.09375 11 -2 21.59375 -2 
C 31.90625 -2 41.703125 6.875 41.703125 19.75 
C 41.703125 31.71875 33.90625 41 24.203125 41 
C 19.09375 41 14.796875 39.109375 11.40625 35.53125 
z
" id="CMR17-53"/>
       </defs>
       <use transform="scale(0.996264)" xlink:href="#CMR17-50"/>
       <use transform="translate(45.690477 0)scale(0.996264)" xlink:href="#CMR17-53"/>
       <use transform="translate(91.380954 0)scale(0.996264)" xlink:href="#CMR17-48"/>
      </g>
     </g>
    </g>
    <g id="xtick_3">
     <g id="line2d_3">
      <g>
       <use style="stroke:#000000;stroke-width:0.8;" x="213.055713" xlink:href="#m42d7a3131c" y="277.574739"/>
      </g>
     </g>
     <g id="text_3">
      <!-- $\mathdefault{500}$ -->
      <g transform="translate(199.34857 298.411736)scale(0.2 -0.2)">
       <use transform="scale(0.996264)" xlink:href="#CMR17-53"/>
       <use transform="translate(45.690477 0)scale(0.996264)" xlink:href="#CMR17-48"/>
       <use transform="translate(91.380954 0)scale(0.996264)" xlink:href="#CMR17-48"/>
      </g>
     </g>
    </g>
    <g id="xtick_4">
     <g id="line2d_4">
      <g>
       <use style="stroke:#000000;stroke-width:0.8;" x="276.866178" xlink:href="#m42d7a3131c" y="277.574739"/>
      </g>
     </g>
     <g id="text_4">
      <!-- $\mathdefault{750}$ -->
      <g transform="translate(263.159035 298.411736)scale(0.2 -0.2)">
       <defs>
        <path d="M 45.09375 61.578125 
L 45.09375 63.765625 
L 21.59375 63.765625 
C 9.90625 63.765625 9.703125 65.078125 9.296875 67 
L 7.5 67 
L 4.59375 48.34375 
L 6.40625 48.34375 
C 6.703125 50.234375 7.40625 55.3125 8.59375 57.203125 
C 9.203125 58 16.59375 58 18.296875 58 
L 40.296875 58 
L 29.203125 41.578125 
C 21.796875 30.53125 16.703125 15.609375 16.703125 2.578125 
C 16.703125 1.390625 16.703125 -2 20.296875 -2 
C 23.90625 -2 23.90625 1.390625 23.90625 2.671875 
L 23.90625 7.265625 
C 23.90625 23.5625 26.703125 34.3125 31.296875 41.1875 
z
" id="CMR17-55"/>
       </defs>
       <use transform="scale(0.996264)" xlink:href="#CMR17-55"/>
       <use transform="translate(45.690477 0)scale(0.996264)" xlink:href="#CMR17-53"/>
       <use transform="translate(91.380954 0)scale(0.996264)" xlink:href="#CMR17-48"/>
      </g>
     </g>
    </g>
    <g id="xtick_5">
     <g id="line2d_5">
      <g>
       <use style="stroke:#000000;stroke-width:0.8;" x="340.676643" xlink:href="#m42d7a3131c" y="277.574739"/>
      </g>
     </g>
     <g id="text_5">
      <!-- $\mathdefault{1000}$ -->
      <g transform="translate(322.400452 298.411736)scale(0.2 -0.2)">
       <defs>
        <path d="M 26.59375 63.40625 
C 26.59375 65.5 26.5 65.5 25.09375 65.5 
C 21.203125 61.1875 15.296875 59.796875 9.703125 59.796875 
C 9.40625 59.796875 8.90625 59.796875 8.796875 59.5 
C 8.703125 59.296875 8.703125 59.09375 8.703125 57 
C 11.796875 57 17 57.59375 21 59.984375 
L 21 7.203125 
C 21 3.6875 20.796875 2.5 12.203125 2.5 
L 9.203125 2.5 
L 9.203125 0 
C 14 0 19 0 23.796875 0 
C 28.59375 0 33.59375 0 38.40625 0 
L 38.40625 2.5 
L 35.40625 2.5 
C 26.796875 2.5 26.59375 3.59375 26.59375 7.15625 
z
" id="CMR17-49"/>
       </defs>
       <use transform="scale(0.996264)" xlink:href="#CMR17-49"/>
       <use transform="translate(45.690477 0)scale(0.996264)" xlink:href="#CMR17-48"/>
       <use transform="translate(91.380954 0)scale(0.996264)" xlink:href="#CMR17-48"/>
       <use transform="translate(137.071431 0)scale(0.996264)" xlink:href="#CMR17-48"/>
      </g>
     </g>
    </g>
    <g id="xtick_6">
     <g id="line2d_6">
      <g>
       <use style="stroke:#000000;stroke-width:0.8;" x="404.487107" xlink:href="#m42d7a3131c" y="277.574739"/>
      </g>
     </g>
     <g id="text_6">
      <!-- $\mathdefault{1250}$ -->
      <g transform="translate(386.210916 298.411736)scale(0.2 -0.2)">
       <use transform="scale(0.996264)" xlink:href="#CMR17-49"/>
       <use transform="translate(45.690477 0)scale(0.996264)" xlink:href="#CMR17-50"/>
       <use transform="translate(91.380954 0)scale(0.996264)" xlink:href="#CMR17-53"/>
       <use transform="translate(137.071431 0)scale(0.996264)" xlink:href="#CMR17-48"/>
      </g>
     </g>
    </g>
    <g id="text_7">
     <!-- Epoch -->
     <g transform="translate(228.578875 320.124366)scale(0.2 -0.2)">
      <defs>
       <path d="M 60.703125 25.234375 
L 58.90625 25.234375 
C 56.703125 10.5625 55.40625 2.59375 37.796875 2.59375 
L 23.90625 2.59375 
C 19.90625 2.59375 19.703125 3.078125 19.703125 6.46875 
L 19.703125 34 
L 29.09375 34 
C 38.5 34 39.40625 30.625 39.40625 22.34375 
L 41.203125 22.34375 
L 41.203125 48.140625 
L 39.40625 48.140625 
C 39.40625 39.953125 38.5 36.59375 29.09375 36.59375 
L 19.703125 36.59375 
L 19.703125 61.140625 
C 19.703125 64.5 19.90625 65 23.90625 65 
L 37.59375 65 
C 53.09375 65 54.90625 58.890625 56.296875 45.765625 
L 58.09375 45.765625 
L 55.703125 67.578125 
L 5.09375 67.578125 
L 5.09375 65 
C 12 65 13.09375 65 13.09375 60.53125 
L 13.09375 7.046875 
C 13.09375 2.59375 12 2.59375 5.09375 2.59375 
L 5.09375 0 
L 57.09375 0 
z
" id="CMR17-69"/>
       <path d="M 22 -16.609375 
C 15.59375 -16.609375 15.203125 -16.203125 15.203125 -12.328125 
L 15.203125 6.28125 
C 18.09375 2.09375 22.296875 -0.59375 27.59375 -0.59375 
C 37.59375 -0.59375 47.703125 8.171875 47.703125 21.6875 
C 47.703125 34.234375 39 43.78125 28.703125 43.78125 
C 22.703125 43.78125 17.796875 40.5 15 36.53125 
L 15 43.78125 
L 3.09375 42.6875 
L 3.09375 40.109375 
C 9 40.109375 9.90625 39.5 9.90625 34.734375 
L 9.90625 -12.328125 
C 9.90625 -16.109375 9.5 -16.609375 3.09375 -16.609375 
L 3.09375 -19.1875 
C 5.5 -19 9.90625 -19 12.5 -19 
C 15.09375 -19 19.59375 -19 22 -19.1875 
z
M 15.203125 31.4375 
C 15.203125 32.84375 15.203125 34.921875 19.09375 38.609375 
C 19.59375 39.015625 23 42 28 42 
C 35.296875 42 41.296875 32.9375 41.296875 21.59375 
C 41.296875 10.25 34.90625 1 27 1 
C 23.40625 1 19.5 2.6875 16.5 7.375 
C 15.203125 9.5625 15.203125 10.15625 15.203125 11.75 
z
" id="CMR17-112"/>
       <path d="M 43.09375 21.1875 
C 43.09375 34 33.796875 44 22.90625 44 
C 12 44 2.703125 34 2.703125 21.1875 
C 2.703125 8.609375 12 -1 22.90625 -1 
C 33.796875 -1 43.09375 8.609375 43.09375 21.1875 
z
M 22.90625 0.796875 
C 18.203125 0.796875 14.203125 3.59375 11.90625 7.5 
C 9.40625 11.984375 9.09375 17.59375 9.09375 22 
C 9.09375 26.203125 9.296875 31.40625 11.90625 35.90625 
C 13.90625 39.203125 17.796875 42.40625 22.90625 42.40625 
C 27.40625 42.40625 31.203125 39.90625 33.59375 36.40625 
C 36.703125 31.703125 36.703125 25.109375 36.703125 22 
C 36.703125 18.09375 36.5 12.109375 33.796875 7.296875 
C 31 2.703125 26.703125 0.796875 22.90625 0.796875 
z
" id="CMR17-111"/>
       <path d="M 34.90625 35 
C 33 35 30.203125 35 30.203125 31.515625 
C 30.203125 28.71875 32.5 27.921875 33.796875 27.921875 
C 34.5 27.921875 37.40625 28.234375 37.40625 31.625 
C 37.40625 38.546875 30.59375 43.796875 22.90625 43.796875 
C 12.296875 43.796875 3.296875 34.03125 3.296875 21.296875 
C 3.296875 8.0625 12.703125 -1 22.90625 -1 
C 35.296875 -1 38.40625 10.578125 38.40625 11.6875 
C 38.40625 12.09375 38.296875 12.390625 37.59375 12.390625 
C 36.90625 12.390625 36.796875 12.296875 36.40625 10.984375 
C 33.796875 2.8125 28.09375 0.796875 23.796875 0.796875 
C 17.40625 0.796875 9.703125 6.671875 9.703125 21.390625 
C 9.703125 36.53125 17.09375 42 23 42 
C 26.90625 42 32.703125 40.203125 34.90625 35 
z
" id="CMR17-99"/>
       <path d="M 41.5 30.203125 
C 41.5 35.296875 40.5 43.59375 28.703125 43.59375 
C 20.5 43.59375 16.5 37 15.296875 33.703125 
L 15.203125 33.703125 
L 15.203125 68.6875 
L 3.296875 67.59375 
L 3.296875 65 
C 9.203125 65 10.09375 64.40625 10.09375 59.640625 
L 10.09375 6.65625 
C 10.09375 2.875 9.703125 2.390625 3.296875 2.390625 
L 3.296875 -0.203125 
C 5.703125 0 10.09375 0 12.703125 0 
C 15.296875 0 19.796875 0 22.203125 -0.203125 
L 22.203125 2.390625 
C 15.796875 2.390625 15.40625 2.78125 15.40625 6.6875 
L 15.40625 25.90625 
C 15.40625 35.109375 21 42 28 42 
C 35.40625 42 36.203125 35.40625 36.203125 30.59375 
L 36.203125 6.6875 
C 36.203125 2.875 35.796875 2.390625 29.40625 2.390625 
L 29.40625 -0.203125 
C 31.796875 0 36.203125 0 38.796875 0 
C 41.40625 0 45.90625 0 48.296875 -0.203125 
L 48.296875 2.390625 
C 41.90625 2.390625 41.5 2.78125 41.5 6.6875 
z
" id="CMR17-104"/>
      </defs>
      <use transform="scale(0.996264)" xlink:href="#CMR17-69"/>
      <use transform="translate(62.586301 0)scale(0.996264)" xlink:href="#CMR17-112"/>
      <use transform="translate(116.084109 0)scale(0.996264)" xlink:href="#CMR17-111"/>
      <use transform="translate(164.377025 0)scale(0.996264)" xlink:href="#CMR17-99"/>
      <use transform="translate(202.260231 0)scale(0.996264)" xlink:href="#CMR17-104"/>
     </g>
    </g>
   </g>
   <g id="matplotlib.axis_2">
    <g id="ytick_1">
     <g id="line2d_7">
      <defs>
       <path d="M 0 0 
L -3.5 0 
" id="md192741cc4" style="stroke:#000000;stroke-width:0.8;"/>
      </defs>
      <g>
       <use style="stroke:#000000;stroke-width:0.8;" x="68.588821" xlink:href="#md192741cc4" y="268.046747"/>
      </g>
     </g>
     <g id="text_8">
      <!-- $\mathdefault{0}$ -->
      <g transform="translate(52.450726 274.965245)scale(0.2 -0.2)">
       <use transform="scale(0.996264)" xlink:href="#CMR17-48"/>
      </g>
     </g>
    </g>
    <g id="ytick_2">
     <g id="line2d_8">
      <g>
       <use style="stroke:#000000;stroke-width:0.8;" x="68.588821" xlink:href="#md192741cc4" y="188.196596"/>
      </g>
     </g>
     <g id="text_9">
      <!-- $\mathdefault{5}$ -->
      <g transform="translate(52.450726 195.115094)scale(0.2 -0.2)">
       <use transform="scale(0.996264)" xlink:href="#CMR17-53"/>
      </g>
     </g>
    </g>
    <g id="ytick_3">
     <g id="line2d_9">
      <g>
       <use style="stroke:#000000;stroke-width:0.8;" x="68.588821" xlink:href="#md192741cc4" y="108.346445"/>
      </g>
     </g>
     <g id="text_10">
      <!-- $\mathdefault{10}$ -->
      <g transform="translate(43.31263 115.264943)scale(0.2 -0.2)">
       <use transform="scale(0.996264)" xlink:href="#CMR17-49"/>
       <use transform="translate(45.690477 0)scale(0.996264)" xlink:href="#CMR17-48"/>
      </g>
     </g>
    </g>
    <g id="ytick_4">
     <g id="line2d_10">
      <g>
       <use style="stroke:#000000;stroke-width:0.8;" x="68.588821" xlink:href="#md192741cc4" y="28.496294"/>
      </g>
     </g>
     <g id="text_11">
      <!-- $\mathdefault{15}$ -->
      <g transform="translate(43.31263 35.414792)scale(0.2 -0.2)">
       <use transform="scale(0.996264)" xlink:href="#CMR17-49"/>
       <use transform="translate(45.690477 0)scale(0.996264)" xlink:href="#CMR17-53"/>
      </g>
     </g>
    </g>
    <g id="text_12">
     <!-- MSE Loss -->
     <g transform="translate(35.436997 193.16163)rotate(-90)scale(0.2 -0.2)">
      <defs>
       <path d="M 20.90625 66 
C 20.296875 67.5 20.203125 67.5 18.09375 67.5 
L 5.296875 67.5 
L 5.296875 65 
C 12.203125 65 13.296875 65 13.296875 60.546875 
L 13.296875 9.53125 
C 13.296875 7.046875 13.296875 2.390625 5.296875 2.390625 
L 5.296875 -0.203125 
C 7.59375 0 11.796875 0 14.296875 0 
C 16.796875 0 21 0 23.296875 -0.203125 
L 23.296875 2.390625 
C 15.296875 2.390625 15.296875 7.046875 15.296875 9.53125 
L 15.296875 64.609375 
L 15.40625 64.609375 
L 38.90625 1.390625 
C 39.296875 0.390625 39.5 -0.203125 40.296875 -0.203125 
C 41.09375 -0.203125 41.296875 0.390625 41.703125 1.390625 
L 65.40625 65.09375 
L 65.5 65.09375 
L 65.5 6.84375 
C 65.5 2.390625 64.40625 2.390625 57.5 2.390625 
L 57.5 -0.203125 
C 60.203125 0 65.59375 0 68.5 0 
C 71.40625 0 76.90625 0 79.59375 -0.203125 
L 79.59375 2.390625 
C 72.703125 2.390625 71.59375 2.390625 71.59375 6.84375 
L 71.59375 60.546875 
C 71.59375 65 72.703125 65 79.59375 65 
L 79.59375 67.5 
L 66.90625 67.5 
C 64.796875 67.5 64.703125 67.40625 64.09375 65.90625 
L 42.5 7.84375 
z
" id="CMR17-77"/>
       <path d="M 43.796875 67.03125 
C 43.796875 68.8125 43.703125 68.921875 43.09375 68.921875 
C 42.5 68.921875 42.296875 68.515625 41.90625 67.625 
L 38.90625 61.046875 
C 35.09375 66.515625 29.296875 69 23 69 
C 12.796875 69 4.59375 60.953125 4.59375 50.828125 
C 4.59375 47.75 5.296875 43.375 8.703125 39.21875 
C 12.40625 34.65625 15.90625 33.859375 23.90625 31.765625 
C 26.90625 30.96875 31.90625 29.671875 32.90625 29.28125 
C 38.59375 26.90625 41.59375 20.953125 41.59375 15.390625 
C 41.59375 8.234375 36.5 0.59375 27.796875 0.59375 
C 17.09375 0.59375 7.09375 6.546875 6.40625 20.484375 
C 6.296875 22.078125 6.203125 22.171875 5.5 22.171875 
C 4.703125 22.171875 4.59375 22.078125 4.59375 20.078125 
L 4.59375 -0.015625 
C 4.59375 -1.796875 4.703125 -1.90625 5.296875 -1.90625 
C 6 -1.90625 6.203125 -1.40625 7.59375 1.6875 
C 7.703125 1.984375 7.703125 2.1875 9.59375 5.953125 
C 14.59375 -0.609375 23 -2 27.796875 -2 
C 38.703125 -2 46.40625 7.046875 46.40625 17.5625 
C 46.40625 22.71875 44.5 26.6875 43.40625 28.484375 
C 39.203125 34.84375 34.703125 36.03125 29.90625 37.21875 
C 29.203125 37.53125 29 37.53125 23.40625 38.90625 
C 18 40.296875 15.703125 41 13.203125 43.6875 
C 10.40625 46.75 9.40625 49.9375 9.40625 53.109375 
C 9.40625 59.5625 14.59375 66.609375 23.09375 66.609375 
C 33.703125 66.609375 40.296875 59.15625 41.796875 46.765625 
C 42.09375 44.96875 42.203125 44.875 42.90625 44.875 
C 43.796875 44.875 43.796875 45.171875 43.796875 46.859375 
z
" id="CMR17-83"/>
       <path d="M 54.203125 25.234375 
L 52.40625 25.234375 
C 51.59375 15.359375 50.296875 2.59375 33.203125 2.59375 
L 23.90625 2.59375 
C 19.90625 2.59375 19.703125 3.078125 19.703125 6.46875 
L 19.703125 60.90625 
C 19.703125 64.515625 19.90625 65.5 27.5 65.5 
L 29.703125 65.5 
L 29.703125 68 
C 25.59375 68 20.796875 68 16.703125 68 
C 13.59375 68 8 68 5.09375 68 
L 5.09375 65.5 
C 12 65.5 13.09375 65.5 13.09375 61.015625 
L 13.09375 7.0625 
C 13.09375 2.59375 12 2.59375 5.09375 2.59375 
L 5.09375 0 
L 51.796875 0 
z
" id="CMR17-76"/>
       <path d="M 30.90625 42.140625 
C 30.90625 43.953125 30.796875 44.046875 30.203125 44.046875 
C 29.796875 44.046875 29.703125 43.953125 28.5 42.453125 
C 28.203125 42.046875 27.296875 41.03125 27 40.640625 
C 23.796875 44.046875 19.296875 44.046875 17.59375 44.046875 
C 6.5 44.046875 2.5 38.234375 2.5 32.4375 
C 2.5 23.40625 12.703125 21.328125 15.59375 20.703125 
C 21.90625 19.421875 24.09375 19.015625 26.203125 17.203125 
C 27.5 16.015625 29.703125 13.8125 29.703125 10.21875 
C 29.703125 6 27.296875 0.59375 18.09375 0.59375 
C 9.40625 0.59375 6.296875 7.1875 4.5 15.953125 
C 4.203125 17.34375 4.203125 17.453125 3.40625 17.453125 
C 2.59375 17.453125 2.5 17.34375 2.5 15.359375 
L 2.5 0.984375 
C 2.5 -0.796875 2.59375 -0.90625 3.203125 -0.90625 
C 3.703125 -0.90625 3.796875 -0.796875 4.296875 0 
C 4.90625 0.890625 6.40625 3.296875 7 4.3125 
C 9 1.609375 12.5 -1 18.09375 -1 
C 28 -1 33.296875 4.421875 33.296875 12.25 
C 33.296875 17.375 30.59375 20.078125 29.296875 21.28125 
C 26.296875 24.390625 22.796875 25.09375 18.59375 25.890625 
C 13.09375 27.109375 6.09375 28.515625 6.09375 34.640625 
C 6.09375 37.234375 7.5 42.765625 17.59375 42.765625 
C 28.296875 42.765625 28.90625 32.71875 29.09375 29.5 
C 29.203125 29 29.703125 28.890625 30 28.890625 
C 30.90625 28.890625 30.90625 29.203125 30.90625 30.90625 
z
" id="CMR17-115"/>
      </defs>
      <use transform="scale(0.996264)" xlink:href="#CMR17-77"/>
      <use transform="translate(84.686941 0)scale(0.996264)" xlink:href="#CMR17-83"/>
      <use transform="translate(135.58231 0)scale(0.996264)" xlink:href="#CMR17-69"/>
      <use transform="translate(228.244577 0)scale(0.996264)" xlink:href="#CMR17-76"/>
      <use transform="translate(285.625985 0)scale(0.996264)" xlink:href="#CMR17-111"/>
      <use transform="translate(331.316462 0)scale(0.996264)" xlink:href="#CMR17-115"/>
      <use transform="translate(367.1178 0)scale(0.996264)" xlink:href="#CMR17-115"/>
     </g>
    </g>
   </g>
   <g id="line2d_11">
    <path clip-path="url(#p57671104a0)" d="M 85.434784 39.501528 
L 85.690026 181.052324 
L 85.945268 219.889805 
L 86.200509 230.450416 
L 86.966235 245.657844 
L 87.221477 247.185803 
L 87.731961 251.254857 
L 87.987202 252.076786 
L 88.497686 254.218667 
L 89.00817 255.679241 
L 89.773895 257.318941 
L 90.539621 258.506903 
L 91.560588 259.664887 
L 92.836798 260.811903 
L 94.623491 261.921883 
L 95.8997 262.356074 
L 96.665426 262.418805 
L 97.175909 262.605621 
L 97.686393 262.297762 
L 98.196877 262.698228 
L 98.452119 262.698113 
L 98.707361 262.935024 
L 98.962602 262.988196 
L 99.217844 262.856172 
L 99.728328 263.101766 
L 99.98357 263.11513 
L 100.494054 263.401807 
L 101.004537 263.229658 
L 101.515021 263.392342 
L 102.025505 263.447618 
L 102.535988 263.687511 
L 103.046472 263.448666 
L 103.556956 263.546284 
L 104.06744 263.39934 
L 104.577923 263.712944 
L 104.833165 263.609078 
L 105.088407 263.326198 
L 106.109374 263.593369 
L 106.364616 263.832958 
L 106.619858 263.799599 
L 106.8751 263.59469 
L 107.385584 263.814452 
L 107.640826 263.815156 
L 108.151309 264.151537 
L 108.661793 263.978515 
L 109.172277 264.098426 
L 109.427519 264.100316 
L 110.193244 264.359242 
L 110.448486 264.195339 
L 111.724695 264.065702 
L 112.235179 264.344185 
L 113.000905 263.948478 
L 113.256146 264.072475 
L 113.76663 263.979542 
L 114.277114 264.362806 
L 114.532356 264.112655 
L 114.787598 264.040325 
L 115.042839 264.202959 
L 115.553323 264.175527 
L 116.063807 264.542309 
L 116.319049 264.345607 
L 116.574291 264.321288 
L 116.829533 264.42934 
L 117.340016 264.369248 
L 117.8505 264.689607 
L 118.360984 264.429754 
L 118.616226 264.514117 
L 119.381951 264.502829 
L 119.637193 264.693519 
L 119.892435 264.740556 
L 120.147677 264.516224 
L 120.402919 264.448143 
L 120.65816 264.553803 
L 121.168644 264.406788 
L 121.93437 264.77739 
L 122.189612 264.511182 
L 122.444853 264.450969 
L 122.700095 264.56961 
L 123.465821 264.558882 
L 123.721063 264.758474 
L 123.976305 264.729623 
L 124.231546 264.426808 
L 124.486788 264.452363 
L 124.74203 264.594498 
L 125.252514 264.467668 
L 125.762998 264.83248 
L 126.018239 264.570815 
L 126.273481 264.508866 
L 126.528723 264.656326 
L 127.039207 264.596755 
L 127.549691 264.928112 
L 128.060174 264.650385 
L 128.315416 264.774414 
L 128.8259 264.692756 
L 129.336384 265.02309 
L 129.846867 264.687687 
L 130.357351 264.834407 
L 130.612593 264.707445 
L 130.867835 264.777105 
L 131.123077 264.978634 
L 131.378318 265.022067 
L 131.63356 264.769289 
L 131.888802 264.728131 
L 132.144044 264.86875 
L 132.654528 264.766038 
L 133.165011 265.099421 
L 133.930737 264.812701 
L 134.185979 264.910069 
L 134.696463 264.778844 
L 135.206946 265.120208 
L 135.71743 264.650904 
L 136.227914 264.872121 
L 136.483156 264.749324 
L 136.738397 264.837097 
L 136.993639 265.054529 
L 137.248881 265.071886 
L 137.504123 264.744334 
L 139.035574 265.16927 
L 139.290816 264.898761 
L 139.546058 264.848704 
L 139.8013 265.003494 
L 140.311784 264.921435 
L 140.822267 265.220795 
L 141.332751 264.795458 
L 141.843235 265.005617 
L 142.098477 264.901696 
L 142.864202 265.135183 
L 143.119444 264.799674 
L 143.629928 265.042582 
L 143.88517 264.935885 
L 144.140411 265.00747 
L 144.395653 265.205573 
L 144.650895 265.216872 
L 144.906137 264.882225 
L 145.671863 264.976148 
L 145.927104 265.005995 
L 146.437588 265.270644 
L 146.69283 264.927431 
L 146.948072 264.931207 
L 147.203314 265.104846 
L 147.458556 265.00655 
L 147.713797 265.052264 
L 148.224281 265.267028 
L 148.479523 264.941233 
L 148.734765 264.959641 
L 148.990007 265.126113 
L 149.50049 265.052403 
L 150.010974 265.340621 
L 150.266216 264.959759 
L 151.797667 265.292167 
L 152.052909 264.998632 
L 152.308151 265.028363 
L 152.563393 265.171347 
L 152.818635 265.091155 
L 153.073876 265.14541 
L 153.329118 265.324837 
L 153.58436 265.351551 
L 153.839602 264.92575 
L 154.350086 265.171696 
L 154.605328 265.016672 
L 155.371053 265.19353 
L 155.626295 264.912885 
L 156.136779 265.13368 
L 156.392021 265.026885 
L 156.902504 265.323827 
L 157.157746 265.007366 
L 157.412988 264.884961 
L 157.66823 265.115814 
L 158.178714 265.06183 
L 158.433955 265.295858 
L 158.689197 265.26895 
L 158.944439 264.8811 
L 159.199681 265.132484 
L 159.965407 265.219998 
L 160.220648 265.341612 
L 160.47589 264.874104 
L 160.986374 265.158739 
L 161.241616 265.040055 
L 161.7521 265.363754 
L 162.007341 264.930363 
L 162.517825 265.195273 
L 162.773067 265.07245 
L 163.283551 265.427697 
L 163.538793 265.046245 
L 164.049276 265.293228 
L 164.304518 265.178034 
L 164.815002 265.494475 
L 165.070244 265.157035 
L 166.346453 265.590366 
L 166.601695 265.334808 
L 166.856937 265.286772 
L 167.112179 265.451964 
L 167.367421 265.369595 
L 167.622662 265.407228 
L 167.877904 265.580656 
L 168.133146 265.55774 
L 168.388388 265.316685 
L 169.919839 265.638476 
L 170.175081 265.315161 
L 170.940807 265.43279 
L 171.196048 265.426412 
L 171.706532 265.649574 
L 172.217016 265.225218 
L 172.472258 265.432907 
L 172.7275 265.43999 
L 172.982741 265.286193 
L 173.748467 265.500579 
L 174.003709 265.153914 
L 174.258951 265.136259 
L 174.514193 265.368714 
L 175.024676 265.176972 
L 175.53516 265.530987 
L 175.790402 265.05123 
L 176.300886 265.363277 
L 176.556127 265.24067 
L 176.811369 265.282524 
L 177.066611 265.525975 
L 177.321853 265.464406 
L 177.577095 265.057297 
L 177.832337 265.316859 
L 178.087579 265.366997 
L 178.34282 265.232361 
L 178.853304 265.573749 
L 179.108546 265.158897 
L 179.363788 265.207821 
L 179.61903 265.415796 
L 179.874272 265.288658 
L 180.129513 265.35298 
L 180.384755 265.583303 
L 180.895239 265.146794 
L 181.150481 265.403574 
L 181.660965 265.334583 
L 181.916206 265.562652 
L 182.171448 265.431006 
L 182.42669 265.121804 
L 182.681932 265.374884 
L 183.192416 265.285282 
L 183.447658 265.507074 
L 183.702899 265.48157 
L 183.958141 265.07672 
L 184.213383 265.323624 
L 184.468625 265.371322 
L 184.723867 265.273709 
L 184.979109 265.525569 
L 185.234351 265.497831 
L 185.489592 265.102471 
L 185.744834 265.389798 
L 186.255318 265.321673 
L 186.51056 265.552053 
L 186.765802 265.53465 
L 187.021044 265.176137 
L 187.276285 265.434764 
L 188.297253 265.549951 
L 188.552495 265.229662 
L 188.807737 265.460065 
L 189.31822 265.405481 
L 189.573462 265.637735 
L 189.828704 265.546081 
L 190.083946 265.237003 
L 190.339188 265.478054 
L 190.849672 265.407558 
L 191.104913 265.63865 
L 191.360155 265.541902 
L 191.615397 265.246318 
L 191.870639 265.470212 
L 192.381123 265.408001 
L 192.636365 265.645373 
L 192.891606 265.570765 
L 193.146848 265.290182 
L 193.40209 265.512585 
L 193.912574 265.438864 
L 194.167816 265.66135 
L 194.423058 265.61258 
L 194.678299 265.310932 
L 194.933541 265.489276 
L 195.188783 265.526314 
L 195.444025 265.449077 
L 195.699267 265.646829 
L 195.954509 265.679583 
L 196.209751 265.397587 
L 196.720234 265.578398 
L 196.975476 265.479517 
L 197.48596 265.765299 
L 197.741202 265.484657 
L 197.996444 265.413013 
L 198.251685 265.606643 
L 198.762169 265.522883 
L 199.017411 265.758062 
L 199.272653 265.654954 
L 199.527895 265.358036 
L 199.783137 265.587739 
L 200.038378 265.582559 
L 200.29362 265.432653 
L 200.804104 265.780384 
L 201.059346 265.360378 
L 201.56983 265.607361 
L 201.825071 265.434119 
L 202.335555 265.786551 
L 202.846039 265.338225 
L 203.101281 265.560143 
L 203.611764 265.447893 
L 203.867006 265.70114 
L 204.122248 265.621583 
L 204.37749 265.261726 
L 204.632732 265.504503 
L 205.143216 265.414274 
L 205.398457 265.655101 
L 205.653699 265.66072 
L 205.908941 265.267761 
L 206.164183 265.471953 
L 206.419425 265.529903 
L 206.674667 265.37866 
L 206.929909 265.638621 
L 207.18515 265.69235 
L 207.440392 265.261675 
L 207.695634 265.481286 
L 207.950876 265.521056 
L 208.206118 265.388738 
L 208.46136 265.647196 
L 208.716602 265.68097 
L 208.971843 265.277124 
L 209.227085 265.517658 
L 209.482327 265.550075 
L 209.737569 265.448512 
L 209.992811 265.709991 
L 210.248053 265.656621 
L 210.503295 265.284311 
L 210.758536 265.567848 
L 211.26902 265.464733 
L 211.524262 265.726279 
L 211.779504 265.618309 
L 212.034746 265.317866 
L 212.289988 265.590015 
L 212.800471 265.498689 
L 213.055713 265.767037 
L 213.566197 265.410718 
L 213.821439 265.646599 
L 214.076681 265.546944 
L 214.331923 265.607979 
L 214.587164 265.824274 
L 214.842406 265.551613 
L 215.097648 265.531052 
L 215.35289 265.69649 
L 215.608132 265.595826 
L 216.118616 265.886898 
L 216.373857 265.630041 
L 216.629099 265.596757 
L 216.884341 265.748877 
L 217.139583 265.652066 
L 217.394825 265.701761 
L 217.650067 265.911127 
L 218.16055 265.572621 
L 218.415792 265.761919 
L 218.926276 265.622101 
L 219.181518 265.852286 
L 219.43676 265.888053 
L 219.692002 265.51162 
L 220.202485 265.733948 
L 220.457727 265.562523 
L 220.968211 265.88606 
L 221.223453 265.575506 
L 221.478695 265.448676 
L 221.733936 265.633029 
L 222.24442 265.512621 
L 222.499662 265.769246 
L 222.754904 265.70182 
L 223.010146 265.320697 
L 223.265388 265.556989 
L 223.520629 265.561433 
L 223.775871 265.445129 
L 224.031113 265.714898 
L 224.286355 265.728989 
L 224.541597 265.304554 
L 224.796839 265.541595 
L 225.052081 265.569084 
L 225.307322 265.420321 
L 225.562564 265.708457 
L 225.817806 265.716837 
L 226.073048 265.338242 
L 226.32829 265.605462 
L 226.838774 265.501577 
L 227.094015 265.788219 
L 227.349257 265.687515 
L 227.604499 265.396654 
L 227.859741 265.642382 
L 228.370225 265.57331 
L 228.625467 265.840729 
L 229.13595 265.587136 
L 229.391192 265.784696 
L 229.646434 265.69467 
L 229.901676 265.738286 
L 230.156918 265.949281 
L 230.41216 265.724407 
L 230.667401 265.666244 
L 230.922643 265.816281 
L 231.177885 265.710594 
L 231.433127 265.737136 
L 231.688369 265.959289 
L 232.198853 265.64749 
L 232.454094 265.831788 
L 232.964578 265.720565 
L 233.21982 265.94892 
L 233.475062 265.878241 
L 233.730304 265.55593 
L 233.985546 265.734759 
L 234.240787 265.740907 
L 234.496029 265.559917 
L 235.006513 265.872031 
L 235.261755 265.415685 
L 235.772239 265.676345 
L 236.027481 265.466417 
L 236.537964 265.865113 
L 236.793206 265.364687 
L 237.30369 265.653372 
L 237.558932 265.451008 
L 238.069415 265.82363 
L 238.324657 265.417056 
L 238.579899 265.648196 
L 238.835141 265.69133 
L 239.090383 265.579318 
L 239.345625 265.843051 
L 239.600867 265.809396 
L 239.856108 265.576874 
L 240.11135 265.788931 
L 240.621834 265.71055 
L 240.877076 265.950295 
L 241.38756 265.671044 
L 241.642801 265.842892 
L 242.153285 265.758138 
L 242.408527 265.976399 
L 242.919011 265.668723 
L 243.174253 265.855826 
L 243.684736 265.730324 
L 243.939978 265.951205 
L 244.19522 265.875434 
L 244.450462 265.562549 
L 244.705704 265.770083 
L 244.960946 265.754741 
L 245.216187 265.615893 
L 245.471429 265.847041 
L 245.726671 265.888818 
L 245.981913 265.491254 
L 246.237155 265.707915 
L 246.492397 265.746226 
L 246.747639 265.561746 
L 247.258122 265.868234 
L 247.513364 265.427448 
L 247.768606 265.664558 
L 248.023848 265.704604 
L 248.27909 265.543387 
L 248.534332 265.791043 
L 248.789573 265.81467 
L 249.044815 265.425392 
L 249.300057 265.680837 
L 249.810541 265.562655 
L 250.065783 265.849656 
L 250.321025 265.746031 
L 250.576266 265.511142 
L 250.831508 265.781294 
L 251.341992 265.718676 
L 251.597234 265.939964 
L 251.852476 265.713792 
L 252.107718 265.701581 
L 252.362959 265.86231 
L 252.618201 265.73772 
L 253.128685 265.97675 
L 253.383927 265.688443 
L 253.894411 265.859496 
L 254.149652 265.714739 
L 254.660136 265.963267 
L 254.915378 265.630808 
L 255.425862 265.840939 
L 255.681104 265.678026 
L 256.191587 265.948392 
L 256.446829 265.515857 
L 256.957313 265.772373 
L 257.212555 265.577947 
L 257.723038 265.889034 
L 257.97828 265.446478 
L 258.233522 265.69442 
L 258.488764 265.727442 
L 258.744006 265.573864 
L 258.999248 265.816853 
L 259.25449 265.829966 
L 259.509731 265.524571 
L 259.764973 265.794379 
L 260.275457 265.738666 
L 260.530699 265.94038 
L 261.041183 265.693877 
L 261.296425 265.892088 
L 261.551666 265.790326 
L 261.806908 265.817869 
L 262.06215 266.00792 
L 262.572634 265.768513 
L 262.827876 265.931926 
L 263.083118 265.822392 
L 263.338359 265.862493 
L 263.593601 266.045413 
L 264.104085 265.727258 
L 264.359327 265.910694 
L 264.869811 265.770443 
L 265.125052 266.004986 
L 265.635536 265.560957 
L 265.890778 265.809147 
L 266.401262 265.627045 
L 266.656504 265.894407 
L 266.911745 265.780372 
L 267.166987 265.510235 
L 267.422229 265.755735 
L 267.932713 265.614691 
L 268.187955 265.918569 
L 268.698438 265.555566 
L 268.95368 265.794064 
L 269.208922 265.639457 
L 269.719406 265.966222 
L 269.974648 265.596503 
L 270.485131 265.830748 
L 270.740373 265.67192 
L 270.995615 265.894537 
L 271.250857 265.916235 
L 271.506099 265.645014 
L 271.761341 265.848443 
L 272.271824 265.743586 
L 272.527066 266.002606 
L 273.03755 265.678573 
L 273.292792 265.871073 
L 273.803276 265.796985 
L 274.058517 266.003219 
L 274.313759 265.785985 
L 274.569001 265.767005 
L 274.824243 265.922089 
L 275.079485 265.799126 
L 275.589969 266.031122 
L 275.84521 265.770487 
L 277.12142 266.014456 
L 277.376662 265.740125 
L 277.887145 265.902607 
L 278.142387 265.752029 
L 278.652871 266.028032 
L 278.908113 265.703895 
L 279.418596 265.894684 
L 279.673838 265.730886 
L 280.184322 266.011798 
L 280.439564 265.656975 
L 280.950048 265.868162 
L 281.205289 265.667651 
L 281.715773 265.984027 
L 281.971015 265.575288 
L 282.481499 265.795766 
L 282.736741 265.613364 
L 282.991982 265.856352 
L 283.247224 265.899131 
L 283.502466 265.529984 
L 283.757708 265.767966 
L 284.268192 265.647294 
L 284.523434 265.932966 
L 285.033917 265.630251 
L 285.289159 265.865385 
L 285.544401 265.735524 
L 286.054885 266.022411 
L 286.310127 265.767689 
L 286.82061 265.926816 
L 287.075852 265.762101 
L 287.586336 266.006094 
L 287.841578 265.727085 
L 288.352062 265.887178 
L 288.607303 265.765863 
L 288.862545 265.985013 
L 289.117787 265.963522 
L 289.373029 265.714254 
L 289.628271 265.884384 
L 290.138755 265.773213 
L 290.393996 266.015027 
L 290.90448 265.730599 
L 291.159722 265.914176 
L 291.670206 265.790914 
L 291.925448 266.030402 
L 292.435931 265.66272 
L 292.691173 265.89026 
L 292.946415 265.771262 
L 293.201657 265.777757 
L 293.456899 266.028861 
L 293.967382 265.708553 
L 294.222624 265.883175 
L 294.477866 265.728473 
L 294.733108 265.784759 
L 294.98835 266.009271 
L 295.243592 265.724025 
L 295.498834 265.697022 
L 295.754075 265.866296 
L 296.009317 265.700523 
L 296.519801 265.995291 
L 296.775043 265.678478 
L 297.285527 265.873009 
L 297.540768 265.719332 
L 297.79601 265.974261 
L 298.051252 265.928816 
L 298.306494 265.664705 
L 298.561736 265.870645 
L 299.07222 265.756969 
L 299.327461 266.026705 
L 299.837945 265.748122 
L 300.093187 265.931627 
L 300.348429 265.770324 
L 300.858913 266.068128 
L 301.114154 265.772553 
L 301.624638 265.933962 
L 301.87988 265.781643 
L 302.390364 266.023605 
L 302.645606 265.737394 
L 302.900847 265.876328 
L 303.156089 265.88175 
L 303.411331 265.769109 
L 303.666573 266.005202 
L 304.177057 265.752288 
L 304.432299 265.91023 
L 304.942782 265.784854 
L 305.198024 266.04267 
L 305.453266 265.811168 
L 305.708508 265.742783 
L 305.96375 265.916319 
L 306.218992 265.782037 
L 306.474233 265.862621 
L 306.729475 266.070904 
L 306.984717 265.734313 
L 307.495201 265.917727 
L 307.750443 265.725391 
L 308.260927 266.04494 
L 308.516168 265.674553 
L 308.77141 265.865607 
L 309.026652 265.881175 
L 309.281894 265.730047 
L 309.537136 266.005121 
L 309.792378 265.927585 
L 310.04762 265.733319 
L 310.302861 265.93578 
L 310.813345 265.829714 
L 311.068587 266.068248 
L 311.323829 265.783135 
L 312.344796 265.91128 
L 312.600038 266.081782 
L 312.85528 265.759709 
L 313.365764 265.953058 
L 313.621006 265.801101 
L 313.876247 266.027861 
L 314.131489 266.051411 
L 314.386731 265.78867 
L 314.641973 265.951676 
L 315.152457 265.798798 
L 315.407699 266.050592 
L 315.66294 265.953017 
L 315.918182 265.705516 
L 316.173424 265.903092 
L 316.683908 265.751207 
L 316.93915 266.025171 
L 317.449633 265.717981 
L 317.704875 265.922898 
L 317.960117 265.756282 
L 318.470601 266.062954 
L 318.725843 265.776878 
L 319.236326 265.943652 
L 319.491568 265.780562 
L 319.74681 265.997747 
L 320.002052 265.992863 
L 320.257294 265.755914 
L 320.512536 265.928898 
L 321.023019 265.798815 
L 321.278261 266.07426 
L 321.533503 265.78699 
L 321.788745 265.784769 
L 322.043987 265.959185 
L 322.299229 265.770603 
L 322.809712 266.081664 
L 323.064954 265.765628 
L 323.320196 265.931546 
L 323.575438 265.943197 
L 323.83068 265.799556 
L 324.085922 266.035568 
L 324.341164 265.970036 
L 324.596405 265.706719 
L 324.851647 265.937158 
L 325.362131 265.839206 
L 325.617373 266.093787 
L 325.872615 265.84768 
L 326.127857 265.852696 
L 326.383098 265.982949 
L 326.63834 265.826992 
L 327.148824 266.093818 
L 327.404066 265.824326 
L 327.659308 265.952821 
L 327.91455 265.953872 
L 328.169791 265.832797 
L 328.425033 266.058405 
L 328.935517 265.790331 
L 329.190759 265.954226 
L 329.701243 265.859895 
L 329.956484 266.107546 
L 330.211726 265.813324 
L 330.72221 265.97308 
L 330.977452 265.776747 
L 331.487936 266.088288 
L 331.743178 265.742853 
L 331.998419 265.926528 
L 332.253661 265.921981 
L 332.508903 265.772826 
L 332.764145 266.030968 
L 333.274629 265.758343 
L 333.529871 265.958582 
L 333.785112 265.861255 
L 334.040354 265.887804 
L 334.295596 266.115237 
L 334.550838 265.884695 
L 335.061322 266.00438 
L 335.316564 265.863628 
L 335.827047 266.075494 
L 336.082289 265.839764 
L 336.337531 265.951898 
L 336.848015 265.852825 
L 337.103257 266.080401 
L 337.61374 265.867798 
L 337.868982 266.02054 
L 338.124224 265.897329 
L 338.379466 265.903184 
L 338.634708 266.13169 
L 338.88995 265.804744 
L 339.400433 265.966269 
L 339.655675 265.776229 
L 340.166159 266.107548 
L 340.421401 265.739177 
L 340.676643 265.918652 
L 340.931884 265.912059 
L 341.187126 265.753437 
L 341.442368 266.010721 
L 341.69761 265.94401 
L 341.952852 265.742647 
L 342.208094 265.95519 
L 342.463336 265.822947 
L 342.718577 265.863483 
L 342.973819 266.096098 
L 343.229061 265.794922 
L 343.739545 265.96642 
L 343.994787 265.809744 
L 344.250029 266.044206 
L 344.760512 265.833797 
L 345.015754 266.006964 
L 345.270996 265.865857 
L 345.526238 265.879328 
L 345.78148 266.112851 
L 346.036722 265.775865 
L 346.547205 265.964695 
L 346.802447 265.777821 
L 347.057689 266.019081 
L 347.312931 266.021084 
L 347.568173 265.77824 
L 347.823415 265.99152 
L 348.078656 265.874169 
L 348.333898 265.888712 
L 348.58914 266.119602 
L 348.844382 265.859496 
L 349.354866 266.007701 
L 349.610108 265.846332 
L 350.120591 266.092571 
L 350.375833 265.822595 
L 350.631075 266.00115 
L 351.141559 265.867341 
L 351.396801 266.107417 
L 351.907284 265.843721 
L 352.162526 265.992569 
L 352.417768 265.837728 
L 352.928252 266.125415 
L 353.183494 265.773243 
L 353.438735 265.945931 
L 353.693977 265.933834 
L 353.949219 265.801226 
L 354.204461 266.03709 
L 354.459703 265.941481 
L 354.714945 265.709516 
L 354.970187 265.934777 
L 355.225428 265.800338 
L 355.735912 266.042541 
L 355.991154 265.826655 
L 356.501638 265.935589 
L 356.75688 265.814696 
L 357.012122 266.11128 
L 357.267363 265.913699 
L 357.522605 265.87332 
L 357.777847 266.022474 
L 358.033089 265.857386 
L 358.543573 266.115236 
L 358.798815 265.75539 
L 359.054056 265.957879 
L 359.56454 265.808093 
L 359.819782 266.059913 
L 360.330266 265.838049 
L 360.585508 266.023767 
L 360.840749 265.876374 
L 361.351233 266.11818 
L 361.606475 265.916055 
L 361.861717 266.035012 
L 362.372201 265.92249 
L 362.627442 266.166651 
L 363.137926 265.906644 
L 363.393168 266.055843 
L 363.64841 265.92942 
L 363.903652 265.974972 
L 364.158894 266.212335 
L 364.414135 265.915685 
L 364.924619 266.030437 
L 365.179861 265.876637 
L 365.690345 266.150585 
L 365.945587 265.709089 
L 366.200828 265.918138 
L 366.45607 265.952157 
L 366.711312 265.797248 
L 366.966554 266.007236 
L 367.221796 266.030183 
L 367.477038 265.747404 
L 367.73228 265.979175 
L 368.242763 265.886452 
L 368.498005 266.101401 
L 368.753247 265.865794 
L 369.008489 265.844346 
L 369.263731 265.976948 
L 369.518973 265.82385 
L 369.774214 266.030494 
L 371.050424 265.95775 
L 371.305666 266.189084 
L 371.560907 265.906337 
L 371.816149 265.910843 
L 372.071391 266.033361 
L 372.326633 265.84447 
L 372.837117 266.117465 
L 373.092359 265.707197 
L 373.3476 265.921295 
L 373.858084 265.788047 
L 374.113326 266.037235 
L 374.62381 265.803463 
L 374.879052 266.024236 
L 375.134293 265.8391 
L 375.389535 266.041826 
L 375.644777 266.089255 
L 375.900019 265.888328 
L 376.155261 266.019841 
L 376.665745 265.910433 
L 376.920986 266.151062 
L 377.176228 265.866265 
L 377.43147 265.887151 
L 377.686712 266.039962 
L 377.941954 265.862259 
L 378.452438 266.109224 
L 378.707679 265.792985 
L 378.962921 266.020828 
L 379.473405 265.894557 
L 379.728647 266.124486 
L 379.983889 265.940784 
L 380.239131 265.911115 
L 380.494373 266.075632 
L 380.749614 265.899295 
L 381.004856 266.085096 
L 381.260098 266.125774 
L 381.51534 265.96814 
L 381.770582 266.095557 
L 382.281066 265.991407 
L 382.536307 266.214317 
L 382.791549 265.923862 
L 383.812517 266.024623 
L 384.067759 266.162854 
L 384.323 265.758862 
L 384.578242 265.945016 
L 384.833484 265.946401 
L 385.088726 265.828109 
L 385.343968 266.025726 
L 385.59921 266.014204 
L 385.854452 265.742091 
L 386.109693 265.99151 
L 386.364935 265.856368 
L 386.875419 266.103534 
L 387.130661 265.817218 
L 387.641145 265.989039 
L 387.896386 265.872381 
L 388.151628 266.13036 
L 388.40687 265.920441 
L 388.662112 265.9147 
L 388.917354 266.055873 
L 389.172596 265.899585 
L 389.683079 266.13319 
L 389.938321 265.837403 
L 390.193563 266.051277 
L 390.704047 265.952548 
L 390.959289 266.167707 
L 391.469772 265.99068 
L 391.725014 266.113055 
L 391.980256 265.957634 
L 392.235498 266.129859 
L 392.49074 266.163501 
L 392.745982 266.011102 
L 393.001224 266.126479 
L 393.511707 266.001171 
L 393.766949 266.218088 
L 394.022191 266.005579 
L 394.277433 265.942645 
L 394.532675 266.096188 
L 394.787917 265.951751 
L 395.2984 266.216491 
L 395.553642 265.89469 
L 396.064126 266.049554 
L 396.319368 265.911384 
L 396.829851 266.154836 
L 397.085093 265.802138 
L 397.340335 266.005138 
L 398.361303 266.017591 
L 398.616544 265.857726 
L 398.871786 266.063474 
L 399.127028 265.960474 
L 399.637512 266.157032 
L 399.892754 265.932227 
L 400.403237 266.097442 
L 400.658479 265.945191 
L 400.913721 266.176379 
L 401.424205 265.941602 
L 401.679447 266.137309 
L 401.934689 266.013289 
L 402.18993 266.023755 
L 402.445172 266.213149 
L 402.700414 265.927487 
L 402.955656 265.946149 
L 403.210898 266.078947 
L 403.46614 265.908273 
L 403.976624 266.186463 
L 404.231865 265.82072 
L 404.487107 266.029013 
L 404.742349 266.039231 
L 404.997591 265.933554 
L 405.252833 266.146431 
L 405.763317 265.83898 
L 406.018558 266.049386 
L 406.2738 265.946438 
L 406.784284 266.173733 
L 407.039526 265.92853 
L 407.55001 266.071663 
L 407.805251 265.958376 
L 408.060493 266.180763 
L 408.570977 265.956539 
L 408.826219 266.127151 
L 409.336703 266.015585 
L 409.591944 266.225428 
L 409.847186 265.883554 
L 410.35767 266.093994 
L 410.612912 265.908043 
L 410.868154 266.095907 
L 411.123396 266.132051 
L 411.378637 265.757666 
L 411.633879 266.01752 
L 412.144363 265.956986 
L 412.399605 266.181942 
L 412.910089 265.946905 
L 413.16533 266.088043 
L 413.420572 265.952992 
L 413.675814 266.127783 
L 413.931056 266.131885 
L 414.186298 265.950153 
L 414.44154 266.094925 
L 414.952023 266.029729 
L 415.207265 266.23792 
L 415.462507 265.969869 
L 416.483475 266.094876 
L 416.738716 266.195362 
L 416.993958 265.818344 
L 417.2492 266.036093 
L 417.759684 265.964844 
L 418.014926 266.190491 
L 418.525409 265.902997 
L 418.780651 266.089948 
L 419.035893 265.970302 
L 419.546377 266.187316 
L 419.801619 265.930891 
L 420.056861 266.060722 
L 420.312102 266.063159 
L 420.567344 265.94831 
L 420.822586 266.181276 
L 421.33307 265.942521 
L 421.588312 266.100799 
L 421.843554 265.962667 
L 422.354037 266.206013 
L 422.354037 266.206013 
" style="fill:none;stroke:#4c72b0;stroke-linecap:square;stroke-width:2;"/>
   </g>
   <g id="line2d_12">
    <path clip-path="url(#p57671104a0)" d="M 85.434784 172.16352 
L 85.690026 213.622529 
L 86.200509 233.968125 
L 87.221477 248.834927 
L 87.731961 250.083928 
L 88.497686 253.767192 
L 88.752928 254.134225 
L 89.773895 256.779706 
L 90.284379 257.208779 
L 90.539621 257.590055 
L 91.305347 258.153551 
L 92.326314 258.957938 
L 92.581556 259.17028 
L 92.836798 259.234452 
L 93.602523 259.809421 
L 94.368249 260.027225 
L 95.133975 260.096198 
L 95.8997 260.706728 
L 96.410184 260.556098 
L 96.665426 260.940253 
L 96.920668 260.982804 
L 97.431151 259.543504 
L 97.941635 261.138117 
L 98.196877 260.747922 
L 98.452119 261.263875 
L 98.707361 261.074667 
L 98.962602 260.234029 
L 99.473086 261.429685 
L 99.728328 261.132745 
L 99.98357 261.278595 
L 100.238812 261.573332 
L 100.749295 260.500073 
L 101.259779 261.600373 
L 101.770263 261.299891 
L 102.025505 261.676569 
L 102.280747 261.72485 
L 102.79123 260.560222 
L 103.046472 260.871088 
L 103.301714 261.609679 
L 103.556956 261.674442 
L 103.812198 261.15784 
L 104.06744 261.263117 
L 104.322681 261.875395 
L 104.577923 261.434821 
L 104.833165 260.230968 
L 105.088407 260.535036 
L 105.343649 261.732472 
L 105.854133 261.180452 
L 106.109374 261.895008 
L 106.364616 261.563394 
L 106.619858 260.486078 
L 107.130342 261.938034 
L 107.385584 261.49295 
L 107.640826 261.63184 
L 107.896067 262.079793 
L 108.406551 260.977498 
L 108.917035 262.01841 
L 109.172277 261.744595 
L 109.427519 261.783245 
L 109.68276 262.123883 
L 109.938002 261.961579 
L 110.193244 261.317158 
L 110.448486 261.084309 
L 110.95897 262.123678 
L 111.214212 261.921532 
L 111.469453 261.499263 
L 111.724695 261.734042 
L 111.979937 262.234987 
L 112.235179 261.819548 
L 112.490421 260.692024 
L 112.745663 260.675919 
L 113.000905 261.898065 
L 113.256146 261.979424 
L 113.511388 261.328148 
L 114.021872 262.288308 
L 114.277114 261.246923 
L 114.532356 260.717227 
L 114.787598 261.763753 
L 115.042839 262.10644 
L 115.298081 261.524961 
L 115.808565 262.25809 
L 116.063807 261.345304 
L 116.319049 261.079681 
L 116.574291 261.976502 
L 116.829533 262.22231 
L 117.084774 261.714647 
L 117.595258 262.359943 
L 118.105742 261.095916 
L 118.616226 262.326389 
L 119.126709 261.767817 
L 119.381951 262.22705 
L 119.637193 262.348272 
L 120.147677 261.036978 
L 120.65816 262.360522 
L 121.168644 261.762344 
L 121.423886 262.275574 
L 121.679128 262.378986 
L 121.93437 261.423595 
L 122.189612 261.003739 
L 122.700095 262.396913 
L 122.955337 261.911 
L 123.210579 261.765791 
L 123.465821 262.357595 
L 123.721063 262.304239 
L 123.976305 261.182818 
L 124.231546 261.026046 
L 124.486788 262.105891 
L 124.74203 262.314204 
L 124.997272 261.700051 
L 125.507756 262.527205 
L 126.018239 260.999681 
L 126.273481 261.95069 
L 126.528723 262.392192 
L 126.783965 261.86337 
L 127.039207 262.091668 
L 127.294449 262.560796 
L 127.804932 261.212186 
L 128.315416 262.471913 
L 128.570658 262.004182 
L 128.8259 262.094348 
L 129.081142 262.596189 
L 129.336384 262.16605 
L 129.591625 261.273018 
L 129.846867 261.663425 
L 130.102109 262.468419 
L 130.612593 261.92796 
L 130.867835 262.375127 
L 131.123077 262.551162 
L 131.378318 261.649433 
L 131.63356 261.206992 
L 131.888802 262.051219 
L 132.144044 262.497503 
L 132.399286 262.05985 
L 132.654528 262.103945 
L 132.90977 262.613966 
L 133.165011 262.307796 
L 133.420253 261.40397 
L 133.675495 261.39222 
L 133.930737 262.351816 
L 134.185979 262.43237 
L 134.441221 261.943829 
L 134.696463 262.183546 
L 134.951704 262.677647 
L 135.206946 262.06487 
L 135.462188 261.110209 
L 135.71743 261.475311 
L 135.972672 262.522687 
L 136.483156 261.90119 
L 136.738397 262.511918 
L 136.993639 262.507594 
L 137.248881 261.401825 
L 137.504123 261.338346 
L 137.759365 262.346171 
L 138.014607 262.446798 
L 138.269849 262.056198 
L 138.780332 262.657555 
L 139.290816 261.256133 
L 139.546058 262.156924 
L 139.8013 262.596569 
L 140.056542 262.142014 
L 140.311784 262.215723 
L 140.567025 262.703816 
L 140.822267 262.15488 
L 141.077509 261.193787 
L 141.332751 261.647327 
L 141.587993 262.603523 
L 142.098477 262.069232 
L 142.353718 262.618315 
L 142.60896 262.502452 
L 142.864202 261.331439 
L 143.119444 261.415828 
L 143.374686 262.507711 
L 143.629928 262.41221 
L 143.88517 262.071162 
L 144.140411 262.574834 
L 144.395653 262.632947 
L 144.650895 261.507303 
L 144.906137 261.355018 
L 145.161379 262.435562 
L 145.416621 262.527003 
L 145.671863 262.082223 
L 146.182346 262.726402 
L 146.437588 261.658414 
L 146.69283 261.32403 
L 146.948072 262.389684 
L 147.203314 262.559109 
L 147.458556 262.181987 
L 147.969039 262.727758 
L 148.224281 261.668673 
L 148.479523 261.266333 
L 148.734765 262.393868 
L 148.990007 262.619814 
L 149.245249 262.145557 
L 149.755732 262.787917 
L 150.010974 261.664781 
L 150.266216 261.452358 
L 150.521458 262.402869 
L 150.7767 262.546677 
L 151.031942 262.234452 
L 151.287183 262.568433 
L 151.542425 262.714506 
L 151.797667 261.682438 
L 152.052909 261.366998 
L 152.308151 262.535344 
L 152.563393 262.56765 
L 152.818635 262.198177 
L 153.073876 262.693729 
L 153.329118 262.741745 
L 153.58436 261.441181 
L 153.839602 261.507543 
L 154.094844 262.548708 
L 154.350086 262.452384 
L 154.605328 262.20512 
L 154.860569 262.7077 
L 155.115811 262.539095 
L 155.371053 261.346667 
L 155.626295 261.634062 
L 155.881537 262.713001 
L 156.136779 262.246778 
L 156.392021 262.2421 
L 156.647262 262.883384 
L 157.157746 261.05506 
L 157.412988 262.384998 
L 157.66823 262.50367 
L 157.923472 262.022923 
L 158.178714 262.778344 
L 158.433955 262.599763 
L 158.689197 261.190238 
L 159.199681 262.671784 
L 159.454923 262.078181 
L 159.965407 262.871433 
L 160.220648 261.401511 
L 160.47589 261.677449 
L 160.731132 262.669586 
L 160.986374 262.184931 
L 161.241616 262.34877 
L 161.496858 262.919445 
L 161.7521 261.600604 
L 162.007341 261.578511 
L 162.262583 262.672181 
L 162.517825 262.217583 
L 162.773067 262.357495 
L 163.028309 262.922605 
L 163.283551 261.727904 
L 163.538793 261.738907 
L 163.794034 262.748648 
L 164.049276 262.327735 
L 164.304518 262.473201 
L 164.55976 262.906543 
L 164.815002 261.85649 
L 165.070244 261.805697 
L 165.325486 262.740116 
L 165.580728 262.475643 
L 165.835969 262.529474 
L 166.091211 262.953487 
L 166.601695 261.76222 
L 166.856937 262.511988 
L 167.112179 262.721364 
L 167.367421 262.455487 
L 167.622662 262.767865 
L 167.877904 262.791637 
L 168.133146 261.97526 
L 168.388388 261.772087 
L 168.64363 262.707221 
L 168.898872 262.760091 
L 169.154114 262.432456 
L 169.409355 262.837718 
L 169.664597 262.873226 
L 169.919839 261.983715 
L 170.175081 261.814361 
L 170.430323 262.507336 
L 170.685565 262.852023 
L 170.940807 262.547232 
L 171.196048 262.589899 
L 171.45129 262.950053 
L 171.706532 262.439761 
L 171.961774 261.550831 
L 172.472258 262.820079 
L 172.982741 262.328859 
L 173.237983 262.68351 
L 173.493225 262.813529 
L 173.748467 261.763543 
L 174.003709 261.266096 
L 174.258951 262.496028 
L 174.514193 262.769989 
L 174.769434 262.14106 
L 175.279918 262.926145 
L 175.53516 261.651986 
L 175.790402 261.376354 
L 176.045644 262.602196 
L 176.300886 262.63645 
L 176.556127 262.194876 
L 176.811369 262.829155 
L 177.066611 262.695574 
L 177.321853 261.35795 
L 177.577095 261.822705 
L 177.832337 262.818814 
L 178.087579 262.309861 
L 178.34282 262.387981 
L 178.598062 263.002101 
L 178.853304 261.903777 
L 179.108546 261.45735 
L 179.363788 262.633293 
L 179.61903 262.548153 
L 179.874272 262.298824 
L 180.129513 262.91115 
L 180.384755 262.353741 
L 180.639997 261.384353 
L 180.895239 262.30721 
L 181.150481 262.696072 
L 181.405723 262.268898 
L 181.660965 262.758582 
L 181.916206 262.636744 
L 182.171448 261.444218 
L 182.42669 261.988422 
L 182.681932 262.817431 
L 182.937174 262.247047 
L 183.447658 262.785548 
L 183.702899 261.416559 
L 183.958141 261.791479 
L 184.213383 262.808535 
L 184.468625 262.203006 
L 184.723867 262.618163 
L 184.979109 262.811892 
L 185.234351 261.467107 
L 185.744834 262.817138 
L 186.000076 262.225252 
L 186.255318 262.646758 
L 186.51056 262.82533 
L 186.765802 261.535804 
L 187.021044 262.02141 
L 187.276285 262.839588 
L 187.531527 262.321158 
L 187.786769 262.722128 
L 188.042011 262.788668 
L 188.297253 261.586763 
L 188.552495 262.07439 
L 188.807737 262.824931 
L 189.062979 262.313152 
L 189.31822 262.739209 
L 189.573462 262.717185 
L 189.828704 261.600661 
L 190.339188 262.811695 
L 190.59443 262.320374 
L 190.849672 262.719777 
L 191.104913 262.717655 
L 191.360155 261.623359 
L 191.615397 262.071463 
L 191.870639 262.837146 
L 192.125881 262.326902 
L 192.381123 262.712768 
L 192.636365 262.731673 
L 192.891606 261.648266 
L 193.146848 262.051614 
L 193.40209 262.831941 
L 193.657332 262.349585 
L 193.912574 262.671963 
L 194.167816 262.778228 
L 194.423058 261.732807 
L 194.678299 261.928734 
L 194.933541 262.861585 
L 195.188783 262.414824 
L 195.699267 262.886288 
L 195.954509 261.917859 
L 196.209751 261.857296 
L 196.464992 262.873077 
L 196.720234 262.536778 
L 196.975476 262.487976 
L 197.230718 263.000881 
L 197.741202 261.583378 
L 197.996444 262.658308 
L 198.251685 262.746113 
L 198.506927 262.321517 
L 198.762169 262.963286 
L 199.017411 262.68813 
L 199.272653 261.593915 
L 199.783137 262.88903 
L 200.038378 262.37026 
L 200.548862 263.035629 
L 200.804104 261.913269 
L 201.059346 261.704712 
L 201.314588 262.768709 
L 201.825071 262.470656 
L 202.080313 263.018836 
L 202.590797 261.504612 
L 203.101281 262.803697 
L 203.356523 262.319539 
L 203.611764 262.789701 
L 203.867006 262.750316 
L 204.122248 261.52494 
L 204.37749 261.984904 
L 204.632732 262.880101 
L 204.887974 262.302889 
L 205.398457 262.912324 
L 205.653699 261.616801 
L 205.908941 261.842664 
L 206.164183 262.914669 
L 206.419425 262.293953 
L 206.929909 262.940631 
L 207.18515 261.58399 
L 207.440392 261.915228 
L 207.695634 262.919127 
L 207.950876 262.26237 
L 208.206118 262.71929 
L 208.46136 262.895514 
L 208.716602 261.524472 
L 209.227085 262.924351 
L 209.482327 262.269964 
L 209.737569 262.890913 
L 209.992811 262.779028 
L 210.248053 261.434002 
L 210.503295 262.389062 
L 210.758536 262.870471 
L 211.013778 262.250947 
L 211.26902 262.953871 
L 211.524262 262.668995 
L 211.779504 261.469075 
L 212.034746 262.513298 
L 212.289988 262.79248 
L 212.54523 262.28303 
L 212.800471 263.029501 
L 213.055713 262.442995 
L 213.310955 261.538828 
L 213.566197 262.74114 
L 213.821439 262.686978 
L 214.076681 262.42273 
L 214.331923 263.082543 
L 214.842406 261.762706 
L 215.097648 262.858427 
L 215.608132 262.553329 
L 215.863374 263.084637 
L 216.373857 261.854905 
L 216.629099 262.831203 
L 216.884341 262.798204 
L 217.139583 262.526953 
L 217.394825 263.071595 
L 217.650067 262.661385 
L 217.905309 261.787407 
L 218.16055 262.570142 
L 218.415792 262.96583 
L 218.671034 262.495248 
L 218.926276 262.912718 
L 219.181518 263.060405 
L 219.43676 261.935047 
L 219.692002 261.95363 
L 219.947243 262.877092 
L 220.457727 262.606873 
L 220.712969 263.098429 
L 220.968211 262.479852 
L 221.223453 261.563315 
L 221.478695 262.428677 
L 221.733936 262.890116 
L 221.989178 262.378929 
L 222.24442 262.870447 
L 222.499662 262.859518 
L 222.754904 261.532884 
L 223.010146 262.024842 
L 223.265388 262.927233 
L 223.520629 262.295307 
L 223.775871 262.782744 
L 224.031113 262.950371 
L 224.286355 261.55373 
L 224.541597 262.057943 
L 224.796839 262.95711 
L 225.052081 262.236541 
L 225.307322 262.851043 
L 225.562564 262.893883 
L 225.817806 261.525296 
L 226.32829 262.916085 
L 226.583532 262.264928 
L 226.838774 262.988608 
L 227.094015 262.714517 
L 227.349257 261.518668 
L 227.604499 262.60442 
L 227.859741 262.853614 
L 228.114983 262.372641 
L 228.370225 263.112339 
L 228.880708 261.853217 
L 229.13595 262.900619 
L 229.646434 262.606685 
L 229.901676 263.12742 
L 230.41216 261.921559 
L 230.667401 262.844072 
L 230.922643 262.840801 
L 231.177885 262.569844 
L 231.433127 263.116561 
L 231.943611 261.876268 
L 232.198853 262.709347 
L 232.454094 262.931133 
L 232.709336 262.537454 
L 232.964578 263.025531 
L 233.21982 262.92008 
L 233.475062 261.831262 
L 233.730304 262.23462 
L 233.985546 263.03617 
L 234.240787 262.512605 
L 234.496029 262.73642 
L 234.751271 263.139755 
L 235.006513 261.820567 
L 235.261755 261.796131 
L 235.516997 262.981422 
L 235.772239 262.448894 
L 236.027481 262.626681 
L 236.282722 263.148204 
L 236.537964 261.767875 
L 236.793206 261.89836 
L 237.048448 262.980229 
L 237.30369 262.316986 
L 237.814174 263.043716 
L 238.069415 261.69162 
L 238.579899 263.001091 
L 238.835141 262.415602 
L 239.090383 263.011465 
L 239.345625 262.810585 
L 239.600867 261.780171 
L 239.856108 262.684292 
L 240.11135 262.915597 
L 240.366592 262.521585 
L 240.621834 263.109658 
L 240.877076 262.672371 
L 241.132318 261.898792 
L 241.38756 262.826079 
L 241.642801 262.930112 
L 241.898043 262.57294 
L 242.153285 263.144877 
L 242.408527 262.76493 
L 242.663769 261.89808 
L 242.919011 262.698106 
L 243.174253 263.004983 
L 243.429494 262.540753 
L 243.684736 263.043126 
L 243.939978 262.905232 
L 244.19522 261.754981 
L 244.705704 263.039364 
L 244.960946 262.472157 
L 245.216187 262.90712 
L 245.471429 263.062234 
L 245.726671 261.742405 
L 245.981913 262.197298 
L 246.237155 263.033201 
L 246.492397 262.435273 
L 247.00288 263.088908 
L 247.258122 261.69871 
L 247.513364 262.188431 
L 247.768606 263.030554 
L 248.023848 262.380987 
L 248.27909 262.927812 
L 248.534332 262.99202 
L 248.789573 261.63292 
L 249.300057 262.967272 
L 249.555299 262.355944 
L 249.810541 263.07414 
L 250.065783 262.716026 
L 250.321025 261.646733 
L 250.576266 262.706291 
L 250.831508 262.846008 
L 251.08675 262.533576 
L 251.341992 263.188633 
L 251.852476 261.98467 
L 252.107718 262.962762 
L 252.618201 262.701104 
L 252.873443 263.179805 
L 253.128685 262.252106 
L 253.383927 262.06477 
L 253.639169 263.035153 
L 253.894411 262.699494 
L 254.149652 262.800873 
L 254.404894 263.168868 
L 254.660136 262.063157 
L 254.915378 262.123684 
L 255.17062 263.074263 
L 255.425862 262.616134 
L 255.936345 263.164719 
L 256.191587 261.875679 
L 256.446829 262.039016 
L 256.702071 263.057268 
L 256.957313 262.468775 
L 257.467797 263.108695 
L 257.723038 261.706269 
L 258.233522 263.041237 
L 258.488764 262.403957 
L 258.744006 263.028143 
L 258.999248 262.918021 
L 259.25449 261.713548 
L 259.509731 262.666958 
L 259.764973 262.972057 
L 260.020215 262.56031 
L 260.275457 263.181509 
L 260.530699 262.673281 
L 260.785941 261.914133 
L 261.041183 262.875621 
L 261.296425 262.920333 
L 261.551666 262.63721 
L 261.806908 263.186394 
L 262.317392 262.012428 
L 262.572634 262.9384 
L 262.827876 262.93728 
L 263.083118 262.698564 
L 263.338359 263.227843 
L 263.848843 261.897924 
L 264.104085 262.782971 
L 264.359327 262.964495 
L 264.614569 262.601157 
L 264.869811 263.142813 
L 265.125052 262.839768 
L 265.380294 261.679733 
L 265.890778 263.017957 
L 266.14602 262.423031 
L 266.401262 263.017802 
L 266.656504 262.815357 
L 266.911745 261.582738 
L 267.166987 262.497651 
L 267.422229 262.942474 
L 267.677471 262.423616 
L 267.932713 263.152884 
L 268.187955 262.557887 
L 268.443197 261.623556 
L 268.698438 262.874161 
L 269.208922 262.596094 
L 269.464164 263.252175 
L 269.719406 262.056049 
L 269.974648 262.08355 
L 270.22989 263.054322 
L 270.485131 262.546742 
L 270.740373 262.923513 
L 270.995615 263.000814 
L 271.250857 261.865645 
L 271.761341 262.998381 
L 272.016583 262.552207 
L 272.271824 263.148958 
L 272.527066 262.704577 
L 272.782308 261.802016 
L 273.03755 262.846139 
L 273.292792 262.926078 
L 273.548034 262.599161 
L 273.803276 263.220725 
L 274.313759 261.983382 
L 274.569001 263.003631 
L 275.079485 262.727133 
L 275.334727 263.216146 
L 275.589969 262.321929 
L 275.84521 262.058942 
L 276.100452 263.051438 
L 276.355694 262.83809 
L 276.610936 262.776049 
L 276.866178 263.238241 
L 277.12142 262.275998 
L 277.376662 262.066697 
L 277.631903 263.045542 
L 277.887145 262.777572 
L 278.142387 262.776116 
L 278.397629 263.211822 
L 278.652871 262.170252 
L 278.908113 262.065551 
L 279.163355 263.0766 
L 279.418596 262.704367 
L 279.673838 262.788237 
L 279.92908 263.217948 
L 280.184322 262.114611 
L 280.439564 262.018322 
L 280.694806 263.063379 
L 280.950048 262.652444 
L 281.205289 262.770936 
L 281.460531 263.19897 
L 281.715773 261.893391 
L 281.971015 262.048548 
L 282.226257 263.084973 
L 282.481499 262.49284 
L 282.736741 262.873455 
L 282.991982 263.047624 
L 283.247224 261.668875 
L 283.757708 263.007752 
L 284.01295 262.420678 
L 284.268192 263.154724 
L 284.523434 262.639429 
L 284.778676 261.722951 
L 285.033917 262.874396 
L 285.289159 262.829975 
L 285.544401 262.641302 
L 285.799643 263.20666 
L 286.054885 262.335743 
L 286.310127 262.157224 
L 286.565369 263.102511 
L 286.82061 262.761876 
L 287.075852 262.840764 
L 287.331094 263.146431 
L 287.586336 262.06002 
L 287.841578 262.274583 
L 288.09682 263.093952 
L 288.352062 262.644172 
L 288.607303 262.958498 
L 288.862545 262.991325 
L 289.117787 261.934381 
L 289.628271 263.09477 
L 289.883513 262.605459 
L 290.138755 263.090071 
L 290.393996 262.90114 
L 290.649238 261.868235 
L 290.90448 262.665291 
L 291.159722 263.007964 
L 291.414964 262.570236 
L 291.670206 263.144723 
L 291.925448 262.790061 
L 292.180689 261.72525 
L 292.435931 262.716607 
L 292.691173 262.951259 
L 292.946415 262.525132 
L 293.201657 263.204869 
L 293.712141 261.769931 
L 293.967382 262.883814 
L 294.222624 262.877775 
L 294.477866 262.58174 
L 294.733108 263.261344 
L 295.243592 261.769195 
L 295.498834 263.013402 
L 295.754075 262.731305 
L 296.009317 262.676926 
L 296.264559 263.187025 
L 296.519801 261.996896 
L 296.775043 262.18239 
L 297.030285 263.093632 
L 297.285527 262.591725 
L 297.540768 263.014929 
L 297.79601 262.913659 
L 298.051252 261.786819 
L 298.306494 262.599057 
L 298.561736 263.025464 
L 298.816978 262.541778 
L 299.07222 263.161749 
L 299.582703 261.843154 
L 299.837945 262.94387 
L 300.348429 262.714375 
L 300.603671 263.24328 
L 300.858913 262.254252 
L 301.114154 262.116292 
L 301.369396 263.10469 
L 301.624638 262.72499 
L 302.135122 263.115927 
L 302.390364 262.006058 
L 302.645606 262.277615 
L 302.900847 263.092675 
L 303.156089 262.639635 
L 303.411331 263.021188 
L 303.666573 262.88895 
L 303.921815 261.891306 
L 304.177057 262.621751 
L 304.432299 263.001612 
L 304.68754 262.591096 
L 304.942782 263.17206 
L 305.198024 262.624173 
L 305.453266 261.776158 
L 305.708508 262.85815 
L 305.96375 262.860403 
L 306.218992 262.660365 
L 306.474233 263.221917 
L 306.729475 262.23613 
L 306.984717 261.970809 
L 307.239959 263.026421 
L 307.495201 262.660249 
L 307.750443 262.801491 
L 308.005685 263.184303 
L 308.260927 261.93905 
L 308.516168 262.279997 
L 308.77141 263.08349 
L 309.026652 262.539045 
L 309.281894 263.068979 
L 309.537136 262.86178 
L 309.792378 261.785685 
L 310.04762 262.724475 
L 310.302861 262.962448 
L 310.558103 262.57972 
L 310.813345 263.234822 
L 311.323829 261.882921 
L 311.579071 263.011925 
L 311.834313 262.78323 
L 312.089554 262.751211 
L 312.344796 263.240594 
L 312.600038 262.133468 
L 312.85528 262.162977 
L 313.110522 263.083092 
L 313.365764 262.684425 
L 313.876247 263.07811 
L 314.131489 261.980856 
L 314.641973 263.086558 
L 314.897215 262.626486 
L 315.152457 263.097066 
L 315.407699 262.9043 
L 315.66294 261.754752 
L 315.918182 262.635888 
L 316.173424 263.022178 
L 316.428666 262.486003 
L 316.683908 263.194541 
L 317.194392 261.675026 
L 317.449633 262.912679 
L 317.960117 262.658914 
L 318.215359 263.228912 
L 318.470601 262.161222 
L 318.725843 262.170129 
L 318.981085 263.099662 
L 319.236326 262.647645 
L 319.491568 262.965403 
L 319.74681 262.994663 
L 320.002052 261.904581 
L 320.512536 263.011429 
L 320.767778 262.596371 
L 321.023019 263.187251 
L 321.533503 261.821126 
L 321.788745 262.973167 
L 322.043987 262.742597 
L 322.299229 262.73458 
L 322.554471 263.246064 
L 322.809712 262.105111 
L 323.064954 262.32148 
L 323.320196 263.102741 
L 323.575438 262.613373 
L 323.83068 263.055912 
L 324.085922 262.905106 
L 324.341164 261.731594 
L 324.596405 262.67689 
L 324.851647 263.003541 
L 325.106889 262.562295 
L 325.362131 263.233359 
L 325.872615 261.94447 
L 326.127857 263.060643 
L 326.383098 262.768527 
L 326.63834 262.785767 
L 326.893582 263.211481 
L 327.148824 262.132226 
L 327.404066 262.361865 
L 327.659308 263.102026 
L 327.91455 262.690092 
L 328.169791 263.053291 
L 328.425033 262.825386 
L 328.680275 261.809577 
L 328.935517 262.743195 
L 329.190759 262.93867 
L 329.446001 262.610664 
L 329.701243 263.197365 
L 330.211726 261.915702 
L 330.466968 263.016269 
L 330.72221 262.741678 
L 330.977452 262.76747 
L 331.232694 263.231189 
L 331.487936 262.024794 
L 331.743178 262.317791 
L 331.998419 263.096679 
L 332.253661 262.566563 
L 332.508903 263.068655 
L 332.764145 262.814943 
L 333.019387 261.760582 
L 333.274629 262.772087 
L 333.529871 262.959781 
L 333.785112 262.596933 
L 334.040354 263.248285 
L 334.295596 262.40789 
L 334.550838 262.10874 
L 334.80608 263.11081 
L 335.061322 262.736388 
L 335.316564 262.853832 
L 335.571805 263.131714 
L 335.827047 262.047187 
L 336.082289 262.397301 
L 336.337531 263.08283 
L 336.592773 262.693447 
L 336.848015 263.091521 
L 337.103257 262.847956 
L 337.358498 261.955672 
L 337.61374 262.833214 
L 337.868982 262.948104 
L 338.124224 262.673073 
L 338.379466 263.218386 
L 338.88995 261.90598 
L 339.145191 262.992524 
L 339.400433 262.717268 
L 339.655675 262.708425 
L 339.910917 263.223642 
L 340.166159 262.035661 
L 340.421401 262.240891 
L 340.676643 263.100964 
L 340.931884 262.499149 
L 341.187126 262.999447 
L 341.442368 262.821029 
L 341.69761 261.712143 
L 341.952852 262.802586 
L 342.208094 262.877221 
L 342.463336 262.585509 
L 342.718577 263.250208 
L 342.973819 262.181938 
L 343.229061 262.133202 
L 343.484303 263.118064 
L 343.739545 262.634148 
L 343.994787 262.955999 
L 344.250029 262.862659 
L 344.50527 261.90682 
L 344.760512 262.80199 
L 345.015754 262.908565 
L 345.270996 262.612423 
L 345.526238 263.228488 
L 345.78148 262.221554 
L 346.036722 262.101268 
L 346.291963 263.098184 
L 346.547205 262.590236 
L 346.802447 262.945819 
L 347.057689 262.995824 
L 347.312931 261.804319 
L 347.568173 262.752832 
L 347.823415 262.984713 
L 348.078656 262.563341 
L 348.333898 263.219393 
L 348.58914 262.369089 
L 348.844382 262.005666 
L 349.099624 263.082455 
L 349.354866 262.707479 
L 349.610108 262.843906 
L 349.865349 263.12107 
L 350.120591 261.937782 
L 350.631075 263.044392 
L 350.886317 262.580776 
L 351.141559 263.149955 
L 351.652042 261.868961 
L 351.907284 262.98046 
L 352.162526 262.773307 
L 352.417768 262.740568 
L 352.67301 263.213347 
L 352.928252 261.984718 
L 353.183494 262.398227 
L 353.438735 263.097558 
L 353.693977 262.476908 
L 353.949219 263.068574 
L 354.204461 262.770052 
L 354.459703 261.660077 
L 354.714945 262.918546 
L 354.970187 262.828624 
L 355.225428 262.556491 
L 355.48067 263.181879 
L 355.735912 262.066768 
L 355.991154 262.390781 
L 356.246396 263.01318 
L 356.501638 262.559043 
L 356.75688 263.105652 
L 357.267363 261.973767 
L 357.522605 263.024111 
L 357.777847 262.754293 
L 358.033089 262.794773 
L 358.288331 263.114673 
L 358.543573 261.980178 
L 359.054056 263.060071 
L 359.309298 262.474977 
L 359.56454 263.096331 
L 359.819782 262.676961 
L 360.075024 261.913938 
L 360.330266 262.979106 
L 360.840749 262.694879 
L 361.095991 263.132495 
L 361.351233 262.132488 
L 361.606475 262.434865 
L 361.861717 263.08942 
L 362.116959 262.660601 
L 362.372201 263.049015 
L 362.627442 262.767827 
L 362.882684 261.907586 
L 363.137926 262.812327 
L 363.393168 262.899623 
L 363.64841 262.691275 
L 363.903652 263.173583 
L 364.158894 262.452078 
L 364.414135 262.075972 
L 364.669377 262.967591 
L 364.924619 262.742211 
L 365.179861 262.779773 
L 365.435103 263.204034 
L 365.690345 262.000406 
L 365.945587 262.106964 
L 366.200828 263.058113 
L 366.45607 262.489479 
L 366.711312 262.921714 
L 366.966554 262.877741 
L 367.221796 261.718837 
L 367.477038 262.746475 
L 367.73228 262.908655 
L 367.987521 262.514696 
L 368.242763 263.185213 
L 368.753247 261.927081 
L 369.008489 263.049905 
L 369.263731 262.671924 
L 369.774214 262.897462 
L 370.029456 261.950328 
L 370.284698 262.725328 
L 370.53994 262.953939 
L 370.795182 262.64462 
L 371.050424 263.133245 
L 371.560907 261.957642 
L 371.816149 262.976622 
L 372.071391 262.72088 
L 372.326633 262.770164 
L 372.581875 263.162777 
L 372.837117 261.824973 
L 373.3476 263.00999 
L 373.602842 262.400289 
L 373.858084 263.061822 
L 374.113326 262.616598 
L 374.368568 261.788064 
L 374.62381 262.990343 
L 374.879052 262.700863 
L 375.134293 262.75079 
L 375.389535 263.068516 
L 375.644777 261.941705 
L 376.155261 262.987591 
L 376.410503 262.580386 
L 376.665745 263.117679 
L 377.176228 261.887435 
L 377.43147 263.032767 
L 377.686712 262.660216 
L 378.197196 263.033207 
L 378.452438 261.836824 
L 378.707679 262.603365 
L 378.962921 262.978283 
L 379.218163 262.530904 
L 379.473405 263.13207 
L 379.983889 261.989028 
L 380.239131 263.018049 
L 380.494373 262.740709 
L 380.749614 262.781713 
L 381.004856 263.008154 
L 381.260098 262.06025 
L 381.770582 263.005326 
L 382.025824 262.666217 
L 382.281066 263.107037 
L 382.791549 261.950683 
L 383.046791 262.948169 
L 383.302033 262.706666 
L 383.557275 262.726353 
L 383.812517 263.207912 
L 384.067759 261.93425 
L 384.323 262.210275 
L 384.578242 263.04578 
L 384.833484 262.428188 
L 385.088726 262.944295 
L 385.343968 262.793962 
L 385.59921 261.641618 
L 385.854452 262.813219 
L 386.109693 262.780976 
L 386.364935 262.573638 
L 386.620177 263.181022 
L 386.875419 261.976286 
L 387.130661 262.301422 
L 387.385903 263.044466 
L 387.641145 262.546446 
L 387.896386 263.021156 
L 388.40687 261.921714 
L 388.662112 263.023692 
L 388.917354 262.651517 
L 389.427838 263.002212 
L 389.683079 261.913243 
L 389.938321 262.623666 
L 390.193563 262.944049 
L 390.448805 262.571343 
L 390.704047 263.099267 
L 391.214531 262.113535 
L 391.469772 263.001082 
L 391.725014 262.778234 
L 391.980256 262.781263 
L 392.235498 263.02399 
L 392.49074 262.126508 
L 393.001224 263.015188 
L 393.256465 262.659807 
L 393.511707 263.015692 
L 393.766949 262.661999 
L 394.022191 261.846425 
L 394.277433 262.81831 
L 394.532675 262.829553 
L 394.787917 262.617257 
L 395.043158 263.206838 
L 395.2984 262.248777 
L 395.553642 261.999833 
L 395.808884 263.030394 
L 396.064126 262.60452 
L 396.57461 263.055783 
L 396.829851 261.825629 
L 397.340335 263.021435 
L 397.595577 262.515177 
L 397.850819 263.083846 
L 398.106061 262.638424 
L 398.361303 261.805679 
L 398.616544 262.941733 
L 399.127028 262.60537 
L 399.38227 263.109559 
L 399.637512 262.168461 
L 399.892754 262.333881 
L 400.147996 263.049697 
L 400.403237 262.652582 
L 400.658479 262.910227 
L 400.913721 262.899136 
L 401.168963 261.924517 
L 401.424205 262.742622 
L 401.679447 262.956074 
L 401.934689 262.579291 
L 402.18993 263.132401 
L 402.700414 261.919639 
L 402.955656 262.997786 
L 403.210898 262.654252 
L 403.46614 262.741655 
L 403.721382 263.137909 
L 403.976624 261.875851 
L 404.487107 263.038744 
L 404.742349 262.478743 
L 404.997591 263.019824 
L 405.252833 262.686388 
L 405.508075 261.749132 
L 405.763317 262.914221 
L 406.018558 262.810803 
L 406.2738 262.564386 
L 406.529042 263.138338 
L 406.784284 262.144724 
L 407.039526 262.277837 
L 407.294768 263.044369 
L 407.55001 262.597575 
L 407.805251 262.924014 
L 408.060493 262.766974 
L 408.315735 261.919666 
L 408.570977 262.879629 
L 408.826219 262.856684 
L 409.081461 262.604319 
L 409.336703 263.097554 
L 409.591944 262.25489 
L 409.847186 262.073624 
L 410.102428 263.003455 
L 410.35767 262.577593 
L 410.868154 262.978947 
L 411.123396 261.679774 
L 411.378637 262.60661 
L 411.633879 262.964423 
L 411.889121 262.468333 
L 412.144363 263.098052 
L 412.654847 261.956368 
L 412.910089 262.984595 
L 413.16533 262.652852 
L 413.420572 262.704307 
L 413.675814 262.944961 
L 413.931056 261.970615 
L 414.186298 262.619105 
L 414.44154 262.900458 
L 414.696782 262.592539 
L 414.952023 263.101558 
L 415.462507 261.94125 
L 415.717749 263.000593 
L 415.972991 262.637067 
L 416.228233 262.730006 
L 416.483475 263.018644 
L 416.738716 261.835695 
L 417.2492 262.951642 
L 417.504442 262.461225 
L 417.759684 263.024371 
L 418.014926 262.604388 
L 418.270168 261.872861 
L 418.525409 262.937072 
L 419.035893 262.616544 
L 419.291135 263.08824 
L 419.546377 262.08509 
L 419.801619 262.426703 
L 420.056861 263.000278 
L 420.312102 262.534923 
L 420.567344 262.875496 
L 420.822586 262.593055 
L 421.077828 261.862761 
L 421.33307 262.865848 
L 421.843554 262.650382 
L 422.098795 263.107942 
L 422.354037 261.91464 
L 422.354037 261.91464 
" style="fill:none;stroke:#dd8452;stroke-linecap:square;stroke-width:2;"/>
   </g>
   <g id="patch_3">
    <path d="M 68.588821 277.574739 
L 68.588821 28.164709 
" style="fill:none;stroke:#000000;stroke-linecap:square;stroke-linejoin:miter;stroke-width:0.8;"/>
   </g>
   <g id="patch_4">
    <path d="M 439.2 277.574739 
L 439.2 28.164709 
" style="fill:none;stroke:#000000;stroke-linecap:square;stroke-linejoin:miter;stroke-width:0.8;"/>
   </g>
   <g id="patch_5">
    <path d="M 68.588821 277.574739 
L 439.2 277.574739 
" style="fill:none;stroke:#000000;stroke-linecap:square;stroke-linejoin:miter;stroke-width:0.8;"/>
   </g>
   <g id="patch_6">
    <path d="M 68.588821 28.164709 
L 439.2 28.164709 
" style="fill:none;stroke:#000000;stroke-linecap:square;stroke-linejoin:miter;stroke-width:0.8;"/>
   </g>
   <g id="legend_1">
    <g id="patch_7">
     <path d="M 244.747749 100.318467 
L 425.2 100.318467 
Q 429.2 100.318467 429.2 96.318467 
L 429.2 42.164709 
Q 429.2 38.164709 425.2 38.164709 
L 244.747749 38.164709 
Q 240.747749 38.164709 240.747749 42.164709 
L 240.747749 96.318467 
Q 240.747749 100.318467 244.747749 100.318467 
z
" style="fill:#ffffff;opacity:0.8;stroke:#cccccc;stroke-linejoin:miter;"/>
    </g>
    <g id="line2d_13">
     <path d="M 248.747749 53.164709 
L 288.747749 53.164709 
" style="fill:none;stroke:#4c72b0;stroke-linecap:square;stroke-width:2;"/>
    </g>
    <g id="line2d_14"/>
    <g id="text_13">
     <!-- Train loss -->
     <g transform="translate(304.747749 60.164709)scale(0.2 -0.2)">
      <defs>
       <path d="M 62.203125 67.59375 
L 4.5 67.59375 
L 2.796875 45.59375 
L 4.59375 45.59375 
C 5.90625 62.125 7.296875 65 22.703125 65 
C 24.5 65 27.40625 65 28.203125 64.90625 
C 30.09375 64.609375 30.09375 63.40625 30.09375 61.125 
L 30.09375 7.171875 
C 30.09375 3.59375 29.796875 2.5 21.5 2.5 
L 18.703125 2.5 
L 18.703125 0 
C 23.5 0 28.5 0 33.40625 0 
C 38.296875 0 43.296875 0 48.09375 0 
L 48.09375 2.5 
L 45.296875 2.5 
C 37 2.5 36.703125 3.59375 36.703125 7.171875 
L 36.703125 61.125 
C 36.703125 63.3125 36.703125 64.515625 38.5 64.90625 
C 39.296875 65 42.203125 65 44 65 
C 59.296875 65 60.796875 62.125 62.09375 45.59375 
L 63.90625 45.59375 
z
" id="CMR17-84"/>
       <path d="M 15 23.390625 
C 15 33 19.09375 42 26.59375 42 
C 27.296875 42 28 41.90625 28.703125 41.59375 
C 28.703125 41.59375 26.5 40.890625 26.5 38.3125 
C 26.5 35.90625 28.40625 34.90625 29.90625 34.90625 
C 31.09375 34.90625 33.296875 35.609375 33.296875 38.40625 
C 33.296875 41.609375 30.09375 43.59375 26.703125 43.59375 
C 19.09375 43.59375 15.796875 36.203125 14.796875 32.703125 
L 14.703125 32.703125 
L 14.703125 43.59375 
L 3.09375 42.5 
L 3.09375 39.90625 
C 9 39.90625 9.90625 39.296875 9.90625 34.5 
L 9.90625 6.6875 
C 9.90625 2.875 9.5 2.390625 3.09375 2.390625 
L 3.09375 -0.203125 
C 5.5 0 10.09375 0 12.703125 0 
C 15.59375 0 20.703125 0 23.40625 -0.203125 
L 23.40625 2.390625 
C 16.203125 2.390625 15 2.390625 15 6.875 
z
" id="CMR17-114"/>
       <path d="M 36 25.828125 
C 36 32.375 36 35.84375 31.796875 39.734375 
C 28.09375 43 23.796875 44 20.40625 44 
C 12.5 44 6.796875 37.609375 6.796875 30.796875 
C 6.796875 27 9.796875 27 10.40625 27 
C 11.703125 27 14 27.78125 14 30.53125 
C 14 33 12.09375 34.078125 10.40625 34.078125 
C 10 34.078125 9.5 33.96875 9.203125 33.875 
C 11.296875 40.5 16.703125 42.40625 20.203125 42.40625 
C 25.203125 42.40625 30.703125 37.953125 30.703125 29.453125 
L 30.703125 25 
C 24.796875 25 17.703125 24.203125 12.09375 21.203125 
C 5.796875 17.703125 4 12.703125 4 8.90625 
C 4 1.203125 13 -1 18.296875 -1 
C 23.796875 -1 28.90625 2.171875 31.09375 7.984375 
C 31.296875 3.640625 34.09375 -0.28125 38.5 -0.28125 
C 40.59375 -0.28125 45.90625 1.09375 45.90625 8.859375 
L 45.90625 14.375 
L 44.09375 14.375 
L 44.09375 8.78125 
C 44.09375 2.78125 41.40625 2 40.09375 2 
C 36 2 36 7.15625 36 11.53125 
z
M 30.703125 13.59375 
C 30.703125 4.953125 24.5 0.59375 19 0.59375 
C 14 0.59375 10.09375 4.296875 10.09375 8.90625 
C 10.09375 11.890625 11.40625 17.1875 17.203125 20.390625 
C 22 23.09375 27.5 23.5 30.703125 23.5 
z
" id="CMR17-97"/>
       <path d="M 15.5 61.078125 
C 15.5 63.265625 13.703125 65.15625 11.40625 65.15625 
C 9.203125 65.15625 7.296875 63.375 7.296875 61.078125 
C 7.296875 58.890625 9.09375 57 11.40625 57 
C 13.59375 57 15.5 58.796875 15.5 61.078125 
z
M 3.796875 42.28125 
L 3.796875 39.703125 
C 9.40625 39.703125 10.203125 39.09375 10.203125 34.328125 
L 10.203125 6.671875 
C 10.203125 2.875 9.796875 2.390625 3.40625 2.390625 
L 3.40625 -0.203125 
C 5.796875 0 10.09375 0 12.59375 0 
C 15 0 19.09375 0 21.40625 -0.203125 
L 21.40625 2.390625 
C 15.5 2.390625 15.296875 2.984375 15.296875 6.5625 
L 15.296875 43.375 
z
" id="CMR17-105"/>
       <path d="M 41.5 30.203125 
C 41.5 35.296875 40.5 43.59375 28.703125 43.59375 
C 20.796875 43.59375 16.703125 37.5 15.203125 33.5 
L 15.09375 33.5 
L 15.09375 43.59375 
L 3.296875 42.5 
L 3.296875 39.90625 
C 9.203125 39.90625 10.09375 39.296875 10.09375 34.5 
L 10.09375 6.6875 
C 10.09375 2.875 9.703125 2.390625 3.296875 2.390625 
L 3.296875 -0.203125 
C 5.703125 0 10.09375 0 12.703125 0 
C 15.296875 0 19.796875 0 22.203125 -0.203125 
L 22.203125 2.390625 
C 15.796875 2.390625 15.40625 2.78125 15.40625 6.6875 
L 15.40625 25.90625 
C 15.40625 35.109375 21 42 28 42 
C 35.40625 42 36.203125 35.40625 36.203125 30.59375 
L 36.203125 6.6875 
C 36.203125 2.875 35.796875 2.390625 29.40625 2.390625 
L 29.40625 -0.203125 
C 31.796875 0 36.203125 0 38.796875 0 
C 41.40625 0 45.90625 0 48.296875 -0.203125 
L 48.296875 2.390625 
C 41.90625 2.390625 41.5 2.78125 41.5 6.6875 
z
" id="CMR17-110"/>
       <path d="M 15.296875 68.6875 
L 3.40625 67.59375 
L 3.40625 65 
C 9.296875 65 10.203125 64.40625 10.203125 59.640625 
L 10.203125 6.65625 
C 10.203125 2.875 9.796875 2.390625 3.40625 2.390625 
L 3.40625 -0.203125 
C 5.796875 0 10.203125 0 12.703125 0 
C 15.296875 0 19.703125 0 22.09375 -0.203125 
L 22.09375 2.390625 
C 15.703125 2.390625 15.296875 2.78125 15.296875 6.65625 
z
" id="CMR17-108"/>
      </defs>
      <use transform="scale(0.996264)" xlink:href="#CMR17-84"/>
      <use transform="translate(58.702625 0)scale(0.996264)" xlink:href="#CMR17-114"/>
      <use transform="translate(93.983393 0)scale(0.996264)" xlink:href="#CMR17-97"/>
      <use transform="translate(139.67387 0)scale(0.996264)" xlink:href="#CMR17-105"/>
      <use transform="translate(164.544929 0)scale(0.996264)" xlink:href="#CMR17-110"/>
      <use transform="translate(245.516265 0)scale(0.996264)" xlink:href="#CMR17-108"/>
      <use transform="translate(270.387323 0)scale(0.996264)" xlink:href="#CMR17-111"/>
      <use transform="translate(316.0778 0)scale(0.996264)" xlink:href="#CMR17-115"/>
      <use transform="translate(351.879138 0)scale(0.996264)" xlink:href="#CMR17-115"/>
     </g>
    </g>
    <g id="line2d_15">
     <path d="M 248.747749 81.442834 
L 288.747749 81.442834 
" style="fill:none;stroke:#dd8452;stroke-linecap:square;stroke-width:2;"/>
    </g>
    <g id="line2d_16"/>
    <g id="text_14">
     <!-- Validation loss -->
     <g transform="translate(304.747749 88.442834)scale(0.2 -0.2)">
      <defs>
       <path d="M 59 58.515625 
C 59.90625 60.71875 61.5 65 68.203125 65 
L 68.203125 67.6875 
C 65.90625 67.484375 63.296875 67.484375 60.796875 67.484375 
C 58.40625 67.484375 54.296875 67.484375 52 67.6875 
L 52 65 
C 57 65 57.203125 61.5 57.203125 60.90625 
C 57.203125 59.796875 56.90625 59.109375 56.59375 58.3125 
L 36.90625 6.96875 
L 16.296875 60.71875 
C 16 61.421875 15.796875 61.921875 15.796875 62.40625 
C 15.796875 65 19.796875 65 21.90625 65 
L 21.90625 67.484375 
C 18.703125 67.484375 14 67.484375 10.703125 67.484375 
C 8.09375 67.484375 3.40625 67.484375 1 67.6875 
L 1 65 
C 6.796875 65 7.90625 64.609375 9.09375 61.421875 
L 32.90625 -0.40625 
C 33.40625 -1.796875 33.5 -2 34.59375 -2 
C 35.703125 -2 35.796875 -1.796875 36.296875 -0.40625 
z
" id="CMR17-86"/>
       <path d="M 29.203125 67.59375 
L 29.203125 65 
C 35.09375 65 36 64.40625 36 59.6875 
L 36 36.640625 
C 35.59375 37.140625 31.5 43.59375 23.40625 43.59375 
C 13.203125 43.59375 3.296875 34.5 3.296875 21.3125 
C 3.296875 8.203125 12.59375 -1 22.40625 -1 
C 30.90625 -1 35.296875 5.265625 35.796875 5.9375 
L 35.796875 -0.984375 
L 47.90625 -0.984375 
L 47.90625 2 
C 42 2 41.09375 2.59375 41.09375 7.390625 
L 41.09375 68.6875 
z
M 35.796875 11.796875 
C 35.796875 8.796875 34 6.09375 31.703125 4.09375 
C 28.296875 1.09375 24.90625 0.59375 23 0.59375 
C 20.09375 0.59375 9.703125 2.09375 9.703125 21.1875 
C 9.703125 40.8125 21.296875 42 23.90625 42 
C 28.5 42 32.203125 39.40625 34.5 35.796875 
C 35.796875 33.703125 35.796875 33.40625 35.796875 31.609375 
z
" id="CMR17-100"/>
       <path d="M 15.09375 40 
L 29.09375 40 
L 29.09375 42.578125 
L 15.09375 42.578125 
L 15.09375 61 
L 13.296875 61 
C 13.09375 50.703125 9.59375 41.6875 1.09375 41.6875 
L 1.09375 40 
L 9.796875 40 
L 9.796875 12.046875 
C 9.796875 10.15625 9.796875 -1 21.40625 -1 
C 27.296875 -1 30.703125 4.78125 30.703125 12.140625 
L 30.703125 17.8125 
L 28.90625 17.8125 
L 28.90625 12.234375 
C 28.90625 5.375 26.203125 0.796875 22 0.796875 
C 19.09375 0.796875 15.09375 2.78125 15.09375 11.84375 
z
" id="CMR17-116"/>
      </defs>
      <use transform="scale(0.996264)" xlink:href="#CMR17-86"/>
      <use transform="translate(61.265174 0)scale(0.996264)" xlink:href="#CMR17-97"/>
      <use transform="translate(106.955652 0)scale(0.996264)" xlink:href="#CMR17-108"/>
      <use transform="translate(131.82671 0)scale(0.996264)" xlink:href="#CMR17-105"/>
      <use transform="translate(156.697768 0)scale(0.996264)" xlink:href="#CMR17-100"/>
      <use transform="translate(207.593138 0)scale(0.996264)" xlink:href="#CMR17-97"/>
      <use transform="translate(253.283615 0)scale(0.996264)" xlink:href="#CMR17-116"/>
      <use transform="translate(288.564383 0)scale(0.996264)" xlink:href="#CMR17-105"/>
      <use transform="translate(313.435442 0)scale(0.996264)" xlink:href="#CMR17-111"/>
      <use transform="translate(359.125919 0)scale(0.996264)" xlink:href="#CMR17-110"/>
      <use transform="translate(440.097255 0)scale(0.996264)" xlink:href="#CMR17-108"/>
      <use transform="translate(464.968313 0)scale(0.996264)" xlink:href="#CMR17-111"/>
      <use transform="translate(510.658791 0)scale(0.996264)" xlink:href="#CMR17-115"/>
      <use transform="translate(546.460128 0)scale(0.996264)" xlink:href="#CMR17-115"/>
     </g>
    </g>
   </g>
  </g>
 </g>
 <defs>
  <clipPath id="p57671104a0">
   <rect height="249.41003" width="370.611179" x="68.588821" y="28.164709"/>
  </clipPath>
 </defs>
</svg>
