<?xml version="1.0" encoding="utf-8" standalone="no"?>
<!DOCTYPE svg PUBLIC "-//W3C//DTD SVG 1.1//EN"
  "http://www.w3.org/Graphics/SVG/1.1/DTD/svg11.dtd">
<!-- Created with matplotlib (https://matplotlib.org/) -->
<svg height="345.6pt" version="1.1" viewBox="0 0 460.8 345.6" width="460.8pt" xmlns="http://www.w3.org/2000/svg" xmlns:xlink="http://www.w3.org/1999/xlink">
 <metadata>
  <rdf:RDF xmlns:cc="http://creativecommons.org/ns#" xmlns:dc="http://purl.org/dc/elements/1.1/" xmlns:rdf="http://www.w3.org/1999/02/22-rdf-syntax-ns#">
   <cc:Work>
    <dc:type rdf:resource="http://purl.org/dc/dcmitype/StillImage"/>
    <dc:date>2022-09-19T12:09:01.273171</dc:date>
    <dc:format>image/svg+xml</dc:format>
    <dc:creator>
     <cc:Agent>
      <dc:title>Matplotlib v3.3.4, https://matplotlib.org/</dc:title>
     </cc:Agent>
    </dc:creator>
   </cc:Work>
  </rdf:RDF>
 </metadata>
 <defs>
  <style type="text/css">*{stroke-linecap:butt;stroke-linejoin:round;}</style>
 </defs>
 <g id="figure_1">
  <g id="patch_1">
   <path d="M 0 345.6 
L 460.8 345.6 
L 460.8 0 
L 0 0 
z
" style="fill:#ffffff;"/>
  </g>
  <g id="axes_1">
   <g id="patch_2">
    <path d="M 83.146352 277.574739 
L 439.2 277.574739 
L 439.2 21.6 
L 83.146352 21.6 
z
" style="fill:#ffffff;"/>
   </g>
   <g id="matplotlib.axis_1">
    <g id="xtick_1">
     <g id="line2d_1">
      <defs>
       <path d="M 0 0 
L 0 3.5 
" id="m8e9d17262a" style="stroke:#000000;stroke-width:0.8;"/>
      </defs>
      <g>
       <use style="stroke:#000000;stroke-width:0.8;" x="99.330609" xlink:href="#m8e9d17262a" y="277.574739"/>
      </g>
     </g>
     <g id="text_1">
      <!-- $\mathdefault{0}$ -->
      <g transform="translate(94.761561 298.411736)scale(0.2 -0.2)">
       <defs>
        <path d="M 42 31.640625 
C 42 37.75 41.90625 48.125 37.703125 56.109375 
C 34 63.109375 28.09375 65.59375 22.90625 65.59375 
C 18.09375 65.59375 12 63.40625 8.203125 56.203125 
C 4.203125 48.71875 3.796875 39.4375 3.796875 31.640625 
C 3.796875 25.953125 3.90625 17.28125 7 9.671875 
C 11.296875 -0.609375 19 -2 22.90625 -2 
C 27.5 -2 34.5 -0.109375 38.59375 9.375 
C 41.59375 16.28125 42 24.359375 42 31.640625 
z
M 22.90625 -0.40625 
C 16.5 -0.40625 12.703125 5.078125 11.296875 12.6875 
C 10.203125 18.5625 10.203125 27.15625 10.203125 32.75 
C 10.203125 40.4375 10.203125 46.828125 11.5 52.921875 
C 13.40625 61.390625 19 64 22.90625 64 
C 27 64 32.296875 61.296875 34.203125 53.125 
C 35.5 47.4375 35.59375 40.734375 35.59375 32.75 
C 35.59375 26.25 35.59375 18.265625 34.40625 12.375 
C 32.296875 1.484375 26.40625 -0.40625 22.90625 -0.40625 
z
" id="CMR17-48"/>
       </defs>
       <use transform="scale(0.996264)" xlink:href="#CMR17-48"/>
      </g>
     </g>
    </g>
    <g id="xtick_2">
     <g id="line2d_2">
      <g>
       <use style="stroke:#000000;stroke-width:0.8;" x="228.778773" xlink:href="#m8e9d17262a" y="277.574739"/>
      </g>
     </g>
     <g id="text_2">
      <!-- $\mathdefault{2000}$ -->
      <g transform="translate(210.502582 298.411736)scale(0.2 -0.2)">
       <defs>
        <path d="M 41.703125 15.453125 
L 39.90625 15.453125 
C 38.90625 8.375 38.09375 7.171875 37.703125 6.5625 
C 37.203125 5.765625 30 5.765625 28.59375 5.765625 
L 9.40625 5.765625 
C 13 9.671875 20 16.75 28.5 24.953125 
C 34.59375 30.734375 41.703125 37.53125 41.703125 47.421875 
C 41.703125 59.21875 32.296875 66 21.796875 66 
C 10.796875 66 4.09375 56.3125 4.09375 47.34375 
C 4.09375 43.4375 7 42.9375 8.203125 42.9375 
C 9.203125 42.9375 12.203125 43.546875 12.203125 47.03125 
C 12.203125 50.109375 9.59375 51 8.203125 51 
C 7.59375 51 7 50.90625 6.59375 50.703125 
C 8.5 59.21875 14.296875 63.40625 20.40625 63.40625 
C 29.09375 63.40625 34.796875 56.515625 34.796875 47.421875 
C 34.796875 38.734375 29.703125 31.25 24 24.75 
L 4.09375 2.28125 
L 4.09375 0 
L 39.296875 0 
z
" id="CMR17-50"/>
       </defs>
       <use transform="scale(0.996264)" xlink:href="#CMR17-50"/>
       <use transform="translate(45.690477 0)scale(0.996264)" xlink:href="#CMR17-48"/>
       <use transform="translate(91.380954 0)scale(0.996264)" xlink:href="#CMR17-48"/>
       <use transform="translate(137.071431 0)scale(0.996264)" xlink:href="#CMR17-48"/>
      </g>
     </g>
    </g>
    <g id="xtick_3">
     <g id="line2d_3">
      <g>
       <use style="stroke:#000000;stroke-width:0.8;" x="358.226937" xlink:href="#m8e9d17262a" y="277.574739"/>
      </g>
     </g>
     <g id="text_3">
      <!-- $\mathdefault{4000}$ -->
      <g transform="translate(339.950746 298.411736)scale(0.2 -0.2)">
       <defs>
        <path d="M 33.59375 64.40625 
C 33.59375 66.5 33.5 66.5 31.703125 66.5 
L 2 19.59375 
L 2 17 
L 27.796875 17 
L 27.796875 7.140625 
C 27.796875 3.5 27.59375 2.5 20.59375 2.5 
L 18.703125 2.5 
L 18.703125 0 
C 21.90625 0 27.296875 0 30.703125 0 
C 34.09375 0 39.5 0 42.703125 0 
L 42.703125 2.5 
L 40.796875 2.5 
C 33.796875 2.5 33.59375 3.5 33.59375 7.140625 
L 33.59375 17 
L 43.796875 17 
L 43.796875 19.59375 
L 33.59375 19.59375 
z
M 28.09375 57.859375 
L 28.09375 19.59375 
L 4 19.59375 
z
" id="CMR17-52"/>
       </defs>
       <use transform="scale(0.996264)" xlink:href="#CMR17-52"/>
       <use transform="translate(45.690477 0)scale(0.996264)" xlink:href="#CMR17-48"/>
       <use transform="translate(91.380954 0)scale(0.996264)" xlink:href="#CMR17-48"/>
       <use transform="translate(137.071431 0)scale(0.996264)" xlink:href="#CMR17-48"/>
      </g>
     </g>
    </g>
    <g id="text_4">
     <!-- Epoch -->
     <g transform="translate(235.85764 320.124366)scale(0.2 -0.2)">
      <defs>
       <path d="M 60.703125 25.234375 
L 58.90625 25.234375 
C 56.703125 10.5625 55.40625 2.59375 37.796875 2.59375 
L 23.90625 2.59375 
C 19.90625 2.59375 19.703125 3.078125 19.703125 6.46875 
L 19.703125 34 
L 29.09375 34 
C 38.5 34 39.40625 30.625 39.40625 22.34375 
L 41.203125 22.34375 
L 41.203125 48.140625 
L 39.40625 48.140625 
C 39.40625 39.953125 38.5 36.59375 29.09375 36.59375 
L 19.703125 36.59375 
L 19.703125 61.140625 
C 19.703125 64.5 19.90625 65 23.90625 65 
L 37.59375 65 
C 53.09375 65 54.90625 58.890625 56.296875 45.765625 
L 58.09375 45.765625 
L 55.703125 67.578125 
L 5.09375 67.578125 
L 5.09375 65 
C 12 65 13.09375 65 13.09375 60.53125 
L 13.09375 7.046875 
C 13.09375 2.59375 12 2.59375 5.09375 2.59375 
L 5.09375 0 
L 57.09375 0 
z
" id="CMR17-69"/>
       <path d="M 22 -16.609375 
C 15.59375 -16.609375 15.203125 -16.203125 15.203125 -12.328125 
L 15.203125 6.28125 
C 18.09375 2.09375 22.296875 -0.59375 27.59375 -0.59375 
C 37.59375 -0.59375 47.703125 8.171875 47.703125 21.6875 
C 47.703125 34.234375 39 43.78125 28.703125 43.78125 
C 22.703125 43.78125 17.796875 40.5 15 36.53125 
L 15 43.78125 
L 3.09375 42.6875 
L 3.09375 40.109375 
C 9 40.109375 9.90625 39.5 9.90625 34.734375 
L 9.90625 -12.328125 
C 9.90625 -16.109375 9.5 -16.609375 3.09375 -16.609375 
L 3.09375 -19.1875 
C 5.5 -19 9.90625 -19 12.5 -19 
C 15.09375 -19 19.59375 -19 22 -19.1875 
z
M 15.203125 31.4375 
C 15.203125 32.84375 15.203125 34.921875 19.09375 38.609375 
C 19.59375 39.015625 23 42 28 42 
C 35.296875 42 41.296875 32.9375 41.296875 21.59375 
C 41.296875 10.25 34.90625 1 27 1 
C 23.40625 1 19.5 2.6875 16.5 7.375 
C 15.203125 9.5625 15.203125 10.15625 15.203125 11.75 
z
" id="CMR17-112"/>
       <path d="M 43.09375 21.1875 
C 43.09375 34 33.796875 44 22.90625 44 
C 12 44 2.703125 34 2.703125 21.1875 
C 2.703125 8.609375 12 -1 22.90625 -1 
C 33.796875 -1 43.09375 8.609375 43.09375 21.1875 
z
M 22.90625 0.796875 
C 18.203125 0.796875 14.203125 3.59375 11.90625 7.5 
C 9.40625 11.984375 9.09375 17.59375 9.09375 22 
C 9.09375 26.203125 9.296875 31.40625 11.90625 35.90625 
C 13.90625 39.203125 17.796875 42.40625 22.90625 42.40625 
C 27.40625 42.40625 31.203125 39.90625 33.59375 36.40625 
C 36.703125 31.703125 36.703125 25.109375 36.703125 22 
C 36.703125 18.09375 36.5 12.109375 33.796875 7.296875 
C 31 2.703125 26.703125 0.796875 22.90625 0.796875 
z
" id="CMR17-111"/>
       <path d="M 34.90625 35 
C 33 35 30.203125 35 30.203125 31.515625 
C 30.203125 28.71875 32.5 27.921875 33.796875 27.921875 
C 34.5 27.921875 37.40625 28.234375 37.40625 31.625 
C 37.40625 38.546875 30.59375 43.796875 22.90625 43.796875 
C 12.296875 43.796875 3.296875 34.03125 3.296875 21.296875 
C 3.296875 8.0625 12.703125 -1 22.90625 -1 
C 35.296875 -1 38.40625 10.578125 38.40625 11.6875 
C 38.40625 12.09375 38.296875 12.390625 37.59375 12.390625 
C 36.90625 12.390625 36.796875 12.296875 36.40625 10.984375 
C 33.796875 2.8125 28.09375 0.796875 23.796875 0.796875 
C 17.40625 0.796875 9.703125 6.671875 9.703125 21.390625 
C 9.703125 36.53125 17.09375 42 23 42 
C 26.90625 42 32.703125 40.203125 34.90625 35 
z
" id="CMR17-99"/>
       <path d="M 41.5 30.203125 
C 41.5 35.296875 40.5 43.59375 28.703125 43.59375 
C 20.5 43.59375 16.5 37 15.296875 33.703125 
L 15.203125 33.703125 
L 15.203125 68.6875 
L 3.296875 67.59375 
L 3.296875 65 
C 9.203125 65 10.09375 64.40625 10.09375 59.640625 
L 10.09375 6.65625 
C 10.09375 2.875 9.703125 2.390625 3.296875 2.390625 
L 3.296875 -0.203125 
C 5.703125 0 10.09375 0 12.703125 0 
C 15.296875 0 19.796875 0 22.203125 -0.203125 
L 22.203125 2.390625 
C 15.796875 2.390625 15.40625 2.78125 15.40625 6.6875 
L 15.40625 25.90625 
C 15.40625 35.109375 21 42 28 42 
C 35.40625 42 36.203125 35.40625 36.203125 30.59375 
L 36.203125 6.6875 
C 36.203125 2.875 35.796875 2.390625 29.40625 2.390625 
L 29.40625 -0.203125 
C 31.796875 0 36.203125 0 38.796875 0 
C 41.40625 0 45.90625 0 48.296875 -0.203125 
L 48.296875 2.390625 
C 41.90625 2.390625 41.5 2.78125 41.5 6.6875 
z
" id="CMR17-104"/>
      </defs>
      <use transform="scale(0.996264)" xlink:href="#CMR17-69"/>
      <use transform="translate(62.586301 0)scale(0.996264)" xlink:href="#CMR17-112"/>
      <use transform="translate(116.084109 0)scale(0.996264)" xlink:href="#CMR17-111"/>
      <use transform="translate(164.377025 0)scale(0.996264)" xlink:href="#CMR17-99"/>
      <use transform="translate(202.260231 0)scale(0.996264)" xlink:href="#CMR17-104"/>
     </g>
    </g>
   </g>
   <g id="matplotlib.axis_2">
    <g id="ytick_1">
     <g id="line2d_4">
      <defs>
       <path d="M 0 0 
L -3.5 0 
" id="m42f39339a1" style="stroke:#000000;stroke-width:0.8;"/>
      </defs>
      <g>
       <use style="stroke:#000000;stroke-width:0.8;" x="83.146352" xlink:href="#m42f39339a1" y="266.029836"/>
      </g>
     </g>
     <g id="text_5">
      <!-- $\mathdefault{0.0}$ -->
      <g transform="translate(52.450726 272.948335)scale(0.2 -0.2)">
       <defs>
        <path d="M 18.40625 4.796875 
C 18.40625 7.6875 16 9.671875 13.59375 9.671875 
C 10.703125 9.671875 8.703125 7.28125 8.703125 4.890625 
C 8.703125 2 11.09375 0 13.5 0 
C 16.40625 0 18.40625 2.390625 18.40625 4.796875 
z
" id="CMMI12-58"/>
       </defs>
       <use transform="scale(0.996264)" xlink:href="#CMR17-48"/>
       <use transform="translate(45.690477 0)scale(0.996264)" xlink:href="#CMMI12-58"/>
       <use transform="translate(72.787654 0)scale(0.996264)" xlink:href="#CMR17-48"/>
      </g>
     </g>
    </g>
    <g id="ytick_2">
     <g id="line2d_5">
      <g>
       <use style="stroke:#000000;stroke-width:0.8;" x="83.146352" xlink:href="#m42f39339a1" y="214.350887"/>
      </g>
     </g>
     <g id="text_6">
      <!-- $\mathdefault{2.5}$ -->
      <g transform="translate(52.450726 221.269385)scale(0.2 -0.2)">
       <defs>
        <path d="M 11.40625 57.6875 
C 12.40625 57.28125 16.5 56 20.703125 56 
C 30 56 35.09375 61.109375 38 64.0625 
C 38 64.953125 38 65.5 37.40625 65.5 
C 37.296875 65.5 37.09375 65.5 36.296875 65.046875 
C 32.796875 63.40625 28.703125 62.078125 23.703125 62.078125 
C 20.703125 62.078125 16.203125 62.484375 11.296875 64.671875 
C 10.203125 65.171875 10 65.171875 9.90625 65.171875 
C 9.40625 65.171875 9.296875 65.0625 9.296875 63.078125 
L 9.296875 34.421875 
C 9.296875 32.640625 9.296875 32.140625 10.296875 32.140625 
C 10.796875 32.140625 11 32.34375 11.5 33.03125 
C 14.703125 37.515625 19.09375 39.40625 24.09375 39.40625 
C 27.59375 39.40625 35.09375 37.21875 35.09375 20.140625 
C 35.09375 16.953125 35.09375 11.171875 32.09375 6.578125 
C 29.59375 2.484375 25.703125 0.390625 21.40625 0.390625 
C 14.796875 0.390625 8.09375 5 6.296875 12.71875 
C 6.703125 12.609375 7.5 12.421875 7.90625 12.421875 
C 9.203125 12.421875 11.703125 13.125 11.703125 16.21875 
C 11.703125 18.90625 9.796875 20 7.90625 20 
C 5.59375 20 4.09375 18.59375 4.09375 15.796875 
C 4.09375 7.09375 11 -2 21.59375 -2 
C 31.90625 -2 41.703125 6.875 41.703125 19.75 
C 41.703125 31.71875 33.90625 41 24.203125 41 
C 19.09375 41 14.796875 39.109375 11.40625 35.53125 
z
" id="CMR17-53"/>
       </defs>
       <use transform="scale(0.996264)" xlink:href="#CMR17-50"/>
       <use transform="translate(45.690477 0)scale(0.996264)" xlink:href="#CMMI12-58"/>
       <use transform="translate(72.787654 0)scale(0.996264)" xlink:href="#CMR17-53"/>
      </g>
     </g>
    </g>
    <g id="ytick_3">
     <g id="line2d_6">
      <g>
       <use style="stroke:#000000;stroke-width:0.8;" x="83.146352" xlink:href="#m42f39339a1" y="162.671937"/>
      </g>
     </g>
     <g id="text_7">
      <!-- $\mathdefault{5.0}$ -->
      <g transform="translate(52.450726 169.590435)scale(0.2 -0.2)">
       <use transform="scale(0.996264)" xlink:href="#CMR17-53"/>
       <use transform="translate(45.690477 0)scale(0.996264)" xlink:href="#CMMI12-58"/>
       <use transform="translate(72.787654 0)scale(0.996264)" xlink:href="#CMR17-48"/>
      </g>
     </g>
    </g>
    <g id="ytick_4">
     <g id="line2d_7">
      <g>
       <use style="stroke:#000000;stroke-width:0.8;" x="83.146352" xlink:href="#m42f39339a1" y="110.992987"/>
      </g>
     </g>
     <g id="text_8">
      <!-- $\mathdefault{7.5}$ -->
      <g transform="translate(52.450726 117.911486)scale(0.2 -0.2)">
       <defs>
        <path d="M 45.09375 61.578125 
L 45.09375 63.765625 
L 21.59375 63.765625 
C 9.90625 63.765625 9.703125 65.078125 9.296875 67 
L 7.5 67 
L 4.59375 48.34375 
L 6.40625 48.34375 
C 6.703125 50.234375 7.40625 55.3125 8.59375 57.203125 
C 9.203125 58 16.59375 58 18.296875 58 
L 40.296875 58 
L 29.203125 41.578125 
C 21.796875 30.53125 16.703125 15.609375 16.703125 2.578125 
C 16.703125 1.390625 16.703125 -2 20.296875 -2 
C 23.90625 -2 23.90625 1.390625 23.90625 2.671875 
L 23.90625 7.265625 
C 23.90625 23.5625 26.703125 34.3125 31.296875 41.1875 
z
" id="CMR17-55"/>
       </defs>
       <use transform="scale(0.996264)" xlink:href="#CMR17-55"/>
       <use transform="translate(45.690477 0)scale(0.996264)" xlink:href="#CMMI12-58"/>
       <use transform="translate(72.787654 0)scale(0.996264)" xlink:href="#CMR17-53"/>
      </g>
     </g>
    </g>
    <g id="ytick_5">
     <g id="line2d_8">
      <g>
       <use style="stroke:#000000;stroke-width:0.8;" x="83.146352" xlink:href="#m42f39339a1" y="59.314037"/>
      </g>
     </g>
     <g id="text_9">
      <!-- $\mathdefault{10.0}$ -->
      <g transform="translate(43.31263 66.232536)scale(0.2 -0.2)">
       <defs>
        <path d="M 26.59375 63.40625 
C 26.59375 65.5 26.5 65.5 25.09375 65.5 
C 21.203125 61.1875 15.296875 59.796875 9.703125 59.796875 
C 9.40625 59.796875 8.90625 59.796875 8.796875 59.5 
C 8.703125 59.296875 8.703125 59.09375 8.703125 57 
C 11.796875 57 17 57.59375 21 59.984375 
L 21 7.203125 
C 21 3.6875 20.796875 2.5 12.203125 2.5 
L 9.203125 2.5 
L 9.203125 0 
C 14 0 19 0 23.796875 0 
C 28.59375 0 33.59375 0 38.40625 0 
L 38.40625 2.5 
L 35.40625 2.5 
C 26.796875 2.5 26.59375 3.59375 26.59375 7.15625 
z
" id="CMR17-49"/>
       </defs>
       <use transform="scale(0.996264)" xlink:href="#CMR17-49"/>
       <use transform="translate(45.690477 0)scale(0.996264)" xlink:href="#CMR17-48"/>
       <use transform="translate(91.380954 0)scale(0.996264)" xlink:href="#CMMI12-58"/>
       <use transform="translate(118.478131 0)scale(0.996264)" xlink:href="#CMR17-48"/>
      </g>
     </g>
    </g>
    <g id="text_10">
     <!-- MSE Loss -->
     <g transform="translate(35.436997 189.879276)rotate(-90)scale(0.2 -0.2)">
      <defs>
       <path d="M 20.90625 66 
C 20.296875 67.5 20.203125 67.5 18.09375 67.5 
L 5.296875 67.5 
L 5.296875 65 
C 12.203125 65 13.296875 65 13.296875 60.546875 
L 13.296875 9.53125 
C 13.296875 7.046875 13.296875 2.390625 5.296875 2.390625 
L 5.296875 -0.203125 
C 7.59375 0 11.796875 0 14.296875 0 
C 16.796875 0 21 0 23.296875 -0.203125 
L 23.296875 2.390625 
C 15.296875 2.390625 15.296875 7.046875 15.296875 9.53125 
L 15.296875 64.609375 
L 15.40625 64.609375 
L 38.90625 1.390625 
C 39.296875 0.390625 39.5 -0.203125 40.296875 -0.203125 
C 41.09375 -0.203125 41.296875 0.390625 41.703125 1.390625 
L 65.40625 65.09375 
L 65.5 65.09375 
L 65.5 6.84375 
C 65.5 2.390625 64.40625 2.390625 57.5 2.390625 
L 57.5 -0.203125 
C 60.203125 0 65.59375 0 68.5 0 
C 71.40625 0 76.90625 0 79.59375 -0.203125 
L 79.59375 2.390625 
C 72.703125 2.390625 71.59375 2.390625 71.59375 6.84375 
L 71.59375 60.546875 
C 71.59375 65 72.703125 65 79.59375 65 
L 79.59375 67.5 
L 66.90625 67.5 
C 64.796875 67.5 64.703125 67.40625 64.09375 65.90625 
L 42.5 7.84375 
z
" id="CMR17-77"/>
       <path d="M 43.796875 67.03125 
C 43.796875 68.8125 43.703125 68.921875 43.09375 68.921875 
C 42.5 68.921875 42.296875 68.515625 41.90625 67.625 
L 38.90625 61.046875 
C 35.09375 66.515625 29.296875 69 23 69 
C 12.796875 69 4.59375 60.953125 4.59375 50.828125 
C 4.59375 47.75 5.296875 43.375 8.703125 39.21875 
C 12.40625 34.65625 15.90625 33.859375 23.90625 31.765625 
C 26.90625 30.96875 31.90625 29.671875 32.90625 29.28125 
C 38.59375 26.90625 41.59375 20.953125 41.59375 15.390625 
C 41.59375 8.234375 36.5 0.59375 27.796875 0.59375 
C 17.09375 0.59375 7.09375 6.546875 6.40625 20.484375 
C 6.296875 22.078125 6.203125 22.171875 5.5 22.171875 
C 4.703125 22.171875 4.59375 22.078125 4.59375 20.078125 
L 4.59375 -0.015625 
C 4.59375 -1.796875 4.703125 -1.90625 5.296875 -1.90625 
C 6 -1.90625 6.203125 -1.40625 7.59375 1.6875 
C 7.703125 1.984375 7.703125 2.1875 9.59375 5.953125 
C 14.59375 -0.609375 23 -2 27.796875 -2 
C 38.703125 -2 46.40625 7.046875 46.40625 17.5625 
C 46.40625 22.71875 44.5 26.6875 43.40625 28.484375 
C 39.203125 34.84375 34.703125 36.03125 29.90625 37.21875 
C 29.203125 37.53125 29 37.53125 23.40625 38.90625 
C 18 40.296875 15.703125 41 13.203125 43.6875 
C 10.40625 46.75 9.40625 49.9375 9.40625 53.109375 
C 9.40625 59.5625 14.59375 66.609375 23.09375 66.609375 
C 33.703125 66.609375 40.296875 59.15625 41.796875 46.765625 
C 42.09375 44.96875 42.203125 44.875 42.90625 44.875 
C 43.796875 44.875 43.796875 45.171875 43.796875 46.859375 
z
" id="CMR17-83"/>
       <path d="M 54.203125 25.234375 
L 52.40625 25.234375 
C 51.59375 15.359375 50.296875 2.59375 33.203125 2.59375 
L 23.90625 2.59375 
C 19.90625 2.59375 19.703125 3.078125 19.703125 6.46875 
L 19.703125 60.90625 
C 19.703125 64.515625 19.90625 65.5 27.5 65.5 
L 29.703125 65.5 
L 29.703125 68 
C 25.59375 68 20.796875 68 16.703125 68 
C 13.59375 68 8 68 5.09375 68 
L 5.09375 65.5 
C 12 65.5 13.09375 65.5 13.09375 61.015625 
L 13.09375 7.0625 
C 13.09375 2.59375 12 2.59375 5.09375 2.59375 
L 5.09375 0 
L 51.796875 0 
z
" id="CMR17-76"/>
       <path d="M 30.90625 42.140625 
C 30.90625 43.953125 30.796875 44.046875 30.203125 44.046875 
C 29.796875 44.046875 29.703125 43.953125 28.5 42.453125 
C 28.203125 42.046875 27.296875 41.03125 27 40.640625 
C 23.796875 44.046875 19.296875 44.046875 17.59375 44.046875 
C 6.5 44.046875 2.5 38.234375 2.5 32.4375 
C 2.5 23.40625 12.703125 21.328125 15.59375 20.703125 
C 21.90625 19.421875 24.09375 19.015625 26.203125 17.203125 
C 27.5 16.015625 29.703125 13.8125 29.703125 10.21875 
C 29.703125 6 27.296875 0.59375 18.09375 0.59375 
C 9.40625 0.59375 6.296875 7.1875 4.5 15.953125 
C 4.203125 17.34375 4.203125 17.453125 3.40625 17.453125 
C 2.59375 17.453125 2.5 17.34375 2.5 15.359375 
L 2.5 0.984375 
C 2.5 -0.796875 2.59375 -0.90625 3.203125 -0.90625 
C 3.703125 -0.90625 3.796875 -0.796875 4.296875 0 
C 4.90625 0.890625 6.40625 3.296875 7 4.3125 
C 9 1.609375 12.5 -1 18.09375 -1 
C 28 -1 33.296875 4.421875 33.296875 12.25 
C 33.296875 17.375 30.59375 20.078125 29.296875 21.28125 
C 26.296875 24.390625 22.796875 25.09375 18.59375 25.890625 
C 13.09375 27.109375 6.09375 28.515625 6.09375 34.640625 
C 6.09375 37.234375 7.5 42.765625 17.59375 42.765625 
C 28.296875 42.765625 28.90625 32.71875 29.09375 29.5 
C 29.203125 29 29.703125 28.890625 30 28.890625 
C 30.90625 28.890625 30.90625 29.203125 30.90625 30.90625 
z
" id="CMR17-115"/>
      </defs>
      <use transform="scale(0.996264)" xlink:href="#CMR17-77"/>
      <use transform="translate(84.686941 0)scale(0.996264)" xlink:href="#CMR17-83"/>
      <use transform="translate(135.58231 0)scale(0.996264)" xlink:href="#CMR17-69"/>
      <use transform="translate(228.244577 0)scale(0.996264)" xlink:href="#CMR17-76"/>
      <use transform="translate(285.625985 0)scale(0.996264)" xlink:href="#CMR17-111"/>
      <use transform="translate(331.316462 0)scale(0.996264)" xlink:href="#CMR17-115"/>
      <use transform="translate(367.1178 0)scale(0.996264)" xlink:href="#CMR17-115"/>
     </g>
    </g>
   </g>
   <g id="line2d_9">
    <path clip-path="url(#pd5a4426b0a)" d="M 99.330609 33.235215 
L 99.589505 97.141351 
L 99.783677 248.357081 
L 99.848401 184.734469 
L 99.913126 212.86924 
L 100.042574 252.428758 
L 100.236746 232.13522 
L 100.366194 241.98808 
L 100.560366 258.544017 
L 100.689815 247.602301 
L 100.754539 249.346133 
L 100.948711 259.665257 
L 101.142883 254.602869 
L 101.272331 257.436386 
L 101.401779 260.543699 
L 101.531228 258.570349 
L 101.595952 257.864114 
L 101.790124 260.751332 
L 101.854848 260.70258 
L 102.04902 259.586393 
L 102.243192 261.041441 
L 102.307917 260.978004 
L 102.437365 260.413225 
L 102.566813 260.933271 
L 102.696261 261.21412 
L 102.825709 260.926598 
L 102.890433 260.965842 
L 103.084606 261.390793 
L 103.278778 261.262902 
L 103.537674 261.499263 
L 103.667122 261.494089 
L 103.926019 261.662711 
L 104.120191 261.746468 
L 104.573259 261.941919 
L 105.285224 262.234508 
L 106.514982 262.836001 
L 108.715601 263.952001 
L 109.945358 264.255406 
L 111.56346 264.426307 
L 117.25918 264.71227 
L 130.333444 265.185289 
L 145.349431 265.343471 
L 154.734423 265.404892 
L 155.381664 265.398687 
L 156.158353 265.410705 
L 156.676146 265.381871 
L 157.06449 265.416722 
L 157.452834 265.392333 
L 157.841179 265.419299 
L 158.164799 265.406191 
L 159.394557 265.382075 
L 159.588729 265.436216 
L 159.91235 265.411322 
L 160.171246 265.43343 
L 160.494866 265.419973 
L 160.883211 265.43396 
L 161.465728 265.461096 
L 161.98352 265.376107 
L 162.177692 265.298531 
L 162.436589 265.464396 
L 162.824933 265.434599 
L 163.148554 265.449101 
L 163.601622 265.442064 
L 164.054691 265.438491 
L 165.413897 265.293203 
L 165.478621 265.176704 
L 165.543345 265.285777 
L 165.737517 265.473987 
L 165.931689 265.268053 
L 165.996413 265.359263 
L 166.190586 265.461871 
L 166.384758 265.376929 
L 166.57893 265.472252 
L 166.773102 265.420626 
L 167.031999 265.466073 
L 167.226171 265.445429 
L 167.420343 265.485859 
L 167.743964 265.495743 
L 169.167893 265.482885 
L 169.362066 265.378077 
L 169.556238 265.223588 
L 169.75041 265.511605 
L 170.138755 265.496014 
L 170.332927 265.45729 
L 170.527099 265.492726 
L 170.785995 265.483254 
L 171.627408 265.480536 
L 172.662994 265.529531 
L 172.857166 265.431455 
L 173.051338 264.968402 
L 173.245511 265.518689 
L 173.310235 265.464507 
L 173.439683 265.185773 
L 173.633855 265.502401 
L 173.698579 265.346596 
L 173.828027 265.440129 
L 173.892751 265.532003 
L 173.957475 265.463809 
L 174.0222 265.350848 
L 174.086924 265.426638 
L 174.216372 265.5304 
L 174.34582 265.415362 
L 174.410544 265.47957 
L 174.539992 265.531496 
L 174.734164 265.501399 
L 174.928337 265.508807 
L 175.122509 265.536783 
L 175.640302 265.535374 
L 175.963922 265.554228 
L 177.19368 265.451984 
L 177.452576 265.447346 
L 177.711472 265.556285 
L 178.099817 265.459344 
L 178.423437 265.552094 
L 178.682333 265.516186 
L 179.070678 265.552756 
L 179.523746 265.437628 
L 179.912091 265.510878 
L 180.235711 265.582936 
L 180.559332 265.542477 
L 180.947676 265.417309 
L 181.659641 265.596706 
L 182.242158 265.522378 
L 182.565778 265.444918 
L 182.954123 265.57523 
L 183.277743 265.390523 
L 183.666088 265.56372 
L 183.86026 265.495859 
L 184.119156 265.601656 
L 184.442777 265.595015 
L 184.766397 265.596709 
L 185.801982 265.550931 
L 185.931431 265.227527 
L 185.996155 264.754239 
L 186.125603 265.575725 
L 186.190327 265.366673 
L 186.255051 265.199613 
L 186.384499 265.580201 
L 186.449223 265.415984 
L 186.513947 265.300406 
L 186.643396 265.556364 
L 186.70812 265.407512 
L 186.772844 265.502095 
L 186.837568 265.594914 
L 186.902292 265.507803 
L 186.967016 265.483263 
L 187.096464 265.583566 
L 187.225912 265.543388 
L 187.35536 265.56671 
L 187.614257 265.567853 
L 188.45567 265.620414 
L 190.785737 265.557558 
L 191.044633 265.547859 
L 191.303529 265.630735 
L 191.691874 265.52557 
L 191.95077 265.654832 
L 192.403839 265.628743 
L 192.727459 265.641461 
L 193.05108 265.444612 
L 193.180528 265.434599 
L 193.568872 265.595426 
L 193.763045 265.528922 
L 194.086665 265.633943 
L 194.345561 265.592489 
L 194.863354 265.64273 
L 196.610904 265.681456 
L 196.740352 265.594671 
L 196.8698 264.911781 
L 196.999249 263.931818 
L 197.128697 265.625278 
L 197.258145 265.13392 
L 197.387593 265.609907 
L 197.452317 265.375811 
L 197.517041 265.144342 
L 197.646489 265.565202 
L 197.711214 265.312008 
L 197.775938 265.498182 
L 197.840662 265.656021 
L 197.905386 265.521685 
L 197.97011 265.500093 
L 198.099558 265.635417 
L 198.229006 265.570123 
L 198.358454 265.627842 
L 198.487903 265.602855 
L 198.617351 265.651574 
L 198.746799 265.626005 
L 198.940971 265.640567 
L 201.983003 265.553997 
L 202.177175 265.552808 
L 202.436072 265.720994 
L 202.88914 265.633823 
L 203.148036 265.709931 
L 203.536381 265.616858 
L 203.795277 265.732444 
L 204.054174 265.542824 
L 204.183622 265.553976 
L 204.507242 265.730479 
L 204.960311 265.672153 
L 205.219207 265.74245 
L 205.737 265.641319 
L 206.254792 265.773482 
L 207.031481 265.740865 
L 207.872894 265.792659 
L 208.002343 265.68131 
L 208.131791 265.345974 
L 208.196515 265.391229 
L 208.390687 265.7906 
L 208.455411 265.696595 
L 208.584859 265.355848 
L 208.649583 265.514315 
L 208.779032 265.792466 
L 208.843756 265.726866 
L 208.973204 265.59287 
L 209.2321 265.750469 
L 209.361548 265.616866 
L 209.426272 265.695704 
L 209.620445 265.797551 
L 209.879341 265.691327 
L 210.267685 265.760894 
L 210.526582 265.545549 
L 210.720754 265.803016 
L 210.97965 265.49334 
L 211.109099 265.798794 
L 211.173823 265.766346 
L 211.303271 265.594381 
L 211.562167 265.811785 
L 211.885788 265.766975 
L 212.144684 265.81916 
L 212.533028 265.727013 
L 212.791925 265.81615 
L 213.050821 265.528153 
L 213.115545 265.657364 
L 213.309717 265.794052 
L 213.50389 265.449842 
L 213.698062 265.80988 
L 213.892234 265.646007 
L 214.15113 265.807045 
L 214.345303 265.778584 
L 214.733647 265.812756 
L 215.121992 265.796831 
L 215.380888 265.829817 
L 215.769232 265.751832 
L 215.898681 265.829358 
L 216.157577 265.596511 
L 216.351749 265.824736 
L 216.610646 265.671307 
L 216.804818 265.829454 
L 217.063714 265.724421 
L 217.257886 265.829223 
L 217.452059 265.781136 
L 217.710955 265.838322 
L 219.84685 265.71095 
L 219.911574 265.609845 
L 219.976298 265.674259 
L 220.17047 265.834393 
L 220.364642 265.622838 
L 220.429366 265.724161 
L 220.558815 265.841809 
L 220.817711 265.77624 
L 220.947159 265.830645 
L 221.141331 265.755325 
L 221.335504 265.826611 
L 221.5944 265.842729 
L 223.147778 265.851398 
L 223.34195 265.772562 
L 223.471398 265.670874 
L 223.600846 265.786415 
L 223.730295 265.842822 
L 223.989191 265.716785 
L 224.183363 265.850585 
L 224.571708 265.829782 
L 224.960052 265.820055 
L 225.866189 265.796514 
L 226.060361 265.847701 
L 226.383982 265.79179 
L 226.578154 265.852486 
L 226.966499 265.758072 
L 227.160671 265.849701 
L 227.484291 265.731704 
L 227.743188 265.846757 
L 228.002084 265.77745 
L 228.455153 265.814841 
L 228.714049 265.797236 
L 228.908221 265.847741 
L 229.231842 265.732243 
L 229.426014 265.84941 
L 229.68491 265.737421 
L 229.879082 265.857996 
L 230.396875 265.854282 
L 230.720495 265.785021 
L 231.626633 265.829484 
L 231.820805 265.817777 
L 232.014977 265.744652 
L 232.273873 265.853037 
L 232.597494 265.799203 
L 232.921114 265.840183 
L 233.244735 265.769137 
L 233.438907 265.852207 
L 233.762527 265.736012 
L 234.021424 265.846471 
L 234.28032 265.77675 
L 234.733388 265.813775 
L 234.992285 265.817679 
L 235.315905 265.843309 
L 235.639526 265.790437 
L 235.833698 265.858368 
L 236.222042 265.807711 
L 236.416215 265.821608 
L 236.675111 265.759178 
L 236.934007 265.856104 
L 237.322352 265.818504 
L 237.645972 265.852523 
L 238.034317 265.794683 
L 238.228489 265.851412 
L 238.552109 265.775438 
L 238.746282 265.864225 
L 239.134626 265.787351 
L 239.264074 265.84964 
L 239.522971 265.720225 
L 239.846591 265.806002 
L 240.040763 265.795253 
L 240.364384 265.859995 
L 241.529417 265.817036 
L 241.723589 265.847525 
L 241.982486 265.782369 
L 242.306106 265.843586 
L 242.629727 265.814334 
L 242.888623 265.859639 
L 243.212243 265.711651 
L 243.406415 265.859148 
L 243.665312 265.710872 
L 243.924208 265.848908 
L 244.183104 265.794951 
L 244.571449 265.816871 
L 244.830345 265.797765 
L 245.089242 265.853443 
L 245.477586 265.796927 
L 245.736482 265.856802 
L 246.124827 265.828696 
L 246.383723 265.855398 
L 246.707344 265.816413 
L 246.96624 265.861259 
L 247.28986 265.757093 
L 247.484033 265.867433 
L 247.872377 265.771722 
L 248.066549 265.860888 
L 248.39017 265.787536 
L 248.649066 265.84213 
L 248.972687 265.809541 
L 249.231583 265.861261 
L 249.749376 265.865714 
L 250.072996 265.791891 
L 250.331892 265.812301 
L 250.590789 265.848044 
L 250.849685 265.754333 
L 251.173305 265.841412 
L 251.432202 265.758032 
L 251.691098 265.865758 
L 252.079442 265.810284 
L 252.273615 265.860577 
L 252.661959 265.803805 
L 252.856131 265.843402 
L 253.115028 265.721935 
L 253.373924 265.853698 
L 253.63282 265.785133 
L 254.215337 265.821639 
L 254.668406 265.873643 
L 256.415956 265.846586 
L 256.869025 265.851967 
L 257.322093 265.819156 
L 257.580989 265.85511 
L 257.969334 265.722853 
L 258.163506 265.861143 
L 258.422403 265.765293 
L 258.746023 265.867973 
L 259.134367 265.822455 
L 259.587436 265.840504 
L 259.975781 265.855666 
L 260.299401 265.822828 
L 260.558297 265.771708 
L 260.881918 265.851974 
L 261.334986 265.814291 
L 261.593883 265.85997 
L 262.046951 265.855347 
L 262.435296 265.846572 
L 262.953088 265.838452 
L 263.276709 265.857723 
L 263.729777 265.80566 
L 263.92395 265.866084 
L 264.24757 265.718418 
L 264.506466 265.861013 
L 264.830087 265.723404 
L 265.088983 265.874326 
L 265.477327 265.840439 
L 265.800948 265.85612 
L 266.189292 265.862615 
L 266.965981 265.851909 
L 267.354326 265.760752 
L 267.613222 265.865682 
L 268.001567 265.617225 
L 268.195739 265.867693 
L 268.454635 265.694669 
L 268.713532 265.861371 
L 268.972428 265.775759 
L 269.231324 265.862454 
L 269.554945 265.823417 
L 269.878565 265.866691 
L 270.525806 265.877104 
L 272.079184 265.840011 
L 272.402804 265.606028 
L 272.596977 265.865027 
L 272.920597 265.749867 
L 273.179493 265.831482 
L 273.373666 265.763482 
L 273.632562 265.869586 
L 274.020906 265.851858 
L 274.473975 265.85986 
L 275.768457 265.810229 
L 276.156801 265.84412 
L 276.480421 265.745557 
L 276.674594 265.871038 
L 276.998214 265.665559 
L 277.25711 265.865548 
L 277.516007 265.749945 
L 277.774903 265.858373 
L 278.033799 265.782939 
L 278.292696 265.873516 
L 278.68104 265.832178 
L 279.004661 265.84973 
L 279.263557 265.854167 
L 279.587177 265.864462 
L 279.910798 265.853018 
L 280.234418 265.854877 
L 280.558039 265.798181 
L 281.011107 265.855618 
L 281.399452 265.802742 
L 281.723072 265.866044 
L 282.240865 265.814624 
L 282.435037 265.873061 
L 282.888106 265.760069 
L 283.147002 265.872221 
L 283.470622 265.776009 
L 283.858967 265.860551 
L 284.70038 265.874869 
L 286.059586 265.729921 
L 286.253758 265.752987 
L 286.512654 265.866123 
L 286.900999 265.708456 
L 287.224619 265.834604 
L 287.418791 265.753891 
L 287.677688 265.870005 
L 287.936584 265.805504 
L 288.389653 265.833903 
L 288.713273 265.882465 
L 291.04334 265.819118 
L 291.36696 265.803996 
L 291.755305 265.879459 
L 292.078925 265.686564 
L 292.208373 265.554954 
L 292.273097 265.640898 
L 292.531994 265.828827 
L 292.726166 265.665047 
L 293.114511 265.79322 
L 293.308683 265.755071 
L 293.567579 265.875649 
L 293.8912 265.834007 
L 294.150096 265.870032 
L 294.53844 265.864321 
L 294.991509 265.866462 
L 296.739059 265.728117 
L 296.868507 265.709303 
L 297.192128 265.80798 
L 297.451024 265.691979 
L 297.774644 265.783347 
L 297.904093 265.661818 
L 298.033541 265.804755 
L 298.162989 265.871151 
L 298.421885 265.737091 
L 298.745506 265.857435 
L 299.069126 265.8605 
L 299.522195 265.873853 
L 301.852262 265.8719 
L 302.175882 265.768301 
L 302.370054 265.661524 
L 302.758399 265.850423 
L 303.082019 265.666231 
L 303.340916 265.859879 
L 303.535088 265.729085 
L 303.793984 265.881089 
L 304.117604 265.76866 
L 304.311777 265.884114 
L 304.700121 265.822374 
L 304.959018 265.867067 
L 305.347362 265.878469 
L 306.124051 265.886558 
L 309.101359 265.86178 
L 309.878048 265.835165 
L 310.266392 265.748069 
L 310.654737 265.851729 
L 311.043081 265.736464 
L 311.301978 265.882097 
L 311.755046 265.852774 
L 312.208115 265.870538 
L 314.602906 265.776501 
L 314.797078 265.658638 
L 315.185423 265.835298 
L 315.444319 265.689406 
L 315.573767 265.771863 
L 315.767939 265.862907 
L 316.026836 265.73962 
L 316.674076 265.879811 
L 317.903834 265.864474 
L 324.376242 265.735954 
L 324.570414 265.422608 
L 324.635139 265.549017 
L 324.829311 265.868618 
L 325.217655 265.808583 
L 325.670724 265.856863 
L 326.059068 265.876789 
L 326.641585 265.865301 
L 327.482998 265.882627 
L 329.683617 265.788166 
L 329.877789 265.48504 
L 329.942513 265.562439 
L 330.071961 265.709581 
L 330.266134 265.863273 
L 330.52503 265.716724 
L 331.042823 265.826441 
L 331.431167 265.876393 
L 331.884236 265.858864 
L 335.12044 265.746219 
L 335.314612 265.519585 
L 335.638232 265.849699 
L 335.702957 265.766257 
L 335.832405 265.589996 
L 335.897129 265.601478 
L 336.091301 265.863942 
L 336.285473 265.795752 
L 336.54437 265.857612 
L 336.803266 265.881489 
L 337.838851 265.892068 
L 339.521677 265.867953 
L 339.780574 265.871591 
L 340.233642 265.861363 
L 340.816159 265.86751 
L 341.78702 265.896038 
L 342.757881 265.771072 
L 342.952054 265.435076 
L 343.21095 265.880156 
L 343.664019 265.824564 
L 343.858191 265.87003 
L 344.181811 265.83265 
L 344.440708 265.87323 
L 344.764328 265.888941 
L 345.152673 265.830273 
L 345.476293 265.844777 
L 345.864637 265.869879 
L 346.447154 265.867572 
L 347.612188 265.9015 
L 349.877531 265.790564 
L 350.071703 265.463769 
L 350.136427 265.291457 
L 350.395323 265.829403 
L 350.524771 265.631282 
L 350.783668 265.764744 
L 350.913116 265.619976 
L 351.172012 265.869767 
L 351.366184 265.805987 
L 351.625081 265.84854 
L 351.819253 265.833688 
L 352.142873 265.865339 
L 354.084596 265.74337 
L 354.214044 265.681557 
L 354.343492 265.779809 
L 354.537664 265.875656 
L 354.796561 265.742586 
L 355.055457 265.870722 
L 355.314353 265.734014 
L 355.508526 265.885663 
L 355.767422 265.796513 
L 356.026318 265.882988 
L 356.285215 265.799333 
L 356.608835 265.872243 
L 356.867731 265.841946 
L 357.126628 265.88933 
L 357.709144 265.896223 
L 358.291661 265.86256 
L 359.845039 265.899241 
L 360.16866 265.824777 
L 360.427556 265.743045 
L 360.880624 265.822422 
L 361.074797 265.834563 
L 361.398417 265.896691 
L 361.851486 265.902088 
L 362.757623 265.887165 
L 363.016519 265.664468 
L 363.081243 265.521202 
L 363.145967 265.570377 
L 363.210691 265.577533 
L 363.404864 265.895873 
L 363.66376 265.714441 
L 363.922656 265.88797 
L 364.181553 265.78398 
L 364.440449 265.884376 
L 364.699345 265.810313 
L 364.893518 265.898578 
L 365.152414 265.828044 
L 365.41131 265.893251 
L 365.734931 265.876304 
L 366.123275 265.886012 
L 367.611929 265.699049 
L 367.676653 265.625323 
L 367.741377 265.690363 
L 368.000274 265.87512 
L 368.25917 265.843859 
L 368.647514 265.887979 
L 369.035859 265.892461 
L 369.747824 265.912801 
L 370.265616 265.81232 
L 370.524513 265.789475 
L 370.977581 265.847947 
L 371.236478 265.788577 
L 372.142615 265.912743 
L 373.566545 265.843955 
L 373.890165 265.579211 
L 374.084337 265.900664 
L 374.278509 265.785686 
L 374.472682 265.888714 
L 374.666854 265.84436 
L 374.861026 265.88072 
L 375.119923 265.903318 
L 375.508267 265.878733 
L 375.831887 265.845393 
L 376.284956 265.873722 
L 376.673301 265.890017 
L 377.191093 265.894226 
L 377.903058 265.903536 
L 378.161954 265.86907 
L 378.485575 265.835824 
L 378.873919 265.91132 
L 379.52116 265.868263 
L 379.715332 265.879111 
L 379.909505 265.856405 
L 380.233125 265.908709 
L 380.686194 265.909629 
L 381.139262 265.870779 
L 381.527607 265.845313 
L 381.786503 265.903239 
L 382.110123 265.889932 
L 382.498468 265.904233 
L 383.080985 265.921791 
L 383.598777 265.854648 
L 383.987122 265.776822 
L 384.181294 265.901151 
L 384.44019 265.827461 
L 384.763811 265.913626 
L 385.281603 265.917864 
L 386.317189 265.92606 
L 387.223326 265.832436 
L 387.482222 265.552515 
L 387.546946 265.646296 
L 387.676394 265.896095 
L 387.741119 265.851488 
L 387.870567 265.750222 
L 388.064739 265.872455 
L 388.194187 265.815549 
L 388.388359 265.898935 
L 388.647256 265.825534 
L 388.841428 265.918405 
L 389.165048 265.872527 
L 389.359221 265.894767 
L 389.618117 265.8544 
L 389.812289 265.907446 
L 390.071185 265.827208 
L 390.265358 265.915854 
L 390.524254 265.841574 
L 390.718426 265.915314 
L 390.977323 265.845681 
L 391.236219 265.881245 
L 391.430391 265.842197 
L 391.689288 265.879211 
L 391.88346 265.834573 
L 392.142356 265.891914 
L 392.336528 265.869202 
L 392.595425 265.891146 
L 392.854321 265.881301 
L 393.177941 265.915977 
L 393.95463 265.918484 
L 395.249112 265.931488 
L 395.896353 265.84046 
L 396.155249 265.75591 
L 396.414146 265.896018 
L 396.608318 265.835933 
L 396.867214 265.896031 
L 397.12611 265.78783 
L 397.385007 265.865894 
L 397.579179 265.766245 
L 397.838075 265.852169 
L 398.032248 265.856213 
L 398.22642 265.904026 
L 398.485316 265.887846 
L 398.808937 265.906835 
L 399.197281 265.920816 
L 399.97397 265.931094 
L 401.786244 265.933421 
L 402.498209 265.862041 
L 402.757106 265.799867 
L 402.951278 265.90875 
L 403.210174 265.73476 
L 403.404346 265.889625 
L 403.598519 265.688376 
L 403.792691 265.891458 
L 403.922139 265.830767 
L 404.116311 265.886598 
L 404.310484 265.823298 
L 404.504656 265.881394 
L 404.698828 265.811149 
L 404.893 265.903441 
L 405.087173 265.890208 
L 405.346069 265.909928 
L 407.158343 265.936402 
L 408.646997 265.829235 
L 408.841169 265.834764 
L 409.100066 265.905868 
L 409.358962 265.862763 
L 409.553134 265.915466 
L 409.876755 265.622197 
L 410.006203 265.904203 
L 410.070927 265.833973 
L 410.200375 265.784146 
L 410.329823 265.902549 
L 410.459271 265.825482 
L 410.653444 265.878545 
L 410.782892 265.87472 
L 410.977064 265.877162 
L 415.313578 265.815905 
L 415.443026 265.762819 
L 415.701922 265.845088 
L 415.896094 265.815571 
L 416.090266 265.891101 
L 416.284439 265.872276 
L 416.543335 265.911482 
L 416.93168 265.936081 
L 419.197022 265.893698 
L 419.455919 265.802195 
L 419.650091 265.909128 
L 419.973711 265.769439 
L 420.10316 265.918924 
L 420.167884 265.866491 
L 420.297332 265.821895 
L 420.491504 265.928588 
L 420.815124 265.924322 
L 421.591813 265.936485 
L 422.886295 265.878303 
L 423.015743 265.825434 
L 423.015743 265.825434 
" style="fill:none;stroke:#4c72b0;stroke-linecap:square;stroke-width:2;"/>
   </g>
   <g id="line2d_10">
    <path clip-path="url(#pd5a4426b0a)" d="M 99.330609 49.649665 
L 99.460057 75.67595 
L 99.589505 144.743081 
L 99.718953 253.298823 
L 99.783677 160.873522 
L 99.848401 198.718475 
L 99.97785 255.694981 
L 100.172022 235.232965 
L 100.236746 237.324749 
L 100.495642 258.672137 
L 100.62509 248.527263 
L 100.689815 250.359226 
L 100.819263 259.492996 
L 100.883987 259.134007 
L 101.078159 253.368139 
L 101.207607 256.165447 
L 101.401779 259.921919 
L 101.531228 258.592964 
L 101.7254 260.134003 
L 101.984296 257.778425 
L 102.307917 260.272314 
L 102.372641 260.225431 
L 102.502089 260.353383 
L 102.566813 260.23861 
L 102.760985 259.238771 
L 102.825709 259.284313 
L 103.214054 260.624618 
L 103.343502 260.532337 
L 103.537674 260.070717 
L 103.602398 260.106683 
L 103.990743 260.941891 
L 104.184915 260.770479 
L 104.314363 260.706655 
L 104.832156 261.227747 
L 105.026328 261.177177 
L 105.544121 261.520015 
L 105.738293 261.541394 
L 106.256086 261.849687 
L 106.514982 262.026457 
L 106.838602 262.209886 
L 107.356395 262.489924 
L 110.527875 263.575408 
L 111.692908 263.763002 
L 112.469597 263.806131 
L 114.993837 263.950004 
L 115.511629 263.96292 
L 122.113486 264.133006 
L 126.320551 264.193632 
L 126.967792 264.241552 
L 128.715342 264.307199 
L 129.686203 264.327919 
L 130.203996 264.34432 
L 132.339891 264.367854 
L 133.634372 264.361216 
L 135.834991 264.366944 
L 136.482232 264.368891 
L 150.915702 264.402889 
L 150.980426 264.070162 
L 151.04515 264.400512 
L 151.109874 264.121169 
L 151.174599 264.396067 
L 151.239323 264.314978 
L 151.304047 264.272911 
L 151.368771 264.376741 
L 151.433495 264.115974 
L 151.498219 264.399403 
L 151.562943 264.242606 
L 151.692391 264.387734 
L 151.757115 264.190516 
L 151.821839 264.376654 
L 151.886563 264.139658 
L 151.951288 264.368082 
L 152.016012 264.314465 
L 152.210184 264.184984 
L 152.274908 264.360237 
L 152.339632 264.234079 
L 152.46908 264.341403 
L 152.533804 264.216238 
L 152.598528 264.370603 
L 152.663252 264.188077 
L 152.727977 264.371027 
L 152.792701 264.338635 
L 152.857425 264.273445 
L 152.922149 264.379994 
L 152.986873 264.169183 
L 153.051597 264.370451 
L 153.116321 264.210074 
L 153.245769 264.362299 
L 153.310493 264.180839 
L 153.375217 264.383642 
L 153.439941 264.125981 
L 153.504665 264.357142 
L 153.56939 264.302656 
L 153.634114 264.259816 
L 153.698838 264.364881 
L 153.763562 264.130358 
L 153.828286 264.356545 
L 153.89301 264.223746 
L 154.022458 264.357443 
L 154.087182 264.174882 
L 154.151906 264.362812 
L 154.21663 264.168484 
L 154.281354 264.355322 
L 154.346079 264.331095 
L 154.410803 264.253651 
L 154.475527 264.371536 
L 154.540251 264.182842 
L 154.604975 264.365752 
L 154.669699 264.268251 
L 154.799147 264.352856 
L 154.863871 264.236166 
L 154.928595 264.375617 
L 154.993319 264.235606 
L 155.058043 264.379499 
L 155.122768 264.316622 
L 156.676146 264.365887 
L 156.74087 264.131873 
L 156.805594 264.357939 
L 156.870318 264.154952 
L 156.935042 264.355883 
L 156.999766 264.244781 
L 157.129214 264.329867 
L 157.323386 264.205942 
L 157.38811 264.371769 
L 157.452834 264.164483 
L 157.517559 264.367335 
L 157.582283 264.143935 
L 157.647007 264.361623 
L 157.711731 264.176401 
L 157.776455 264.359495 
L 157.841179 264.289658 
L 158.100075 264.343208 
L 158.164799 264.1634 
L 158.229523 264.352895 
L 158.294248 264.209465 
L 158.358972 264.363954 
L 158.423696 264.27698 
L 158.553144 264.3236 
L 158.941488 264.36076 
L 159.006212 264.150563 
L 159.070937 264.328489 
L 159.135661 263.96464 
L 159.200385 264.298514 
L 159.265109 263.950906 
L 159.329833 264.337671 
L 159.394557 264.214057 
L 159.524005 264.330606 
L 159.588729 264.145611 
L 159.653453 264.331777 
L 159.718177 264.07718 
L 159.782901 264.332197 
L 159.847626 264.158306 
L 159.91235 264.34537 
L 159.977074 264.301073 
L 160.171246 264.177353 
L 160.23597 264.361455 
L 160.300694 264.135821 
L 160.365418 264.357402 
L 160.430142 264.191874 
L 160.494866 264.358271 
L 160.55959 264.290936 
L 160.818487 264.363323 
L 160.883211 264.188805 
L 160.947935 264.36457 
L 161.012659 264.193231 
L 161.077383 264.362179 
L 161.142107 264.233281 
L 161.206831 264.348356 
L 161.271555 264.271201 
L 161.530452 264.350613 
L 161.724624 264.212865 
L 161.789348 264.355982 
L 161.854072 264.121599 
L 161.918796 264.331732 
L 161.98352 263.973325 
L 162.048244 264.286353 
L 162.112968 263.879315 
L 162.177692 264.327016 
L 162.242417 264.152496 
L 162.371865 264.31393 
L 162.436589 264.173624 
L 162.501313 264.336642 
L 162.566037 264.058095 
L 162.630761 264.325538 
L 162.695485 264.106246 
L 162.760209 264.350096 
L 162.824933 264.229119 
L 162.954381 264.321106 
L 163.148554 264.15759 
L 163.213278 264.346994 
L 163.278002 264.130432 
L 163.342726 264.337689 
L 163.40745 264.127226 
L 163.472174 264.342534 
L 163.536898 264.174512 
L 163.601622 264.33751 
L 163.666346 264.251406 
L 163.795795 264.301518 
L 163.860519 264.214808 
L 163.925243 264.32354 
L 163.989967 264.152589 
L 164.054691 264.350636 
L 164.119415 264.164388 
L 164.184139 264.350392 
L 164.248863 264.171484 
L 164.313587 264.349107 
L 164.378311 264.207761 
L 164.443035 264.331371 
L 164.507759 264.241404 
L 164.701932 264.334746 
L 164.896104 264.270371 
L 165.090276 264.346593 
L 165.155 264.19362 
L 165.219724 264.341374 
L 165.284448 263.977372 
L 165.349173 264.256733 
L 165.413897 263.633913 
L 165.478621 264.283706 
L 165.543345 264.029843 
L 165.608069 264.335867 
L 165.672793 264.31918 
L 165.737517 264.049859 
L 165.802241 264.297358 
L 165.866965 263.776543 
L 165.931689 264.292062 
L 165.996413 264.167774 
L 166.125861 264.356739 
L 166.190586 264.052688 
L 166.25531 264.316774 
L 166.320034 264.021828 
L 166.384758 264.358091 
L 166.449482 264.305769 
L 166.514206 264.219818 
L 166.57893 264.35217 
L 166.643654 264.072522 
L 166.708378 264.358724 
L 166.773102 264.188852 
L 166.90255 264.341193 
L 166.967275 264.203696 
L 167.031999 264.356286 
L 167.096723 264.09061 
L 167.161447 264.361762 
L 167.226171 264.240212 
L 167.355619 264.329272 
L 167.420343 264.177306 
L 167.485067 264.351937 
L 167.549791 264.173704 
L 167.614515 264.345054 
L 167.679239 264.260263 
L 167.808688 264.324719 
L 167.873412 264.223274 
L 167.938136 264.342559 
L 168.00286 264.201193 
L 168.067584 264.351329 
L 168.132308 264.191694 
L 168.197032 264.359302 
L 168.261756 264.23201 
L 168.32648 264.342935 
L 168.391204 264.252252 
L 168.585377 264.299736 
L 169.167893 264.345543 
L 169.232617 264.054144 
L 169.297342 264.29406 
L 169.362066 263.774191 
L 169.42679 264.218691 
L 169.491514 263.676303 
L 169.556238 264.264736 
L 169.620962 264.117579 
L 169.75041 264.352376 
L 169.815134 264.050973 
L 169.879858 264.28683 
L 169.944582 263.887938 
L 170.009306 264.336802 
L 170.07403 264.191601 
L 170.203479 264.332697 
L 170.268203 264.119163 
L 170.332927 264.36844 
L 170.397651 264.105417 
L 170.462375 264.338731 
L 170.527099 264.252645 
L 170.785995 264.323803 
L 170.850719 264.137874 
L 170.915444 264.325684 
L 170.980168 264.206738 
L 171.109616 264.277049 
L 171.303788 264.20587 
L 171.368512 264.342629 
L 171.433236 264.161754 
L 171.49796 264.338187 
L 171.562684 264.143014 
L 171.627408 264.341334 
L 171.692133 264.167515 
L 171.756857 264.325485 
L 171.821581 264.206851 
L 171.886305 264.329699 
L 171.951029 264.251683 
L 172.145201 264.307169 
L 172.468822 264.286266 
L 172.662994 264.333976 
L 172.727718 264.115914 
L 172.792442 264.30308 
L 172.986614 263.23963 
L 173.051338 264.153713 
L 173.116062 263.840493 
L 173.180786 264.388378 
L 173.245511 264.364696 
L 173.310235 263.705649 
L 173.374959 264.217625 
L 173.439683 263.740418 
L 173.504407 264.401992 
L 173.569131 264.380363 
L 173.633855 263.870587 
L 173.698579 264.311367 
L 173.763303 264.079535 
L 173.892751 264.395372 
L 173.957475 263.911413 
L 174.0222 264.347704 
L 174.086924 264.204289 
L 174.216372 264.28038 
L 174.281096 263.914195 
L 174.34582 264.323972 
L 174.410544 264.232701 
L 174.539992 264.297609 
L 174.604716 264.038393 
L 174.66944 264.336171 
L 174.734164 264.245934 
L 174.863613 264.307113 
L 174.928337 264.106044 
L 174.993061 264.347311 
L 175.057785 264.257007 
L 175.187233 264.335382 
L 175.251957 264.149395 
L 175.316681 264.33979 
L 175.381405 264.179351 
L 175.510853 264.314497 
L 175.575577 264.222564 
L 175.640302 264.340111 
L 175.705026 264.158459 
L 175.76975 264.360354 
L 175.834474 264.242643 
L 175.963922 264.306741 
L 176.028646 264.235423 
L 176.09337 264.341201 
L 176.158094 264.191726 
L 176.222818 264.311183 
L 176.287542 264.18512 
L 176.352266 264.314507 
L 176.416991 264.230784 
L 176.611163 264.262313 
L 176.805335 264.293272 
L 176.999507 264.052158 
L 177.064231 264.283225 
L 177.128955 263.950534 
L 177.19368 264.247802 
L 177.258404 263.880928 
L 177.323128 264.285929 
L 177.387852 263.956265 
L 177.452576 264.316629 
L 177.5173 264.198242 
L 177.646748 264.327928 
L 177.711472 264.135955 
L 177.776196 264.317691 
L 177.84092 263.976182 
L 177.905644 264.238137 
L 177.970369 263.839328 
L 178.035093 264.232982 
L 178.099817 263.994222 
L 178.164541 264.289186 
L 178.229265 264.255607 
L 178.358713 264.313037 
L 178.423437 264.100959 
L 178.488161 264.299001 
L 178.552885 263.98983 
L 178.617609 264.276279 
L 178.682333 264.104978 
L 178.747057 264.312521 
L 178.811782 264.280345 
L 178.94123 264.331525 
L 179.135402 263.987661 
L 179.200126 264.248453 
L 179.26485 263.830365 
L 179.329574 264.226306 
L 179.394298 263.859542 
L 179.459022 264.260974 
L 179.523746 263.976594 
L 179.588471 264.315652 
L 179.653195 264.240096 
L 179.782643 264.320011 
L 179.847367 264.08749 
L 179.912091 264.326276 
L 179.976815 264.053805 
L 180.041539 264.31148 
L 180.106263 264.165639 
L 180.235711 264.279393 
L 180.429884 264.174417 
L 180.494608 264.313814 
L 180.559332 264.030722 
L 180.624056 264.262591 
L 180.68878 263.876607 
L 180.753504 264.220313 
L 180.818228 263.76014 
L 180.882952 264.273946 
L 180.947676 263.93888 
L 181.0124 264.360049 
L 181.077124 264.265629 
L 181.206573 264.348918 
L 181.271297 264.123183 
L 181.336021 264.307716 
L 181.400745 264.094578 
L 181.465469 264.326752 
L 181.530193 264.214222 
L 181.659641 264.292257 
L 181.853813 264.15686 
L 181.918538 264.30488 
L 181.983262 264.113945 
L 182.047986 264.31609 
L 182.11271 264.092135 
L 182.177434 264.312598 
L 182.242158 263.998537 
L 182.306882 264.287051 
L 182.371606 263.904202 
L 182.43633 264.279319 
L 182.501054 263.921072 
L 182.565778 264.301628 
L 182.630502 264.077028 
L 182.695227 264.357142 
L 182.759951 264.292898 
L 182.889399 264.336553 
L 182.954123 264.077636 
L 183.018847 264.290403 
L 183.083571 263.893716 
L 183.148295 264.190361 
L 183.213019 263.760594 
L 183.277743 264.227501 
L 183.342467 263.892626 
L 183.407191 264.338621 
L 183.471915 264.264572 
L 183.601364 264.33445 
L 183.666088 263.991635 
L 183.730812 264.317242 
L 183.795536 263.978895 
L 183.86026 264.304718 
L 183.924984 264.2298 
L 184.054432 264.37536 
L 184.248604 264.125208 
L 184.313329 264.351444 
L 184.378053 264.193079 
L 184.507501 264.290599 
L 184.701673 264.183888 
L 184.766397 264.305944 
L 184.831121 264.160544 
L 184.895845 264.323871 
L 184.960569 264.177809 
L 185.025293 264.319392 
L 185.090018 264.207335 
L 185.154742 264.320822 
L 185.219466 264.265769 
L 185.478362 264.299649 
L 185.672534 264.148933 
L 185.737258 264.259795 
L 185.931431 262.765145 
L 186.060879 264.302594 
L 186.125603 263.987488 
L 186.319775 264.54526 
L 186.384499 264.551896 
L 186.449223 263.930931 
L 186.513947 264.447438 
L 186.578671 264.392592 
L 186.643396 263.978046 
L 186.772844 264.562778 
L 186.837568 264.393074 
L 186.902292 264.594566 
L 186.967016 264.4356 
L 187.03174 264.366745 
L 187.096464 264.481502 
L 187.161188 264.236056 
L 187.290636 264.565434 
L 187.35536 264.367631 
L 187.420084 264.56622 
L 187.484809 264.538904 
L 187.549533 264.3618 
L 187.614257 264.533684 
L 187.678981 264.469237 
L 187.743705 264.420685 
L 187.808429 264.549388 
L 187.873153 264.445341 
L 188.002601 264.539058 
L 188.067325 264.419226 
L 188.132049 264.5138 
L 189.232359 264.473644 
L 189.426531 264.512445 
L 189.685427 264.517622 
L 190.009048 264.545702 
L 190.267944 264.493748 
L 190.591565 264.532907 
L 190.785737 264.230916 
L 190.850461 264.461207 
L 190.915185 264.233662 
L 190.979909 264.498199 
L 191.044633 264.351004 
L 191.174081 264.522796 
L 191.238805 264.463485 
L 191.303529 264.555399 
L 191.497702 264.178799 
L 191.691874 264.540716 
L 191.756598 264.415523 
L 191.821322 264.50114 
L 192.080218 264.372832 
L 192.144942 264.53685 
L 192.209667 264.332691 
L 192.403839 264.569679 
L 192.662735 264.44161 
L 192.727459 264.548815 
L 192.921631 264.221837 
L 192.986356 264.405985 
L 193.05108 264.075281 
L 193.245252 264.520965 
L 193.309976 264.418509 
L 193.3747 264.500195 
L 193.439424 264.536211 
L 193.504148 264.378364 
L 193.568872 264.530156 
L 193.633596 264.252732 
L 193.827769 264.559933 
L 194.216113 264.344779 
L 194.280837 264.537609 
L 194.345561 264.389004 
L 194.410285 264.540171 
L 194.475009 264.481086 
L 194.733906 264.564947 
L 194.79863 264.452564 
L 194.863354 264.562198 
L 194.928078 264.478015 
L 194.992802 264.57775 
L 195.057526 264.486341 
L 195.251698 264.583763 
L 195.445871 264.497688 
L 195.704767 264.552479 
L 196.610904 264.53166 
L 196.740352 264.365033 
L 196.934525 262.382568 
L 197.063973 264.619064 
L 197.128697 264.166926 
L 197.193421 264.277368 
L 197.258145 264.136846 
L 197.322869 264.692358 
L 197.387593 264.611231 
L 197.452317 263.977296 
L 197.581765 264.599112 
L 197.646489 264.127365 
L 197.775938 264.594174 
L 197.840662 264.338444 
L 197.905386 264.46836 
L 198.164282 264.330894 
L 198.29373 264.50551 
L 198.358454 264.269778 
L 198.423178 264.506344 
L 198.487903 264.433394 
L 198.682075 264.388281 
L 198.811523 264.547804 
L 198.876247 264.393709 
L 198.940971 264.480432 
L 199.070419 264.504239 
L 199.264592 264.585219 
L 199.458764 264.573882 
L 199.71766 264.556943 
L 199.911832 264.622266 
L 200.106005 264.562478 
L 200.753245 264.586153 
L 200.947418 264.517317 
L 201.012142 264.567385 
L 201.206314 264.353984 
L 201.271038 264.472486 
L 201.335762 264.327574 
L 201.529934 264.531005 
L 201.594658 264.474828 
L 201.724107 264.599464 
L 201.918279 264.334289 
L 201.983003 264.453583 
L 202.047727 264.19846 
L 202.241899 264.586739 
L 202.56552 264.503577 
L 202.630244 264.326982 
L 202.694968 264.493179 
L 202.759692 264.332202 
L 202.953864 264.602968 
L 203.148036 264.552879 
L 203.342209 264.290754 
L 203.536381 264.568133 
L 203.860001 264.52444 
L 204.054174 264.203137 
L 204.248346 264.561145 
L 204.571966 264.572302 
L 204.766138 264.419673 
L 204.960311 264.627322 
L 205.866448 264.628916 
L 206.125344 264.665662 
L 206.643137 264.583556 
L 206.707861 264.471307 
L 206.772585 264.56769 
L 206.966757 264.556242 
L 207.16093 264.593085 
L 207.48455 264.587544 
L 207.872894 264.558797 
L 208.067067 264.005933 
L 208.131791 264.284272 
L 208.196515 264.226377 
L 208.325963 264.640975 
L 208.520135 263.926568 
L 208.714308 264.60164 
L 208.973204 264.323835 
L 209.102652 264.541646 
L 209.296824 264.310012 
L 209.361548 264.476275 
L 209.685169 264.479863 
L 209.749893 264.361455 
L 209.814617 264.424893 
L 210.138237 264.542839 
L 210.461858 264.296487 
L 210.591306 264.632814 
L 210.65603 264.60222 
L 210.785478 264.051062 
L 210.914926 264.156687 
L 211.044374 264.628233 
L 211.173823 264.450375 
L 211.238547 264.234091 
L 211.367995 264.490027 
L 212.209408 264.488107 
L 212.338856 264.411951 
L 212.40358 264.383037 
L 212.533028 264.53198 
L 212.791925 264.50955 
L 212.986097 264.245687 
L 213.180269 264.605807 
L 213.374441 264.312645 
L 213.439165 264.069465 
L 213.633338 264.581159 
L 213.762786 264.26525 
L 213.956958 264.460599 
L 214.15113 264.528505 
L 214.345303 264.48553 
L 214.604199 264.502484 
L 214.863095 264.472096 
L 214.992543 264.50463 
L 215.380888 264.531765 
L 215.639784 264.381219 
L 215.769232 264.603369 
L 216.092853 264.313386 
L 216.287025 264.572215 
L 216.545921 264.31632 
L 216.740094 264.605098 
L 216.934266 264.414988 
L 217.452059 264.53556 
L 217.581507 264.544945 
L 217.775679 264.519689 
L 217.905127 264.48514 
L 218.228748 264.546303 
L 218.552368 264.529002 
L 218.875988 264.508562 
L 219.070161 264.556348 
L 219.458505 264.459686 
L 219.652677 264.53971 
L 219.84685 264.268146 
L 219.911574 264.387626 
L 220.105746 264.57815 
L 220.299918 264.200732 
L 220.49409 264.538899 
L 220.623539 264.458095 
L 220.752987 264.462338 
L 223.212502 264.512787 
L 223.471398 264.356173 
L 223.66557 264.54426 
L 223.924467 264.405792 
L 224.118639 264.518774 
L 224.377535 264.471296 
L 224.506984 264.549712 
L 224.636432 264.57909 
L 224.830604 264.47544 
L 224.960052 264.488389 
L 225.024776 264.402533 
L 225.0895 264.500546 
L 225.413121 264.547673 
L 225.736741 264.490056 
L 225.930913 264.565975 
L 226.319258 264.510104 
L 226.448706 264.566487 
L 226.901775 264.50958 
L 227.031223 264.571825 
L 227.225395 264.427104 
L 227.354843 264.346368 
L 227.549015 264.638759 
L 228.002084 264.508731 
L 228.196256 264.569969 
L 228.519877 264.458988 
L 228.843497 264.556246 
L 229.102393 264.425995 
L 229.36129 264.613475 
L 229.620186 264.392217 
L 229.814358 264.563575 
L 230.202703 264.517163 
L 230.461599 264.56093 
L 231.561908 264.579974 
L 231.691357 264.593616 
L 231.885529 264.458169 
L 232.85639 264.516302 
L 233.050562 264.43902 
L 233.438907 264.526173 
L 233.633079 264.392977 
L 233.891975 264.597863 
L 234.215596 264.407531 
L 234.409768 264.615917 
L 234.798113 264.463594 
L 234.992285 264.606487 
L 235.510077 264.476744 
L 235.70425 264.602222 
L 236.092594 264.495062 
L 236.286766 264.597246 
L 236.545663 264.427617 
L 236.804559 264.595805 
L 237.12818 264.46714 
L 237.322352 264.603813 
L 237.710696 264.460534 
L 237.904869 264.533984 
L 238.422661 264.469637 
L 238.616833 264.609101 
L 238.811006 264.442986 
L 239.005178 264.439623 
L 239.19935 264.579466 
L 239.393522 264.298941 
L 239.458246 264.425683 
L 239.652419 264.618024 
L 239.781867 264.551369 
L 239.976039 264.499961 
L 240.234935 264.597151 
L 240.429108 264.529271 
L 240.62328 264.513826 
L 240.882176 264.579129 
L 241.011624 264.563728 
L 241.205797 264.489644 
L 241.658865 264.530965 
L 241.917762 264.477082 
L 242.111934 264.61025 
L 242.629727 264.541489 
L 242.759175 264.603801 
L 243.082795 264.439855 
L 243.341691 264.600688 
L 243.535864 264.406093 
L 243.924208 264.525076 
L 244.11838 264.493398 
L 244.312553 264.614978 
L 244.830345 264.592059 
L 244.959793 264.600989 
L 245.283414 264.459297 
L 245.671758 264.569836 
L 245.865931 264.499793 
L 246.189551 264.609557 
L 247.225136 264.529931 
L 247.548757 264.480398 
L 247.742929 264.461014 
L 247.937101 264.632794 
L 248.325446 264.513253 
L 248.519618 264.601017 
L 248.843238 264.52724 
L 249.037411 264.590455 
L 250.008272 264.56106 
L 250.202444 264.501643 
L 250.396616 264.599716 
L 250.914409 264.566193 
L 251.043857 264.610621 
L 251.238029 264.459388 
L 251.691098 264.534644 
L 251.949994 264.509949 
L 252.144167 264.604649 
L 252.338339 264.487772 
L 252.403063 264.400742 
L 252.467787 264.459111 
L 252.791407 264.565993 
L 252.98558 264.381662 
L 253.244476 264.62577 
L 253.568096 264.456918 
L 253.762269 264.635812 
L 254.280061 264.576165 
L 254.474234 264.604004 
L 255.05675 264.535123 
L 255.250923 264.588192 
L 255.445095 264.485811 
L 256.48068 264.585833 
L 256.610128 264.55622 
L 256.8043 264.609668 
L 256.998473 264.541311 
L 257.257369 264.548351 
L 257.386817 264.597312 
L 257.90461 264.497292 
L 258.034058 264.642171 
L 258.098782 264.594103 
L 258.22823 264.480602 
L 258.681299 264.555829 
L 258.746023 264.466454 
L 258.810747 264.5309 
L 258.940195 264.521431 
L 259.004919 264.438291 
L 259.199092 264.621036 
L 259.393264 264.566752 
L 260.234677 264.57664 
L 260.364125 264.508146 
L 260.558297 264.558762 
L 260.752469 264.5912 
L 261.205538 264.524988 
L 261.529158 264.57472 
L 261.852779 264.532417 
L 262.046951 264.607489 
L 262.435296 264.518084 
L 262.564744 264.55528 
L 262.758916 264.54836 
L 263.082536 264.628723 
L 263.600329 264.542775 
L 263.92395 264.531453 
L 264.118122 264.369511 
L 264.377018 264.598209 
L 264.700639 264.414405 
L 264.959535 264.604641 
L 265.412603 264.556109 
L 265.542052 264.63409 
L 265.99512 264.552782 
L 266.189292 264.622812 
L 266.318741 264.596067 
L 266.642361 264.606501 
L 267.030705 264.555553 
L 267.41905 264.561686 
L 267.548498 264.585759 
L 267.872119 264.292142 
L 268.131015 264.6105 
L 268.325187 264.37717 
L 268.648808 264.600878 
L 268.907704 264.477409 
L 269.101876 264.642363 
L 269.231324 264.542969 
L 269.425496 264.507632 
L 269.684393 264.636466 
L 269.878565 264.601636 
L 269.943289 264.540518 
L 270.008013 264.610368 
L 271.690839 264.604353 
L 271.949736 264.597425 
L 272.208632 264.371818 
L 272.273356 264.30119 
L 272.33808 264.387924 
L 272.532252 264.61113 
L 272.726425 264.382204 
L 273.050045 264.602522 
L 273.244217 264.433494 
L 273.567838 264.648863 
L 273.76201 264.438438 
L 273.826734 264.520909 
L 274.020906 264.593163 
L 274.215079 264.632401 
L 274.409251 264.605835 
L 274.732871 264.634008 
L 274.991768 264.630558 
L 275.250664 264.631641 
L 275.703732 264.511867 
L 275.897905 264.638408 
L 276.221525 264.468303 
L 276.286249 264.389301 
L 276.350973 264.469008 
L 276.674594 264.532708 
L 276.868766 264.382393 
L 277.192386 264.583045 
L 277.386559 264.479138 
L 277.774903 264.502121 
L 277.904351 264.472865 
L 278.163248 264.632881 
L 278.486868 264.534731 
L 278.745764 264.646678 
L 279.069385 264.592605 
L 279.457729 264.588551 
L 279.651901 264.59653 
L 280.299142 264.569456 
L 280.363866 264.477653 
L 280.42859 264.550032 
L 281.140555 264.550767 
L 281.270004 264.513267 
L 281.593624 264.652967 
L 282.111417 264.537926 
L 282.435037 264.569699 
L 282.758657 264.445158 
L 282.95283 264.610144 
L 283.341174 264.44019 
L 283.535346 264.624325 
L 283.794243 264.62034 
L 285.800689 264.593909 
L 285.930137 264.518502 
L 286.189034 264.538411 
L 286.44793 264.5615 
L 286.642102 264.46786 
L 286.706826 264.391385 
L 286.77155 264.465566 
L 286.836275 264.428178 
L 287.030447 264.631531 
L 287.936584 264.605938 
L 288.130756 264.612554 
L 288.260204 264.60264 
L 288.972169 264.629624 
L 289.101617 264.630207 
L 289.748858 264.633466 
L 289.943031 264.616877 
L 290.460823 264.648354 
L 291.690581 264.607757 
L 291.820029 264.613489 
L 292.208373 264.308899 
L 292.402546 264.650091 
L 292.596718 264.351556 
L 292.661442 264.422254 
L 292.920338 264.645692 
L 292.985062 264.56029 
L 293.114511 264.369087 
L 293.179235 264.472832 
L 293.502855 264.642483 
L 293.697027 264.449899 
L 293.8912 264.670111 
L 294.085372 264.606037 
L 296.285991 264.638 
L 296.480163 264.609513 
L 296.739059 264.460813 
L 297.127404 264.537251 
L 297.256852 264.385048 
L 297.321576 264.444236 
L 297.3863 264.392484 
L 297.580472 264.638451 
L 297.904093 264.519834 
L 298.162989 264.557923 
L 298.292437 264.401183 
L 298.616058 264.622632 
L 299.522195 264.670028 
L 299.716367 264.633957 
L 300.039987 264.62791 
L 300.23416 264.644688 
L 300.428332 264.644853 
L 300.751952 264.636289 
L 302.046434 264.551399 
L 302.240606 264.441978 
L 302.370054 264.4013 
L 302.564227 264.672324 
L 302.952571 264.338128 
L 303.146743 264.634384 
L 303.535088 264.496401 
L 303.664536 264.651401 
L 303.793984 264.529073 
L 303.923432 264.461395 
L 304.311777 264.591606 
L 304.505949 264.534726 
L 304.764845 264.652219 
L 305.670982 264.662461 
L 306.124051 264.622758 
L 306.253499 264.644552 
L 307.22436 264.642538 
L 307.612705 264.613915 
L 307.806877 264.585395 
L 307.936325 264.597918 
L 308.64829 264.642529 
L 308.842462 264.624246 
L 309.295531 264.635675 
L 309.7486 264.616411 
L 310.201668 264.332109 
L 310.39584 264.676981 
L 310.525289 264.541751 
L 310.590013 264.58906 
L 310.719461 264.520198 
L 310.784185 264.399578 
L 310.913633 264.526902 
L 311.043081 264.522072 
L 311.237254 264.639767 
L 311.49615 264.567999 
L 311.690322 264.620509 
L 312.013943 264.650332 
L 312.467011 264.627763 
L 312.790631 264.639448 
L 314.344009 264.594644 
L 314.797078 264.364884 
L 314.99125 264.681458 
L 315.379595 264.328764 
L 315.573767 264.612092 
L 315.962112 264.40874 
L 316.156284 264.669202 
L 316.350456 264.482952 
L 316.41518 264.554258 
L 316.7388 264.685109 
L 316.932973 264.596599 
L 317.062421 264.626666 
L 317.127145 264.576135 
L 317.321317 264.660111 
L 317.450765 264.613054 
L 317.774386 264.652007 
L 318.939419 264.665181 
L 319.457212 264.622645 
L 319.780832 264.632896 
L 320.169177 264.640773 
L 320.428073 264.567942 
L 320.557521 264.617059 
L 320.816418 264.650438 
L 321.269486 264.587575 
L 321.398934 264.583237 
L 321.787279 264.681616 
L 322.175623 264.59308 
L 322.43452 264.657297 
L 323.017036 264.619226 
L 323.275933 264.665434 
L 324.311518 264.514743 
L 324.376242 264.460262 
L 324.50569 264.189008 
L 324.635139 264.596087 
L 324.699863 264.462075 
L 324.829311 264.707072 
L 324.958759 264.54902 
L 325.023483 264.375168 
L 325.088207 264.475164 
L 325.152931 264.626221 
L 325.217655 264.593016 
L 325.735448 264.584312 
L 326.123792 264.70309 
L 329.489445 264.649898 
L 329.748341 264.428546 
L 329.877789 264.232674 
L 330.071961 264.65805 
L 330.20141 264.620784 
L 330.330858 264.511099 
L 330.395582 264.357259 
L 330.460306 264.471923 
L 330.719202 264.650942 
L 331.172271 264.588679 
L 331.366443 264.654428 
L 333.243441 264.683106 
L 333.890682 264.682832 
L 334.926268 264.618775 
L 335.314612 264.191529 
L 335.508784 264.69776 
L 335.702957 264.285619 
L 335.767681 264.488307 
L 335.832405 264.384229 
L 335.897129 264.388741 
L 336.026577 264.667023 
L 336.156025 264.432379 
L 336.220749 264.376736 
L 336.414921 264.674276 
L 336.609094 264.55921 
L 336.803266 264.59015 
L 336.997438 264.629445 
L 337.256335 264.632098 
L 338.744988 264.654551 
L 339.392229 264.6313 
L 339.586401 264.678066 
L 339.974746 264.597796 
L 341.075055 264.652328 
L 341.333952 264.663414 
L 341.722296 264.678711 
L 342.628433 264.554496 
L 342.88733 264.202224 
L 342.952054 264.286424 
L 343.146226 264.687547 
L 343.469846 264.4007 
L 343.53457 264.554547 
L 343.664019 264.586443 
L 344.117087 264.638423 
L 344.311259 264.624518 
L 344.505432 264.601575 
L 344.829052 264.639066 
L 345.152673 264.582249 
L 345.735189 264.663985 
L 346.123534 264.555415 
L 347.547464 264.673792 
L 348.453601 264.667956 
L 348.906669 264.672318 
L 349.489186 264.669964 
L 349.812806 264.529118 
L 350.006979 264.222781 
L 350.071703 264.098148 
L 350.136427 264.133183 
L 350.265875 264.639635 
L 350.330599 264.587021 
L 350.460047 264.279099 
L 350.524771 264.369713 
L 350.589495 264.647471 
L 350.65422 264.590066 
L 350.848392 264.237463 
L 350.97784 264.525518 
L 351.172012 264.510908 
L 351.30146 264.572258 
L 351.366184 264.492042 
L 351.495633 264.660694 
L 351.689805 264.438451 
L 351.754529 264.588147 
L 351.883977 264.693181 
L 352.078149 264.61236 
L 352.466494 264.676407 
L 352.660666 264.6297 
L 352.984286 264.705954 
L 353.243183 264.67759 
L 353.8257 264.663219 
L 354.14932 264.436575 
L 354.408216 264.688212 
L 354.667113 264.372856 
L 354.926009 264.626136 
L 355.184905 264.361644 
L 355.379077 264.686189 
L 355.702698 264.493694 
L 355.767422 264.512008 
L 355.89687 264.716437 
L 356.155766 264.38336 
L 356.285215 264.599228 
L 356.349939 264.575852 
L 356.479387 264.674356 
L 356.673559 264.483805 
L 356.867731 264.675263 
L 357.061904 264.611645 
L 357.514972 264.534767 
L 357.709144 264.651862 
L 358.356385 264.501321 
L 358.485833 264.64545 
L 358.74473 264.639761 
L 359.003626 264.620529 
L 359.391971 264.51024 
L 359.845039 264.648286 
L 360.039211 264.533488 
L 360.362832 264.367589 
L 360.557004 264.61461 
L 360.686452 264.574501 
L 360.880624 264.507996 
L 362.822347 264.480444 
L 363.081243 264.163075 
L 363.275416 264.597657 
L 363.404864 264.497607 
L 363.534312 264.258948 
L 363.728484 264.573318 
L 364.116829 264.361909 
L 364.311001 264.577535 
L 364.505173 264.384119 
L 364.569897 264.454255 
L 364.764069 264.649693 
L 364.893518 264.510725 
L 365.022966 264.408601 
L 365.217138 264.610396 
L 365.605482 264.503701 
L 365.734931 264.622072 
L 366.058551 264.567792 
L 366.382171 264.550001 
L 366.51162 264.564437 
L 366.705792 264.593098 
L 367.482481 264.412637 
L 367.547205 264.268651 
L 367.611929 264.349086 
L 367.676653 264.332084 
L 367.870825 264.592776 
L 368.388618 264.489505 
L 368.647514 264.502746 
L 368.776962 264.539965 
L 368.906411 264.521299 
L 369.035859 264.55657 
L 369.165307 264.599311 
L 369.424203 264.547558 
L 370.589237 264.488043 
L 370.718685 264.604871 
L 371.171754 264.324499 
L 371.365926 264.51541 
L 373.566545 264.418687 
L 373.760717 264.160627 
L 374.019613 264.61331 
L 374.213785 264.310903 
L 374.343234 264.563026 
L 374.537406 264.437865 
L 374.666854 264.529391 
L 374.861026 264.453098 
L 375.184647 264.547226 
L 375.767163 264.495612 
L 376.02606 264.559109 
L 377.644162 264.419103 
L 377.838334 264.540687 
L 378.485575 264.404296 
L 378.679747 264.562161 
L 378.873919 264.484962 
L 379.262264 264.310523 
L 379.456436 264.468835 
L 379.585884 264.543747 
L 379.780056 264.409302 
L 379.974229 264.508728 
L 380.362573 264.430552 
L 380.750918 264.51447 
L 381.074538 264.420355 
L 381.333434 264.362635 
L 381.657055 264.512038 
L 381.980675 264.473368 
L 382.304296 264.481591 
L 382.563192 264.462569 
L 382.757364 264.463874 
L 383.145709 264.486518 
L 383.404605 264.444674 
L 383.857674 264.271664 
L 384.051846 264.517843 
L 384.181294 264.416114 
L 384.310742 264.272638 
L 384.569639 264.469929 
L 385.216879 264.487294 
L 386.123016 264.479218 
L 387.029154 264.427076 
L 387.28805 264.224536 
L 387.417498 264.116793 
L 387.61167 264.427605 
L 388.194187 264.454047 
L 388.323635 264.489077 
L 388.453083 264.26999 
L 388.71198 264.498063 
L 389.0356 264.409546 
L 389.229772 264.534755 
L 389.423945 264.380252 
L 389.747565 264.452381 
L 390.006461 264.436281 
L 390.200634 264.491241 
L 390.394806 264.341535 
L 390.588978 264.541439 
L 390.718426 264.433667 
L 390.847874 264.316062 
L 391.042047 264.548964 
L 391.365667 264.416919 
L 391.559839 264.508168 
L 391.754012 264.328985 
L 392.012908 264.524459 
L 392.271804 264.447785 
L 392.465977 264.475188 
L 392.724873 264.392397 
L 392.983769 264.500114 
L 393.177941 264.463069 
L 393.436838 264.479866 
L 393.95463 264.485083 
L 395.37856 264.455132 
L 395.766905 264.428314 
L 395.961077 264.278087 
L 396.090525 264.356283 
L 396.349421 264.421941 
L 396.47887 264.300585 
L 396.673042 264.465887 
L 396.80249 264.39379 
L 396.931938 264.235231 
L 397.255559 264.488881 
L 397.514455 264.228116 
L 397.643903 264.53203 
L 397.708627 264.509021 
L 397.902799 264.23715 
L 398.096972 264.503599 
L 398.420592 264.406772 
L 398.614764 264.506026 
L 398.938385 264.393694 
L 399.132557 264.491179 
L 399.520901 264.466047 
L 400.362315 264.464456 
L 400.621211 264.457673 
L 401.268452 264.484831 
L 401.592072 264.456135 
L 402.109865 264.462447 
L 402.498209 264.340597 
L 402.692382 264.34132 
L 402.82183 264.529514 
L 403.016002 264.158028 
L 403.080726 264.219975 
L 403.339622 264.457042 
L 403.46907 264.140191 
L 403.598519 264.303209 
L 403.727967 264.572781 
L 403.922139 264.371091 
L 403.986863 264.473278 
L 404.051587 264.378971 
L 404.116311 264.301656 
L 404.181035 264.360953 
L 404.375208 264.526971 
L 404.504656 264.152258 
L 404.56938 264.239753 
L 404.828276 264.502463 
L 406.31693 264.4751 
L 406.705275 264.481509 
L 406.964171 264.495465 
L 407.870308 264.463945 
L 408.323377 264.454019 
L 408.517549 264.343271 
L 408.646997 264.333754 
L 409.100066 264.351899 
L 409.229514 264.404835 
L 409.423686 264.521485 
L 409.48841 264.505567 
L 409.682582 264.1667 
L 409.812031 264.236461 
L 409.941479 264.50485 
L 410.135651 264.373504 
L 410.459271 264.572182 
L 410.782892 264.542003 
L 410.91234 264.376977 
L 410.977064 264.468216 
L 411.106512 264.55339 
L 411.300684 264.513439 
L 411.559581 264.520092 
L 411.753753 264.470231 
L 411.947925 264.508676 
L 412.465718 264.512994 
L 412.854062 264.541343 
L 413.112959 264.538357 
L 413.7602 264.509672 
L 413.954372 264.415167 
L 414.148544 264.556224 
L 414.472164 264.493775 
L 414.666337 264.542861 
L 414.860509 264.345677 
L 415.119405 264.558627 
L 415.313578 264.241591 
L 415.572474 264.596163 
L 415.766646 264.247768 
L 415.960818 264.600924 
L 416.219715 264.417655 
L 416.413887 264.571224 
L 419.067574 264.552409 
L 419.132298 264.390479 
L 419.197022 264.447325 
L 419.391195 264.323578 
L 419.520643 264.622503 
L 419.844263 264.363222 
L 420.038435 264.66939 
L 420.10316 264.587572 
L 420.232608 264.342479 
L 420.297332 264.403692 
L 420.491504 264.628622 
L 420.879849 264.5971 
L 421.009297 264.650058 
L 421.203469 264.560794 
L 421.397641 264.608185 
L 421.785986 264.575336 
L 421.980158 264.590204 
L 422.044882 264.521927 
L 422.109606 264.586603 
L 422.433227 264.535394 
L 422.627399 264.609091 
L 422.756847 264.539666 
L 423.015743 264.520357 
L 423.015743 264.520357 
" style="fill:none;stroke:#dd8452;stroke-linecap:square;stroke-width:2;"/>
   </g>
   <g id="patch_3">
    <path d="M 83.146352 277.574739 
L 83.146352 21.6 
" style="fill:none;stroke:#000000;stroke-linecap:square;stroke-linejoin:miter;stroke-width:0.8;"/>
   </g>
   <g id="patch_4">
    <path d="M 439.2 277.574739 
L 439.2 21.6 
" style="fill:none;stroke:#000000;stroke-linecap:square;stroke-linejoin:miter;stroke-width:0.8;"/>
   </g>
   <g id="patch_5">
    <path d="M 83.146352 277.574739 
L 439.2 277.574739 
" style="fill:none;stroke:#000000;stroke-linecap:square;stroke-linejoin:miter;stroke-width:0.8;"/>
   </g>
   <g id="patch_6">
    <path d="M 83.146352 21.6 
L 439.2 21.6 
" style="fill:none;stroke:#000000;stroke-linecap:square;stroke-linejoin:miter;stroke-width:0.8;"/>
   </g>
   <g id="legend_1">
    <g id="line2d_11">
     <path d="M 248.747749 46.6 
L 288.747749 46.6 
" style="fill:none;stroke:#4c72b0;stroke-linecap:square;stroke-width:2;"/>
    </g>
    <g id="line2d_12"/>
    <g id="text_11">
     <!-- Train loss -->
     <g transform="translate(304.747749 53.6)scale(0.2 -0.2)">
      <defs>
       <path d="M 62.203125 67.59375 
L 4.5 67.59375 
L 2.796875 45.59375 
L 4.59375 45.59375 
C 5.90625 62.125 7.296875 65 22.703125 65 
C 24.5 65 27.40625 65 28.203125 64.90625 
C 30.09375 64.609375 30.09375 63.40625 30.09375 61.125 
L 30.09375 7.171875 
C 30.09375 3.59375 29.796875 2.5 21.5 2.5 
L 18.703125 2.5 
L 18.703125 0 
C 23.5 0 28.5 0 33.40625 0 
C 38.296875 0 43.296875 0 48.09375 0 
L 48.09375 2.5 
L 45.296875 2.5 
C 37 2.5 36.703125 3.59375 36.703125 7.171875 
L 36.703125 61.125 
C 36.703125 63.3125 36.703125 64.515625 38.5 64.90625 
C 39.296875 65 42.203125 65 44 65 
C 59.296875 65 60.796875 62.125 62.09375 45.59375 
L 63.90625 45.59375 
z
" id="CMR17-84"/>
       <path d="M 15 23.390625 
C 15 33 19.09375 42 26.59375 42 
C 27.296875 42 28 41.90625 28.703125 41.59375 
C 28.703125 41.59375 26.5 40.890625 26.5 38.3125 
C 26.5 35.90625 28.40625 34.90625 29.90625 34.90625 
C 31.09375 34.90625 33.296875 35.609375 33.296875 38.40625 
C 33.296875 41.609375 30.09375 43.59375 26.703125 43.59375 
C 19.09375 43.59375 15.796875 36.203125 14.796875 32.703125 
L 14.703125 32.703125 
L 14.703125 43.59375 
L 3.09375 42.5 
L 3.09375 39.90625 
C 9 39.90625 9.90625 39.296875 9.90625 34.5 
L 9.90625 6.6875 
C 9.90625 2.875 9.5 2.390625 3.09375 2.390625 
L 3.09375 -0.203125 
C 5.5 0 10.09375 0 12.703125 0 
C 15.59375 0 20.703125 0 23.40625 -0.203125 
L 23.40625 2.390625 
C 16.203125 2.390625 15 2.390625 15 6.875 
z
" id="CMR17-114"/>
       <path d="M 36 25.828125 
C 36 32.375 36 35.84375 31.796875 39.734375 
C 28.09375 43 23.796875 44 20.40625 44 
C 12.5 44 6.796875 37.609375 6.796875 30.796875 
C 6.796875 27 9.796875 27 10.40625 27 
C 11.703125 27 14 27.78125 14 30.53125 
C 14 33 12.09375 34.078125 10.40625 34.078125 
C 10 34.078125 9.5 33.96875 9.203125 33.875 
C 11.296875 40.5 16.703125 42.40625 20.203125 42.40625 
C 25.203125 42.40625 30.703125 37.953125 30.703125 29.453125 
L 30.703125 25 
C 24.796875 25 17.703125 24.203125 12.09375 21.203125 
C 5.796875 17.703125 4 12.703125 4 8.90625 
C 4 1.203125 13 -1 18.296875 -1 
C 23.796875 -1 28.90625 2.171875 31.09375 7.984375 
C 31.296875 3.640625 34.09375 -0.28125 38.5 -0.28125 
C 40.59375 -0.28125 45.90625 1.09375 45.90625 8.859375 
L 45.90625 14.375 
L 44.09375 14.375 
L 44.09375 8.78125 
C 44.09375 2.78125 41.40625 2 40.09375 2 
C 36 2 36 7.15625 36 11.53125 
z
M 30.703125 13.59375 
C 30.703125 4.953125 24.5 0.59375 19 0.59375 
C 14 0.59375 10.09375 4.296875 10.09375 8.90625 
C 10.09375 11.890625 11.40625 17.1875 17.203125 20.390625 
C 22 23.09375 27.5 23.5 30.703125 23.5 
z
" id="CMR17-97"/>
       <path d="M 15.5 61.078125 
C 15.5 63.265625 13.703125 65.15625 11.40625 65.15625 
C 9.203125 65.15625 7.296875 63.375 7.296875 61.078125 
C 7.296875 58.890625 9.09375 57 11.40625 57 
C 13.59375 57 15.5 58.796875 15.5 61.078125 
z
M 3.796875 42.28125 
L 3.796875 39.703125 
C 9.40625 39.703125 10.203125 39.09375 10.203125 34.328125 
L 10.203125 6.671875 
C 10.203125 2.875 9.796875 2.390625 3.40625 2.390625 
L 3.40625 -0.203125 
C 5.796875 0 10.09375 0 12.59375 0 
C 15 0 19.09375 0 21.40625 -0.203125 
L 21.40625 2.390625 
C 15.5 2.390625 15.296875 2.984375 15.296875 6.5625 
L 15.296875 43.375 
z
" id="CMR17-105"/>
       <path d="M 41.5 30.203125 
C 41.5 35.296875 40.5 43.59375 28.703125 43.59375 
C 20.796875 43.59375 16.703125 37.5 15.203125 33.5 
L 15.09375 33.5 
L 15.09375 43.59375 
L 3.296875 42.5 
L 3.296875 39.90625 
C 9.203125 39.90625 10.09375 39.296875 10.09375 34.5 
L 10.09375 6.6875 
C 10.09375 2.875 9.703125 2.390625 3.296875 2.390625 
L 3.296875 -0.203125 
C 5.703125 0 10.09375 0 12.703125 0 
C 15.296875 0 19.796875 0 22.203125 -0.203125 
L 22.203125 2.390625 
C 15.796875 2.390625 15.40625 2.78125 15.40625 6.6875 
L 15.40625 25.90625 
C 15.40625 35.109375 21 42 28 42 
C 35.40625 42 36.203125 35.40625 36.203125 30.59375 
L 36.203125 6.6875 
C 36.203125 2.875 35.796875 2.390625 29.40625 2.390625 
L 29.40625 -0.203125 
C 31.796875 0 36.203125 0 38.796875 0 
C 41.40625 0 45.90625 0 48.296875 -0.203125 
L 48.296875 2.390625 
C 41.90625 2.390625 41.5 2.78125 41.5 6.6875 
z
" id="CMR17-110"/>
       <path d="M 15.296875 68.6875 
L 3.40625 67.59375 
L 3.40625 65 
C 9.296875 65 10.203125 64.40625 10.203125 59.640625 
L 10.203125 6.65625 
C 10.203125 2.875 9.796875 2.390625 3.40625 2.390625 
L 3.40625 -0.203125 
C 5.796875 0 10.203125 0 12.703125 0 
C 15.296875 0 19.703125 0 22.09375 -0.203125 
L 22.09375 2.390625 
C 15.703125 2.390625 15.296875 2.78125 15.296875 6.65625 
z
" id="CMR17-108"/>
      </defs>
      <use transform="scale(0.996264)" xlink:href="#CMR17-84"/>
      <use transform="translate(58.702625 0)scale(0.996264)" xlink:href="#CMR17-114"/>
      <use transform="translate(93.983393 0)scale(0.996264)" xlink:href="#CMR17-97"/>
      <use transform="translate(139.67387 0)scale(0.996264)" xlink:href="#CMR17-105"/>
      <use transform="translate(164.544929 0)scale(0.996264)" xlink:href="#CMR17-110"/>
      <use transform="translate(245.516265 0)scale(0.996264)" xlink:href="#CMR17-108"/>
      <use transform="translate(270.387323 0)scale(0.996264)" xlink:href="#CMR17-111"/>
      <use transform="translate(316.0778 0)scale(0.996264)" xlink:href="#CMR17-115"/>
      <use transform="translate(351.879138 0)scale(0.996264)" xlink:href="#CMR17-115"/>
     </g>
    </g>
    <g id="line2d_13">
     <path d="M 248.747749 74.878125 
L 288.747749 74.878125 
" style="fill:none;stroke:#dd8452;stroke-linecap:square;stroke-width:2;"/>
    </g>
    <g id="line2d_14"/>
    <g id="text_12">
     <!-- Validation loss -->
     <g transform="translate(304.747749 81.878125)scale(0.2 -0.2)">
      <defs>
       <path d="M 59 58.515625 
C 59.90625 60.71875 61.5 65 68.203125 65 
L 68.203125 67.6875 
C 65.90625 67.484375 63.296875 67.484375 60.796875 67.484375 
C 58.40625 67.484375 54.296875 67.484375 52 67.6875 
L 52 65 
C 57 65 57.203125 61.5 57.203125 60.90625 
C 57.203125 59.796875 56.90625 59.109375 56.59375 58.3125 
L 36.90625 6.96875 
L 16.296875 60.71875 
C 16 61.421875 15.796875 61.921875 15.796875 62.40625 
C 15.796875 65 19.796875 65 21.90625 65 
L 21.90625 67.484375 
C 18.703125 67.484375 14 67.484375 10.703125 67.484375 
C 8.09375 67.484375 3.40625 67.484375 1 67.6875 
L 1 65 
C 6.796875 65 7.90625 64.609375 9.09375 61.421875 
L 32.90625 -0.40625 
C 33.40625 -1.796875 33.5 -2 34.59375 -2 
C 35.703125 -2 35.796875 -1.796875 36.296875 -0.40625 
z
" id="CMR17-86"/>
       <path d="M 29.203125 67.59375 
L 29.203125 65 
C 35.09375 65 36 64.40625 36 59.6875 
L 36 36.640625 
C 35.59375 37.140625 31.5 43.59375 23.40625 43.59375 
C 13.203125 43.59375 3.296875 34.5 3.296875 21.3125 
C 3.296875 8.203125 12.59375 -1 22.40625 -1 
C 30.90625 -1 35.296875 5.265625 35.796875 5.9375 
L 35.796875 -0.984375 
L 47.90625 -0.984375 
L 47.90625 2 
C 42 2 41.09375 2.59375 41.09375 7.390625 
L 41.09375 68.6875 
z
M 35.796875 11.796875 
C 35.796875 8.796875 34 6.09375 31.703125 4.09375 
C 28.296875 1.09375 24.90625 0.59375 23 0.59375 
C 20.09375 0.59375 9.703125 2.09375 9.703125 21.1875 
C 9.703125 40.8125 21.296875 42 23.90625 42 
C 28.5 42 32.203125 39.40625 34.5 35.796875 
C 35.796875 33.703125 35.796875 33.40625 35.796875 31.609375 
z
" id="CMR17-100"/>
       <path d="M 15.09375 40 
L 29.09375 40 
L 29.09375 42.578125 
L 15.09375 42.578125 
L 15.09375 61 
L 13.296875 61 
C 13.09375 50.703125 9.59375 41.6875 1.09375 41.6875 
L 1.09375 40 
L 9.796875 40 
L 9.796875 12.046875 
C 9.796875 10.15625 9.796875 -1 21.40625 -1 
C 27.296875 -1 30.703125 4.78125 30.703125 12.140625 
L 30.703125 17.8125 
L 28.90625 17.8125 
L 28.90625 12.234375 
C 28.90625 5.375 26.203125 0.796875 22 0.796875 
C 19.09375 0.796875 15.09375 2.78125 15.09375 11.84375 
z
" id="CMR17-116"/>
      </defs>
      <use transform="scale(0.996264)" xlink:href="#CMR17-86"/>
      <use transform="translate(61.265174 0)scale(0.996264)" xlink:href="#CMR17-97"/>
      <use transform="translate(106.955652 0)scale(0.996264)" xlink:href="#CMR17-108"/>
      <use transform="translate(131.82671 0)scale(0.996264)" xlink:href="#CMR17-105"/>
      <use transform="translate(156.697768 0)scale(0.996264)" xlink:href="#CMR17-100"/>
      <use transform="translate(207.593138 0)scale(0.996264)" xlink:href="#CMR17-97"/>
      <use transform="translate(253.283615 0)scale(0.996264)" xlink:href="#CMR17-116"/>
      <use transform="translate(288.564383 0)scale(0.996264)" xlink:href="#CMR17-105"/>
      <use transform="translate(313.435442 0)scale(0.996264)" xlink:href="#CMR17-111"/>
      <use transform="translate(359.125919 0)scale(0.996264)" xlink:href="#CMR17-110"/>
      <use transform="translate(440.097255 0)scale(0.996264)" xlink:href="#CMR17-108"/>
      <use transform="translate(464.968313 0)scale(0.996264)" xlink:href="#CMR17-111"/>
      <use transform="translate(510.658791 0)scale(0.996264)" xlink:href="#CMR17-115"/>
      <use transform="translate(546.460128 0)scale(0.996264)" xlink:href="#CMR17-115"/>
     </g>
    </g>
   </g>
  </g>
 </g>
 <defs>
  <clipPath id="pd5a4426b0a">
   <rect height="255.974739" width="356.053648" x="83.146352" y="21.6"/>
  </clipPath>
 </defs>
</svg>
