<?xml version="1.0" encoding="utf-8" standalone="no"?>
<!DOCTYPE svg PUBLIC "-//W3C//DTD SVG 1.1//EN"
  "http://www.w3.org/Graphics/SVG/1.1/DTD/svg11.dtd">
<!-- Created with matplotlib (https://matplotlib.org/) -->
<svg height="345.6pt" version="1.1" viewBox="0 0 460.8 345.6" width="460.8pt" xmlns="http://www.w3.org/2000/svg" xmlns:xlink="http://www.w3.org/1999/xlink">
 <metadata>
  <rdf:RDF xmlns:cc="http://creativecommons.org/ns#" xmlns:dc="http://purl.org/dc/elements/1.1/" xmlns:rdf="http://www.w3.org/1999/02/22-rdf-syntax-ns#">
   <cc:Work>
    <dc:type rdf:resource="http://purl.org/dc/dcmitype/StillImage"/>
    <dc:date>2022-09-19T12:33:48.101092</dc:date>
    <dc:format>image/svg+xml</dc:format>
    <dc:creator>
     <cc:Agent>
      <dc:title>Matplotlib v3.3.4, https://matplotlib.org/</dc:title>
     </cc:Agent>
    </dc:creator>
   </cc:Work>
  </rdf:RDF>
 </metadata>
 <defs>
  <style type="text/css">*{stroke-linecap:butt;stroke-linejoin:round;}</style>
 </defs>
 <g id="figure_1">
  <g id="patch_1">
   <path d="M 0 345.6 
L 460.8 345.6 
L 460.8 0 
L 0 0 
z
" style="fill:#ffffff;"/>
  </g>
  <g id="axes_1">
   <g id="patch_2">
    <path d="M 93.039374 294.68419 
L 367.760626 294.68419 
L 367.760626 19.962938 
L 93.039374 19.962938 
z
" style="fill:#ffffff;"/>
   </g>
   <g id="PathCollection_1">
    <defs>
     <path d="M 0 2.236068 
C 0.593012 2.236068 1.161816 2.000462 1.581139 1.581139 
C 2.000462 1.161816 2.236068 0.593012 2.236068 0 
C 2.236068 -0.593012 2.000462 -1.161816 1.581139 -1.581139 
C 1.161816 -2.000462 0.593012 -2.236068 0 -2.236068 
C -0.593012 -2.236068 -1.161816 -2.000462 -1.581139 -1.581139 
C -2.000462 -1.161816 -2.236068 -0.593012 -2.236068 0 
C -2.236068 0.593012 -2.000462 1.161816 -1.581139 1.581139 
C -1.161816 2.000462 -0.593012 2.236068 0 2.236068 
z
" id="mf44dfe3e25" style="stroke:#000000;stroke-width:0.4;"/>
    </defs>
    <g clip-path="url(#p9a00b3babf)">
     <use style="fill:#4c72b0;stroke:#000000;stroke-width:0.4;" x="178.217498" xlink:href="#mf44dfe3e25" y="202.600206"/>
     <use style="fill:#4c72b0;stroke:#000000;stroke-width:0.4;" x="181.594303" xlink:href="#mf44dfe3e25" y="202.719245"/>
     <use style="fill:#4c72b0;stroke:#000000;stroke-width:0.4;" x="226.944891" xlink:href="#mf44dfe3e25" y="177.899641"/>
     <use style="fill:#4c72b0;stroke:#000000;stroke-width:0.4;" x="180.133666" xlink:href="#mf44dfe3e25" y="188.823893"/>
     <use style="fill:#4c72b0;stroke:#000000;stroke-width:0.4;" x="186.90728" xlink:href="#mf44dfe3e25" y="181.9181"/>
     <use style="fill:#4c72b0;stroke:#000000;stroke-width:0.4;" x="174.438135" xlink:href="#mf44dfe3e25" y="218.775934"/>
     <use style="fill:#4c72b0;stroke:#000000;stroke-width:0.4;" x="238.822433" xlink:href="#mf44dfe3e25" y="163.924834"/>
     <use style="fill:#4c72b0;stroke:#000000;stroke-width:0.4;" x="195.483538" xlink:href="#mf44dfe3e25" y="175.722815"/>
     <use style="fill:#4c72b0;stroke:#000000;stroke-width:0.4;" x="185.164048" xlink:href="#mf44dfe3e25" y="202.648529"/>
     <use style="fill:#4c72b0;stroke:#000000;stroke-width:0.4;" x="161.200423" xlink:href="#mf44dfe3e25" y="224.211576"/>
     <use style="fill:#4c72b0;stroke:#000000;stroke-width:0.4;" x="260.233029" xlink:href="#mf44dfe3e25" y="136.965897"/>
     <use style="fill:#4c72b0;stroke:#000000;stroke-width:0.4;" x="246.279785" xlink:href="#mf44dfe3e25" y="138.069959"/>
     <use style="fill:#4c72b0;stroke:#000000;stroke-width:0.4;" x="311.251911" xlink:href="#mf44dfe3e25" y="123.981138"/>
     <use style="fill:#4c72b0;stroke:#000000;stroke-width:0.4;" x="229.826745" xlink:href="#mf44dfe3e25" y="166.790317"/>
     <use style="fill:#4c72b0;stroke:#000000;stroke-width:0.4;" x="251.162851" xlink:href="#mf44dfe3e25" y="137.434001"/>
     <use style="fill:#4c72b0;stroke:#000000;stroke-width:0.4;" x="209.051692" xlink:href="#mf44dfe3e25" y="172.837465"/>
     <use style="fill:#4c72b0;stroke:#000000;stroke-width:0.4;" x="213.474449" xlink:href="#mf44dfe3e25" y="171.830291"/>
     <use style="fill:#4c72b0;stroke:#000000;stroke-width:0.4;" x="214.324979" xlink:href="#mf44dfe3e25" y="172.837465"/>
     <use style="fill:#4c72b0;stroke:#000000;stroke-width:0.4;" x="138.327413" xlink:href="#mf44dfe3e25" y="202.121272"/>
     <use style="fill:#4c72b0;stroke:#000000;stroke-width:0.4;" x="158.441257" xlink:href="#mf44dfe3e25" y="216.309654"/>
     <use style="fill:#4c72b0;stroke:#000000;stroke-width:0.4;" x="205.738412" xlink:href="#mf44dfe3e25" y="187.475651"/>
     <use style="fill:#4c72b0;stroke:#000000;stroke-width:0.4;" x="199.015436" xlink:href="#mf44dfe3e25" y="183.190165"/>
     <use style="fill:#4c72b0;stroke:#000000;stroke-width:0.4;" x="209.902222" xlink:href="#mf44dfe3e25" y="188.818175"/>
     <use style="fill:#4c72b0;stroke:#000000;stroke-width:0.4;" x="204.182835" xlink:href="#mf44dfe3e25" y="178.045614"/>
     <use style="fill:#4c72b0;stroke:#000000;stroke-width:0.4;" x="197.371715" xlink:href="#mf44dfe3e25" y="174.335049"/>
     <use style="fill:#4c72b0;stroke:#000000;stroke-width:0.4;" x="197.603227" xlink:href="#mf44dfe3e25" y="179.934978"/>
     <use style="fill:#4c72b0;stroke:#000000;stroke-width:0.4;" x="201.119095" xlink:href="#mf44dfe3e25" y="177.35327"/>
     <use style="fill:#4c72b0;stroke:#000000;stroke-width:0.4;" x="193.725203" xlink:href="#mf44dfe3e25" y="194.060356"/>
     <use style="fill:#4c72b0;stroke:#000000;stroke-width:0.4;" x="214.143094" xlink:href="#mf44dfe3e25" y="184.582105"/>
     <use style="fill:#4c72b0;stroke:#000000;stroke-width:0.4;" x="186.578144" xlink:href="#mf44dfe3e25" y="188.617535"/>
     <use style="fill:#4c72b0;stroke:#000000;stroke-width:0.4;" x="167.205607" xlink:href="#mf44dfe3e25" y="204.890642"/>
     <use style="fill:#4c72b0;stroke:#000000;stroke-width:0.4;" x="220.806559" xlink:href="#mf44dfe3e25" y="198.402462"/>
     <use style="fill:#4c72b0;stroke:#000000;stroke-width:0.4;" x="172.984712" xlink:href="#mf44dfe3e25" y="209.260083"/>
     <use style="fill:#4c72b0;stroke:#000000;stroke-width:0.4;" x="207.180526" xlink:href="#mf44dfe3e25" y="188.464446"/>
     <use style="fill:#4c72b0;stroke:#000000;stroke-width:0.4;" x="224.182392" xlink:href="#mf44dfe3e25" y="164.900053"/>
     <use style="fill:#4c72b0;stroke:#000000;stroke-width:0.4;" x="154.895738" xlink:href="#mf44dfe3e25" y="218.889213"/>
     <use style="fill:#4c72b0;stroke:#000000;stroke-width:0.4;" x="260.178932" xlink:href="#mf44dfe3e25" y="135.023106"/>
     <use style="fill:#4c72b0;stroke:#000000;stroke-width:0.4;" x="235.248022" xlink:href="#mf44dfe3e25" y="171.633167"/>
     <use style="fill:#4c72b0;stroke:#000000;stroke-width:0.4;" x="177.394959" xlink:href="#mf44dfe3e25" y="204.826205"/>
     <use style="fill:#4c72b0;stroke:#000000;stroke-width:0.4;" x="279.917306" xlink:href="#mf44dfe3e25" y="125.219075"/>
     <use style="fill:#4c72b0;stroke:#000000;stroke-width:0.4;" x="171.057778" xlink:href="#mf44dfe3e25" y="211.197834"/>
     <use style="fill:#4c72b0;stroke:#000000;stroke-width:0.4;" x="225.810731" xlink:href="#mf44dfe3e25" y="177.899641"/>
     <use style="fill:#4c72b0;stroke:#000000;stroke-width:0.4;" x="198.192442" xlink:href="#mf44dfe3e25" y="201.917861"/>
     <use style="fill:#4c72b0;stroke:#000000;stroke-width:0.4;" x="168.37167" xlink:href="#mf44dfe3e25" y="193.38753"/>
     <use style="fill:#4c72b0;stroke:#000000;stroke-width:0.4;" x="216.02604" xlink:href="#mf44dfe3e25" y="171.633243"/>
     <use style="fill:#4c72b0;stroke:#000000;stroke-width:0.4;" x="200.413764" xlink:href="#mf44dfe3e25" y="192.794695"/>
     <use style="fill:#4c72b0;stroke:#000000;stroke-width:0.4;" x="195.418252" xlink:href="#mf44dfe3e25" y="201.722292"/>
     <use style="fill:#4c72b0;stroke:#000000;stroke-width:0.4;" x="287.829537" xlink:href="#mf44dfe3e25" y="126.933736"/>
     <use style="fill:#4c72b0;stroke:#000000;stroke-width:0.4;" x="205.446864" xlink:href="#mf44dfe3e25" y="214.07638"/>
     <use style="fill:#4c72b0;stroke:#000000;stroke-width:0.4;" x="207.574855" xlink:href="#mf44dfe3e25" y="191.80849"/>
     <use style="fill:#4c72b0;stroke:#000000;stroke-width:0.4;" x="241.427515" xlink:href="#mf44dfe3e25" y="140.78199"/>
     <use style="fill:#4c72b0;stroke:#000000;stroke-width:0.4;" x="191.597842" xlink:href="#mf44dfe3e25" y="177.980882"/>
     <use style="fill:#4c72b0;stroke:#000000;stroke-width:0.4;" x="150.29933" xlink:href="#mf44dfe3e25" y="214.184685"/>
     <use style="fill:#4c72b0;stroke:#000000;stroke-width:0.4;" x="183.450283" xlink:href="#mf44dfe3e25" y="198.457957"/>
     <use style="fill:#4c72b0;stroke:#000000;stroke-width:0.4;" x="223.82962" xlink:href="#mf44dfe3e25" y="174.047951"/>
     <use style="fill:#4c72b0;stroke:#000000;stroke-width:0.4;" x="222.242146" xlink:href="#mf44dfe3e25" y="166.838271"/>
     <use style="fill:#4c72b0;stroke:#000000;stroke-width:0.4;" x="173.2246" xlink:href="#mf44dfe3e25" y="208.921984"/>
     <use style="fill:#4c72b0;stroke:#000000;stroke-width:0.4;" x="184.032448" xlink:href="#mf44dfe3e25" y="190.860341"/>
     <use style="fill:#4c72b0;stroke:#000000;stroke-width:0.4;" x="216.927103" xlink:href="#mf44dfe3e25" y="176.274962"/>
     <use style="fill:#4c72b0;stroke:#000000;stroke-width:0.4;" x="197.181945" xlink:href="#mf44dfe3e25" y="181.9181"/>
     <use style="fill:#4c72b0;stroke:#000000;stroke-width:0.4;" x="263.33762" xlink:href="#mf44dfe3e25" y="134.779661"/>
     <use style="fill:#4c72b0;stroke:#000000;stroke-width:0.4;" x="202.056128" xlink:href="#mf44dfe3e25" y="202.047257"/>
     <use style="fill:#4c72b0;stroke:#000000;stroke-width:0.4;" x="154.244156" xlink:href="#mf44dfe3e25" y="224.706792"/>
     <use style="fill:#4c72b0;stroke:#000000;stroke-width:0.4;" x="242.208412" xlink:href="#mf44dfe3e25" y="140.533056"/>
     <use style="fill:#4c72b0;stroke:#000000;stroke-width:0.4;" x="221.160138" xlink:href="#mf44dfe3e25" y="150.66244"/>
     <use style="fill:#4c72b0;stroke:#000000;stroke-width:0.4;" x="182.677829" xlink:href="#mf44dfe3e25" y="202.704914"/>
     <use style="fill:#4c72b0;stroke:#000000;stroke-width:0.4;" x="202.927875" xlink:href="#mf44dfe3e25" y="175.200747"/>
     <use style="fill:#4c72b0;stroke:#000000;stroke-width:0.4;" x="176.472984" xlink:href="#mf44dfe3e25" y="202.875386"/>
     <use style="fill:#4c72b0;stroke:#000000;stroke-width:0.4;" x="229.963935" xlink:href="#mf44dfe3e25" y="191.869929"/>
     <use style="fill:#4c72b0;stroke:#000000;stroke-width:0.4;" x="199.43967" xlink:href="#mf44dfe3e25" y="176.206243"/>
     <use style="fill:#4c72b0;stroke:#000000;stroke-width:0.4;" x="242.173768" xlink:href="#mf44dfe3e25" y="179.654043"/>
     <use style="fill:#4c72b0;stroke:#000000;stroke-width:0.4;" x="190.498741" xlink:href="#mf44dfe3e25" y="202.745721"/>
     <use style="fill:#4c72b0;stroke:#000000;stroke-width:0.4;" x="187.323891" xlink:href="#mf44dfe3e25" y="202.640654"/>
     <use style="fill:#4c72b0;stroke:#000000;stroke-width:0.4;" x="223.009338" xlink:href="#mf44dfe3e25" y="183.024691"/>
     <use style="fill:#4c72b0;stroke:#000000;stroke-width:0.4;" x="270.799182" xlink:href="#mf44dfe3e25" y="136.74659"/>
     <use style="fill:#4c72b0;stroke:#000000;stroke-width:0.4;" x="232.29615" xlink:href="#mf44dfe3e25" y="174.042413"/>
     <use style="fill:#4c72b0;stroke:#000000;stroke-width:0.4;" x="190.718041" xlink:href="#mf44dfe3e25" y="191.928121"/>
     <use style="fill:#4c72b0;stroke:#000000;stroke-width:0.4;" x="172.12243" xlink:href="#mf44dfe3e25" y="210.106611"/>
     <use style="fill:#4c72b0;stroke:#000000;stroke-width:0.4;" x="226.828183" xlink:href="#mf44dfe3e25" y="163.924867"/>
     <use style="fill:#4c72b0;stroke:#000000;stroke-width:0.4;" x="193.401937" xlink:href="#mf44dfe3e25" y="188.823893"/>
     <use style="fill:#4c72b0;stroke:#000000;stroke-width:0.4;" x="218.802346" xlink:href="#mf44dfe3e25" y="176.024407"/>
     <use style="fill:#4c72b0;stroke:#000000;stroke-width:0.4;" x="300.994869" xlink:href="#mf44dfe3e25" y="133.487383"/>
     <use style="fill:#4c72b0;stroke:#000000;stroke-width:0.4;" x="229.121201" xlink:href="#mf44dfe3e25" y="164.087768"/>
     <use style="fill:#4c72b0;stroke:#000000;stroke-width:0.4;" x="208.131263" xlink:href="#mf44dfe3e25" y="174.100761"/>
     <use style="fill:#4c72b0;stroke:#000000;stroke-width:0.4;" x="233.500126" xlink:href="#mf44dfe3e25" y="140.78199"/>
     <use style="fill:#4c72b0;stroke:#000000;stroke-width:0.4;" x="168.914767" xlink:href="#mf44dfe3e25" y="213.34044"/>
     <use style="fill:#4c72b0;stroke:#000000;stroke-width:0.4;" x="181.652574" xlink:href="#mf44dfe3e25" y="202.165552"/>
    </g>
   </g>
   <g id="PathCollection_2">
    <defs>
     <path d="M 0 2.236068 
C 0.593012 2.236068 1.161816 2.000462 1.581139 1.581139 
C 2.000462 1.161816 2.236068 0.593012 2.236068 0 
C 2.236068 -0.593012 2.000462 -1.161816 1.581139 -1.581139 
C 1.161816 -2.000462 0.593012 -2.236068 0 -2.236068 
C -0.593012 -2.236068 -1.161816 -2.000462 -1.581139 -1.581139 
C -2.000462 -1.161816 -2.236068 -0.593012 -2.236068 0 
C -2.236068 0.593012 -2.000462 1.161816 -1.581139 1.581139 
C -1.161816 2.000462 -0.593012 2.236068 0 2.236068 
z
" id="mec2c4a0045" style="stroke:#000000;stroke-width:0.4;"/>
    </defs>
    <g clip-path="url(#p9a00b3babf)">
     <use style="fill:#dd8452;stroke:#000000;stroke-width:0.4;" x="225.417094" xlink:href="#mec2c4a0045" y="173.468475"/>
     <use style="fill:#dd8452;stroke:#000000;stroke-width:0.4;" x="237.058573" xlink:href="#mec2c4a0045" y="175.867754"/>
     <use style="fill:#dd8452;stroke:#000000;stroke-width:0.4;" x="210.072328" xlink:href="#mec2c4a0045" y="175.200747"/>
     <use style="fill:#dd8452;stroke:#000000;stroke-width:0.4;" x="212.188142" xlink:href="#mec2c4a0045" y="173.468475"/>
     <use style="fill:#dd8452;stroke:#000000;stroke-width:0.4;" x="179.19688" xlink:href="#mec2c4a0045" y="214.080067"/>
     <use style="fill:#dd8452;stroke:#000000;stroke-width:0.4;" x="202.274744" xlink:href="#mec2c4a0045" y="179.243302"/>
     <use style="fill:#dd8452;stroke:#000000;stroke-width:0.4;" x="197.654588" xlink:href="#mec2c4a0045" y="183.016935"/>
     <use style="fill:#dd8452;stroke:#000000;stroke-width:0.4;" x="224.535164" xlink:href="#mec2c4a0045" y="163.924884"/>
     <use style="fill:#dd8452;stroke:#000000;stroke-width:0.4;" x="182.555288" xlink:href="#mec2c4a0045" y="177.118491"/>
     <use style="fill:#dd8452;stroke:#000000;stroke-width:0.4;" x="221.639539" xlink:href="#mec2c4a0045" y="171.633243"/>
     <use style="fill:#dd8452;stroke:#000000;stroke-width:0.4;" x="169.560064" xlink:href="#mec2c4a0045" y="210.084427"/>
     <use style="fill:#dd8452;stroke:#000000;stroke-width:0.4;" x="233.883624" xlink:href="#mec2c4a0045" y="174.042413"/>
     <use style="fill:#dd8452;stroke:#000000;stroke-width:0.4;" x="215.519432" xlink:href="#mec2c4a0045" y="175.429771"/>
     <use style="fill:#dd8452;stroke:#000000;stroke-width:0.4;" x="222.319963" xlink:href="#mec2c4a0045" y="171.633243"/>
     <use style="fill:#dd8452;stroke:#000000;stroke-width:0.4;" x="228.555122" xlink:href="#mec2c4a0045" y="174.118272"/>
     <use style="fill:#dd8452;stroke:#000000;stroke-width:0.4;" x="153.033115" xlink:href="#mec2c4a0045" y="214.124986"/>
     <use style="fill:#dd8452;stroke:#000000;stroke-width:0.4;" x="191.712655" xlink:href="#mec2c4a0045" y="196.906991"/>
     <use style="fill:#dd8452;stroke:#000000;stroke-width:0.4;" x="205.479465" xlink:href="#mec2c4a0045" y="178.683349"/>
     <use style="fill:#dd8452;stroke:#000000;stroke-width:0.4;" x="173.141602" xlink:href="#mec2c4a0045" y="202.711257"/>
     <use style="fill:#dd8452;stroke:#000000;stroke-width:0.4;" x="228.416127" xlink:href="#mec2c4a0045" y="176.058793"/>
     <use style="fill:#dd8452;stroke:#000000;stroke-width:0.4;" x="178.549248" xlink:href="#mec2c4a0045" y="204.343806"/>
     <use style="fill:#dd8452;stroke:#000000;stroke-width:0.4;" x="240.103274" xlink:href="#mec2c4a0045" y="136.296171"/>
     <use style="fill:#dd8452;stroke:#000000;stroke-width:0.4;" x="198.192442" xlink:href="#mec2c4a0045" y="186.841531"/>
     <use style="fill:#dd8452;stroke:#000000;stroke-width:0.4;" x="201.09334" xlink:href="#mec2c4a0045" y="191.829827"/>
     <use style="fill:#dd8452;stroke:#000000;stroke-width:0.4;" x="223.680811" xlink:href="#mec2c4a0045" y="188.464434"/>
     <use style="fill:#dd8452;stroke:#000000;stroke-width:0.4;" x="192.648539" xlink:href="#mec2c4a0045" y="193.337061"/>
     <use style="fill:#dd8452;stroke:#000000;stroke-width:0.4;" x="218.369042" xlink:href="#mec2c4a0045" y="194.605845"/>
     <use style="fill:#dd8452;stroke:#000000;stroke-width:0.4;" x="211.909037" xlink:href="#mec2c4a0045" y="174.592499"/>
     <use style="fill:#dd8452;stroke:#000000;stroke-width:0.4;" x="211.092965" xlink:href="#mec2c4a0045" y="188.464434"/>
     <use style="fill:#dd8452;stroke:#000000;stroke-width:0.4;" x="150.29933" xlink:href="#mec2c4a0045" y="202.080427"/>
    </g>
   </g>
   <g id="matplotlib.axis_1">
    <g id="xtick_1">
     <g id="line2d_1">
      <defs>
       <path d="M 0 0 
L 0 3.5 
" id="m17e5690717" style="stroke:#000000;stroke-width:0.8;"/>
      </defs>
      <g>
       <use style="stroke:#000000;stroke-width:0.8;" x="93.039374" xlink:href="#m17e5690717" y="294.68419"/>
      </g>
     </g>
     <g id="text_1">
      <!-- $\mathdefault{10^{1}}$ -->
      <g transform="translate(83.702272 311.370067)scale(0.14 -0.14)">
       <defs>
        <path d="M 26.59375 63.40625 
C 26.59375 65.5 26.5 65.5 25.09375 65.5 
C 21.203125 61.1875 15.296875 59.796875 9.703125 59.796875 
C 9.40625 59.796875 8.90625 59.796875 8.796875 59.5 
C 8.703125 59.296875 8.703125 59.09375 8.703125 57 
C 11.796875 57 17 57.59375 21 59.984375 
L 21 7.203125 
C 21 3.6875 20.796875 2.5 12.203125 2.5 
L 9.203125 2.5 
L 9.203125 0 
C 14 0 19 0 23.796875 0 
C 28.59375 0 33.59375 0 38.40625 0 
L 38.40625 2.5 
L 35.40625 2.5 
C 26.796875 2.5 26.59375 3.59375 26.59375 7.15625 
z
" id="CMR17-49"/>
        <path d="M 42 31.640625 
C 42 37.75 41.90625 48.125 37.703125 56.109375 
C 34 63.109375 28.09375 65.59375 22.90625 65.59375 
C 18.09375 65.59375 12 63.40625 8.203125 56.203125 
C 4.203125 48.71875 3.796875 39.4375 3.796875 31.640625 
C 3.796875 25.953125 3.90625 17.28125 7 9.671875 
C 11.296875 -0.609375 19 -2 22.90625 -2 
C 27.5 -2 34.5 -0.109375 38.59375 9.375 
C 41.59375 16.28125 42 24.359375 42 31.640625 
z
M 22.90625 -0.40625 
C 16.5 -0.40625 12.703125 5.078125 11.296875 12.6875 
C 10.203125 18.5625 10.203125 27.15625 10.203125 32.75 
C 10.203125 40.4375 10.203125 46.828125 11.5 52.921875 
C 13.40625 61.390625 19 64 22.90625 64 
C 27 64 32.296875 61.296875 34.203125 53.125 
C 35.5 47.4375 35.59375 40.734375 35.59375 32.75 
C 35.59375 26.25 35.59375 18.265625 34.40625 12.375 
C 32.296875 1.484375 26.40625 -0.40625 22.90625 -0.40625 
z
" id="CMR17-48"/>
       </defs>
       <use transform="scale(0.996264)" xlink:href="#CMR17-49"/>
       <use transform="translate(45.690477 0)scale(0.996264)" xlink:href="#CMR17-48"/>
       <use transform="translate(91.380954 36.153639)scale(0.697382)" xlink:href="#CMR17-49"/>
      </g>
     </g>
    </g>
    <g id="xtick_2">
     <g id="line2d_2">
      <g>
       <use style="stroke:#000000;stroke-width:0.8;" x="147.983624" xlink:href="#m17e5690717" y="294.68419"/>
      </g>
     </g>
     <g id="text_2">
      <!-- $\mathdefault{10^{2}}$ -->
      <g transform="translate(138.646522 311.370067)scale(0.14 -0.14)">
       <defs>
        <path d="M 41.703125 15.453125 
L 39.90625 15.453125 
C 38.90625 8.375 38.09375 7.171875 37.703125 6.5625 
C 37.203125 5.765625 30 5.765625 28.59375 5.765625 
L 9.40625 5.765625 
C 13 9.671875 20 16.75 28.5 24.953125 
C 34.59375 30.734375 41.703125 37.53125 41.703125 47.421875 
C 41.703125 59.21875 32.296875 66 21.796875 66 
C 10.796875 66 4.09375 56.3125 4.09375 47.34375 
C 4.09375 43.4375 7 42.9375 8.203125 42.9375 
C 9.203125 42.9375 12.203125 43.546875 12.203125 47.03125 
C 12.203125 50.109375 9.59375 51 8.203125 51 
C 7.59375 51 7 50.90625 6.59375 50.703125 
C 8.5 59.21875 14.296875 63.40625 20.40625 63.40625 
C 29.09375 63.40625 34.796875 56.515625 34.796875 47.421875 
C 34.796875 38.734375 29.703125 31.25 24 24.75 
L 4.09375 2.28125 
L 4.09375 0 
L 39.296875 0 
z
" id="CMR17-50"/>
       </defs>
       <use transform="scale(0.996264)" xlink:href="#CMR17-49"/>
       <use transform="translate(45.690477 0)scale(0.996264)" xlink:href="#CMR17-48"/>
       <use transform="translate(91.380954 36.153639)scale(0.697382)" xlink:href="#CMR17-50"/>
      </g>
     </g>
    </g>
    <g id="xtick_3">
     <g id="line2d_3">
      <g>
       <use style="stroke:#000000;stroke-width:0.8;" x="202.927875" xlink:href="#m17e5690717" y="294.68419"/>
      </g>
     </g>
     <g id="text_3">
      <!-- $\mathdefault{10^{3}}$ -->
      <g transform="translate(193.590773 311.370067)scale(0.14 -0.14)">
       <defs>
        <path d="M 22.09375 33.703125 
C 31 33.703125 34.90625 25.96875 34.90625 17.03125 
C 34.90625 5 28.5 0.390625 22.703125 0.390625 
C 17.40625 0.390625 8.796875 3.03125 6.09375 10.828125 
C 6.59375 10.625 7.09375 10.625 7.59375 10.625 
C 10 10.625 11.796875 12.21875 11.796875 14.8125 
C 11.796875 17.703125 9.59375 19 7.59375 19 
C 5.90625 19 3.296875 18.203125 3.296875 14.46875 
C 3.296875 5.234375 12.296875 -2 22.90625 -2 
C 34 -2 42.5 6.71875 42.5 16.953125 
C 42.5 26.671875 34.5 33.703125 25 34.796875 
C 32.59375 36.375 39.90625 43.0625 39.90625 52.015625 
C 39.90625 59.6875 32 65.296875 23 65.296875 
C 13.90625 65.296875 5.90625 59.828125 5.90625 52.015625 
C 5.90625 48.59375 8.5 48 9.796875 48 
C 11.90625 48 13.703125 49.296875 13.703125 51.890625 
C 13.703125 54.46875 11.90625 55.765625 9.796875 55.765625 
C 9.40625 55.765625 8.90625 55.765625 8.5 55.578125 
C 11.40625 61.859375 19.296875 63 22.796875 63 
C 26.296875 63 32.90625 61.328125 32.90625 51.875 
C 32.90625 49.109375 32.5 44.1875 29.09375 39.84375 
C 26.09375 36 22.703125 36 19.40625 35.6875 
C 18.90625 35.6875 16.59375 35.453125 16.203125 35.453125 
C 15.5 35.359375 15.09375 35.265625 15.09375 34.5 
C 15.09375 33.796875 15.203125 33.703125 17.203125 33.703125 
z
" id="CMR17-51"/>
       </defs>
       <use transform="scale(0.996264)" xlink:href="#CMR17-49"/>
       <use transform="translate(45.690477 0)scale(0.996264)" xlink:href="#CMR17-48"/>
       <use transform="translate(91.380954 36.153639)scale(0.697382)" xlink:href="#CMR17-51"/>
      </g>
     </g>
    </g>
    <g id="xtick_4">
     <g id="line2d_4">
      <g>
       <use style="stroke:#000000;stroke-width:0.8;" x="257.872125" xlink:href="#m17e5690717" y="294.68419"/>
      </g>
     </g>
     <g id="text_4">
      <!-- $\mathdefault{10^{4}}$ -->
      <g transform="translate(248.535023 311.370067)scale(0.14 -0.14)">
       <defs>
        <path d="M 33.59375 64.40625 
C 33.59375 66.5 33.5 66.5 31.703125 66.5 
L 2 19.59375 
L 2 17 
L 27.796875 17 
L 27.796875 7.140625 
C 27.796875 3.5 27.59375 2.5 20.59375 2.5 
L 18.703125 2.5 
L 18.703125 0 
C 21.90625 0 27.296875 0 30.703125 0 
C 34.09375 0 39.5 0 42.703125 0 
L 42.703125 2.5 
L 40.796875 2.5 
C 33.796875 2.5 33.59375 3.5 33.59375 7.140625 
L 33.59375 17 
L 43.796875 17 
L 43.796875 19.59375 
L 33.59375 19.59375 
z
M 28.09375 57.859375 
L 28.09375 19.59375 
L 4 19.59375 
z
" id="CMR17-52"/>
       </defs>
       <use transform="scale(0.996264)" xlink:href="#CMR17-49"/>
       <use transform="translate(45.690477 0)scale(0.996264)" xlink:href="#CMR17-48"/>
       <use transform="translate(91.380954 36.153639)scale(0.697382)" xlink:href="#CMR17-52"/>
      </g>
     </g>
    </g>
    <g id="xtick_5">
     <g id="line2d_5">
      <g>
       <use style="stroke:#000000;stroke-width:0.8;" x="312.816376" xlink:href="#m17e5690717" y="294.68419"/>
      </g>
     </g>
     <g id="text_5">
      <!-- $\mathdefault{10^{5}}$ -->
      <g transform="translate(303.479274 311.370067)scale(0.14 -0.14)">
       <defs>
        <path d="M 11.40625 57.6875 
C 12.40625 57.28125 16.5 56 20.703125 56 
C 30 56 35.09375 61.109375 38 64.0625 
C 38 64.953125 38 65.5 37.40625 65.5 
C 37.296875 65.5 37.09375 65.5 36.296875 65.046875 
C 32.796875 63.40625 28.703125 62.078125 23.703125 62.078125 
C 20.703125 62.078125 16.203125 62.484375 11.296875 64.671875 
C 10.203125 65.171875 10 65.171875 9.90625 65.171875 
C 9.40625 65.171875 9.296875 65.0625 9.296875 63.078125 
L 9.296875 34.421875 
C 9.296875 32.640625 9.296875 32.140625 10.296875 32.140625 
C 10.796875 32.140625 11 32.34375 11.5 33.03125 
C 14.703125 37.515625 19.09375 39.40625 24.09375 39.40625 
C 27.59375 39.40625 35.09375 37.21875 35.09375 20.140625 
C 35.09375 16.953125 35.09375 11.171875 32.09375 6.578125 
C 29.59375 2.484375 25.703125 0.390625 21.40625 0.390625 
C 14.796875 0.390625 8.09375 5 6.296875 12.71875 
C 6.703125 12.609375 7.5 12.421875 7.90625 12.421875 
C 9.203125 12.421875 11.703125 13.125 11.703125 16.21875 
C 11.703125 18.90625 9.796875 20 7.90625 20 
C 5.59375 20 4.09375 18.59375 4.09375 15.796875 
C 4.09375 7.09375 11 -2 21.59375 -2 
C 31.90625 -2 41.703125 6.875 41.703125 19.75 
C 41.703125 31.71875 33.90625 41 24.203125 41 
C 19.09375 41 14.796875 39.109375 11.40625 35.53125 
z
" id="CMR17-53"/>
       </defs>
       <use transform="scale(0.996264)" xlink:href="#CMR17-49"/>
       <use transform="translate(45.690477 0)scale(0.996264)" xlink:href="#CMR17-48"/>
       <use transform="translate(91.380954 36.153639)scale(0.697382)" xlink:href="#CMR17-53"/>
      </g>
     </g>
    </g>
    <g id="xtick_6">
     <g id="line2d_6">
      <g>
       <use style="stroke:#000000;stroke-width:0.8;" x="367.760626" xlink:href="#m17e5690717" y="294.68419"/>
      </g>
     </g>
     <g id="text_6">
      <!-- $\mathdefault{10^{6}}$ -->
      <g transform="translate(358.423524 311.370067)scale(0.14 -0.14)">
       <defs>
        <path d="M 10.59375 34 
C 10.59375 57.65625 21.796875 63 28.296875 63 
C 30.40625 63 35.5 62.640625 37.5 59 
C 35.90625 59 32.90625 59 32.90625 55.515625 
C 32.90625 52.828125 35.09375 51.921875 36.5 51.921875 
C 37.40625 51.921875 40.09375 52.3125 40.09375 55.625 
C 40.09375 61.78125 35.09375 65.296875 28.203125 65.296875 
C 16.296875 65.296875 3.796875 52.96875 3.796875 31 
C 3.796875 3.953125 15.09375 -2 23.09375 -2 
C 32.796875 -2 42 6.671875 42 20.046875 
C 42 32.515625 33.90625 41.59375 23.703125 41.59375 
C 17.59375 41.59375 13.09375 37.609375 10.59375 30.625 
z
M 23.09375 0.390625 
C 10.796875 0.390625 10.796875 18.75 10.796875 22.4375 
C 10.796875 29.625 14.203125 40 23.5 40 
C 25.203125 40 30.09375 40 33.40625 33.125 
C 35.203125 29.21875 35.203125 25.140625 35.203125 20.140625 
C 35.203125 14.75 35.203125 10.78125 33.09375 6.78125 
C 30.90625 2.671875 27.703125 0.390625 23.09375 0.390625 
z
" id="CMR17-54"/>
       </defs>
       <use transform="scale(0.996264)" xlink:href="#CMR17-49"/>
       <use transform="translate(45.690477 0)scale(0.996264)" xlink:href="#CMR17-48"/>
       <use transform="translate(91.380954 36.153639)scale(0.697382)" xlink:href="#CMR17-54"/>
      </g>
     </g>
    </g>
    <g id="xtick_7">
     <g id="line2d_7">
      <defs>
       <path d="M 0 0 
L 0 2 
" id="m8085f62e56" style="stroke:#000000;stroke-width:0.6;"/>
      </defs>
      <g>
       <use style="stroke:#000000;stroke-width:0.6;" x="109.579241" xlink:href="#m8085f62e56" y="294.68419"/>
      </g>
     </g>
    </g>
    <g id="xtick_8">
     <g id="line2d_8">
      <g>
       <use style="stroke:#000000;stroke-width:0.6;" x="119.254444" xlink:href="#m8085f62e56" y="294.68419"/>
      </g>
     </g>
    </g>
    <g id="xtick_9">
     <g id="line2d_9">
      <g>
       <use style="stroke:#000000;stroke-width:0.6;" x="126.119109" xlink:href="#m8085f62e56" y="294.68419"/>
      </g>
     </g>
    </g>
    <g id="xtick_10">
     <g id="line2d_10">
      <g>
       <use style="stroke:#000000;stroke-width:0.6;" x="131.443757" xlink:href="#m8085f62e56" y="294.68419"/>
      </g>
     </g>
    </g>
    <g id="xtick_11">
     <g id="line2d_11">
      <g>
       <use style="stroke:#000000;stroke-width:0.6;" x="135.794311" xlink:href="#m8085f62e56" y="294.68419"/>
      </g>
     </g>
    </g>
    <g id="xtick_12">
     <g id="line2d_12">
      <g>
       <use style="stroke:#000000;stroke-width:0.6;" x="139.472652" xlink:href="#m8085f62e56" y="294.68419"/>
      </g>
     </g>
    </g>
    <g id="xtick_13">
     <g id="line2d_13">
      <g>
       <use style="stroke:#000000;stroke-width:0.6;" x="142.658976" xlink:href="#m8085f62e56" y="294.68419"/>
      </g>
     </g>
    </g>
    <g id="xtick_14">
     <g id="line2d_14">
      <g>
       <use style="stroke:#000000;stroke-width:0.6;" x="145.469513" xlink:href="#m8085f62e56" y="294.68419"/>
      </g>
     </g>
    </g>
    <g id="xtick_15">
     <g id="line2d_15">
      <g>
       <use style="stroke:#000000;stroke-width:0.6;" x="164.523492" xlink:href="#m8085f62e56" y="294.68419"/>
      </g>
     </g>
    </g>
    <g id="xtick_16">
     <g id="line2d_16">
      <g>
       <use style="stroke:#000000;stroke-width:0.6;" x="174.198694" xlink:href="#m8085f62e56" y="294.68419"/>
      </g>
     </g>
    </g>
    <g id="xtick_17">
     <g id="line2d_17">
      <g>
       <use style="stroke:#000000;stroke-width:0.6;" x="181.063359" xlink:href="#m8085f62e56" y="294.68419"/>
      </g>
     </g>
    </g>
    <g id="xtick_18">
     <g id="line2d_18">
      <g>
       <use style="stroke:#000000;stroke-width:0.6;" x="186.388007" xlink:href="#m8085f62e56" y="294.68419"/>
      </g>
     </g>
    </g>
    <g id="xtick_19">
     <g id="line2d_19">
      <g>
       <use style="stroke:#000000;stroke-width:0.6;" x="190.738562" xlink:href="#m8085f62e56" y="294.68419"/>
      </g>
     </g>
    </g>
    <g id="xtick_20">
     <g id="line2d_20">
      <g>
       <use style="stroke:#000000;stroke-width:0.6;" x="194.416903" xlink:href="#m8085f62e56" y="294.68419"/>
      </g>
     </g>
    </g>
    <g id="xtick_21">
     <g id="line2d_21">
      <g>
       <use style="stroke:#000000;stroke-width:0.6;" x="197.603227" xlink:href="#m8085f62e56" y="294.68419"/>
      </g>
     </g>
    </g>
    <g id="xtick_22">
     <g id="line2d_22">
      <g>
       <use style="stroke:#000000;stroke-width:0.6;" x="200.413764" xlink:href="#m8085f62e56" y="294.68419"/>
      </g>
     </g>
    </g>
    <g id="xtick_23">
     <g id="line2d_23">
      <g>
       <use style="stroke:#000000;stroke-width:0.6;" x="219.467742" xlink:href="#m8085f62e56" y="294.68419"/>
      </g>
     </g>
    </g>
    <g id="xtick_24">
     <g id="line2d_24">
      <g>
       <use style="stroke:#000000;stroke-width:0.6;" x="229.142944" xlink:href="#m8085f62e56" y="294.68419"/>
      </g>
     </g>
    </g>
    <g id="xtick_25">
     <g id="line2d_25">
      <g>
       <use style="stroke:#000000;stroke-width:0.6;" x="236.00761" xlink:href="#m8085f62e56" y="294.68419"/>
      </g>
     </g>
    </g>
    <g id="xtick_26">
     <g id="line2d_26">
      <g>
       <use style="stroke:#000000;stroke-width:0.6;" x="241.332258" xlink:href="#m8085f62e56" y="294.68419"/>
      </g>
     </g>
    </g>
    <g id="xtick_27">
     <g id="line2d_27">
      <g>
       <use style="stroke:#000000;stroke-width:0.6;" x="245.682812" xlink:href="#m8085f62e56" y="294.68419"/>
      </g>
     </g>
    </g>
    <g id="xtick_28">
     <g id="line2d_28">
      <g>
       <use style="stroke:#000000;stroke-width:0.6;" x="249.361153" xlink:href="#m8085f62e56" y="294.68419"/>
      </g>
     </g>
    </g>
    <g id="xtick_29">
     <g id="line2d_29">
      <g>
       <use style="stroke:#000000;stroke-width:0.6;" x="252.547477" xlink:href="#m8085f62e56" y="294.68419"/>
      </g>
     </g>
    </g>
    <g id="xtick_30">
     <g id="line2d_30">
      <g>
       <use style="stroke:#000000;stroke-width:0.6;" x="255.358014" xlink:href="#m8085f62e56" y="294.68419"/>
      </g>
     </g>
    </g>
    <g id="xtick_31">
     <g id="line2d_31">
      <g>
       <use style="stroke:#000000;stroke-width:0.6;" x="274.411993" xlink:href="#m8085f62e56" y="294.68419"/>
      </g>
     </g>
    </g>
    <g id="xtick_32">
     <g id="line2d_32">
      <g>
       <use style="stroke:#000000;stroke-width:0.6;" x="284.087195" xlink:href="#m8085f62e56" y="294.68419"/>
      </g>
     </g>
    </g>
    <g id="xtick_33">
     <g id="line2d_33">
      <g>
       <use style="stroke:#000000;stroke-width:0.6;" x="290.95186" xlink:href="#m8085f62e56" y="294.68419"/>
      </g>
     </g>
    </g>
    <g id="xtick_34">
     <g id="line2d_34">
      <g>
       <use style="stroke:#000000;stroke-width:0.6;" x="296.276508" xlink:href="#m8085f62e56" y="294.68419"/>
      </g>
     </g>
    </g>
    <g id="xtick_35">
     <g id="line2d_35">
      <g>
       <use style="stroke:#000000;stroke-width:0.6;" x="300.627062" xlink:href="#m8085f62e56" y="294.68419"/>
      </g>
     </g>
    </g>
    <g id="xtick_36">
     <g id="line2d_36">
      <g>
       <use style="stroke:#000000;stroke-width:0.6;" x="304.305404" xlink:href="#m8085f62e56" y="294.68419"/>
      </g>
     </g>
    </g>
    <g id="xtick_37">
     <g id="line2d_37">
      <g>
       <use style="stroke:#000000;stroke-width:0.6;" x="307.491728" xlink:href="#m8085f62e56" y="294.68419"/>
      </g>
     </g>
    </g>
    <g id="xtick_38">
     <g id="line2d_38">
      <g>
       <use style="stroke:#000000;stroke-width:0.6;" x="310.302265" xlink:href="#m8085f62e56" y="294.68419"/>
      </g>
     </g>
    </g>
    <g id="xtick_39">
     <g id="line2d_39">
      <g>
       <use style="stroke:#000000;stroke-width:0.6;" x="329.356243" xlink:href="#m8085f62e56" y="294.68419"/>
      </g>
     </g>
    </g>
    <g id="xtick_40">
     <g id="line2d_40">
      <g>
       <use style="stroke:#000000;stroke-width:0.6;" x="339.031445" xlink:href="#m8085f62e56" y="294.68419"/>
      </g>
     </g>
    </g>
    <g id="xtick_41">
     <g id="line2d_41">
      <g>
       <use style="stroke:#000000;stroke-width:0.6;" x="345.896111" xlink:href="#m8085f62e56" y="294.68419"/>
      </g>
     </g>
    </g>
    <g id="xtick_42">
     <g id="line2d_42">
      <g>
       <use style="stroke:#000000;stroke-width:0.6;" x="351.220759" xlink:href="#m8085f62e56" y="294.68419"/>
      </g>
     </g>
    </g>
    <g id="xtick_43">
     <g id="line2d_43">
      <g>
       <use style="stroke:#000000;stroke-width:0.6;" x="355.571313" xlink:href="#m8085f62e56" y="294.68419"/>
      </g>
     </g>
    </g>
    <g id="xtick_44">
     <g id="line2d_44">
      <g>
       <use style="stroke:#000000;stroke-width:0.6;" x="359.249654" xlink:href="#m8085f62e56" y="294.68419"/>
      </g>
     </g>
    </g>
    <g id="xtick_45">
     <g id="line2d_45">
      <g>
       <use style="stroke:#000000;stroke-width:0.6;" x="362.435978" xlink:href="#m8085f62e56" y="294.68419"/>
      </g>
     </g>
    </g>
    <g id="xtick_46">
     <g id="line2d_46">
      <g>
       <use style="stroke:#000000;stroke-width:0.6;" x="365.246515" xlink:href="#m8085f62e56" y="294.68419"/>
      </g>
     </g>
    </g>
    <g id="text_7">
     <!-- Ground truth -->
     <g transform="translate(189.761607 327.767972)scale(0.14 -0.14)">
      <defs>
       <path d="M 62.09375 19.265625 
C 62.09375 23.015625 62.40625 23.515625 68.59375 23.515625 
L 68.59375 26.09375 
C 66.203125 26 60.796875 26 58.09375 26 
C 55.296875 26 47.5 26 43.703125 26 
L 43.703125 23.515625 
L 46.703125 23.515625 
C 55.296875 23.515625 55.5 22.40625 55.5 18.765625 
L 55.5 12.09375 
C 55.5 0.984375 42.5 0.984375 39.40625 0.984375 
C 29.09375 0.984375 12.203125 7.984375 12.203125 33.75 
C 12.203125 59.5 28.796875 66.40625 38.5 66.40625 
C 49.796875 66.40625 58 56.65625 59.90625 42.828125 
C 60.09375 41.625 60.09375 41.421875 61 41.421875 
C 62.09375 41.421875 62.09375 41.625 62.09375 43.421875 
L 62.09375 67 
C 62.09375 68.78125 62 68.890625 61.40625 68.890625 
C 61 68.890625 60.90625 68.78125 60.203125 67.59375 
L 55.796875 59.234375 
C 50.90625 65.421875 44.90625 69 37.203125 69 
C 20.09375 69 4.59375 54 4.59375 33.5625 
C 4.59375 13.203125 19.796875 -2 37.40625 -2 
C 45.5 -2 53.40625 0.875 56.5 6.515625 
C 58.203125 2.46875 61 -0.3125 61.5 -0.3125 
C 62 -0.3125 62.09375 -0.203125 62.09375 1.5625 
z
" id="CMR17-71"/>
       <path d="M 15 23.390625 
C 15 33 19.09375 42 26.59375 42 
C 27.296875 42 28 41.90625 28.703125 41.59375 
C 28.703125 41.59375 26.5 40.890625 26.5 38.3125 
C 26.5 35.90625 28.40625 34.90625 29.90625 34.90625 
C 31.09375 34.90625 33.296875 35.609375 33.296875 38.40625 
C 33.296875 41.609375 30.09375 43.59375 26.703125 43.59375 
C 19.09375 43.59375 15.796875 36.203125 14.796875 32.703125 
L 14.703125 32.703125 
L 14.703125 43.59375 
L 3.09375 42.5 
L 3.09375 39.90625 
C 9 39.90625 9.90625 39.296875 9.90625 34.5 
L 9.90625 6.6875 
C 9.90625 2.875 9.5 2.390625 3.09375 2.390625 
L 3.09375 -0.203125 
C 5.5 0 10.09375 0 12.703125 0 
C 15.59375 0 20.703125 0 23.40625 -0.203125 
L 23.40625 2.390625 
C 16.203125 2.390625 15 2.390625 15 6.875 
z
" id="CMR17-114"/>
       <path d="M 43.09375 21.1875 
C 43.09375 34 33.796875 44 22.90625 44 
C 12 44 2.703125 34 2.703125 21.1875 
C 2.703125 8.609375 12 -1 22.90625 -1 
C 33.796875 -1 43.09375 8.609375 43.09375 21.1875 
z
M 22.90625 0.796875 
C 18.203125 0.796875 14.203125 3.59375 11.90625 7.5 
C 9.40625 11.984375 9.09375 17.59375 9.09375 22 
C 9.09375 26.203125 9.296875 31.40625 11.90625 35.90625 
C 13.90625 39.203125 17.796875 42.40625 22.90625 42.40625 
C 27.40625 42.40625 31.203125 39.90625 33.59375 36.40625 
C 36.703125 31.703125 36.703125 25.109375 36.703125 22 
C 36.703125 18.09375 36.5 12.109375 33.796875 7.296875 
C 31 2.703125 26.703125 0.796875 22.90625 0.796875 
z
" id="CMR17-111"/>
       <path d="M 29.40625 42.078125 
L 29.40625 39.5 
C 35.296875 39.5 36.203125 38.890625 36.203125 34.15625 
L 36.203125 16.125 
C 36.203125 7.8125 31.703125 0.59375 24.296875 0.59375 
C 16.09375 0.59375 15.40625 5.4375 15.40625 10.59375 
L 15.40625 43.171875 
L 3.296875 42.078125 
L 3.296875 39.5 
C 7.296875 39.5 10 39.5 10.09375 35.53125 
L 10.09375 16.53125 
C 10.09375 9.890625 10.09375 5.640625 12.703125 2.859375 
C 14 1.578125 16.5 -1 23.703125 -1 
C 32.203125 -1 35.5 5.890625 36.296875 7.90625 
L 36.40625 7.90625 
L 36.40625 -0.984375 
L 48.296875 -0.984375 
L 48.296875 2 
C 42.40625 2 41.5 2.59375 41.5 7.390625 
L 41.5 43.171875 
z
" id="CMR17-117"/>
       <path d="M 41.5 30.203125 
C 41.5 35.296875 40.5 43.59375 28.703125 43.59375 
C 20.796875 43.59375 16.703125 37.5 15.203125 33.5 
L 15.09375 33.5 
L 15.09375 43.59375 
L 3.296875 42.5 
L 3.296875 39.90625 
C 9.203125 39.90625 10.09375 39.296875 10.09375 34.5 
L 10.09375 6.6875 
C 10.09375 2.875 9.703125 2.390625 3.296875 2.390625 
L 3.296875 -0.203125 
C 5.703125 0 10.09375 0 12.703125 0 
C 15.296875 0 19.796875 0 22.203125 -0.203125 
L 22.203125 2.390625 
C 15.796875 2.390625 15.40625 2.78125 15.40625 6.6875 
L 15.40625 25.90625 
C 15.40625 35.109375 21 42 28 42 
C 35.40625 42 36.203125 35.40625 36.203125 30.59375 
L 36.203125 6.6875 
C 36.203125 2.875 35.796875 2.390625 29.40625 2.390625 
L 29.40625 -0.203125 
C 31.796875 0 36.203125 0 38.796875 0 
C 41.40625 0 45.90625 0 48.296875 -0.203125 
L 48.296875 2.390625 
C 41.90625 2.390625 41.5 2.78125 41.5 6.6875 
z
" id="CMR17-110"/>
       <path d="M 29.203125 67.59375 
L 29.203125 65 
C 35.09375 65 36 64.40625 36 59.6875 
L 36 36.640625 
C 35.59375 37.140625 31.5 43.59375 23.40625 43.59375 
C 13.203125 43.59375 3.296875 34.5 3.296875 21.3125 
C 3.296875 8.203125 12.59375 -1 22.40625 -1 
C 30.90625 -1 35.296875 5.265625 35.796875 5.9375 
L 35.796875 -0.984375 
L 47.90625 -0.984375 
L 47.90625 2 
C 42 2 41.09375 2.59375 41.09375 7.390625 
L 41.09375 68.6875 
z
M 35.796875 11.796875 
C 35.796875 8.796875 34 6.09375 31.703125 4.09375 
C 28.296875 1.09375 24.90625 0.59375 23 0.59375 
C 20.09375 0.59375 9.703125 2.09375 9.703125 21.1875 
C 9.703125 40.8125 21.296875 42 23.90625 42 
C 28.5 42 32.203125 39.40625 34.5 35.796875 
C 35.796875 33.703125 35.796875 33.40625 35.796875 31.609375 
z
" id="CMR17-100"/>
       <path d="M 15.09375 40 
L 29.09375 40 
L 29.09375 42.578125 
L 15.09375 42.578125 
L 15.09375 61 
L 13.296875 61 
C 13.09375 50.703125 9.59375 41.6875 1.09375 41.6875 
L 1.09375 40 
L 9.796875 40 
L 9.796875 12.046875 
C 9.796875 10.15625 9.796875 -1 21.40625 -1 
C 27.296875 -1 30.703125 4.78125 30.703125 12.140625 
L 30.703125 17.8125 
L 28.90625 17.8125 
L 28.90625 12.234375 
C 28.90625 5.375 26.203125 0.796875 22 0.796875 
C 19.09375 0.796875 15.09375 2.78125 15.09375 11.84375 
z
" id="CMR17-116"/>
       <path d="M 41.5 30.203125 
C 41.5 35.296875 40.5 43.59375 28.703125 43.59375 
C 20.5 43.59375 16.5 37 15.296875 33.703125 
L 15.203125 33.703125 
L 15.203125 68.6875 
L 3.296875 67.59375 
L 3.296875 65 
C 9.203125 65 10.09375 64.40625 10.09375 59.640625 
L 10.09375 6.65625 
C 10.09375 2.875 9.703125 2.390625 3.296875 2.390625 
L 3.296875 -0.203125 
C 5.703125 0 10.09375 0 12.703125 0 
C 15.296875 0 19.796875 0 22.203125 -0.203125 
L 22.203125 2.390625 
C 15.796875 2.390625 15.40625 2.78125 15.40625 6.6875 
L 15.40625 25.90625 
C 15.40625 35.109375 21 42 28 42 
C 35.40625 42 36.203125 35.40625 36.203125 30.59375 
L 36.203125 6.6875 
C 36.203125 2.875 35.796875 2.390625 29.40625 2.390625 
L 29.40625 -0.203125 
C 31.796875 0 36.203125 0 38.796875 0 
C 41.40625 0 45.90625 0 48.296875 -0.203125 
L 48.296875 2.390625 
C 41.90625 2.390625 41.5 2.78125 41.5 6.6875 
z
" id="CMR17-104"/>
      </defs>
      <use transform="scale(0.996264)" xlink:href="#CMR17-71"/>
      <use transform="translate(72.355346 0)scale(0.996264)" xlink:href="#CMR17-114"/>
      <use transform="translate(107.636114 0)scale(0.996264)" xlink:href="#CMR17-111"/>
      <use transform="translate(153.326591 0)scale(0.996264)" xlink:href="#CMR17-117"/>
      <use transform="translate(204.221961 0)scale(0.996264)" xlink:href="#CMR17-110"/>
      <use transform="translate(255.11733 0)scale(0.996264)" xlink:href="#CMR17-100"/>
      <use transform="translate(336.088667 0)scale(0.996264)" xlink:href="#CMR17-116"/>
      <use transform="translate(371.369434 0)scale(0.996264)" xlink:href="#CMR17-114"/>
      <use transform="translate(406.650202 0)scale(0.996264)" xlink:href="#CMR17-117"/>
      <use transform="translate(457.545572 0)scale(0.996264)" xlink:href="#CMR17-116"/>
      <use transform="translate(492.82634 0)scale(0.996264)" xlink:href="#CMR17-104"/>
     </g>
    </g>
   </g>
   <g id="matplotlib.axis_2">
    <g id="ytick_1">
     <g id="line2d_47">
      <defs>
       <path d="M 0 0 
L -3.5 0 
" id="mf110794e73" style="stroke:#000000;stroke-width:0.8;"/>
      </defs>
      <g>
       <use style="stroke:#000000;stroke-width:0.8;" x="93.039374" xlink:href="#mf110794e73" y="294.68419"/>
      </g>
     </g>
     <g id="text_8">
      <!-- $\mathdefault{10^{1}}$ -->
      <g transform="translate(67.36517 299.527129)scale(0.14 -0.14)">
       <use transform="scale(0.996264)" xlink:href="#CMR17-49"/>
       <use transform="translate(45.690477 0)scale(0.996264)" xlink:href="#CMR17-48"/>
       <use transform="translate(91.380954 36.153639)scale(0.697382)" xlink:href="#CMR17-49"/>
      </g>
     </g>
    </g>
    <g id="ytick_2">
     <g id="line2d_48">
      <g>
       <use style="stroke:#000000;stroke-width:0.8;" x="93.039374" xlink:href="#mf110794e73" y="239.73994"/>
      </g>
     </g>
     <g id="text_9">
      <!-- $\mathdefault{10^{2}}$ -->
      <g transform="translate(67.36517 244.582878)scale(0.14 -0.14)">
       <use transform="scale(0.996264)" xlink:href="#CMR17-49"/>
       <use transform="translate(45.690477 0)scale(0.996264)" xlink:href="#CMR17-48"/>
       <use transform="translate(91.380954 36.153639)scale(0.697382)" xlink:href="#CMR17-50"/>
      </g>
     </g>
    </g>
    <g id="ytick_3">
     <g id="line2d_49">
      <g>
       <use style="stroke:#000000;stroke-width:0.8;" x="93.039374" xlink:href="#mf110794e73" y="184.795689"/>
      </g>
     </g>
     <g id="text_10">
      <!-- $\mathdefault{10^{3}}$ -->
      <g transform="translate(67.36517 189.638628)scale(0.14 -0.14)">
       <use transform="scale(0.996264)" xlink:href="#CMR17-49"/>
       <use transform="translate(45.690477 0)scale(0.996264)" xlink:href="#CMR17-48"/>
       <use transform="translate(91.380954 36.153639)scale(0.697382)" xlink:href="#CMR17-51"/>
      </g>
     </g>
    </g>
    <g id="ytick_4">
     <g id="line2d_50">
      <g>
       <use style="stroke:#000000;stroke-width:0.8;" x="93.039374" xlink:href="#mf110794e73" y="129.851439"/>
      </g>
     </g>
     <g id="text_11">
      <!-- $\mathdefault{10^{4}}$ -->
      <g transform="translate(67.36517 134.694377)scale(0.14 -0.14)">
       <use transform="scale(0.996264)" xlink:href="#CMR17-49"/>
       <use transform="translate(45.690477 0)scale(0.996264)" xlink:href="#CMR17-48"/>
       <use transform="translate(91.380954 36.153639)scale(0.697382)" xlink:href="#CMR17-52"/>
      </g>
     </g>
    </g>
    <g id="ytick_5">
     <g id="line2d_51">
      <g>
       <use style="stroke:#000000;stroke-width:0.8;" x="93.039374" xlink:href="#mf110794e73" y="74.907189"/>
      </g>
     </g>
     <g id="text_12">
      <!-- $\mathdefault{10^{5}}$ -->
      <g transform="translate(67.36517 79.750127)scale(0.14 -0.14)">
       <use transform="scale(0.996264)" xlink:href="#CMR17-49"/>
       <use transform="translate(45.690477 0)scale(0.996264)" xlink:href="#CMR17-48"/>
       <use transform="translate(91.380954 36.153639)scale(0.697382)" xlink:href="#CMR17-53"/>
      </g>
     </g>
    </g>
    <g id="ytick_6">
     <g id="line2d_52">
      <g>
       <use style="stroke:#000000;stroke-width:0.8;" x="93.039374" xlink:href="#mf110794e73" y="19.962938"/>
      </g>
     </g>
     <g id="text_13">
      <!-- $\mathdefault{10^{6}}$ -->
      <g transform="translate(67.36517 24.805876)scale(0.14 -0.14)">
       <use transform="scale(0.996264)" xlink:href="#CMR17-49"/>
       <use transform="translate(45.690477 0)scale(0.996264)" xlink:href="#CMR17-48"/>
       <use transform="translate(91.380954 36.153639)scale(0.697382)" xlink:href="#CMR17-54"/>
      </g>
     </g>
    </g>
    <g id="ytick_7">
     <g id="line2d_53">
      <defs>
       <path d="M 0 0 
L -2 0 
" id="m9624a52f2f" style="stroke:#000000;stroke-width:0.6;"/>
      </defs>
      <g>
       <use style="stroke:#000000;stroke-width:0.6;" x="93.039374" xlink:href="#m9624a52f2f" y="278.144323"/>
      </g>
     </g>
    </g>
    <g id="ytick_8">
     <g id="line2d_54">
      <g>
       <use style="stroke:#000000;stroke-width:0.6;" x="93.039374" xlink:href="#m9624a52f2f" y="268.469121"/>
      </g>
     </g>
    </g>
    <g id="ytick_9">
     <g id="line2d_55">
      <g>
       <use style="stroke:#000000;stroke-width:0.6;" x="93.039374" xlink:href="#m9624a52f2f" y="261.604455"/>
      </g>
     </g>
    </g>
    <g id="ytick_10">
     <g id="line2d_56">
      <g>
       <use style="stroke:#000000;stroke-width:0.6;" x="93.039374" xlink:href="#m9624a52f2f" y="256.279807"/>
      </g>
     </g>
    </g>
    <g id="ytick_11">
     <g id="line2d_57">
      <g>
       <use style="stroke:#000000;stroke-width:0.6;" x="93.039374" xlink:href="#m9624a52f2f" y="251.929253"/>
      </g>
     </g>
    </g>
    <g id="ytick_12">
     <g id="line2d_58">
      <g>
       <use style="stroke:#000000;stroke-width:0.6;" x="93.039374" xlink:href="#m9624a52f2f" y="248.250912"/>
      </g>
     </g>
    </g>
    <g id="ytick_13">
     <g id="line2d_59">
      <g>
       <use style="stroke:#000000;stroke-width:0.6;" x="93.039374" xlink:href="#m9624a52f2f" y="245.064588"/>
      </g>
     </g>
    </g>
    <g id="ytick_14">
     <g id="line2d_60">
      <g>
       <use style="stroke:#000000;stroke-width:0.6;" x="93.039374" xlink:href="#m9624a52f2f" y="242.254051"/>
      </g>
     </g>
    </g>
    <g id="ytick_15">
     <g id="line2d_61">
      <g>
       <use style="stroke:#000000;stroke-width:0.6;" x="93.039374" xlink:href="#m9624a52f2f" y="223.200072"/>
      </g>
     </g>
    </g>
    <g id="ytick_16">
     <g id="line2d_62">
      <g>
       <use style="stroke:#000000;stroke-width:0.6;" x="93.039374" xlink:href="#m9624a52f2f" y="213.52487"/>
      </g>
     </g>
    </g>
    <g id="ytick_17">
     <g id="line2d_63">
      <g>
       <use style="stroke:#000000;stroke-width:0.6;" x="93.039374" xlink:href="#m9624a52f2f" y="206.660205"/>
      </g>
     </g>
    </g>
    <g id="ytick_18">
     <g id="line2d_64">
      <g>
       <use style="stroke:#000000;stroke-width:0.6;" x="93.039374" xlink:href="#m9624a52f2f" y="201.335557"/>
      </g>
     </g>
    </g>
    <g id="ytick_19">
     <g id="line2d_65">
      <g>
       <use style="stroke:#000000;stroke-width:0.6;" x="93.039374" xlink:href="#m9624a52f2f" y="196.985003"/>
      </g>
     </g>
    </g>
    <g id="ytick_20">
     <g id="line2d_66">
      <g>
       <use style="stroke:#000000;stroke-width:0.6;" x="93.039374" xlink:href="#m9624a52f2f" y="193.306662"/>
      </g>
     </g>
    </g>
    <g id="ytick_21">
     <g id="line2d_67">
      <g>
       <use style="stroke:#000000;stroke-width:0.6;" x="93.039374" xlink:href="#m9624a52f2f" y="190.120338"/>
      </g>
     </g>
    </g>
    <g id="ytick_22">
     <g id="line2d_68">
      <g>
       <use style="stroke:#000000;stroke-width:0.6;" x="93.039374" xlink:href="#m9624a52f2f" y="187.309801"/>
      </g>
     </g>
    </g>
    <g id="ytick_23">
     <g id="line2d_69">
      <g>
       <use style="stroke:#000000;stroke-width:0.6;" x="93.039374" xlink:href="#m9624a52f2f" y="168.255822"/>
      </g>
     </g>
    </g>
    <g id="ytick_24">
     <g id="line2d_70">
      <g>
       <use style="stroke:#000000;stroke-width:0.6;" x="93.039374" xlink:href="#m9624a52f2f" y="158.58062"/>
      </g>
     </g>
    </g>
    <g id="ytick_25">
     <g id="line2d_71">
      <g>
       <use style="stroke:#000000;stroke-width:0.6;" x="93.039374" xlink:href="#m9624a52f2f" y="151.715955"/>
      </g>
     </g>
    </g>
    <g id="ytick_26">
     <g id="line2d_72">
      <g>
       <use style="stroke:#000000;stroke-width:0.6;" x="93.039374" xlink:href="#m9624a52f2f" y="146.391307"/>
      </g>
     </g>
    </g>
    <g id="ytick_27">
     <g id="line2d_73">
      <g>
       <use style="stroke:#000000;stroke-width:0.6;" x="93.039374" xlink:href="#m9624a52f2f" y="142.040752"/>
      </g>
     </g>
    </g>
    <g id="ytick_28">
     <g id="line2d_74">
      <g>
       <use style="stroke:#000000;stroke-width:0.6;" x="93.039374" xlink:href="#m9624a52f2f" y="138.362411"/>
      </g>
     </g>
    </g>
    <g id="ytick_29">
     <g id="line2d_75">
      <g>
       <use style="stroke:#000000;stroke-width:0.6;" x="93.039374" xlink:href="#m9624a52f2f" y="135.176087"/>
      </g>
     </g>
    </g>
    <g id="ytick_30">
     <g id="line2d_76">
      <g>
       <use style="stroke:#000000;stroke-width:0.6;" x="93.039374" xlink:href="#m9624a52f2f" y="132.36555"/>
      </g>
     </g>
    </g>
    <g id="ytick_31">
     <g id="line2d_77">
      <g>
       <use style="stroke:#000000;stroke-width:0.6;" x="93.039374" xlink:href="#m9624a52f2f" y="113.311572"/>
      </g>
     </g>
    </g>
    <g id="ytick_32">
     <g id="line2d_78">
      <g>
       <use style="stroke:#000000;stroke-width:0.6;" x="93.039374" xlink:href="#m9624a52f2f" y="103.636369"/>
      </g>
     </g>
    </g>
    <g id="ytick_33">
     <g id="line2d_79">
      <g>
       <use style="stroke:#000000;stroke-width:0.6;" x="93.039374" xlink:href="#m9624a52f2f" y="96.771704"/>
      </g>
     </g>
    </g>
    <g id="ytick_34">
     <g id="line2d_80">
      <g>
       <use style="stroke:#000000;stroke-width:0.6;" x="93.039374" xlink:href="#m9624a52f2f" y="91.447056"/>
      </g>
     </g>
    </g>
    <g id="ytick_35">
     <g id="line2d_81">
      <g>
       <use style="stroke:#000000;stroke-width:0.6;" x="93.039374" xlink:href="#m9624a52f2f" y="87.096502"/>
      </g>
     </g>
    </g>
    <g id="ytick_36">
     <g id="line2d_82">
      <g>
       <use style="stroke:#000000;stroke-width:0.6;" x="93.039374" xlink:href="#m9624a52f2f" y="83.418161"/>
      </g>
     </g>
    </g>
    <g id="ytick_37">
     <g id="line2d_83">
      <g>
       <use style="stroke:#000000;stroke-width:0.6;" x="93.039374" xlink:href="#m9624a52f2f" y="80.231837"/>
      </g>
     </g>
    </g>
    <g id="ytick_38">
     <g id="line2d_84">
      <g>
       <use style="stroke:#000000;stroke-width:0.6;" x="93.039374" xlink:href="#m9624a52f2f" y="77.4213"/>
      </g>
     </g>
    </g>
    <g id="ytick_39">
     <g id="line2d_85">
      <g>
       <use style="stroke:#000000;stroke-width:0.6;" x="93.039374" xlink:href="#m9624a52f2f" y="58.367321"/>
      </g>
     </g>
    </g>
    <g id="ytick_40">
     <g id="line2d_86">
      <g>
       <use style="stroke:#000000;stroke-width:0.6;" x="93.039374" xlink:href="#m9624a52f2f" y="48.692119"/>
      </g>
     </g>
    </g>
    <g id="ytick_41">
     <g id="line2d_87">
      <g>
       <use style="stroke:#000000;stroke-width:0.6;" x="93.039374" xlink:href="#m9624a52f2f" y="41.827454"/>
      </g>
     </g>
    </g>
    <g id="ytick_42">
     <g id="line2d_88">
      <g>
       <use style="stroke:#000000;stroke-width:0.6;" x="93.039374" xlink:href="#m9624a52f2f" y="36.502806"/>
      </g>
     </g>
    </g>
    <g id="ytick_43">
     <g id="line2d_89">
      <g>
       <use style="stroke:#000000;stroke-width:0.6;" x="93.039374" xlink:href="#m9624a52f2f" y="32.152251"/>
      </g>
     </g>
    </g>
    <g id="ytick_44">
     <g id="line2d_90">
      <g>
       <use style="stroke:#000000;stroke-width:0.6;" x="93.039374" xlink:href="#m9624a52f2f" y="28.47391"/>
      </g>
     </g>
    </g>
    <g id="ytick_45">
     <g id="line2d_91">
      <g>
       <use style="stroke:#000000;stroke-width:0.6;" x="93.039374" xlink:href="#m9624a52f2f" y="25.287586"/>
      </g>
     </g>
    </g>
    <g id="ytick_46">
     <g id="line2d_92">
      <g>
       <use style="stroke:#000000;stroke-width:0.6;" x="93.039374" xlink:href="#m9624a52f2f" y="22.477049"/>
      </g>
     </g>
    </g>
    <g id="text_14">
     <!-- Prediction -->
     <g transform="translate(60.653142 188.145398)rotate(-90)scale(0.14 -0.14)">
      <defs>
       <path d="M 19.796875 31.90625 
L 35.796875 31.90625 
C 48.703125 31.90625 58.09375 40.28125 58.09375 49.75 
C 58.09375 59.234375 48.90625 68 35.796875 68 
L 5.203125 68 
L 5.203125 65.40625 
C 12.09375 65.40625 13.203125 65.40625 13.203125 60.921875 
L 13.203125 6.96875 
C 13.203125 2.5 12.09375 2.5 5.203125 2.5 
L 5.203125 0 
C 8.09375 0 13.40625 0 16.5 0 
C 19.59375 0 24.90625 0 27.796875 0 
L 27.796875 2.5 
C 20.90625 2.5 19.796875 2.5 19.796875 6.96875 
z
M 19.59375 34 
L 19.59375 61.53125 
C 19.59375 64.921875 19.796875 65.40625 23.796875 65.40625 
L 33.90625 65.40625 
C 46.796875 65.40625 50.5 58.03125 50.5 49.75 
C 50.5 40.6875 46.09375 34 33.90625 34 
z
" id="CMR17-80"/>
       <path d="M 38.09375 23 
C 38.5 23.40625 38.5 23.609375 38.5 24.625 
C 38.5 34.96875 33.09375 44 21.703125 44 
C 11.09375 44 2.703125 33.890625 2.703125 21.609375 
C 2.703125 8.609375 12.203125 -1 22.796875 -1 
C 34 -1 38.40625 9.484375 38.40625 11.5625 
C 38.40625 12.25 37.796875 12.25 37.59375 12.25 
C 36.90625 12.25 36.796875 12.046875 36.40625 10.875 
C 34.203125 4.140625 28.703125 0.796875 23.5 0.796875 
C 19.203125 0.796875 14.90625 3.171875 12.203125 7.5 
C 9.09375 12.546875 9.09375 18.375 9.09375 23 
z
M 9.203125 24.5 
C 9.90625 39.140625 17.59375 42.40625 21.59375 42.40625 
C 28.40625 42.40625 33 35.890625 33.09375 24.5 
z
" id="CMR17-101"/>
       <path d="M 15.5 61.078125 
C 15.5 63.265625 13.703125 65.15625 11.40625 65.15625 
C 9.203125 65.15625 7.296875 63.375 7.296875 61.078125 
C 7.296875 58.890625 9.09375 57 11.40625 57 
C 13.59375 57 15.5 58.796875 15.5 61.078125 
z
M 3.796875 42.28125 
L 3.796875 39.703125 
C 9.40625 39.703125 10.203125 39.09375 10.203125 34.328125 
L 10.203125 6.671875 
C 10.203125 2.875 9.796875 2.390625 3.40625 2.390625 
L 3.40625 -0.203125 
C 5.796875 0 10.09375 0 12.59375 0 
C 15 0 19.09375 0 21.40625 -0.203125 
L 21.40625 2.390625 
C 15.5 2.390625 15.296875 2.984375 15.296875 6.5625 
L 15.296875 43.375 
z
" id="CMR17-105"/>
       <path d="M 34.90625 35 
C 33 35 30.203125 35 30.203125 31.515625 
C 30.203125 28.71875 32.5 27.921875 33.796875 27.921875 
C 34.5 27.921875 37.40625 28.234375 37.40625 31.625 
C 37.40625 38.546875 30.59375 43.796875 22.90625 43.796875 
C 12.296875 43.796875 3.296875 34.03125 3.296875 21.296875 
C 3.296875 8.0625 12.703125 -1 22.90625 -1 
C 35.296875 -1 38.40625 10.578125 38.40625 11.6875 
C 38.40625 12.09375 38.296875 12.390625 37.59375 12.390625 
C 36.90625 12.390625 36.796875 12.296875 36.40625 10.984375 
C 33.796875 2.8125 28.09375 0.796875 23.796875 0.796875 
C 17.40625 0.796875 9.703125 6.671875 9.703125 21.390625 
C 9.703125 36.53125 17.09375 42 23 42 
C 26.90625 42 32.703125 40.203125 34.90625 35 
z
" id="CMR17-99"/>
      </defs>
      <use transform="scale(0.996264)" xlink:href="#CMR17-80"/>
      <use transform="translate(62.586301 0)scale(0.996264)" xlink:href="#CMR17-114"/>
      <use transform="translate(97.867068 0)scale(0.996264)" xlink:href="#CMR17-101"/>
      <use transform="translate(138.352729 0)scale(0.996264)" xlink:href="#CMR17-100"/>
      <use transform="translate(189.248099 0)scale(0.996264)" xlink:href="#CMR17-105"/>
      <use transform="translate(214.119157 0)scale(0.996264)" xlink:href="#CMR17-99"/>
      <use transform="translate(254.604818 0)scale(0.996264)" xlink:href="#CMR17-116"/>
      <use transform="translate(289.885585 0)scale(0.996264)" xlink:href="#CMR17-105"/>
      <use transform="translate(314.756644 0)scale(0.996264)" xlink:href="#CMR17-111"/>
      <use transform="translate(360.447121 0)scale(0.996264)" xlink:href="#CMR17-110"/>
     </g>
    </g>
   </g>
   <g id="line2d_93">
    <path clip-path="url(#p9a00b3babf)" d="M 41.123564 346.6 
L 368.000447 19.723117 
L 384.540314 3.18325 
L 388.723564 -1 
" style="fill:none;stroke:#808080;stroke-dasharray:5.55,2.4;stroke-dashoffset:0;stroke-opacity:0.2;stroke-width:1.5;"/>
   </g>
   <g id="patch_3">
    <path d="M 93.039374 294.68419 
L 93.039374 19.962938 
" style="fill:none;stroke:#000000;stroke-linecap:square;stroke-linejoin:miter;stroke-width:0.8;"/>
   </g>
   <g id="patch_4">
    <path d="M 367.760626 294.68419 
L 367.760626 19.962938 
" style="fill:none;stroke:#000000;stroke-linecap:square;stroke-linejoin:miter;stroke-width:0.8;"/>
   </g>
   <g id="patch_5">
    <path d="M 93.039374 294.68419 
L 367.760626 294.68419 
" style="fill:none;stroke:#000000;stroke-linecap:square;stroke-linejoin:miter;stroke-width:0.8;"/>
   </g>
   <g id="patch_6">
    <path d="M 93.039374 19.962938 
L 367.760626 19.962938 
" style="fill:none;stroke:#000000;stroke-linecap:square;stroke-linejoin:miter;stroke-width:0.8;"/>
   </g>
   <g id="legend_1">
    <g id="PathCollection_3">
     <defs>
      <path d="M 0 3.354102 
C 0.889518 3.354102 1.742724 3.000693 2.371708 2.371708 
C 3.000693 1.742724 3.354102 0.889518 3.354102 0 
C 3.354102 -0.889518 3.000693 -1.742724 2.371708 -2.371708 
C 1.742724 -3.000693 0.889518 -3.354102 0 -3.354102 
C -0.889518 -3.354102 -1.742724 -3.000693 -2.371708 -2.371708 
C -3.000693 -1.742724 -3.354102 -0.889518 -3.354102 0 
C -3.354102 0.889518 -3.000693 1.742724 -2.371708 2.371708 
C -1.742724 3.000693 -0.889518 3.354102 0 3.354102 
z
" id="mc60fba4759" style="stroke:#000000;stroke-width:0.4;"/>
     </defs>
     <g>
      <use style="fill:#4c72b0;stroke:#000000;stroke-width:0.4;" x="107.039374" xlink:href="#mc60fba4759" y="39.558874"/>
     </g>
    </g>
    <g id="text_15">
     <!-- Train dataset ($R^2$=0.782) -->
     <g transform="translate(119.639374 43.916374)scale(0.14 -0.14)">
      <defs>
       <path d="M 62.203125 67.59375 
L 4.5 67.59375 
L 2.796875 45.59375 
L 4.59375 45.59375 
C 5.90625 62.125 7.296875 65 22.703125 65 
C 24.5 65 27.40625 65 28.203125 64.90625 
C 30.09375 64.609375 30.09375 63.40625 30.09375 61.125 
L 30.09375 7.171875 
C 30.09375 3.59375 29.796875 2.5 21.5 2.5 
L 18.703125 2.5 
L 18.703125 0 
C 23.5 0 28.5 0 33.40625 0 
C 38.296875 0 43.296875 0 48.09375 0 
L 48.09375 2.5 
L 45.296875 2.5 
C 37 2.5 36.703125 3.59375 36.703125 7.171875 
L 36.703125 61.125 
C 36.703125 63.3125 36.703125 64.515625 38.5 64.90625 
C 39.296875 65 42.203125 65 44 65 
C 59.296875 65 60.796875 62.125 62.09375 45.59375 
L 63.90625 45.59375 
z
" id="CMR17-84"/>
       <path d="M 36 25.828125 
C 36 32.375 36 35.84375 31.796875 39.734375 
C 28.09375 43 23.796875 44 20.40625 44 
C 12.5 44 6.796875 37.609375 6.796875 30.796875 
C 6.796875 27 9.796875 27 10.40625 27 
C 11.703125 27 14 27.78125 14 30.53125 
C 14 33 12.09375 34.078125 10.40625 34.078125 
C 10 34.078125 9.5 33.96875 9.203125 33.875 
C 11.296875 40.5 16.703125 42.40625 20.203125 42.40625 
C 25.203125 42.40625 30.703125 37.953125 30.703125 29.453125 
L 30.703125 25 
C 24.796875 25 17.703125 24.203125 12.09375 21.203125 
C 5.796875 17.703125 4 12.703125 4 8.90625 
C 4 1.203125 13 -1 18.296875 -1 
C 23.796875 -1 28.90625 2.171875 31.09375 7.984375 
C 31.296875 3.640625 34.09375 -0.28125 38.5 -0.28125 
C 40.59375 -0.28125 45.90625 1.09375 45.90625 8.859375 
L 45.90625 14.375 
L 44.09375 14.375 
L 44.09375 8.78125 
C 44.09375 2.78125 41.40625 2 40.09375 2 
C 36 2 36 7.15625 36 11.53125 
z
M 30.703125 13.59375 
C 30.703125 4.953125 24.5 0.59375 19 0.59375 
C 14 0.59375 10.09375 4.296875 10.09375 8.90625 
C 10.09375 11.890625 11.40625 17.1875 17.203125 20.390625 
C 22 23.09375 27.5 23.5 30.703125 23.5 
z
" id="CMR17-97"/>
       <path d="M 30.90625 42.140625 
C 30.90625 43.953125 30.796875 44.046875 30.203125 44.046875 
C 29.796875 44.046875 29.703125 43.953125 28.5 42.453125 
C 28.203125 42.046875 27.296875 41.03125 27 40.640625 
C 23.796875 44.046875 19.296875 44.046875 17.59375 44.046875 
C 6.5 44.046875 2.5 38.234375 2.5 32.4375 
C 2.5 23.40625 12.703125 21.328125 15.59375 20.703125 
C 21.90625 19.421875 24.09375 19.015625 26.203125 17.203125 
C 27.5 16.015625 29.703125 13.8125 29.703125 10.21875 
C 29.703125 6 27.296875 0.59375 18.09375 0.59375 
C 9.40625 0.59375 6.296875 7.1875 4.5 15.953125 
C 4.203125 17.34375 4.203125 17.453125 3.40625 17.453125 
C 2.59375 17.453125 2.5 17.34375 2.5 15.359375 
L 2.5 0.984375 
C 2.5 -0.796875 2.59375 -0.90625 3.203125 -0.90625 
C 3.703125 -0.90625 3.796875 -0.796875 4.296875 0 
C 4.90625 0.890625 6.40625 3.296875 7 4.3125 
C 9 1.609375 12.5 -1 18.09375 -1 
C 28 -1 33.296875 4.421875 33.296875 12.25 
C 33.296875 17.375 30.59375 20.078125 29.296875 21.28125 
C 26.296875 24.390625 22.796875 25.09375 18.59375 25.890625 
C 13.09375 27.109375 6.09375 28.515625 6.09375 34.640625 
C 6.09375 37.234375 7.5 42.765625 17.59375 42.765625 
C 28.296875 42.765625 28.90625 32.71875 29.09375 29.5 
C 29.203125 29 29.703125 28.890625 30 28.890625 
C 30.90625 28.890625 30.90625 29.203125 30.90625 30.90625 
z
" id="CMR17-115"/>
       <path d="M 30.59375 -24.390625 
C 30.59375 -24.296875 30.59375 -24.09375 30.296875 -23.796875 
C 25.703125 -19.125 13.40625 -6.359375 13.40625 24.703125 
C 13.40625 55.765625 25.5 68.421875 30.40625 73.390625 
C 30.40625 73.5 30.59375 73.703125 30.59375 74 
C 30.59375 74.296875 30.296875 74.5 29.90625 74.5 
C 28.796875 74.5 20.296875 67.125 15.40625 56.15625 
C 10.40625 45.109375 9 34.359375 9 24.8125 
C 9 17.625 9.703125 5.484375 15.703125 -7.359375 
C 20.5 -17.734375 28.703125 -25 29.90625 -25 
C 30.40625 -25 30.59375 -24.796875 30.59375 -24.390625 
z
" id="CMR17-40"/>
       <path d="M 36.796875 61.3125 
C 37.703125 65 38.09375 65 42 65 
L 49.203125 65 
C 57.796875 65 64.203125 62.421875 64.203125 54.671875 
C 64.203125 49.609375 61.59375 35 41.5 35 
L 30.203125 35 
z
M 50.703125 33.890625 
C 63.09375 36.578125 72.796875 44.546875 72.796875 53.09375 
C 72.796875 60.84375 64.90625 68 51 68 
L 23.90625 68 
C 21.90625 68 21 68 21 66.03125 
C 21 65 21.703125 65 23.59375 65 
C 29.59375 65 29.59375 64.25 29.59375 63.203125 
C 29.59375 63.015625 29.59375 62.40625 29.203125 60.921875 
L 15.703125 7.484375 
C 14.796875 4 14.59375 3 7.703125 3 
C 5.40625 3 4.703125 3 4.703125 1.109375 
C 4.703125 0.109375 5.796875 0.109375 6.09375 0.109375 
C 7.90625 0.109375 10 0.109375 11.90625 0.109375 
L 23.703125 0.109375 
C 25.5 0.109375 27.59375 0.109375 29.40625 0.109375 
C 30.203125 0.109375 31.296875 0.109375 31.296875 2 
C 31.296875 3 30.40625 3 28.90625 3 
C 22.796875 3 22.796875 3.796875 22.796875 4.78125 
C 22.796875 4.890625 22.796875 5.578125 23 6.359375 
L 29.703125 33 
L 41.703125 33 
C 51.203125 33 53 27.046875 53 23.78125 
C 53 22.296875 52 18.421875 51.296875 15.84375 
C 50.203125 11.296875 49.90625 10.1875 49.90625 8.3125 
C 49.90625 1.28125 55.703125 -2 62.40625 -2 
C 70.5 -2 74 7.828125 74 9.234375 
C 74 9.921875 73.5 10.21875 72.90625 10.21875 
C 72.09375 10.21875 71.90625 9.625 71.703125 8.828125 
C 69.296875 1.78125 65.203125 0 62.703125 0 
C 60.203125 0 58.59375 1.09375 58.59375 5.5625 
C 58.59375 7.953125 59.796875 17 59.90625 17.5 
C 60.40625 21.171875 60.40625 21.5625 60.40625 22.375 
C 60.40625 29.625 54.5 32.703125 50.703125 33.890625 
z
" id="CMMI12-82"/>
       <path d="M 64.296875 31.515625 
C 65.796875 31.515625 67.296875 31.515625 67.296875 33.203125 
C 67.296875 35 65.59375 35 63.90625 35 
L 8 35 
C 6.296875 35 4.59375 35 4.59375 33.203125 
C 4.59375 31.515625 6.09375 31.515625 7.59375 31.515625 
z
M 63.90625 14 
C 65.59375 14 67.296875 14 67.296875 15.796875 
C 67.296875 17.484375 65.796875 17.484375 64.296875 17.484375 
L 7.59375 17.484375 
C 6.09375 17.484375 4.59375 17.484375 4.59375 15.796875 
C 4.59375 14 6.296875 14 8 14 
z
" id="CMR17-61"/>
       <path d="M 16.59375 4.078125 
C 16.59375 6.5625 14.59375 8.15625 12.5 8.15625 
C 10.5 8.15625 8.40625 6.5625 8.40625 4.078125 
C 8.40625 1.59375 10.40625 0 12.5 0 
C 14.5 0 16.59375 1.59375 16.59375 4.078125 
z
" id="CMR17-46"/>
       <path d="M 45.09375 61.578125 
L 45.09375 63.765625 
L 21.59375 63.765625 
C 9.90625 63.765625 9.703125 65.078125 9.296875 67 
L 7.5 67 
L 4.59375 48.34375 
L 6.40625 48.34375 
C 6.703125 50.234375 7.40625 55.3125 8.59375 57.203125 
C 9.203125 58 16.59375 58 18.296875 58 
L 40.296875 58 
L 29.203125 41.578125 
C 21.796875 30.53125 16.703125 15.609375 16.703125 2.578125 
C 16.703125 1.390625 16.703125 -2 20.296875 -2 
C 23.90625 -2 23.90625 1.390625 23.90625 2.671875 
L 23.90625 7.265625 
C 23.90625 23.5625 26.703125 34.3125 31.296875 41.1875 
z
" id="CMR17-55"/>
       <path d="M 27.203125 35.375 
C 33.5 38.546875 39.90625 43.328125 39.90625 50.984375 
C 39.90625 60.015625 31.09375 65.296875 23 65.296875 
C 13.90625 65.296875 5.90625 58.734375 5.90625 49.6875 
C 5.90625 47.203125 6.5 42.921875 10.40625 39.140625 
C 11.40625 38.15625 15.59375 35.171875 18.296875 33.28125 
C 13.796875 30.984375 3.296875 25.53125 3.296875 14.59375 
C 3.296875 4.359375 13.09375 -2 22.796875 -2 
C 33.5 -2 42.5 5.65625 42.5 15.78125 
C 42.5 24.84375 36.40625 29.015625 32.40625 31.703125 
z
M 14.09375 44.09375 
C 13.296875 44.59375 9.296875 47.671875 9.296875 52.359375 
C 9.296875 58.421875 15.59375 63 22.796875 63 
C 30.703125 63 36.5 57.4375 36.5 50.96875 
C 36.5 41.703125 26.09375 36.421875 25.59375 36.421875 
C 25.5 36.421875 25.40625 36.421875 24.59375 37.03125 
z
M 32.5 23.734375 
C 34 22.640625 38.796875 19.375 38.796875 13.296875 
C 38.796875 5.953125 31.40625 0.390625 23 0.390625 
C 13.90625 0.390625 7 6.84375 7 14.6875 
C 7 22.546875 13.09375 29.09375 20 32.1875 
z
" id="CMR17-56"/>
       <path d="M 26.296875 24.703125 
C 26.296875 31.875 25.59375 44.015625 19.59375 56.859375 
C 14.796875 67.234375 6.59375 74.5 5.40625 74.5 
C 5.09375 74.5 4.703125 74.390625 4.703125 73.890625 
C 4.703125 73.703125 4.796875 73.59375 4.90625 73.390625 
C 9.703125 68.40625 21.90625 55.75 21.90625 24.75 
C 21.90625 -6.359375 9.796875 -19.015625 4.90625 -24.015625 
C 4.796875 -24.203125 4.703125 -24.3125 4.703125 -24.5 
C 4.703125 -25 5.09375 -25 5.40625 -25 
C 6.5 -25 15 -17.625 19.90625 -6.65625 
C 24.90625 4.390625 26.296875 15.140625 26.296875 24.703125 
z
" id="CMR17-41"/>
      </defs>
      <use transform="scale(0.996264)" xlink:href="#CMR17-84"/>
      <use transform="translate(58.702625 0)scale(0.996264)" xlink:href="#CMR17-114"/>
      <use transform="translate(93.983393 0)scale(0.996264)" xlink:href="#CMR17-97"/>
      <use transform="translate(139.67387 0)scale(0.996264)" xlink:href="#CMR17-105"/>
      <use transform="translate(164.544929 0)scale(0.996264)" xlink:href="#CMR17-110"/>
      <use transform="translate(245.516265 0)scale(0.996264)" xlink:href="#CMR17-100"/>
      <use transform="translate(296.411634 0)scale(0.996264)" xlink:href="#CMR17-97"/>
      <use transform="translate(342.102112 0)scale(0.996264)" xlink:href="#CMR17-116"/>
      <use transform="translate(377.382879 0)scale(0.996264)" xlink:href="#CMR17-97"/>
      <use transform="translate(423.073357 0)scale(0.996264)" xlink:href="#CMR17-115"/>
      <use transform="translate(458.874694 0)scale(0.996264)" xlink:href="#CMR17-101"/>
      <use transform="translate(499.360355 0)scale(0.996264)" xlink:href="#CMR17-116"/>
      <use transform="translate(564.717089 0)scale(0.996264)" xlink:href="#CMR17-40"/>
      <use transform="translate(599.997857 0)scale(0.996264)" xlink:href="#CMMI12-82"/>
      <use transform="translate(675.068818 36.153639)scale(0.697382)" xlink:href="#CMR17-50"/>
      <use transform="translate(707.550132 0)scale(0.996264)" xlink:href="#CMR17-61"/>
      <use transform="translate(779.264921 0)scale(0.996264)" xlink:href="#CMR17-48"/>
      <use transform="translate(824.955398 0)scale(0.996264)" xlink:href="#CMR17-46"/>
      <use transform="translate(849.826456 0)scale(0.996264)" xlink:href="#CMR17-55"/>
      <use transform="translate(895.516934 0)scale(0.996264)" xlink:href="#CMR17-56"/>
      <use transform="translate(941.207411 0)scale(0.996264)" xlink:href="#CMR17-50"/>
      <use transform="translate(986.897888 0)scale(0.996264)" xlink:href="#CMR17-41"/>
     </g>
    </g>
    <g id="PathCollection_4">
     <defs>
      <path d="M 0 3.354102 
C 0.889518 3.354102 1.742724 3.000693 2.371708 2.371708 
C 3.000693 1.742724 3.354102 0.889518 3.354102 0 
C 3.354102 -0.889518 3.000693 -1.742724 2.371708 -2.371708 
C 1.742724 -3.000693 0.889518 -3.354102 0 -3.354102 
C -0.889518 -3.354102 -1.742724 -3.000693 -2.371708 -2.371708 
C -3.000693 -1.742724 -3.354102 -0.889518 -3.354102 0 
C -3.354102 0.889518 -3.000693 1.742724 -2.371708 2.371708 
C -1.742724 3.000693 -0.889518 3.354102 0 3.354102 
z
" id="mb5f8ee44b0" style="stroke:#000000;stroke-width:0.4;"/>
     </defs>
     <g>
      <use style="fill:#dd8452;stroke:#000000;stroke-width:0.4;" x="107.039374" xlink:href="#mb5f8ee44b0" y="61.399234"/>
     </g>
    </g>
    <g id="text_16">
     <!-- Test dataset ($R^2$=0.632) -->
     <g transform="translate(119.639374 65.756734)scale(0.14 -0.14)">
      <use transform="scale(0.996264)" xlink:href="#CMR17-84"/>
      <use transform="translate(58.702625 0)scale(0.996264)" xlink:href="#CMR17-101"/>
      <use transform="translate(99.188286 0)scale(0.996264)" xlink:href="#CMR17-115"/>
      <use transform="translate(134.989623 0)scale(0.996264)" xlink:href="#CMR17-116"/>
      <use transform="translate(200.346357 0)scale(0.996264)" xlink:href="#CMR17-100"/>
      <use transform="translate(251.241727 0)scale(0.996264)" xlink:href="#CMR17-97"/>
      <use transform="translate(296.932204 0)scale(0.996264)" xlink:href="#CMR17-116"/>
      <use transform="translate(332.212972 0)scale(0.996264)" xlink:href="#CMR17-97"/>
      <use transform="translate(377.903449 0)scale(0.996264)" xlink:href="#CMR17-115"/>
      <use transform="translate(413.704787 0)scale(0.996264)" xlink:href="#CMR17-101"/>
      <use transform="translate(454.190447 0)scale(0.996264)" xlink:href="#CMR17-116"/>
      <use transform="translate(519.547181 0)scale(0.996264)" xlink:href="#CMR17-40"/>
      <use transform="translate(554.827949 0)scale(0.996264)" xlink:href="#CMMI12-82"/>
      <use transform="translate(629.898911 36.153639)scale(0.697382)" xlink:href="#CMR17-50"/>
      <use transform="translate(662.380225 0)scale(0.996264)" xlink:href="#CMR17-61"/>
      <use transform="translate(734.095014 0)scale(0.996264)" xlink:href="#CMR17-48"/>
      <use transform="translate(779.785491 0)scale(0.996264)" xlink:href="#CMR17-46"/>
      <use transform="translate(804.656549 0)scale(0.996264)" xlink:href="#CMR17-54"/>
      <use transform="translate(850.347026 0)scale(0.996264)" xlink:href="#CMR17-51"/>
      <use transform="translate(896.037503 0)scale(0.996264)" xlink:href="#CMR17-50"/>
      <use transform="translate(941.727981 0)scale(0.996264)" xlink:href="#CMR17-41"/>
     </g>
    </g>
   </g>
  </g>
 </g>
 <defs>
  <clipPath id="p9a00b3babf">
   <rect height="274.721252" width="274.721252" x="93.039374" y="19.962938"/>
  </clipPath>
 </defs>
</svg>
