<?xml version="1.0" encoding="utf-8" standalone="no"?>
<!DOCTYPE svg PUBLIC "-//W3C//DTD SVG 1.1//EN"
  "http://www.w3.org/Graphics/SVG/1.1/DTD/svg11.dtd">
<!-- Created with matplotlib (https://matplotlib.org/) -->
<svg height="345.6pt" version="1.1" viewBox="0 0 460.8 345.6" width="460.8pt" xmlns="http://www.w3.org/2000/svg" xmlns:xlink="http://www.w3.org/1999/xlink">
 <metadata>
  <rdf:RDF xmlns:cc="http://creativecommons.org/ns#" xmlns:dc="http://purl.org/dc/elements/1.1/" xmlns:rdf="http://www.w3.org/1999/02/22-rdf-syntax-ns#">
   <cc:Work>
    <dc:type rdf:resource="http://purl.org/dc/dcmitype/StillImage"/>
    <dc:date>2022-10-30T16:27:45.950521</dc:date>
    <dc:format>image/svg+xml</dc:format>
    <dc:creator>
     <cc:Agent>
      <dc:title>Matplotlib v3.3.4, https://matplotlib.org/</dc:title>
     </cc:Agent>
    </dc:creator>
   </cc:Work>
  </rdf:RDF>
 </metadata>
 <defs>
  <style type="text/css">*{stroke-linecap:butt;stroke-linejoin:round;}</style>
 </defs>
 <g id="figure_1">
  <g id="patch_1">
   <path d="M 0 345.6 
L 460.8 345.6 
L 460.8 0 
L 0 0 
z
" style="fill:#ffffff;"/>
  </g>
  <g id="axes_1">
   <g id="patch_2">
    <path d="M 68.588821 277.574739 
L 436.831557 277.574739 
L 436.831557 21.6 
L 68.588821 21.6 
z
" style="fill:#ffffff;"/>
   </g>
   <g id="matplotlib.axis_1">
    <g id="xtick_1">
     <g id="line2d_1">
      <defs>
       <path d="M 0 0 
L 0 3.5 
" id="m5d7359f38b" style="stroke:#000000;stroke-width:0.8;"/>
      </defs>
      <g>
       <use style="stroke:#000000;stroke-width:0.8;" x="85.327127" xlink:href="#m5d7359f38b" y="277.574739"/>
      </g>
     </g>
     <g id="text_1">
      <!-- $\mathdefault{0}$ -->
      <g transform="translate(80.75808 298.411736)scale(0.2 -0.2)">
       <defs>
        <path d="M 42 31.640625 
C 42 37.75 41.90625 48.125 37.703125 56.109375 
C 34 63.109375 28.09375 65.59375 22.90625 65.59375 
C 18.09375 65.59375 12 63.40625 8.203125 56.203125 
C 4.203125 48.71875 3.796875 39.4375 3.796875 31.640625 
C 3.796875 25.953125 3.90625 17.28125 7 9.671875 
C 11.296875 -0.609375 19 -2 22.90625 -2 
C 27.5 -2 34.5 -0.109375 38.59375 9.375 
C 41.59375 16.28125 42 24.359375 42 31.640625 
z
M 22.90625 -0.40625 
C 16.5 -0.40625 12.703125 5.078125 11.296875 12.6875 
C 10.203125 18.5625 10.203125 27.15625 10.203125 32.75 
C 10.203125 40.4375 10.203125 46.828125 11.5 52.921875 
C 13.40625 61.390625 19 64 22.90625 64 
C 27 64 32.296875 61.296875 34.203125 53.125 
C 35.5 47.4375 35.59375 40.734375 35.59375 32.75 
C 35.59375 26.25 35.59375 18.265625 34.40625 12.375 
C 32.296875 1.484375 26.40625 -0.40625 22.90625 -0.40625 
z
" id="CMR17-48"/>
       </defs>
       <use transform="scale(0.996264)" xlink:href="#CMR17-48"/>
      </g>
     </g>
    </g>
    <g id="xtick_2">
     <g id="line2d_2">
      <g>
       <use style="stroke:#000000;stroke-width:0.8;" x="152.347372" xlink:href="#m5d7359f38b" y="277.574739"/>
      </g>
     </g>
     <g id="text_2">
      <!-- $\mathdefault{200}$ -->
      <g transform="translate(138.640229 298.411736)scale(0.2 -0.2)">
       <defs>
        <path d="M 41.703125 15.453125 
L 39.90625 15.453125 
C 38.90625 8.375 38.09375 7.171875 37.703125 6.5625 
C 37.203125 5.765625 30 5.765625 28.59375 5.765625 
L 9.40625 5.765625 
C 13 9.671875 20 16.75 28.5 24.953125 
C 34.59375 30.734375 41.703125 37.53125 41.703125 47.421875 
C 41.703125 59.21875 32.296875 66 21.796875 66 
C 10.796875 66 4.09375 56.3125 4.09375 47.34375 
C 4.09375 43.4375 7 42.9375 8.203125 42.9375 
C 9.203125 42.9375 12.203125 43.546875 12.203125 47.03125 
C 12.203125 50.109375 9.59375 51 8.203125 51 
C 7.59375 51 7 50.90625 6.59375 50.703125 
C 8.5 59.21875 14.296875 63.40625 20.40625 63.40625 
C 29.09375 63.40625 34.796875 56.515625 34.796875 47.421875 
C 34.796875 38.734375 29.703125 31.25 24 24.75 
L 4.09375 2.28125 
L 4.09375 0 
L 39.296875 0 
z
" id="CMR17-50"/>
       </defs>
       <use transform="scale(0.996264)" xlink:href="#CMR17-50"/>
       <use transform="translate(45.690477 0)scale(0.996264)" xlink:href="#CMR17-48"/>
       <use transform="translate(91.380954 0)scale(0.996264)" xlink:href="#CMR17-48"/>
      </g>
     </g>
    </g>
    <g id="xtick_3">
     <g id="line2d_3">
      <g>
       <use style="stroke:#000000;stroke-width:0.8;" x="219.367617" xlink:href="#m5d7359f38b" y="277.574739"/>
      </g>
     </g>
     <g id="text_3">
      <!-- $\mathdefault{400}$ -->
      <g transform="translate(205.660474 298.411736)scale(0.2 -0.2)">
       <defs>
        <path d="M 33.59375 64.40625 
C 33.59375 66.5 33.5 66.5 31.703125 66.5 
L 2 19.59375 
L 2 17 
L 27.796875 17 
L 27.796875 7.140625 
C 27.796875 3.5 27.59375 2.5 20.59375 2.5 
L 18.703125 2.5 
L 18.703125 0 
C 21.90625 0 27.296875 0 30.703125 0 
C 34.09375 0 39.5 0 42.703125 0 
L 42.703125 2.5 
L 40.796875 2.5 
C 33.796875 2.5 33.59375 3.5 33.59375 7.140625 
L 33.59375 17 
L 43.796875 17 
L 43.796875 19.59375 
L 33.59375 19.59375 
z
M 28.09375 57.859375 
L 28.09375 19.59375 
L 4 19.59375 
z
" id="CMR17-52"/>
       </defs>
       <use transform="scale(0.996264)" xlink:href="#CMR17-52"/>
       <use transform="translate(45.690477 0)scale(0.996264)" xlink:href="#CMR17-48"/>
       <use transform="translate(91.380954 0)scale(0.996264)" xlink:href="#CMR17-48"/>
      </g>
     </g>
    </g>
    <g id="xtick_4">
     <g id="line2d_4">
      <g>
       <use style="stroke:#000000;stroke-width:0.8;" x="286.387862" xlink:href="#m5d7359f38b" y="277.574739"/>
      </g>
     </g>
     <g id="text_4">
      <!-- $\mathdefault{600}$ -->
      <g transform="translate(272.680719 298.411736)scale(0.2 -0.2)">
       <defs>
        <path d="M 10.59375 34 
C 10.59375 57.65625 21.796875 63 28.296875 63 
C 30.40625 63 35.5 62.640625 37.5 59 
C 35.90625 59 32.90625 59 32.90625 55.515625 
C 32.90625 52.828125 35.09375 51.921875 36.5 51.921875 
C 37.40625 51.921875 40.09375 52.3125 40.09375 55.625 
C 40.09375 61.78125 35.09375 65.296875 28.203125 65.296875 
C 16.296875 65.296875 3.796875 52.96875 3.796875 31 
C 3.796875 3.953125 15.09375 -2 23.09375 -2 
C 32.796875 -2 42 6.671875 42 20.046875 
C 42 32.515625 33.90625 41.59375 23.703125 41.59375 
C 17.59375 41.59375 13.09375 37.609375 10.59375 30.625 
z
M 23.09375 0.390625 
C 10.796875 0.390625 10.796875 18.75 10.796875 22.4375 
C 10.796875 29.625 14.203125 40 23.5 40 
C 25.203125 40 30.09375 40 33.40625 33.125 
C 35.203125 29.21875 35.203125 25.140625 35.203125 20.140625 
C 35.203125 14.75 35.203125 10.78125 33.09375 6.78125 
C 30.90625 2.671875 27.703125 0.390625 23.09375 0.390625 
z
" id="CMR17-54"/>
       </defs>
       <use transform="scale(0.996264)" xlink:href="#CMR17-54"/>
       <use transform="translate(45.690477 0)scale(0.996264)" xlink:href="#CMR17-48"/>
       <use transform="translate(91.380954 0)scale(0.996264)" xlink:href="#CMR17-48"/>
      </g>
     </g>
    </g>
    <g id="xtick_5">
     <g id="line2d_5">
      <g>
       <use style="stroke:#000000;stroke-width:0.8;" x="353.408107" xlink:href="#m5d7359f38b" y="277.574739"/>
      </g>
     </g>
     <g id="text_5">
      <!-- $\mathdefault{800}$ -->
      <g transform="translate(339.700964 298.411736)scale(0.2 -0.2)">
       <defs>
        <path d="M 27.203125 35.375 
C 33.5 38.546875 39.90625 43.328125 39.90625 50.984375 
C 39.90625 60.015625 31.09375 65.296875 23 65.296875 
C 13.90625 65.296875 5.90625 58.734375 5.90625 49.6875 
C 5.90625 47.203125 6.5 42.921875 10.40625 39.140625 
C 11.40625 38.15625 15.59375 35.171875 18.296875 33.28125 
C 13.796875 30.984375 3.296875 25.53125 3.296875 14.59375 
C 3.296875 4.359375 13.09375 -2 22.796875 -2 
C 33.5 -2 42.5 5.65625 42.5 15.78125 
C 42.5 24.84375 36.40625 29.015625 32.40625 31.703125 
z
M 14.09375 44.09375 
C 13.296875 44.59375 9.296875 47.671875 9.296875 52.359375 
C 9.296875 58.421875 15.59375 63 22.796875 63 
C 30.703125 63 36.5 57.4375 36.5 50.96875 
C 36.5 41.703125 26.09375 36.421875 25.59375 36.421875 
C 25.5 36.421875 25.40625 36.421875 24.59375 37.03125 
z
M 32.5 23.734375 
C 34 22.640625 38.796875 19.375 38.796875 13.296875 
C 38.796875 5.953125 31.40625 0.390625 23 0.390625 
C 13.90625 0.390625 7 6.84375 7 14.6875 
C 7 22.546875 13.09375 29.09375 20 32.1875 
z
" id="CMR17-56"/>
       </defs>
       <use transform="scale(0.996264)" xlink:href="#CMR17-56"/>
       <use transform="translate(45.690477 0)scale(0.996264)" xlink:href="#CMR17-48"/>
       <use transform="translate(91.380954 0)scale(0.996264)" xlink:href="#CMR17-48"/>
      </g>
     </g>
    </g>
    <g id="xtick_6">
     <g id="line2d_6">
      <g>
       <use style="stroke:#000000;stroke-width:0.8;" x="420.428352" xlink:href="#m5d7359f38b" y="277.574739"/>
      </g>
     </g>
     <g id="text_6">
      <!-- $\mathdefault{1000}$ -->
      <g transform="translate(402.152161 298.411736)scale(0.2 -0.2)">
       <defs>
        <path d="M 26.59375 63.40625 
C 26.59375 65.5 26.5 65.5 25.09375 65.5 
C 21.203125 61.1875 15.296875 59.796875 9.703125 59.796875 
C 9.40625 59.796875 8.90625 59.796875 8.796875 59.5 
C 8.703125 59.296875 8.703125 59.09375 8.703125 57 
C 11.796875 57 17 57.59375 21 59.984375 
L 21 7.203125 
C 21 3.6875 20.796875 2.5 12.203125 2.5 
L 9.203125 2.5 
L 9.203125 0 
C 14 0 19 0 23.796875 0 
C 28.59375 0 33.59375 0 38.40625 0 
L 38.40625 2.5 
L 35.40625 2.5 
C 26.796875 2.5 26.59375 3.59375 26.59375 7.15625 
z
" id="CMR17-49"/>
       </defs>
       <use transform="scale(0.996264)" xlink:href="#CMR17-49"/>
       <use transform="translate(45.690477 0)scale(0.996264)" xlink:href="#CMR17-48"/>
       <use transform="translate(91.380954 0)scale(0.996264)" xlink:href="#CMR17-48"/>
       <use transform="translate(137.071431 0)scale(0.996264)" xlink:href="#CMR17-48"/>
      </g>
     </g>
    </g>
    <g id="text_7">
     <!-- Epoch -->
     <g transform="translate(227.394653 320.124366)scale(0.2 -0.2)">
      <defs>
       <path d="M 60.703125 25.234375 
L 58.90625 25.234375 
C 56.703125 10.5625 55.40625 2.59375 37.796875 2.59375 
L 23.90625 2.59375 
C 19.90625 2.59375 19.703125 3.078125 19.703125 6.46875 
L 19.703125 34 
L 29.09375 34 
C 38.5 34 39.40625 30.625 39.40625 22.34375 
L 41.203125 22.34375 
L 41.203125 48.140625 
L 39.40625 48.140625 
C 39.40625 39.953125 38.5 36.59375 29.09375 36.59375 
L 19.703125 36.59375 
L 19.703125 61.140625 
C 19.703125 64.5 19.90625 65 23.90625 65 
L 37.59375 65 
C 53.09375 65 54.90625 58.890625 56.296875 45.765625 
L 58.09375 45.765625 
L 55.703125 67.578125 
L 5.09375 67.578125 
L 5.09375 65 
C 12 65 13.09375 65 13.09375 60.53125 
L 13.09375 7.046875 
C 13.09375 2.59375 12 2.59375 5.09375 2.59375 
L 5.09375 0 
L 57.09375 0 
z
" id="CMR17-69"/>
       <path d="M 22 -16.609375 
C 15.59375 -16.609375 15.203125 -16.203125 15.203125 -12.328125 
L 15.203125 6.28125 
C 18.09375 2.09375 22.296875 -0.59375 27.59375 -0.59375 
C 37.59375 -0.59375 47.703125 8.171875 47.703125 21.6875 
C 47.703125 34.234375 39 43.78125 28.703125 43.78125 
C 22.703125 43.78125 17.796875 40.5 15 36.53125 
L 15 43.78125 
L 3.09375 42.6875 
L 3.09375 40.109375 
C 9 40.109375 9.90625 39.5 9.90625 34.734375 
L 9.90625 -12.328125 
C 9.90625 -16.109375 9.5 -16.609375 3.09375 -16.609375 
L 3.09375 -19.1875 
C 5.5 -19 9.90625 -19 12.5 -19 
C 15.09375 -19 19.59375 -19 22 -19.1875 
z
M 15.203125 31.4375 
C 15.203125 32.84375 15.203125 34.921875 19.09375 38.609375 
C 19.59375 39.015625 23 42 28 42 
C 35.296875 42 41.296875 32.9375 41.296875 21.59375 
C 41.296875 10.25 34.90625 1 27 1 
C 23.40625 1 19.5 2.6875 16.5 7.375 
C 15.203125 9.5625 15.203125 10.15625 15.203125 11.75 
z
" id="CMR17-112"/>
       <path d="M 43.09375 21.1875 
C 43.09375 34 33.796875 44 22.90625 44 
C 12 44 2.703125 34 2.703125 21.1875 
C 2.703125 8.609375 12 -1 22.90625 -1 
C 33.796875 -1 43.09375 8.609375 43.09375 21.1875 
z
M 22.90625 0.796875 
C 18.203125 0.796875 14.203125 3.59375 11.90625 7.5 
C 9.40625 11.984375 9.09375 17.59375 9.09375 22 
C 9.09375 26.203125 9.296875 31.40625 11.90625 35.90625 
C 13.90625 39.203125 17.796875 42.40625 22.90625 42.40625 
C 27.40625 42.40625 31.203125 39.90625 33.59375 36.40625 
C 36.703125 31.703125 36.703125 25.109375 36.703125 22 
C 36.703125 18.09375 36.5 12.109375 33.796875 7.296875 
C 31 2.703125 26.703125 0.796875 22.90625 0.796875 
z
" id="CMR17-111"/>
       <path d="M 34.90625 35 
C 33 35 30.203125 35 30.203125 31.515625 
C 30.203125 28.71875 32.5 27.921875 33.796875 27.921875 
C 34.5 27.921875 37.40625 28.234375 37.40625 31.625 
C 37.40625 38.546875 30.59375 43.796875 22.90625 43.796875 
C 12.296875 43.796875 3.296875 34.03125 3.296875 21.296875 
C 3.296875 8.0625 12.703125 -1 22.90625 -1 
C 35.296875 -1 38.40625 10.578125 38.40625 11.6875 
C 38.40625 12.09375 38.296875 12.390625 37.59375 12.390625 
C 36.90625 12.390625 36.796875 12.296875 36.40625 10.984375 
C 33.796875 2.8125 28.09375 0.796875 23.796875 0.796875 
C 17.40625 0.796875 9.703125 6.671875 9.703125 21.390625 
C 9.703125 36.53125 17.09375 42 23 42 
C 26.90625 42 32.703125 40.203125 34.90625 35 
z
" id="CMR17-99"/>
       <path d="M 41.5 30.203125 
C 41.5 35.296875 40.5 43.59375 28.703125 43.59375 
C 20.5 43.59375 16.5 37 15.296875 33.703125 
L 15.203125 33.703125 
L 15.203125 68.6875 
L 3.296875 67.59375 
L 3.296875 65 
C 9.203125 65 10.09375 64.40625 10.09375 59.640625 
L 10.09375 6.65625 
C 10.09375 2.875 9.703125 2.390625 3.296875 2.390625 
L 3.296875 -0.203125 
C 5.703125 0 10.09375 0 12.703125 0 
C 15.296875 0 19.796875 0 22.203125 -0.203125 
L 22.203125 2.390625 
C 15.796875 2.390625 15.40625 2.78125 15.40625 6.6875 
L 15.40625 25.90625 
C 15.40625 35.109375 21 42 28 42 
C 35.40625 42 36.203125 35.40625 36.203125 30.59375 
L 36.203125 6.6875 
C 36.203125 2.875 35.796875 2.390625 29.40625 2.390625 
L 29.40625 -0.203125 
C 31.796875 0 36.203125 0 38.796875 0 
C 41.40625 0 45.90625 0 48.296875 -0.203125 
L 48.296875 2.390625 
C 41.90625 2.390625 41.5 2.78125 41.5 6.6875 
z
" id="CMR17-104"/>
      </defs>
      <use transform="scale(0.996264)" xlink:href="#CMR17-69"/>
      <use transform="translate(62.586301 0)scale(0.996264)" xlink:href="#CMR17-112"/>
      <use transform="translate(116.084109 0)scale(0.996264)" xlink:href="#CMR17-111"/>
      <use transform="translate(164.377025 0)scale(0.996264)" xlink:href="#CMR17-99"/>
      <use transform="translate(202.260231 0)scale(0.996264)" xlink:href="#CMR17-104"/>
     </g>
    </g>
   </g>
   <g id="matplotlib.axis_2">
    <g id="ytick_1">
     <g id="line2d_7">
      <defs>
       <path d="M 0 0 
L -3.5 0 
" id="mf50fac00cf" style="stroke:#000000;stroke-width:0.8;"/>
      </defs>
      <g>
       <use style="stroke:#000000;stroke-width:0.8;" x="68.588821" xlink:href="#mf50fac00cf" y="268.275695"/>
      </g>
     </g>
     <g id="text_8">
      <!-- $\mathdefault{0}$ -->
      <g transform="translate(52.450726 275.194193)scale(0.2 -0.2)">
       <use transform="scale(0.996264)" xlink:href="#CMR17-48"/>
      </g>
     </g>
    </g>
    <g id="ytick_2">
     <g id="line2d_8">
      <g>
       <use style="stroke:#000000;stroke-width:0.8;" x="68.588821" xlink:href="#mf50fac00cf" y="196.844938"/>
      </g>
     </g>
     <g id="text_9">
      <!-- $\mathdefault{5}$ -->
      <g transform="translate(52.450726 203.763436)scale(0.2 -0.2)">
       <defs>
        <path d="M 11.40625 57.6875 
C 12.40625 57.28125 16.5 56 20.703125 56 
C 30 56 35.09375 61.109375 38 64.0625 
C 38 64.953125 38 65.5 37.40625 65.5 
C 37.296875 65.5 37.09375 65.5 36.296875 65.046875 
C 32.796875 63.40625 28.703125 62.078125 23.703125 62.078125 
C 20.703125 62.078125 16.203125 62.484375 11.296875 64.671875 
C 10.203125 65.171875 10 65.171875 9.90625 65.171875 
C 9.40625 65.171875 9.296875 65.0625 9.296875 63.078125 
L 9.296875 34.421875 
C 9.296875 32.640625 9.296875 32.140625 10.296875 32.140625 
C 10.796875 32.140625 11 32.34375 11.5 33.03125 
C 14.703125 37.515625 19.09375 39.40625 24.09375 39.40625 
C 27.59375 39.40625 35.09375 37.21875 35.09375 20.140625 
C 35.09375 16.953125 35.09375 11.171875 32.09375 6.578125 
C 29.59375 2.484375 25.703125 0.390625 21.40625 0.390625 
C 14.796875 0.390625 8.09375 5 6.296875 12.71875 
C 6.703125 12.609375 7.5 12.421875 7.90625 12.421875 
C 9.203125 12.421875 11.703125 13.125 11.703125 16.21875 
C 11.703125 18.90625 9.796875 20 7.90625 20 
C 5.59375 20 4.09375 18.59375 4.09375 15.796875 
C 4.09375 7.09375 11 -2 21.59375 -2 
C 31.90625 -2 41.703125 6.875 41.703125 19.75 
C 41.703125 31.71875 33.90625 41 24.203125 41 
C 19.09375 41 14.796875 39.109375 11.40625 35.53125 
z
" id="CMR17-53"/>
       </defs>
       <use transform="scale(0.996264)" xlink:href="#CMR17-53"/>
      </g>
     </g>
    </g>
    <g id="ytick_3">
     <g id="line2d_9">
      <g>
       <use style="stroke:#000000;stroke-width:0.8;" x="68.588821" xlink:href="#mf50fac00cf" y="125.414181"/>
      </g>
     </g>
     <g id="text_10">
      <!-- $\mathdefault{10}$ -->
      <g transform="translate(43.31263 132.332679)scale(0.2 -0.2)">
       <use transform="scale(0.996264)" xlink:href="#CMR17-49"/>
       <use transform="translate(45.690477 0)scale(0.996264)" xlink:href="#CMR17-48"/>
      </g>
     </g>
    </g>
    <g id="ytick_4">
     <g id="line2d_10">
      <g>
       <use style="stroke:#000000;stroke-width:0.8;" x="68.588821" xlink:href="#mf50fac00cf" y="53.983423"/>
      </g>
     </g>
     <g id="text_11">
      <!-- $\mathdefault{15}$ -->
      <g transform="translate(43.31263 60.901922)scale(0.2 -0.2)">
       <use transform="scale(0.996264)" xlink:href="#CMR17-49"/>
       <use transform="translate(45.690477 0)scale(0.996264)" xlink:href="#CMR17-53"/>
      </g>
     </g>
    </g>
    <g id="text_12">
     <!-- MSE Loss -->
     <g transform="translate(35.436997 189.879276)rotate(-90)scale(0.2 -0.2)">
      <defs>
       <path d="M 20.90625 66 
C 20.296875 67.5 20.203125 67.5 18.09375 67.5 
L 5.296875 67.5 
L 5.296875 65 
C 12.203125 65 13.296875 65 13.296875 60.546875 
L 13.296875 9.53125 
C 13.296875 7.046875 13.296875 2.390625 5.296875 2.390625 
L 5.296875 -0.203125 
C 7.59375 0 11.796875 0 14.296875 0 
C 16.796875 0 21 0 23.296875 -0.203125 
L 23.296875 2.390625 
C 15.296875 2.390625 15.296875 7.046875 15.296875 9.53125 
L 15.296875 64.609375 
L 15.40625 64.609375 
L 38.90625 1.390625 
C 39.296875 0.390625 39.5 -0.203125 40.296875 -0.203125 
C 41.09375 -0.203125 41.296875 0.390625 41.703125 1.390625 
L 65.40625 65.09375 
L 65.5 65.09375 
L 65.5 6.84375 
C 65.5 2.390625 64.40625 2.390625 57.5 2.390625 
L 57.5 -0.203125 
C 60.203125 0 65.59375 0 68.5 0 
C 71.40625 0 76.90625 0 79.59375 -0.203125 
L 79.59375 2.390625 
C 72.703125 2.390625 71.59375 2.390625 71.59375 6.84375 
L 71.59375 60.546875 
C 71.59375 65 72.703125 65 79.59375 65 
L 79.59375 67.5 
L 66.90625 67.5 
C 64.796875 67.5 64.703125 67.40625 64.09375 65.90625 
L 42.5 7.84375 
z
" id="CMR17-77"/>
       <path d="M 43.796875 67.03125 
C 43.796875 68.8125 43.703125 68.921875 43.09375 68.921875 
C 42.5 68.921875 42.296875 68.515625 41.90625 67.625 
L 38.90625 61.046875 
C 35.09375 66.515625 29.296875 69 23 69 
C 12.796875 69 4.59375 60.953125 4.59375 50.828125 
C 4.59375 47.75 5.296875 43.375 8.703125 39.21875 
C 12.40625 34.65625 15.90625 33.859375 23.90625 31.765625 
C 26.90625 30.96875 31.90625 29.671875 32.90625 29.28125 
C 38.59375 26.90625 41.59375 20.953125 41.59375 15.390625 
C 41.59375 8.234375 36.5 0.59375 27.796875 0.59375 
C 17.09375 0.59375 7.09375 6.546875 6.40625 20.484375 
C 6.296875 22.078125 6.203125 22.171875 5.5 22.171875 
C 4.703125 22.171875 4.59375 22.078125 4.59375 20.078125 
L 4.59375 -0.015625 
C 4.59375 -1.796875 4.703125 -1.90625 5.296875 -1.90625 
C 6 -1.90625 6.203125 -1.40625 7.59375 1.6875 
C 7.703125 1.984375 7.703125 2.1875 9.59375 5.953125 
C 14.59375 -0.609375 23 -2 27.796875 -2 
C 38.703125 -2 46.40625 7.046875 46.40625 17.5625 
C 46.40625 22.71875 44.5 26.6875 43.40625 28.484375 
C 39.203125 34.84375 34.703125 36.03125 29.90625 37.21875 
C 29.203125 37.53125 29 37.53125 23.40625 38.90625 
C 18 40.296875 15.703125 41 13.203125 43.6875 
C 10.40625 46.75 9.40625 49.9375 9.40625 53.109375 
C 9.40625 59.5625 14.59375 66.609375 23.09375 66.609375 
C 33.703125 66.609375 40.296875 59.15625 41.796875 46.765625 
C 42.09375 44.96875 42.203125 44.875 42.90625 44.875 
C 43.796875 44.875 43.796875 45.171875 43.796875 46.859375 
z
" id="CMR17-83"/>
       <path d="M 54.203125 25.234375 
L 52.40625 25.234375 
C 51.59375 15.359375 50.296875 2.59375 33.203125 2.59375 
L 23.90625 2.59375 
C 19.90625 2.59375 19.703125 3.078125 19.703125 6.46875 
L 19.703125 60.90625 
C 19.703125 64.515625 19.90625 65.5 27.5 65.5 
L 29.703125 65.5 
L 29.703125 68 
C 25.59375 68 20.796875 68 16.703125 68 
C 13.59375 68 8 68 5.09375 68 
L 5.09375 65.5 
C 12 65.5 13.09375 65.5 13.09375 61.015625 
L 13.09375 7.0625 
C 13.09375 2.59375 12 2.59375 5.09375 2.59375 
L 5.09375 0 
L 51.796875 0 
z
" id="CMR17-76"/>
       <path d="M 30.90625 42.140625 
C 30.90625 43.953125 30.796875 44.046875 30.203125 44.046875 
C 29.796875 44.046875 29.703125 43.953125 28.5 42.453125 
C 28.203125 42.046875 27.296875 41.03125 27 40.640625 
C 23.796875 44.046875 19.296875 44.046875 17.59375 44.046875 
C 6.5 44.046875 2.5 38.234375 2.5 32.4375 
C 2.5 23.40625 12.703125 21.328125 15.59375 20.703125 
C 21.90625 19.421875 24.09375 19.015625 26.203125 17.203125 
C 27.5 16.015625 29.703125 13.8125 29.703125 10.21875 
C 29.703125 6 27.296875 0.59375 18.09375 0.59375 
C 9.40625 0.59375 6.296875 7.1875 4.5 15.953125 
C 4.203125 17.34375 4.203125 17.453125 3.40625 17.453125 
C 2.59375 17.453125 2.5 17.34375 2.5 15.359375 
L 2.5 0.984375 
C 2.5 -0.796875 2.59375 -0.90625 3.203125 -0.90625 
C 3.703125 -0.90625 3.796875 -0.796875 4.296875 0 
C 4.90625 0.890625 6.40625 3.296875 7 4.3125 
C 9 1.609375 12.5 -1 18.09375 -1 
C 28 -1 33.296875 4.421875 33.296875 12.25 
C 33.296875 17.375 30.59375 20.078125 29.296875 21.28125 
C 26.296875 24.390625 22.796875 25.09375 18.59375 25.890625 
C 13.09375 27.109375 6.09375 28.515625 6.09375 34.640625 
C 6.09375 37.234375 7.5 42.765625 17.59375 42.765625 
C 28.296875 42.765625 28.90625 32.71875 29.09375 29.5 
C 29.203125 29 29.703125 28.890625 30 28.890625 
C 30.90625 28.890625 30.90625 29.203125 30.90625 30.90625 
z
" id="CMR17-115"/>
      </defs>
      <use transform="scale(0.996264)" xlink:href="#CMR17-77"/>
      <use transform="translate(84.686941 0)scale(0.996264)" xlink:href="#CMR17-83"/>
      <use transform="translate(135.58231 0)scale(0.996264)" xlink:href="#CMR17-69"/>
      <use transform="translate(228.244577 0)scale(0.996264)" xlink:href="#CMR17-76"/>
      <use transform="translate(285.625985 0)scale(0.996264)" xlink:href="#CMR17-111"/>
      <use transform="translate(331.316462 0)scale(0.996264)" xlink:href="#CMR17-115"/>
      <use transform="translate(367.1178 0)scale(0.996264)" xlink:href="#CMR17-115"/>
     </g>
    </g>
   </g>
   <g id="line2d_11">
    <path clip-path="url(#pe8f7d7a83a)" d="M 85.327127 33.235215 
L 85.662229 173.860053 
L 85.99733 205.817359 
L 86.332431 223.945907 
L 86.667532 229.996356 
L 87.002634 238.997003 
L 87.672836 248.947369 
L 88.007937 250.290867 
L 88.343038 252.451593 
L 89.013241 254.797075 
L 89.348342 255.341181 
L 89.683443 256.114064 
L 90.018545 256.406895 
L 90.353646 256.994449 
L 93.034456 259.106237 
L 95.715265 260.425321 
L 97.390771 260.99089 
L 98.731176 261.315205 
L 99.73648 261.545135 
L 100.741784 261.824781 
L 102.752391 262.116015 
L 104.092796 262.295164 
L 105.768302 262.492623 
L 107.108707 262.617622 
L 109.454416 262.821645 
L 112.805428 263.027968 
L 117.496845 263.296466 
L 121.51806 263.453581 
L 130.900894 263.766627 
L 133.916805 263.826835 
L 140.953931 263.97383 
L 144.975145 264.130193 
L 150.336765 264.071103 
L 157.708992 264.329025 
L 159.719599 264.165622 
L 161.730207 263.959937 
L 162.73551 264.133628 
L 164.411016 264.539611 
L 166.421624 264.665546 
L 168.09713 264.488501 
L 169.772636 264.075131 
L 170.77794 263.813328 
L 171.448142 263.893574 
L 173.123648 264.61209 
L 174.799154 264.755635 
L 176.47466 264.494351 
L 177.815065 264.36003 
L 179.15547 264.534182 
L 180.830976 264.799151 
L 182.506483 264.846971 
L 185.187292 264.57149 
L 186.862798 264.205416 
L 187.533001 264.121386 
L 188.203203 264.275246 
L 189.543608 264.828946 
L 190.884013 264.978675 
L 192.224418 264.906264 
L 193.899924 264.582685 
L 195.240329 264.330114 
L 195.910531 264.379674 
L 198.25624 265.048454 
L 199.596645 265.086584 
L 201.607252 264.852806 
L 202.947657 264.524277 
L 203.952961 264.218825 
L 204.623163 264.253898 
L 206.298669 265.023534 
L 207.639074 265.131627 
L 208.644378 265.052148 
L 209.984783 264.749788 
L 210.990087 264.53171 
L 211.660289 264.550523 
L 213.000694 264.976351 
L 214.005998 265.180939 
L 216.016605 265.193408 
L 218.697415 264.745762 
L 220.03782 264.464881 
L 220.708022 264.539904 
L 222.718629 265.219717 
L 224.394136 265.263834 
L 226.069642 265.019554 
L 228.750452 264.553401 
L 229.420654 264.759665 
L 230.761059 265.21748 
L 232.101464 265.328461 
L 233.441869 265.237389 
L 235.117375 264.899574 
L 236.792881 264.56057 
L 237.463083 264.683021 
L 238.803488 265.207089 
L 239.808792 265.344824 
L 241.484298 265.318518 
L 243.494905 264.951266 
L 245.170412 264.687723 
L 245.840614 264.793957 
L 248.186323 265.366196 
L 249.861829 265.388335 
L 251.537335 265.185881 
L 254.553246 264.532069 
L 255.223448 264.761864 
L 256.228752 265.196533 
L 257.569157 265.368916 
L 258.909562 265.333358 
L 260.249967 265.028379 
L 261.25527 264.774418 
L 261.925473 264.765448 
L 264.941384 265.448495 
L 266.951991 265.36696 
L 268.627497 265.049605 
L 270.303003 264.691815 
L 270.973206 264.770052 
L 272.983813 265.388226 
L 274.99442 265.477933 
L 276.669927 265.26307 
L 279.015635 264.773061 
L 279.685838 264.805117 
L 280.691141 265.154137 
L 281.696445 265.401985 
L 283.707052 265.506011 
L 285.047457 265.351753 
L 287.728267 264.75396 
L 288.733571 265.03054 
L 289.738874 265.364131 
L 291.41438 265.529177 
L 292.754785 265.46936 
L 294.09519 265.173938 
L 296.105798 264.749083 
L 296.776 264.98791 
L 297.781304 265.366524 
L 299.121709 265.515718 
L 300.797215 265.444168 
L 303.478025 264.901028 
L 304.148227 265.055533 
L 305.488632 265.470624 
L 307.164138 265.594694 
L 308.839644 265.496249 
L 310.180049 265.248822 
L 311.855555 264.805981 
L 312.525758 264.824788 
L 313.19596 265.06304 
L 314.201264 265.422666 
L 315.541669 265.555272 
L 316.546972 265.559006 
L 317.887377 265.30281 
L 319.562883 264.965643 
L 320.233086 265.066611 
L 322.243693 265.583034 
L 323.919199 265.634058 
L 325.594705 265.418674 
L 327.605313 264.956107 
L 328.275515 264.981243 
L 329.280819 265.31891 
L 330.286123 265.561604 
L 331.626527 265.646222 
L 332.966932 265.576208 
L 334.307337 265.292493 
L 335.982843 264.927539 
L 336.653046 265.070248 
L 337.658349 265.477388 
L 338.663653 265.630996 
L 340.339159 265.6579 
L 341.679564 265.469308 
L 344.025273 264.981693 
L 344.695475 265.201163 
L 345.700779 265.558297 
L 347.041184 265.675688 
L 348.381589 265.656197 
L 349.721994 265.424083 
L 351.3975 265.027364 
L 352.067702 265.117503 
L 353.743208 265.632684 
L 355.418714 265.722788 
L 356.759119 265.613912 
L 358.099524 265.293775 
L 358.769727 265.099316 
L 359.439929 265.019212 
L 360.110132 265.201755 
L 361.450536 265.680047 
L 363.461144 265.757338 
L 365.13665 265.561807 
L 367.147257 265.179463 
L 367.81746 265.211753 
L 369.828067 265.751903 
L 372.843978 265.730531 
L 374.854585 265.373775 
L 375.859889 265.070382 
L 376.530092 265.017684 
L 377.200294 265.203548 
L 378.205598 265.61845 
L 379.546003 265.707828 
L 380.886407 265.733044 
L 382.226812 265.475237 
L 383.232116 265.28994 
L 383.902318 265.345756 
L 385.912926 265.808398 
L 388.593736 265.839407 
L 390.269242 265.652468 
L 392.950052 265.107984 
L 393.955355 265.457583 
L 394.625558 265.683984 
L 395.630861 265.77878 
L 398.646772 265.633896 
L 400.65738 265.195303 
L 401.327582 265.342015 
L 402.332886 265.746632 
L 403.33819 265.841014 
L 405.683898 265.798427 
L 407.359404 265.379317 
L 408.364708 265.191603 
L 409.03491 265.334195 
L 410.040214 265.744734 
L 411.045518 265.8494 
L 413.726327 265.689383 
L 415.736935 265.304276 
L 416.742238 265.63826 
L 417.747542 265.891368 
L 419.423048 265.923684 
L 420.093251 265.897164 
L 420.093251 265.897164 
" style="fill:none;stroke:#4c72b0;stroke-linecap:square;stroke-width:2;"/>
   </g>
   <g id="line2d_12">
    <path clip-path="url(#pe8f7d7a83a)" d="M 85.327127 191.381075 
L 85.662229 214.832157 
L 85.99733 217.896682 
L 86.667532 240.75163 
L 87.337735 247.668495 
L 87.672836 249.235176 
L 88.007937 251.405336 
L 88.67814 253.643354 
L 89.013241 254.023474 
L 89.348342 254.623477 
L 89.683443 254.749733 
L 90.018545 255.15476 
L 92.029152 256.442942 
L 92.699354 256.836403 
L 93.704658 257.320702 
L 96.050367 258.254051 
L 100.741784 259.366099 
L 101.747087 259.472546 
L 103.422594 259.815208 
L 110.79482 260.587824 
L 113.47563 260.777982 
L 115.151136 260.914735 
L 116.15644 260.992063 
L 122.858465 261.164834 
L 125.874376 261.335147 
L 132.241299 261.37314 
L 133.581704 261.41302 
L 135.25721 261.469974 
L 137.267817 261.540048 
L 141.289032 261.507542 
L 144.975145 261.658035 
L 150.671866 261.500517 
L 152.012271 261.666951 
L 154.022878 261.891502 
L 156.033486 261.90654 
L 159.719599 261.334702 
L 161.395105 261.011808 
L 162.065308 261.318023 
L 163.405713 262.123094 
L 164.411016 262.219548 
L 167.426927 262.159679 
L 168.767332 261.654173 
L 170.442838 260.618346 
L 170.77794 260.725444 
L 171.113041 261.012096 
L 171.783243 261.946433 
L 172.118345 262.201706 
L 172.453446 262.261589 
L 173.123648 262.202806 
L 174.799154 262.364148 
L 176.139559 261.899331 
L 176.809762 261.672052 
L 177.479964 261.556298 
L 178.485268 261.824562 
L 179.15547 262.086977 
L 180.160774 262.325427 
L 181.83628 262.394382 
L 185.187292 261.831872 
L 186.862798 261.02597 
L 187.1979 261.027304 
L 187.533001 261.1967 
L 188.873406 262.388467 
L 189.878709 262.434137 
L 191.889317 262.461331 
L 192.89462 262.166986 
L 194.905228 261.30975 
L 195.240329 261.291882 
L 195.57543 261.442107 
L 196.580734 262.178873 
L 197.250936 262.446503 
L 198.25624 262.529034 
L 200.266847 262.503333 
L 201.272151 262.272953 
L 202.277455 261.835453 
L 203.61786 260.939295 
L 203.952961 260.969581 
L 204.288062 261.13654 
L 205.293366 262.349178 
L 205.628467 262.48946 
L 206.968872 262.482732 
L 207.639074 262.583335 
L 208.644378 262.409752 
L 210.654985 261.390124 
L 211.325188 261.472111 
L 211.99539 261.909344 
L 212.665593 262.361375 
L 213.335795 262.512589 
L 216.351706 262.473352 
L 217.35701 262.230701 
L 219.702718 261.141233 
L 220.03782 261.17872 
L 220.708022 261.728218 
L 221.378225 262.357522 
L 222.048427 262.537287 
L 224.729237 262.524311 
L 225.73454 262.270342 
L 227.745148 261.272742 
L 228.080249 261.186184 
L 228.41535 261.284048 
L 229.085553 261.826169 
L 229.755755 262.386184 
L 230.425958 262.561339 
L 232.771666 262.614672 
L 234.447172 262.103525 
L 235.787577 261.324227 
L 236.45778 261.204156 
L 236.792881 261.298652 
L 238.133286 262.416951 
L 238.803488 262.537636 
L 240.143893 262.612047 
L 241.484298 262.524727 
L 242.824703 262.066297 
L 244.500209 261.34875 
L 244.83531 261.334128 
L 245.170412 261.435451 
L 246.845918 262.490592 
L 247.851221 262.5633 
L 250.867132 262.474766 
L 252.207537 261.91242 
L 253.883043 261.027816 
L 254.218145 261.085177 
L 254.553246 261.34545 
L 255.223448 262.17617 
L 255.558549 262.452879 
L 256.228752 262.476013 
L 256.898954 262.442269 
L 258.57446 262.605355 
L 259.244663 262.357631 
L 261.25527 261.377442 
L 261.590372 261.454228 
L 262.260574 261.958507 
L 262.930776 262.455161 
L 263.93608 262.560002 
L 265.611586 262.670085 
L 266.951991 262.518651 
L 267.957295 262.121687 
L 269.967902 261.199277 
L 270.303003 261.286937 
L 270.973206 261.849111 
L 271.643408 262.395906 
L 272.313611 262.580981 
L 273.318914 262.54395 
L 274.99442 262.647652 
L 275.664623 262.558769 
L 276.669927 262.196951 
L 278.010332 261.431714 
L 279.015635 261.31786 
L 279.350736 261.461643 
L 280.35604 262.347729 
L 281.026243 262.570716 
L 282.031546 262.504132 
L 283.03685 262.654801 
L 283.707052 262.67382 
L 284.712356 262.459454 
L 285.71766 261.998146 
L 286.722963 261.370151 
L 287.393166 261.19697 
L 288.063368 261.684505 
L 288.733571 262.305345 
L 289.068672 262.508542 
L 290.409077 262.537653 
L 292.754785 262.562156 
L 293.424988 262.291995 
L 295.100494 261.212122 
L 295.435595 261.166008 
L 295.770696 261.252287 
L 296.105798 261.499809 
L 296.776 262.283144 
L 297.111101 262.496562 
L 297.446203 262.576309 
L 298.451506 262.529739 
L 298.786607 262.504955 
L 299.45681 262.668284 
L 300.127012 262.639971 
L 300.797215 262.445596 
L 302.807822 261.36542 
L 303.142923 261.413118 
L 303.813126 261.896232 
L 304.483328 262.386484 
L 304.818429 262.566564 
L 307.834341 262.713822 
L 309.509847 262.306258 
L 311.520454 261.153039 
L 311.855555 261.161612 
L 312.190656 261.319626 
L 313.531061 262.583589 
L 313.866163 262.620613 
L 314.536365 262.52561 
L 315.206567 262.562202 
L 315.87677 262.732587 
L 316.882074 262.578423 
L 318.222478 261.830388 
L 318.55758 261.571146 
L 319.227782 261.471792 
L 319.562883 261.555315 
L 321.238389 262.652858 
L 324.254301 262.678867 
L 325.929807 262.024508 
L 327.270212 261.40337 
L 327.605313 261.393135 
L 327.940414 261.539073 
L 329.280819 262.657486 
L 332.631831 262.687386 
L 333.637135 262.310208 
L 335.312641 261.353913 
L 335.647742 261.313589 
L 336.317945 261.858081 
L 336.988147 262.521858 
L 337.323248 262.681589 
L 338.328552 262.620933 
L 338.998754 262.677216 
L 340.339159 262.733132 
L 341.344463 262.442676 
L 343.019969 261.412035 
L 343.690172 261.444702 
L 344.025273 261.710276 
L 344.695475 262.441462 
L 345.365678 262.72049 
L 346.706083 262.667887 
L 348.046487 262.811054 
L 349.386892 262.300518 
L 350.727297 261.471843 
L 351.062398 261.424136 
L 351.3975 261.510049 
L 351.732601 261.724801 
L 352.402803 262.461051 
L 353.073006 262.739318 
L 354.078309 262.663933 
L 356.424018 262.69976 
L 357.429322 262.200531 
L 358.769727 261.438481 
L 359.104828 261.391866 
L 359.439929 261.605395 
L 360.110132 262.3349 
L 360.445233 262.625389 
L 361.115435 262.721768 
L 362.45584 262.733779 
L 363.461144 262.827146 
L 364.466447 262.651066 
L 366.812156 261.635381 
L 367.147257 261.592429 
L 367.482358 261.740763 
L 368.487662 262.545077 
L 368.822763 262.711577 
L 370.163168 262.701353 
L 371.503573 262.772916 
L 372.173776 262.822767 
L 374.184383 262.334446 
L 375.859889 261.233303 
L 376.530092 261.462164 
L 377.535395 262.616477 
L 377.870496 262.730732 
L 379.546003 262.622441 
L 380.551306 262.783453 
L 381.221509 262.615095 
L 382.897015 261.6703 
L 383.567217 261.879441 
L 385.242723 262.703042 
L 385.577825 262.777979 
L 386.248027 262.694185 
L 388.928837 262.821783 
L 390.269242 262.467493 
L 391.944748 261.418295 
L 392.61495 261.346973 
L 392.950052 261.602399 
L 393.620254 262.340694 
L 394.290456 262.725641 
L 396.301064 262.645319 
L 396.971266 262.841422 
L 397.97657 262.746348 
L 398.981874 262.141684 
L 399.987177 261.461808 
L 400.65738 261.649933 
L 401.997785 262.703316 
L 402.667987 262.698049 
L 403.33819 262.620628 
L 405.683898 262.771823 
L 406.354101 262.384011 
L 407.694505 261.465106 
L 408.029607 261.45955 
L 408.699809 261.902013 
L 409.03491 262.339921 
L 409.705113 262.712437 
L 410.040214 262.746773 
L 410.710416 262.557976 
L 412.050821 262.77478 
L 412.385923 262.8571 
L 413.056125 262.744249 
L 414.061429 262.161278 
L 414.731631 261.657888 
L 415.401834 261.621335 
L 417.07734 262.733647 
L 417.747542 262.712435 
L 418.752846 262.71657 
L 420.093251 262.822936 
L 420.093251 262.822936 
" style="fill:none;stroke:#dd8452;stroke-linecap:square;stroke-width:2;"/>
   </g>
   <g id="patch_3">
    <path d="M 68.588821 277.574739 
L 68.588821 21.6 
" style="fill:none;stroke:#000000;stroke-linecap:square;stroke-linejoin:miter;stroke-width:0.8;"/>
   </g>
   <g id="patch_4">
    <path d="M 436.831557 277.574739 
L 436.831557 21.6 
" style="fill:none;stroke:#000000;stroke-linecap:square;stroke-linejoin:miter;stroke-width:0.8;"/>
   </g>
   <g id="patch_5">
    <path d="M 68.588821 277.574739 
L 436.831557 277.574739 
" style="fill:none;stroke:#000000;stroke-linecap:square;stroke-linejoin:miter;stroke-width:0.8;"/>
   </g>
   <g id="patch_6">
    <path d="M 68.588821 21.6 
L 436.831557 21.6 
" style="fill:none;stroke:#000000;stroke-linecap:square;stroke-linejoin:miter;stroke-width:0.8;"/>
   </g>
   <g id="legend_1">
    <g id="patch_7">
     <path d="M 242.379306 93.753759 
L 422.831557 93.753759 
Q 426.831557 93.753759 426.831557 89.753759 
L 426.831557 35.6 
Q 426.831557 31.6 422.831557 31.6 
L 242.379306 31.6 
Q 238.379306 31.6 238.379306 35.6 
L 238.379306 89.753759 
Q 238.379306 93.753759 242.379306 93.753759 
z
" style="fill:#ffffff;opacity:0.8;stroke:#cccccc;stroke-linejoin:miter;"/>
    </g>
    <g id="line2d_13">
     <path d="M 246.379306 46.6 
L 286.379306 46.6 
" style="fill:none;stroke:#4c72b0;stroke-linecap:square;stroke-width:2;"/>
    </g>
    <g id="line2d_14"/>
    <g id="text_13">
     <!-- Train loss -->
     <g transform="translate(302.379306 53.6)scale(0.2 -0.2)">
      <defs>
       <path d="M 62.203125 67.59375 
L 4.5 67.59375 
L 2.796875 45.59375 
L 4.59375 45.59375 
C 5.90625 62.125 7.296875 65 22.703125 65 
C 24.5 65 27.40625 65 28.203125 64.90625 
C 30.09375 64.609375 30.09375 63.40625 30.09375 61.125 
L 30.09375 7.171875 
C 30.09375 3.59375 29.796875 2.5 21.5 2.5 
L 18.703125 2.5 
L 18.703125 0 
C 23.5 0 28.5 0 33.40625 0 
C 38.296875 0 43.296875 0 48.09375 0 
L 48.09375 2.5 
L 45.296875 2.5 
C 37 2.5 36.703125 3.59375 36.703125 7.171875 
L 36.703125 61.125 
C 36.703125 63.3125 36.703125 64.515625 38.5 64.90625 
C 39.296875 65 42.203125 65 44 65 
C 59.296875 65 60.796875 62.125 62.09375 45.59375 
L 63.90625 45.59375 
z
" id="CMR17-84"/>
       <path d="M 15 23.390625 
C 15 33 19.09375 42 26.59375 42 
C 27.296875 42 28 41.90625 28.703125 41.59375 
C 28.703125 41.59375 26.5 40.890625 26.5 38.3125 
C 26.5 35.90625 28.40625 34.90625 29.90625 34.90625 
C 31.09375 34.90625 33.296875 35.609375 33.296875 38.40625 
C 33.296875 41.609375 30.09375 43.59375 26.703125 43.59375 
C 19.09375 43.59375 15.796875 36.203125 14.796875 32.703125 
L 14.703125 32.703125 
L 14.703125 43.59375 
L 3.09375 42.5 
L 3.09375 39.90625 
C 9 39.90625 9.90625 39.296875 9.90625 34.5 
L 9.90625 6.6875 
C 9.90625 2.875 9.5 2.390625 3.09375 2.390625 
L 3.09375 -0.203125 
C 5.5 0 10.09375 0 12.703125 0 
C 15.59375 0 20.703125 0 23.40625 -0.203125 
L 23.40625 2.390625 
C 16.203125 2.390625 15 2.390625 15 6.875 
z
" id="CMR17-114"/>
       <path d="M 36 25.828125 
C 36 32.375 36 35.84375 31.796875 39.734375 
C 28.09375 43 23.796875 44 20.40625 44 
C 12.5 44 6.796875 37.609375 6.796875 30.796875 
C 6.796875 27 9.796875 27 10.40625 27 
C 11.703125 27 14 27.78125 14 30.53125 
C 14 33 12.09375 34.078125 10.40625 34.078125 
C 10 34.078125 9.5 33.96875 9.203125 33.875 
C 11.296875 40.5 16.703125 42.40625 20.203125 42.40625 
C 25.203125 42.40625 30.703125 37.953125 30.703125 29.453125 
L 30.703125 25 
C 24.796875 25 17.703125 24.203125 12.09375 21.203125 
C 5.796875 17.703125 4 12.703125 4 8.90625 
C 4 1.203125 13 -1 18.296875 -1 
C 23.796875 -1 28.90625 2.171875 31.09375 7.984375 
C 31.296875 3.640625 34.09375 -0.28125 38.5 -0.28125 
C 40.59375 -0.28125 45.90625 1.09375 45.90625 8.859375 
L 45.90625 14.375 
L 44.09375 14.375 
L 44.09375 8.78125 
C 44.09375 2.78125 41.40625 2 40.09375 2 
C 36 2 36 7.15625 36 11.53125 
z
M 30.703125 13.59375 
C 30.703125 4.953125 24.5 0.59375 19 0.59375 
C 14 0.59375 10.09375 4.296875 10.09375 8.90625 
C 10.09375 11.890625 11.40625 17.1875 17.203125 20.390625 
C 22 23.09375 27.5 23.5 30.703125 23.5 
z
" id="CMR17-97"/>
       <path d="M 15.5 61.078125 
C 15.5 63.265625 13.703125 65.15625 11.40625 65.15625 
C 9.203125 65.15625 7.296875 63.375 7.296875 61.078125 
C 7.296875 58.890625 9.09375 57 11.40625 57 
C 13.59375 57 15.5 58.796875 15.5 61.078125 
z
M 3.796875 42.28125 
L 3.796875 39.703125 
C 9.40625 39.703125 10.203125 39.09375 10.203125 34.328125 
L 10.203125 6.671875 
C 10.203125 2.875 9.796875 2.390625 3.40625 2.390625 
L 3.40625 -0.203125 
C 5.796875 0 10.09375 0 12.59375 0 
C 15 0 19.09375 0 21.40625 -0.203125 
L 21.40625 2.390625 
C 15.5 2.390625 15.296875 2.984375 15.296875 6.5625 
L 15.296875 43.375 
z
" id="CMR17-105"/>
       <path d="M 41.5 30.203125 
C 41.5 35.296875 40.5 43.59375 28.703125 43.59375 
C 20.796875 43.59375 16.703125 37.5 15.203125 33.5 
L 15.09375 33.5 
L 15.09375 43.59375 
L 3.296875 42.5 
L 3.296875 39.90625 
C 9.203125 39.90625 10.09375 39.296875 10.09375 34.5 
L 10.09375 6.6875 
C 10.09375 2.875 9.703125 2.390625 3.296875 2.390625 
L 3.296875 -0.203125 
C 5.703125 0 10.09375 0 12.703125 0 
C 15.296875 0 19.796875 0 22.203125 -0.203125 
L 22.203125 2.390625 
C 15.796875 2.390625 15.40625 2.78125 15.40625 6.6875 
L 15.40625 25.90625 
C 15.40625 35.109375 21 42 28 42 
C 35.40625 42 36.203125 35.40625 36.203125 30.59375 
L 36.203125 6.6875 
C 36.203125 2.875 35.796875 2.390625 29.40625 2.390625 
L 29.40625 -0.203125 
C 31.796875 0 36.203125 0 38.796875 0 
C 41.40625 0 45.90625 0 48.296875 -0.203125 
L 48.296875 2.390625 
C 41.90625 2.390625 41.5 2.78125 41.5 6.6875 
z
" id="CMR17-110"/>
       <path d="M 15.296875 68.6875 
L 3.40625 67.59375 
L 3.40625 65 
C 9.296875 65 10.203125 64.40625 10.203125 59.640625 
L 10.203125 6.65625 
C 10.203125 2.875 9.796875 2.390625 3.40625 2.390625 
L 3.40625 -0.203125 
C 5.796875 0 10.203125 0 12.703125 0 
C 15.296875 0 19.703125 0 22.09375 -0.203125 
L 22.09375 2.390625 
C 15.703125 2.390625 15.296875 2.78125 15.296875 6.65625 
z
" id="CMR17-108"/>
      </defs>
      <use transform="scale(0.996264)" xlink:href="#CMR17-84"/>
      <use transform="translate(58.702625 0)scale(0.996264)" xlink:href="#CMR17-114"/>
      <use transform="translate(93.983393 0)scale(0.996264)" xlink:href="#CMR17-97"/>
      <use transform="translate(139.67387 0)scale(0.996264)" xlink:href="#CMR17-105"/>
      <use transform="translate(164.544929 0)scale(0.996264)" xlink:href="#CMR17-110"/>
      <use transform="translate(245.516265 0)scale(0.996264)" xlink:href="#CMR17-108"/>
      <use transform="translate(270.387323 0)scale(0.996264)" xlink:href="#CMR17-111"/>
      <use transform="translate(316.0778 0)scale(0.996264)" xlink:href="#CMR17-115"/>
      <use transform="translate(351.879138 0)scale(0.996264)" xlink:href="#CMR17-115"/>
     </g>
    </g>
    <g id="line2d_15">
     <path d="M 246.379306 74.878125 
L 286.379306 74.878125 
" style="fill:none;stroke:#dd8452;stroke-linecap:square;stroke-width:2;"/>
    </g>
    <g id="line2d_16"/>
    <g id="text_14">
     <!-- Validation loss -->
     <g transform="translate(302.379306 81.878125)scale(0.2 -0.2)">
      <defs>
       <path d="M 59 58.515625 
C 59.90625 60.71875 61.5 65 68.203125 65 
L 68.203125 67.6875 
C 65.90625 67.484375 63.296875 67.484375 60.796875 67.484375 
C 58.40625 67.484375 54.296875 67.484375 52 67.6875 
L 52 65 
C 57 65 57.203125 61.5 57.203125 60.90625 
C 57.203125 59.796875 56.90625 59.109375 56.59375 58.3125 
L 36.90625 6.96875 
L 16.296875 60.71875 
C 16 61.421875 15.796875 61.921875 15.796875 62.40625 
C 15.796875 65 19.796875 65 21.90625 65 
L 21.90625 67.484375 
C 18.703125 67.484375 14 67.484375 10.703125 67.484375 
C 8.09375 67.484375 3.40625 67.484375 1 67.6875 
L 1 65 
C 6.796875 65 7.90625 64.609375 9.09375 61.421875 
L 32.90625 -0.40625 
C 33.40625 -1.796875 33.5 -2 34.59375 -2 
C 35.703125 -2 35.796875 -1.796875 36.296875 -0.40625 
z
" id="CMR17-86"/>
       <path d="M 29.203125 67.59375 
L 29.203125 65 
C 35.09375 65 36 64.40625 36 59.6875 
L 36 36.640625 
C 35.59375 37.140625 31.5 43.59375 23.40625 43.59375 
C 13.203125 43.59375 3.296875 34.5 3.296875 21.3125 
C 3.296875 8.203125 12.59375 -1 22.40625 -1 
C 30.90625 -1 35.296875 5.265625 35.796875 5.9375 
L 35.796875 -0.984375 
L 47.90625 -0.984375 
L 47.90625 2 
C 42 2 41.09375 2.59375 41.09375 7.390625 
L 41.09375 68.6875 
z
M 35.796875 11.796875 
C 35.796875 8.796875 34 6.09375 31.703125 4.09375 
C 28.296875 1.09375 24.90625 0.59375 23 0.59375 
C 20.09375 0.59375 9.703125 2.09375 9.703125 21.1875 
C 9.703125 40.8125 21.296875 42 23.90625 42 
C 28.5 42 32.203125 39.40625 34.5 35.796875 
C 35.796875 33.703125 35.796875 33.40625 35.796875 31.609375 
z
" id="CMR17-100"/>
       <path d="M 15.09375 40 
L 29.09375 40 
L 29.09375 42.578125 
L 15.09375 42.578125 
L 15.09375 61 
L 13.296875 61 
C 13.09375 50.703125 9.59375 41.6875 1.09375 41.6875 
L 1.09375 40 
L 9.796875 40 
L 9.796875 12.046875 
C 9.796875 10.15625 9.796875 -1 21.40625 -1 
C 27.296875 -1 30.703125 4.78125 30.703125 12.140625 
L 30.703125 17.8125 
L 28.90625 17.8125 
L 28.90625 12.234375 
C 28.90625 5.375 26.203125 0.796875 22 0.796875 
C 19.09375 0.796875 15.09375 2.78125 15.09375 11.84375 
z
" id="CMR17-116"/>
      </defs>
      <use transform="scale(0.996264)" xlink:href="#CMR17-86"/>
      <use transform="translate(61.265174 0)scale(0.996264)" xlink:href="#CMR17-97"/>
      <use transform="translate(106.955652 0)scale(0.996264)" xlink:href="#CMR17-108"/>
      <use transform="translate(131.82671 0)scale(0.996264)" xlink:href="#CMR17-105"/>
      <use transform="translate(156.697768 0)scale(0.996264)" xlink:href="#CMR17-100"/>
      <use transform="translate(207.593138 0)scale(0.996264)" xlink:href="#CMR17-97"/>
      <use transform="translate(253.283615 0)scale(0.996264)" xlink:href="#CMR17-116"/>
      <use transform="translate(288.564383 0)scale(0.996264)" xlink:href="#CMR17-105"/>
      <use transform="translate(313.435442 0)scale(0.996264)" xlink:href="#CMR17-111"/>
      <use transform="translate(359.125919 0)scale(0.996264)" xlink:href="#CMR17-110"/>
      <use transform="translate(440.097255 0)scale(0.996264)" xlink:href="#CMR17-108"/>
      <use transform="translate(464.968313 0)scale(0.996264)" xlink:href="#CMR17-111"/>
      <use transform="translate(510.658791 0)scale(0.996264)" xlink:href="#CMR17-115"/>
      <use transform="translate(546.460128 0)scale(0.996264)" xlink:href="#CMR17-115"/>
     </g>
    </g>
   </g>
  </g>
 </g>
 <defs>
  <clipPath id="pe8f7d7a83a">
   <rect height="255.974739" width="368.242736" x="68.588821" y="21.6"/>
  </clipPath>
 </defs>
</svg>
