<?xml version="1.0" encoding="utf-8" standalone="no"?>
<!DOCTYPE svg PUBLIC "-//W3C//DTD SVG 1.1//EN"
  "http://www.w3.org/Graphics/SVG/1.1/DTD/svg11.dtd">
<!-- Created with matplotlib (https://matplotlib.org/) -->
<svg height="345.6pt" version="1.1" viewBox="0 0 460.8 345.6" width="460.8pt" xmlns="http://www.w3.org/2000/svg" xmlns:xlink="http://www.w3.org/1999/xlink">
 <metadata>
  <rdf:RDF xmlns:cc="http://creativecommons.org/ns#" xmlns:dc="http://purl.org/dc/elements/1.1/" xmlns:rdf="http://www.w3.org/1999/02/22-rdf-syntax-ns#">
   <cc:Work>
    <dc:type rdf:resource="http://purl.org/dc/dcmitype/StillImage"/>
    <dc:date>2022-10-28T16:47:22.665872</dc:date>
    <dc:format>image/svg+xml</dc:format>
    <dc:creator>
     <cc:Agent>
      <dc:title>Matplotlib v3.3.4, https://matplotlib.org/</dc:title>
     </cc:Agent>
    </dc:creator>
   </cc:Work>
  </rdf:RDF>
 </metadata>
 <defs>
  <style type="text/css">*{stroke-linecap:butt;stroke-linejoin:round;}</style>
 </defs>
 <g id="figure_1">
  <g id="patch_1">
   <path d="M 0 345.6 
L 460.8 345.6 
L 460.8 0 
L 0 0 
z
" style="fill:#ffffff;"/>
  </g>
  <g id="axes_1">
   <g id="patch_2">
    <path d="M 68.588821 277.574739 
L 436.994128 277.574739 
L 436.994128 21.6 
L 68.588821 21.6 
z
" style="fill:#ffffff;"/>
   </g>
   <g id="matplotlib.axis_1">
    <g id="xtick_1">
     <g id="line2d_1">
      <defs>
       <path d="M 0 0 
L 0 3.5 
" id="m2f138fb227" style="stroke:#000000;stroke-width:0.8;"/>
      </defs>
      <g>
       <use style="stroke:#000000;stroke-width:0.8;" x="85.334517" xlink:href="#m2f138fb227" y="277.574739"/>
      </g>
     </g>
     <g id="text_1">
      <!-- $\mathdefault{0}$ -->
      <g transform="translate(80.765469 298.411736)scale(0.2 -0.2)">
       <defs>
        <path d="M 42 31.640625 
C 42 37.75 41.90625 48.125 37.703125 56.109375 
C 34 63.109375 28.09375 65.59375 22.90625 65.59375 
C 18.09375 65.59375 12 63.40625 8.203125 56.203125 
C 4.203125 48.71875 3.796875 39.4375 3.796875 31.640625 
C 3.796875 25.953125 3.90625 17.28125 7 9.671875 
C 11.296875 -0.609375 19 -2 22.90625 -2 
C 27.5 -2 34.5 -0.109375 38.59375 9.375 
C 41.59375 16.28125 42 24.359375 42 31.640625 
z
M 22.90625 -0.40625 
C 16.5 -0.40625 12.703125 5.078125 11.296875 12.6875 
C 10.203125 18.5625 10.203125 27.15625 10.203125 32.75 
C 10.203125 40.4375 10.203125 46.828125 11.5 52.921875 
C 13.40625 61.390625 19 64 22.90625 64 
C 27 64 32.296875 61.296875 34.203125 53.125 
C 35.5 47.4375 35.59375 40.734375 35.59375 32.75 
C 35.59375 26.25 35.59375 18.265625 34.40625 12.375 
C 32.296875 1.484375 26.40625 -0.40625 22.90625 -0.40625 
z
" id="CMR17-48"/>
       </defs>
       <use transform="scale(0.996264)" xlink:href="#CMR17-48"/>
      </g>
     </g>
    </g>
    <g id="xtick_2">
     <g id="line2d_2">
      <g>
       <use style="stroke:#000000;stroke-width:0.8;" x="169.104881" xlink:href="#m2f138fb227" y="277.574739"/>
      </g>
     </g>
     <g id="text_2">
      <!-- $\mathdefault{500}$ -->
      <g transform="translate(155.397738 298.411736)scale(0.2 -0.2)">
       <defs>
        <path d="M 11.40625 57.6875 
C 12.40625 57.28125 16.5 56 20.703125 56 
C 30 56 35.09375 61.109375 38 64.0625 
C 38 64.953125 38 65.5 37.40625 65.5 
C 37.296875 65.5 37.09375 65.5 36.296875 65.046875 
C 32.796875 63.40625 28.703125 62.078125 23.703125 62.078125 
C 20.703125 62.078125 16.203125 62.484375 11.296875 64.671875 
C 10.203125 65.171875 10 65.171875 9.90625 65.171875 
C 9.40625 65.171875 9.296875 65.0625 9.296875 63.078125 
L 9.296875 34.421875 
C 9.296875 32.640625 9.296875 32.140625 10.296875 32.140625 
C 10.796875 32.140625 11 32.34375 11.5 33.03125 
C 14.703125 37.515625 19.09375 39.40625 24.09375 39.40625 
C 27.59375 39.40625 35.09375 37.21875 35.09375 20.140625 
C 35.09375 16.953125 35.09375 11.171875 32.09375 6.578125 
C 29.59375 2.484375 25.703125 0.390625 21.40625 0.390625 
C 14.796875 0.390625 8.09375 5 6.296875 12.71875 
C 6.703125 12.609375 7.5 12.421875 7.90625 12.421875 
C 9.203125 12.421875 11.703125 13.125 11.703125 16.21875 
C 11.703125 18.90625 9.796875 20 7.90625 20 
C 5.59375 20 4.09375 18.59375 4.09375 15.796875 
C 4.09375 7.09375 11 -2 21.59375 -2 
C 31.90625 -2 41.703125 6.875 41.703125 19.75 
C 41.703125 31.71875 33.90625 41 24.203125 41 
C 19.09375 41 14.796875 39.109375 11.40625 35.53125 
z
" id="CMR17-53"/>
       </defs>
       <use transform="scale(0.996264)" xlink:href="#CMR17-53"/>
       <use transform="translate(45.690477 0)scale(0.996264)" xlink:href="#CMR17-48"/>
       <use transform="translate(91.380954 0)scale(0.996264)" xlink:href="#CMR17-48"/>
      </g>
     </g>
    </g>
    <g id="xtick_3">
     <g id="line2d_3">
      <g>
       <use style="stroke:#000000;stroke-width:0.8;" x="252.875245" xlink:href="#m2f138fb227" y="277.574739"/>
      </g>
     </g>
     <g id="text_3">
      <!-- $\mathdefault{1000}$ -->
      <g transform="translate(234.599054 298.411736)scale(0.2 -0.2)">
       <defs>
        <path d="M 26.59375 63.40625 
C 26.59375 65.5 26.5 65.5 25.09375 65.5 
C 21.203125 61.1875 15.296875 59.796875 9.703125 59.796875 
C 9.40625 59.796875 8.90625 59.796875 8.796875 59.5 
C 8.703125 59.296875 8.703125 59.09375 8.703125 57 
C 11.796875 57 17 57.59375 21 59.984375 
L 21 7.203125 
C 21 3.6875 20.796875 2.5 12.203125 2.5 
L 9.203125 2.5 
L 9.203125 0 
C 14 0 19 0 23.796875 0 
C 28.59375 0 33.59375 0 38.40625 0 
L 38.40625 2.5 
L 35.40625 2.5 
C 26.796875 2.5 26.59375 3.59375 26.59375 7.15625 
z
" id="CMR17-49"/>
       </defs>
       <use transform="scale(0.996264)" xlink:href="#CMR17-49"/>
       <use transform="translate(45.690477 0)scale(0.996264)" xlink:href="#CMR17-48"/>
       <use transform="translate(91.380954 0)scale(0.996264)" xlink:href="#CMR17-48"/>
       <use transform="translate(137.071431 0)scale(0.996264)" xlink:href="#CMR17-48"/>
      </g>
     </g>
    </g>
    <g id="xtick_4">
     <g id="line2d_4">
      <g>
       <use style="stroke:#000000;stroke-width:0.8;" x="336.645609" xlink:href="#m2f138fb227" y="277.574739"/>
      </g>
     </g>
     <g id="text_4">
      <!-- $\mathdefault{1500}$ -->
      <g transform="translate(318.369418 298.411736)scale(0.2 -0.2)">
       <use transform="scale(0.996264)" xlink:href="#CMR17-49"/>
       <use transform="translate(45.690477 0)scale(0.996264)" xlink:href="#CMR17-53"/>
       <use transform="translate(91.380954 0)scale(0.996264)" xlink:href="#CMR17-48"/>
       <use transform="translate(137.071431 0)scale(0.996264)" xlink:href="#CMR17-48"/>
      </g>
     </g>
    </g>
    <g id="xtick_5">
     <g id="line2d_5">
      <g>
       <use style="stroke:#000000;stroke-width:0.8;" x="420.415973" xlink:href="#m2f138fb227" y="277.574739"/>
      </g>
     </g>
     <g id="text_5">
      <!-- $\mathdefault{2000}$ -->
      <g transform="translate(402.139782 298.411736)scale(0.2 -0.2)">
       <defs>
        <path d="M 41.703125 15.453125 
L 39.90625 15.453125 
C 38.90625 8.375 38.09375 7.171875 37.703125 6.5625 
C 37.203125 5.765625 30 5.765625 28.59375 5.765625 
L 9.40625 5.765625 
C 13 9.671875 20 16.75 28.5 24.953125 
C 34.59375 30.734375 41.703125 37.53125 41.703125 47.421875 
C 41.703125 59.21875 32.296875 66 21.796875 66 
C 10.796875 66 4.09375 56.3125 4.09375 47.34375 
C 4.09375 43.4375 7 42.9375 8.203125 42.9375 
C 9.203125 42.9375 12.203125 43.546875 12.203125 47.03125 
C 12.203125 50.109375 9.59375 51 8.203125 51 
C 7.59375 51 7 50.90625 6.59375 50.703125 
C 8.5 59.21875 14.296875 63.40625 20.40625 63.40625 
C 29.09375 63.40625 34.796875 56.515625 34.796875 47.421875 
C 34.796875 38.734375 29.703125 31.25 24 24.75 
L 4.09375 2.28125 
L 4.09375 0 
L 39.296875 0 
z
" id="CMR17-50"/>
       </defs>
       <use transform="scale(0.996264)" xlink:href="#CMR17-50"/>
       <use transform="translate(45.690477 0)scale(0.996264)" xlink:href="#CMR17-48"/>
       <use transform="translate(91.380954 0)scale(0.996264)" xlink:href="#CMR17-48"/>
       <use transform="translate(137.071431 0)scale(0.996264)" xlink:href="#CMR17-48"/>
      </g>
     </g>
    </g>
    <g id="text_6">
     <!-- Epoch -->
     <g transform="translate(227.475939 320.124366)scale(0.2 -0.2)">
      <defs>
       <path d="M 60.703125 25.234375 
L 58.90625 25.234375 
C 56.703125 10.5625 55.40625 2.59375 37.796875 2.59375 
L 23.90625 2.59375 
C 19.90625 2.59375 19.703125 3.078125 19.703125 6.46875 
L 19.703125 34 
L 29.09375 34 
C 38.5 34 39.40625 30.625 39.40625 22.34375 
L 41.203125 22.34375 
L 41.203125 48.140625 
L 39.40625 48.140625 
C 39.40625 39.953125 38.5 36.59375 29.09375 36.59375 
L 19.703125 36.59375 
L 19.703125 61.140625 
C 19.703125 64.5 19.90625 65 23.90625 65 
L 37.59375 65 
C 53.09375 65 54.90625 58.890625 56.296875 45.765625 
L 58.09375 45.765625 
L 55.703125 67.578125 
L 5.09375 67.578125 
L 5.09375 65 
C 12 65 13.09375 65 13.09375 60.53125 
L 13.09375 7.046875 
C 13.09375 2.59375 12 2.59375 5.09375 2.59375 
L 5.09375 0 
L 57.09375 0 
z
" id="CMR17-69"/>
       <path d="M 22 -16.609375 
C 15.59375 -16.609375 15.203125 -16.203125 15.203125 -12.328125 
L 15.203125 6.28125 
C 18.09375 2.09375 22.296875 -0.59375 27.59375 -0.59375 
C 37.59375 -0.59375 47.703125 8.171875 47.703125 21.6875 
C 47.703125 34.234375 39 43.78125 28.703125 43.78125 
C 22.703125 43.78125 17.796875 40.5 15 36.53125 
L 15 43.78125 
L 3.09375 42.6875 
L 3.09375 40.109375 
C 9 40.109375 9.90625 39.5 9.90625 34.734375 
L 9.90625 -12.328125 
C 9.90625 -16.109375 9.5 -16.609375 3.09375 -16.609375 
L 3.09375 -19.1875 
C 5.5 -19 9.90625 -19 12.5 -19 
C 15.09375 -19 19.59375 -19 22 -19.1875 
z
M 15.203125 31.4375 
C 15.203125 32.84375 15.203125 34.921875 19.09375 38.609375 
C 19.59375 39.015625 23 42 28 42 
C 35.296875 42 41.296875 32.9375 41.296875 21.59375 
C 41.296875 10.25 34.90625 1 27 1 
C 23.40625 1 19.5 2.6875 16.5 7.375 
C 15.203125 9.5625 15.203125 10.15625 15.203125 11.75 
z
" id="CMR17-112"/>
       <path d="M 43.09375 21.1875 
C 43.09375 34 33.796875 44 22.90625 44 
C 12 44 2.703125 34 2.703125 21.1875 
C 2.703125 8.609375 12 -1 22.90625 -1 
C 33.796875 -1 43.09375 8.609375 43.09375 21.1875 
z
M 22.90625 0.796875 
C 18.203125 0.796875 14.203125 3.59375 11.90625 7.5 
C 9.40625 11.984375 9.09375 17.59375 9.09375 22 
C 9.09375 26.203125 9.296875 31.40625 11.90625 35.90625 
C 13.90625 39.203125 17.796875 42.40625 22.90625 42.40625 
C 27.40625 42.40625 31.203125 39.90625 33.59375 36.40625 
C 36.703125 31.703125 36.703125 25.109375 36.703125 22 
C 36.703125 18.09375 36.5 12.109375 33.796875 7.296875 
C 31 2.703125 26.703125 0.796875 22.90625 0.796875 
z
" id="CMR17-111"/>
       <path d="M 34.90625 35 
C 33 35 30.203125 35 30.203125 31.515625 
C 30.203125 28.71875 32.5 27.921875 33.796875 27.921875 
C 34.5 27.921875 37.40625 28.234375 37.40625 31.625 
C 37.40625 38.546875 30.59375 43.796875 22.90625 43.796875 
C 12.296875 43.796875 3.296875 34.03125 3.296875 21.296875 
C 3.296875 8.0625 12.703125 -1 22.90625 -1 
C 35.296875 -1 38.40625 10.578125 38.40625 11.6875 
C 38.40625 12.09375 38.296875 12.390625 37.59375 12.390625 
C 36.90625 12.390625 36.796875 12.296875 36.40625 10.984375 
C 33.796875 2.8125 28.09375 0.796875 23.796875 0.796875 
C 17.40625 0.796875 9.703125 6.671875 9.703125 21.390625 
C 9.703125 36.53125 17.09375 42 23 42 
C 26.90625 42 32.703125 40.203125 34.90625 35 
z
" id="CMR17-99"/>
       <path d="M 41.5 30.203125 
C 41.5 35.296875 40.5 43.59375 28.703125 43.59375 
C 20.5 43.59375 16.5 37 15.296875 33.703125 
L 15.203125 33.703125 
L 15.203125 68.6875 
L 3.296875 67.59375 
L 3.296875 65 
C 9.203125 65 10.09375 64.40625 10.09375 59.640625 
L 10.09375 6.65625 
C 10.09375 2.875 9.703125 2.390625 3.296875 2.390625 
L 3.296875 -0.203125 
C 5.703125 0 10.09375 0 12.703125 0 
C 15.296875 0 19.796875 0 22.203125 -0.203125 
L 22.203125 2.390625 
C 15.796875 2.390625 15.40625 2.78125 15.40625 6.6875 
L 15.40625 25.90625 
C 15.40625 35.109375 21 42 28 42 
C 35.40625 42 36.203125 35.40625 36.203125 30.59375 
L 36.203125 6.6875 
C 36.203125 2.875 35.796875 2.390625 29.40625 2.390625 
L 29.40625 -0.203125 
C 31.796875 0 36.203125 0 38.796875 0 
C 41.40625 0 45.90625 0 48.296875 -0.203125 
L 48.296875 2.390625 
C 41.90625 2.390625 41.5 2.78125 41.5 6.6875 
z
" id="CMR17-104"/>
      </defs>
      <use transform="scale(0.996264)" xlink:href="#CMR17-69"/>
      <use transform="translate(62.586301 0)scale(0.996264)" xlink:href="#CMR17-112"/>
      <use transform="translate(116.084109 0)scale(0.996264)" xlink:href="#CMR17-111"/>
      <use transform="translate(164.377025 0)scale(0.996264)" xlink:href="#CMR17-99"/>
      <use transform="translate(202.260231 0)scale(0.996264)" xlink:href="#CMR17-104"/>
     </g>
    </g>
   </g>
   <g id="matplotlib.axis_2">
    <g id="ytick_1">
     <g id="line2d_6">
      <defs>
       <path d="M 0 0 
L -3.5 0 
" id="m43925d7e0d" style="stroke:#000000;stroke-width:0.8;"/>
      </defs>
      <g>
       <use style="stroke:#000000;stroke-width:0.8;" x="68.588821" xlink:href="#m43925d7e0d" y="266.669817"/>
      </g>
     </g>
     <g id="text_7">
      <!-- $\mathdefault{0}$ -->
      <g transform="translate(52.450726 273.588315)scale(0.2 -0.2)">
       <use transform="scale(0.996264)" xlink:href="#CMR17-48"/>
      </g>
     </g>
    </g>
    <g id="ytick_2">
     <g id="line2d_7">
      <g>
       <use style="stroke:#000000;stroke-width:0.8;" x="68.588821" xlink:href="#m43925d7e0d" y="207.447579"/>
      </g>
     </g>
     <g id="text_8">
      <!-- $\mathdefault{10}$ -->
      <g transform="translate(43.31263 214.366077)scale(0.2 -0.2)">
       <use transform="scale(0.996264)" xlink:href="#CMR17-49"/>
       <use transform="translate(45.690477 0)scale(0.996264)" xlink:href="#CMR17-48"/>
      </g>
     </g>
    </g>
    <g id="ytick_3">
     <g id="line2d_8">
      <g>
       <use style="stroke:#000000;stroke-width:0.8;" x="68.588821" xlink:href="#m43925d7e0d" y="148.22534"/>
      </g>
     </g>
     <g id="text_9">
      <!-- $\mathdefault{20}$ -->
      <g transform="translate(43.31263 155.143839)scale(0.2 -0.2)">
       <use transform="scale(0.996264)" xlink:href="#CMR17-50"/>
       <use transform="translate(45.690477 0)scale(0.996264)" xlink:href="#CMR17-48"/>
      </g>
     </g>
    </g>
    <g id="ytick_4">
     <g id="line2d_9">
      <g>
       <use style="stroke:#000000;stroke-width:0.8;" x="68.588821" xlink:href="#m43925d7e0d" y="89.003102"/>
      </g>
     </g>
     <g id="text_10">
      <!-- $\mathdefault{30}$ -->
      <g transform="translate(43.31263 95.9216)scale(0.2 -0.2)">
       <defs>
        <path d="M 22.09375 33.703125 
C 31 33.703125 34.90625 25.96875 34.90625 17.03125 
C 34.90625 5 28.5 0.390625 22.703125 0.390625 
C 17.40625 0.390625 8.796875 3.03125 6.09375 10.828125 
C 6.59375 10.625 7.09375 10.625 7.59375 10.625 
C 10 10.625 11.796875 12.21875 11.796875 14.8125 
C 11.796875 17.703125 9.59375 19 7.59375 19 
C 5.90625 19 3.296875 18.203125 3.296875 14.46875 
C 3.296875 5.234375 12.296875 -2 22.90625 -2 
C 34 -2 42.5 6.71875 42.5 16.953125 
C 42.5 26.671875 34.5 33.703125 25 34.796875 
C 32.59375 36.375 39.90625 43.0625 39.90625 52.015625 
C 39.90625 59.6875 32 65.296875 23 65.296875 
C 13.90625 65.296875 5.90625 59.828125 5.90625 52.015625 
C 5.90625 48.59375 8.5 48 9.796875 48 
C 11.90625 48 13.703125 49.296875 13.703125 51.890625 
C 13.703125 54.46875 11.90625 55.765625 9.796875 55.765625 
C 9.40625 55.765625 8.90625 55.765625 8.5 55.578125 
C 11.40625 61.859375 19.296875 63 22.796875 63 
C 26.296875 63 32.90625 61.328125 32.90625 51.875 
C 32.90625 49.109375 32.5 44.1875 29.09375 39.84375 
C 26.09375 36 22.703125 36 19.40625 35.6875 
C 18.90625 35.6875 16.59375 35.453125 16.203125 35.453125 
C 15.5 35.359375 15.09375 35.265625 15.09375 34.5 
C 15.09375 33.796875 15.203125 33.703125 17.203125 33.703125 
z
" id="CMR17-51"/>
       </defs>
       <use transform="scale(0.996264)" xlink:href="#CMR17-51"/>
       <use transform="translate(45.690477 0)scale(0.996264)" xlink:href="#CMR17-48"/>
      </g>
     </g>
    </g>
    <g id="ytick_5">
     <g id="line2d_10">
      <g>
       <use style="stroke:#000000;stroke-width:0.8;" x="68.588821" xlink:href="#m43925d7e0d" y="29.780863"/>
      </g>
     </g>
     <g id="text_11">
      <!-- $\mathdefault{40}$ -->
      <g transform="translate(43.31263 36.699362)scale(0.2 -0.2)">
       <defs>
        <path d="M 33.59375 64.40625 
C 33.59375 66.5 33.5 66.5 31.703125 66.5 
L 2 19.59375 
L 2 17 
L 27.796875 17 
L 27.796875 7.140625 
C 27.796875 3.5 27.59375 2.5 20.59375 2.5 
L 18.703125 2.5 
L 18.703125 0 
C 21.90625 0 27.296875 0 30.703125 0 
C 34.09375 0 39.5 0 42.703125 0 
L 42.703125 2.5 
L 40.796875 2.5 
C 33.796875 2.5 33.59375 3.5 33.59375 7.140625 
L 33.59375 17 
L 43.796875 17 
L 43.796875 19.59375 
L 33.59375 19.59375 
z
M 28.09375 57.859375 
L 28.09375 19.59375 
L 4 19.59375 
z
" id="CMR17-52"/>
       </defs>
       <use transform="scale(0.996264)" xlink:href="#CMR17-52"/>
       <use transform="translate(45.690477 0)scale(0.996264)" xlink:href="#CMR17-48"/>
      </g>
     </g>
    </g>
    <g id="text_12">
     <!-- MSE Loss -->
     <g transform="translate(35.436997 189.879276)rotate(-90)scale(0.2 -0.2)">
      <defs>
       <path d="M 20.90625 66 
C 20.296875 67.5 20.203125 67.5 18.09375 67.5 
L 5.296875 67.5 
L 5.296875 65 
C 12.203125 65 13.296875 65 13.296875 60.546875 
L 13.296875 9.53125 
C 13.296875 7.046875 13.296875 2.390625 5.296875 2.390625 
L 5.296875 -0.203125 
C 7.59375 0 11.796875 0 14.296875 0 
C 16.796875 0 21 0 23.296875 -0.203125 
L 23.296875 2.390625 
C 15.296875 2.390625 15.296875 7.046875 15.296875 9.53125 
L 15.296875 64.609375 
L 15.40625 64.609375 
L 38.90625 1.390625 
C 39.296875 0.390625 39.5 -0.203125 40.296875 -0.203125 
C 41.09375 -0.203125 41.296875 0.390625 41.703125 1.390625 
L 65.40625 65.09375 
L 65.5 65.09375 
L 65.5 6.84375 
C 65.5 2.390625 64.40625 2.390625 57.5 2.390625 
L 57.5 -0.203125 
C 60.203125 0 65.59375 0 68.5 0 
C 71.40625 0 76.90625 0 79.59375 -0.203125 
L 79.59375 2.390625 
C 72.703125 2.390625 71.59375 2.390625 71.59375 6.84375 
L 71.59375 60.546875 
C 71.59375 65 72.703125 65 79.59375 65 
L 79.59375 67.5 
L 66.90625 67.5 
C 64.796875 67.5 64.703125 67.40625 64.09375 65.90625 
L 42.5 7.84375 
z
" id="CMR17-77"/>
       <path d="M 43.796875 67.03125 
C 43.796875 68.8125 43.703125 68.921875 43.09375 68.921875 
C 42.5 68.921875 42.296875 68.515625 41.90625 67.625 
L 38.90625 61.046875 
C 35.09375 66.515625 29.296875 69 23 69 
C 12.796875 69 4.59375 60.953125 4.59375 50.828125 
C 4.59375 47.75 5.296875 43.375 8.703125 39.21875 
C 12.40625 34.65625 15.90625 33.859375 23.90625 31.765625 
C 26.90625 30.96875 31.90625 29.671875 32.90625 29.28125 
C 38.59375 26.90625 41.59375 20.953125 41.59375 15.390625 
C 41.59375 8.234375 36.5 0.59375 27.796875 0.59375 
C 17.09375 0.59375 7.09375 6.546875 6.40625 20.484375 
C 6.296875 22.078125 6.203125 22.171875 5.5 22.171875 
C 4.703125 22.171875 4.59375 22.078125 4.59375 20.078125 
L 4.59375 -0.015625 
C 4.59375 -1.796875 4.703125 -1.90625 5.296875 -1.90625 
C 6 -1.90625 6.203125 -1.40625 7.59375 1.6875 
C 7.703125 1.984375 7.703125 2.1875 9.59375 5.953125 
C 14.59375 -0.609375 23 -2 27.796875 -2 
C 38.703125 -2 46.40625 7.046875 46.40625 17.5625 
C 46.40625 22.71875 44.5 26.6875 43.40625 28.484375 
C 39.203125 34.84375 34.703125 36.03125 29.90625 37.21875 
C 29.203125 37.53125 29 37.53125 23.40625 38.90625 
C 18 40.296875 15.703125 41 13.203125 43.6875 
C 10.40625 46.75 9.40625 49.9375 9.40625 53.109375 
C 9.40625 59.5625 14.59375 66.609375 23.09375 66.609375 
C 33.703125 66.609375 40.296875 59.15625 41.796875 46.765625 
C 42.09375 44.96875 42.203125 44.875 42.90625 44.875 
C 43.796875 44.875 43.796875 45.171875 43.796875 46.859375 
z
" id="CMR17-83"/>
       <path d="M 54.203125 25.234375 
L 52.40625 25.234375 
C 51.59375 15.359375 50.296875 2.59375 33.203125 2.59375 
L 23.90625 2.59375 
C 19.90625 2.59375 19.703125 3.078125 19.703125 6.46875 
L 19.703125 60.90625 
C 19.703125 64.515625 19.90625 65.5 27.5 65.5 
L 29.703125 65.5 
L 29.703125 68 
C 25.59375 68 20.796875 68 16.703125 68 
C 13.59375 68 8 68 5.09375 68 
L 5.09375 65.5 
C 12 65.5 13.09375 65.5 13.09375 61.015625 
L 13.09375 7.0625 
C 13.09375 2.59375 12 2.59375 5.09375 2.59375 
L 5.09375 0 
L 51.796875 0 
z
" id="CMR17-76"/>
       <path d="M 30.90625 42.140625 
C 30.90625 43.953125 30.796875 44.046875 30.203125 44.046875 
C 29.796875 44.046875 29.703125 43.953125 28.5 42.453125 
C 28.203125 42.046875 27.296875 41.03125 27 40.640625 
C 23.796875 44.046875 19.296875 44.046875 17.59375 44.046875 
C 6.5 44.046875 2.5 38.234375 2.5 32.4375 
C 2.5 23.40625 12.703125 21.328125 15.59375 20.703125 
C 21.90625 19.421875 24.09375 19.015625 26.203125 17.203125 
C 27.5 16.015625 29.703125 13.8125 29.703125 10.21875 
C 29.703125 6 27.296875 0.59375 18.09375 0.59375 
C 9.40625 0.59375 6.296875 7.1875 4.5 15.953125 
C 4.203125 17.34375 4.203125 17.453125 3.40625 17.453125 
C 2.59375 17.453125 2.5 17.34375 2.5 15.359375 
L 2.5 0.984375 
C 2.5 -0.796875 2.59375 -0.90625 3.203125 -0.90625 
C 3.703125 -0.90625 3.796875 -0.796875 4.296875 0 
C 4.90625 0.890625 6.40625 3.296875 7 4.3125 
C 9 1.609375 12.5 -1 18.09375 -1 
C 28 -1 33.296875 4.421875 33.296875 12.25 
C 33.296875 17.375 30.59375 20.078125 29.296875 21.28125 
C 26.296875 24.390625 22.796875 25.09375 18.59375 25.890625 
C 13.09375 27.109375 6.09375 28.515625 6.09375 34.640625 
C 6.09375 37.234375 7.5 42.765625 17.59375 42.765625 
C 28.296875 42.765625 28.90625 32.71875 29.09375 29.5 
C 29.203125 29 29.703125 28.890625 30 28.890625 
C 30.90625 28.890625 30.90625 29.203125 30.90625 30.90625 
z
" id="CMR17-115"/>
      </defs>
      <use transform="scale(0.996264)" xlink:href="#CMR17-77"/>
      <use transform="translate(84.686941 0)scale(0.996264)" xlink:href="#CMR17-83"/>
      <use transform="translate(135.58231 0)scale(0.996264)" xlink:href="#CMR17-69"/>
      <use transform="translate(228.244577 0)scale(0.996264)" xlink:href="#CMR17-76"/>
      <use transform="translate(285.625985 0)scale(0.996264)" xlink:href="#CMR17-111"/>
      <use transform="translate(331.316462 0)scale(0.996264)" xlink:href="#CMR17-115"/>
      <use transform="translate(367.1178 0)scale(0.996264)" xlink:href="#CMR17-115"/>
     </g>
    </g>
   </g>
   <g id="line2d_11">
    <path clip-path="url(#p510704debb)" d="M 85.334517 33.235215 
L 85.502058 154.745041 
L 86.00468 213.226776 
L 86.339761 241.591827 
L 86.507302 242.038549 
L 86.842384 231.061513 
L 87.177465 243.058735 
L 87.512546 250.627671 
L 87.680087 250.396619 
L 88.015169 248.404071 
L 88.182709 248.18794 
L 88.35025 248.74783 
L 89.020413 253.180272 
L 89.187954 253.081356 
L 89.523035 252.274307 
L 89.690576 252.618213 
L 90.193198 254.911031 
L 90.360739 255.152779 
L 90.863361 255.277061 
L 91.198442 255.834139 
L 91.533524 256.493083 
L 91.868605 256.69449 
L 92.203687 256.879805 
L 92.87385 257.805402 
L 93.376472 258.183027 
L 94.046635 258.832639 
L 94.716798 259.51356 
L 96.224664 261.164579 
L 97.56499 262.355407 
L 98.402694 262.80395 
L 100.078101 263.369645 
L 101.753508 263.672888 
L 103.931538 263.894271 
L 104.769241 263.949262 
L 105.774486 264.042125 
L 107.952515 264.193655 
L 109.292841 264.206272 
L 109.627923 264.130948 
L 109.963004 264.28996 
L 110.465626 264.277175 
L 110.800708 264.293826 
L 111.135789 264.310352 
L 111.638411 264.317637 
L 113.983981 264.450282 
L 116.329552 264.451115 
L 116.664633 264.552128 
L 117.167255 264.523377 
L 117.502337 264.582921 
L 118.1725 264.577613 
L 118.675122 264.610322 
L 119.345285 264.558354 
L 119.847907 264.65294 
L 120.685611 264.631337 
L 121.188233 264.680997 
L 122.193477 264.666265 
L 122.696099 264.698462 
L 123.366262 264.620575 
L 123.868884 264.749078 
L 124.706588 264.697488 
L 125.20921 264.766879 
L 126.046914 264.705028 
L 126.884618 264.792298 
L 127.889862 264.738755 
L 128.560025 264.839334 
L 129.230188 264.614765 
L 129.565269 264.601199 
L 129.900351 264.854657 
L 130.570514 264.79202 
L 130.905595 264.871703 
L 131.408217 264.775745 
L 132.245921 264.86044 
L 133.083624 264.818948 
L 133.921328 264.904168 
L 134.926572 264.782494 
L 135.261654 264.944352 
L 136.099358 264.863588 
L 136.60198 264.962632 
L 137.942306 264.830003 
L 138.612468 264.984733 
L 139.785254 264.809152 
L 140.287876 264.993046 
L 140.790498 264.876152 
L 141.628202 265.002303 
L 142.800987 264.814453 
L 143.303609 265.035832 
L 144.141312 264.918566 
L 144.643935 265.053657 
L 145.314098 264.87869 
L 145.81672 264.762786 
L 146.319342 265.06446 
L 147.157046 264.976456 
L 147.659668 265.068191 
L 148.497371 264.994068 
L 149.335075 265.096507 
L 149.837697 264.964229 
L 150.172779 264.558307 
L 150.340319 264.198783 
L 150.50786 264.252989 
L 150.842942 265.051429 
L 151.010482 264.906576 
L 151.178023 264.551489 
L 151.513105 265.077822 
L 151.848186 264.802421 
L 152.183267 265.084544 
L 152.518349 264.850839 
L 152.85343 265.094612 
L 153.188512 264.964533 
L 153.523593 265.11069 
L 154.026215 265.036269 
L 154.361297 265.116103 
L 154.863919 265.072079 
L 155.366541 265.110373 
L 155.869163 265.110289 
L 156.539326 265.127912 
L 158.047193 265.105691 
L 159.555059 265.070827 
L 159.890141 264.872701 
L 160.225222 264.599109 
L 160.392763 264.573348 
L 160.727845 265.124861 
L 160.895385 265.137056 
L 161.230467 264.841041 
L 161.565548 265.163984 
L 161.90063 265.01438 
L 162.06817 264.94711 
L 162.570793 265.182205 
L 163.073415 265.061353 
L 163.576037 265.179132 
L 164.078659 265.125952 
L 164.581281 265.207485 
L 165.754066 265.117289 
L 167.261933 265.178395 
L 167.597014 264.965531 
L 167.932096 264.284219 
L 168.099637 263.809779 
L 168.602259 265.180973 
L 168.93734 264.603409 
L 169.104881 265.085149 
L 169.272422 265.111944 
L 169.439962 264.775876 
L 169.775044 265.204068 
L 170.110125 264.953091 
L 170.445207 265.196235 
L 170.612748 265.050152 
L 170.780288 265.059629 
L 170.947829 265.207375 
L 171.450451 265.139933 
L 171.785533 265.196272 
L 172.120614 265.175259 
L 172.455696 265.227719 
L 172.790777 265.181371 
L 173.293399 265.241392 
L 173.963562 265.258975 
L 176.644214 265.29519 
L 177.649458 265.215911 
L 177.816999 265.049618 
L 177.98454 264.658165 
L 178.319621 263.192736 
L 178.487162 262.903259 
L 178.654702 264.814165 
L 178.822243 264.919857 
L 178.989784 263.875769 
L 179.157325 264.961228 
L 179.324865 264.839801 
L 179.492406 264.37071 
L 179.659947 265.159913 
L 179.827488 264.469534 
L 180.162569 265.017372 
L 180.33011 264.534767 
L 180.49765 265.139902 
L 180.665191 264.81324 
L 181.000273 265.129547 
L 181.167813 264.885103 
L 181.335354 265.193468 
L 181.502895 264.954255 
L 181.837976 265.14845 
L 182.005517 265.00207 
L 182.173058 265.213576 
L 182.340598 265.089295 
L 182.67568 265.220053 
L 182.843221 265.121584 
L 183.010761 265.232518 
L 183.345843 265.177304 
L 183.513384 265.2562 
L 183.848465 265.213819 
L 184.183546 265.206279 
L 185.02125 265.278523 
L 185.523872 265.289521 
L 186.194035 265.29237 
L 187.19928 265.305615 
L 189.377309 265.331973 
L 193.063205 265.328961 
L 193.733368 265.107359 
L 194.068449 264.995057 
L 194.403531 265.151861 
L 194.738612 265.369296 
L 195.743857 265.310837 
L 196.078938 265.38076 
L 196.916642 265.303142 
L 197.586805 265.389715 
L 198.424508 265.230548 
L 198.927131 264.902631 
L 199.094671 264.773383 
L 199.429753 265.002081 
L 199.764834 265.389413 
L 200.267456 265.099783 
L 200.602538 265.372123 
L 200.937619 265.320038 
L 201.272701 265.278399 
L 201.775323 265.3982 
L 202.445486 265.35494 
L 203.283189 265.37956 
L 204.455975 265.32038 
L 206.801545 265.414653 
L 207.136626 265.26515 
L 207.304167 264.987802 
L 207.639248 263.451557 
L 207.806789 262.356616 
L 208.141871 265.323223 
L 208.309411 264.382219 
L 208.476952 264.613825 
L 208.644493 265.262801 
L 208.812033 264.809241 
L 209.147115 265.23317 
L 209.314656 264.954886 
L 209.482196 265.255898 
L 209.817278 265.076662 
L 209.984819 265.314105 
L 210.152359 265.11406 
L 210.487441 265.321173 
L 210.654981 265.14045 
L 210.990063 265.340246 
L 211.157604 265.180356 
L 211.492685 265.368429 
L 211.660226 265.237761 
L 213.335633 265.39947 
L 213.670715 265.381978 
L 214.173337 265.388727 
L 218.361855 265.466453 
L 219.367099 265.345868 
L 220.204803 265.251228 
L 221.042507 265.485145 
L 221.545129 265.369702 
L 222.215292 265.074453 
L 222.382832 265.083211 
L 222.885455 265.475751 
L 223.220536 265.398741 
L 223.555618 265.297874 
L 224.560862 265.473472 
L 225.566106 265.318971 
L 227.073973 265.415832 
L 227.744136 265.093502 
L 227.911676 264.945953 
L 228.246758 264.986831 
L 228.581839 265.47131 
L 228.74938 265.47637 
L 229.084462 265.193991 
L 229.754624 265.485095 
L 230.089706 265.33591 
L 230.424787 265.414579 
L 230.92741 265.507206 
L 231.597572 265.403842 
L 233.105439 265.448791 
L 233.608061 265.152146 
L 234.110683 264.81508 
L 234.278224 264.92899 
L 234.613306 265.514839 
L 235.115928 265.170339 
L 235.451009 265.521824 
L 236.121172 265.398617 
L 236.456254 265.523086 
L 236.958876 265.399453 
L 237.629039 265.527081 
L 238.299202 265.449592 
L 239.471987 265.542871 
L 240.14215 265.398582 
L 240.644772 264.987889 
L 240.812313 264.77354 
L 241.147394 265.004222 
L 241.482475 265.536344 
L 241.817557 265.210734 
L 241.985098 265.231276 
L 242.320179 265.545704 
L 242.822801 265.316072 
L 243.157883 265.542957 
L 243.492964 265.461803 
L 243.828046 265.43983 
L 244.330668 265.557834 
L 245.000831 265.448782 
L 246.006075 265.541935 
L 247.346401 265.385989 
L 248.184105 265.585674 
L 248.854267 265.475638 
L 249.35689 265.167192 
L 249.691971 264.865307 
L 249.859512 264.826119 
L 250.194593 265.477582 
L 250.362134 265.559309 
L 250.697215 265.211296 
L 251.199838 265.571397 
L 251.70246 265.362325 
L 252.037541 265.574148 
L 252.372623 265.490186 
L 252.707704 265.412182 
L 253.377867 265.588781 
L 254.215571 265.453955 
L 255.220815 265.599437 
L 255.890978 265.46649 
L 256.728682 264.955042 
L 257.231304 265.589959 
L 257.901467 265.391136 
L 258.236548 265.596722 
L 258.73917 265.369086 
L 259.409333 265.592147 
L 259.911956 265.448251 
L 261.084741 265.572733 
L 262.257526 265.381369 
L 263.26277 265.594811 
L 264.268014 265.407281 
L 265.60834 265.574469 
L 266.278503 265.291958 
L 266.781125 264.992188 
L 267.283748 265.610561 
L 267.451288 265.582583 
L 267.78637 265.362986 
L 268.121451 265.538592 
L 268.456533 265.62329 
L 269.126696 265.477398 
L 269.796858 265.641971 
L 271.304725 265.536331 
L 272.309969 265.652792 
L 272.980132 265.49464 
L 273.315214 265.094264 
L 273.817836 264.019455 
L 274.152917 265.457375 
L 274.320458 265.478744 
L 274.487999 265.004523 
L 274.65554 265.029947 
L 274.82308 265.543566 
L 274.990621 265.381342 
L 275.158162 265.051451 
L 275.493243 265.569624 
L 275.660784 265.31238 
L 275.828325 265.369841 
L 275.995865 265.588221 
L 276.498488 265.515009 
L 276.666028 265.622763 
L 277.00111 265.464211 
L 277.336191 265.635353 
L 277.838813 265.546915 
L 278.173895 265.643423 
L 278.676517 265.580778 
L 279.179139 265.637951 
L 279.681761 265.610328 
L 280.351924 265.652093 
L 281.189628 265.652639 
L 282.362413 265.656906 
L 282.865035 265.515275 
L 283.535198 265.102753 
L 284.205361 265.650519 
L 284.540443 265.450356 
L 284.875524 265.609554 
L 285.210605 265.656178 
L 285.713228 265.527145 
L 286.550931 265.658235 
L 287.388635 265.542744 
L 289.399124 265.59714 
L 289.734205 265.351294 
L 290.236827 264.500848 
L 290.404368 264.668482 
L 290.739449 265.617625 
L 290.90699 265.521729 
L 291.074531 265.128611 
L 291.242072 265.236683 
L 291.409612 265.583097 
L 291.577153 265.613546 
L 291.912235 265.285767 
L 292.247316 265.652401 
L 292.414857 265.439423 
L 292.582397 265.416009 
L 292.917479 265.684856 
L 293.25256 265.473533 
L 293.755183 265.668812 
L 294.090264 265.515883 
L 294.592886 265.684892 
L 295.095508 265.613392 
L 295.598131 265.692453 
L 296.100753 265.653029 
L 296.938456 265.70649 
L 298.278782 265.656902 
L 299.451567 265.727824 
L 300.12173 265.609261 
L 300.456812 265.272577 
L 300.959434 264.320457 
L 301.126975 264.446751 
L 301.462056 265.669293 
L 301.797138 265.098244 
L 302.132219 265.665117 
L 302.4673 265.241133 
L 302.634841 265.588716 
L 302.802382 265.629991 
L 302.969923 265.383471 
L 303.472545 265.638723 
L 303.640086 265.507908 
L 303.807626 265.537528 
L 303.975167 265.687468 
L 305.315493 265.651933 
L 305.650574 265.722692 
L 306.153196 265.667918 
L 306.655819 265.728958 
L 307.325982 265.715663 
L 308.331226 265.728333 
L 310.341715 265.718534 
L 311.68204 265.725953 
L 312.017122 265.619379 
L 312.184663 265.486621 
L 312.519744 264.844009 
L 312.687285 264.254848 
L 312.854826 264.157287 
L 313.022366 264.437744 
L 313.189907 265.466486 
L 313.357448 265.56325 
L 313.524988 264.920942 
L 313.692529 265.146087 
L 313.86007 265.642705 
L 314.195151 265.250554 
L 314.530233 265.678324 
L 314.865314 265.370212 
L 315.032855 265.673957 
L 315.200396 265.614506 
L 315.367936 265.402683 
L 315.703018 265.721819 
L 316.038099 265.54363 
L 316.373181 265.733709 
L 316.708262 265.589885 
L 317.210884 265.71855 
L 317.545966 265.661452 
L 317.881047 265.752046 
L 318.55121 265.735518 
L 319.221373 265.721773 
L 322.907269 265.729888 
L 323.409891 265.513205 
L 324.080054 265.040475 
L 324.582677 265.753618 
L 324.917758 265.424581 
L 325.42038 265.757555 
L 325.755462 265.567589 
L 326.425625 265.752481 
L 326.928247 265.659964 
L 327.59841 265.780414 
L 328.603654 265.675591 
L 329.94398 265.776039 
L 330.446602 265.61644 
L 330.781683 265.298509 
L 331.116765 264.841117 
L 331.284306 264.737876 
L 331.619387 265.646381 
L 331.786928 265.733145 
L 332.122009 265.321076 
L 332.457091 265.76821 
L 332.959713 265.505458 
L 333.294794 265.77201 
L 333.629876 265.553776 
L 334.300039 265.718558 
L 334.63512 265.662846 
L 335.137742 265.789683 
L 335.807905 265.721838 
L 336.478068 265.793651 
L 337.650853 265.718446 
L 338.823638 265.812231 
L 339.493801 265.667908 
L 339.828883 265.384862 
L 340.331505 264.940129 
L 340.499046 265.13303 
L 340.834127 265.777767 
L 341.169209 265.384998 
L 341.336749 265.490649 
L 341.50429 265.750584 
L 341.671831 265.750868 
L 342.006912 265.536345 
L 342.341994 265.793944 
L 343.012157 265.66604 
L 343.347238 265.809127 
L 343.84986 265.67691 
L 344.687564 265.795757 
L 345.357727 265.732682 
L 346.698053 265.828329 
L 347.368216 265.701366 
L 347.703297 265.402021 
L 348.205919 264.479974 
L 348.708541 265.781019 
L 349.043623 265.176888 
L 349.378704 265.786117 
L 349.713786 265.449021 
L 350.048867 265.794095 
L 350.383949 265.529736 
L 350.886571 265.765794 
L 351.221652 265.628774 
L 351.556734 265.815021 
L 352.059356 265.696677 
L 352.394437 265.819396 
L 354.069845 265.775256 
L 356.080333 265.755861 
L 357.085578 265.509303 
L 357.5882 265.842924 
L 358.258363 265.671096 
L 358.928526 265.833522 
L 359.766229 265.69935 
L 360.939014 265.807851 
L 361.609177 265.521417 
L 361.944259 265.280617 
L 362.1118 265.224584 
L 362.781962 265.801583 
L 363.117044 265.576124 
L 363.787207 265.801423 
L 364.122288 265.683666 
L 364.959992 265.827912 
L 365.630155 265.73216 
L 367.138021 265.796126 
L 367.473103 265.632937 
L 367.975725 265.084 
L 368.143266 264.898031 
L 368.645888 265.829254 
L 369.14851 265.442546 
L 369.483592 265.834588 
L 369.818673 265.495465 
L 370.321295 265.833236 
L 370.656377 265.622109 
L 371.158999 265.853814 
L 371.661621 265.709317 
L 372.331784 265.84253 
L 372.834406 265.767357 
L 373.839651 265.837289 
L 375.012436 265.712424 
L 376.01768 265.838642 
L 377.525547 265.633703 
L 377.860628 265.866767 
L 378.195709 265.757673 
L 378.530791 265.641013 
L 379.368495 265.851931 
L 380.038657 265.686421 
L 381.211443 265.822063 
L 382.551768 265.584907 
L 383.221931 265.884555 
L 384.394716 265.688592 
L 384.897339 265.887888 
L 385.735042 265.719093 
L 386.572746 265.63606 
L 387.242909 265.889315 
L 388.248153 265.711124 
L 389.420938 265.829092 
L 390.091101 265.551599 
L 390.593723 264.933772 
L 390.928805 265.424069 
L 391.096346 265.821319 
L 391.263886 265.779659 
L 391.431427 265.47641 
L 391.598968 265.457097 
L 391.934049 265.867134 
L 392.269131 265.566498 
L 392.771753 265.869192 
L 393.106834 265.661047 
L 393.609456 265.882373 
L 394.112079 265.748732 
L 394.782242 265.872396 
L 395.284864 265.814479 
L 396.122567 265.883346 
L 397.462893 265.748181 
L 398.468138 265.85358 
L 399.640923 265.62161 
L 400.478626 265.842694 
L 400.981248 265.718831 
L 401.818952 265.891714 
L 402.321574 265.736633 
L 402.656656 265.488948 
L 403.159278 264.865566 
L 403.6619 265.868898 
L 403.996982 265.384761 
L 404.332063 265.868453 
L 404.834685 265.619587 
L 405.002226 265.83707 
L 405.169767 265.863237 
L 405.504848 265.688842 
L 405.83993 265.892023 
L 406.510092 265.800099 
L 406.845174 265.901702 
L 407.515337 265.831139 
L 408.1855 265.898903 
L 409.023203 265.857033 
L 410.53107 265.922149 
L 411.033692 265.839564 
L 411.368774 265.518624 
L 411.536314 265.19041 
L 411.871396 264.220582 
L 412.038937 264.094908 
L 412.374018 265.820385 
L 412.541559 265.225748 
L 412.709099 265.265022 
L 412.87664 265.752868 
L 413.044181 265.680095 
L 413.211722 265.416217 
L 413.546803 265.821469 
L 413.714344 265.56821 
L 413.881885 265.607509 
L 414.049425 265.852079 
L 414.384507 265.588702 
L 414.552047 265.816925 
L 414.719588 265.838242 
L 414.887129 265.666333 
L 415.389751 265.849597 
L 415.724833 265.781831 
L 416.059914 265.88665 
L 416.394995 265.802978 
L 416.897618 265.884373 
L 417.232699 265.83635 
L 417.735321 265.914054 
L 418.405484 265.91124 
L 419.410729 265.901214 
L 420.248432 265.939524 
L 420.248432 265.939524 
" style="fill:none;stroke:#4c72b0;stroke-linecap:square;stroke-width:2;"/>
   </g>
   <g id="patch_3">
    <path d="M 68.588821 277.574739 
L 68.588821 21.6 
" style="fill:none;stroke:#000000;stroke-linecap:square;stroke-linejoin:miter;stroke-width:0.8;"/>
   </g>
   <g id="patch_4">
    <path d="M 436.994128 277.574739 
L 436.994128 21.6 
" style="fill:none;stroke:#000000;stroke-linecap:square;stroke-linejoin:miter;stroke-width:0.8;"/>
   </g>
   <g id="patch_5">
    <path d="M 68.588821 277.574739 
L 436.994128 277.574739 
" style="fill:none;stroke:#000000;stroke-linecap:square;stroke-linejoin:miter;stroke-width:0.8;"/>
   </g>
   <g id="patch_6">
    <path d="M 68.588821 21.6 
L 436.994128 21.6 
" style="fill:none;stroke:#000000;stroke-linecap:square;stroke-linejoin:miter;stroke-width:0.8;"/>
   </g>
   <g id="legend_1">
    <g id="patch_7">
     <path d="M 281.45806 65.475634 
L 422.994128 65.475634 
Q 426.994128 65.475634 426.994128 61.475634 
L 426.994128 35.6 
Q 426.994128 31.6 422.994128 31.6 
L 281.45806 31.6 
Q 277.45806 31.6 277.45806 35.6 
L 277.45806 61.475634 
Q 277.45806 65.475634 281.45806 65.475634 
z
" style="fill:#ffffff;opacity:0.8;stroke:#cccccc;stroke-linejoin:miter;"/>
    </g>
    <g id="line2d_12">
     <path d="M 285.45806 46.6 
L 325.45806 46.6 
" style="fill:none;stroke:#4c72b0;stroke-linecap:square;stroke-width:2;"/>
    </g>
    <g id="line2d_13"/>
    <g id="text_13">
     <!-- Train loss -->
     <g transform="translate(341.45806 53.6)scale(0.2 -0.2)">
      <defs>
       <path d="M 62.203125 67.59375 
L 4.5 67.59375 
L 2.796875 45.59375 
L 4.59375 45.59375 
C 5.90625 62.125 7.296875 65 22.703125 65 
C 24.5 65 27.40625 65 28.203125 64.90625 
C 30.09375 64.609375 30.09375 63.40625 30.09375 61.125 
L 30.09375 7.171875 
C 30.09375 3.59375 29.796875 2.5 21.5 2.5 
L 18.703125 2.5 
L 18.703125 0 
C 23.5 0 28.5 0 33.40625 0 
C 38.296875 0 43.296875 0 48.09375 0 
L 48.09375 2.5 
L 45.296875 2.5 
C 37 2.5 36.703125 3.59375 36.703125 7.171875 
L 36.703125 61.125 
C 36.703125 63.3125 36.703125 64.515625 38.5 64.90625 
C 39.296875 65 42.203125 65 44 65 
C 59.296875 65 60.796875 62.125 62.09375 45.59375 
L 63.90625 45.59375 
z
" id="CMR17-84"/>
       <path d="M 15 23.390625 
C 15 33 19.09375 42 26.59375 42 
C 27.296875 42 28 41.90625 28.703125 41.59375 
C 28.703125 41.59375 26.5 40.890625 26.5 38.3125 
C 26.5 35.90625 28.40625 34.90625 29.90625 34.90625 
C 31.09375 34.90625 33.296875 35.609375 33.296875 38.40625 
C 33.296875 41.609375 30.09375 43.59375 26.703125 43.59375 
C 19.09375 43.59375 15.796875 36.203125 14.796875 32.703125 
L 14.703125 32.703125 
L 14.703125 43.59375 
L 3.09375 42.5 
L 3.09375 39.90625 
C 9 39.90625 9.90625 39.296875 9.90625 34.5 
L 9.90625 6.6875 
C 9.90625 2.875 9.5 2.390625 3.09375 2.390625 
L 3.09375 -0.203125 
C 5.5 0 10.09375 0 12.703125 0 
C 15.59375 0 20.703125 0 23.40625 -0.203125 
L 23.40625 2.390625 
C 16.203125 2.390625 15 2.390625 15 6.875 
z
" id="CMR17-114"/>
       <path d="M 36 25.828125 
C 36 32.375 36 35.84375 31.796875 39.734375 
C 28.09375 43 23.796875 44 20.40625 44 
C 12.5 44 6.796875 37.609375 6.796875 30.796875 
C 6.796875 27 9.796875 27 10.40625 27 
C 11.703125 27 14 27.78125 14 30.53125 
C 14 33 12.09375 34.078125 10.40625 34.078125 
C 10 34.078125 9.5 33.96875 9.203125 33.875 
C 11.296875 40.5 16.703125 42.40625 20.203125 42.40625 
C 25.203125 42.40625 30.703125 37.953125 30.703125 29.453125 
L 30.703125 25 
C 24.796875 25 17.703125 24.203125 12.09375 21.203125 
C 5.796875 17.703125 4 12.703125 4 8.90625 
C 4 1.203125 13 -1 18.296875 -1 
C 23.796875 -1 28.90625 2.171875 31.09375 7.984375 
C 31.296875 3.640625 34.09375 -0.28125 38.5 -0.28125 
C 40.59375 -0.28125 45.90625 1.09375 45.90625 8.859375 
L 45.90625 14.375 
L 44.09375 14.375 
L 44.09375 8.78125 
C 44.09375 2.78125 41.40625 2 40.09375 2 
C 36 2 36 7.15625 36 11.53125 
z
M 30.703125 13.59375 
C 30.703125 4.953125 24.5 0.59375 19 0.59375 
C 14 0.59375 10.09375 4.296875 10.09375 8.90625 
C 10.09375 11.890625 11.40625 17.1875 17.203125 20.390625 
C 22 23.09375 27.5 23.5 30.703125 23.5 
z
" id="CMR17-97"/>
       <path d="M 15.5 61.078125 
C 15.5 63.265625 13.703125 65.15625 11.40625 65.15625 
C 9.203125 65.15625 7.296875 63.375 7.296875 61.078125 
C 7.296875 58.890625 9.09375 57 11.40625 57 
C 13.59375 57 15.5 58.796875 15.5 61.078125 
z
M 3.796875 42.28125 
L 3.796875 39.703125 
C 9.40625 39.703125 10.203125 39.09375 10.203125 34.328125 
L 10.203125 6.671875 
C 10.203125 2.875 9.796875 2.390625 3.40625 2.390625 
L 3.40625 -0.203125 
C 5.796875 0 10.09375 0 12.59375 0 
C 15 0 19.09375 0 21.40625 -0.203125 
L 21.40625 2.390625 
C 15.5 2.390625 15.296875 2.984375 15.296875 6.5625 
L 15.296875 43.375 
z
" id="CMR17-105"/>
       <path d="M 41.5 30.203125 
C 41.5 35.296875 40.5 43.59375 28.703125 43.59375 
C 20.796875 43.59375 16.703125 37.5 15.203125 33.5 
L 15.09375 33.5 
L 15.09375 43.59375 
L 3.296875 42.5 
L 3.296875 39.90625 
C 9.203125 39.90625 10.09375 39.296875 10.09375 34.5 
L 10.09375 6.6875 
C 10.09375 2.875 9.703125 2.390625 3.296875 2.390625 
L 3.296875 -0.203125 
C 5.703125 0 10.09375 0 12.703125 0 
C 15.296875 0 19.796875 0 22.203125 -0.203125 
L 22.203125 2.390625 
C 15.796875 2.390625 15.40625 2.78125 15.40625 6.6875 
L 15.40625 25.90625 
C 15.40625 35.109375 21 42 28 42 
C 35.40625 42 36.203125 35.40625 36.203125 30.59375 
L 36.203125 6.6875 
C 36.203125 2.875 35.796875 2.390625 29.40625 2.390625 
L 29.40625 -0.203125 
C 31.796875 0 36.203125 0 38.796875 0 
C 41.40625 0 45.90625 0 48.296875 -0.203125 
L 48.296875 2.390625 
C 41.90625 2.390625 41.5 2.78125 41.5 6.6875 
z
" id="CMR17-110"/>
       <path d="M 15.296875 68.6875 
L 3.40625 67.59375 
L 3.40625 65 
C 9.296875 65 10.203125 64.40625 10.203125 59.640625 
L 10.203125 6.65625 
C 10.203125 2.875 9.796875 2.390625 3.40625 2.390625 
L 3.40625 -0.203125 
C 5.796875 0 10.203125 0 12.703125 0 
C 15.296875 0 19.703125 0 22.09375 -0.203125 
L 22.09375 2.390625 
C 15.703125 2.390625 15.296875 2.78125 15.296875 6.65625 
z
" id="CMR17-108"/>
      </defs>
      <use transform="scale(0.996264)" xlink:href="#CMR17-84"/>
      <use transform="translate(58.702625 0)scale(0.996264)" xlink:href="#CMR17-114"/>
      <use transform="translate(93.983393 0)scale(0.996264)" xlink:href="#CMR17-97"/>
      <use transform="translate(139.67387 0)scale(0.996264)" xlink:href="#CMR17-105"/>
      <use transform="translate(164.544929 0)scale(0.996264)" xlink:href="#CMR17-110"/>
      <use transform="translate(245.516265 0)scale(0.996264)" xlink:href="#CMR17-108"/>
      <use transform="translate(270.387323 0)scale(0.996264)" xlink:href="#CMR17-111"/>
      <use transform="translate(316.0778 0)scale(0.996264)" xlink:href="#CMR17-115"/>
      <use transform="translate(351.879138 0)scale(0.996264)" xlink:href="#CMR17-115"/>
     </g>
    </g>
   </g>
  </g>
 </g>
 <defs>
  <clipPath id="p510704debb">
   <rect height="255.974739" width="368.405307" x="68.588821" y="21.6"/>
  </clipPath>
 </defs>
</svg>
