<?xml version="1.0" encoding="utf-8" standalone="no"?>
<!DOCTYPE svg PUBLIC "-//W3C//DTD SVG 1.1//EN"
  "http://www.w3.org/Graphics/SVG/1.1/DTD/svg11.dtd">
<!-- Created with matplotlib (https://matplotlib.org/) -->
<svg height="345.6pt" version="1.1" viewBox="0 0 460.8 345.6" width="460.8pt" xmlns="http://www.w3.org/2000/svg" xmlns:xlink="http://www.w3.org/1999/xlink">
 <metadata>
  <rdf:RDF xmlns:cc="http://creativecommons.org/ns#" xmlns:dc="http://purl.org/dc/elements/1.1/" xmlns:rdf="http://www.w3.org/1999/02/22-rdf-syntax-ns#">
   <cc:Work>
    <dc:type rdf:resource="http://purl.org/dc/dcmitype/StillImage"/>
    <dc:date>2022-10-22T14:54:29.980831</dc:date>
    <dc:format>image/svg+xml</dc:format>
    <dc:creator>
     <cc:Agent>
      <dc:title>Matplotlib v3.3.4, https://matplotlib.org/</dc:title>
     </cc:Agent>
    </dc:creator>
   </cc:Work>
  </rdf:RDF>
 </metadata>
 <defs>
  <style type="text/css">*{stroke-linecap:butt;stroke-linejoin:round;}</style>
 </defs>
 <g id="figure_1">
  <g id="patch_1">
   <path d="M 0 345.6 
L 460.8 345.6 
L 460.8 0 
L 0 0 
z
" style="fill:#ffffff;"/>
  </g>
  <g id="axes_1">
   <g id="patch_2">
    <path d="M 68.588821 277.574739 
L 439.2 277.574739 
L 439.2 21.6 
L 68.588821 21.6 
z
" style="fill:#ffffff;"/>
   </g>
   <g id="matplotlib.axis_1">
    <g id="xtick_1">
     <g id="line2d_1">
      <defs>
       <path d="M 0 0 
L 0 3.5 
" id="m457be899ec" style="stroke:#000000;stroke-width:0.8;"/>
      </defs>
      <g>
       <use style="stroke:#000000;stroke-width:0.8;" x="85.434784" xlink:href="#m457be899ec" y="277.574739"/>
      </g>
     </g>
     <g id="text_1">
      <!-- $\mathdefault{0}$ -->
      <g transform="translate(80.865736 298.411736)scale(0.2 -0.2)">
       <defs>
        <path d="M 42 31.640625 
C 42 37.75 41.90625 48.125 37.703125 56.109375 
C 34 63.109375 28.09375 65.59375 22.90625 65.59375 
C 18.09375 65.59375 12 63.40625 8.203125 56.203125 
C 4.203125 48.71875 3.796875 39.4375 3.796875 31.640625 
C 3.796875 25.953125 3.90625 17.28125 7 9.671875 
C 11.296875 -0.609375 19 -2 22.90625 -2 
C 27.5 -2 34.5 -0.109375 38.59375 9.375 
C 41.59375 16.28125 42 24.359375 42 31.640625 
z
M 22.90625 -0.40625 
C 16.5 -0.40625 12.703125 5.078125 11.296875 12.6875 
C 10.203125 18.5625 10.203125 27.15625 10.203125 32.75 
C 10.203125 40.4375 10.203125 46.828125 11.5 52.921875 
C 13.40625 61.390625 19 64 22.90625 64 
C 27 64 32.296875 61.296875 34.203125 53.125 
C 35.5 47.4375 35.59375 40.734375 35.59375 32.75 
C 35.59375 26.25 35.59375 18.265625 34.40625 12.375 
C 32.296875 1.484375 26.40625 -0.40625 22.90625 -0.40625 
z
" id="CMR17-48"/>
       </defs>
       <use transform="scale(0.996264)" xlink:href="#CMR17-48"/>
      </g>
     </g>
    </g>
    <g id="xtick_2">
     <g id="line2d_2">
      <g>
       <use style="stroke:#000000;stroke-width:0.8;" x="151.111052" xlink:href="#m457be899ec" y="277.574739"/>
      </g>
     </g>
     <g id="text_2">
      <!-- $\mathdefault{200}$ -->
      <g transform="translate(137.403908 298.411736)scale(0.2 -0.2)">
       <defs>
        <path d="M 41.703125 15.453125 
L 39.90625 15.453125 
C 38.90625 8.375 38.09375 7.171875 37.703125 6.5625 
C 37.203125 5.765625 30 5.765625 28.59375 5.765625 
L 9.40625 5.765625 
C 13 9.671875 20 16.75 28.5 24.953125 
C 34.59375 30.734375 41.703125 37.53125 41.703125 47.421875 
C 41.703125 59.21875 32.296875 66 21.796875 66 
C 10.796875 66 4.09375 56.3125 4.09375 47.34375 
C 4.09375 43.4375 7 42.9375 8.203125 42.9375 
C 9.203125 42.9375 12.203125 43.546875 12.203125 47.03125 
C 12.203125 50.109375 9.59375 51 8.203125 51 
C 7.59375 51 7 50.90625 6.59375 50.703125 
C 8.5 59.21875 14.296875 63.40625 20.40625 63.40625 
C 29.09375 63.40625 34.796875 56.515625 34.796875 47.421875 
C 34.796875 38.734375 29.703125 31.25 24 24.75 
L 4.09375 2.28125 
L 4.09375 0 
L 39.296875 0 
z
" id="CMR17-50"/>
       </defs>
       <use transform="scale(0.996264)" xlink:href="#CMR17-50"/>
       <use transform="translate(45.690477 0)scale(0.996264)" xlink:href="#CMR17-48"/>
       <use transform="translate(91.380954 0)scale(0.996264)" xlink:href="#CMR17-48"/>
      </g>
     </g>
    </g>
    <g id="xtick_3">
     <g id="line2d_3">
      <g>
       <use style="stroke:#000000;stroke-width:0.8;" x="216.787319" xlink:href="#m457be899ec" y="277.574739"/>
      </g>
     </g>
     <g id="text_3">
      <!-- $\mathdefault{400}$ -->
      <g transform="translate(203.080176 298.411736)scale(0.2 -0.2)">
       <defs>
        <path d="M 33.59375 64.40625 
C 33.59375 66.5 33.5 66.5 31.703125 66.5 
L 2 19.59375 
L 2 17 
L 27.796875 17 
L 27.796875 7.140625 
C 27.796875 3.5 27.59375 2.5 20.59375 2.5 
L 18.703125 2.5 
L 18.703125 0 
C 21.90625 0 27.296875 0 30.703125 0 
C 34.09375 0 39.5 0 42.703125 0 
L 42.703125 2.5 
L 40.796875 2.5 
C 33.796875 2.5 33.59375 3.5 33.59375 7.140625 
L 33.59375 17 
L 43.796875 17 
L 43.796875 19.59375 
L 33.59375 19.59375 
z
M 28.09375 57.859375 
L 28.09375 19.59375 
L 4 19.59375 
z
" id="CMR17-52"/>
       </defs>
       <use transform="scale(0.996264)" xlink:href="#CMR17-52"/>
       <use transform="translate(45.690477 0)scale(0.996264)" xlink:href="#CMR17-48"/>
       <use transform="translate(91.380954 0)scale(0.996264)" xlink:href="#CMR17-48"/>
      </g>
     </g>
    </g>
    <g id="xtick_4">
     <g id="line2d_4">
      <g>
       <use style="stroke:#000000;stroke-width:0.8;" x="282.463587" xlink:href="#m457be899ec" y="277.574739"/>
      </g>
     </g>
     <g id="text_4">
      <!-- $\mathdefault{600}$ -->
      <g transform="translate(268.756444 298.411736)scale(0.2 -0.2)">
       <defs>
        <path d="M 10.59375 34 
C 10.59375 57.65625 21.796875 63 28.296875 63 
C 30.40625 63 35.5 62.640625 37.5 59 
C 35.90625 59 32.90625 59 32.90625 55.515625 
C 32.90625 52.828125 35.09375 51.921875 36.5 51.921875 
C 37.40625 51.921875 40.09375 52.3125 40.09375 55.625 
C 40.09375 61.78125 35.09375 65.296875 28.203125 65.296875 
C 16.296875 65.296875 3.796875 52.96875 3.796875 31 
C 3.796875 3.953125 15.09375 -2 23.09375 -2 
C 32.796875 -2 42 6.671875 42 20.046875 
C 42 32.515625 33.90625 41.59375 23.703125 41.59375 
C 17.59375 41.59375 13.09375 37.609375 10.59375 30.625 
z
M 23.09375 0.390625 
C 10.796875 0.390625 10.796875 18.75 10.796875 22.4375 
C 10.796875 29.625 14.203125 40 23.5 40 
C 25.203125 40 30.09375 40 33.40625 33.125 
C 35.203125 29.21875 35.203125 25.140625 35.203125 20.140625 
C 35.203125 14.75 35.203125 10.78125 33.09375 6.78125 
C 30.90625 2.671875 27.703125 0.390625 23.09375 0.390625 
z
" id="CMR17-54"/>
       </defs>
       <use transform="scale(0.996264)" xlink:href="#CMR17-54"/>
       <use transform="translate(45.690477 0)scale(0.996264)" xlink:href="#CMR17-48"/>
       <use transform="translate(91.380954 0)scale(0.996264)" xlink:href="#CMR17-48"/>
      </g>
     </g>
    </g>
    <g id="xtick_5">
     <g id="line2d_5">
      <g>
       <use style="stroke:#000000;stroke-width:0.8;" x="348.139855" xlink:href="#m457be899ec" y="277.574739"/>
      </g>
     </g>
     <g id="text_5">
      <!-- $\mathdefault{800}$ -->
      <g transform="translate(334.432712 298.411736)scale(0.2 -0.2)">
       <defs>
        <path d="M 27.203125 35.375 
C 33.5 38.546875 39.90625 43.328125 39.90625 50.984375 
C 39.90625 60.015625 31.09375 65.296875 23 65.296875 
C 13.90625 65.296875 5.90625 58.734375 5.90625 49.6875 
C 5.90625 47.203125 6.5 42.921875 10.40625 39.140625 
C 11.40625 38.15625 15.59375 35.171875 18.296875 33.28125 
C 13.796875 30.984375 3.296875 25.53125 3.296875 14.59375 
C 3.296875 4.359375 13.09375 -2 22.796875 -2 
C 33.5 -2 42.5 5.65625 42.5 15.78125 
C 42.5 24.84375 36.40625 29.015625 32.40625 31.703125 
z
M 14.09375 44.09375 
C 13.296875 44.59375 9.296875 47.671875 9.296875 52.359375 
C 9.296875 58.421875 15.59375 63 22.796875 63 
C 30.703125 63 36.5 57.4375 36.5 50.96875 
C 36.5 41.703125 26.09375 36.421875 25.59375 36.421875 
C 25.5 36.421875 25.40625 36.421875 24.59375 37.03125 
z
M 32.5 23.734375 
C 34 22.640625 38.796875 19.375 38.796875 13.296875 
C 38.796875 5.953125 31.40625 0.390625 23 0.390625 
C 13.90625 0.390625 7 6.84375 7 14.6875 
C 7 22.546875 13.09375 29.09375 20 32.1875 
z
" id="CMR17-56"/>
       </defs>
       <use transform="scale(0.996264)" xlink:href="#CMR17-56"/>
       <use transform="translate(45.690477 0)scale(0.996264)" xlink:href="#CMR17-48"/>
       <use transform="translate(91.380954 0)scale(0.996264)" xlink:href="#CMR17-48"/>
      </g>
     </g>
    </g>
    <g id="xtick_6">
     <g id="line2d_6">
      <g>
       <use style="stroke:#000000;stroke-width:0.8;" x="413.816123" xlink:href="#m457be899ec" y="277.574739"/>
      </g>
     </g>
     <g id="text_6">
      <!-- $\mathdefault{1000}$ -->
      <g transform="translate(395.539932 298.411736)scale(0.2 -0.2)">
       <defs>
        <path d="M 26.59375 63.40625 
C 26.59375 65.5 26.5 65.5 25.09375 65.5 
C 21.203125 61.1875 15.296875 59.796875 9.703125 59.796875 
C 9.40625 59.796875 8.90625 59.796875 8.796875 59.5 
C 8.703125 59.296875 8.703125 59.09375 8.703125 57 
C 11.796875 57 17 57.59375 21 59.984375 
L 21 7.203125 
C 21 3.6875 20.796875 2.5 12.203125 2.5 
L 9.203125 2.5 
L 9.203125 0 
C 14 0 19 0 23.796875 0 
C 28.59375 0 33.59375 0 38.40625 0 
L 38.40625 2.5 
L 35.40625 2.5 
C 26.796875 2.5 26.59375 3.59375 26.59375 7.15625 
z
" id="CMR17-49"/>
       </defs>
       <use transform="scale(0.996264)" xlink:href="#CMR17-49"/>
       <use transform="translate(45.690477 0)scale(0.996264)" xlink:href="#CMR17-48"/>
       <use transform="translate(91.380954 0)scale(0.996264)" xlink:href="#CMR17-48"/>
       <use transform="translate(137.071431 0)scale(0.996264)" xlink:href="#CMR17-48"/>
      </g>
     </g>
    </g>
    <g id="text_7">
     <!-- Epoch -->
     <g transform="translate(228.578875 320.124366)scale(0.2 -0.2)">
      <defs>
       <path d="M 60.703125 25.234375 
L 58.90625 25.234375 
C 56.703125 10.5625 55.40625 2.59375 37.796875 2.59375 
L 23.90625 2.59375 
C 19.90625 2.59375 19.703125 3.078125 19.703125 6.46875 
L 19.703125 34 
L 29.09375 34 
C 38.5 34 39.40625 30.625 39.40625 22.34375 
L 41.203125 22.34375 
L 41.203125 48.140625 
L 39.40625 48.140625 
C 39.40625 39.953125 38.5 36.59375 29.09375 36.59375 
L 19.703125 36.59375 
L 19.703125 61.140625 
C 19.703125 64.5 19.90625 65 23.90625 65 
L 37.59375 65 
C 53.09375 65 54.90625 58.890625 56.296875 45.765625 
L 58.09375 45.765625 
L 55.703125 67.578125 
L 5.09375 67.578125 
L 5.09375 65 
C 12 65 13.09375 65 13.09375 60.53125 
L 13.09375 7.046875 
C 13.09375 2.59375 12 2.59375 5.09375 2.59375 
L 5.09375 0 
L 57.09375 0 
z
" id="CMR17-69"/>
       <path d="M 22 -16.609375 
C 15.59375 -16.609375 15.203125 -16.203125 15.203125 -12.328125 
L 15.203125 6.28125 
C 18.09375 2.09375 22.296875 -0.59375 27.59375 -0.59375 
C 37.59375 -0.59375 47.703125 8.171875 47.703125 21.6875 
C 47.703125 34.234375 39 43.78125 28.703125 43.78125 
C 22.703125 43.78125 17.796875 40.5 15 36.53125 
L 15 43.78125 
L 3.09375 42.6875 
L 3.09375 40.109375 
C 9 40.109375 9.90625 39.5 9.90625 34.734375 
L 9.90625 -12.328125 
C 9.90625 -16.109375 9.5 -16.609375 3.09375 -16.609375 
L 3.09375 -19.1875 
C 5.5 -19 9.90625 -19 12.5 -19 
C 15.09375 -19 19.59375 -19 22 -19.1875 
z
M 15.203125 31.4375 
C 15.203125 32.84375 15.203125 34.921875 19.09375 38.609375 
C 19.59375 39.015625 23 42 28 42 
C 35.296875 42 41.296875 32.9375 41.296875 21.59375 
C 41.296875 10.25 34.90625 1 27 1 
C 23.40625 1 19.5 2.6875 16.5 7.375 
C 15.203125 9.5625 15.203125 10.15625 15.203125 11.75 
z
" id="CMR17-112"/>
       <path d="M 43.09375 21.1875 
C 43.09375 34 33.796875 44 22.90625 44 
C 12 44 2.703125 34 2.703125 21.1875 
C 2.703125 8.609375 12 -1 22.90625 -1 
C 33.796875 -1 43.09375 8.609375 43.09375 21.1875 
z
M 22.90625 0.796875 
C 18.203125 0.796875 14.203125 3.59375 11.90625 7.5 
C 9.40625 11.984375 9.09375 17.59375 9.09375 22 
C 9.09375 26.203125 9.296875 31.40625 11.90625 35.90625 
C 13.90625 39.203125 17.796875 42.40625 22.90625 42.40625 
C 27.40625 42.40625 31.203125 39.90625 33.59375 36.40625 
C 36.703125 31.703125 36.703125 25.109375 36.703125 22 
C 36.703125 18.09375 36.5 12.109375 33.796875 7.296875 
C 31 2.703125 26.703125 0.796875 22.90625 0.796875 
z
" id="CMR17-111"/>
       <path d="M 34.90625 35 
C 33 35 30.203125 35 30.203125 31.515625 
C 30.203125 28.71875 32.5 27.921875 33.796875 27.921875 
C 34.5 27.921875 37.40625 28.234375 37.40625 31.625 
C 37.40625 38.546875 30.59375 43.796875 22.90625 43.796875 
C 12.296875 43.796875 3.296875 34.03125 3.296875 21.296875 
C 3.296875 8.0625 12.703125 -1 22.90625 -1 
C 35.296875 -1 38.40625 10.578125 38.40625 11.6875 
C 38.40625 12.09375 38.296875 12.390625 37.59375 12.390625 
C 36.90625 12.390625 36.796875 12.296875 36.40625 10.984375 
C 33.796875 2.8125 28.09375 0.796875 23.796875 0.796875 
C 17.40625 0.796875 9.703125 6.671875 9.703125 21.390625 
C 9.703125 36.53125 17.09375 42 23 42 
C 26.90625 42 32.703125 40.203125 34.90625 35 
z
" id="CMR17-99"/>
       <path d="M 41.5 30.203125 
C 41.5 35.296875 40.5 43.59375 28.703125 43.59375 
C 20.5 43.59375 16.5 37 15.296875 33.703125 
L 15.203125 33.703125 
L 15.203125 68.6875 
L 3.296875 67.59375 
L 3.296875 65 
C 9.203125 65 10.09375 64.40625 10.09375 59.640625 
L 10.09375 6.65625 
C 10.09375 2.875 9.703125 2.390625 3.296875 2.390625 
L 3.296875 -0.203125 
C 5.703125 0 10.09375 0 12.703125 0 
C 15.296875 0 19.796875 0 22.203125 -0.203125 
L 22.203125 2.390625 
C 15.796875 2.390625 15.40625 2.78125 15.40625 6.6875 
L 15.40625 25.90625 
C 15.40625 35.109375 21 42 28 42 
C 35.40625 42 36.203125 35.40625 36.203125 30.59375 
L 36.203125 6.6875 
C 36.203125 2.875 35.796875 2.390625 29.40625 2.390625 
L 29.40625 -0.203125 
C 31.796875 0 36.203125 0 38.796875 0 
C 41.40625 0 45.90625 0 48.296875 -0.203125 
L 48.296875 2.390625 
C 41.90625 2.390625 41.5 2.78125 41.5 6.6875 
z
" id="CMR17-104"/>
      </defs>
      <use transform="scale(0.996264)" xlink:href="#CMR17-69"/>
      <use transform="translate(62.586301 0)scale(0.996264)" xlink:href="#CMR17-112"/>
      <use transform="translate(116.084109 0)scale(0.996264)" xlink:href="#CMR17-111"/>
      <use transform="translate(164.377025 0)scale(0.996264)" xlink:href="#CMR17-99"/>
      <use transform="translate(202.260231 0)scale(0.996264)" xlink:href="#CMR17-104"/>
     </g>
    </g>
   </g>
   <g id="matplotlib.axis_2">
    <g id="ytick_1">
     <g id="line2d_7">
      <defs>
       <path d="M 0 0 
L -3.5 0 
" id="m3134f66910" style="stroke:#000000;stroke-width:0.8;"/>
      </defs>
      <g>
       <use style="stroke:#000000;stroke-width:0.8;" x="68.588821" xlink:href="#m3134f66910" y="268.940452"/>
      </g>
     </g>
     <g id="text_8">
      <!-- $\mathdefault{0}$ -->
      <g transform="translate(52.450726 275.85895)scale(0.2 -0.2)">
       <use transform="scale(0.996264)" xlink:href="#CMR17-48"/>
      </g>
     </g>
    </g>
    <g id="ytick_2">
     <g id="line2d_8">
      <g>
       <use style="stroke:#000000;stroke-width:0.8;" x="68.588821" xlink:href="#m3134f66910" y="207.073539"/>
      </g>
     </g>
     <g id="text_9">
      <!-- $\mathdefault{5}$ -->
      <g transform="translate(52.450726 213.992037)scale(0.2 -0.2)">
       <defs>
        <path d="M 11.40625 57.6875 
C 12.40625 57.28125 16.5 56 20.703125 56 
C 30 56 35.09375 61.109375 38 64.0625 
C 38 64.953125 38 65.5 37.40625 65.5 
C 37.296875 65.5 37.09375 65.5 36.296875 65.046875 
C 32.796875 63.40625 28.703125 62.078125 23.703125 62.078125 
C 20.703125 62.078125 16.203125 62.484375 11.296875 64.671875 
C 10.203125 65.171875 10 65.171875 9.90625 65.171875 
C 9.40625 65.171875 9.296875 65.0625 9.296875 63.078125 
L 9.296875 34.421875 
C 9.296875 32.640625 9.296875 32.140625 10.296875 32.140625 
C 10.796875 32.140625 11 32.34375 11.5 33.03125 
C 14.703125 37.515625 19.09375 39.40625 24.09375 39.40625 
C 27.59375 39.40625 35.09375 37.21875 35.09375 20.140625 
C 35.09375 16.953125 35.09375 11.171875 32.09375 6.578125 
C 29.59375 2.484375 25.703125 0.390625 21.40625 0.390625 
C 14.796875 0.390625 8.09375 5 6.296875 12.71875 
C 6.703125 12.609375 7.5 12.421875 7.90625 12.421875 
C 9.203125 12.421875 11.703125 13.125 11.703125 16.21875 
C 11.703125 18.90625 9.796875 20 7.90625 20 
C 5.59375 20 4.09375 18.59375 4.09375 15.796875 
C 4.09375 7.09375 11 -2 21.59375 -2 
C 31.90625 -2 41.703125 6.875 41.703125 19.75 
C 41.703125 31.71875 33.90625 41 24.203125 41 
C 19.09375 41 14.796875 39.109375 11.40625 35.53125 
z
" id="CMR17-53"/>
       </defs>
       <use transform="scale(0.996264)" xlink:href="#CMR17-53"/>
      </g>
     </g>
    </g>
    <g id="ytick_3">
     <g id="line2d_9">
      <g>
       <use style="stroke:#000000;stroke-width:0.8;" x="68.588821" xlink:href="#m3134f66910" y="145.206625"/>
      </g>
     </g>
     <g id="text_10">
      <!-- $\mathdefault{10}$ -->
      <g transform="translate(43.31263 152.125124)scale(0.2 -0.2)">
       <use transform="scale(0.996264)" xlink:href="#CMR17-49"/>
       <use transform="translate(45.690477 0)scale(0.996264)" xlink:href="#CMR17-48"/>
      </g>
     </g>
    </g>
    <g id="ytick_4">
     <g id="line2d_10">
      <g>
       <use style="stroke:#000000;stroke-width:0.8;" x="68.588821" xlink:href="#m3134f66910" y="83.339712"/>
      </g>
     </g>
     <g id="text_11">
      <!-- $\mathdefault{15}$ -->
      <g transform="translate(43.31263 90.25821)scale(0.2 -0.2)">
       <use transform="scale(0.996264)" xlink:href="#CMR17-49"/>
       <use transform="translate(45.690477 0)scale(0.996264)" xlink:href="#CMR17-53"/>
      </g>
     </g>
    </g>
    <g id="text_12">
     <!-- MSE Loss -->
     <g transform="translate(35.436997 189.879276)rotate(-90)scale(0.2 -0.2)">
      <defs>
       <path d="M 20.90625 66 
C 20.296875 67.5 20.203125 67.5 18.09375 67.5 
L 5.296875 67.5 
L 5.296875 65 
C 12.203125 65 13.296875 65 13.296875 60.546875 
L 13.296875 9.53125 
C 13.296875 7.046875 13.296875 2.390625 5.296875 2.390625 
L 5.296875 -0.203125 
C 7.59375 0 11.796875 0 14.296875 0 
C 16.796875 0 21 0 23.296875 -0.203125 
L 23.296875 2.390625 
C 15.296875 2.390625 15.296875 7.046875 15.296875 9.53125 
L 15.296875 64.609375 
L 15.40625 64.609375 
L 38.90625 1.390625 
C 39.296875 0.390625 39.5 -0.203125 40.296875 -0.203125 
C 41.09375 -0.203125 41.296875 0.390625 41.703125 1.390625 
L 65.40625 65.09375 
L 65.5 65.09375 
L 65.5 6.84375 
C 65.5 2.390625 64.40625 2.390625 57.5 2.390625 
L 57.5 -0.203125 
C 60.203125 0 65.59375 0 68.5 0 
C 71.40625 0 76.90625 0 79.59375 -0.203125 
L 79.59375 2.390625 
C 72.703125 2.390625 71.59375 2.390625 71.59375 6.84375 
L 71.59375 60.546875 
C 71.59375 65 72.703125 65 79.59375 65 
L 79.59375 67.5 
L 66.90625 67.5 
C 64.796875 67.5 64.703125 67.40625 64.09375 65.90625 
L 42.5 7.84375 
z
" id="CMR17-77"/>
       <path d="M 43.796875 67.03125 
C 43.796875 68.8125 43.703125 68.921875 43.09375 68.921875 
C 42.5 68.921875 42.296875 68.515625 41.90625 67.625 
L 38.90625 61.046875 
C 35.09375 66.515625 29.296875 69 23 69 
C 12.796875 69 4.59375 60.953125 4.59375 50.828125 
C 4.59375 47.75 5.296875 43.375 8.703125 39.21875 
C 12.40625 34.65625 15.90625 33.859375 23.90625 31.765625 
C 26.90625 30.96875 31.90625 29.671875 32.90625 29.28125 
C 38.59375 26.90625 41.59375 20.953125 41.59375 15.390625 
C 41.59375 8.234375 36.5 0.59375 27.796875 0.59375 
C 17.09375 0.59375 7.09375 6.546875 6.40625 20.484375 
C 6.296875 22.078125 6.203125 22.171875 5.5 22.171875 
C 4.703125 22.171875 4.59375 22.078125 4.59375 20.078125 
L 4.59375 -0.015625 
C 4.59375 -1.796875 4.703125 -1.90625 5.296875 -1.90625 
C 6 -1.90625 6.203125 -1.40625 7.59375 1.6875 
C 7.703125 1.984375 7.703125 2.1875 9.59375 5.953125 
C 14.59375 -0.609375 23 -2 27.796875 -2 
C 38.703125 -2 46.40625 7.046875 46.40625 17.5625 
C 46.40625 22.71875 44.5 26.6875 43.40625 28.484375 
C 39.203125 34.84375 34.703125 36.03125 29.90625 37.21875 
C 29.203125 37.53125 29 37.53125 23.40625 38.90625 
C 18 40.296875 15.703125 41 13.203125 43.6875 
C 10.40625 46.75 9.40625 49.9375 9.40625 53.109375 
C 9.40625 59.5625 14.59375 66.609375 23.09375 66.609375 
C 33.703125 66.609375 40.296875 59.15625 41.796875 46.765625 
C 42.09375 44.96875 42.203125 44.875 42.90625 44.875 
C 43.796875 44.875 43.796875 45.171875 43.796875 46.859375 
z
" id="CMR17-83"/>
       <path d="M 54.203125 25.234375 
L 52.40625 25.234375 
C 51.59375 15.359375 50.296875 2.59375 33.203125 2.59375 
L 23.90625 2.59375 
C 19.90625 2.59375 19.703125 3.078125 19.703125 6.46875 
L 19.703125 60.90625 
C 19.703125 64.515625 19.90625 65.5 27.5 65.5 
L 29.703125 65.5 
L 29.703125 68 
C 25.59375 68 20.796875 68 16.703125 68 
C 13.59375 68 8 68 5.09375 68 
L 5.09375 65.5 
C 12 65.5 13.09375 65.5 13.09375 61.015625 
L 13.09375 7.0625 
C 13.09375 2.59375 12 2.59375 5.09375 2.59375 
L 5.09375 0 
L 51.796875 0 
z
" id="CMR17-76"/>
       <path d="M 30.90625 42.140625 
C 30.90625 43.953125 30.796875 44.046875 30.203125 44.046875 
C 29.796875 44.046875 29.703125 43.953125 28.5 42.453125 
C 28.203125 42.046875 27.296875 41.03125 27 40.640625 
C 23.796875 44.046875 19.296875 44.046875 17.59375 44.046875 
C 6.5 44.046875 2.5 38.234375 2.5 32.4375 
C 2.5 23.40625 12.703125 21.328125 15.59375 20.703125 
C 21.90625 19.421875 24.09375 19.015625 26.203125 17.203125 
C 27.5 16.015625 29.703125 13.8125 29.703125 10.21875 
C 29.703125 6 27.296875 0.59375 18.09375 0.59375 
C 9.40625 0.59375 6.296875 7.1875 4.5 15.953125 
C 4.203125 17.34375 4.203125 17.453125 3.40625 17.453125 
C 2.59375 17.453125 2.5 17.34375 2.5 15.359375 
L 2.5 0.984375 
C 2.5 -0.796875 2.59375 -0.90625 3.203125 -0.90625 
C 3.703125 -0.90625 3.796875 -0.796875 4.296875 0 
C 4.90625 0.890625 6.40625 3.296875 7 4.3125 
C 9 1.609375 12.5 -1 18.09375 -1 
C 28 -1 33.296875 4.421875 33.296875 12.25 
C 33.296875 17.375 30.59375 20.078125 29.296875 21.28125 
C 26.296875 24.390625 22.796875 25.09375 18.59375 25.890625 
C 13.09375 27.109375 6.09375 28.515625 6.09375 34.640625 
C 6.09375 37.234375 7.5 42.765625 17.59375 42.765625 
C 28.296875 42.765625 28.90625 32.71875 29.09375 29.5 
C 29.203125 29 29.703125 28.890625 30 28.890625 
C 30.90625 28.890625 30.90625 29.203125 30.90625 30.90625 
z
" id="CMR17-115"/>
      </defs>
      <use transform="scale(0.996264)" xlink:href="#CMR17-77"/>
      <use transform="translate(84.686941 0)scale(0.996264)" xlink:href="#CMR17-83"/>
      <use transform="translate(135.58231 0)scale(0.996264)" xlink:href="#CMR17-69"/>
      <use transform="translate(228.244577 0)scale(0.996264)" xlink:href="#CMR17-76"/>
      <use transform="translate(285.625985 0)scale(0.996264)" xlink:href="#CMR17-111"/>
      <use transform="translate(331.316462 0)scale(0.996264)" xlink:href="#CMR17-115"/>
      <use transform="translate(367.1178 0)scale(0.996264)" xlink:href="#CMR17-115"/>
     </g>
    </g>
   </g>
   <g id="line2d_11">
    <path clip-path="url(#pe1b8cc0849)" d="M 85.434784 33.235215 
L 85.763165 153.885998 
L 86.091547 157.546991 
L 87.076691 223.993226 
L 87.405072 228.711963 
L 88.061835 242.609029 
L 88.390216 244.856857 
L 88.718597 244.567403 
L 89.37536 249.600081 
L 89.703741 249.843635 
L 90.032123 249.822615 
L 91.017267 255.616214 
L 91.345648 255.585795 
L 92.002411 256.892391 
L 92.659173 256.140887 
L 92.987555 256.527076 
L 93.315936 257.126554 
L 93.644317 257.112827 
L 93.972699 256.987128 
L 94.629461 257.860083 
L 95.286224 257.943387 
L 95.942987 258.606623 
L 96.271368 258.572877 
L 96.599749 258.658913 
L 96.928131 258.940367 
L 97.256512 259.034389 
L 97.584893 258.994976 
L 98.570037 259.285838 
L 99.2268 259.541276 
L 100.540325 259.864326 
L 101.197088 259.936622 
L 102.510613 260.206762 
L 107.436334 260.985655 
L 115.645867 261.904115 
L 125.168926 262.831431 
L 125.825689 262.816069 
L 126.482451 262.982496 
L 127.467595 262.991727 
L 128.124358 263.080241 
L 130.094646 263.218438 
L 132.721697 263.365754 
L 134.035222 263.403024 
L 135.020366 263.570065 
L 137.319035 263.583234 
L 138.632561 263.731636 
L 139.617705 263.625008 
L 140.274467 263.493147 
L 140.93123 263.681287 
L 141.587993 263.847396 
L 142.901518 263.699956 
L 144.215044 263.928763 
L 146.185332 263.819284 
L 147.170476 264.017317 
L 150.125908 264.038324 
L 151.439433 264.115666 
L 152.096196 264.039886 
L 152.752958 263.755474 
L 153.409721 263.247802 
L 153.738102 263.323038 
L 154.394865 264.167735 
L 154.723246 264.03136 
L 155.051628 263.71922 
L 155.380009 263.736373 
L 155.70839 264.084431 
L 156.036772 264.196609 
L 156.693534 263.895662 
L 157.350297 264.225772 
L 158.335441 264.070686 
L 158.992204 264.269683 
L 159.977348 264.145425 
L 160.962492 264.302666 
L 162.276017 264.202292 
L 163.917924 264.364209 
L 165.559831 264.18112 
L 166.544975 264.017905 
L 167.201737 264.179353 
L 167.8585 264.420833 
L 168.515263 264.397452 
L 170.157169 264.089052 
L 170.813932 264.258064 
L 171.470695 264.477309 
L 172.127457 264.482512 
L 174.426127 264.14483 
L 175.739652 264.566868 
L 178.038321 264.361699 
L 179.680228 264.623489 
L 180.336991 264.540046 
L 180.993753 264.226456 
L 181.978897 263.259891 
L 182.307279 263.565226 
L 182.964041 264.626451 
L 183.620804 263.981981 
L 183.949185 264.155212 
L 184.277567 264.560305 
L 184.605948 264.616839 
L 184.934329 264.341178 
L 185.262711 264.21389 
L 185.919474 264.673613 
L 186.247855 264.630714 
L 186.904618 264.362219 
L 187.889762 264.713228 
L 188.874906 264.542483 
L 189.86005 264.735044 
L 190.845194 264.547748 
L 191.830338 264.709844 
L 192.4871 264.785353 
L 194.78577 264.567566 
L 195.770914 264.553196 
L 197.41282 264.851088 
L 198.397964 264.758821 
L 199.054727 264.434468 
L 200.039871 263.118942 
L 200.368252 263.473942 
L 200.696634 264.354418 
L 201.025015 264.822754 
L 201.681778 263.955013 
L 202.33854 264.821416 
L 202.666922 264.650151 
L 202.995303 264.298874 
L 203.323684 264.418484 
L 203.652066 264.797613 
L 203.980447 264.814963 
L 204.308828 264.53622 
L 204.63721 264.469561 
L 205.293972 264.885171 
L 206.279117 264.636949 
L 206.935879 264.920057 
L 207.921023 264.715865 
L 209.234549 264.927276 
L 210.219693 264.803757 
L 212.846743 264.937476 
L 215.473794 264.734977 
L 216.458938 265.020493 
L 217.444082 264.988154 
L 218.100845 264.739865 
L 218.757607 264.038414 
L 219.085989 263.463111 
L 219.41437 263.368568 
L 219.742751 263.81764 
L 220.071133 264.737032 
L 220.399514 264.973014 
L 220.727895 264.442022 
L 221.056277 264.158136 
L 221.713039 265.017876 
L 222.041421 264.87748 
L 222.369802 264.522009 
L 222.698183 264.593885 
L 223.026565 264.928044 
L 223.354946 265.059498 
L 224.011709 264.683144 
L 224.996853 265.076557 
L 225.653615 264.833479 
L 226.967141 265.072 
L 227.623904 264.976583 
L 228.937429 265.138894 
L 230.579336 265.04538 
L 232.878005 265.188105 
L 233.863149 265.126318 
L 234.519912 264.82354 
L 234.848293 264.481335 
L 235.505056 263.242968 
L 235.833437 262.874254 
L 236.4902 264.880449 
L 236.818581 265.031308 
L 237.146962 264.314572 
L 237.475344 264.211472 
L 237.803725 264.943295 
L 238.132106 265.096183 
L 238.460488 264.552715 
L 238.788869 264.51058 
L 239.11725 264.998287 
L 239.445632 265.170944 
L 240.102394 264.598909 
L 240.759157 265.19832 
L 241.744301 264.890282 
L 242.072682 265.137857 
L 242.401064 265.226457 
L 243.057826 265.015848 
L 244.371352 265.195477 
L 245.028114 265.106702 
L 246.013258 265.283168 
L 247.655165 265.239263 
L 248.968691 265.295868 
L 251.924123 265.150782 
L 255.864699 265.059945 
L 257.178224 264.290394 
L 257.506605 264.35425 
L 258.163368 265.242057 
L 258.491749 265.352095 
L 259.148512 264.81818 
L 259.476893 264.821929 
L 260.133656 265.321334 
L 260.462037 265.387332 
L 261.447181 264.953983 
L 262.103944 265.166232 
L 262.760707 265.414014 
L 263.417469 265.310662 
L 264.402613 265.096569 
L 265.059376 265.173278 
L 266.04452 265.438219 
L 266.701283 265.398696 
L 267.686427 265.111232 
L 268.671571 264.586908 
L 268.999952 264.586024 
L 269.328334 264.730598 
L 269.985096 265.390201 
L 270.313478 265.428816 
L 270.97024 265.046264 
L 271.298622 265.032715 
L 272.283766 265.467846 
L 272.940528 265.310205 
L 273.597291 265.145773 
L 274.254054 265.214385 
L 275.89596 265.499899 
L 276.881104 265.304939 
L 277.537867 264.975933 
L 278.523011 264.400943 
L 278.851392 264.512617 
L 279.508155 265.398774 
L 279.836536 265.463305 
L 280.493299 265.001544 
L 280.82168 265.084386 
L 281.478443 265.50655 
L 281.806824 265.451499 
L 282.463587 265.191443 
L 283.12035 265.384298 
L 283.777112 265.532852 
L 285.419019 265.333278 
L 287.717688 265.566581 
L 289.031214 265.425201 
L 289.687977 265.015804 
L 290.673121 263.692517 
L 291.001502 264.020795 
L 291.658265 265.474457 
L 291.986646 265.281515 
L 292.315027 264.729433 
L 292.643409 264.800525 
L 292.97179 265.294892 
L 293.300171 265.546822 
L 293.956934 265.010646 
L 294.285315 265.123633 
L 294.613697 265.430878 
L 294.942078 265.563999 
L 295.598841 265.24941 
L 295.927222 265.291777 
L 296.583985 265.584759 
L 297.240747 265.409517 
L 297.89751 265.305924 
L 299.211035 265.60034 
L 300.524561 265.429941 
L 302.82323 265.590688 
L 303.808374 265.31495 
L 305.121899 264.707848 
L 306.107043 265.614574 
L 306.435425 265.533017 
L 307.092187 265.121253 
L 307.420569 265.156303 
L 308.077331 265.571271 
L 308.405713 265.637464 
L 309.719238 265.416768 
L 310.704382 265.660963 
L 311.689526 265.436346 
L 313.003052 264.965115 
L 313.331433 265.037467 
L 314.316577 265.659771 
L 314.97334 265.417603 
L 315.630102 265.221176 
L 316.286865 265.417174 
L 316.943628 265.666314 
L 317.60039 265.62891 
L 319.242297 265.234499 
L 319.89906 265.477055 
L 320.555822 265.695319 
L 321.212585 265.552797 
L 322.52611 265.149258 
L 322.854492 265.140141 
L 323.511254 265.440531 
L 324.168017 265.703061 
L 324.82478 265.537392 
L 325.809924 265.213456 
L 326.466686 265.293278 
L 327.45183 265.709319 
L 328.108593 265.609234 
L 329.422118 265.198744 
L 330.078881 265.199002 
L 331.064025 265.704821 
L 331.720788 265.619154 
L 332.705932 265.27457 
L 333.362695 265.234092 
L 334.019457 265.528136 
L 334.67622 265.732245 
L 336.646508 265.439899 
L 338.288415 265.749778 
L 339.273559 265.59839 
L 340.258703 265.17349 
L 340.915465 264.900211 
L 341.243847 265.051337 
L 341.900609 265.653863 
L 342.228991 265.737678 
L 343.542516 265.227396 
L 344.199279 265.554488 
L 344.856041 265.762154 
L 346.826329 265.369085 
L 348.468236 265.760407 
L 349.45338 265.493922 
L 350.766906 265.044047 
L 351.095287 265.124216 
L 351.75205 265.674355 
L 352.080431 265.766534 
L 353.393956 265.362581 
L 354.3791 265.762133 
L 355.035863 265.750282 
L 357.334532 265.307177 
L 357.991295 265.639494 
L 358.319676 265.781452 
L 358.976439 265.689558 
L 360.289964 265.27189 
L 360.618346 265.2604 
L 361.275108 265.546927 
L 361.931871 265.808733 
L 362.588634 265.585424 
L 363.245396 265.36166 
L 363.573778 265.31153 
L 364.23054 265.548998 
L 364.887303 265.812684 
L 365.544066 265.715011 
L 366.857591 265.297901 
L 367.185972 265.246759 
L 367.842735 265.527163 
L 368.499498 265.825462 
L 369.15626 265.632868 
L 369.813023 265.364936 
L 370.469786 265.321409 
L 371.126549 265.592314 
L 371.783311 265.833517 
L 372.768455 265.610049 
L 373.425218 265.506894 
L 374.081981 265.568365 
L 375.395506 265.849337 
L 376.38065 265.695263 
L 377.694175 265.281436 
L 378.022557 265.106438 
L 378.679319 265.118826 
L 379.664463 265.841582 
L 379.992845 265.760258 
L 380.649607 265.413 
L 380.977989 265.362993 
L 381.634751 265.586502 
L 382.291514 265.851654 
L 382.948277 265.753202 
L 383.933421 265.516215 
L 384.918565 265.631555 
L 385.903709 265.873051 
L 386.560471 265.778937 
L 387.873997 265.269637 
L 388.202378 265.110671 
L 388.530759 265.131568 
L 388.859141 265.293133 
L 389.515903 265.846162 
L 389.844285 265.806167 
L 390.501047 265.371788 
L 391.15781 265.354094 
L 392.142954 265.869469 
L 392.799717 265.693285 
L 393.45648 265.508388 
L 394.113242 265.594739 
L 395.098386 265.887726 
L 396.08353 265.747863 
L 397.397056 265.64191 
L 398.3822 265.792928 
L 399.367344 265.904268 
L 400.680869 265.807623 
L 401.337632 265.573176 
L 401.666013 265.338653 
L 402.651157 263.928772 
L 402.979538 264.320019 
L 403.636301 265.810704 
L 404.293064 264.86517 
L 404.949826 265.797046 
L 405.278208 265.67474 
L 405.606589 265.286885 
L 405.93497 265.257373 
L 406.263352 265.696951 
L 406.591733 265.826575 
L 406.920114 265.556461 
L 407.248496 265.441179 
L 407.905258 265.869722 
L 408.890402 265.519513 
L 409.875546 265.873824 
L 410.532309 265.670998 
L 411.189072 265.792717 
L 411.845834 265.906574 
L 413.816123 265.79585 
L 414.801267 265.925738 
L 416.114792 265.733227 
L 417.428317 265.605548 
L 419.070224 265.939524 
L 420.055368 265.779999 
L 421.697275 265.260782 
L 422.354037 265.555382 
L 422.354037 265.555382 
" style="fill:none;stroke:#4c72b0;stroke-linecap:square;stroke-width:2;"/>
   </g>
   <g id="line2d_12">
    <path clip-path="url(#pe1b8cc0849)" d="M 85.434784 157.663683 
L 85.763165 170.013672 
L 86.748309 222.664313 
L 87.076691 227.45523 
L 87.733453 242.480679 
L 88.061835 245.237154 
L 88.390216 245.643055 
L 89.046979 251.750737 
L 89.37536 252.101093 
L 89.703741 251.922014 
L 90.032123 253.700576 
L 90.360504 256.216737 
L 90.688885 257.059798 
L 91.017267 256.725028 
L 91.674029 256.872096 
L 92.330792 255.626828 
L 92.659173 256.048064 
L 92.987555 256.810379 
L 93.644317 257.173587 
L 94.30108 258.377525 
L 94.957843 258.670151 
L 95.614605 259.488485 
L 96.271368 259.762652 
L 96.599749 260.073113 
L 97.584893 260.387394 
L 97.913275 260.675648 
L 98.570037 260.741645 
L 98.898419 260.70787 
L 99.555181 260.381452 
L 100.540325 260.448973 
L 104.15252 260.837227 
L 104.809283 261.038286 
L 109.07824 261.175695 
L 110.391766 261.2209 
L 113.018816 261.380754 
L 114.00396 261.504991 
L 114.989104 261.511615 
L 115.974248 261.534416 
L 116.959392 261.618463 
L 117.944536 261.62596 
L 119.258062 261.678173 
L 119.914824 261.687926 
L 120.243206 261.791535 
L 120.571587 261.680991 
L 121.885112 261.879286 
L 122.213494 261.806013 
L 124.183782 262.00317 
L 125.168926 261.868857 
L 125.497307 262.083317 
L 125.825689 262.023903 
L 126.482451 262.077481 
L 126.810833 262.029443 
L 127.139214 262.234811 
L 127.795977 262.044754 
L 128.124358 262.185755 
L 129.109502 262.219864 
L 131.736553 262.278531 
L 132.064934 262.398684 
L 132.393315 262.278314 
L 132.721697 262.373673 
L 133.050078 262.223252 
L 133.378459 262.372966 
L 133.706841 262.279373 
L 134.035222 262.469439 
L 135.020366 262.499454 
L 135.348747 262.407422 
L 135.677129 262.456428 
L 136.00551 262.329253 
L 136.333891 262.451061 
L 136.662273 262.358464 
L 136.990654 262.47476 
L 137.319035 262.459182 
L 137.975798 262.569432 
L 139.289323 262.471905 
L 139.617705 262.344795 
L 141.587993 262.564701 
L 142.244755 262.450479 
L 142.901518 262.526194 
L 143.558281 262.637355 
L 145.85695 262.528215 
L 146.842094 262.672028 
L 149.469145 262.634828 
L 150.454289 262.700049 
L 151.767814 262.633572 
L 152.096196 262.546112 
L 153.08134 261.851827 
L 153.409721 262.022839 
L 154.066484 262.774836 
L 154.394865 262.642046 
L 154.723246 262.265889 
L 155.051628 262.348877 
L 155.380009 262.628591 
L 155.70839 262.744871 
L 156.365153 262.42314 
L 157.021916 262.755844 
L 158.00706 262.557598 
L 158.663822 262.786562 
L 159.648966 262.609697 
L 160.305729 262.766237 
L 160.962492 262.758624 
L 161.619254 262.651167 
L 161.947636 262.581836 
L 162.93278 262.780105 
L 163.917924 262.756596 
L 164.903068 262.607939 
L 165.231449 262.616357 
L 165.559831 262.497442 
L 166.873356 262.550615 
L 167.530119 262.755691 
L 168.186881 262.735717 
L 169.172025 262.467934 
L 169.500407 262.481537 
L 169.828788 262.377021 
L 171.142313 262.777548 
L 171.799076 262.79783 
L 173.440983 262.396754 
L 174.754508 262.675229 
L 175.082889 262.819824 
L 176.068033 262.773375 
L 176.396415 262.66172 
L 176.724796 262.680729 
L 177.053177 262.570446 
L 177.381559 262.653797 
L 177.70994 262.59639 
L 178.038321 262.726518 
L 178.695084 262.813692 
L 179.680228 262.854173 
L 180.336991 262.68462 
L 181.322135 261.752522 
L 181.650516 261.6741 
L 181.978897 261.79499 
L 182.307279 262.5424 
L 182.63566 262.868386 
L 183.292423 262.367081 
L 183.620804 262.422625 
L 183.949185 262.853772 
L 184.277567 262.882692 
L 184.605948 262.521102 
L 184.934329 262.517657 
L 185.262711 262.628629 
L 185.591092 262.911802 
L 185.919474 262.879555 
L 186.247855 262.625165 
L 186.904618 262.633746 
L 187.232999 262.87447 
L 187.56138 262.920066 
L 188.546524 262.741842 
L 189.203287 262.907763 
L 189.86005 262.892201 
L 190.188431 262.761502 
L 193.472244 262.837441 
L 193.800626 262.730486 
L 194.129007 262.764705 
L 194.457388 262.657825 
L 194.78577 262.71753 
L 195.114151 262.613457 
L 195.442532 262.750086 
L 195.770914 262.728469 
L 196.099295 262.872521 
L 197.741202 262.924198 
L 198.397964 262.760288 
L 199.054727 262.249148 
L 199.383108 261.662525 
L 199.71149 261.432989 
L 200.039871 261.612276 
L 200.368252 262.623549 
L 200.696634 263.033784 
L 201.353396 262.278818 
L 201.681778 262.520147 
L 202.010159 263.018715 
L 202.33854 262.866823 
L 202.666922 262.407462 
L 203.323684 262.921439 
L 203.652066 262.933737 
L 204.308828 262.555015 
L 204.63721 262.845459 
L 204.965591 262.964994 
L 205.950735 262.679611 
L 206.279117 262.921955 
L 206.607498 262.97262 
L 207.592642 262.73545 
L 208.249405 262.92541 
L 208.906167 262.944789 
L 209.891311 262.789113 
L 211.204837 262.928858 
L 212.189981 262.959035 
L 214.817031 262.598015 
L 215.802175 262.983284 
L 217.115701 262.919039 
L 217.444082 262.842409 
L 218.100845 262.448203 
L 218.757607 261.584862 
L 219.085989 261.3118 
L 219.742751 262.77909 
L 220.071133 263.040132 
L 220.727895 262.225534 
L 221.384658 263.059332 
L 222.369802 262.557751 
L 222.698183 262.985524 
L 223.026565 263.05779 
L 223.354946 262.801884 
L 224.011709 262.767742 
L 224.34009 263.057319 
L 224.668471 263.084783 
L 224.996853 262.912235 
L 225.653615 262.81034 
L 225.981997 262.998581 
L 226.63876 262.993798 
L 227.952285 263.022031 
L 228.609048 263.078234 
L 230.250954 262.921973 
L 230.907717 263.002226 
L 231.56448 263.050738 
L 232.878005 263.041861 
L 234.19153 262.72133 
L 234.848293 261.873092 
L 235.176674 261.055939 
L 235.505056 261.004213 
L 235.833437 261.610528 
L 236.161818 262.846079 
L 236.4902 263.000399 
L 236.818581 262.209048 
L 237.146962 262.286969 
L 237.475344 262.844628 
L 237.803725 263.017449 
L 238.460488 262.354448 
L 238.788869 262.935594 
L 239.11725 263.095785 
L 239.445632 262.693918 
L 239.774013 262.599439 
L 240.102394 262.737277 
L 240.430776 263.099538 
L 240.759157 263.0301 
L 241.087538 262.693901 
L 242.072682 263.093693 
L 242.401064 263.006697 
L 242.729445 262.803834 
L 243.386208 263.005928 
L 244.04297 263.060353 
L 244.371352 262.911769 
L 244.699733 262.995277 
L 245.028114 262.956032 
L 245.684877 263.04976 
L 247.326784 263.032631 
L 247.983547 263.080772 
L 250.938979 262.873715 
L 251.26736 262.948415 
L 251.595741 262.855781 
L 251.924123 262.937835 
L 252.252504 262.87289 
L 252.580885 262.961057 
L 252.909267 262.879465 
L 253.237648 262.961387 
L 253.566029 262.896413 
L 253.894411 262.957789 
L 254.222792 262.882257 
L 254.551173 262.965213 
L 255.864699 262.642589 
L 256.19308 262.284836 
L 256.521461 262.224702 
L 256.849843 261.969728 
L 257.506605 262.520927 
L 257.834987 263.027573 
L 258.163368 263.117906 
L 258.820131 262.667748 
L 259.148512 262.545336 
L 259.476893 262.875618 
L 260.133656 263.094946 
L 260.462037 262.981493 
L 260.790419 262.677343 
L 261.1188 262.722627 
L 261.447181 262.647633 
L 261.775563 262.892739 
L 262.760707 263.077976 
L 263.745851 262.76437 
L 264.074232 262.807306 
L 264.402613 262.726125 
L 265.387757 263.052598 
L 266.04452 263.096333 
L 266.372901 263.061441 
L 267.358045 262.66949 
L 267.686427 262.602545 
L 268.014808 262.313552 
L 268.34319 262.2912 
L 268.671571 262.133214 
L 269.656715 263.088923 
L 269.985096 263.113846 
L 270.313478 262.854623 
L 270.97024 262.610585 
L 271.627003 262.958174 
L 271.955384 263.077882 
L 272.283766 263.041801 
L 272.612147 262.84113 
L 272.940528 262.831324 
L 273.26891 262.669815 
L 273.597291 262.778021 
L 273.925672 262.725872 
L 274.582435 262.916385 
L 274.910816 263.048696 
L 275.89596 263.016101 
L 277.209486 262.594267 
L 277.537867 262.221393 
L 277.866248 262.129146 
L 278.19463 261.863285 
L 278.851392 262.513286 
L 279.179774 263.017149 
L 279.508155 263.090976 
L 279.836536 262.785936 
L 280.493299 262.627409 
L 280.82168 262.974286 
L 281.150062 263.11469 
L 281.806824 262.935341 
L 282.135206 262.754648 
L 283.12035 263.066426 
L 283.448731 263.069004 
L 284.433875 262.749957 
L 284.762256 262.82368 
L 285.090638 262.77472 
L 286.075782 262.977503 
L 287.717688 263.04662 
L 289.031214 262.749356 
L 290.344739 261.364983 
L 290.673121 261.460635 
L 291.001502 262.437709 
L 291.329883 263.053304 
L 291.658265 262.826954 
L 291.986646 262.415464 
L 292.315027 262.297582 
L 292.643409 262.91081 
L 292.97179 263.108731 
L 293.628553 262.630241 
L 293.956934 262.570546 
L 294.285315 262.982815 
L 294.613697 263.079107 
L 295.270459 262.812151 
L 295.598841 262.700442 
L 295.927222 262.972109 
L 296.255603 263.039578 
L 296.912366 262.872947 
L 297.240747 262.666734 
L 298.554273 262.992097 
L 299.211035 262.992123 
L 299.539417 262.859491 
L 299.867798 262.883848 
L 300.196179 262.795506 
L 301.181323 262.990987 
L 302.166467 262.995735 
L 303.479993 262.70535 
L 303.808374 262.434977 
L 304.136755 262.37264 
L 304.465137 262.053454 
L 305.121899 262.304759 
L 305.450281 262.819019 
L 305.778662 263.017529 
L 306.435425 262.743066 
L 306.763806 262.437458 
L 308.077331 263.038016 
L 309.062475 262.72397 
L 310.04762 262.95579 
L 311.032764 262.876168 
L 312.017908 262.411121 
L 312.346289 262.396223 
L 312.67467 262.232736 
L 313.988196 262.982221 
L 315.301721 262.591982 
L 315.630102 262.55885 
L 315.958484 262.772372 
L 316.943628 262.989201 
L 318.257153 262.617247 
L 318.585534 262.428418 
L 320.227441 262.954037 
L 320.555822 262.906991 
L 320.884204 262.736818 
L 321.212585 262.715348 
L 321.540966 262.506256 
L 321.869348 262.513884 
L 322.197729 262.350161 
L 323.839636 262.937854 
L 324.168017 262.885243 
L 324.496398 262.683556 
L 324.82478 262.626946 
L 325.153161 262.442263 
L 325.481542 262.481581 
L 325.809924 262.408892 
L 326.795068 262.894855 
L 327.45183 262.908825 
L 327.780212 262.848367 
L 328.108593 262.630747 
L 328.436974 262.614505 
L 328.765356 262.40892 
L 329.093737 262.439109 
L 329.422118 262.333361 
L 330.735644 262.926042 
L 331.392407 262.798741 
L 331.720788 262.570245 
L 332.049169 262.551064 
L 332.377551 262.385445 
L 333.362695 262.57017 
L 334.347839 262.943074 
L 335.661364 262.618722 
L 335.989745 262.564785 
L 337.303271 262.864938 
L 337.960033 262.923267 
L 339.273559 262.625214 
L 340.258703 262.121929 
L 340.915465 262.151473 
L 341.572228 262.791923 
L 341.900609 262.875663 
L 342.228991 262.749691 
L 342.557372 262.429198 
L 343.214135 262.30237 
L 344.199279 262.863897 
L 344.52766 262.904922 
L 346.169567 262.428813 
L 348.139855 262.858522 
L 350.438524 262.125284 
L 351.75205 262.867816 
L 352.737194 262.404793 
L 354.707482 262.870928 
L 356.349388 262.33173 
L 357.006151 262.388165 
L 357.991295 262.893955 
L 358.319676 262.864515 
L 359.30482 262.473932 
L 360.289964 262.396091 
L 360.618346 262.465018 
L 361.275108 262.820737 
L 361.60349 262.863219 
L 361.931871 262.768096 
L 362.260252 262.549967 
L 363.245396 262.365024 
L 364.887303 262.860809 
L 366.52921 262.272353 
L 367.185972 262.354592 
L 367.842735 262.765775 
L 368.171116 262.870586 
L 368.499498 262.802874 
L 369.484642 262.337276 
L 370.141404 262.309072 
L 371.45493 262.871065 
L 373.425218 262.504632 
L 375.067125 262.846646 
L 376.38065 262.588013 
L 378.022557 262.014642 
L 378.679319 262.348093 
L 379.007701 262.68343 
L 379.336082 262.836517 
L 379.992845 262.554039 
L 380.321226 262.340917 
L 380.977989 262.417531 
L 381.963133 262.822132 
L 382.291514 262.816931 
L 383.276658 262.433227 
L 384.261802 262.463122 
L 385.575327 262.804669 
L 386.23209 262.673676 
L 388.202378 262.104261 
L 389.187522 262.776936 
L 389.515903 262.743563 
L 390.172666 262.300081 
L 390.501047 262.221989 
L 390.829429 262.289547 
L 391.814573 262.828173 
L 392.471336 262.657325 
L 392.799717 262.465712 
L 393.45648 262.374812 
L 395.098386 262.786453 
L 397.068674 262.532563 
L 400.024106 262.701136 
L 400.680869 262.556282 
L 401.00925 262.428582 
L 401.666013 261.780471 
L 401.994394 261.206847 
L 402.322776 260.904424 
L 402.651157 261.236821 
L 403.30792 262.834179 
L 403.964682 261.914474 
L 404.293064 262.226321 
L 404.621445 262.771103 
L 404.949826 262.656864 
L 405.278208 262.273159 
L 405.606589 262.24434 
L 405.93497 262.690387 
L 406.263352 262.851045 
L 406.920114 262.412623 
L 407.576877 262.770879 
L 408.562021 262.343209 
L 409.218784 262.701282 
L 409.875546 262.616217 
L 410.203928 262.495066 
L 411.845834 262.680425 
L 412.830979 262.524432 
L 414.801267 262.658371 
L 416.771555 262.400663 
L 417.428317 262.4718 
L 418.413461 262.660515 
L 419.398605 262.561266 
L 420.712131 262.191057 
L 421.368893 262.014755 
L 421.697275 262.097022 
L 422.354037 262.524552 
L 422.354037 262.524552 
" style="fill:none;stroke:#dd8452;stroke-linecap:square;stroke-width:2;"/>
   </g>
   <g id="patch_3">
    <path d="M 68.588821 277.574739 
L 68.588821 21.6 
" style="fill:none;stroke:#000000;stroke-linecap:square;stroke-linejoin:miter;stroke-width:0.8;"/>
   </g>
   <g id="patch_4">
    <path d="M 439.2 277.574739 
L 439.2 21.6 
" style="fill:none;stroke:#000000;stroke-linecap:square;stroke-linejoin:miter;stroke-width:0.8;"/>
   </g>
   <g id="patch_5">
    <path d="M 68.588821 277.574739 
L 439.2 277.574739 
" style="fill:none;stroke:#000000;stroke-linecap:square;stroke-linejoin:miter;stroke-width:0.8;"/>
   </g>
   <g id="patch_6">
    <path d="M 68.588821 21.6 
L 439.2 21.6 
" style="fill:none;stroke:#000000;stroke-linecap:square;stroke-linejoin:miter;stroke-width:0.8;"/>
   </g>
   <g id="legend_1">
    <g id="patch_7">
     <path d="M 244.747749 93.753759 
L 425.2 93.753759 
Q 429.2 93.753759 429.2 89.753759 
L 429.2 35.6 
Q 429.2 31.6 425.2 31.6 
L 244.747749 31.6 
Q 240.747749 31.6 240.747749 35.6 
L 240.747749 89.753759 
Q 240.747749 93.753759 244.747749 93.753759 
z
" style="fill:#ffffff;opacity:0.8;stroke:#cccccc;stroke-linejoin:miter;"/>
    </g>
    <g id="line2d_13">
     <path d="M 248.747749 46.6 
L 288.747749 46.6 
" style="fill:none;stroke:#4c72b0;stroke-linecap:square;stroke-width:2;"/>
    </g>
    <g id="line2d_14"/>
    <g id="text_13">
     <!-- Train loss -->
     <g transform="translate(304.747749 53.6)scale(0.2 -0.2)">
      <defs>
       <path d="M 62.203125 67.59375 
L 4.5 67.59375 
L 2.796875 45.59375 
L 4.59375 45.59375 
C 5.90625 62.125 7.296875 65 22.703125 65 
C 24.5 65 27.40625 65 28.203125 64.90625 
C 30.09375 64.609375 30.09375 63.40625 30.09375 61.125 
L 30.09375 7.171875 
C 30.09375 3.59375 29.796875 2.5 21.5 2.5 
L 18.703125 2.5 
L 18.703125 0 
C 23.5 0 28.5 0 33.40625 0 
C 38.296875 0 43.296875 0 48.09375 0 
L 48.09375 2.5 
L 45.296875 2.5 
C 37 2.5 36.703125 3.59375 36.703125 7.171875 
L 36.703125 61.125 
C 36.703125 63.3125 36.703125 64.515625 38.5 64.90625 
C 39.296875 65 42.203125 65 44 65 
C 59.296875 65 60.796875 62.125 62.09375 45.59375 
L 63.90625 45.59375 
z
" id="CMR17-84"/>
       <path d="M 15 23.390625 
C 15 33 19.09375 42 26.59375 42 
C 27.296875 42 28 41.90625 28.703125 41.59375 
C 28.703125 41.59375 26.5 40.890625 26.5 38.3125 
C 26.5 35.90625 28.40625 34.90625 29.90625 34.90625 
C 31.09375 34.90625 33.296875 35.609375 33.296875 38.40625 
C 33.296875 41.609375 30.09375 43.59375 26.703125 43.59375 
C 19.09375 43.59375 15.796875 36.203125 14.796875 32.703125 
L 14.703125 32.703125 
L 14.703125 43.59375 
L 3.09375 42.5 
L 3.09375 39.90625 
C 9 39.90625 9.90625 39.296875 9.90625 34.5 
L 9.90625 6.6875 
C 9.90625 2.875 9.5 2.390625 3.09375 2.390625 
L 3.09375 -0.203125 
C 5.5 0 10.09375 0 12.703125 0 
C 15.59375 0 20.703125 0 23.40625 -0.203125 
L 23.40625 2.390625 
C 16.203125 2.390625 15 2.390625 15 6.875 
z
" id="CMR17-114"/>
       <path d="M 36 25.828125 
C 36 32.375 36 35.84375 31.796875 39.734375 
C 28.09375 43 23.796875 44 20.40625 44 
C 12.5 44 6.796875 37.609375 6.796875 30.796875 
C 6.796875 27 9.796875 27 10.40625 27 
C 11.703125 27 14 27.78125 14 30.53125 
C 14 33 12.09375 34.078125 10.40625 34.078125 
C 10 34.078125 9.5 33.96875 9.203125 33.875 
C 11.296875 40.5 16.703125 42.40625 20.203125 42.40625 
C 25.203125 42.40625 30.703125 37.953125 30.703125 29.453125 
L 30.703125 25 
C 24.796875 25 17.703125 24.203125 12.09375 21.203125 
C 5.796875 17.703125 4 12.703125 4 8.90625 
C 4 1.203125 13 -1 18.296875 -1 
C 23.796875 -1 28.90625 2.171875 31.09375 7.984375 
C 31.296875 3.640625 34.09375 -0.28125 38.5 -0.28125 
C 40.59375 -0.28125 45.90625 1.09375 45.90625 8.859375 
L 45.90625 14.375 
L 44.09375 14.375 
L 44.09375 8.78125 
C 44.09375 2.78125 41.40625 2 40.09375 2 
C 36 2 36 7.15625 36 11.53125 
z
M 30.703125 13.59375 
C 30.703125 4.953125 24.5 0.59375 19 0.59375 
C 14 0.59375 10.09375 4.296875 10.09375 8.90625 
C 10.09375 11.890625 11.40625 17.1875 17.203125 20.390625 
C 22 23.09375 27.5 23.5 30.703125 23.5 
z
" id="CMR17-97"/>
       <path d="M 15.5 61.078125 
C 15.5 63.265625 13.703125 65.15625 11.40625 65.15625 
C 9.203125 65.15625 7.296875 63.375 7.296875 61.078125 
C 7.296875 58.890625 9.09375 57 11.40625 57 
C 13.59375 57 15.5 58.796875 15.5 61.078125 
z
M 3.796875 42.28125 
L 3.796875 39.703125 
C 9.40625 39.703125 10.203125 39.09375 10.203125 34.328125 
L 10.203125 6.671875 
C 10.203125 2.875 9.796875 2.390625 3.40625 2.390625 
L 3.40625 -0.203125 
C 5.796875 0 10.09375 0 12.59375 0 
C 15 0 19.09375 0 21.40625 -0.203125 
L 21.40625 2.390625 
C 15.5 2.390625 15.296875 2.984375 15.296875 6.5625 
L 15.296875 43.375 
z
" id="CMR17-105"/>
       <path d="M 41.5 30.203125 
C 41.5 35.296875 40.5 43.59375 28.703125 43.59375 
C 20.796875 43.59375 16.703125 37.5 15.203125 33.5 
L 15.09375 33.5 
L 15.09375 43.59375 
L 3.296875 42.5 
L 3.296875 39.90625 
C 9.203125 39.90625 10.09375 39.296875 10.09375 34.5 
L 10.09375 6.6875 
C 10.09375 2.875 9.703125 2.390625 3.296875 2.390625 
L 3.296875 -0.203125 
C 5.703125 0 10.09375 0 12.703125 0 
C 15.296875 0 19.796875 0 22.203125 -0.203125 
L 22.203125 2.390625 
C 15.796875 2.390625 15.40625 2.78125 15.40625 6.6875 
L 15.40625 25.90625 
C 15.40625 35.109375 21 42 28 42 
C 35.40625 42 36.203125 35.40625 36.203125 30.59375 
L 36.203125 6.6875 
C 36.203125 2.875 35.796875 2.390625 29.40625 2.390625 
L 29.40625 -0.203125 
C 31.796875 0 36.203125 0 38.796875 0 
C 41.40625 0 45.90625 0 48.296875 -0.203125 
L 48.296875 2.390625 
C 41.90625 2.390625 41.5 2.78125 41.5 6.6875 
z
" id="CMR17-110"/>
       <path d="M 15.296875 68.6875 
L 3.40625 67.59375 
L 3.40625 65 
C 9.296875 65 10.203125 64.40625 10.203125 59.640625 
L 10.203125 6.65625 
C 10.203125 2.875 9.796875 2.390625 3.40625 2.390625 
L 3.40625 -0.203125 
C 5.796875 0 10.203125 0 12.703125 0 
C 15.296875 0 19.703125 0 22.09375 -0.203125 
L 22.09375 2.390625 
C 15.703125 2.390625 15.296875 2.78125 15.296875 6.65625 
z
" id="CMR17-108"/>
      </defs>
      <use transform="scale(0.996264)" xlink:href="#CMR17-84"/>
      <use transform="translate(58.702625 0)scale(0.996264)" xlink:href="#CMR17-114"/>
      <use transform="translate(93.983393 0)scale(0.996264)" xlink:href="#CMR17-97"/>
      <use transform="translate(139.67387 0)scale(0.996264)" xlink:href="#CMR17-105"/>
      <use transform="translate(164.544929 0)scale(0.996264)" xlink:href="#CMR17-110"/>
      <use transform="translate(245.516265 0)scale(0.996264)" xlink:href="#CMR17-108"/>
      <use transform="translate(270.387323 0)scale(0.996264)" xlink:href="#CMR17-111"/>
      <use transform="translate(316.0778 0)scale(0.996264)" xlink:href="#CMR17-115"/>
      <use transform="translate(351.879138 0)scale(0.996264)" xlink:href="#CMR17-115"/>
     </g>
    </g>
    <g id="line2d_15">
     <path d="M 248.747749 74.878125 
L 288.747749 74.878125 
" style="fill:none;stroke:#dd8452;stroke-linecap:square;stroke-width:2;"/>
    </g>
    <g id="line2d_16"/>
    <g id="text_14">
     <!-- Validation loss -->
     <g transform="translate(304.747749 81.878125)scale(0.2 -0.2)">
      <defs>
       <path d="M 59 58.515625 
C 59.90625 60.71875 61.5 65 68.203125 65 
L 68.203125 67.6875 
C 65.90625 67.484375 63.296875 67.484375 60.796875 67.484375 
C 58.40625 67.484375 54.296875 67.484375 52 67.6875 
L 52 65 
C 57 65 57.203125 61.5 57.203125 60.90625 
C 57.203125 59.796875 56.90625 59.109375 56.59375 58.3125 
L 36.90625 6.96875 
L 16.296875 60.71875 
C 16 61.421875 15.796875 61.921875 15.796875 62.40625 
C 15.796875 65 19.796875 65 21.90625 65 
L 21.90625 67.484375 
C 18.703125 67.484375 14 67.484375 10.703125 67.484375 
C 8.09375 67.484375 3.40625 67.484375 1 67.6875 
L 1 65 
C 6.796875 65 7.90625 64.609375 9.09375 61.421875 
L 32.90625 -0.40625 
C 33.40625 -1.796875 33.5 -2 34.59375 -2 
C 35.703125 -2 35.796875 -1.796875 36.296875 -0.40625 
z
" id="CMR17-86"/>
       <path d="M 29.203125 67.59375 
L 29.203125 65 
C 35.09375 65 36 64.40625 36 59.6875 
L 36 36.640625 
C 35.59375 37.140625 31.5 43.59375 23.40625 43.59375 
C 13.203125 43.59375 3.296875 34.5 3.296875 21.3125 
C 3.296875 8.203125 12.59375 -1 22.40625 -1 
C 30.90625 -1 35.296875 5.265625 35.796875 5.9375 
L 35.796875 -0.984375 
L 47.90625 -0.984375 
L 47.90625 2 
C 42 2 41.09375 2.59375 41.09375 7.390625 
L 41.09375 68.6875 
z
M 35.796875 11.796875 
C 35.796875 8.796875 34 6.09375 31.703125 4.09375 
C 28.296875 1.09375 24.90625 0.59375 23 0.59375 
C 20.09375 0.59375 9.703125 2.09375 9.703125 21.1875 
C 9.703125 40.8125 21.296875 42 23.90625 42 
C 28.5 42 32.203125 39.40625 34.5 35.796875 
C 35.796875 33.703125 35.796875 33.40625 35.796875 31.609375 
z
" id="CMR17-100"/>
       <path d="M 15.09375 40 
L 29.09375 40 
L 29.09375 42.578125 
L 15.09375 42.578125 
L 15.09375 61 
L 13.296875 61 
C 13.09375 50.703125 9.59375 41.6875 1.09375 41.6875 
L 1.09375 40 
L 9.796875 40 
L 9.796875 12.046875 
C 9.796875 10.15625 9.796875 -1 21.40625 -1 
C 27.296875 -1 30.703125 4.78125 30.703125 12.140625 
L 30.703125 17.8125 
L 28.90625 17.8125 
L 28.90625 12.234375 
C 28.90625 5.375 26.203125 0.796875 22 0.796875 
C 19.09375 0.796875 15.09375 2.78125 15.09375 11.84375 
z
" id="CMR17-116"/>
      </defs>
      <use transform="scale(0.996264)" xlink:href="#CMR17-86"/>
      <use transform="translate(61.265174 0)scale(0.996264)" xlink:href="#CMR17-97"/>
      <use transform="translate(106.955652 0)scale(0.996264)" xlink:href="#CMR17-108"/>
      <use transform="translate(131.82671 0)scale(0.996264)" xlink:href="#CMR17-105"/>
      <use transform="translate(156.697768 0)scale(0.996264)" xlink:href="#CMR17-100"/>
      <use transform="translate(207.593138 0)scale(0.996264)" xlink:href="#CMR17-97"/>
      <use transform="translate(253.283615 0)scale(0.996264)" xlink:href="#CMR17-116"/>
      <use transform="translate(288.564383 0)scale(0.996264)" xlink:href="#CMR17-105"/>
      <use transform="translate(313.435442 0)scale(0.996264)" xlink:href="#CMR17-111"/>
      <use transform="translate(359.125919 0)scale(0.996264)" xlink:href="#CMR17-110"/>
      <use transform="translate(440.097255 0)scale(0.996264)" xlink:href="#CMR17-108"/>
      <use transform="translate(464.968313 0)scale(0.996264)" xlink:href="#CMR17-111"/>
      <use transform="translate(510.658791 0)scale(0.996264)" xlink:href="#CMR17-115"/>
      <use transform="translate(546.460128 0)scale(0.996264)" xlink:href="#CMR17-115"/>
     </g>
    </g>
   </g>
  </g>
 </g>
 <defs>
  <clipPath id="pe1b8cc0849">
   <rect height="255.974739" width="370.611179" x="68.588821" y="21.6"/>
  </clipPath>
 </defs>
</svg>
