<?xml version="1.0" encoding="utf-8" standalone="no"?>
<!DOCTYPE svg PUBLIC "-//W3C//DTD SVG 1.1//EN"
  "http://www.w3.org/Graphics/SVG/1.1/DTD/svg11.dtd">
<!-- Created with matplotlib (https://matplotlib.org/) -->
<svg height="288pt" version="1.1" viewBox="0 0 504 288" width="504pt" xmlns="http://www.w3.org/2000/svg" xmlns:xlink="http://www.w3.org/1999/xlink">
 <metadata>
  <rdf:RDF xmlns:cc="http://creativecommons.org/ns#" xmlns:dc="http://purl.org/dc/elements/1.1/" xmlns:rdf="http://www.w3.org/1999/02/22-rdf-syntax-ns#">
   <cc:Work>
    <dc:type rdf:resource="http://purl.org/dc/dcmitype/StillImage"/>
    <dc:date>2022-09-25T14:42:30.789658</dc:date>
    <dc:format>image/svg+xml</dc:format>
    <dc:creator>
     <cc:Agent>
      <dc:title>Matplotlib v3.3.4, https://matplotlib.org/</dc:title>
     </cc:Agent>
    </dc:creator>
   </cc:Work>
  </rdf:RDF>
 </metadata>
 <defs>
  <style type="text/css">*{stroke-linecap:butt;stroke-linejoin:round;}</style>
 </defs>
 <g id="figure_1">
  <g id="patch_1">
   <path d="M 0 288 
L 504 288 
L 504 0 
L 0 0 
z
" style="fill:#ffffff;"/>
  </g>
  <g id="axes_1">
   <g id="patch_2">
    <path d="M 257.505949 237.08419 
L 488.88 237.08419 
L 488.88 15.12 
L 257.505949 15.12 
z
" style="fill:#ffffff;"/>
   </g>
   <g id="matplotlib.axis_1">
    <g id="xtick_1">
     <g id="line2d_1">
      <path clip-path="url(#p03fde28053)" d="M 257.505949 237.08419 
L 257.505949 15.12 
" style="fill:none;stroke:#b0b0b0;stroke-linecap:square;stroke-width:0.2;"/>
     </g>
     <g id="line2d_2">
      <defs>
       <path d="M 0 0 
L 0 3.5 
" id="m0e05b7208a" style="stroke:#000000;stroke-width:0.8;"/>
      </defs>
      <g>
       <use style="stroke:#000000;stroke-width:0.8;" x="257.505949" xlink:href="#m0e05b7208a" y="237.08419"/>
      </g>
     </g>
     <g id="text_1">
      <!-- $\mathdefault{0.00}$ -->
      <g transform="translate(245.366414 253.770067)scale(0.14 -0.14)">
       <defs>
        <path d="M 42 31.640625 
C 42 37.75 41.90625 48.125 37.703125 56.109375 
C 34 63.109375 28.09375 65.59375 22.90625 65.59375 
C 18.09375 65.59375 12 63.40625 8.203125 56.203125 
C 4.203125 48.71875 3.796875 39.4375 3.796875 31.640625 
C 3.796875 25.953125 3.90625 17.28125 7 9.671875 
C 11.296875 -0.609375 19 -2 22.90625 -2 
C 27.5 -2 34.5 -0.109375 38.59375 9.375 
C 41.59375 16.28125 42 24.359375 42 31.640625 
z
M 22.90625 -0.40625 
C 16.5 -0.40625 12.703125 5.078125 11.296875 12.6875 
C 10.203125 18.5625 10.203125 27.15625 10.203125 32.75 
C 10.203125 40.4375 10.203125 46.828125 11.5 52.921875 
C 13.40625 61.390625 19 64 22.90625 64 
C 27 64 32.296875 61.296875 34.203125 53.125 
C 35.5 47.4375 35.59375 40.734375 35.59375 32.75 
C 35.59375 26.25 35.59375 18.265625 34.40625 12.375 
C 32.296875 1.484375 26.40625 -0.40625 22.90625 -0.40625 
z
" id="CMR17-48"/>
        <path d="M 18.40625 4.796875 
C 18.40625 7.6875 16 9.671875 13.59375 9.671875 
C 10.703125 9.671875 8.703125 7.28125 8.703125 4.890625 
C 8.703125 2 11.09375 0 13.5 0 
C 16.40625 0 18.40625 2.390625 18.40625 4.796875 
z
" id="CMMI12-58"/>
       </defs>
       <use transform="scale(0.996264)" xlink:href="#CMR17-48"/>
       <use transform="translate(45.690477 0)scale(0.996264)" xlink:href="#CMMI12-58"/>
       <use transform="translate(72.787654 0)scale(0.996264)" xlink:href="#CMR17-48"/>
       <use transform="translate(118.478131 0)scale(0.996264)" xlink:href="#CMR17-48"/>
      </g>
     </g>
    </g>
    <g id="xtick_2">
     <g id="line2d_3">
      <path clip-path="url(#p03fde28053)" d="M 323.645551 237.08419 
L 323.645551 15.12 
" style="fill:none;stroke:#b0b0b0;stroke-linecap:square;stroke-width:0.2;"/>
     </g>
     <g id="line2d_4">
      <g>
       <use style="stroke:#000000;stroke-width:0.8;" x="323.645551" xlink:href="#m0e05b7208a" y="237.08419"/>
      </g>
     </g>
     <g id="text_2">
      <!-- $\mathdefault{0.05}$ -->
      <g transform="translate(311.506016 253.770067)scale(0.14 -0.14)">
       <defs>
        <path d="M 11.40625 57.6875 
C 12.40625 57.28125 16.5 56 20.703125 56 
C 30 56 35.09375 61.109375 38 64.0625 
C 38 64.953125 38 65.5 37.40625 65.5 
C 37.296875 65.5 37.09375 65.5 36.296875 65.046875 
C 32.796875 63.40625 28.703125 62.078125 23.703125 62.078125 
C 20.703125 62.078125 16.203125 62.484375 11.296875 64.671875 
C 10.203125 65.171875 10 65.171875 9.90625 65.171875 
C 9.40625 65.171875 9.296875 65.0625 9.296875 63.078125 
L 9.296875 34.421875 
C 9.296875 32.640625 9.296875 32.140625 10.296875 32.140625 
C 10.796875 32.140625 11 32.34375 11.5 33.03125 
C 14.703125 37.515625 19.09375 39.40625 24.09375 39.40625 
C 27.59375 39.40625 35.09375 37.21875 35.09375 20.140625 
C 35.09375 16.953125 35.09375 11.171875 32.09375 6.578125 
C 29.59375 2.484375 25.703125 0.390625 21.40625 0.390625 
C 14.796875 0.390625 8.09375 5 6.296875 12.71875 
C 6.703125 12.609375 7.5 12.421875 7.90625 12.421875 
C 9.203125 12.421875 11.703125 13.125 11.703125 16.21875 
C 11.703125 18.90625 9.796875 20 7.90625 20 
C 5.59375 20 4.09375 18.59375 4.09375 15.796875 
C 4.09375 7.09375 11 -2 21.59375 -2 
C 31.90625 -2 41.703125 6.875 41.703125 19.75 
C 41.703125 31.71875 33.90625 41 24.203125 41 
C 19.09375 41 14.796875 39.109375 11.40625 35.53125 
z
" id="CMR17-53"/>
       </defs>
       <use transform="scale(0.996264)" xlink:href="#CMR17-48"/>
       <use transform="translate(45.690477 0)scale(0.996264)" xlink:href="#CMMI12-58"/>
       <use transform="translate(72.787654 0)scale(0.996264)" xlink:href="#CMR17-48"/>
       <use transform="translate(118.478131 0)scale(0.996264)" xlink:href="#CMR17-53"/>
      </g>
     </g>
    </g>
    <g id="xtick_3">
     <g id="line2d_5">
      <path clip-path="url(#p03fde28053)" d="M 389.785153 237.08419 
L 389.785153 15.12 
" style="fill:none;stroke:#b0b0b0;stroke-linecap:square;stroke-width:0.2;"/>
     </g>
     <g id="line2d_6">
      <g>
       <use style="stroke:#000000;stroke-width:0.8;" x="389.785153" xlink:href="#m0e05b7208a" y="237.08419"/>
      </g>
     </g>
     <g id="text_3">
      <!-- $\mathdefault{0.10}$ -->
      <g transform="translate(377.645618 253.770067)scale(0.14 -0.14)">
       <defs>
        <path d="M 26.59375 63.40625 
C 26.59375 65.5 26.5 65.5 25.09375 65.5 
C 21.203125 61.1875 15.296875 59.796875 9.703125 59.796875 
C 9.40625 59.796875 8.90625 59.796875 8.796875 59.5 
C 8.703125 59.296875 8.703125 59.09375 8.703125 57 
C 11.796875 57 17 57.59375 21 59.984375 
L 21 7.203125 
C 21 3.6875 20.796875 2.5 12.203125 2.5 
L 9.203125 2.5 
L 9.203125 0 
C 14 0 19 0 23.796875 0 
C 28.59375 0 33.59375 0 38.40625 0 
L 38.40625 2.5 
L 35.40625 2.5 
C 26.796875 2.5 26.59375 3.59375 26.59375 7.15625 
z
" id="CMR17-49"/>
       </defs>
       <use transform="scale(0.996264)" xlink:href="#CMR17-48"/>
       <use transform="translate(45.690477 0)scale(0.996264)" xlink:href="#CMMI12-58"/>
       <use transform="translate(72.787654 0)scale(0.996264)" xlink:href="#CMR17-49"/>
       <use transform="translate(118.478131 0)scale(0.996264)" xlink:href="#CMR17-48"/>
      </g>
     </g>
    </g>
    <g id="xtick_4">
     <g id="line2d_7">
      <path clip-path="url(#p03fde28053)" d="M 455.924756 237.08419 
L 455.924756 15.12 
" style="fill:none;stroke:#b0b0b0;stroke-linecap:square;stroke-width:0.2;"/>
     </g>
     <g id="line2d_8">
      <g>
       <use style="stroke:#000000;stroke-width:0.8;" x="455.924756" xlink:href="#m0e05b7208a" y="237.08419"/>
      </g>
     </g>
     <g id="text_4">
      <!-- $\mathdefault{0.15}$ -->
      <g transform="translate(443.78522 253.770067)scale(0.14 -0.14)">
       <use transform="scale(0.996264)" xlink:href="#CMR17-48"/>
       <use transform="translate(45.690477 0)scale(0.996264)" xlink:href="#CMMI12-58"/>
       <use transform="translate(72.787654 0)scale(0.996264)" xlink:href="#CMR17-49"/>
       <use transform="translate(118.478131 0)scale(0.996264)" xlink:href="#CMR17-53"/>
      </g>
     </g>
    </g>
    <g id="text_5">
     <!-- Permutation feature importance -->
     <g transform="translate(277.121138 270.167972)scale(0.14 -0.14)">
      <defs>
       <path d="M 19.796875 31.90625 
L 35.796875 31.90625 
C 48.703125 31.90625 58.09375 40.28125 58.09375 49.75 
C 58.09375 59.234375 48.90625 68 35.796875 68 
L 5.203125 68 
L 5.203125 65.40625 
C 12.09375 65.40625 13.203125 65.40625 13.203125 60.921875 
L 13.203125 6.96875 
C 13.203125 2.5 12.09375 2.5 5.203125 2.5 
L 5.203125 0 
C 8.09375 0 13.40625 0 16.5 0 
C 19.59375 0 24.90625 0 27.796875 0 
L 27.796875 2.5 
C 20.90625 2.5 19.796875 2.5 19.796875 6.96875 
z
M 19.59375 34 
L 19.59375 61.53125 
C 19.59375 64.921875 19.796875 65.40625 23.796875 65.40625 
L 33.90625 65.40625 
C 46.796875 65.40625 50.5 58.03125 50.5 49.75 
C 50.5 40.6875 46.09375 34 33.90625 34 
z
" id="CMR17-80"/>
       <path d="M 38.09375 23 
C 38.5 23.40625 38.5 23.609375 38.5 24.625 
C 38.5 34.96875 33.09375 44 21.703125 44 
C 11.09375 44 2.703125 33.890625 2.703125 21.609375 
C 2.703125 8.609375 12.203125 -1 22.796875 -1 
C 34 -1 38.40625 9.484375 38.40625 11.5625 
C 38.40625 12.25 37.796875 12.25 37.59375 12.25 
C 36.90625 12.25 36.796875 12.046875 36.40625 10.875 
C 34.203125 4.140625 28.703125 0.796875 23.5 0.796875 
C 19.203125 0.796875 14.90625 3.171875 12.203125 7.5 
C 9.09375 12.546875 9.09375 18.375 9.09375 23 
z
M 9.203125 24.5 
C 9.90625 39.140625 17.59375 42.40625 21.59375 42.40625 
C 28.40625 42.40625 33 35.890625 33.09375 24.5 
z
" id="CMR17-101"/>
       <path d="M 15 23.390625 
C 15 33 19.09375 42 26.59375 42 
C 27.296875 42 28 41.90625 28.703125 41.59375 
C 28.703125 41.59375 26.5 40.890625 26.5 38.3125 
C 26.5 35.90625 28.40625 34.90625 29.90625 34.90625 
C 31.09375 34.90625 33.296875 35.609375 33.296875 38.40625 
C 33.296875 41.609375 30.09375 43.59375 26.703125 43.59375 
C 19.09375 43.59375 15.796875 36.203125 14.796875 32.703125 
L 14.703125 32.703125 
L 14.703125 43.59375 
L 3.09375 42.5 
L 3.09375 39.90625 
C 9 39.90625 9.90625 39.296875 9.90625 34.5 
L 9.90625 6.6875 
C 9.90625 2.875 9.5 2.390625 3.09375 2.390625 
L 3.09375 -0.203125 
C 5.5 0 10.09375 0 12.703125 0 
C 15.59375 0 20.703125 0 23.40625 -0.203125 
L 23.40625 2.390625 
C 16.203125 2.390625 15 2.390625 15 6.875 
z
" id="CMR17-114"/>
       <path d="M 67.59375 30.203125 
C 67.59375 35.1875 66.703125 43.59375 54.796875 43.59375 
C 48 43.59375 43.296875 39 41.5 33.609375 
L 41.40625 33.609375 
C 40.203125 41.8125 34.296875 43.59375 28.703125 43.59375 
C 20.796875 43.59375 16.703125 37.5 15.203125 33.5 
L 15.09375 33.5 
L 15.09375 43.59375 
L 3.296875 42.5 
L 3.296875 39.90625 
C 9.203125 39.90625 10.09375 39.296875 10.09375 34.5 
L 10.09375 6.6875 
C 10.09375 2.875 9.703125 2.390625 3.296875 2.390625 
L 3.296875 -0.203125 
C 5.703125 0 10.09375 0 12.703125 0 
C 15.296875 0 19.796875 0 22.203125 -0.203125 
L 22.203125 2.390625 
C 15.796875 2.390625 15.40625 2.78125 15.40625 6.6875 
L 15.40625 25.90625 
C 15.40625 35.109375 21 42 28 42 
C 35.40625 42 36.203125 35.40625 36.203125 30.59375 
L 36.203125 6.6875 
C 36.203125 2.875 35.796875 2.390625 29.40625 2.390625 
L 29.40625 -0.203125 
C 31.796875 0 36.203125 0 38.796875 0 
C 41.40625 0 45.90625 0 48.296875 -0.203125 
L 48.296875 2.390625 
C 41.90625 2.390625 41.5 2.78125 41.5 6.6875 
L 41.5 25.90625 
C 41.5 35.109375 47.09375 42 54.09375 42 
C 61.5 42 62.296875 35.40625 62.296875 30.59375 
L 62.296875 6.6875 
C 62.296875 2.875 61.90625 2.390625 55.5 2.390625 
L 55.5 -0.203125 
C 57.90625 0 62.296875 0 64.90625 0 
C 67.5 0 72 0 74.40625 -0.203125 
L 74.40625 2.390625 
C 68 2.390625 67.59375 2.78125 67.59375 6.6875 
z
" id="CMR17-109"/>
       <path d="M 29.40625 42.078125 
L 29.40625 39.5 
C 35.296875 39.5 36.203125 38.890625 36.203125 34.15625 
L 36.203125 16.125 
C 36.203125 7.8125 31.703125 0.59375 24.296875 0.59375 
C 16.09375 0.59375 15.40625 5.4375 15.40625 10.59375 
L 15.40625 43.171875 
L 3.296875 42.078125 
L 3.296875 39.5 
C 7.296875 39.5 10 39.5 10.09375 35.53125 
L 10.09375 16.53125 
C 10.09375 9.890625 10.09375 5.640625 12.703125 2.859375 
C 14 1.578125 16.5 -1 23.703125 -1 
C 32.203125 -1 35.5 5.890625 36.296875 7.90625 
L 36.40625 7.90625 
L 36.40625 -0.984375 
L 48.296875 -0.984375 
L 48.296875 2 
C 42.40625 2 41.5 2.59375 41.5 7.390625 
L 41.5 43.171875 
z
" id="CMR17-117"/>
       <path d="M 15.09375 40 
L 29.09375 40 
L 29.09375 42.578125 
L 15.09375 42.578125 
L 15.09375 61 
L 13.296875 61 
C 13.09375 50.703125 9.59375 41.6875 1.09375 41.6875 
L 1.09375 40 
L 9.796875 40 
L 9.796875 12.046875 
C 9.796875 10.15625 9.796875 -1 21.40625 -1 
C 27.296875 -1 30.703125 4.78125 30.703125 12.140625 
L 30.703125 17.8125 
L 28.90625 17.8125 
L 28.90625 12.234375 
C 28.90625 5.375 26.203125 0.796875 22 0.796875 
C 19.09375 0.796875 15.09375 2.78125 15.09375 11.84375 
z
" id="CMR17-116"/>
       <path d="M 36 25.828125 
C 36 32.375 36 35.84375 31.796875 39.734375 
C 28.09375 43 23.796875 44 20.40625 44 
C 12.5 44 6.796875 37.609375 6.796875 30.796875 
C 6.796875 27 9.796875 27 10.40625 27 
C 11.703125 27 14 27.78125 14 30.53125 
C 14 33 12.09375 34.078125 10.40625 34.078125 
C 10 34.078125 9.5 33.96875 9.203125 33.875 
C 11.296875 40.5 16.703125 42.40625 20.203125 42.40625 
C 25.203125 42.40625 30.703125 37.953125 30.703125 29.453125 
L 30.703125 25 
C 24.796875 25 17.703125 24.203125 12.09375 21.203125 
C 5.796875 17.703125 4 12.703125 4 8.90625 
C 4 1.203125 13 -1 18.296875 -1 
C 23.796875 -1 28.90625 2.171875 31.09375 7.984375 
C 31.296875 3.640625 34.09375 -0.28125 38.5 -0.28125 
C 40.59375 -0.28125 45.90625 1.09375 45.90625 8.859375 
L 45.90625 14.375 
L 44.09375 14.375 
L 44.09375 8.78125 
C 44.09375 2.78125 41.40625 2 40.09375 2 
C 36 2 36 7.15625 36 11.53125 
z
M 30.703125 13.59375 
C 30.703125 4.953125 24.5 0.59375 19 0.59375 
C 14 0.59375 10.09375 4.296875 10.09375 8.90625 
C 10.09375 11.890625 11.40625 17.1875 17.203125 20.390625 
C 22 23.09375 27.5 23.5 30.703125 23.5 
z
" id="CMR17-97"/>
       <path d="M 15.5 61.078125 
C 15.5 63.265625 13.703125 65.15625 11.40625 65.15625 
C 9.203125 65.15625 7.296875 63.375 7.296875 61.078125 
C 7.296875 58.890625 9.09375 57 11.40625 57 
C 13.59375 57 15.5 58.796875 15.5 61.078125 
z
M 3.796875 42.28125 
L 3.796875 39.703125 
C 9.40625 39.703125 10.203125 39.09375 10.203125 34.328125 
L 10.203125 6.671875 
C 10.203125 2.875 9.796875 2.390625 3.40625 2.390625 
L 3.40625 -0.203125 
C 5.796875 0 10.09375 0 12.59375 0 
C 15 0 19.09375 0 21.40625 -0.203125 
L 21.40625 2.390625 
C 15.5 2.390625 15.296875 2.984375 15.296875 6.5625 
L 15.296875 43.375 
z
" id="CMR17-105"/>
       <path d="M 43.09375 21.1875 
C 43.09375 34 33.796875 44 22.90625 44 
C 12 44 2.703125 34 2.703125 21.1875 
C 2.703125 8.609375 12 -1 22.90625 -1 
C 33.796875 -1 43.09375 8.609375 43.09375 21.1875 
z
M 22.90625 0.796875 
C 18.203125 0.796875 14.203125 3.59375 11.90625 7.5 
C 9.40625 11.984375 9.09375 17.59375 9.09375 22 
C 9.09375 26.203125 9.296875 31.40625 11.90625 35.90625 
C 13.90625 39.203125 17.796875 42.40625 22.90625 42.40625 
C 27.40625 42.40625 31.203125 39.90625 33.59375 36.40625 
C 36.703125 31.703125 36.703125 25.109375 36.703125 22 
C 36.703125 18.09375 36.5 12.109375 33.796875 7.296875 
C 31 2.703125 26.703125 0.796875 22.90625 0.796875 
z
" id="CMR17-111"/>
       <path d="M 41.5 30.203125 
C 41.5 35.296875 40.5 43.59375 28.703125 43.59375 
C 20.796875 43.59375 16.703125 37.5 15.203125 33.5 
L 15.09375 33.5 
L 15.09375 43.59375 
L 3.296875 42.5 
L 3.296875 39.90625 
C 9.203125 39.90625 10.09375 39.296875 10.09375 34.5 
L 10.09375 6.6875 
C 10.09375 2.875 9.703125 2.390625 3.296875 2.390625 
L 3.296875 -0.203125 
C 5.703125 0 10.09375 0 12.703125 0 
C 15.296875 0 19.796875 0 22.203125 -0.203125 
L 22.203125 2.390625 
C 15.796875 2.390625 15.40625 2.78125 15.40625 6.6875 
L 15.40625 25.90625 
C 15.40625 35.109375 21 42 28 42 
C 35.40625 42 36.203125 35.40625 36.203125 30.59375 
L 36.203125 6.6875 
C 36.203125 2.875 35.796875 2.390625 29.40625 2.390625 
L 29.40625 -0.203125 
C 31.796875 0 36.203125 0 38.796875 0 
C 41.40625 0 45.90625 0 48.296875 -0.203125 
L 48.296875 2.390625 
C 41.90625 2.390625 41.5 2.78125 41.5 6.6875 
z
" id="CMR17-110"/>
       <path d="M 15.296875 40 
L 26.703125 40 
L 26.703125 42.578125 
L 15.09375 42.578125 
L 15.09375 54.59375 
C 15.09375 62.84375 19.296875 68 23.59375 68 
C 24.90625 68 26.40625 67.609375 27.40625 66.90625 
C 26.59375 66.703125 24.5 66.015625 24.5 63.546875 
C 24.5 60.953125 26.5 60.15625 27.90625 60.15625 
C 29.296875 60.15625 31.296875 60.953125 31.296875 63.546875 
C 31.296875 67.3125 27.703125 69.59375 23.703125 69.59375 
C 18 69.59375 10.203125 64.9375 10.203125 54.390625 
L 10.203125 42.578125 
L 2.203125 42.578125 
L 2.203125 40 
L 10.203125 40 
L 10.203125 6.671875 
C 10.203125 2.875 9.796875 2.390625 3.40625 2.390625 
L 3.40625 -0.203125 
C 5.796875 0 10.40625 0 13 0 
C 15.90625 0 21 0 23.703125 -0.203125 
L 23.703125 2.390625 
C 16.5 2.390625 15.296875 2.390625 15.296875 6.859375 
z
" id="CMR17-102"/>
       <path d="M 22 -16.609375 
C 15.59375 -16.609375 15.203125 -16.203125 15.203125 -12.328125 
L 15.203125 6.28125 
C 18.09375 2.09375 22.296875 -0.59375 27.59375 -0.59375 
C 37.59375 -0.59375 47.703125 8.171875 47.703125 21.6875 
C 47.703125 34.234375 39 43.78125 28.703125 43.78125 
C 22.703125 43.78125 17.796875 40.5 15 36.53125 
L 15 43.78125 
L 3.09375 42.6875 
L 3.09375 40.109375 
C 9 40.109375 9.90625 39.5 9.90625 34.734375 
L 9.90625 -12.328125 
C 9.90625 -16.109375 9.5 -16.609375 3.09375 -16.609375 
L 3.09375 -19.1875 
C 5.5 -19 9.90625 -19 12.5 -19 
C 15.09375 -19 19.59375 -19 22 -19.1875 
z
M 15.203125 31.4375 
C 15.203125 32.84375 15.203125 34.921875 19.09375 38.609375 
C 19.59375 39.015625 23 42 28 42 
C 35.296875 42 41.296875 32.9375 41.296875 21.59375 
C 41.296875 10.25 34.90625 1 27 1 
C 23.40625 1 19.5 2.6875 16.5 7.375 
C 15.203125 9.5625 15.203125 10.15625 15.203125 11.75 
z
" id="CMR17-112"/>
       <path d="M 34.90625 35 
C 33 35 30.203125 35 30.203125 31.515625 
C 30.203125 28.71875 32.5 27.921875 33.796875 27.921875 
C 34.5 27.921875 37.40625 28.234375 37.40625 31.625 
C 37.40625 38.546875 30.59375 43.796875 22.90625 43.796875 
C 12.296875 43.796875 3.296875 34.03125 3.296875 21.296875 
C 3.296875 8.0625 12.703125 -1 22.90625 -1 
C 35.296875 -1 38.40625 10.578125 38.40625 11.6875 
C 38.40625 12.09375 38.296875 12.390625 37.59375 12.390625 
C 36.90625 12.390625 36.796875 12.296875 36.40625 10.984375 
C 33.796875 2.8125 28.09375 0.796875 23.796875 0.796875 
C 17.40625 0.796875 9.703125 6.671875 9.703125 21.390625 
C 9.703125 36.53125 17.09375 42 23 42 
C 26.90625 42 32.703125 40.203125 34.90625 35 
z
" id="CMR17-99"/>
      </defs>
      <use transform="scale(0.996264)" xlink:href="#CMR17-80"/>
      <use transform="translate(59.983847 0)scale(0.996264)" xlink:href="#CMR17-101"/>
      <use transform="translate(100.469507 0)scale(0.996264)" xlink:href="#CMR17-114"/>
      <use transform="translate(135.750275 0)scale(0.996264)" xlink:href="#CMR17-109"/>
      <use transform="translate(210.067411 0)scale(0.996264)" xlink:href="#CMR17-117"/>
      <use transform="translate(260.962781 0)scale(0.996264)" xlink:href="#CMR17-116"/>
      <use transform="translate(296.243548 0)scale(0.996264)" xlink:href="#CMR17-97"/>
      <use transform="translate(341.934025 0)scale(0.996264)" xlink:href="#CMR17-116"/>
      <use transform="translate(377.214793 0)scale(0.996264)" xlink:href="#CMR17-105"/>
      <use transform="translate(402.085852 0)scale(0.996264)" xlink:href="#CMR17-111"/>
      <use transform="translate(447.776329 0)scale(0.996264)" xlink:href="#CMR17-110"/>
      <use transform="translate(528.747665 0)scale(0.996264)" xlink:href="#CMR17-102"/>
      <use transform="translate(556.221177 0)scale(0.996264)" xlink:href="#CMR17-101"/>
      <use transform="translate(596.706838 0)scale(0.996264)" xlink:href="#CMR17-97"/>
      <use transform="translate(642.397315 0)scale(0.996264)" xlink:href="#CMR17-116"/>
      <use transform="translate(677.678083 0)scale(0.996264)" xlink:href="#CMR17-117"/>
      <use transform="translate(728.573453 0)scale(0.996264)" xlink:href="#CMR17-114"/>
      <use transform="translate(763.85422 0)scale(0.996264)" xlink:href="#CMR17-101"/>
      <use transform="translate(834.415847 0)scale(0.996264)" xlink:href="#CMR17-105"/>
      <use transform="translate(859.286906 0)scale(0.996264)" xlink:href="#CMR17-109"/>
      <use transform="translate(936.206496 0)scale(0.996264)" xlink:href="#CMR17-112"/>
      <use transform="translate(989.704304 0)scale(0.996264)" xlink:href="#CMR17-111"/>
      <use transform="translate(1035.394781 0)scale(0.996264)" xlink:href="#CMR17-114"/>
      <use transform="translate(1070.675549 0)scale(0.996264)" xlink:href="#CMR17-116"/>
      <use transform="translate(1105.956317 0)scale(0.996264)" xlink:href="#CMR17-97"/>
      <use transform="translate(1151.646794 0)scale(0.996264)" xlink:href="#CMR17-110"/>
      <use transform="translate(1202.542164 0)scale(0.996264)" xlink:href="#CMR17-99"/>
      <use transform="translate(1243.027824 0)scale(0.996264)" xlink:href="#CMR17-101"/>
     </g>
    </g>
   </g>
   <g id="matplotlib.axis_2">
    <g id="ytick_1">
     <g id="line2d_9">
      <defs>
       <path d="M 0 0 
L -3.5 0 
" id="mfc58d3abb0" style="stroke:#000000;stroke-width:0.8;"/>
      </defs>
      <g>
       <use style="stroke:#000000;stroke-width:0.8;" x="257.505949" xlink:href="#mfc58d3abb0" y="23.047293"/>
      </g>
     </g>
     <g id="text_6">
      <!-- Relative Peak-to-peak Stress -->
      <g transform="translate(79.267448 27.890231)scale(0.14 -0.14)">
       <defs>
        <path d="M 39.203125 33.53125 
C 48.703125 35.4375 56.703125 41.8125 56.703125 49.78125 
C 56.703125 59.140625 46.09375 67.59375 32.09375 67.59375 
L 5.203125 67.59375 
L 5.203125 65 
C 12.09375 65 13.203125 65 13.203125 60.515625 
L 13.203125 6.484375 
C 13.203125 2 12.09375 2 5.203125 2 
L 5.203125 -0.40625 
C 8.09375 -0.40625 13.296875 -0.40625 16.40625 -0.40625 
C 19.5 -0.40625 24.703125 -0.40625 27.59375 -0.40625 
L 27.59375 2 
C 20.703125 2 19.59375 2 19.59375 6.515625 
L 19.59375 33 
L 31.296875 33 
C 37 33 40.203125 30.6875 41.59375 29.390625 
C 45.59375 25.5 45.59375 22.796875 45.59375 16 
C 45.59375 9.296875 45.59375 5.890625 48.59375 2.5 
C 52.40625 -1.59375 57.5 -2 59.703125 -2 
C 67.09375 -2 68.203125 6.1875 68.203125 7.859375 
C 68.203125 8.4375 68.203125 9.140625 67.296875 9.140625 
C 66.5 9.140625 66.40625 8.546875 66.40625 8.15625 
C 65.90625 1.75 63 -0.40625 59.90625 -0.40625 
C 54.40625 -0.40625 53.796875 5.859375 53.203125 11.9375 
C 52.90625 14.03125 52.703125 15.515625 52.5 17.703125 
C 51.90625 22.6875 51.09375 29.953125 39.203125 33.53125 
z
M 31 34.59375 
L 19.59375 34.59375 
L 19.59375 61.140625 
C 19.59375 64.515625 19.796875 65 23.796875 65 
L 31.09375 65 
C 39.40625 65 49.09375 62.140625 49.09375 49.84375 
C 49.09375 37.0625 38.5 34.59375 31 34.59375 
z
" id="CMR17-82"/>
        <path d="M 15.296875 68.6875 
L 3.40625 67.59375 
L 3.40625 65 
C 9.296875 65 10.203125 64.40625 10.203125 59.640625 
L 10.203125 6.65625 
C 10.203125 2.875 9.796875 2.390625 3.40625 2.390625 
L 3.40625 -0.203125 
C 5.796875 0 10.203125 0 12.703125 0 
C 15.296875 0 19.703125 0 22.09375 -0.203125 
L 22.09375 2.390625 
C 15.703125 2.390625 15.296875 2.78125 15.296875 6.65625 
z
" id="CMR17-108"/>
        <path d="M 39.09375 33.796875 
C 40 36 41.59375 40 47.40625 40 
L 47.40625 42.59375 
C 45.5 42.59375 43 42.59375 41.09375 42.59375 
C 39 42.59375 35.703125 42.59375 33.703125 42.6875 
L 33.703125 40.09375 
C 36.203125 39.890625 37.59375 38.703125 37.59375 36.109375 
C 37.59375 35.203125 37.59375 35 37 33.609375 
L 26 5.890625 
L 14.09375 35.71875 
C 13.5 37.015625 13.5 37.203125 13.5 37.609375 
C 13.5 40 16.796875 40 18.296875 40 
L 18.296875 42.6875 
C 15.90625 42.59375 11.5 42.59375 9 42.59375 
C 6.296875 42.59375 3.203125 42.59375 1 42.6875 
L 1 40 
C 4.796875 40 6.90625 40 8.09375 36.90625 
L 22.59375 0.6875 
C 23.203125 -0.796875 23.296875 -1 24.203125 -1 
C 25.09375 -1 25.203125 -0.796875 25.796875 0.6875 
z
" id="CMR17-118"/>
        <path d="M 26.09375 26.140625 
C 26 26.34375 25.5 26.9375 25.5 27.234375 
C 25.5 27.4375 32.59375 33.921875 33.5 34.71875 
C 39.203125 39.5 42.796875 40 45.40625 40 
L 45.40625 42.703125 
C 44.796875 42.703125 44.59375 42.703125 44.5 42.5 
L 39.59375 42.5 
C 36.796875 42.5 32.5 42.5 29.796875 42.703125 
L 29.796875 40.09375 
C 31.203125 39.984375 32.203125 39.1875 32.203125 37.796875 
C 32.203125 35.796875 30.203125 33.90625 30.09375 33.90625 
L 15 20.140625 
L 15 68.6875 
L 3.09375 67.59375 
L 3.09375 65 
C 9 65 9.90625 64.40625 9.90625 59.640625 
L 9.90625 6.65625 
C 9.90625 2.875 9.5 2.390625 3.09375 2.390625 
L 3.09375 -0.203125 
C 5.5 0 9.90625 0 12.40625 0 
C 14.90625 0 19.296875 0 21.703125 -0.203125 
L 21.703125 2.390625 
C 15.296875 2.390625 14.90625 2.78125 14.90625 6.6875 
L 14.90625 17.65625 
L 21.796875 23.9375 
L 31.90625 8.96875 
C 33.09375 7.171875 34.09375 5.765625 34.09375 4.46875 
C 34.09375 2.6875 32.296875 2.390625 31.09375 2.390625 
L 31.09375 -0.203125 
C 33.5 0 37.796875 0 40.296875 0 
C 42.09375 0 45.796875 0 47.5 0 
L 47.5 2.390625 
C 42.796875 2.390625 41.703125 3.28125 38.703125 7.671875 
z
" id="CMR17-107"/>
        <path d="M 25.5 19 
L 25.5 23.375 
L 0.40625 23.375 
L 0.40625 19 
z
" id="CMR17-45"/>
        <path d="M 43.796875 67.03125 
C 43.796875 68.8125 43.703125 68.921875 43.09375 68.921875 
C 42.5 68.921875 42.296875 68.515625 41.90625 67.625 
L 38.90625 61.046875 
C 35.09375 66.515625 29.296875 69 23 69 
C 12.796875 69 4.59375 60.953125 4.59375 50.828125 
C 4.59375 47.75 5.296875 43.375 8.703125 39.21875 
C 12.40625 34.65625 15.90625 33.859375 23.90625 31.765625 
C 26.90625 30.96875 31.90625 29.671875 32.90625 29.28125 
C 38.59375 26.90625 41.59375 20.953125 41.59375 15.390625 
C 41.59375 8.234375 36.5 0.59375 27.796875 0.59375 
C 17.09375 0.59375 7.09375 6.546875 6.40625 20.484375 
C 6.296875 22.078125 6.203125 22.171875 5.5 22.171875 
C 4.703125 22.171875 4.59375 22.078125 4.59375 20.078125 
L 4.59375 -0.015625 
C 4.59375 -1.796875 4.703125 -1.90625 5.296875 -1.90625 
C 6 -1.90625 6.203125 -1.40625 7.59375 1.6875 
C 7.703125 1.984375 7.703125 2.1875 9.59375 5.953125 
C 14.59375 -0.609375 23 -2 27.796875 -2 
C 38.703125 -2 46.40625 7.046875 46.40625 17.5625 
C 46.40625 22.71875 44.5 26.6875 43.40625 28.484375 
C 39.203125 34.84375 34.703125 36.03125 29.90625 37.21875 
C 29.203125 37.53125 29 37.53125 23.40625 38.90625 
C 18 40.296875 15.703125 41 13.203125 43.6875 
C 10.40625 46.75 9.40625 49.9375 9.40625 53.109375 
C 9.40625 59.5625 14.59375 66.609375 23.09375 66.609375 
C 33.703125 66.609375 40.296875 59.15625 41.796875 46.765625 
C 42.09375 44.96875 42.203125 44.875 42.90625 44.875 
C 43.796875 44.875 43.796875 45.171875 43.796875 46.859375 
z
" id="CMR17-83"/>
        <path d="M 30.90625 42.140625 
C 30.90625 43.953125 30.796875 44.046875 30.203125 44.046875 
C 29.796875 44.046875 29.703125 43.953125 28.5 42.453125 
C 28.203125 42.046875 27.296875 41.03125 27 40.640625 
C 23.796875 44.046875 19.296875 44.046875 17.59375 44.046875 
C 6.5 44.046875 2.5 38.234375 2.5 32.4375 
C 2.5 23.40625 12.703125 21.328125 15.59375 20.703125 
C 21.90625 19.421875 24.09375 19.015625 26.203125 17.203125 
C 27.5 16.015625 29.703125 13.8125 29.703125 10.21875 
C 29.703125 6 27.296875 0.59375 18.09375 0.59375 
C 9.40625 0.59375 6.296875 7.1875 4.5 15.953125 
C 4.203125 17.34375 4.203125 17.453125 3.40625 17.453125 
C 2.59375 17.453125 2.5 17.34375 2.5 15.359375 
L 2.5 0.984375 
C 2.5 -0.796875 2.59375 -0.90625 3.203125 -0.90625 
C 3.703125 -0.90625 3.796875 -0.796875 4.296875 0 
C 4.90625 0.890625 6.40625 3.296875 7 4.3125 
C 9 1.609375 12.5 -1 18.09375 -1 
C 28 -1 33.296875 4.421875 33.296875 12.25 
C 33.296875 17.375 30.59375 20.078125 29.296875 21.28125 
C 26.296875 24.390625 22.796875 25.09375 18.59375 25.890625 
C 13.09375 27.109375 6.09375 28.515625 6.09375 34.640625 
C 6.09375 37.234375 7.5 42.765625 17.59375 42.765625 
C 28.296875 42.765625 28.90625 32.71875 29.09375 29.5 
C 29.203125 29 29.703125 28.890625 30 28.890625 
C 30.90625 28.890625 30.90625 29.203125 30.90625 30.90625 
z
" id="CMR17-115"/>
       </defs>
       <use transform="scale(0.996264)" xlink:href="#CMR17-82"/>
       <use transform="translate(67.791102 0)scale(0.996264)" xlink:href="#CMR17-101"/>
       <use transform="translate(108.276762 0)scale(0.996264)" xlink:href="#CMR17-108"/>
       <use transform="translate(133.147821 0)scale(0.996264)" xlink:href="#CMR17-97"/>
       <use transform="translate(178.838298 0)scale(0.996264)" xlink:href="#CMR17-116"/>
       <use transform="translate(214.119066 0)scale(0.996264)" xlink:href="#CMR17-105"/>
       <use transform="translate(238.990124 0)scale(0.996264)" xlink:href="#CMR17-118"/>
       <use transform="translate(284.680586 0)scale(0.996264)" xlink:href="#CMR17-101"/>
       <use transform="translate(355.242213 0)scale(0.996264)" xlink:href="#CMR17-80"/>
       <use transform="translate(415.22606 0)scale(0.996264)" xlink:href="#CMR17-101"/>
       <use transform="translate(455.71172 0)scale(0.996264)" xlink:href="#CMR17-97"/>
       <use transform="translate(501.402197 0)scale(0.996264)" xlink:href="#CMR17-107"/>
       <use transform="translate(549.695113 0)scale(0.996264)" xlink:href="#CMR17-45"/>
       <use transform="translate(579.771079 0)scale(0.996264)" xlink:href="#CMR17-116"/>
       <use transform="translate(615.051847 0)scale(0.996264)" xlink:href="#CMR17-111"/>
       <use transform="translate(660.742324 0)scale(0.996264)" xlink:href="#CMR17-45"/>
       <use transform="translate(690.818291 0)scale(0.996264)" xlink:href="#CMR17-112"/>
       <use transform="translate(744.316099 0)scale(0.996264)" xlink:href="#CMR17-101"/>
       <use transform="translate(784.80176 0)scale(0.996264)" xlink:href="#CMR17-97"/>
       <use transform="translate(830.492237 0)scale(0.996264)" xlink:href="#CMR17-107"/>
       <use transform="translate(908.861119 0)scale(0.996264)" xlink:href="#CMR17-83"/>
       <use transform="translate(959.756489 0)scale(0.996264)" xlink:href="#CMR17-116"/>
       <use transform="translate(995.037257 0)scale(0.996264)" xlink:href="#CMR17-114"/>
       <use transform="translate(1030.318024 0)scale(0.996264)" xlink:href="#CMR17-101"/>
       <use transform="translate(1070.803685 0)scale(0.996264)" xlink:href="#CMR17-115"/>
       <use transform="translate(1106.605022 0)scale(0.996264)" xlink:href="#CMR17-115"/>
      </g>
     </g>
    </g>
    <g id="ytick_2">
     <g id="line2d_10">
      <g>
       <use style="stroke:#000000;stroke-width:0.8;" x="257.505949" xlink:href="#mfc58d3abb0" y="38.901878"/>
      </g>
     </g>
     <g id="text_7">
      <!-- Absolute Maximum Stress -->
      <g transform="translate(93.232763 43.744816)scale(0.14 -0.14)">
       <defs>
        <path d="M 36.296875 68.40625 
C 35.796875 69.703125 35.59375 70 34.59375 70 
C 33.59375 70 33.40625 69.703125 32.90625 68.40625 
L 11.703125 8.84375 
C 9.796875 3.484375 5.796875 2.390625 2.296875 2.390625 
L 2.296875 -0.203125 
C 4.09375 0 8.09375 0 10 0 
C 12.5 0 16.5 0 18.90625 -0.203125 
L 18.90625 2.390625 
C 14.203125 2.390625 13.5 5.640625 13.5 6.859375 
C 13.5 7.765625 13.703125 8.28125 13.90625 8.890625 
L 19.203125 24 
L 45.40625 24 
L 51.40625 6.90625 
C 51.90625 5.703125 51.90625 5.5 51.90625 5.109375 
C 51.90625 2.390625 47.59375 2.390625 45.703125 2.390625 
L 45.703125 0 
C 48.59375 0 53.796875 0 56.90625 0 
C 59.5 0 64.5 0 66.90625 -0.203125 
L 66.90625 2.390625 
C 61.59375 2.390625 59.796875 2.390625 58.5 6.046875 
z
M 32.296875 60.828125 
L 44.5 26.59375 
L 20.09375 26.59375 
z
" id="CMR17-65"/>
        <path d="M 15 68.6875 
L 3.09375 67.59375 
L 3.09375 65 
C 9 65 9.90625 64.40625 9.90625 59.640625 
L 9.90625 -0.203125 
L 11.703125 -0.203125 
L 14.59375 6.890625 
C 17.5 2.203125 21.796875 -1 27.59375 -1 
C 37.59375 -1 47.703125 7.8125 47.703125 21.40625 
C 47.703125 34.1875 38.703125 43.59375 28.59375 43.59375 
C 22.40625 43.59375 18 40.296875 15 36.40625 
z
M 15.203125 31.3125 
C 15.203125 33.09375 15.203125 33.40625 16.59375 35.5 
C 20.5 41.515625 26.09375 42 28 42 
C 31 42 41.296875 40.390625 41.296875 21.5 
C 41.296875 1.6875 29.5 0.59375 27.09375 0.59375 
C 24 0.59375 19.5 1.78125 16.296875 7.59375 
C 15.203125 9.5 15.203125 9.703125 15.203125 11.484375 
z
" id="CMR17-98"/>
        <path d="M 20.90625 66 
C 20.296875 67.5 20.203125 67.5 18.09375 67.5 
L 5.296875 67.5 
L 5.296875 65 
C 12.203125 65 13.296875 65 13.296875 60.546875 
L 13.296875 9.53125 
C 13.296875 7.046875 13.296875 2.390625 5.296875 2.390625 
L 5.296875 -0.203125 
C 7.59375 0 11.796875 0 14.296875 0 
C 16.796875 0 21 0 23.296875 -0.203125 
L 23.296875 2.390625 
C 15.296875 2.390625 15.296875 7.046875 15.296875 9.53125 
L 15.296875 64.609375 
L 15.40625 64.609375 
L 38.90625 1.390625 
C 39.296875 0.390625 39.5 -0.203125 40.296875 -0.203125 
C 41.09375 -0.203125 41.296875 0.390625 41.703125 1.390625 
L 65.40625 65.09375 
L 65.5 65.09375 
L 65.5 6.84375 
C 65.5 2.390625 64.40625 2.390625 57.5 2.390625 
L 57.5 -0.203125 
C 60.203125 0 65.59375 0 68.5 0 
C 71.40625 0 76.90625 0 79.59375 -0.203125 
L 79.59375 2.390625 
C 72.703125 2.390625 71.59375 2.390625 71.59375 6.84375 
L 71.59375 60.546875 
C 71.59375 65 72.703125 65 79.59375 65 
L 79.59375 67.5 
L 66.90625 67.5 
C 64.796875 67.5 64.703125 67.40625 64.09375 65.90625 
L 42.5 7.84375 
z
" id="CMR17-77"/>
        <path d="M 26 23.078125 
C 29 26.96875 32.40625 31.34375 35.203125 34.625 
C 38.5 38.40625 42.296875 40 46.703125 40 
L 46.703125 42.59375 
C 45 42.59375 41.5 42.59375 39.703125 42.59375 
C 37 42.59375 33.90625 42.59375 31.59375 42.6875 
L 31.59375 40.09375 
C 33 39.890625 33.796875 38.890625 33.796875 37.5 
C 33.796875 35.703125 32.796875 34.609375 32.296875 33.921875 
L 24.90625 24.578125 
L 16.09375 36.03125 
C 15.203125 37.125 15.203125 37.3125 15.203125 37.8125 
C 15.203125 39.015625 16.203125 40 17.90625 40 
L 17.90625 42.6875 
C 15.5 42.59375 11.203125 42.59375 8.703125 42.59375 
C 6 42.59375 2.796875 42.59375 0.59375 42.6875 
L 0.59375 40 
C 6 40 7.203125 39.59375 9.59375 36.609375 
L 21.09375 21.796875 
C 21.296875 21.59375 21.796875 21 21.796875 20.703125 
C 21.796875 20.296875 13.09375 9.671875 12 8.28125 
C 7.5 2.890625 2.796875 2.5 0.09375 2.5 
L 0.09375 0 
C 1.796875 0 5.296875 0 7.09375 0 
C 9.09375 0 13.5 0 15.296875 -0.09375 
L 15.296875 2.5 
C 14.703125 2.59375 13.09375 2.796875 13.09375 5.078125 
C 13.09375 6.875 13.90625 7.96875 14.796875 9.15625 
L 23.09375 19.3125 
L 31.796875 8 
C 32.59375 6.90625 33.796875 5.40625 33.796875 4.703125 
C 33.796875 3.296875 32.59375 2.5 31 2.5 
L 31 -0.09375 
C 33.40625 0 37.703125 0 40.203125 0 
C 42.90625 0 46.09375 0 48.296875 -0.09375 
L 48.296875 2.5 
C 43.296875 2.5 41.796875 2.6875 39.40625 5.78125 
z
" id="CMR17-120"/>
       </defs>
       <use transform="scale(0.996264)" xlink:href="#CMR17-65"/>
       <use transform="translate(69.07243 0)scale(0.996264)" xlink:href="#CMR17-98"/>
       <use transform="translate(119.9678 0)scale(0.996264)" xlink:href="#CMR17-115"/>
       <use transform="translate(155.769137 0)scale(0.996264)" xlink:href="#CMR17-111"/>
       <use transform="translate(201.459614 0)scale(0.996264)" xlink:href="#CMR17-108"/>
       <use transform="translate(226.330673 0)scale(0.996264)" xlink:href="#CMR17-117"/>
       <use transform="translate(277.226043 0)scale(0.996264)" xlink:href="#CMR17-116"/>
       <use transform="translate(312.50681 0)scale(0.996264)" xlink:href="#CMR17-101"/>
       <use transform="translate(383.068437 0)scale(0.996264)" xlink:href="#CMR17-77"/>
       <use transform="translate(467.755378 0)scale(0.996264)" xlink:href="#CMR17-97"/>
       <use transform="translate(513.445855 0)scale(0.996264)" xlink:href="#CMR17-120"/>
       <use transform="translate(561.738771 0)scale(0.996264)" xlink:href="#CMR17-105"/>
       <use transform="translate(586.609829 0)scale(0.996264)" xlink:href="#CMR17-109"/>
       <use transform="translate(660.926965 0)scale(0.996264)" xlink:href="#CMR17-117"/>
       <use transform="translate(711.822335 0)scale(0.996264)" xlink:href="#CMR17-109"/>
       <use transform="translate(818.817891 0)scale(0.996264)" xlink:href="#CMR17-83"/>
       <use transform="translate(869.713261 0)scale(0.996264)" xlink:href="#CMR17-116"/>
       <use transform="translate(904.994029 0)scale(0.996264)" xlink:href="#CMR17-114"/>
       <use transform="translate(940.274797 0)scale(0.996264)" xlink:href="#CMR17-101"/>
       <use transform="translate(980.760457 0)scale(0.996264)" xlink:href="#CMR17-115"/>
       <use transform="translate(1016.561795 0)scale(0.996264)" xlink:href="#CMR17-115"/>
      </g>
     </g>
    </g>
    <g id="ytick_3">
     <g id="line2d_11">
      <g>
       <use style="stroke:#000000;stroke-width:0.8;" x="257.505949" xlink:href="#mfc58d3abb0" y="54.756463"/>
      </g>
     </g>
     <g id="text_8">
      <!-- Percentage of Fibre in 0-deg Direction -->
      <g transform="translate(21.948489 59.599401)scale(0.14 -0.14)">
       <defs>
        <path d="M 11.09375 18.1875 
C 13 16.6875 16.296875 15 20.296875 15 
C 28.203125 15 35 21.203125 35 29.5 
C 35 32.09375 34.203125 36.09375 31.203125 39.203125 
C 34 42.0625 38.09375 43 40.40625 43 
C 40.796875 43 41.40625 43 41.90625 42.71875 
C 41.5 42.625 40.59375 42.234375 40.59375 40.703125 
C 40.59375 39.484375 41.5 38.609375 42.796875 38.609375 
C 44.296875 38.609375 45.09375 39.578125 45.09375 40.84375 
C 45.09375 42.671875 43.59375 44.59375 40.40625 44.59375 
C 36.40625 44.59375 32.90625 42.78125 30.09375 40.3125 
C 27.09375 43.015625 23.5 44 20.296875 44 
C 12.40625 44 5.59375 37.796875 5.59375 29.5 
C 5.59375 23.78125 8.90625 20.1875 9.90625 19.1875 
C 6.90625 15.6875 6.90625 11.609375 6.90625 11.109375 
C 6.90625 8.515625 7.90625 4.71875 11.296875 2.625 
C 6.09375 1.328125 2 -2.640625 2 -7.59375 
C 2 -14.734375 11.5 -20 22.90625 -20 
C 33.90625 -20 43.796875 -14.9375 43.796875 -7.484375 
C 43.796875 6 29 6 21.296875 6 
C 19 6 14.90625 6 14.40625 6.109375 
C 11.296875 6.609375 9.203125 9.40625 9.203125 12.90625 
C 9.203125 13.796875 9.203125 16 11.09375 18.1875 
z
M 20.296875 16.6875 
C 11.5 16.6875 11.5 27.5 11.5 29.515625 
C 11.5 31.5 11.5 42.3125 20.296875 42.3125 
C 29.09375 42.3125 29.09375 31.5 29.09375 29.515625 
C 29.09375 27.5 29.09375 16.6875 20.296875 16.6875 
z
M 22.90625 -18.296875 
C 12.90625 -18.296875 6 -13.046875 6 -7.59375 
C 6 -4.515625 7.703125 -1.640625 9.90625 -0.0625 
C 12.40625 1.625 13.40625 1.625 20.203125 1.625 
C 28.40625 1.625 39.796875 1.625 39.796875 -7.59375 
C 39.796875 -13.046875 32.90625 -18.296875 22.90625 -18.296875 
z
" id="CMR17-103"/>
        <path d="M 54.40625 67.578125 
L 5.09375 67.578125 
L 5.09375 65 
C 12 65 13.09375 65 13.09375 60.53125 
L 13.09375 6.96875 
C 13.09375 2.5 12 2.5 5.09375 2.5 
L 5.09375 0 
C 8 0 13.59375 0 16.703125 0 
C 20.796875 0 25.59375 0 29.703125 0 
L 29.703125 2.5 
L 27.5 2.5 
C 19.90625 2.5 19.703125 3.484375 19.703125 7.0625 
L 19.703125 32.421875 
L 28.703125 32.421875 
C 38 32.421875 38.90625 29.140625 38.90625 20.8125 
L 40.703125 20.8125 
L 40.703125 46.671875 
L 38.90625 46.671875 
C 38.90625 38.28125 38 35 28.703125 35 
L 19.703125 35 
L 19.703125 61.109375 
C 19.703125 64.5 19.90625 65 23.90625 65 
L 36.796875 65 
C 51.90625 65 53.59375 58.828125 55 45.5625 
L 56.796875 45.5625 
z
" id="CMR17-70"/>
        <path d="M 29.203125 67.59375 
L 29.203125 65 
C 35.09375 65 36 64.40625 36 59.6875 
L 36 36.640625 
C 35.59375 37.140625 31.5 43.59375 23.40625 43.59375 
C 13.203125 43.59375 3.296875 34.5 3.296875 21.3125 
C 3.296875 8.203125 12.59375 -1 22.40625 -1 
C 30.90625 -1 35.296875 5.265625 35.796875 5.9375 
L 35.796875 -0.984375 
L 47.90625 -0.984375 
L 47.90625 2 
C 42 2 41.09375 2.59375 41.09375 7.390625 
L 41.09375 68.6875 
z
M 35.796875 11.796875 
C 35.796875 8.796875 34 6.09375 31.703125 4.09375 
C 28.296875 1.09375 24.90625 0.59375 23 0.59375 
C 20.09375 0.59375 9.703125 2.09375 9.703125 21.1875 
C 9.703125 40.8125 21.296875 42 23.90625 42 
C 28.5 42 32.203125 39.40625 34.5 35.796875 
C 35.796875 33.703125 35.796875 33.40625 35.796875 31.609375 
z
" id="CMR17-100"/>
        <path d="M 5.203125 68 
L 5.203125 65.40625 
C 12.09375 65.40625 13.203125 65.40625 13.203125 60.9375 
L 13.203125 7.0625 
C 13.203125 2.59375 12.09375 2.59375 5.203125 2.59375 
L 5.203125 0 
L 37 0 
C 53.09375 0 66 14.734375 66 33.453125 
C 66 52.28125 53.296875 68 37 68 
z
M 23.796875 2.59375 
C 19.796875 2.59375 19.59375 3.078125 19.59375 6.46875 
L 19.59375 61.53125 
C 19.59375 64.921875 19.796875 65.40625 23.796875 65.40625 
L 35 65.40625 
C 43.296875 65.40625 58.59375 60.53125 58.59375 33.453125 
C 58.59375 19.40625 54.5 13.734375 52.59375 11.046875 
C 50.203125 7.96875 44.5 2.59375 35 2.59375 
z
" id="CMR17-68"/>
       </defs>
       <use transform="scale(0.996264)" xlink:href="#CMR17-80"/>
       <use transform="translate(59.983847 0)scale(0.996264)" xlink:href="#CMR17-101"/>
       <use transform="translate(100.469507 0)scale(0.996264)" xlink:href="#CMR17-114"/>
       <use transform="translate(135.750275 0)scale(0.996264)" xlink:href="#CMR17-99"/>
       <use transform="translate(176.235935 0)scale(0.996264)" xlink:href="#CMR17-101"/>
       <use transform="translate(216.721596 0)scale(0.996264)" xlink:href="#CMR17-110"/>
       <use transform="translate(265.014512 0)scale(0.996264)" xlink:href="#CMR17-116"/>
       <use transform="translate(300.295279 0)scale(0.996264)" xlink:href="#CMR17-97"/>
       <use transform="translate(345.985757 0)scale(0.996264)" xlink:href="#CMR17-103"/>
       <use transform="translate(391.676234 0)scale(0.996264)" xlink:href="#CMR17-101"/>
       <use transform="translate(462.23786 0)scale(0.996264)" xlink:href="#CMR17-111"/>
       <use transform="translate(507.928338 0)scale(0.996264)" xlink:href="#CMR17-102"/>
       <use transform="translate(565.477816 0)scale(0.996264)" xlink:href="#CMR17-70"/>
       <use transform="translate(625.461663 0)scale(0.996264)" xlink:href="#CMR17-105"/>
       <use transform="translate(650.332721 0)scale(0.996264)" xlink:href="#CMR17-98"/>
       <use transform="translate(701.228091 0)scale(0.996264)" xlink:href="#CMR17-114"/>
       <use transform="translate(736.508859 0)scale(0.996264)" xlink:href="#CMR17-101"/>
       <use transform="translate(807.070486 0)scale(0.996264)" xlink:href="#CMR17-105"/>
       <use transform="translate(831.941544 0)scale(0.996264)" xlink:href="#CMR17-110"/>
       <use transform="translate(912.91288 0)scale(0.996264)" xlink:href="#CMR17-48"/>
       <use transform="translate(958.603358 0)scale(0.996264)" xlink:href="#CMR17-45"/>
       <use transform="translate(988.679324 0)scale(0.996264)" xlink:href="#CMR17-100"/>
       <use transform="translate(1039.574694 0)scale(0.996264)" xlink:href="#CMR17-101"/>
       <use transform="translate(1080.060354 0)scale(0.996264)" xlink:href="#CMR17-103"/>
       <use transform="translate(1155.826798 0)scale(0.996264)" xlink:href="#CMR17-68"/>
       <use transform="translate(1226.220353 0)scale(0.996264)" xlink:href="#CMR17-105"/>
       <use transform="translate(1251.091412 0)scale(0.996264)" xlink:href="#CMR17-114"/>
       <use transform="translate(1286.37218 0)scale(0.996264)" xlink:href="#CMR17-101"/>
       <use transform="translate(1326.85784 0)scale(0.996264)" xlink:href="#CMR17-99"/>
       <use transform="translate(1367.343501 0)scale(0.996264)" xlink:href="#CMR17-116"/>
       <use transform="translate(1402.624268 0)scale(0.996264)" xlink:href="#CMR17-105"/>
       <use transform="translate(1427.495327 0)scale(0.996264)" xlink:href="#CMR17-111"/>
       <use transform="translate(1473.185804 0)scale(0.996264)" xlink:href="#CMR17-110"/>
      </g>
     </g>
    </g>
    <g id="ytick_4">
     <g id="line2d_12">
      <g>
       <use style="stroke:#000000;stroke-width:0.8;" x="257.505949" xlink:href="#mfc58d3abb0" y="70.611048"/>
      </g>
     </g>
     <g id="text_9">
      <!-- Thickness -->
      <g transform="translate(191.932691 75.453986)scale(0.14 -0.14)">
       <defs>
        <path d="M 62.203125 67.59375 
L 4.5 67.59375 
L 2.796875 45.59375 
L 4.59375 45.59375 
C 5.90625 62.125 7.296875 65 22.703125 65 
C 24.5 65 27.40625 65 28.203125 64.90625 
C 30.09375 64.609375 30.09375 63.40625 30.09375 61.125 
L 30.09375 7.171875 
C 30.09375 3.59375 29.796875 2.5 21.5 2.5 
L 18.703125 2.5 
L 18.703125 0 
C 23.5 0 28.5 0 33.40625 0 
C 38.296875 0 43.296875 0 48.09375 0 
L 48.09375 2.5 
L 45.296875 2.5 
C 37 2.5 36.703125 3.59375 36.703125 7.171875 
L 36.703125 61.125 
C 36.703125 63.3125 36.703125 64.515625 38.5 64.90625 
C 39.296875 65 42.203125 65 44 65 
C 59.296875 65 60.796875 62.125 62.09375 45.59375 
L 63.90625 45.59375 
z
" id="CMR17-84"/>
        <path d="M 41.5 30.203125 
C 41.5 35.296875 40.5 43.59375 28.703125 43.59375 
C 20.5 43.59375 16.5 37 15.296875 33.703125 
L 15.203125 33.703125 
L 15.203125 68.6875 
L 3.296875 67.59375 
L 3.296875 65 
C 9.203125 65 10.09375 64.40625 10.09375 59.640625 
L 10.09375 6.65625 
C 10.09375 2.875 9.703125 2.390625 3.296875 2.390625 
L 3.296875 -0.203125 
C 5.703125 0 10.09375 0 12.703125 0 
C 15.296875 0 19.796875 0 22.203125 -0.203125 
L 22.203125 2.390625 
C 15.796875 2.390625 15.40625 2.78125 15.40625 6.6875 
L 15.40625 25.90625 
C 15.40625 35.109375 21 42 28 42 
C 35.40625 42 36.203125 35.40625 36.203125 30.59375 
L 36.203125 6.6875 
C 36.203125 2.875 35.796875 2.390625 29.40625 2.390625 
L 29.40625 -0.203125 
C 31.796875 0 36.203125 0 38.796875 0 
C 41.40625 0 45.90625 0 48.296875 -0.203125 
L 48.296875 2.390625 
C 41.90625 2.390625 41.5 2.78125 41.5 6.6875 
z
" id="CMR17-104"/>
       </defs>
       <use transform="scale(0.996264)" xlink:href="#CMR17-84"/>
       <use transform="translate(66.509881 0)scale(0.996264)" xlink:href="#CMR17-104"/>
       <use transform="translate(117.40525 0)scale(0.996264)" xlink:href="#CMR17-105"/>
       <use transform="translate(142.276309 0)scale(0.996264)" xlink:href="#CMR17-99"/>
       <use transform="translate(180.159515 0)scale(0.996264)" xlink:href="#CMR17-107"/>
       <use transform="translate(228.452431 0)scale(0.996264)" xlink:href="#CMR17-110"/>
       <use transform="translate(279.347801 0)scale(0.996264)" xlink:href="#CMR17-101"/>
       <use transform="translate(319.833461 0)scale(0.996264)" xlink:href="#CMR17-115"/>
       <use transform="translate(355.634799 0)scale(0.996264)" xlink:href="#CMR17-115"/>
      </g>
     </g>
    </g>
    <g id="ytick_5">
     <g id="line2d_13">
      <g>
       <use style="stroke:#000000;stroke-width:0.8;" x="257.505949" xlink:href="#mfc58d3abb0" y="86.465633"/>
      </g>
     </g>
     <g id="text_10">
      <!-- Percentage of Fibre in 45-deg Direction -->
      <g transform="translate(15.12 91.308571)scale(0.14 -0.14)">
       <defs>
        <path d="M 33.59375 64.40625 
C 33.59375 66.5 33.5 66.5 31.703125 66.5 
L 2 19.59375 
L 2 17 
L 27.796875 17 
L 27.796875 7.140625 
C 27.796875 3.5 27.59375 2.5 20.59375 2.5 
L 18.703125 2.5 
L 18.703125 0 
C 21.90625 0 27.296875 0 30.703125 0 
C 34.09375 0 39.5 0 42.703125 0 
L 42.703125 2.5 
L 40.796875 2.5 
C 33.796875 2.5 33.59375 3.5 33.59375 7.140625 
L 33.59375 17 
L 43.796875 17 
L 43.796875 19.59375 
L 33.59375 19.59375 
z
M 28.09375 57.859375 
L 28.09375 19.59375 
L 4 19.59375 
z
" id="CMR17-52"/>
       </defs>
       <use transform="scale(0.996264)" xlink:href="#CMR17-80"/>
       <use transform="translate(59.983847 0)scale(0.996264)" xlink:href="#CMR17-101"/>
       <use transform="translate(100.469507 0)scale(0.996264)" xlink:href="#CMR17-114"/>
       <use transform="translate(135.750275 0)scale(0.996264)" xlink:href="#CMR17-99"/>
       <use transform="translate(176.235935 0)scale(0.996264)" xlink:href="#CMR17-101"/>
       <use transform="translate(216.721596 0)scale(0.996264)" xlink:href="#CMR17-110"/>
       <use transform="translate(265.014512 0)scale(0.996264)" xlink:href="#CMR17-116"/>
       <use transform="translate(300.295279 0)scale(0.996264)" xlink:href="#CMR17-97"/>
       <use transform="translate(345.985757 0)scale(0.996264)" xlink:href="#CMR17-103"/>
       <use transform="translate(391.676234 0)scale(0.996264)" xlink:href="#CMR17-101"/>
       <use transform="translate(462.23786 0)scale(0.996264)" xlink:href="#CMR17-111"/>
       <use transform="translate(507.928338 0)scale(0.996264)" xlink:href="#CMR17-102"/>
       <use transform="translate(565.477816 0)scale(0.996264)" xlink:href="#CMR17-70"/>
       <use transform="translate(625.461663 0)scale(0.996264)" xlink:href="#CMR17-105"/>
       <use transform="translate(650.332721 0)scale(0.996264)" xlink:href="#CMR17-98"/>
       <use transform="translate(701.228091 0)scale(0.996264)" xlink:href="#CMR17-114"/>
       <use transform="translate(736.508859 0)scale(0.996264)" xlink:href="#CMR17-101"/>
       <use transform="translate(807.070486 0)scale(0.996264)" xlink:href="#CMR17-105"/>
       <use transform="translate(831.941544 0)scale(0.996264)" xlink:href="#CMR17-110"/>
       <use transform="translate(912.91288 0)scale(0.996264)" xlink:href="#CMR17-52"/>
       <use transform="translate(958.603358 0)scale(0.996264)" xlink:href="#CMR17-53"/>
       <use transform="translate(1004.293835 0)scale(0.996264)" xlink:href="#CMR17-45"/>
       <use transform="translate(1034.369801 0)scale(0.996264)" xlink:href="#CMR17-100"/>
       <use transform="translate(1085.265171 0)scale(0.996264)" xlink:href="#CMR17-101"/>
       <use transform="translate(1125.750831 0)scale(0.996264)" xlink:href="#CMR17-103"/>
       <use transform="translate(1201.517275 0)scale(0.996264)" xlink:href="#CMR17-68"/>
       <use transform="translate(1271.910831 0)scale(0.996264)" xlink:href="#CMR17-105"/>
       <use transform="translate(1296.781889 0)scale(0.996264)" xlink:href="#CMR17-114"/>
       <use transform="translate(1332.062657 0)scale(0.996264)" xlink:href="#CMR17-101"/>
       <use transform="translate(1372.548317 0)scale(0.996264)" xlink:href="#CMR17-99"/>
       <use transform="translate(1413.033978 0)scale(0.996264)" xlink:href="#CMR17-116"/>
       <use transform="translate(1448.314746 0)scale(0.996264)" xlink:href="#CMR17-105"/>
       <use transform="translate(1473.185804 0)scale(0.996264)" xlink:href="#CMR17-111"/>
       <use transform="translate(1518.876281 0)scale(0.996264)" xlink:href="#CMR17-110"/>
      </g>
     </g>
    </g>
    <g id="ytick_6">
     <g id="line2d_14">
      <g>
       <use style="stroke:#000000;stroke-width:0.8;" x="257.505949" xlink:href="#mfc58d3abb0" y="102.320218"/>
      </g>
     </g>
     <g id="text_11">
      <!-- Static Maximum Tensile Strain -->
      <g transform="translate(63.789555 107.163156)scale(0.14 -0.14)">
       <use transform="scale(0.996264)" xlink:href="#CMR17-83"/>
       <use transform="translate(50.89537 0)scale(0.996264)" xlink:href="#CMR17-116"/>
       <use transform="translate(86.176138 0)scale(0.996264)" xlink:href="#CMR17-97"/>
       <use transform="translate(131.866615 0)scale(0.996264)" xlink:href="#CMR17-116"/>
       <use transform="translate(167.147382 0)scale(0.996264)" xlink:href="#CMR17-105"/>
       <use transform="translate(192.018441 0)scale(0.996264)" xlink:href="#CMR17-99"/>
       <use transform="translate(262.580068 0)scale(0.996264)" xlink:href="#CMR17-77"/>
       <use transform="translate(347.267008 0)scale(0.996264)" xlink:href="#CMR17-97"/>
       <use transform="translate(392.957485 0)scale(0.996264)" xlink:href="#CMR17-120"/>
       <use transform="translate(441.250401 0)scale(0.996264)" xlink:href="#CMR17-105"/>
       <use transform="translate(466.12146 0)scale(0.996264)" xlink:href="#CMR17-109"/>
       <use transform="translate(540.438596 0)scale(0.996264)" xlink:href="#CMR17-117"/>
       <use transform="translate(591.333966 0)scale(0.996264)" xlink:href="#CMR17-109"/>
       <use transform="translate(698.329522 0)scale(0.996264)" xlink:href="#CMR17-84"/>
       <use transform="translate(757.032147 0)scale(0.996264)" xlink:href="#CMR17-101"/>
       <use transform="translate(797.517807 0)scale(0.996264)" xlink:href="#CMR17-110"/>
       <use transform="translate(848.413177 0)scale(0.996264)" xlink:href="#CMR17-115"/>
       <use transform="translate(884.214515 0)scale(0.996264)" xlink:href="#CMR17-105"/>
       <use transform="translate(909.085573 0)scale(0.996264)" xlink:href="#CMR17-108"/>
       <use transform="translate(933.956632 0)scale(0.996264)" xlink:href="#CMR17-101"/>
       <use transform="translate(1004.518259 0)scale(0.996264)" xlink:href="#CMR17-83"/>
       <use transform="translate(1055.413628 0)scale(0.996264)" xlink:href="#CMR17-116"/>
       <use transform="translate(1090.694396 0)scale(0.996264)" xlink:href="#CMR17-114"/>
       <use transform="translate(1125.975164 0)scale(0.996264)" xlink:href="#CMR17-97"/>
       <use transform="translate(1171.665641 0)scale(0.996264)" xlink:href="#CMR17-105"/>
       <use transform="translate(1196.5367 0)scale(0.996264)" xlink:href="#CMR17-110"/>
      </g>
     </g>
    </g>
    <g id="ytick_7">
     <g id="line2d_15">
      <g>
       <use style="stroke:#000000;stroke-width:0.8;" x="257.505949" xlink:href="#mfc58d3abb0" y="118.174803"/>
      </g>
     </g>
     <g id="text_12">
      <!-- Absolute Peak-to-peak Stress -->
      <g transform="translate(75.210715 123.017741)scale(0.14 -0.14)">
       <use transform="scale(0.996264)" xlink:href="#CMR17-65"/>
       <use transform="translate(69.07243 0)scale(0.996264)" xlink:href="#CMR17-98"/>
       <use transform="translate(119.9678 0)scale(0.996264)" xlink:href="#CMR17-115"/>
       <use transform="translate(155.769137 0)scale(0.996264)" xlink:href="#CMR17-111"/>
       <use transform="translate(201.459614 0)scale(0.996264)" xlink:href="#CMR17-108"/>
       <use transform="translate(226.330673 0)scale(0.996264)" xlink:href="#CMR17-117"/>
       <use transform="translate(277.226043 0)scale(0.996264)" xlink:href="#CMR17-116"/>
       <use transform="translate(312.50681 0)scale(0.996264)" xlink:href="#CMR17-101"/>
       <use transform="translate(383.068437 0)scale(0.996264)" xlink:href="#CMR17-80"/>
       <use transform="translate(443.052284 0)scale(0.996264)" xlink:href="#CMR17-101"/>
       <use transform="translate(483.537944 0)scale(0.996264)" xlink:href="#CMR17-97"/>
       <use transform="translate(529.228421 0)scale(0.996264)" xlink:href="#CMR17-107"/>
       <use transform="translate(577.521337 0)scale(0.996264)" xlink:href="#CMR17-45"/>
       <use transform="translate(607.597304 0)scale(0.996264)" xlink:href="#CMR17-116"/>
       <use transform="translate(642.878071 0)scale(0.996264)" xlink:href="#CMR17-111"/>
       <use transform="translate(688.568548 0)scale(0.996264)" xlink:href="#CMR17-45"/>
       <use transform="translate(718.644515 0)scale(0.996264)" xlink:href="#CMR17-112"/>
       <use transform="translate(772.142323 0)scale(0.996264)" xlink:href="#CMR17-101"/>
       <use transform="translate(812.627984 0)scale(0.996264)" xlink:href="#CMR17-97"/>
       <use transform="translate(858.318461 0)scale(0.996264)" xlink:href="#CMR17-107"/>
       <use transform="translate(936.687343 0)scale(0.996264)" xlink:href="#CMR17-83"/>
       <use transform="translate(987.582713 0)scale(0.996264)" xlink:href="#CMR17-116"/>
       <use transform="translate(1022.863481 0)scale(0.996264)" xlink:href="#CMR17-114"/>
       <use transform="translate(1058.144248 0)scale(0.996264)" xlink:href="#CMR17-101"/>
       <use transform="translate(1098.629909 0)scale(0.996264)" xlink:href="#CMR17-115"/>
       <use transform="translate(1134.431247 0)scale(0.996264)" xlink:href="#CMR17-115"/>
      </g>
     </g>
    </g>
    <g id="ytick_8">
     <g id="line2d_16">
      <g>
       <use style="stroke:#000000;stroke-width:0.8;" x="257.505949" xlink:href="#mfc58d3abb0" y="134.029388"/>
      </g>
     </g>
     <g id="text_13">
      <!-- Percentage of Fibre in Other Direction -->
      <g transform="translate(18.913605 138.872326)scale(0.14 -0.14)">
       <defs>
        <path d="M 67.296875 33.359375 
C 67.296875 53.703125 52.59375 69 36 69 
C 19 69 4.59375 53.5 4.59375 33.359375 
C 4.59375 13.203125 19.203125 -2 35.90625 -2 
C 53 -2 67.296875 13.5 67.296875 33.359375 
z
M 36 -0.203125 
C 24.59375 -0.203125 12.203125 11.109375 12.203125 34.640625 
C 12.203125 58.0625 25.796875 67.203125 35.90625 67.203125 
C 46.5 67.203125 59.703125 57.78125 59.703125 34.640625 
C 59.703125 10.71875 47 -0.203125 36 -0.203125 
z
" id="CMR17-79"/>
       </defs>
       <use transform="scale(0.996264)" xlink:href="#CMR17-80"/>
       <use transform="translate(59.983847 0)scale(0.996264)" xlink:href="#CMR17-101"/>
       <use transform="translate(100.469507 0)scale(0.996264)" xlink:href="#CMR17-114"/>
       <use transform="translate(135.750275 0)scale(0.996264)" xlink:href="#CMR17-99"/>
       <use transform="translate(176.235935 0)scale(0.996264)" xlink:href="#CMR17-101"/>
       <use transform="translate(216.721596 0)scale(0.996264)" xlink:href="#CMR17-110"/>
       <use transform="translate(265.014512 0)scale(0.996264)" xlink:href="#CMR17-116"/>
       <use transform="translate(300.295279 0)scale(0.996264)" xlink:href="#CMR17-97"/>
       <use transform="translate(345.985757 0)scale(0.996264)" xlink:href="#CMR17-103"/>
       <use transform="translate(391.676234 0)scale(0.996264)" xlink:href="#CMR17-101"/>
       <use transform="translate(462.23786 0)scale(0.996264)" xlink:href="#CMR17-111"/>
       <use transform="translate(507.928338 0)scale(0.996264)" xlink:href="#CMR17-102"/>
       <use transform="translate(565.477816 0)scale(0.996264)" xlink:href="#CMR17-70"/>
       <use transform="translate(625.461663 0)scale(0.996264)" xlink:href="#CMR17-105"/>
       <use transform="translate(650.332721 0)scale(0.996264)" xlink:href="#CMR17-98"/>
       <use transform="translate(701.228091 0)scale(0.996264)" xlink:href="#CMR17-114"/>
       <use transform="translate(736.508859 0)scale(0.996264)" xlink:href="#CMR17-101"/>
       <use transform="translate(807.070486 0)scale(0.996264)" xlink:href="#CMR17-105"/>
       <use transform="translate(831.941544 0)scale(0.996264)" xlink:href="#CMR17-110"/>
       <use transform="translate(912.91288 0)scale(0.996264)" xlink:href="#CMR17-79"/>
       <use transform="translate(984.627669 0)scale(0.996264)" xlink:href="#CMR17-116"/>
       <use transform="translate(1019.908437 0)scale(0.996264)" xlink:href="#CMR17-104"/>
       <use transform="translate(1070.803806 0)scale(0.996264)" xlink:href="#CMR17-101"/>
       <use transform="translate(1111.289467 0)scale(0.996264)" xlink:href="#CMR17-114"/>
       <use transform="translate(1176.646201 0)scale(0.996264)" xlink:href="#CMR17-68"/>
       <use transform="translate(1247.039757 0)scale(0.996264)" xlink:href="#CMR17-105"/>
       <use transform="translate(1271.910815 0)scale(0.996264)" xlink:href="#CMR17-114"/>
       <use transform="translate(1307.191583 0)scale(0.996264)" xlink:href="#CMR17-101"/>
       <use transform="translate(1347.677244 0)scale(0.996264)" xlink:href="#CMR17-99"/>
       <use transform="translate(1388.162904 0)scale(0.996264)" xlink:href="#CMR17-116"/>
       <use transform="translate(1423.443672 0)scale(0.996264)" xlink:href="#CMR17-105"/>
       <use transform="translate(1448.31473 0)scale(0.996264)" xlink:href="#CMR17-111"/>
       <use transform="translate(1494.005208 0)scale(0.996264)" xlink:href="#CMR17-110"/>
      </g>
     </g>
    </g>
    <g id="ytick_9">
     <g id="line2d_17">
      <g>
       <use style="stroke:#000000;stroke-width:0.8;" x="257.505949" xlink:href="#mfc58d3abb0" y="149.883973"/>
      </g>
     </g>
     <g id="text_14">
      <!-- Static Elastic Modulus -->
      <g transform="translate(114.360717 154.726911)scale(0.14 -0.14)">
       <defs>
        <path d="M 60.703125 25.234375 
L 58.90625 25.234375 
C 56.703125 10.5625 55.40625 2.59375 37.796875 2.59375 
L 23.90625 2.59375 
C 19.90625 2.59375 19.703125 3.078125 19.703125 6.46875 
L 19.703125 34 
L 29.09375 34 
C 38.5 34 39.40625 30.625 39.40625 22.34375 
L 41.203125 22.34375 
L 41.203125 48.140625 
L 39.40625 48.140625 
C 39.40625 39.953125 38.5 36.59375 29.09375 36.59375 
L 19.703125 36.59375 
L 19.703125 61.140625 
C 19.703125 64.5 19.90625 65 23.90625 65 
L 37.59375 65 
C 53.09375 65 54.90625 58.890625 56.296875 45.765625 
L 58.09375 45.765625 
L 55.703125 67.578125 
L 5.09375 67.578125 
L 5.09375 65 
C 12 65 13.09375 65 13.09375 60.53125 
L 13.09375 7.046875 
C 13.09375 2.59375 12 2.59375 5.09375 2.59375 
L 5.09375 0 
L 57.09375 0 
z
" id="CMR17-69"/>
       </defs>
       <use transform="scale(0.996264)" xlink:href="#CMR17-83"/>
       <use transform="translate(50.89537 0)scale(0.996264)" xlink:href="#CMR17-116"/>
       <use transform="translate(86.176138 0)scale(0.996264)" xlink:href="#CMR17-97"/>
       <use transform="translate(131.866615 0)scale(0.996264)" xlink:href="#CMR17-116"/>
       <use transform="translate(167.147382 0)scale(0.996264)" xlink:href="#CMR17-105"/>
       <use transform="translate(192.018441 0)scale(0.996264)" xlink:href="#CMR17-99"/>
       <use transform="translate(262.580068 0)scale(0.996264)" xlink:href="#CMR17-69"/>
       <use transform="translate(325.166368 0)scale(0.996264)" xlink:href="#CMR17-108"/>
       <use transform="translate(350.037427 0)scale(0.996264)" xlink:href="#CMR17-97"/>
       <use transform="translate(395.727904 0)scale(0.996264)" xlink:href="#CMR17-115"/>
       <use transform="translate(431.529242 0)scale(0.996264)" xlink:href="#CMR17-116"/>
       <use transform="translate(466.810009 0)scale(0.996264)" xlink:href="#CMR17-105"/>
       <use transform="translate(491.681068 0)scale(0.996264)" xlink:href="#CMR17-99"/>
       <use transform="translate(562.242695 0)scale(0.996264)" xlink:href="#CMR17-77"/>
       <use transform="translate(646.929635 0)scale(0.996264)" xlink:href="#CMR17-111"/>
       <use transform="translate(695.222551 0)scale(0.996264)" xlink:href="#CMR17-100"/>
       <use transform="translate(746.117921 0)scale(0.996264)" xlink:href="#CMR17-117"/>
       <use transform="translate(797.013291 0)scale(0.996264)" xlink:href="#CMR17-108"/>
       <use transform="translate(821.884349 0)scale(0.996264)" xlink:href="#CMR17-117"/>
       <use transform="translate(872.779719 0)scale(0.996264)" xlink:href="#CMR17-115"/>
      </g>
     </g>
    </g>
    <g id="ytick_10">
     <g id="line2d_18">
      <g>
       <use style="stroke:#000000;stroke-width:0.8;" x="257.505949" xlink:href="#mfc58d3abb0" y="165.738558"/>
      </g>
     </g>
     <g id="text_15">
      <!-- Percentage of Fibre in 90-deg Direction -->
      <g transform="translate(15.12 170.581496)scale(0.14 -0.14)">
       <defs>
        <path d="M 35.203125 29.125 
C 35.203125 7.25 26.09375 0.484375 18.59375 0.484375 
C 16.296875 0.484375 10.703125 0.484375 8.40625 4.59375 
C 11 4.1875 12.90625 5.578125 12.90625 8.09375 
C 12.90625 10.8125 10.703125 11.703125 9.296875 11.703125 
C 8.40625 11.703125 5.703125 11.296875 5.703125 7.90625 
C 5.703125 1.109375 11.59375 -2 18.796875 -2 
C 30.296875 -2 42 10.53125 42 32.390625 
C 42 59.640625 30.796875 65.296875 23.203125 65.296875 
C 13.296875 65.296875 3.796875 56.6875 3.796875 43.40625 
C 3.796875 31.109375 11.90625 22 22.09375 22 
C 30.5 22 34.203125 29.734375 35.203125 33 
z
M 22.296875 23.59375 
C 19.59375 23.59375 15.796875 24.09375 12.703125 30.03125 
C 10.59375 33.890625 10.59375 38.453125 10.59375 43.296875 
C 10.59375 49.15625 10.59375 53.203125 13.40625 57.5625 
C 14.796875 59.640625 17.40625 63 23.203125 63 
C 35 63 35 45.078125 35 41.125 
C 35 34.09375 31.796875 23.59375 22.296875 23.59375 
z
" id="CMR17-57"/>
       </defs>
       <use transform="scale(0.996264)" xlink:href="#CMR17-80"/>
       <use transform="translate(59.983847 0)scale(0.996264)" xlink:href="#CMR17-101"/>
       <use transform="translate(100.469507 0)scale(0.996264)" xlink:href="#CMR17-114"/>
       <use transform="translate(135.750275 0)scale(0.996264)" xlink:href="#CMR17-99"/>
       <use transform="translate(176.235935 0)scale(0.996264)" xlink:href="#CMR17-101"/>
       <use transform="translate(216.721596 0)scale(0.996264)" xlink:href="#CMR17-110"/>
       <use transform="translate(265.014512 0)scale(0.996264)" xlink:href="#CMR17-116"/>
       <use transform="translate(300.295279 0)scale(0.996264)" xlink:href="#CMR17-97"/>
       <use transform="translate(345.985757 0)scale(0.996264)" xlink:href="#CMR17-103"/>
       <use transform="translate(391.676234 0)scale(0.996264)" xlink:href="#CMR17-101"/>
       <use transform="translate(462.23786 0)scale(0.996264)" xlink:href="#CMR17-111"/>
       <use transform="translate(507.928338 0)scale(0.996264)" xlink:href="#CMR17-102"/>
       <use transform="translate(565.477816 0)scale(0.996264)" xlink:href="#CMR17-70"/>
       <use transform="translate(625.461663 0)scale(0.996264)" xlink:href="#CMR17-105"/>
       <use transform="translate(650.332721 0)scale(0.996264)" xlink:href="#CMR17-98"/>
       <use transform="translate(701.228091 0)scale(0.996264)" xlink:href="#CMR17-114"/>
       <use transform="translate(736.508859 0)scale(0.996264)" xlink:href="#CMR17-101"/>
       <use transform="translate(807.070486 0)scale(0.996264)" xlink:href="#CMR17-105"/>
       <use transform="translate(831.941544 0)scale(0.996264)" xlink:href="#CMR17-110"/>
       <use transform="translate(912.91288 0)scale(0.996264)" xlink:href="#CMR17-57"/>
       <use transform="translate(958.603358 0)scale(0.996264)" xlink:href="#CMR17-48"/>
       <use transform="translate(1004.293835 0)scale(0.996264)" xlink:href="#CMR17-45"/>
       <use transform="translate(1034.369801 0)scale(0.996264)" xlink:href="#CMR17-100"/>
       <use transform="translate(1085.265171 0)scale(0.996264)" xlink:href="#CMR17-101"/>
       <use transform="translate(1125.750831 0)scale(0.996264)" xlink:href="#CMR17-103"/>
       <use transform="translate(1201.517275 0)scale(0.996264)" xlink:href="#CMR17-68"/>
       <use transform="translate(1271.910831 0)scale(0.996264)" xlink:href="#CMR17-105"/>
       <use transform="translate(1296.781889 0)scale(0.996264)" xlink:href="#CMR17-114"/>
       <use transform="translate(1332.062657 0)scale(0.996264)" xlink:href="#CMR17-101"/>
       <use transform="translate(1372.548317 0)scale(0.996264)" xlink:href="#CMR17-99"/>
       <use transform="translate(1413.033978 0)scale(0.996264)" xlink:href="#CMR17-116"/>
       <use transform="translate(1448.314746 0)scale(0.996264)" xlink:href="#CMR17-105"/>
       <use transform="translate(1473.185804 0)scale(0.996264)" xlink:href="#CMR17-111"/>
       <use transform="translate(1518.876281 0)scale(0.996264)" xlink:href="#CMR17-110"/>
      </g>
     </g>
    </g>
    <g id="ytick_11">
     <g id="line2d_19">
      <g>
       <use style="stroke:#000000;stroke-width:0.8;" x="257.505949" xlink:href="#mfc58d3abb0" y="181.593143"/>
      </g>
     </g>
     <g id="text_16">
      <!-- Relative Maximum Stress -->
      <g transform="translate(97.289495 186.436081)scale(0.14 -0.14)">
       <use transform="scale(0.996264)" xlink:href="#CMR17-82"/>
       <use transform="translate(67.791102 0)scale(0.996264)" xlink:href="#CMR17-101"/>
       <use transform="translate(108.276762 0)scale(0.996264)" xlink:href="#CMR17-108"/>
       <use transform="translate(133.147821 0)scale(0.996264)" xlink:href="#CMR17-97"/>
       <use transform="translate(178.838298 0)scale(0.996264)" xlink:href="#CMR17-116"/>
       <use transform="translate(214.119066 0)scale(0.996264)" xlink:href="#CMR17-105"/>
       <use transform="translate(238.990124 0)scale(0.996264)" xlink:href="#CMR17-118"/>
       <use transform="translate(284.680586 0)scale(0.996264)" xlink:href="#CMR17-101"/>
       <use transform="translate(355.242213 0)scale(0.996264)" xlink:href="#CMR17-77"/>
       <use transform="translate(439.929154 0)scale(0.996264)" xlink:href="#CMR17-97"/>
       <use transform="translate(485.619631 0)scale(0.996264)" xlink:href="#CMR17-120"/>
       <use transform="translate(533.912547 0)scale(0.996264)" xlink:href="#CMR17-105"/>
       <use transform="translate(558.783605 0)scale(0.996264)" xlink:href="#CMR17-109"/>
       <use transform="translate(633.100741 0)scale(0.996264)" xlink:href="#CMR17-117"/>
       <use transform="translate(683.996111 0)scale(0.996264)" xlink:href="#CMR17-109"/>
       <use transform="translate(790.991667 0)scale(0.996264)" xlink:href="#CMR17-83"/>
       <use transform="translate(841.887037 0)scale(0.996264)" xlink:href="#CMR17-116"/>
       <use transform="translate(877.167805 0)scale(0.996264)" xlink:href="#CMR17-114"/>
       <use transform="translate(912.448572 0)scale(0.996264)" xlink:href="#CMR17-101"/>
       <use transform="translate(952.934233 0)scale(0.996264)" xlink:href="#CMR17-115"/>
       <use transform="translate(988.73557 0)scale(0.996264)" xlink:href="#CMR17-115"/>
      </g>
     </g>
    </g>
    <g id="ytick_12">
     <g id="line2d_20">
      <g>
       <use style="stroke:#000000;stroke-width:0.8;" x="257.505949" xlink:href="#mfc58d3abb0" y="197.447728"/>
      </g>
     </g>
     <g id="text_17">
      <!-- Fibre Volumn Fraction -->
      <g transform="translate(113.94583 202.290666)scale(0.14 -0.14)">
       <defs>
        <path d="M 59 58.515625 
C 59.90625 60.71875 61.5 65 68.203125 65 
L 68.203125 67.6875 
C 65.90625 67.484375 63.296875 67.484375 60.796875 67.484375 
C 58.40625 67.484375 54.296875 67.484375 52 67.6875 
L 52 65 
C 57 65 57.203125 61.5 57.203125 60.90625 
C 57.203125 59.796875 56.90625 59.109375 56.59375 58.3125 
L 36.90625 6.96875 
L 16.296875 60.71875 
C 16 61.421875 15.796875 61.921875 15.796875 62.40625 
C 15.796875 65 19.796875 65 21.90625 65 
L 21.90625 67.484375 
C 18.703125 67.484375 14 67.484375 10.703125 67.484375 
C 8.09375 67.484375 3.40625 67.484375 1 67.6875 
L 1 65 
C 6.796875 65 7.90625 64.609375 9.09375 61.421875 
L 32.90625 -0.40625 
C 33.40625 -1.796875 33.5 -2 34.59375 -2 
C 35.703125 -2 35.796875 -1.796875 36.296875 -0.40625 
z
" id="CMR17-86"/>
       </defs>
       <use transform="scale(0.996264)" xlink:href="#CMR17-70"/>
       <use transform="translate(59.983847 0)scale(0.996264)" xlink:href="#CMR17-105"/>
       <use transform="translate(84.854905 0)scale(0.996264)" xlink:href="#CMR17-98"/>
       <use transform="translate(135.750275 0)scale(0.996264)" xlink:href="#CMR17-114"/>
       <use transform="translate(171.031043 0)scale(0.996264)" xlink:href="#CMR17-101"/>
       <use transform="translate(241.592669 0)scale(0.996264)" xlink:href="#CMR17-86"/>
       <use transform="translate(302.857844 0)scale(0.996264)" xlink:href="#CMR17-111"/>
       <use transform="translate(348.548321 0)scale(0.996264)" xlink:href="#CMR17-108"/>
       <use transform="translate(373.419379 0)scale(0.996264)" xlink:href="#CMR17-117"/>
       <use transform="translate(424.314749 0)scale(0.996264)" xlink:href="#CMR17-109"/>
       <use transform="translate(501.234339 0)scale(0.996264)" xlink:href="#CMR17-110"/>
       <use transform="translate(582.205675 0)scale(0.996264)" xlink:href="#CMR17-70"/>
       <use transform="translate(634.382266 0)scale(0.996264)" xlink:href="#CMR17-114"/>
       <use transform="translate(669.663034 0)scale(0.996264)" xlink:href="#CMR17-97"/>
       <use transform="translate(715.353511 0)scale(0.996264)" xlink:href="#CMR17-99"/>
       <use transform="translate(755.839172 0)scale(0.996264)" xlink:href="#CMR17-116"/>
       <use transform="translate(791.11994 0)scale(0.996264)" xlink:href="#CMR17-105"/>
       <use transform="translate(815.990998 0)scale(0.996264)" xlink:href="#CMR17-111"/>
       <use transform="translate(861.681475 0)scale(0.996264)" xlink:href="#CMR17-110"/>
      </g>
     </g>
    </g>
    <g id="ytick_13">
     <g id="line2d_21">
      <g>
       <use style="stroke:#000000;stroke-width:0.8;" x="257.505949" xlink:href="#mfc58d3abb0" y="213.302313"/>
      </g>
     </g>
     <g id="text_18">
      <!-- Frequency -->
      <g transform="translate(189.621001 218.145251)scale(0.14 -0.14)">
       <defs>
        <path d="M 41.09375 43.78125 
L 39.5 43.78125 
L 36.5 33.9375 
C 34.203125 39.203125 30 43.78125 23.296875 43.78125 
C 13.09375 43.78125 3.296875 34.734375 3.296875 21.609375 
C 3.296875 8.5625 12.5 -0.59375 22.5 -0.59375 
C 30.203125 -0.59375 34.5 5.28125 35.796875 7.46875 
L 35.796875 -12.328125 
C 35.796875 -16.109375 35.40625 -16.609375 29 -16.609375 
L 29 -19.1875 
C 31.40625 -19 35.796875 -19 38.40625 -19 
C 41 -19 45.5 -19 47.90625 -19.1875 
L 47.90625 -16.609375 
C 41.5 -16.609375 41.09375 -16.203125 41.09375 -12.328125 
z
M 36 13.84375 
C 36 9.5625 32.40625 5.578125 32.09375 5.28125 
C 29 1.796875 25.40625 1 23 1 
C 15.5 1 9.703125 10.453125 9.703125 21.484375 
C 9.703125 33.140625 16.296875 42 24 42 
C 32 42 36 32.9375 36 27.765625 
z
" id="CMR17-113"/>
        <path d="M 39 34.328125 
C 41.5 40.40625 46 40.40625 47.40625 40.40625 
L 47.40625 43 
C 45.5 43 43 43 41.09375 43 
C 39 43 35.703125 43 33.703125 43.09375 
L 33.703125 40.5 
C 37.5 40.203125 37.59375 37.40625 37.59375 36.609375 
C 37.59375 35.625 37.40625 35.125 36.90625 33.921875 
L 26 7.015625 
L 14.09375 36.03125 
C 13.59375 37.21875 13.59375 37.90625 13.59375 38.015625 
C 13.59375 40.203125 15.90625 40.40625 18.296875 40.40625 
L 18.296875 43.09375 
C 15.90625 43 11.59375 43 9.09375 43 
C 6.40625 43 3.203125 43 1 43.09375 
L 1 40.40625 
C 6.40625 40.40625 7 39.90625 8.296875 36.71875 
L 23.203125 0.234375 
C 18.703125 -11.53125 16.09375 -18.40625 9.796875 -18.40625 
C 8.703125 -18.40625 6.203125 -18.109375 4.40625 -16.3125 
C 6.703125 -16.109375 7.703125 -14.71875 7.703125 -13.015625 
C 7.703125 -11.328125 6.5 -9.828125 4.5 -9.828125 
C 2.296875 -9.828125 1.203125 -11.328125 1.203125 -13.125 
C 1.203125 -17.109375 5.296875 -20 9.796875 -20 
C 15.59375 -20 19.203125 -14.40625 21.203125 -9.4375 
z
" id="CMR17-121"/>
       </defs>
       <use transform="scale(0.996264)" xlink:href="#CMR17-70"/>
       <use transform="translate(52.176591 0)scale(0.996264)" xlink:href="#CMR17-114"/>
       <use transform="translate(87.457359 0)scale(0.996264)" xlink:href="#CMR17-101"/>
       <use transform="translate(127.943019 0)scale(0.996264)" xlink:href="#CMR17-113"/>
       <use transform="translate(176.235935 0)scale(0.996264)" xlink:href="#CMR17-117"/>
       <use transform="translate(227.131305 0)scale(0.996264)" xlink:href="#CMR17-101"/>
       <use transform="translate(267.616966 0)scale(0.996264)" xlink:href="#CMR17-110"/>
       <use transform="translate(318.512335 0)scale(0.996264)" xlink:href="#CMR17-99"/>
       <use transform="translate(358.997996 0)scale(0.996264)" xlink:href="#CMR17-121"/>
      </g>
     </g>
    </g>
    <g id="ytick_14">
     <g id="line2d_22">
      <g>
       <use style="stroke:#000000;stroke-width:0.8;" x="257.505949" xlink:href="#mfc58d3abb0" y="229.156898"/>
      </g>
     </g>
     <g id="text_19">
      <!-- Static Maximum Tensile Stress -->
      <g transform="translate(65.155253 233.999836)scale(0.14 -0.14)">
       <use transform="scale(0.996264)" xlink:href="#CMR17-83"/>
       <use transform="translate(50.89537 0)scale(0.996264)" xlink:href="#CMR17-116"/>
       <use transform="translate(86.176138 0)scale(0.996264)" xlink:href="#CMR17-97"/>
       <use transform="translate(131.866615 0)scale(0.996264)" xlink:href="#CMR17-116"/>
       <use transform="translate(167.147382 0)scale(0.996264)" xlink:href="#CMR17-105"/>
       <use transform="translate(192.018441 0)scale(0.996264)" xlink:href="#CMR17-99"/>
       <use transform="translate(262.580068 0)scale(0.996264)" xlink:href="#CMR17-77"/>
       <use transform="translate(347.267008 0)scale(0.996264)" xlink:href="#CMR17-97"/>
       <use transform="translate(392.957485 0)scale(0.996264)" xlink:href="#CMR17-120"/>
       <use transform="translate(441.250401 0)scale(0.996264)" xlink:href="#CMR17-105"/>
       <use transform="translate(466.12146 0)scale(0.996264)" xlink:href="#CMR17-109"/>
       <use transform="translate(540.438596 0)scale(0.996264)" xlink:href="#CMR17-117"/>
       <use transform="translate(591.333966 0)scale(0.996264)" xlink:href="#CMR17-109"/>
       <use transform="translate(698.329522 0)scale(0.996264)" xlink:href="#CMR17-84"/>
       <use transform="translate(757.032147 0)scale(0.996264)" xlink:href="#CMR17-101"/>
       <use transform="translate(797.517807 0)scale(0.996264)" xlink:href="#CMR17-110"/>
       <use transform="translate(848.413177 0)scale(0.996264)" xlink:href="#CMR17-115"/>
       <use transform="translate(884.214515 0)scale(0.996264)" xlink:href="#CMR17-105"/>
       <use transform="translate(909.085573 0)scale(0.996264)" xlink:href="#CMR17-108"/>
       <use transform="translate(933.956632 0)scale(0.996264)" xlink:href="#CMR17-101"/>
       <use transform="translate(1004.518259 0)scale(0.996264)" xlink:href="#CMR17-83"/>
       <use transform="translate(1055.413628 0)scale(0.996264)" xlink:href="#CMR17-116"/>
       <use transform="translate(1090.694396 0)scale(0.996264)" xlink:href="#CMR17-114"/>
       <use transform="translate(1125.975164 0)scale(0.996264)" xlink:href="#CMR17-101"/>
       <use transform="translate(1166.460824 0)scale(0.996264)" xlink:href="#CMR17-115"/>
       <use transform="translate(1202.262162 0)scale(0.996264)" xlink:href="#CMR17-115"/>
      </g>
     </g>
    </g>
   </g>
   <g id="patch_3">
    <path clip-path="url(#p03fde28053)" d="M 257.505949 16.705459 
L 477.862188 16.705459 
L 477.862188 29.389127 
L 257.505949 29.389127 
z
" style="fill:#5875a4;"/>
   </g>
   <g id="patch_4">
    <path clip-path="url(#p03fde28053)" d="M 257.505949 32.560044 
L 436.937752 32.560044 
L 436.937752 45.243712 
L 257.505949 45.243712 
z
" style="fill:#cc8963;"/>
   </g>
   <g id="patch_5">
    <path clip-path="url(#p03fde28053)" d="M 257.505949 48.414629 
L 402.652718 48.414629 
L 402.652718 61.098297 
L 257.505949 61.098297 
z
" style="fill:#5f9e6e;"/>
   </g>
   <g id="patch_6">
    <path clip-path="url(#p03fde28053)" d="M 257.505949 64.269214 
L 382.926703 64.269214 
L 382.926703 76.952882 
L 257.505949 76.952882 
z
" style="fill:#b55d60;"/>
   </g>
   <g id="patch_7">
    <path clip-path="url(#p03fde28053)" d="M 257.505949 80.123799 
L 373.182477 80.123799 
L 373.182477 92.807467 
L 257.505949 92.807467 
z
" style="fill:#857aab;"/>
   </g>
   <g id="patch_8">
    <path clip-path="url(#p03fde28053)" d="M 257.505949 95.978384 
L 367.362737 95.978384 
L 367.362737 108.662052 
L 257.505949 108.662052 
z
" style="fill:#8d7866;"/>
   </g>
   <g id="patch_9">
    <path clip-path="url(#p03fde28053)" d="M 257.505949 111.832969 
L 362.879081 111.832969 
L 362.879081 124.516637 
L 257.505949 124.516637 
z
" style="fill:#d095bf;"/>
   </g>
   <g id="patch_10">
    <path clip-path="url(#p03fde28053)" d="M 257.505949 127.687554 
L 354.706914 127.687554 
L 354.706914 140.371222 
L 257.505949 140.371222 
z
" style="fill:#8c8c8c;"/>
   </g>
   <g id="patch_11">
    <path clip-path="url(#p03fde28053)" d="M 257.505949 143.542139 
L 339.98754 143.542139 
L 339.98754 156.225807 
L 257.505949 156.225807 
z
" style="fill:#c1b37f;"/>
   </g>
   <g id="patch_12">
    <path clip-path="url(#p03fde28053)" d="M 257.505949 159.396724 
L 309.940933 159.396724 
L 309.940933 172.080392 
L 257.505949 172.080392 
z
" style="fill:#71aec0;"/>
   </g>
   <g id="patch_13">
    <path clip-path="url(#p03fde28053)" d="M 257.505949 175.251309 
L 302.038442 175.251309 
L 302.038442 187.934977 
L 257.505949 187.934977 
z
" style="fill:#5875a4;"/>
   </g>
   <g id="patch_14">
    <path clip-path="url(#p03fde28053)" d="M 257.505949 191.105894 
L 275.159019 191.105894 
L 275.159019 203.789562 
L 257.505949 203.789562 
z
" style="fill:#cc8963;"/>
   </g>
   <g id="patch_15">
    <path clip-path="url(#p03fde28053)" d="M 257.505949 206.960479 
L 272.557636 206.960479 
L 272.557636 219.644147 
L 257.505949 219.644147 
z
" style="fill:#5f9e6e;"/>
   </g>
   <g id="patch_16">
    <path clip-path="url(#p03fde28053)" d="M 257.505949 222.815064 
L 269.68119 222.815064 
L 269.68119 235.498732 
L 257.505949 235.498732 
z
" style="fill:#b55d60;"/>
   </g>
   <g id="line2d_23">
    <path clip-path="url(#p03fde28053)" style="fill:none;stroke:#424242;stroke-linecap:square;stroke-width:2.7;"/>
   </g>
   <g id="line2d_24">
    <path clip-path="url(#p03fde28053)" style="fill:none;stroke:#424242;stroke-linecap:square;stroke-width:2.7;"/>
   </g>
   <g id="line2d_25">
    <path clip-path="url(#p03fde28053)" style="fill:none;stroke:#424242;stroke-linecap:square;stroke-width:2.7;"/>
   </g>
   <g id="line2d_26">
    <path clip-path="url(#p03fde28053)" style="fill:none;stroke:#424242;stroke-linecap:square;stroke-width:2.7;"/>
   </g>
   <g id="line2d_27">
    <path clip-path="url(#p03fde28053)" style="fill:none;stroke:#424242;stroke-linecap:square;stroke-width:2.7;"/>
   </g>
   <g id="line2d_28">
    <path clip-path="url(#p03fde28053)" style="fill:none;stroke:#424242;stroke-linecap:square;stroke-width:2.7;"/>
   </g>
   <g id="line2d_29">
    <path clip-path="url(#p03fde28053)" style="fill:none;stroke:#424242;stroke-linecap:square;stroke-width:2.7;"/>
   </g>
   <g id="line2d_30">
    <path clip-path="url(#p03fde28053)" style="fill:none;stroke:#424242;stroke-linecap:square;stroke-width:2.7;"/>
   </g>
   <g id="line2d_31">
    <path clip-path="url(#p03fde28053)" style="fill:none;stroke:#424242;stroke-linecap:square;stroke-width:2.7;"/>
   </g>
   <g id="line2d_32">
    <path clip-path="url(#p03fde28053)" style="fill:none;stroke:#424242;stroke-linecap:square;stroke-width:2.7;"/>
   </g>
   <g id="line2d_33">
    <path clip-path="url(#p03fde28053)" style="fill:none;stroke:#424242;stroke-linecap:square;stroke-width:2.7;"/>
   </g>
   <g id="line2d_34">
    <path clip-path="url(#p03fde28053)" style="fill:none;stroke:#424242;stroke-linecap:square;stroke-width:2.7;"/>
   </g>
   <g id="line2d_35">
    <path clip-path="url(#p03fde28053)" style="fill:none;stroke:#424242;stroke-linecap:square;stroke-width:2.7;"/>
   </g>
   <g id="line2d_36">
    <path clip-path="url(#p03fde28053)" style="fill:none;stroke:#424242;stroke-linecap:square;stroke-width:2.7;"/>
   </g>
   <g id="patch_17">
    <path d="M 257.505949 237.08419 
L 257.505949 15.12 
" style="fill:none;stroke:#000000;stroke-linecap:square;stroke-linejoin:miter;stroke-width:0.8;"/>
   </g>
   <g id="patch_18">
    <path d="M 488.88 237.08419 
L 488.88 15.12 
" style="fill:none;stroke:#000000;stroke-linecap:square;stroke-linejoin:miter;stroke-width:0.8;"/>
   </g>
   <g id="patch_19">
    <path d="M 257.505949 237.08419 
L 488.88 237.08419 
" style="fill:none;stroke:#000000;stroke-linecap:square;stroke-linejoin:miter;stroke-width:0.8;"/>
   </g>
   <g id="patch_20">
    <path d="M 257.505949 15.12 
L 488.88 15.12 
" style="fill:none;stroke:#000000;stroke-linecap:square;stroke-linejoin:miter;stroke-width:0.8;"/>
   </g>
  </g>
 </g>
 <defs>
  <clipPath id="p03fde28053">
   <rect height="221.96419" width="231.374051" x="257.505949" y="15.12"/>
  </clipPath>
 </defs>
</svg>
