<?xml version="1.0" encoding="utf-8" standalone="no"?>
<!DOCTYPE svg PUBLIC "-//W3C//DTD SVG 1.1//EN"
  "http://www.w3.org/Graphics/SVG/1.1/DTD/svg11.dtd">
<!-- Created with matplotlib (https://matplotlib.org/) -->
<svg height="345.6pt" version="1.1" viewBox="0 0 460.8 345.6" width="460.8pt" xmlns="http://www.w3.org/2000/svg" xmlns:xlink="http://www.w3.org/1999/xlink">
 <metadata>
  <rdf:RDF xmlns:cc="http://creativecommons.org/ns#" xmlns:dc="http://purl.org/dc/elements/1.1/" xmlns:rdf="http://www.w3.org/1999/02/22-rdf-syntax-ns#">
   <cc:Work>
    <dc:type rdf:resource="http://purl.org/dc/dcmitype/StillImage"/>
    <dc:date>2022-09-25T14:42:21.339142</dc:date>
    <dc:format>image/svg+xml</dc:format>
    <dc:creator>
     <cc:Agent>
      <dc:title>Matplotlib v3.3.4, https://matplotlib.org/</dc:title>
     </cc:Agent>
    </dc:creator>
   </cc:Work>
  </rdf:RDF>
 </metadata>
 <defs>
  <style type="text/css">*{stroke-linecap:butt;stroke-linejoin:round;}</style>
 </defs>
 <g id="figure_1">
  <g id="patch_1">
   <path d="M 0 345.6 
L 460.8 345.6 
L 460.8 0 
L 0 0 
z
" style="fill:#ffffff;"/>
  </g>
  <g id="axes_1">
   <g id="patch_2">
    <path d="M 68.588821 277.574739 
L 439.2 277.574739 
L 439.2 21.6 
L 68.588821 21.6 
z
" style="fill:#ffffff;"/>
   </g>
   <g id="matplotlib.axis_1">
    <g id="xtick_1">
     <g id="line2d_1">
      <defs>
       <path d="M 0 0 
L 0 3.5 
" id="m3f3d3b9bfc" style="stroke:#000000;stroke-width:0.8;"/>
      </defs>
      <g>
       <use style="stroke:#000000;stroke-width:0.8;" x="85.434784" xlink:href="#m3f3d3b9bfc" y="277.574739"/>
      </g>
     </g>
     <g id="text_1">
      <!-- $\mathdefault{0}$ -->
      <g transform="translate(80.865736 298.411736)scale(0.2 -0.2)">
       <defs>
        <path d="M 42 31.640625 
C 42 37.75 41.90625 48.125 37.703125 56.109375 
C 34 63.109375 28.09375 65.59375 22.90625 65.59375 
C 18.09375 65.59375 12 63.40625 8.203125 56.203125 
C 4.203125 48.71875 3.796875 39.4375 3.796875 31.640625 
C 3.796875 25.953125 3.90625 17.28125 7 9.671875 
C 11.296875 -0.609375 19 -2 22.90625 -2 
C 27.5 -2 34.5 -0.109375 38.59375 9.375 
C 41.59375 16.28125 42 24.359375 42 31.640625 
z
M 22.90625 -0.40625 
C 16.5 -0.40625 12.703125 5.078125 11.296875 12.6875 
C 10.203125 18.5625 10.203125 27.15625 10.203125 32.75 
C 10.203125 40.4375 10.203125 46.828125 11.5 52.921875 
C 13.40625 61.390625 19 64 22.90625 64 
C 27 64 32.296875 61.296875 34.203125 53.125 
C 35.5 47.4375 35.59375 40.734375 35.59375 32.75 
C 35.59375 26.25 35.59375 18.265625 34.40625 12.375 
C 32.296875 1.484375 26.40625 -0.40625 22.90625 -0.40625 
z
" id="CMR17-48"/>
       </defs>
       <use transform="scale(0.996264)" xlink:href="#CMR17-48"/>
      </g>
     </g>
    </g>
    <g id="xtick_2">
     <g id="line2d_2">
      <g>
       <use style="stroke:#000000;stroke-width:0.8;" x="149.124624" xlink:href="#m3f3d3b9bfc" y="277.574739"/>
      </g>
     </g>
     <g id="text_2">
      <!-- $\mathdefault{200}$ -->
      <g transform="translate(135.417481 298.411736)scale(0.2 -0.2)">
       <defs>
        <path d="M 41.703125 15.453125 
L 39.90625 15.453125 
C 38.90625 8.375 38.09375 7.171875 37.703125 6.5625 
C 37.203125 5.765625 30 5.765625 28.59375 5.765625 
L 9.40625 5.765625 
C 13 9.671875 20 16.75 28.5 24.953125 
C 34.59375 30.734375 41.703125 37.53125 41.703125 47.421875 
C 41.703125 59.21875 32.296875 66 21.796875 66 
C 10.796875 66 4.09375 56.3125 4.09375 47.34375 
C 4.09375 43.4375 7 42.9375 8.203125 42.9375 
C 9.203125 42.9375 12.203125 43.546875 12.203125 47.03125 
C 12.203125 50.109375 9.59375 51 8.203125 51 
C 7.59375 51 7 50.90625 6.59375 50.703125 
C 8.5 59.21875 14.296875 63.40625 20.40625 63.40625 
C 29.09375 63.40625 34.796875 56.515625 34.796875 47.421875 
C 34.796875 38.734375 29.703125 31.25 24 24.75 
L 4.09375 2.28125 
L 4.09375 0 
L 39.296875 0 
z
" id="CMR17-50"/>
       </defs>
       <use transform="scale(0.996264)" xlink:href="#CMR17-50"/>
       <use transform="translate(45.690477 0)scale(0.996264)" xlink:href="#CMR17-48"/>
       <use transform="translate(91.380954 0)scale(0.996264)" xlink:href="#CMR17-48"/>
      </g>
     </g>
    </g>
    <g id="xtick_3">
     <g id="line2d_3">
      <g>
       <use style="stroke:#000000;stroke-width:0.8;" x="212.814464" xlink:href="#m3f3d3b9bfc" y="277.574739"/>
      </g>
     </g>
     <g id="text_3">
      <!-- $\mathdefault{400}$ -->
      <g transform="translate(199.107321 298.411736)scale(0.2 -0.2)">
       <defs>
        <path d="M 33.59375 64.40625 
C 33.59375 66.5 33.5 66.5 31.703125 66.5 
L 2 19.59375 
L 2 17 
L 27.796875 17 
L 27.796875 7.140625 
C 27.796875 3.5 27.59375 2.5 20.59375 2.5 
L 18.703125 2.5 
L 18.703125 0 
C 21.90625 0 27.296875 0 30.703125 0 
C 34.09375 0 39.5 0 42.703125 0 
L 42.703125 2.5 
L 40.796875 2.5 
C 33.796875 2.5 33.59375 3.5 33.59375 7.140625 
L 33.59375 17 
L 43.796875 17 
L 43.796875 19.59375 
L 33.59375 19.59375 
z
M 28.09375 57.859375 
L 28.09375 19.59375 
L 4 19.59375 
z
" id="CMR17-52"/>
       </defs>
       <use transform="scale(0.996264)" xlink:href="#CMR17-52"/>
       <use transform="translate(45.690477 0)scale(0.996264)" xlink:href="#CMR17-48"/>
       <use transform="translate(91.380954 0)scale(0.996264)" xlink:href="#CMR17-48"/>
      </g>
     </g>
    </g>
    <g id="xtick_4">
     <g id="line2d_4">
      <g>
       <use style="stroke:#000000;stroke-width:0.8;" x="276.504304" xlink:href="#m3f3d3b9bfc" y="277.574739"/>
      </g>
     </g>
     <g id="text_4">
      <!-- $\mathdefault{600}$ -->
      <g transform="translate(262.797161 298.411736)scale(0.2 -0.2)">
       <defs>
        <path d="M 10.59375 34 
C 10.59375 57.65625 21.796875 63 28.296875 63 
C 30.40625 63 35.5 62.640625 37.5 59 
C 35.90625 59 32.90625 59 32.90625 55.515625 
C 32.90625 52.828125 35.09375 51.921875 36.5 51.921875 
C 37.40625 51.921875 40.09375 52.3125 40.09375 55.625 
C 40.09375 61.78125 35.09375 65.296875 28.203125 65.296875 
C 16.296875 65.296875 3.796875 52.96875 3.796875 31 
C 3.796875 3.953125 15.09375 -2 23.09375 -2 
C 32.796875 -2 42 6.671875 42 20.046875 
C 42 32.515625 33.90625 41.59375 23.703125 41.59375 
C 17.59375 41.59375 13.09375 37.609375 10.59375 30.625 
z
M 23.09375 0.390625 
C 10.796875 0.390625 10.796875 18.75 10.796875 22.4375 
C 10.796875 29.625 14.203125 40 23.5 40 
C 25.203125 40 30.09375 40 33.40625 33.125 
C 35.203125 29.21875 35.203125 25.140625 35.203125 20.140625 
C 35.203125 14.75 35.203125 10.78125 33.09375 6.78125 
C 30.90625 2.671875 27.703125 0.390625 23.09375 0.390625 
z
" id="CMR17-54"/>
       </defs>
       <use transform="scale(0.996264)" xlink:href="#CMR17-54"/>
       <use transform="translate(45.690477 0)scale(0.996264)" xlink:href="#CMR17-48"/>
       <use transform="translate(91.380954 0)scale(0.996264)" xlink:href="#CMR17-48"/>
      </g>
     </g>
    </g>
    <g id="xtick_5">
     <g id="line2d_5">
      <g>
       <use style="stroke:#000000;stroke-width:0.8;" x="340.194144" xlink:href="#m3f3d3b9bfc" y="277.574739"/>
      </g>
     </g>
     <g id="text_5">
      <!-- $\mathdefault{800}$ -->
      <g transform="translate(326.487001 298.411736)scale(0.2 -0.2)">
       <defs>
        <path d="M 27.203125 35.375 
C 33.5 38.546875 39.90625 43.328125 39.90625 50.984375 
C 39.90625 60.015625 31.09375 65.296875 23 65.296875 
C 13.90625 65.296875 5.90625 58.734375 5.90625 49.6875 
C 5.90625 47.203125 6.5 42.921875 10.40625 39.140625 
C 11.40625 38.15625 15.59375 35.171875 18.296875 33.28125 
C 13.796875 30.984375 3.296875 25.53125 3.296875 14.59375 
C 3.296875 4.359375 13.09375 -2 22.796875 -2 
C 33.5 -2 42.5 5.65625 42.5 15.78125 
C 42.5 24.84375 36.40625 29.015625 32.40625 31.703125 
z
M 14.09375 44.09375 
C 13.296875 44.59375 9.296875 47.671875 9.296875 52.359375 
C 9.296875 58.421875 15.59375 63 22.796875 63 
C 30.703125 63 36.5 57.4375 36.5 50.96875 
C 36.5 41.703125 26.09375 36.421875 25.59375 36.421875 
C 25.5 36.421875 25.40625 36.421875 24.59375 37.03125 
z
M 32.5 23.734375 
C 34 22.640625 38.796875 19.375 38.796875 13.296875 
C 38.796875 5.953125 31.40625 0.390625 23 0.390625 
C 13.90625 0.390625 7 6.84375 7 14.6875 
C 7 22.546875 13.09375 29.09375 20 32.1875 
z
" id="CMR17-56"/>
       </defs>
       <use transform="scale(0.996264)" xlink:href="#CMR17-56"/>
       <use transform="translate(45.690477 0)scale(0.996264)" xlink:href="#CMR17-48"/>
       <use transform="translate(91.380954 0)scale(0.996264)" xlink:href="#CMR17-48"/>
      </g>
     </g>
    </g>
    <g id="xtick_6">
     <g id="line2d_6">
      <g>
       <use style="stroke:#000000;stroke-width:0.8;" x="403.883984" xlink:href="#m3f3d3b9bfc" y="277.574739"/>
      </g>
     </g>
     <g id="text_6">
      <!-- $\mathdefault{1000}$ -->
      <g transform="translate(385.607793 298.411736)scale(0.2 -0.2)">
       <defs>
        <path d="M 26.59375 63.40625 
C 26.59375 65.5 26.5 65.5 25.09375 65.5 
C 21.203125 61.1875 15.296875 59.796875 9.703125 59.796875 
C 9.40625 59.796875 8.90625 59.796875 8.796875 59.5 
C 8.703125 59.296875 8.703125 59.09375 8.703125 57 
C 11.796875 57 17 57.59375 21 59.984375 
L 21 7.203125 
C 21 3.6875 20.796875 2.5 12.203125 2.5 
L 9.203125 2.5 
L 9.203125 0 
C 14 0 19 0 23.796875 0 
C 28.59375 0 33.59375 0 38.40625 0 
L 38.40625 2.5 
L 35.40625 2.5 
C 26.796875 2.5 26.59375 3.59375 26.59375 7.15625 
z
" id="CMR17-49"/>
       </defs>
       <use transform="scale(0.996264)" xlink:href="#CMR17-49"/>
       <use transform="translate(45.690477 0)scale(0.996264)" xlink:href="#CMR17-48"/>
       <use transform="translate(91.380954 0)scale(0.996264)" xlink:href="#CMR17-48"/>
       <use transform="translate(137.071431 0)scale(0.996264)" xlink:href="#CMR17-48"/>
      </g>
     </g>
    </g>
    <g id="text_7">
     <!-- Epoch -->
     <g transform="translate(228.578875 320.124366)scale(0.2 -0.2)">
      <defs>
       <path d="M 60.703125 25.234375 
L 58.90625 25.234375 
C 56.703125 10.5625 55.40625 2.59375 37.796875 2.59375 
L 23.90625 2.59375 
C 19.90625 2.59375 19.703125 3.078125 19.703125 6.46875 
L 19.703125 34 
L 29.09375 34 
C 38.5 34 39.40625 30.625 39.40625 22.34375 
L 41.203125 22.34375 
L 41.203125 48.140625 
L 39.40625 48.140625 
C 39.40625 39.953125 38.5 36.59375 29.09375 36.59375 
L 19.703125 36.59375 
L 19.703125 61.140625 
C 19.703125 64.5 19.90625 65 23.90625 65 
L 37.59375 65 
C 53.09375 65 54.90625 58.890625 56.296875 45.765625 
L 58.09375 45.765625 
L 55.703125 67.578125 
L 5.09375 67.578125 
L 5.09375 65 
C 12 65 13.09375 65 13.09375 60.53125 
L 13.09375 7.046875 
C 13.09375 2.59375 12 2.59375 5.09375 2.59375 
L 5.09375 0 
L 57.09375 0 
z
" id="CMR17-69"/>
       <path d="M 22 -16.609375 
C 15.59375 -16.609375 15.203125 -16.203125 15.203125 -12.328125 
L 15.203125 6.28125 
C 18.09375 2.09375 22.296875 -0.59375 27.59375 -0.59375 
C 37.59375 -0.59375 47.703125 8.171875 47.703125 21.6875 
C 47.703125 34.234375 39 43.78125 28.703125 43.78125 
C 22.703125 43.78125 17.796875 40.5 15 36.53125 
L 15 43.78125 
L 3.09375 42.6875 
L 3.09375 40.109375 
C 9 40.109375 9.90625 39.5 9.90625 34.734375 
L 9.90625 -12.328125 
C 9.90625 -16.109375 9.5 -16.609375 3.09375 -16.609375 
L 3.09375 -19.1875 
C 5.5 -19 9.90625 -19 12.5 -19 
C 15.09375 -19 19.59375 -19 22 -19.1875 
z
M 15.203125 31.4375 
C 15.203125 32.84375 15.203125 34.921875 19.09375 38.609375 
C 19.59375 39.015625 23 42 28 42 
C 35.296875 42 41.296875 32.9375 41.296875 21.59375 
C 41.296875 10.25 34.90625 1 27 1 
C 23.40625 1 19.5 2.6875 16.5 7.375 
C 15.203125 9.5625 15.203125 10.15625 15.203125 11.75 
z
" id="CMR17-112"/>
       <path d="M 43.09375 21.1875 
C 43.09375 34 33.796875 44 22.90625 44 
C 12 44 2.703125 34 2.703125 21.1875 
C 2.703125 8.609375 12 -1 22.90625 -1 
C 33.796875 -1 43.09375 8.609375 43.09375 21.1875 
z
M 22.90625 0.796875 
C 18.203125 0.796875 14.203125 3.59375 11.90625 7.5 
C 9.40625 11.984375 9.09375 17.59375 9.09375 22 
C 9.09375 26.203125 9.296875 31.40625 11.90625 35.90625 
C 13.90625 39.203125 17.796875 42.40625 22.90625 42.40625 
C 27.40625 42.40625 31.203125 39.90625 33.59375 36.40625 
C 36.703125 31.703125 36.703125 25.109375 36.703125 22 
C 36.703125 18.09375 36.5 12.109375 33.796875 7.296875 
C 31 2.703125 26.703125 0.796875 22.90625 0.796875 
z
" id="CMR17-111"/>
       <path d="M 34.90625 35 
C 33 35 30.203125 35 30.203125 31.515625 
C 30.203125 28.71875 32.5 27.921875 33.796875 27.921875 
C 34.5 27.921875 37.40625 28.234375 37.40625 31.625 
C 37.40625 38.546875 30.59375 43.796875 22.90625 43.796875 
C 12.296875 43.796875 3.296875 34.03125 3.296875 21.296875 
C 3.296875 8.0625 12.703125 -1 22.90625 -1 
C 35.296875 -1 38.40625 10.578125 38.40625 11.6875 
C 38.40625 12.09375 38.296875 12.390625 37.59375 12.390625 
C 36.90625 12.390625 36.796875 12.296875 36.40625 10.984375 
C 33.796875 2.8125 28.09375 0.796875 23.796875 0.796875 
C 17.40625 0.796875 9.703125 6.671875 9.703125 21.390625 
C 9.703125 36.53125 17.09375 42 23 42 
C 26.90625 42 32.703125 40.203125 34.90625 35 
z
" id="CMR17-99"/>
       <path d="M 41.5 30.203125 
C 41.5 35.296875 40.5 43.59375 28.703125 43.59375 
C 20.5 43.59375 16.5 37 15.296875 33.703125 
L 15.203125 33.703125 
L 15.203125 68.6875 
L 3.296875 67.59375 
L 3.296875 65 
C 9.203125 65 10.09375 64.40625 10.09375 59.640625 
L 10.09375 6.65625 
C 10.09375 2.875 9.703125 2.390625 3.296875 2.390625 
L 3.296875 -0.203125 
C 5.703125 0 10.09375 0 12.703125 0 
C 15.296875 0 19.796875 0 22.203125 -0.203125 
L 22.203125 2.390625 
C 15.796875 2.390625 15.40625 2.78125 15.40625 6.6875 
L 15.40625 25.90625 
C 15.40625 35.109375 21 42 28 42 
C 35.40625 42 36.203125 35.40625 36.203125 30.59375 
L 36.203125 6.6875 
C 36.203125 2.875 35.796875 2.390625 29.40625 2.390625 
L 29.40625 -0.203125 
C 31.796875 0 36.203125 0 38.796875 0 
C 41.40625 0 45.90625 0 48.296875 -0.203125 
L 48.296875 2.390625 
C 41.90625 2.390625 41.5 2.78125 41.5 6.6875 
z
" id="CMR17-104"/>
      </defs>
      <use transform="scale(0.996264)" xlink:href="#CMR17-69"/>
      <use transform="translate(62.586301 0)scale(0.996264)" xlink:href="#CMR17-112"/>
      <use transform="translate(116.084109 0)scale(0.996264)" xlink:href="#CMR17-111"/>
      <use transform="translate(164.377025 0)scale(0.996264)" xlink:href="#CMR17-99"/>
      <use transform="translate(202.260231 0)scale(0.996264)" xlink:href="#CMR17-104"/>
     </g>
    </g>
   </g>
   <g id="matplotlib.axis_2">
    <g id="ytick_1">
     <g id="line2d_7">
      <defs>
       <path d="M 0 0 
L -3.5 0 
" id="m812e62df46" style="stroke:#000000;stroke-width:0.8;"/>
      </defs>
      <g>
       <use style="stroke:#000000;stroke-width:0.8;" x="68.588821" xlink:href="#m812e62df46" y="267.85163"/>
      </g>
     </g>
     <g id="text_8">
      <!-- $\mathdefault{0}$ -->
      <g transform="translate(52.450726 274.770128)scale(0.2 -0.2)">
       <use transform="scale(0.996264)" xlink:href="#CMR17-48"/>
      </g>
     </g>
    </g>
    <g id="ytick_2">
     <g id="line2d_8">
      <g>
       <use style="stroke:#000000;stroke-width:0.8;" x="68.588821" xlink:href="#m812e62df46" y="197.34579"/>
      </g>
     </g>
     <g id="text_9">
      <!-- $\mathdefault{5}$ -->
      <g transform="translate(52.450726 204.264288)scale(0.2 -0.2)">
       <defs>
        <path d="M 11.40625 57.6875 
C 12.40625 57.28125 16.5 56 20.703125 56 
C 30 56 35.09375 61.109375 38 64.0625 
C 38 64.953125 38 65.5 37.40625 65.5 
C 37.296875 65.5 37.09375 65.5 36.296875 65.046875 
C 32.796875 63.40625 28.703125 62.078125 23.703125 62.078125 
C 20.703125 62.078125 16.203125 62.484375 11.296875 64.671875 
C 10.203125 65.171875 10 65.171875 9.90625 65.171875 
C 9.40625 65.171875 9.296875 65.0625 9.296875 63.078125 
L 9.296875 34.421875 
C 9.296875 32.640625 9.296875 32.140625 10.296875 32.140625 
C 10.796875 32.140625 11 32.34375 11.5 33.03125 
C 14.703125 37.515625 19.09375 39.40625 24.09375 39.40625 
C 27.59375 39.40625 35.09375 37.21875 35.09375 20.140625 
C 35.09375 16.953125 35.09375 11.171875 32.09375 6.578125 
C 29.59375 2.484375 25.703125 0.390625 21.40625 0.390625 
C 14.796875 0.390625 8.09375 5 6.296875 12.71875 
C 6.703125 12.609375 7.5 12.421875 7.90625 12.421875 
C 9.203125 12.421875 11.703125 13.125 11.703125 16.21875 
C 11.703125 18.90625 9.796875 20 7.90625 20 
C 5.59375 20 4.09375 18.59375 4.09375 15.796875 
C 4.09375 7.09375 11 -2 21.59375 -2 
C 31.90625 -2 41.703125 6.875 41.703125 19.75 
C 41.703125 31.71875 33.90625 41 24.203125 41 
C 19.09375 41 14.796875 39.109375 11.40625 35.53125 
z
" id="CMR17-53"/>
       </defs>
       <use transform="scale(0.996264)" xlink:href="#CMR17-53"/>
      </g>
     </g>
    </g>
    <g id="ytick_3">
     <g id="line2d_9">
      <g>
       <use style="stroke:#000000;stroke-width:0.8;" x="68.588821" xlink:href="#m812e62df46" y="126.83995"/>
      </g>
     </g>
     <g id="text_10">
      <!-- $\mathdefault{10}$ -->
      <g transform="translate(43.31263 133.758448)scale(0.2 -0.2)">
       <use transform="scale(0.996264)" xlink:href="#CMR17-49"/>
       <use transform="translate(45.690477 0)scale(0.996264)" xlink:href="#CMR17-48"/>
      </g>
     </g>
    </g>
    <g id="ytick_4">
     <g id="line2d_10">
      <g>
       <use style="stroke:#000000;stroke-width:0.8;" x="68.588821" xlink:href="#m812e62df46" y="56.33411"/>
      </g>
     </g>
     <g id="text_11">
      <!-- $\mathdefault{15}$ -->
      <g transform="translate(43.31263 63.252608)scale(0.2 -0.2)">
       <use transform="scale(0.996264)" xlink:href="#CMR17-49"/>
       <use transform="translate(45.690477 0)scale(0.996264)" xlink:href="#CMR17-53"/>
      </g>
     </g>
    </g>
    <g id="text_12">
     <!-- MSE Loss -->
     <g transform="translate(35.436997 189.879276)rotate(-90)scale(0.2 -0.2)">
      <defs>
       <path d="M 20.90625 66 
C 20.296875 67.5 20.203125 67.5 18.09375 67.5 
L 5.296875 67.5 
L 5.296875 65 
C 12.203125 65 13.296875 65 13.296875 60.546875 
L 13.296875 9.53125 
C 13.296875 7.046875 13.296875 2.390625 5.296875 2.390625 
L 5.296875 -0.203125 
C 7.59375 0 11.796875 0 14.296875 0 
C 16.796875 0 21 0 23.296875 -0.203125 
L 23.296875 2.390625 
C 15.296875 2.390625 15.296875 7.046875 15.296875 9.53125 
L 15.296875 64.609375 
L 15.40625 64.609375 
L 38.90625 1.390625 
C 39.296875 0.390625 39.5 -0.203125 40.296875 -0.203125 
C 41.09375 -0.203125 41.296875 0.390625 41.703125 1.390625 
L 65.40625 65.09375 
L 65.5 65.09375 
L 65.5 6.84375 
C 65.5 2.390625 64.40625 2.390625 57.5 2.390625 
L 57.5 -0.203125 
C 60.203125 0 65.59375 0 68.5 0 
C 71.40625 0 76.90625 0 79.59375 -0.203125 
L 79.59375 2.390625 
C 72.703125 2.390625 71.59375 2.390625 71.59375 6.84375 
L 71.59375 60.546875 
C 71.59375 65 72.703125 65 79.59375 65 
L 79.59375 67.5 
L 66.90625 67.5 
C 64.796875 67.5 64.703125 67.40625 64.09375 65.90625 
L 42.5 7.84375 
z
" id="CMR17-77"/>
       <path d="M 43.796875 67.03125 
C 43.796875 68.8125 43.703125 68.921875 43.09375 68.921875 
C 42.5 68.921875 42.296875 68.515625 41.90625 67.625 
L 38.90625 61.046875 
C 35.09375 66.515625 29.296875 69 23 69 
C 12.796875 69 4.59375 60.953125 4.59375 50.828125 
C 4.59375 47.75 5.296875 43.375 8.703125 39.21875 
C 12.40625 34.65625 15.90625 33.859375 23.90625 31.765625 
C 26.90625 30.96875 31.90625 29.671875 32.90625 29.28125 
C 38.59375 26.90625 41.59375 20.953125 41.59375 15.390625 
C 41.59375 8.234375 36.5 0.59375 27.796875 0.59375 
C 17.09375 0.59375 7.09375 6.546875 6.40625 20.484375 
C 6.296875 22.078125 6.203125 22.171875 5.5 22.171875 
C 4.703125 22.171875 4.59375 22.078125 4.59375 20.078125 
L 4.59375 -0.015625 
C 4.59375 -1.796875 4.703125 -1.90625 5.296875 -1.90625 
C 6 -1.90625 6.203125 -1.40625 7.59375 1.6875 
C 7.703125 1.984375 7.703125 2.1875 9.59375 5.953125 
C 14.59375 -0.609375 23 -2 27.796875 -2 
C 38.703125 -2 46.40625 7.046875 46.40625 17.5625 
C 46.40625 22.71875 44.5 26.6875 43.40625 28.484375 
C 39.203125 34.84375 34.703125 36.03125 29.90625 37.21875 
C 29.203125 37.53125 29 37.53125 23.40625 38.90625 
C 18 40.296875 15.703125 41 13.203125 43.6875 
C 10.40625 46.75 9.40625 49.9375 9.40625 53.109375 
C 9.40625 59.5625 14.59375 66.609375 23.09375 66.609375 
C 33.703125 66.609375 40.296875 59.15625 41.796875 46.765625 
C 42.09375 44.96875 42.203125 44.875 42.90625 44.875 
C 43.796875 44.875 43.796875 45.171875 43.796875 46.859375 
z
" id="CMR17-83"/>
       <path d="M 54.203125 25.234375 
L 52.40625 25.234375 
C 51.59375 15.359375 50.296875 2.59375 33.203125 2.59375 
L 23.90625 2.59375 
C 19.90625 2.59375 19.703125 3.078125 19.703125 6.46875 
L 19.703125 60.90625 
C 19.703125 64.515625 19.90625 65.5 27.5 65.5 
L 29.703125 65.5 
L 29.703125 68 
C 25.59375 68 20.796875 68 16.703125 68 
C 13.59375 68 8 68 5.09375 68 
L 5.09375 65.5 
C 12 65.5 13.09375 65.5 13.09375 61.015625 
L 13.09375 7.0625 
C 13.09375 2.59375 12 2.59375 5.09375 2.59375 
L 5.09375 0 
L 51.796875 0 
z
" id="CMR17-76"/>
       <path d="M 30.90625 42.140625 
C 30.90625 43.953125 30.796875 44.046875 30.203125 44.046875 
C 29.796875 44.046875 29.703125 43.953125 28.5 42.453125 
C 28.203125 42.046875 27.296875 41.03125 27 40.640625 
C 23.796875 44.046875 19.296875 44.046875 17.59375 44.046875 
C 6.5 44.046875 2.5 38.234375 2.5 32.4375 
C 2.5 23.40625 12.703125 21.328125 15.59375 20.703125 
C 21.90625 19.421875 24.09375 19.015625 26.203125 17.203125 
C 27.5 16.015625 29.703125 13.8125 29.703125 10.21875 
C 29.703125 6 27.296875 0.59375 18.09375 0.59375 
C 9.40625 0.59375 6.296875 7.1875 4.5 15.953125 
C 4.203125 17.34375 4.203125 17.453125 3.40625 17.453125 
C 2.59375 17.453125 2.5 17.34375 2.5 15.359375 
L 2.5 0.984375 
C 2.5 -0.796875 2.59375 -0.90625 3.203125 -0.90625 
C 3.703125 -0.90625 3.796875 -0.796875 4.296875 0 
C 4.90625 0.890625 6.40625 3.296875 7 4.3125 
C 9 1.609375 12.5 -1 18.09375 -1 
C 28 -1 33.296875 4.421875 33.296875 12.25 
C 33.296875 17.375 30.59375 20.078125 29.296875 21.28125 
C 26.296875 24.390625 22.796875 25.09375 18.59375 25.890625 
C 13.09375 27.109375 6.09375 28.515625 6.09375 34.640625 
C 6.09375 37.234375 7.5 42.765625 17.59375 42.765625 
C 28.296875 42.765625 28.90625 32.71875 29.09375 29.5 
C 29.203125 29 29.703125 28.890625 30 28.890625 
C 30.90625 28.890625 30.90625 29.203125 30.90625 30.90625 
z
" id="CMR17-115"/>
      </defs>
      <use transform="scale(0.996264)" xlink:href="#CMR17-77"/>
      <use transform="translate(84.686941 0)scale(0.996264)" xlink:href="#CMR17-83"/>
      <use transform="translate(135.58231 0)scale(0.996264)" xlink:href="#CMR17-69"/>
      <use transform="translate(228.244577 0)scale(0.996264)" xlink:href="#CMR17-76"/>
      <use transform="translate(285.625985 0)scale(0.996264)" xlink:href="#CMR17-111"/>
      <use transform="translate(331.316462 0)scale(0.996264)" xlink:href="#CMR17-115"/>
      <use transform="translate(367.1178 0)scale(0.996264)" xlink:href="#CMR17-115"/>
     </g>
    </g>
   </g>
   <g id="line2d_11">
    <path clip-path="url(#p9194093b4c)" d="M 85.434784 33.235215 
L 85.753233 178.065946 
L 86.071682 192.814782 
L 86.708581 236.722454 
L 87.02703 238.859842 
L 87.345479 245.533769 
L 87.663928 247.154031 
L 87.982377 249.423404 
L 89.256174 254.174408 
L 89.574623 254.462811 
L 89.893073 255.430674 
L 90.529971 255.619698 
L 90.84842 252.676053 
L 91.485319 251.814499 
L 92.122217 256.281345 
L 92.440666 257.160022 
L 92.759115 257.258407 
L 93.077565 258.170799 
L 93.396014 258.504019 
L 93.714463 259.000932 
L 94.032912 259.16809 
L 94.669811 259.84098 
L 94.98826 259.865785 
L 95.625158 260.409692 
L 96.262057 260.085273 
L 96.580506 260.195774 
L 96.898955 258.326505 
L 97.217404 255.390969 
L 97.535853 254.80068 
L 97.854303 251.731563 
L 98.172752 255.148455 
L 98.80965 258.671683 
L 99.128099 258.478144 
L 99.446549 259.742508 
L 99.764998 259.846303 
L 100.083447 260.554799 
L 100.401896 260.514047 
L 100.720345 261.071529 
L 101.675693 261.511796 
L 101.994142 261.316271 
L 102.631041 261.183917 
L 102.94949 259.964561 
L 103.267939 260.070904 
L 103.586388 259.429091 
L 103.904837 257.26368 
L 104.223287 258.986246 
L 104.541736 258.378472 
L 104.860185 259.676021 
L 105.497083 259.989329 
L 105.815533 261.35054 
L 106.133982 261.138056 
L 106.452431 261.823683 
L 107.089329 261.930876 
L 107.407779 262.33025 
L 107.726228 261.975825 
L 108.044677 262.304143 
L 108.363126 262.40562 
L 108.681575 261.791012 
L 109.000025 262.172463 
L 109.318474 261.647881 
L 109.636923 260.525649 
L 109.955372 260.959177 
L 110.273821 259.302509 
L 110.592271 258.464784 
L 110.91072 260.162819 
L 111.229169 260.244335 
L 111.547618 261.396426 
L 112.184517 262.555899 
L 112.502966 262.508195 
L 112.821415 262.701609 
L 113.139864 262.492365 
L 113.776763 262.924012 
L 114.095212 262.556697 
L 114.413661 262.743128 
L 114.73211 262.730588 
L 115.050559 262.131355 
L 115.369009 262.39941 
L 115.687458 261.912333 
L 116.005907 260.953323 
L 116.324356 261.236306 
L 116.642805 259.966695 
L 117.279704 259.819099 
L 117.598153 258.991097 
L 117.916602 261.121495 
L 118.553501 261.911909 
L 118.87195 262.785664 
L 119.190399 262.57508 
L 119.508848 263.175165 
L 119.827297 263.098873 
L 120.145747 262.714402 
L 120.464196 262.933036 
L 120.782645 262.81699 
L 121.101094 262.059315 
L 121.419543 262.449262 
L 122.056442 261.375525 
L 122.374891 261.573927 
L 122.69334 261.049663 
L 123.330239 261.426343 
L 123.648688 261.429558 
L 123.967137 262.61478 
L 124.285586 262.478406 
L 124.604035 262.818487 
L 124.922485 263.408021 
L 125.240934 263.347002 
L 125.559383 263.600137 
L 126.514731 263.724937 
L 126.83318 263.475862 
L 127.151629 263.474329 
L 127.470078 263.118226 
L 127.788527 262.315166 
L 128.106977 262.453201 
L 128.743875 260.802059 
L 129.380773 261.526889 
L 129.699223 261.304057 
L 130.017672 262.403637 
L 130.336121 262.684403 
L 130.973019 263.417173 
L 131.291469 263.113796 
L 131.609918 263.644599 
L 131.928367 263.709987 
L 132.246816 263.510588 
L 132.565265 263.752314 
L 132.883715 263.780257 
L 133.202164 263.469485 
L 133.520613 263.466047 
L 133.839062 263.228811 
L 134.157511 262.647009 
L 134.475961 262.43066 
L 135.112859 260.755805 
L 135.431308 261.308342 
L 135.749757 260.985069 
L 136.068207 261.242037 
L 136.386656 262.848914 
L 137.342003 263.764971 
L 137.660453 263.722534 
L 138.297351 264.016545 
L 138.6158 263.997793 
L 138.934249 264.170664 
L 139.889597 264.188973 
L 140.208046 264.126749 
L 140.526495 263.909673 
L 140.844945 263.981096 
L 141.481843 263.200603 
L 141.800292 263.043284 
L 142.118741 262.000817 
L 142.437191 261.812731 
L 143.392538 260.776478 
L 143.710987 262.369019 
L 144.347886 262.735993 
L 144.666335 263.678489 
L 144.984784 263.629041 
L 145.621683 264.067774 
L 145.940132 264.032877 
L 146.895479 264.257112 
L 147.532378 264.192284 
L 148.487725 263.797996 
L 148.806175 263.155514 
L 149.124624 263.395928 
L 149.443073 262.754277 
L 149.761522 261.722493 
L 150.079971 262.352238 
L 150.398421 261.610729 
L 150.71687 261.359084 
L 151.035319 261.845199 
L 151.353768 261.152298 
L 151.672217 262.351104 
L 151.990667 262.819476 
L 152.309116 262.585023 
L 152.627565 263.951629 
L 152.946014 263.653506 
L 153.264463 264.128209 
L 153.901362 264.171399 
L 154.219811 264.357399 
L 154.53826 264.233387 
L 154.856709 264.306039 
L 155.175159 264.217388 
L 155.493608 263.989201 
L 155.812057 263.939376 
L 156.448955 263.120758 
L 156.767405 263.026532 
L 157.085854 262.700399 
L 157.404303 262.144445 
L 157.722752 262.714586 
L 158.041201 262.99402 
L 158.359651 262.680603 
L 158.6781 263.56661 
L 159.314998 263.778868 
L 159.633447 264.033036 
L 159.951897 263.708166 
L 160.270346 264.131807 
L 160.588795 264.129059 
L 160.907244 263.80853 
L 161.225693 264.131708 
L 161.544143 264.00583 
L 161.862592 263.608931 
L 162.181041 263.762249 
L 162.49949 263.539825 
L 162.817939 263.076888 
L 163.136389 263.367603 
L 163.454838 263.23929 
L 163.773287 262.844821 
L 164.091736 263.607509 
L 164.728635 263.334525 
L 165.047084 264.04108 
L 165.365533 263.9996 
L 165.683982 264.087088 
L 166.002431 264.455946 
L 166.63933 264.479517 
L 166.957779 264.628824 
L 168.231576 264.184882 
L 168.550025 264.073638 
L 168.868474 263.362044 
L 169.186923 262.980753 
L 169.505373 262.856471 
L 169.823822 261.626513 
L 170.142271 262.220764 
L 171.416068 263.524136 
L 171.734517 264.204196 
L 172.052966 264.265453 
L 172.371415 264.201297 
L 172.689865 264.507826 
L 173.008314 264.659863 
L 173.326763 264.48239 
L 173.963661 264.726522 
L 174.282111 264.448865 
L 174.60056 264.582312 
L 174.919009 264.537106 
L 175.237458 263.95174 
L 175.555907 264.140365 
L 175.874357 263.855693 
L 176.192806 263.122446 
L 176.511255 263.530238 
L 177.148153 262.706573 
L 177.466603 263.155213 
L 177.785052 263.237631 
L 178.103501 263.108748 
L 178.42195 263.42467 
L 178.740399 263.427034 
L 179.377298 264.042149 
L 179.695747 263.779371 
L 180.014196 264.39027 
L 180.332645 264.529775 
L 180.651095 264.373076 
L 180.969544 264.712895 
L 181.287993 264.756728 
L 181.606442 264.597961 
L 181.924891 264.74803 
L 182.243341 264.685727 
L 182.56179 264.398804 
L 182.880239 264.475589 
L 183.517137 263.643539 
L 183.835587 263.74534 
L 184.472485 262.818313 
L 184.790934 263.328643 
L 185.109383 263.503978 
L 185.427833 263.359029 
L 185.746282 263.866885 
L 186.064731 264.037888 
L 186.38318 263.823427 
L 186.701629 263.965273 
L 187.020079 263.741942 
L 187.338528 263.982855 
L 187.656977 264.062796 
L 187.975426 263.739393 
L 188.293875 264.314161 
L 188.612325 264.399612 
L 188.930774 264.180545 
L 189.249223 264.620229 
L 189.567672 264.741322 
L 189.886121 264.507543 
L 190.204571 264.735606 
L 190.52302 264.733738 
L 190.841469 264.446247 
L 191.159918 264.597693 
L 191.478367 264.408275 
L 191.796817 264.049266 
L 192.115266 264.168322 
L 192.752164 263.532902 
L 193.070613 263.804003 
L 193.389063 263.814911 
L 193.707512 263.578715 
L 194.025961 264.149252 
L 194.34441 264.301474 
L 194.662859 263.929825 
L 195.299758 264.262933 
L 195.618207 263.967294 
L 196.255105 263.837318 
L 196.573555 263.934121 
L 197.210453 263.564687 
L 197.528902 264.268065 
L 198.165801 264.126375 
L 198.48425 264.627693 
L 198.802699 264.697253 
L 199.121148 264.614407 
L 199.439597 264.865591 
L 199.758047 264.923812 
L 200.076496 264.734394 
L 200.394945 264.907084 
L 200.713394 264.825049 
L 201.031843 264.544979 
L 201.350293 264.637324 
L 201.987191 263.903481 
L 202.30564 263.917507 
L 202.624089 263.354077 
L 202.942539 263.107217 
L 203.260988 263.583667 
L 203.579437 263.604813 
L 203.897886 263.457491 
L 204.216335 264.354004 
L 204.534785 264.421329 
L 204.853234 264.09833 
L 205.171683 264.457918 
L 205.490132 264.617053 
L 205.808581 264.210622 
L 206.127031 264.252331 
L 206.44548 264.481665 
L 207.082378 264.220999 
L 207.400827 264.2238 
L 207.719277 264.51186 
L 208.356175 264.007016 
L 208.674624 264.536964 
L 209.311523 264.114661 
L 209.629972 264.563284 
L 210.26687 264.19375 
L 210.585319 264.593212 
L 210.903769 264.519248 
L 211.222218 264.241535 
L 211.540667 264.657573 
L 211.859116 264.579858 
L 212.177565 264.273973 
L 212.496015 264.651136 
L 212.814464 264.562766 
L 213.132913 264.132642 
L 213.451362 264.433896 
L 213.769811 264.330883 
L 214.088261 263.948053 
L 214.40671 264.173356 
L 215.043608 264.045347 
L 215.362057 264.143358 
L 215.680507 263.992109 
L 215.998956 264.328692 
L 216.317405 264.397457 
L 216.635854 264.251732 
L 216.954303 264.637187 
L 217.272753 264.659885 
L 217.591202 264.395737 
L 217.909651 264.71668 
L 218.2281 264.720904 
L 218.546549 264.398467 
L 218.864999 264.731252 
L 219.183448 264.734122 
L 219.501897 264.398929 
L 219.820346 264.741614 
L 220.138795 264.723818 
L 220.457245 264.416711 
L 220.775694 264.719664 
L 221.094143 264.620139 
L 221.412592 264.193912 
L 221.731041 264.382106 
L 222.049491 264.259954 
L 222.36794 263.627215 
L 222.686389 263.817589 
L 223.323287 263.15661 
L 224.278635 264.06588 
L 225.552432 264.825978 
L 225.870881 264.657776 
L 226.507779 265.122816 
L 226.826229 264.939546 
L 227.463127 265.146454 
L 228.100025 264.865137 
L 228.418475 264.820264 
L 229.692271 263.366114 
L 230.010721 263.123861 
L 230.32917 263.170225 
L 230.647619 263.625421 
L 230.966068 263.703886 
L 231.284517 263.980894 
L 231.602967 264.551747 
L 231.921416 264.772498 
L 232.239865 264.486404 
L 232.558314 264.800115 
L 233.195213 265.037617 
L 233.832111 264.992367 
L 234.15056 265.196281 
L 234.787459 264.974585 
L 235.105908 265.140669 
L 235.742806 264.680247 
L 236.061255 264.773839 
L 236.698154 264.056304 
L 237.016603 264.272224 
L 237.653501 263.688621 
L 237.971951 264.06348 
L 238.608849 263.977211 
L 239.245747 263.765136 
L 239.564197 264.096447 
L 239.882646 264.213687 
L 240.201095 263.832094 
L 240.519544 264.740572 
L 242.11179 265.177136 
L 242.748689 264.761765 
L 243.067138 264.988171 
L 243.704036 264.169246 
L 244.022485 264.627409 
L 244.340935 264.231871 
L 244.659384 264.247459 
L 244.977833 264.578334 
L 245.296282 264.649923 
L 245.614731 264.5418 
L 246.25163 264.682235 
L 246.888528 264.332398 
L 247.206977 264.063403 
L 247.525427 264.442449 
L 248.162325 264.040742 
L 248.480774 264.814937 
L 249.117673 264.677887 
L 249.754571 265.162923 
L 250.391469 264.903751 
L 251.028368 264.989539 
L 251.346817 264.681763 
L 251.665266 264.662561 
L 251.983715 264.843915 
L 252.302165 264.412474 
L 252.620614 264.297582 
L 252.939063 264.668496 
L 253.257512 264.27063 
L 253.575961 264.205004 
L 253.894411 264.753294 
L 254.21286 264.710655 
L 254.531309 264.537195 
L 255.168207 265.014278 
L 256.123555 264.61552 
L 256.442004 264.777867 
L 257.078903 264.115765 
L 257.397352 264.746611 
L 258.03425 264.385188 
L 258.352699 265.001251 
L 258.671149 265.057993 
L 258.989598 264.961704 
L 259.626496 265.270294 
L 260.900293 264.88712 
L 261.218742 264.364013 
L 261.537191 264.196265 
L 261.855641 264.220517 
L 262.17409 263.560672 
L 262.492539 263.57308 
L 262.810988 264.350306 
L 263.129437 264.170728 
L 263.447887 264.143679 
L 263.766336 264.774967 
L 264.084785 264.90013 
L 264.403234 264.847643 
L 265.040133 265.129142 
L 265.358582 265.16254 
L 265.99548 265.011621 
L 266.313929 265.175346 
L 266.632379 264.835055 
L 266.950828 264.681142 
L 267.269277 264.936663 
L 267.587726 264.608804 
L 267.906175 264.536411 
L 268.224625 264.912189 
L 268.861523 264.687075 
L 269.498421 264.974204 
L 270.453769 264.602256 
L 270.772218 264.598796 
L 271.090667 264.069096 
L 271.409117 263.87731 
L 271.727566 264.359297 
L 272.046015 263.960062 
L 272.364464 263.910289 
L 272.682913 264.794397 
L 273.319812 264.84504 
L 273.95671 265.23003 
L 274.275159 265.272081 
L 274.912058 265.071795 
L 275.230507 265.259858 
L 275.548956 265.017269 
L 275.867405 264.630473 
L 276.185855 265.020797 
L 276.504304 264.867484 
L 276.822753 264.533158 
L 277.141202 264.872567 
L 277.459651 264.82649 
L 277.778101 264.665953 
L 278.414999 264.717713 
L 278.733448 264.609112 
L 279.370347 264.156906 
L 279.688796 264.467877 
L 280.007245 264.433469 
L 280.325694 264.264528 
L 280.644143 264.974853 
L 280.962593 265.111334 
L 281.281042 265.03629 
L 281.91794 265.316689 
L 282.236389 265.331798 
L 282.873288 265.057295 
L 283.191737 265.194595 
L 283.828635 264.445605 
L 284.147085 264.82482 
L 284.783983 264.114884 
L 285.102432 264.691283 
L 285.420881 264.503873 
L 286.05778 264.709086 
L 286.376229 264.566377 
L 286.694678 264.832853 
L 287.331577 264.410409 
L 287.650026 264.931569 
L 288.286924 264.735868 
L 288.605373 265.26276 
L 288.923823 265.375213 
L 289.560721 265.396433 
L 290.197619 265.461578 
L 290.834518 264.967015 
L 291.152967 264.976659 
L 291.789865 264.001197 
L 292.108315 264.425331 
L 292.745213 263.758674 
L 293.063662 264.556105 
L 293.382111 264.528556 
L 293.700561 264.622267 
L 294.337459 264.451313 
L 294.655908 264.863799 
L 295.292807 264.567907 
L 295.611256 265.15219 
L 295.929705 265.066202 
L 296.248154 265.172019 
L 296.566603 265.447227 
L 297.521951 265.5761 
L 297.8404 265.519766 
L 298.158849 265.589403 
L 299.114197 265.078169 
L 299.432646 264.422508 
L 299.751095 264.140383 
L 300.069545 264.374667 
L 300.387994 263.968774 
L 300.706443 263.990669 
L 301.024892 264.541503 
L 301.343341 264.724341 
L 302.298689 264.615621 
L 302.617138 265.054858 
L 302.935587 265.125795 
L 303.254037 264.847511 
L 303.572486 265.315038 
L 303.890935 265.281598 
L 304.209384 265.112987 
L 304.527833 265.424815 
L 306.756978 265.310047 
L 307.075427 265.080445 
L 307.393876 265.217254 
L 307.712325 264.975459 
L 308.030775 264.577782 
L 308.349224 264.722179 
L 308.986122 264.271605 
L 309.623021 264.178204 
L 310.259919 264.499626 
L 310.578368 264.429336 
L 310.896817 264.909244 
L 311.215267 265.174893 
L 311.533716 265.184092 
L 312.489063 265.548778 
L 312.807513 265.463201 
L 313.125962 265.233394 
L 313.444411 265.339873 
L 313.76286 265.20792 
L 314.081309 264.613711 
L 314.399759 264.76481 
L 314.718208 264.750161 
L 315.036657 264.327202 
L 315.355106 264.658691 
L 315.673555 264.478383 
L 316.310454 264.865915 
L 316.628903 264.601029 
L 316.947352 265.175328 
L 317.265801 265.161544 
L 317.584251 264.853137 
L 317.9027 265.353553 
L 318.221149 265.324771 
L 318.539598 265.113882 
L 318.858047 265.406949 
L 319.176497 265.441714 
L 319.494946 265.319549 
L 320.131844 265.477107 
L 320.450293 265.326935 
L 320.768743 265.438495 
L 321.087192 265.392728 
L 321.405641 265.163573 
L 321.72409 265.164908 
L 322.042539 265.016194 
L 322.360989 264.649442 
L 322.997887 264.300221 
L 323.316336 264.407753 
L 323.953235 264.015408 
L 324.271684 264.777189 
L 324.908582 264.715689 
L 325.227031 265.132851 
L 326.182379 265.392441 
L 327.137727 265.485265 
L 327.456176 265.226611 
L 327.774625 265.323641 
L 328.093074 265.159184 
L 328.411523 264.645887 
L 328.729973 264.961579 
L 329.366871 264.449823 
L 329.68532 264.932412 
L 330.003769 264.68769 
L 330.322219 264.788562 
L 330.640668 265.0989 
L 330.959117 264.582123 
L 331.277566 265.100512 
L 331.596015 265.067252 
L 331.914465 264.650857 
L 332.232914 265.213802 
L 332.551363 265.174199 
L 332.869812 264.97114 
L 333.188261 265.42799 
L 333.82516 265.322298 
L 334.143609 265.52519 
L 334.462058 265.505914 
L 334.780507 265.35657 
L 335.098957 265.473141 
L 335.417406 265.384273 
L 335.735855 265.116658 
L 336.054304 265.258591 
L 336.372753 265.065702 
L 336.691203 264.735368 
L 337.009652 264.860624 
L 337.64655 264.627139 
L 338.283449 264.619288 
L 338.601898 264.945298 
L 339.238796 264.7508 
L 339.557245 265.143233 
L 340.194144 265.044413 
L 340.831042 265.425711 
L 341.467941 265.459298 
L 342.104839 265.508914 
L 342.741737 265.281577 
L 343.060187 265.437379 
L 343.378636 265.377152 
L 343.697085 264.937755 
L 344.015534 265.115681 
L 344.652433 264.534208 
L 344.970882 264.991236 
L 345.60778 264.569727 
L 345.926229 264.816085 
L 346.244679 264.531282 
L 346.881577 264.93575 
L 347.200026 264.413961 
L 347.518475 265.200796 
L 347.836925 265.21562 
L 348.155374 265.041205 
L 348.473823 265.549185 
L 349.110721 265.483758 
L 349.429171 265.628263 
L 349.74762 265.641383 
L 350.066069 265.499059 
L 350.384518 265.541536 
L 350.702967 265.437305 
L 351.021417 265.011287 
L 351.339866 264.968742 
L 351.658315 264.746312 
L 351.976764 264.32659 
L 352.295213 264.57471 
L 352.613663 264.380942 
L 353.250561 264.908421 
L 353.56901 264.772793 
L 353.887459 265.404766 
L 354.524358 265.349883 
L 355.161256 265.525008 
L 356.435053 265.272284 
L 356.753502 265.026699 
L 357.071951 264.923309 
L 357.390401 265.02206 
L 358.027299 264.845279 
L 358.345748 265.169811 
L 358.664197 265.200661 
L 358.982647 264.912086 
L 359.619545 265.223286 
L 359.937994 265.151931 
L 360.256443 265.266196 
L 360.574893 265.173082 
L 361.211791 265.541627 
L 361.53024 265.203036 
L 362.167139 265.502402 
L 362.485588 265.130076 
L 362.804037 265.092988 
L 363.440935 265.160689 
L 364.077834 265.069228 
L 364.396283 265.452007 
L 365.033181 265.177029 
L 365.351631 265.564982 
L 365.988529 265.158063 
L 366.306978 265.524436 
L 366.943877 265.176247 
L 367.262326 265.521274 
L 367.580775 265.490215 
L 367.899224 265.284368 
L 368.217673 265.471979 
L 368.536123 265.45327 
L 368.854572 265.184873 
L 369.49147 265.240381 
L 369.809919 265.061503 
L 370.128369 265.341017 
L 370.446818 265.035551 
L 370.765267 265.073204 
L 371.083716 265.407168 
L 371.402165 265.039336 
L 371.720615 265.296009 
L 372.675962 264.806286 
L 373.312861 264.92438 
L 373.63131 264.938697 
L 373.949759 264.683357 
L 374.586657 265.397427 
L 374.905107 265.05391 
L 375.223556 265.484777 
L 375.542005 265.63332 
L 375.860454 265.505955 
L 376.497353 265.739614 
L 378.408048 265.364609 
L 378.726497 264.948687 
L 379.044946 265.062735 
L 379.363395 264.84528 
L 379.681845 264.374884 
L 380.000294 264.798162 
L 380.318743 264.263923 
L 380.955641 265.040371 
L 381.274091 264.735569 
L 381.59254 265.249349 
L 381.910989 265.456829 
L 382.229438 265.338778 
L 382.866337 265.708287 
L 383.184786 265.533734 
L 383.503235 265.735668 
L 383.821684 265.772486 
L 384.140133 265.478695 
L 384.458583 265.652868 
L 384.777032 265.468222 
L 385.095481 265.065311 
L 385.41393 265.281337 
L 385.732379 264.850112 
L 386.050829 264.755579 
L 386.369278 265.093957 
L 386.687727 264.842881 
L 387.006176 264.946042 
L 387.643075 264.611213 
L 388.598422 265.104295 
L 388.916871 265.515416 
L 389.235321 265.659958 
L 389.55377 265.504493 
L 390.190668 265.720769 
L 390.509117 265.565248 
L 390.827567 265.673644 
L 391.464465 265.354384 
L 391.782914 265.481835 
L 392.419813 264.995942 
L 392.738262 265.071974 
L 393.056711 264.969665 
L 393.37516 264.985586 
L 393.693609 265.237985 
L 394.330508 265.129155 
L 394.648957 265.467354 
L 394.967406 265.219977 
L 395.604305 265.643769 
L 395.922754 265.472501 
L 396.559652 265.765757 
L 396.878101 265.545973 
L 397.515 265.512653 
L 398.788797 264.506291 
L 399.425695 264.284143 
L 399.744144 264.89209 
L 400.062593 265.096457 
L 400.381043 264.955499 
L 400.699492 265.446287 
L 401.33639 265.555604 
L 402.291738 265.553236 
L 403.565535 265.634879 
L 403.883984 265.502182 
L 404.202433 265.53901 
L 404.839331 265.277488 
L 405.157781 265.391616 
L 405.47623 265.216057 
L 406.113128 265.443683 
L 406.431577 265.137763 
L 406.750027 265.377416 
L 407.068476 265.476981 
L 407.386925 265.183964 
L 408.023823 265.419089 
L 408.660722 265.170218 
L 409.29762 265.506418 
L 409.934519 265.397707 
L 410.252968 265.705928 
L 410.571417 265.751053 
L 410.889866 265.557931 
L 411.526765 265.75419 
L 411.845214 265.451042 
L 412.482112 265.384411 
L 412.800561 265.274652 
L 413.119011 265.48587 
L 413.755909 265.374857 
L 414.074358 265.55887 
L 414.392807 265.485582 
L 415.348155 265.636262 
L 415.985053 265.61112 
L 416.303503 265.345673 
L 416.940401 265.261909 
L 417.25885 265.099526 
L 417.577299 265.210746 
L 418.214198 264.963185 
L 418.532647 264.985056 
L 418.851096 264.551953 
L 419.487995 265.204331 
L 419.806444 264.852731 
L 420.124893 265.460493 
L 420.443342 265.628693 
L 420.761791 265.427435 
L 421.39869 265.696922 
L 422.354037 265.939524 
L 422.354037 265.939524 
" style="fill:none;stroke:#4c72b0;stroke-linecap:square;stroke-width:2;"/>
   </g>
   <g id="line2d_12">
    <path clip-path="url(#p9194093b4c)" d="M 85.434784 157.685683 
L 85.753233 219.028157 
L 86.071682 187.511009 
L 86.390131 220.204006 
L 86.708581 230.385555 
L 87.02703 230.666694 
L 87.345479 221.835148 
L 88.300827 243.591088 
L 88.619276 241.223323 
L 88.937725 243.225137 
L 89.256174 246.723496 
L 89.574623 246.097226 
L 89.893073 243.822818 
L 90.211522 246.114435 
L 90.529971 246.797544 
L 90.84842 240.910339 
L 91.166869 237.991414 
L 91.485319 248.966466 
L 91.803768 241.49544 
L 92.122217 246.385377 
L 92.440666 243.480402 
L 92.759115 248.116517 
L 93.077565 245.146378 
L 93.396014 248.29696 
L 93.714463 246.875985 
L 94.032912 246.832508 
L 94.351361 247.186656 
L 94.669811 246.675616 
L 94.98826 247.547734 
L 95.306709 247.469968 
L 95.625158 246.907892 
L 95.943607 248.678177 
L 96.262057 247.022437 
L 96.580506 244.714262 
L 96.898955 250.310907 
L 97.535853 235.569453 
L 97.854303 251.445683 
L 98.172752 241.548435 
L 98.491201 247.566652 
L 98.80965 245.528625 
L 99.128099 248.681813 
L 99.446549 245.62122 
L 99.764998 249.761864 
L 100.083447 249.384833 
L 100.401896 247.353691 
L 100.720345 247.166381 
L 101.038795 249.864655 
L 101.357244 249.069952 
L 101.675693 247.508892 
L 101.994142 249.828535 
L 102.312591 248.928145 
L 102.631041 245.643065 
L 102.94949 250.516792 
L 103.267939 247.871258 
L 103.586388 241.246132 
L 103.904837 252.131852 
L 104.223287 245.794208 
L 104.541736 246.185278 
L 104.860185 250.305977 
L 105.178634 242.878154 
L 105.497083 248.954846 
L 105.815533 250.619904 
L 106.133982 246.811805 
L 106.452431 245.634952 
L 106.77088 250.310406 
L 107.089329 249.186039 
L 107.407779 245.802653 
L 107.726228 249.68413 
L 108.044677 249.738339 
L 108.363126 245.702262 
L 108.681575 248.948087 
L 109.000025 249.506765 
L 109.318474 243.636216 
L 109.636923 248.237236 
L 109.955372 249.435394 
L 110.273821 238.903398 
L 110.592271 247.398435 
L 110.91072 250.534513 
L 111.229169 242.872815 
L 111.547618 246.755786 
L 112.184517 249.456899 
L 112.502966 247.811379 
L 112.821415 245.333349 
L 113.139864 249.173 
L 113.458313 247.718111 
L 113.776763 245.583106 
L 114.095212 248.916997 
L 114.73211 245.244008 
L 115.050559 248.985591 
L 115.369009 245.475178 
L 115.687458 244.122641 
L 116.005907 249.893233 
L 116.324356 242.327893 
L 116.642805 243.366401 
L 116.961255 250.687858 
L 117.279704 238.350464 
L 117.916602 249.672252 
L 118.235051 245.111055 
L 118.87195 248.207141 
L 119.190399 247.546675 
L 119.508848 246.294164 
L 120.145747 247.856161 
L 120.464196 245.850146 
L 120.782645 245.010127 
L 121.101094 249.762555 
L 121.419543 244.945193 
L 121.737993 242.329952 
L 122.056442 251.052155 
L 122.374891 244.383561 
L 122.69334 242.718016 
L 123.011789 250.632617 
L 123.330239 242.84453 
L 123.648688 245.254738 
L 123.967137 249.374265 
L 124.285586 244.340022 
L 124.922485 248.521334 
L 125.240934 246.089383 
L 125.559383 245.814413 
L 125.877832 248.170892 
L 126.196281 246.262942 
L 126.514731 245.198866 
L 126.83318 248.070821 
L 127.470078 243.930005 
L 127.788527 248.675097 
L 128.106977 245.858669 
L 128.425426 240.281034 
L 128.743875 250.383772 
L 129.062324 246.189039 
L 129.380773 239.081247 
L 129.699223 249.7274 
L 130.017672 245.080969 
L 130.336121 245.409893 
L 130.65457 248.170765 
L 130.973019 243.481049 
L 131.291469 247.523721 
L 131.609918 247.437532 
L 131.928367 243.545349 
L 132.246816 247.406039 
L 132.565265 247.266362 
L 132.883715 243.232037 
L 133.202164 247.032549 
L 133.520613 247.492594 
L 133.839062 241.870896 
L 134.157511 246.16118 
L 134.475961 248.179541 
L 134.79441 238.88945 
L 135.431308 249.455952 
L 135.749757 238.662237 
L 136.386656 249.384344 
L 136.705105 245.644635 
L 137.023554 245.382763 
L 137.660453 247.33428 
L 137.978902 245.025998 
L 138.297351 245.622207 
L 138.6158 247.326708 
L 138.934249 244.825782 
L 139.252699 244.785244 
L 139.571148 246.626753 
L 139.889597 244.728729 
L 140.208046 244.737367 
L 140.526495 246.435517 
L 140.844945 244.380935 
L 141.163394 243.542188 
L 141.481843 245.856356 
L 141.800292 245.576812 
L 142.118741 240.702878 
L 142.437191 245.653756 
L 142.75564 247.928927 
L 143.074089 236.252837 
L 143.392538 246.568062 
L 143.710987 249.131491 
L 144.029437 242.066908 
L 144.347886 246.253182 
L 144.666335 246.781119 
L 144.984784 246.104009 
L 145.303233 244.303848 
L 145.621683 245.473863 
L 145.940132 247.585261 
L 146.258581 244.016626 
L 146.57703 244.410778 
L 146.895479 247.168067 
L 147.213929 243.990621 
L 147.532378 243.97489 
L 147.850827 246.87658 
L 148.169276 243.614054 
L 148.487725 243.376497 
L 148.806175 247.747259 
L 149.124624 243.003601 
L 149.443073 241.143368 
L 149.761522 249.683335 
L 150.079971 242.877355 
L 150.398421 240.167217 
L 150.71687 250.183172 
L 151.035319 241.335378 
L 151.672217 248.451688 
L 151.990667 242.368593 
L 152.309116 246.308214 
L 152.627565 247.40579 
L 152.946014 245.158573 
L 153.264463 244.210552 
L 153.582913 247.301345 
L 154.219811 244.080569 
L 154.53826 246.738356 
L 154.856709 245.488802 
L 155.175159 243.453957 
L 155.493608 246.950835 
L 155.812057 245.332063 
L 156.130506 242.231473 
L 156.448955 247.64717 
L 156.767405 245.70821 
L 157.085854 239.372048 
L 157.404303 248.814392 
L 157.722752 246.407312 
L 158.041201 239.614531 
L 158.359651 248.660854 
L 158.6781 244.790193 
L 158.996549 243.603116 
L 159.314998 247.63762 
L 159.633447 242.555361 
L 159.951897 245.322851 
L 160.270346 247.047431 
L 160.588795 242.076849 
L 160.907244 245.916254 
L 161.225693 247.036054 
L 161.544143 241.776614 
L 161.862592 245.882001 
L 162.181041 247.544224 
L 162.49949 240.569821 
L 162.817939 245.487531 
L 163.136389 248.240465 
L 163.454838 239.946875 
L 163.773287 245.292409 
L 164.091736 248.655697 
L 164.410185 241.521016 
L 165.047084 248.081847 
L 165.365533 242.724466 
L 166.002431 247.38821 
L 166.320881 243.103352 
L 166.63933 244.579275 
L 166.957779 247.127564 
L 167.276228 243.080716 
L 167.594677 244.1039 
L 167.913127 246.725157 
L 168.231576 242.674844 
L 168.550025 243.280635 
L 168.868474 247.841254 
L 169.186923 242.124021 
L 169.505373 241.718842 
L 169.823822 249.657627 
L 170.142271 241.216259 
L 170.46072 242.191894 
L 170.779169 249.162346 
L 171.097619 242.77431 
L 171.734517 247.292594 
L 172.052966 243.139667 
L 172.371415 245.799491 
L 172.689865 246.511542 
L 173.008314 243.88037 
L 173.326763 245.607231 
L 173.645212 245.26561 
L 173.963661 243.871469 
L 174.282111 246.10391 
L 174.60056 244.034337 
L 174.919009 243.132805 
L 175.237458 247.074631 
L 175.555907 243.173857 
L 175.874357 241.905127 
L 176.192806 248.412476 
L 176.511255 243.172848 
L 176.829704 239.913127 
L 177.148153 249.393623 
L 177.785052 239.988215 
L 178.103501 247.918194 
L 178.42195 243.746731 
L 178.740399 243.715983 
L 179.058849 246.314543 
L 179.377298 242.320831 
L 179.695747 246.690347 
L 180.014196 245.800416 
L 180.332645 242.207541 
L 180.651095 246.67836 
L 180.969544 245.578328 
L 181.287993 242.624662 
L 181.606442 246.567759 
L 181.924891 245.160557 
L 182.243341 242.797953 
L 182.56179 246.50353 
L 182.880239 244.625329 
L 183.198688 242.043683 
L 183.517137 247.011088 
L 183.835587 244.436368 
L 184.154036 240.234417 
L 184.472485 248.597417 
L 184.790934 245.513926 
L 185.109383 239.423167 
L 185.427833 248.704951 
L 186.064731 241.948373 
L 186.38318 247.312122 
L 186.701629 242.767687 
L 187.338528 246.765193 
L 187.656977 241.267815 
L 187.975426 246.482993 
L 188.293875 246.513125 
L 188.612325 241.612316 
L 188.930774 246.674574 
L 189.249223 246.120888 
L 189.567672 242.058192 
L 189.886121 246.420181 
L 190.204571 245.719094 
L 190.52302 242.177863 
L 190.841469 246.191515 
L 191.159918 245.3254 
L 191.478367 241.927355 
L 191.796817 246.462719 
L 192.115266 245.236366 
L 192.433715 240.886195 
L 192.752164 247.364955 
L 193.070613 245.790746 
L 193.389063 239.883083 
L 193.707512 248.12487 
L 194.025961 246.124663 
L 194.34441 240.8744 
L 194.662859 248.03444 
L 194.981309 244.398535 
L 195.299758 242.423399 
L 195.618207 247.953152 
L 195.936656 242.275315 
L 196.255105 243.874838 
L 196.573555 247.769968 
L 196.892004 241.030233 
L 197.528902 247.784066 
L 197.847351 241.714707 
L 198.165801 245.409533 
L 198.48425 247.117041 
L 198.802699 242.45524 
L 199.121148 245.519638 
L 199.439597 246.223349 
L 199.758047 242.754845 
L 200.076496 245.79903 
L 200.394945 245.682857 
L 200.713394 242.574279 
L 201.031843 245.81524 
L 201.350293 245.204827 
L 201.668742 242.085975 
L 201.987191 245.900574 
L 202.30564 245.628282 
L 202.624089 240.081925 
L 202.942539 247.196315 
L 203.260988 247.410293 
L 203.579437 239.277735 
L 203.897886 247.302207 
L 204.216335 247.664819 
L 204.534785 241.116903 
L 204.853234 246.966611 
L 205.171683 246.395249 
L 205.490132 242.121086 
L 205.808581 246.567261 
L 206.127031 244.43278 
L 206.44548 243.653139 
L 206.763929 246.417539 
L 207.082378 242.444051 
L 207.400827 244.883025 
L 207.719277 246.408514 
L 208.037726 241.342324 
L 208.356175 245.227213 
L 208.674624 246.78338 
L 208.993073 241.303698 
L 209.311523 245.123124 
L 209.629972 246.540171 
L 209.948421 241.507572 
L 210.26687 245.354886 
L 210.585319 246.035979 
L 210.903769 241.475692 
L 211.222218 246.213566 
L 211.540667 245.422097 
L 211.859116 241.756121 
L 212.177565 246.680461 
L 212.814464 242.142636 
L 213.132913 247.153598 
L 213.451362 243.358066 
L 213.769811 242.749418 
L 214.088261 247.768211 
L 214.40671 242.338952 
L 214.725159 243.391212 
L 215.043608 247.895825 
L 215.362057 241.66756 
L 215.998956 247.56988 
L 216.317405 241.811424 
L 216.954303 246.905267 
L 217.272753 242.058076 
L 217.591202 245.227951 
L 217.909651 246.141008 
L 218.2281 242.223746 
L 218.546549 246.037289 
L 218.864999 245.406405 
L 219.183448 242.367548 
L 219.501897 246.683663 
L 220.138795 242.494217 
L 220.457245 247.256333 
L 220.775694 243.531195 
L 221.094143 242.573639 
L 221.412592 248.100987 
L 221.731041 242.818233 
L 222.049491 241.928076 
L 222.36794 248.583268 
L 222.686389 242.848738 
L 223.004838 241.133765 
L 223.323287 249.799822 
L 223.641737 242.927069 
L 223.960186 242.150567 
L 224.278635 248.478226 
L 224.597084 243.858848 
L 224.915533 244.27818 
L 225.233983 246.455775 
L 225.552432 243.663388 
L 225.870881 246.275784 
L 226.507779 243.150218 
L 226.826229 246.971487 
L 227.144678 244.112989 
L 227.463127 243.569496 
L 227.781576 246.913828 
L 228.100025 243.30379 
L 228.418475 243.660836 
L 228.736924 246.867809 
L 229.055373 242.495058 
L 229.373822 243.677357 
L 229.692271 248.452016 
L 230.010721 240.952361 
L 230.32917 244.340131 
L 230.647619 248.91628 
L 230.966068 241.795732 
L 231.284517 245.922731 
L 231.602967 247.424343 
L 231.921416 242.88532 
L 232.239865 246.209216 
L 232.876763 244.099279 
L 233.195213 246.042102 
L 233.513662 244.460503 
L 233.832111 245.320883 
L 234.15056 245.073409 
L 234.469009 243.427009 
L 234.787459 246.125403 
L 235.424357 242.504839 
L 235.742806 246.832439 
L 236.379705 241.876574 
L 236.698154 247.550306 
L 237.335052 240.89694 
L 237.653501 248.746743 
L 237.971951 244.039973 
L 238.2904 241.298707 
L 238.608849 248.750642 
L 238.927298 243.241881 
L 239.245747 243.857729 
L 239.564197 247.522274 
L 239.882646 242.700384 
L 240.201095 246.614694 
L 240.519544 246.864395 
L 240.837993 243.247807 
L 241.156443 247.202884 
L 241.793341 243.705144 
L 242.11179 246.330055 
L 242.430239 243.732643 
L 242.748689 245.049727 
L 243.067138 245.435079 
L 243.385587 242.49319 
L 243.704036 247.020167 
L 244.022485 245.30662 
L 244.340935 241.394609 
L 244.659384 248.298572 
L 244.977833 245.606228 
L 245.296282 240.924959 
L 245.614731 248.058111 
L 245.933181 244.13558 
L 246.25163 242.646189 
L 246.570079 247.325494 
L 246.888528 241.976275 
L 247.525427 247.190961 
L 247.843876 241.310877 
L 248.162325 246.560731 
L 248.480774 247.339418 
L 248.799223 242.028087 
L 249.117673 246.791447 
L 249.436122 246.190678 
L 249.754571 242.625173 
L 250.07302 246.292774 
L 250.391469 244.414649 
L 250.709919 243.738841 
L 251.028368 245.983933 
L 251.346817 243.09584 
L 251.665266 245.099059 
L 251.983715 245.758471 
L 252.302165 241.659992 
L 252.620614 246.337157 
L 252.939063 246.145289 
L 253.257512 240.537605 
L 253.575961 247.490418 
L 253.894411 246.22854 
L 254.21286 240.96915 
L 254.531309 247.584724 
L 255.168207 242.254084 
L 255.486657 247.249127 
L 255.805106 243.14332 
L 256.123555 244.091882 
L 256.442004 246.551734 
L 256.760453 241.780148 
L 257.078903 246.129168 
L 257.397352 246.442481 
L 257.715801 241.410047 
L 258.03425 247.134717 
L 258.352699 246.217392 
L 258.671149 241.887949 
L 258.989598 246.818144 
L 259.308047 245.184465 
L 259.626496 242.64559 
L 259.944945 246.217452 
L 260.263395 243.793755 
L 260.581844 243.590826 
L 260.900293 246.125711 
L 261.218742 242.430689 
L 261.855641 246.698728 
L 262.17409 240.756145 
L 262.492539 245.975477 
L 262.810988 247.653349 
L 263.129437 240.082872 
L 263.447887 245.613805 
L 263.766336 247.192788 
L 264.084785 243.04455 
L 264.403234 245.269344 
L 264.721683 245.055202 
L 265.040133 244.12775 
L 265.358582 245.289337 
L 265.677031 244.080865 
L 265.99548 245.079308 
L 266.313929 245.050164 
L 266.632379 242.78975 
L 266.950828 245.992791 
L 267.269277 244.940658 
L 267.587726 242.04882 
L 267.906175 247.086541 
L 268.543074 241.619004 
L 268.861523 247.689055 
L 269.179972 244.016007 
L 269.498421 242.005481 
L 269.816871 247.611368 
L 270.13532 242.964555 
L 270.453769 242.744898 
L 270.772218 247.606495 
L 271.090667 242.172625 
L 271.409117 243.80193 
L 271.727566 247.493571 
L 272.046015 242.233237 
L 272.364464 245.284594 
L 272.682913 246.722348 
L 273.001363 243.338558 
L 273.319812 245.759372 
L 273.95671 243.908306 
L 274.275159 245.346047 
L 274.593609 243.840831 
L 274.912058 245.036834 
L 275.230507 244.363798 
L 275.548956 242.862631 
L 275.867405 246.796804 
L 276.185855 243.687597 
L 276.504304 242.328636 
L 276.822753 247.700099 
L 277.141202 243.114198 
L 277.459651 241.808107 
L 277.778101 247.843037 
L 278.09655 243.516146 
L 278.414999 242.286332 
L 278.733448 247.303337 
L 279.051897 243.0285 
L 279.370347 244.220421 
L 279.688796 246.731948 
L 280.007245 242.721052 
L 280.325694 246.077671 
L 280.644143 246.393188 
L 280.962593 242.915421 
L 281.281042 245.787695 
L 281.599491 245.245042 
L 281.91794 243.845868 
L 282.236389 245.294088 
L 282.554839 243.671924 
L 282.873288 245.108239 
L 283.191737 244.796893 
L 283.510186 242.861258 
L 283.828635 246.666359 
L 284.465534 242.319184 
L 284.783983 247.95842 
L 285.102432 243.69764 
L 285.420881 242.237844 
L 285.739331 248.08141 
L 286.05778 243.517964 
L 286.376229 243.027821 
L 286.694678 247.419555 
L 287.013127 243.088313 
L 287.331577 244.700073 
L 287.650026 246.95225 
L 287.968475 242.898199 
L 288.286924 245.792532 
L 288.605373 245.798128 
L 288.923823 243.441837 
L 289.242272 245.847924 
L 289.560721 244.330141 
L 289.87917 243.97959 
L 290.197619 245.436476 
L 290.516069 243.251858 
L 290.834518 245.060689 
L 291.152967 244.821284 
L 291.471416 242.813182 
L 291.789865 246.414048 
L 292.108315 244.978479 
L 292.426764 241.389179 
L 292.745213 248.114668 
L 293.382111 242.460444 
L 293.700561 248.162002 
L 294.01901 243.740945 
L 294.337459 243.797946 
L 294.655908 247.229069 
L 294.974357 243.400679 
L 295.611256 246.706624 
L 295.929705 243.725504 
L 296.248154 245.274353 
L 296.566603 245.154075 
L 296.885053 243.630156 
L 297.203502 245.391691 
L 297.521951 243.592751 
L 297.8404 244.662197 
L 298.158849 244.618933 
L 298.477299 243.155754 
L 298.795748 245.355432 
L 299.432646 242.992653 
L 299.751095 246.08395 
L 300.069545 244.820222 
L 300.387994 241.430974 
L 300.706443 247.912055 
L 301.343341 243.142995 
L 301.661791 247.262689 
L 301.98024 243.209823 
L 302.617138 246.820153 
L 302.935587 242.594544 
L 303.254037 245.263364 
L 303.572486 246.565448 
L 303.890935 243.407993 
L 304.209384 245.310874 
L 304.527833 245.362133 
L 304.846283 243.229558 
L 305.164732 245.558059 
L 305.80163 243.416323 
L 306.120079 245.680521 
L 306.438529 243.489647 
L 306.756978 243.535841 
L 307.075427 246.092301 
L 307.393876 242.884967 
L 307.712325 242.798818 
L 308.030775 247.310535 
L 308.349224 242.501605 
L 308.667673 242.007533 
L 308.986122 248.393155 
L 309.304571 243.107592 
L 309.623021 243.173651 
L 309.94147 247.415553 
L 310.259919 244.511864 
L 310.578368 244.833031 
L 310.896817 245.894872 
L 311.215267 245.188167 
L 311.533716 245.998228 
L 311.852165 243.727728 
L 312.489063 245.770462 
L 312.807513 242.675475 
L 313.125962 245.4305 
L 313.444411 244.869952 
L 313.76286 242.459525 
L 314.081309 246.411252 
L 314.399759 243.738483 
L 314.718208 243.246901 
L 315.036657 247.237422 
L 315.355106 242.572781 
L 315.992005 247.608252 
L 316.310454 243.47706 
L 316.947352 247.1987 
L 317.265801 243.403278 
L 317.9027 246.109691 
L 318.221149 243.087632 
L 318.539598 245.279909 
L 318.858047 245.541822 
L 319.176497 243.256107 
L 319.494946 245.422791 
L 319.813395 244.795696 
L 320.131844 243.306411 
L 320.450293 245.214955 
L 320.768743 243.91463 
L 321.087192 243.523171 
L 321.405641 245.287451 
L 321.72409 243.090021 
L 322.042539 243.682059 
L 322.360989 246.438331 
L 322.679438 242.519624 
L 322.997887 244.494081 
L 323.316336 247.421766 
L 323.634785 242.638234 
L 324.271684 247.175417 
L 324.590133 244.278738 
L 324.908582 245.258182 
L 325.227031 245.320683 
L 325.545481 244.345737 
L 325.86393 244.881067 
L 326.182379 243.796615 
L 326.500828 244.978364 
L 326.819277 244.471655 
L 327.137727 243.447769 
L 327.456176 245.703614 
L 328.093074 243.007978 
L 328.411523 246.568818 
L 328.729973 243.639412 
L 329.048422 243.195595 
L 329.366871 247.35208 
L 329.68532 242.85934 
L 330.003769 244.265268 
L 330.322219 247.072942 
L 330.640668 242.941135 
L 331.277566 246.29719 
L 331.596015 243.391252 
L 331.914465 245.43285 
L 332.232914 246.51433 
L 332.551363 242.750649 
L 333.188261 246.462929 
L 333.506711 242.994979 
L 334.143609 245.487378 
L 334.462058 242.913359 
L 334.780507 244.792146 
L 335.098957 244.455716 
L 335.417406 243.176317 
L 335.735855 245.404559 
L 336.372753 242.651102 
L 336.691203 246.430278 
L 337.009652 242.654933 
L 337.328101 242.886116 
L 337.64655 247.534145 
L 337.964999 242.192999 
L 338.283449 243.617409 
L 338.601898 247.292168 
L 338.920347 243.06302 
L 339.238796 244.08217 
L 339.557245 247.006039 
L 339.875695 243.555991 
L 340.512593 245.194898 
L 340.831042 244.063527 
L 341.149491 244.794807 
L 341.467941 243.683684 
L 342.104839 244.853872 
L 342.423288 242.449814 
L 342.741737 245.518518 
L 343.060187 244.872941 
L 343.378636 242.424031 
L 343.697085 245.583998 
L 344.015534 244.587447 
L 344.333983 242.995631 
L 344.652433 245.902497 
L 345.289331 243.033334 
L 345.60778 246.8372 
L 345.926229 243.235675 
L 346.244679 245.271331 
L 346.563128 245.972878 
L 346.881577 242.805536 
L 347.200026 245.882371 
L 347.518475 246.169509 
L 347.836925 242.655769 
L 348.155374 245.125733 
L 348.473823 246.256389 
L 348.792272 243.029219 
L 349.429171 245.679431 
L 349.74762 242.774006 
L 350.066069 244.193268 
L 350.384518 244.475054 
L 350.702967 242.16302 
L 351.021417 245.33114 
L 351.658315 242.377856 
L 351.976764 246.308814 
L 352.295213 242.119901 
L 352.613663 245.441805 
L 352.932112 246.749819 
L 353.250561 242.352854 
L 353.56901 246.006312 
L 353.887459 246.434821 
L 354.205909 243.366698 
L 354.524358 244.894488 
L 354.842807 245.022238 
L 355.161256 243.008496 
L 355.479705 244.963477 
L 355.798155 243.628035 
L 356.116604 243.180525 
L 356.435053 245.188895 
L 356.753502 242.467064 
L 357.071951 244.514233 
L 357.390401 245.662171 
L 357.70885 242.641173 
L 358.027299 245.897167 
L 358.345748 244.93855 
L 358.664197 242.657055 
L 358.982647 246.467967 
L 359.301096 243.437779 
L 359.619545 244.255549 
L 359.937994 246.243173 
L 360.256443 241.843526 
L 360.574893 245.54094 
L 360.893342 245.633614 
L 361.211791 241.860025 
L 361.53024 245.698606 
L 361.848689 244.641606 
L 362.167139 242.795444 
L 362.485588 246.026152 
L 362.804037 243.324863 
L 363.122486 244.120133 
L 363.440935 246.062556 
L 363.759385 242.195698 
L 364.077834 244.875504 
L 364.396283 245.873426 
L 364.714732 242.333899 
L 365.033181 245.251613 
L 365.351631 245.413072 
L 365.67008 242.468637 
L 365.988529 245.54546 
L 366.306978 245.265521 
L 366.625427 241.920261 
L 366.943877 245.777677 
L 367.262326 244.690822 
L 367.580775 241.814334 
L 367.899224 245.524214 
L 368.536123 242.551715 
L 368.854572 245.727807 
L 369.173021 242.545282 
L 369.49147 243.786583 
L 369.809919 245.558032 
L 370.128369 241.381472 
L 370.446818 245.110512 
L 370.765267 244.661377 
L 371.083716 242.742556 
L 371.402165 245.187168 
L 372.039064 242.801183 
L 372.357513 246.207592 
L 372.675962 243.308837 
L 372.994411 245.104544 
L 373.312861 246.157278 
L 373.63131 240.559878 
L 373.949759 247.070694 
L 374.268208 246.510024 
L 374.586657 241.4113 
L 374.905107 245.876566 
L 375.223556 245.523639 
L 375.542005 242.748196 
L 375.860454 245.279182 
L 376.178903 244.838269 
L 376.497353 243.254556 
L 376.815802 244.425539 
L 377.134251 244.30381 
L 377.4527 243.199218 
L 377.771149 244.07992 
L 378.089599 243.949316 
L 378.408048 242.535122 
L 378.726497 244.961902 
L 379.044946 243.157427 
L 379.363395 243.209214 
L 379.681845 246.787559 
L 380.000294 241.082486 
L 380.318743 244.847309 
L 380.637192 247.242946 
L 380.955641 242.994525 
L 381.59254 246.491985 
L 381.910989 244.308048 
L 382.229438 244.250072 
L 382.547887 244.787653 
L 382.866337 243.459541 
L 383.184786 245.147388 
L 383.821684 242.615606 
L 384.140133 244.987929 
L 384.777032 242.032431 
L 385.095481 245.470343 
L 385.41393 243.253221 
L 385.732379 241.998041 
L 386.050829 245.852267 
L 386.369278 243.693175 
L 386.687727 243.155149 
L 387.006176 245.37573 
L 387.324625 243.430682 
L 387.643075 244.998128 
L 387.961524 245.049665 
L 388.279973 243.957225 
L 388.598422 245.238371 
L 388.916871 244.301505 
L 389.235321 242.250783 
L 389.55377 246.02583 
L 389.872219 244.613705 
L 390.190668 241.806495 
L 390.509117 244.315398 
L 390.827567 244.532371 
L 391.146016 241.317616 
L 391.464465 244.699585 
L 391.782914 244.149629 
L 392.101363 241.548272 
L 392.419813 245.131576 
L 393.056711 242.71632 
L 393.37516 244.504779 
L 393.693609 243.642201 
L 394.012059 243.966667 
L 394.330508 244.450406 
L 394.648957 242.367 
L 394.967406 244.762621 
L 395.285855 244.115493 
L 395.604305 242.365519 
L 395.922754 244.229165 
L 396.241203 244.048758 
L 396.559652 242.667968 
L 396.878101 244.68292 
L 397.515 242.609644 
L 397.833449 244.550181 
L 398.151898 243.578758 
L 398.470347 243.42154 
L 398.788797 245.03849 
L 399.107246 241.980189 
L 399.425695 246.352856 
L 399.744144 245.287366 
L 400.062593 241.687466 
L 400.381043 245.457689 
L 400.699492 244.479757 
L 401.017941 244.340588 
L 401.654839 243.3615 
L 401.973289 244.32006 
L 402.291738 243.342129 
L 402.610187 243.802781 
L 402.928636 243.776249 
L 403.247085 242.716691 
L 403.565535 243.921743 
L 403.883984 244.581476 
L 404.202433 242.107067 
L 404.839331 244.718071 
L 405.157781 242.010238 
L 405.47623 244.155666 
L 405.794679 244.990827 
L 406.113128 241.564621 
L 406.431577 244.960181 
L 406.750027 245.333255 
L 407.068476 242.057099 
L 407.386925 244.85836 
L 407.705374 244.445961 
L 408.023823 243.143296 
L 408.342273 244.690602 
L 408.660722 243.017775 
L 408.979171 243.904578 
L 409.29762 244.235987 
L 409.616069 241.858381 
L 409.934519 244.745392 
L 410.252968 243.77164 
L 410.571417 241.953078 
L 410.889866 244.287154 
L 411.208315 243.779369 
L 411.526765 242.135075 
L 411.845214 244.675688 
L 412.163663 243.440045 
L 412.482112 242.963679 
L 412.800561 244.745762 
L 413.43746 241.938949 
L 413.755909 244.247638 
L 414.074358 243.232669 
L 414.392807 243.302997 
L 415.029706 242.479688 
L 415.348155 244.041838 
L 415.666604 243.802849 
L 415.985053 241.978398 
L 416.303503 244.585633 
L 416.621952 243.256294 
L 416.940401 242.417342 
L 417.25885 244.794746 
L 417.577299 242.948217 
L 418.214198 244.641791 
L 418.532647 241.943842 
L 418.851096 246.265653 
L 419.169545 245.511421 
L 419.487995 242.348986 
L 419.806444 245.459593 
L 420.124893 244.042797 
L 420.443342 243.262692 
L 420.761791 245.351843 
L 421.080241 244.609621 
L 421.39869 242.905466 
L 422.035588 244.239621 
L 422.354037 242.446092 
L 422.354037 242.446092 
" style="fill:none;stroke:#dd8452;stroke-linecap:square;stroke-width:2;"/>
   </g>
   <g id="patch_3">
    <path d="M 68.588821 277.574739 
L 68.588821 21.6 
" style="fill:none;stroke:#000000;stroke-linecap:square;stroke-linejoin:miter;stroke-width:0.8;"/>
   </g>
   <g id="patch_4">
    <path d="M 439.2 277.574739 
L 439.2 21.6 
" style="fill:none;stroke:#000000;stroke-linecap:square;stroke-linejoin:miter;stroke-width:0.8;"/>
   </g>
   <g id="patch_5">
    <path d="M 68.588821 277.574739 
L 439.2 277.574739 
" style="fill:none;stroke:#000000;stroke-linecap:square;stroke-linejoin:miter;stroke-width:0.8;"/>
   </g>
   <g id="patch_6">
    <path d="M 68.588821 21.6 
L 439.2 21.6 
" style="fill:none;stroke:#000000;stroke-linecap:square;stroke-linejoin:miter;stroke-width:0.8;"/>
   </g>
   <g id="legend_1">
    <g id="patch_7">
     <path d="M 244.747749 93.753759 
L 425.2 93.753759 
Q 429.2 93.753759 429.2 89.753759 
L 429.2 35.6 
Q 429.2 31.6 425.2 31.6 
L 244.747749 31.6 
Q 240.747749 31.6 240.747749 35.6 
L 240.747749 89.753759 
Q 240.747749 93.753759 244.747749 93.753759 
z
" style="fill:#ffffff;opacity:0.8;stroke:#cccccc;stroke-linejoin:miter;"/>
    </g>
    <g id="line2d_13">
     <path d="M 248.747749 46.6 
L 288.747749 46.6 
" style="fill:none;stroke:#4c72b0;stroke-linecap:square;stroke-width:2;"/>
    </g>
    <g id="line2d_14"/>
    <g id="text_13">
     <!-- Train loss -->
     <g transform="translate(304.747749 53.6)scale(0.2 -0.2)">
      <defs>
       <path d="M 62.203125 67.59375 
L 4.5 67.59375 
L 2.796875 45.59375 
L 4.59375 45.59375 
C 5.90625 62.125 7.296875 65 22.703125 65 
C 24.5 65 27.40625 65 28.203125 64.90625 
C 30.09375 64.609375 30.09375 63.40625 30.09375 61.125 
L 30.09375 7.171875 
C 30.09375 3.59375 29.796875 2.5 21.5 2.5 
L 18.703125 2.5 
L 18.703125 0 
C 23.5 0 28.5 0 33.40625 0 
C 38.296875 0 43.296875 0 48.09375 0 
L 48.09375 2.5 
L 45.296875 2.5 
C 37 2.5 36.703125 3.59375 36.703125 7.171875 
L 36.703125 61.125 
C 36.703125 63.3125 36.703125 64.515625 38.5 64.90625 
C 39.296875 65 42.203125 65 44 65 
C 59.296875 65 60.796875 62.125 62.09375 45.59375 
L 63.90625 45.59375 
z
" id="CMR17-84"/>
       <path d="M 15 23.390625 
C 15 33 19.09375 42 26.59375 42 
C 27.296875 42 28 41.90625 28.703125 41.59375 
C 28.703125 41.59375 26.5 40.890625 26.5 38.3125 
C 26.5 35.90625 28.40625 34.90625 29.90625 34.90625 
C 31.09375 34.90625 33.296875 35.609375 33.296875 38.40625 
C 33.296875 41.609375 30.09375 43.59375 26.703125 43.59375 
C 19.09375 43.59375 15.796875 36.203125 14.796875 32.703125 
L 14.703125 32.703125 
L 14.703125 43.59375 
L 3.09375 42.5 
L 3.09375 39.90625 
C 9 39.90625 9.90625 39.296875 9.90625 34.5 
L 9.90625 6.6875 
C 9.90625 2.875 9.5 2.390625 3.09375 2.390625 
L 3.09375 -0.203125 
C 5.5 0 10.09375 0 12.703125 0 
C 15.59375 0 20.703125 0 23.40625 -0.203125 
L 23.40625 2.390625 
C 16.203125 2.390625 15 2.390625 15 6.875 
z
" id="CMR17-114"/>
       <path d="M 36 25.828125 
C 36 32.375 36 35.84375 31.796875 39.734375 
C 28.09375 43 23.796875 44 20.40625 44 
C 12.5 44 6.796875 37.609375 6.796875 30.796875 
C 6.796875 27 9.796875 27 10.40625 27 
C 11.703125 27 14 27.78125 14 30.53125 
C 14 33 12.09375 34.078125 10.40625 34.078125 
C 10 34.078125 9.5 33.96875 9.203125 33.875 
C 11.296875 40.5 16.703125 42.40625 20.203125 42.40625 
C 25.203125 42.40625 30.703125 37.953125 30.703125 29.453125 
L 30.703125 25 
C 24.796875 25 17.703125 24.203125 12.09375 21.203125 
C 5.796875 17.703125 4 12.703125 4 8.90625 
C 4 1.203125 13 -1 18.296875 -1 
C 23.796875 -1 28.90625 2.171875 31.09375 7.984375 
C 31.296875 3.640625 34.09375 -0.28125 38.5 -0.28125 
C 40.59375 -0.28125 45.90625 1.09375 45.90625 8.859375 
L 45.90625 14.375 
L 44.09375 14.375 
L 44.09375 8.78125 
C 44.09375 2.78125 41.40625 2 40.09375 2 
C 36 2 36 7.15625 36 11.53125 
z
M 30.703125 13.59375 
C 30.703125 4.953125 24.5 0.59375 19 0.59375 
C 14 0.59375 10.09375 4.296875 10.09375 8.90625 
C 10.09375 11.890625 11.40625 17.1875 17.203125 20.390625 
C 22 23.09375 27.5 23.5 30.703125 23.5 
z
" id="CMR17-97"/>
       <path d="M 15.5 61.078125 
C 15.5 63.265625 13.703125 65.15625 11.40625 65.15625 
C 9.203125 65.15625 7.296875 63.375 7.296875 61.078125 
C 7.296875 58.890625 9.09375 57 11.40625 57 
C 13.59375 57 15.5 58.796875 15.5 61.078125 
z
M 3.796875 42.28125 
L 3.796875 39.703125 
C 9.40625 39.703125 10.203125 39.09375 10.203125 34.328125 
L 10.203125 6.671875 
C 10.203125 2.875 9.796875 2.390625 3.40625 2.390625 
L 3.40625 -0.203125 
C 5.796875 0 10.09375 0 12.59375 0 
C 15 0 19.09375 0 21.40625 -0.203125 
L 21.40625 2.390625 
C 15.5 2.390625 15.296875 2.984375 15.296875 6.5625 
L 15.296875 43.375 
z
" id="CMR17-105"/>
       <path d="M 41.5 30.203125 
C 41.5 35.296875 40.5 43.59375 28.703125 43.59375 
C 20.796875 43.59375 16.703125 37.5 15.203125 33.5 
L 15.09375 33.5 
L 15.09375 43.59375 
L 3.296875 42.5 
L 3.296875 39.90625 
C 9.203125 39.90625 10.09375 39.296875 10.09375 34.5 
L 10.09375 6.6875 
C 10.09375 2.875 9.703125 2.390625 3.296875 2.390625 
L 3.296875 -0.203125 
C 5.703125 0 10.09375 0 12.703125 0 
C 15.296875 0 19.796875 0 22.203125 -0.203125 
L 22.203125 2.390625 
C 15.796875 2.390625 15.40625 2.78125 15.40625 6.6875 
L 15.40625 25.90625 
C 15.40625 35.109375 21 42 28 42 
C 35.40625 42 36.203125 35.40625 36.203125 30.59375 
L 36.203125 6.6875 
C 36.203125 2.875 35.796875 2.390625 29.40625 2.390625 
L 29.40625 -0.203125 
C 31.796875 0 36.203125 0 38.796875 0 
C 41.40625 0 45.90625 0 48.296875 -0.203125 
L 48.296875 2.390625 
C 41.90625 2.390625 41.5 2.78125 41.5 6.6875 
z
" id="CMR17-110"/>
       <path d="M 15.296875 68.6875 
L 3.40625 67.59375 
L 3.40625 65 
C 9.296875 65 10.203125 64.40625 10.203125 59.640625 
L 10.203125 6.65625 
C 10.203125 2.875 9.796875 2.390625 3.40625 2.390625 
L 3.40625 -0.203125 
C 5.796875 0 10.203125 0 12.703125 0 
C 15.296875 0 19.703125 0 22.09375 -0.203125 
L 22.09375 2.390625 
C 15.703125 2.390625 15.296875 2.78125 15.296875 6.65625 
z
" id="CMR17-108"/>
      </defs>
      <use transform="scale(0.996264)" xlink:href="#CMR17-84"/>
      <use transform="translate(58.702625 0)scale(0.996264)" xlink:href="#CMR17-114"/>
      <use transform="translate(93.983393 0)scale(0.996264)" xlink:href="#CMR17-97"/>
      <use transform="translate(139.67387 0)scale(0.996264)" xlink:href="#CMR17-105"/>
      <use transform="translate(164.544929 0)scale(0.996264)" xlink:href="#CMR17-110"/>
      <use transform="translate(245.516265 0)scale(0.996264)" xlink:href="#CMR17-108"/>
      <use transform="translate(270.387323 0)scale(0.996264)" xlink:href="#CMR17-111"/>
      <use transform="translate(316.0778 0)scale(0.996264)" xlink:href="#CMR17-115"/>
      <use transform="translate(351.879138 0)scale(0.996264)" xlink:href="#CMR17-115"/>
     </g>
    </g>
    <g id="line2d_15">
     <path d="M 248.747749 74.878125 
L 288.747749 74.878125 
" style="fill:none;stroke:#dd8452;stroke-linecap:square;stroke-width:2;"/>
    </g>
    <g id="line2d_16"/>
    <g id="text_14">
     <!-- Validation loss -->
     <g transform="translate(304.747749 81.878125)scale(0.2 -0.2)">
      <defs>
       <path d="M 59 58.515625 
C 59.90625 60.71875 61.5 65 68.203125 65 
L 68.203125 67.6875 
C 65.90625 67.484375 63.296875 67.484375 60.796875 67.484375 
C 58.40625 67.484375 54.296875 67.484375 52 67.6875 
L 52 65 
C 57 65 57.203125 61.5 57.203125 60.90625 
C 57.203125 59.796875 56.90625 59.109375 56.59375 58.3125 
L 36.90625 6.96875 
L 16.296875 60.71875 
C 16 61.421875 15.796875 61.921875 15.796875 62.40625 
C 15.796875 65 19.796875 65 21.90625 65 
L 21.90625 67.484375 
C 18.703125 67.484375 14 67.484375 10.703125 67.484375 
C 8.09375 67.484375 3.40625 67.484375 1 67.6875 
L 1 65 
C 6.796875 65 7.90625 64.609375 9.09375 61.421875 
L 32.90625 -0.40625 
C 33.40625 -1.796875 33.5 -2 34.59375 -2 
C 35.703125 -2 35.796875 -1.796875 36.296875 -0.40625 
z
" id="CMR17-86"/>
       <path d="M 29.203125 67.59375 
L 29.203125 65 
C 35.09375 65 36 64.40625 36 59.6875 
L 36 36.640625 
C 35.59375 37.140625 31.5 43.59375 23.40625 43.59375 
C 13.203125 43.59375 3.296875 34.5 3.296875 21.3125 
C 3.296875 8.203125 12.59375 -1 22.40625 -1 
C 30.90625 -1 35.296875 5.265625 35.796875 5.9375 
L 35.796875 -0.984375 
L 47.90625 -0.984375 
L 47.90625 2 
C 42 2 41.09375 2.59375 41.09375 7.390625 
L 41.09375 68.6875 
z
M 35.796875 11.796875 
C 35.796875 8.796875 34 6.09375 31.703125 4.09375 
C 28.296875 1.09375 24.90625 0.59375 23 0.59375 
C 20.09375 0.59375 9.703125 2.09375 9.703125 21.1875 
C 9.703125 40.8125 21.296875 42 23.90625 42 
C 28.5 42 32.203125 39.40625 34.5 35.796875 
C 35.796875 33.703125 35.796875 33.40625 35.796875 31.609375 
z
" id="CMR17-100"/>
       <path d="M 15.09375 40 
L 29.09375 40 
L 29.09375 42.578125 
L 15.09375 42.578125 
L 15.09375 61 
L 13.296875 61 
C 13.09375 50.703125 9.59375 41.6875 1.09375 41.6875 
L 1.09375 40 
L 9.796875 40 
L 9.796875 12.046875 
C 9.796875 10.15625 9.796875 -1 21.40625 -1 
C 27.296875 -1 30.703125 4.78125 30.703125 12.140625 
L 30.703125 17.8125 
L 28.90625 17.8125 
L 28.90625 12.234375 
C 28.90625 5.375 26.203125 0.796875 22 0.796875 
C 19.09375 0.796875 15.09375 2.78125 15.09375 11.84375 
z
" id="CMR17-116"/>
      </defs>
      <use transform="scale(0.996264)" xlink:href="#CMR17-86"/>
      <use transform="translate(61.265174 0)scale(0.996264)" xlink:href="#CMR17-97"/>
      <use transform="translate(106.955652 0)scale(0.996264)" xlink:href="#CMR17-108"/>
      <use transform="translate(131.82671 0)scale(0.996264)" xlink:href="#CMR17-105"/>
      <use transform="translate(156.697768 0)scale(0.996264)" xlink:href="#CMR17-100"/>
      <use transform="translate(207.593138 0)scale(0.996264)" xlink:href="#CMR17-97"/>
      <use transform="translate(253.283615 0)scale(0.996264)" xlink:href="#CMR17-116"/>
      <use transform="translate(288.564383 0)scale(0.996264)" xlink:href="#CMR17-105"/>
      <use transform="translate(313.435442 0)scale(0.996264)" xlink:href="#CMR17-111"/>
      <use transform="translate(359.125919 0)scale(0.996264)" xlink:href="#CMR17-110"/>
      <use transform="translate(440.097255 0)scale(0.996264)" xlink:href="#CMR17-108"/>
      <use transform="translate(464.968313 0)scale(0.996264)" xlink:href="#CMR17-111"/>
      <use transform="translate(510.658791 0)scale(0.996264)" xlink:href="#CMR17-115"/>
      <use transform="translate(546.460128 0)scale(0.996264)" xlink:href="#CMR17-115"/>
     </g>
    </g>
   </g>
  </g>
 </g>
 <defs>
  <clipPath id="p9194093b4c">
   <rect height="255.974739" width="370.611179" x="68.588821" y="21.6"/>
  </clipPath>
 </defs>
</svg>
