<?xml version="1.0" encoding="utf-8" standalone="no"?>
<!DOCTYPE svg PUBLIC "-//W3C//DTD SVG 1.1//EN"
  "http://www.w3.org/Graphics/SVG/1.1/DTD/svg11.dtd">
<!-- Created with matplotlib (https://matplotlib.org/) -->
<svg height="345.6pt" version="1.1" viewBox="0 0 460.8 345.6" width="460.8pt" xmlns="http://www.w3.org/2000/svg" xmlns:xlink="http://www.w3.org/1999/xlink">
 <metadata>
  <rdf:RDF xmlns:cc="http://creativecommons.org/ns#" xmlns:dc="http://purl.org/dc/elements/1.1/" xmlns:rdf="http://www.w3.org/1999/02/22-rdf-syntax-ns#">
   <cc:Work>
    <dc:type rdf:resource="http://purl.org/dc/dcmitype/StillImage"/>
    <dc:date>2022-09-26T13:41:13.188527</dc:date>
    <dc:format>image/svg+xml</dc:format>
    <dc:creator>
     <cc:Agent>
      <dc:title>Matplotlib v3.3.4, https://matplotlib.org/</dc:title>
     </cc:Agent>
    </dc:creator>
   </cc:Work>
  </rdf:RDF>
 </metadata>
 <defs>
  <style type="text/css">*{stroke-linecap:butt;stroke-linejoin:round;}</style>
 </defs>
 <g id="figure_1">
  <g id="patch_1">
   <path d="M 0 345.6 
L 460.8 345.6 
L 460.8 0 
L 0 0 
z
" style="fill:#ffffff;"/>
  </g>
  <g id="axes_1">
   <g id="patch_2">
    <path d="M 83.146352 277.574739 
L 436.994128 277.574739 
L 436.994128 21.6 
L 83.146352 21.6 
z
" style="fill:#ffffff;"/>
   </g>
   <g id="matplotlib.axis_1">
    <g id="xtick_1">
     <g id="line2d_1">
      <defs>
       <path d="M 0 0 
L 0 3.5 
" id="m70b54c1c2d" style="stroke:#000000;stroke-width:0.8;"/>
      </defs>
      <g>
       <use style="stroke:#000000;stroke-width:0.8;" x="99.230342" xlink:href="#m70b54c1c2d" y="277.574739"/>
      </g>
     </g>
     <g id="text_1">
      <!-- $\mathdefault{0}$ -->
      <g transform="translate(94.661294 298.411736)scale(0.2 -0.2)">
       <defs>
        <path d="M 42 31.640625 
C 42 37.75 41.90625 48.125 37.703125 56.109375 
C 34 63.109375 28.09375 65.59375 22.90625 65.59375 
C 18.09375 65.59375 12 63.40625 8.203125 56.203125 
C 4.203125 48.71875 3.796875 39.4375 3.796875 31.640625 
C 3.796875 25.953125 3.90625 17.28125 7 9.671875 
C 11.296875 -0.609375 19 -2 22.90625 -2 
C 27.5 -2 34.5 -0.109375 38.59375 9.375 
C 41.59375 16.28125 42 24.359375 42 31.640625 
z
M 22.90625 -0.40625 
C 16.5 -0.40625 12.703125 5.078125 11.296875 12.6875 
C 10.203125 18.5625 10.203125 27.15625 10.203125 32.75 
C 10.203125 40.4375 10.203125 46.828125 11.5 52.921875 
C 13.40625 61.390625 19 64 22.90625 64 
C 27 64 32.296875 61.296875 34.203125 53.125 
C 35.5 47.4375 35.59375 40.734375 35.59375 32.75 
C 35.59375 26.25 35.59375 18.265625 34.40625 12.375 
C 32.296875 1.484375 26.40625 -0.40625 22.90625 -0.40625 
z
" id="CMR17-48"/>
       </defs>
       <use transform="scale(0.996264)" xlink:href="#CMR17-48"/>
      </g>
     </g>
    </g>
    <g id="xtick_2">
     <g id="line2d_2">
      <g>
       <use style="stroke:#000000;stroke-width:0.8;" x="179.690521" xlink:href="#m70b54c1c2d" y="277.574739"/>
      </g>
     </g>
     <g id="text_2">
      <!-- $\mathdefault{500}$ -->
      <g transform="translate(165.983378 298.411736)scale(0.2 -0.2)">
       <defs>
        <path d="M 11.40625 57.6875 
C 12.40625 57.28125 16.5 56 20.703125 56 
C 30 56 35.09375 61.109375 38 64.0625 
C 38 64.953125 38 65.5 37.40625 65.5 
C 37.296875 65.5 37.09375 65.5 36.296875 65.046875 
C 32.796875 63.40625 28.703125 62.078125 23.703125 62.078125 
C 20.703125 62.078125 16.203125 62.484375 11.296875 64.671875 
C 10.203125 65.171875 10 65.171875 9.90625 65.171875 
C 9.40625 65.171875 9.296875 65.0625 9.296875 63.078125 
L 9.296875 34.421875 
C 9.296875 32.640625 9.296875 32.140625 10.296875 32.140625 
C 10.796875 32.140625 11 32.34375 11.5 33.03125 
C 14.703125 37.515625 19.09375 39.40625 24.09375 39.40625 
C 27.59375 39.40625 35.09375 37.21875 35.09375 20.140625 
C 35.09375 16.953125 35.09375 11.171875 32.09375 6.578125 
C 29.59375 2.484375 25.703125 0.390625 21.40625 0.390625 
C 14.796875 0.390625 8.09375 5 6.296875 12.71875 
C 6.703125 12.609375 7.5 12.421875 7.90625 12.421875 
C 9.203125 12.421875 11.703125 13.125 11.703125 16.21875 
C 11.703125 18.90625 9.796875 20 7.90625 20 
C 5.59375 20 4.09375 18.59375 4.09375 15.796875 
C 4.09375 7.09375 11 -2 21.59375 -2 
C 31.90625 -2 41.703125 6.875 41.703125 19.75 
C 41.703125 31.71875 33.90625 41 24.203125 41 
C 19.09375 41 14.796875 39.109375 11.40625 35.53125 
z
" id="CMR17-53"/>
       </defs>
       <use transform="scale(0.996264)" xlink:href="#CMR17-53"/>
       <use transform="translate(45.690477 0)scale(0.996264)" xlink:href="#CMR17-48"/>
       <use transform="translate(91.380954 0)scale(0.996264)" xlink:href="#CMR17-48"/>
      </g>
     </g>
    </g>
    <g id="xtick_3">
     <g id="line2d_3">
      <g>
       <use style="stroke:#000000;stroke-width:0.8;" x="260.1507" xlink:href="#m70b54c1c2d" y="277.574739"/>
      </g>
     </g>
     <g id="text_3">
      <!-- $\mathdefault{1000}$ -->
      <g transform="translate(241.874509 298.411736)scale(0.2 -0.2)">
       <defs>
        <path d="M 26.59375 63.40625 
C 26.59375 65.5 26.5 65.5 25.09375 65.5 
C 21.203125 61.1875 15.296875 59.796875 9.703125 59.796875 
C 9.40625 59.796875 8.90625 59.796875 8.796875 59.5 
C 8.703125 59.296875 8.703125 59.09375 8.703125 57 
C 11.796875 57 17 57.59375 21 59.984375 
L 21 7.203125 
C 21 3.6875 20.796875 2.5 12.203125 2.5 
L 9.203125 2.5 
L 9.203125 0 
C 14 0 19 0 23.796875 0 
C 28.59375 0 33.59375 0 38.40625 0 
L 38.40625 2.5 
L 35.40625 2.5 
C 26.796875 2.5 26.59375 3.59375 26.59375 7.15625 
z
" id="CMR17-49"/>
       </defs>
       <use transform="scale(0.996264)" xlink:href="#CMR17-49"/>
       <use transform="translate(45.690477 0)scale(0.996264)" xlink:href="#CMR17-48"/>
       <use transform="translate(91.380954 0)scale(0.996264)" xlink:href="#CMR17-48"/>
       <use transform="translate(137.071431 0)scale(0.996264)" xlink:href="#CMR17-48"/>
      </g>
     </g>
    </g>
    <g id="xtick_4">
     <g id="line2d_4">
      <g>
       <use style="stroke:#000000;stroke-width:0.8;" x="340.610879" xlink:href="#m70b54c1c2d" y="277.574739"/>
      </g>
     </g>
     <g id="text_4">
      <!-- $\mathdefault{1500}$ -->
      <g transform="translate(322.334688 298.411736)scale(0.2 -0.2)">
       <use transform="scale(0.996264)" xlink:href="#CMR17-49"/>
       <use transform="translate(45.690477 0)scale(0.996264)" xlink:href="#CMR17-53"/>
       <use transform="translate(91.380954 0)scale(0.996264)" xlink:href="#CMR17-48"/>
       <use transform="translate(137.071431 0)scale(0.996264)" xlink:href="#CMR17-48"/>
      </g>
     </g>
    </g>
    <g id="xtick_5">
     <g id="line2d_5">
      <g>
       <use style="stroke:#000000;stroke-width:0.8;" x="421.071058" xlink:href="#m70b54c1c2d" y="277.574739"/>
      </g>
     </g>
     <g id="text_5">
      <!-- $\mathdefault{2000}$ -->
      <g transform="translate(402.794868 298.411736)scale(0.2 -0.2)">
       <defs>
        <path d="M 41.703125 15.453125 
L 39.90625 15.453125 
C 38.90625 8.375 38.09375 7.171875 37.703125 6.5625 
C 37.203125 5.765625 30 5.765625 28.59375 5.765625 
L 9.40625 5.765625 
C 13 9.671875 20 16.75 28.5 24.953125 
C 34.59375 30.734375 41.703125 37.53125 41.703125 47.421875 
C 41.703125 59.21875 32.296875 66 21.796875 66 
C 10.796875 66 4.09375 56.3125 4.09375 47.34375 
C 4.09375 43.4375 7 42.9375 8.203125 42.9375 
C 9.203125 42.9375 12.203125 43.546875 12.203125 47.03125 
C 12.203125 50.109375 9.59375 51 8.203125 51 
C 7.59375 51 7 50.90625 6.59375 50.703125 
C 8.5 59.21875 14.296875 63.40625 20.40625 63.40625 
C 29.09375 63.40625 34.796875 56.515625 34.796875 47.421875 
C 34.796875 38.734375 29.703125 31.25 24 24.75 
L 4.09375 2.28125 
L 4.09375 0 
L 39.296875 0 
z
" id="CMR17-50"/>
       </defs>
       <use transform="scale(0.996264)" xlink:href="#CMR17-50"/>
       <use transform="translate(45.690477 0)scale(0.996264)" xlink:href="#CMR17-48"/>
       <use transform="translate(91.380954 0)scale(0.996264)" xlink:href="#CMR17-48"/>
       <use transform="translate(137.071431 0)scale(0.996264)" xlink:href="#CMR17-48"/>
      </g>
     </g>
    </g>
    <g id="text_6">
     <!-- Epoch -->
     <g transform="translate(234.754704 320.124366)scale(0.2 -0.2)">
      <defs>
       <path d="M 60.703125 25.234375 
L 58.90625 25.234375 
C 56.703125 10.5625 55.40625 2.59375 37.796875 2.59375 
L 23.90625 2.59375 
C 19.90625 2.59375 19.703125 3.078125 19.703125 6.46875 
L 19.703125 34 
L 29.09375 34 
C 38.5 34 39.40625 30.625 39.40625 22.34375 
L 41.203125 22.34375 
L 41.203125 48.140625 
L 39.40625 48.140625 
C 39.40625 39.953125 38.5 36.59375 29.09375 36.59375 
L 19.703125 36.59375 
L 19.703125 61.140625 
C 19.703125 64.5 19.90625 65 23.90625 65 
L 37.59375 65 
C 53.09375 65 54.90625 58.890625 56.296875 45.765625 
L 58.09375 45.765625 
L 55.703125 67.578125 
L 5.09375 67.578125 
L 5.09375 65 
C 12 65 13.09375 65 13.09375 60.53125 
L 13.09375 7.046875 
C 13.09375 2.59375 12 2.59375 5.09375 2.59375 
L 5.09375 0 
L 57.09375 0 
z
" id="CMR17-69"/>
       <path d="M 22 -16.609375 
C 15.59375 -16.609375 15.203125 -16.203125 15.203125 -12.328125 
L 15.203125 6.28125 
C 18.09375 2.09375 22.296875 -0.59375 27.59375 -0.59375 
C 37.59375 -0.59375 47.703125 8.171875 47.703125 21.6875 
C 47.703125 34.234375 39 43.78125 28.703125 43.78125 
C 22.703125 43.78125 17.796875 40.5 15 36.53125 
L 15 43.78125 
L 3.09375 42.6875 
L 3.09375 40.109375 
C 9 40.109375 9.90625 39.5 9.90625 34.734375 
L 9.90625 -12.328125 
C 9.90625 -16.109375 9.5 -16.609375 3.09375 -16.609375 
L 3.09375 -19.1875 
C 5.5 -19 9.90625 -19 12.5 -19 
C 15.09375 -19 19.59375 -19 22 -19.1875 
z
M 15.203125 31.4375 
C 15.203125 32.84375 15.203125 34.921875 19.09375 38.609375 
C 19.59375 39.015625 23 42 28 42 
C 35.296875 42 41.296875 32.9375 41.296875 21.59375 
C 41.296875 10.25 34.90625 1 27 1 
C 23.40625 1 19.5 2.6875 16.5 7.375 
C 15.203125 9.5625 15.203125 10.15625 15.203125 11.75 
z
" id="CMR17-112"/>
       <path d="M 43.09375 21.1875 
C 43.09375 34 33.796875 44 22.90625 44 
C 12 44 2.703125 34 2.703125 21.1875 
C 2.703125 8.609375 12 -1 22.90625 -1 
C 33.796875 -1 43.09375 8.609375 43.09375 21.1875 
z
M 22.90625 0.796875 
C 18.203125 0.796875 14.203125 3.59375 11.90625 7.5 
C 9.40625 11.984375 9.09375 17.59375 9.09375 22 
C 9.09375 26.203125 9.296875 31.40625 11.90625 35.90625 
C 13.90625 39.203125 17.796875 42.40625 22.90625 42.40625 
C 27.40625 42.40625 31.203125 39.90625 33.59375 36.40625 
C 36.703125 31.703125 36.703125 25.109375 36.703125 22 
C 36.703125 18.09375 36.5 12.109375 33.796875 7.296875 
C 31 2.703125 26.703125 0.796875 22.90625 0.796875 
z
" id="CMR17-111"/>
       <path d="M 34.90625 35 
C 33 35 30.203125 35 30.203125 31.515625 
C 30.203125 28.71875 32.5 27.921875 33.796875 27.921875 
C 34.5 27.921875 37.40625 28.234375 37.40625 31.625 
C 37.40625 38.546875 30.59375 43.796875 22.90625 43.796875 
C 12.296875 43.796875 3.296875 34.03125 3.296875 21.296875 
C 3.296875 8.0625 12.703125 -1 22.90625 -1 
C 35.296875 -1 38.40625 10.578125 38.40625 11.6875 
C 38.40625 12.09375 38.296875 12.390625 37.59375 12.390625 
C 36.90625 12.390625 36.796875 12.296875 36.40625 10.984375 
C 33.796875 2.8125 28.09375 0.796875 23.796875 0.796875 
C 17.40625 0.796875 9.703125 6.671875 9.703125 21.390625 
C 9.703125 36.53125 17.09375 42 23 42 
C 26.90625 42 32.703125 40.203125 34.90625 35 
z
" id="CMR17-99"/>
       <path d="M 41.5 30.203125 
C 41.5 35.296875 40.5 43.59375 28.703125 43.59375 
C 20.5 43.59375 16.5 37 15.296875 33.703125 
L 15.203125 33.703125 
L 15.203125 68.6875 
L 3.296875 67.59375 
L 3.296875 65 
C 9.203125 65 10.09375 64.40625 10.09375 59.640625 
L 10.09375 6.65625 
C 10.09375 2.875 9.703125 2.390625 3.296875 2.390625 
L 3.296875 -0.203125 
C 5.703125 0 10.09375 0 12.703125 0 
C 15.296875 0 19.796875 0 22.203125 -0.203125 
L 22.203125 2.390625 
C 15.796875 2.390625 15.40625 2.78125 15.40625 6.6875 
L 15.40625 25.90625 
C 15.40625 35.109375 21 42 28 42 
C 35.40625 42 36.203125 35.40625 36.203125 30.59375 
L 36.203125 6.6875 
C 36.203125 2.875 35.796875 2.390625 29.40625 2.390625 
L 29.40625 -0.203125 
C 31.796875 0 36.203125 0 38.796875 0 
C 41.40625 0 45.90625 0 48.296875 -0.203125 
L 48.296875 2.390625 
C 41.90625 2.390625 41.5 2.78125 41.5 6.6875 
z
" id="CMR17-104"/>
      </defs>
      <use transform="scale(0.996264)" xlink:href="#CMR17-69"/>
      <use transform="translate(62.586301 0)scale(0.996264)" xlink:href="#CMR17-112"/>
      <use transform="translate(116.084109 0)scale(0.996264)" xlink:href="#CMR17-111"/>
      <use transform="translate(164.377025 0)scale(0.996264)" xlink:href="#CMR17-99"/>
      <use transform="translate(202.260231 0)scale(0.996264)" xlink:href="#CMR17-104"/>
     </g>
    </g>
   </g>
   <g id="matplotlib.axis_2">
    <g id="ytick_1">
     <g id="line2d_6">
      <defs>
       <path d="M 0 0 
L -3.5 0 
" id="m27878c7049" style="stroke:#000000;stroke-width:0.8;"/>
      </defs>
      <g>
       <use style="stroke:#000000;stroke-width:0.8;" x="83.146352" xlink:href="#m27878c7049" y="268.244296"/>
      </g>
     </g>
     <g id="text_7">
      <!-- $\mathdefault{0.0}$ -->
      <g transform="translate(52.450726 275.162794)scale(0.2 -0.2)">
       <defs>
        <path d="M 18.40625 4.796875 
C 18.40625 7.6875 16 9.671875 13.59375 9.671875 
C 10.703125 9.671875 8.703125 7.28125 8.703125 4.890625 
C 8.703125 2 11.09375 0 13.5 0 
C 16.40625 0 18.40625 2.390625 18.40625 4.796875 
z
" id="CMMI12-58"/>
       </defs>
       <use transform="scale(0.996264)" xlink:href="#CMR17-48"/>
       <use transform="translate(45.690477 0)scale(0.996264)" xlink:href="#CMMI12-58"/>
       <use transform="translate(72.787654 0)scale(0.996264)" xlink:href="#CMR17-48"/>
      </g>
     </g>
    </g>
    <g id="ytick_2">
     <g id="line2d_7">
      <g>
       <use style="stroke:#000000;stroke-width:0.8;" x="83.146352" xlink:href="#m27878c7049" y="218.891306"/>
      </g>
     </g>
     <g id="text_8">
      <!-- $\mathdefault{2.5}$ -->
      <g transform="translate(52.450726 225.809805)scale(0.2 -0.2)">
       <use transform="scale(0.996264)" xlink:href="#CMR17-50"/>
       <use transform="translate(45.690477 0)scale(0.996264)" xlink:href="#CMMI12-58"/>
       <use transform="translate(72.787654 0)scale(0.996264)" xlink:href="#CMR17-53"/>
      </g>
     </g>
    </g>
    <g id="ytick_3">
     <g id="line2d_8">
      <g>
       <use style="stroke:#000000;stroke-width:0.8;" x="83.146352" xlink:href="#m27878c7049" y="169.538317"/>
      </g>
     </g>
     <g id="text_9">
      <!-- $\mathdefault{5.0}$ -->
      <g transform="translate(52.450726 176.456815)scale(0.2 -0.2)">
       <use transform="scale(0.996264)" xlink:href="#CMR17-53"/>
       <use transform="translate(45.690477 0)scale(0.996264)" xlink:href="#CMMI12-58"/>
       <use transform="translate(72.787654 0)scale(0.996264)" xlink:href="#CMR17-48"/>
      </g>
     </g>
    </g>
    <g id="ytick_4">
     <g id="line2d_9">
      <g>
       <use style="stroke:#000000;stroke-width:0.8;" x="83.146352" xlink:href="#m27878c7049" y="120.185327"/>
      </g>
     </g>
     <g id="text_10">
      <!-- $\mathdefault{7.5}$ -->
      <g transform="translate(52.450726 127.103825)scale(0.2 -0.2)">
       <defs>
        <path d="M 45.09375 61.578125 
L 45.09375 63.765625 
L 21.59375 63.765625 
C 9.90625 63.765625 9.703125 65.078125 9.296875 67 
L 7.5 67 
L 4.59375 48.34375 
L 6.40625 48.34375 
C 6.703125 50.234375 7.40625 55.3125 8.59375 57.203125 
C 9.203125 58 16.59375 58 18.296875 58 
L 40.296875 58 
L 29.203125 41.578125 
C 21.796875 30.53125 16.703125 15.609375 16.703125 2.578125 
C 16.703125 1.390625 16.703125 -2 20.296875 -2 
C 23.90625 -2 23.90625 1.390625 23.90625 2.671875 
L 23.90625 7.265625 
C 23.90625 23.5625 26.703125 34.3125 31.296875 41.1875 
z
" id="CMR17-55"/>
       </defs>
       <use transform="scale(0.996264)" xlink:href="#CMR17-55"/>
       <use transform="translate(45.690477 0)scale(0.996264)" xlink:href="#CMMI12-58"/>
       <use transform="translate(72.787654 0)scale(0.996264)" xlink:href="#CMR17-53"/>
      </g>
     </g>
    </g>
    <g id="ytick_5">
     <g id="line2d_10">
      <g>
       <use style="stroke:#000000;stroke-width:0.8;" x="83.146352" xlink:href="#m27878c7049" y="70.832337"/>
      </g>
     </g>
     <g id="text_11">
      <!-- $\mathdefault{10.0}$ -->
      <g transform="translate(43.31263 77.750836)scale(0.2 -0.2)">
       <use transform="scale(0.996264)" xlink:href="#CMR17-49"/>
       <use transform="translate(45.690477 0)scale(0.996264)" xlink:href="#CMR17-48"/>
       <use transform="translate(91.380954 0)scale(0.996264)" xlink:href="#CMMI12-58"/>
       <use transform="translate(118.478131 0)scale(0.996264)" xlink:href="#CMR17-48"/>
      </g>
     </g>
    </g>
    <g id="text_12">
     <!-- MSE Loss -->
     <g transform="translate(35.436997 189.879276)rotate(-90)scale(0.2 -0.2)">
      <defs>
       <path d="M 20.90625 66 
C 20.296875 67.5 20.203125 67.5 18.09375 67.5 
L 5.296875 67.5 
L 5.296875 65 
C 12.203125 65 13.296875 65 13.296875 60.546875 
L 13.296875 9.53125 
C 13.296875 7.046875 13.296875 2.390625 5.296875 2.390625 
L 5.296875 -0.203125 
C 7.59375 0 11.796875 0 14.296875 0 
C 16.796875 0 21 0 23.296875 -0.203125 
L 23.296875 2.390625 
C 15.296875 2.390625 15.296875 7.046875 15.296875 9.53125 
L 15.296875 64.609375 
L 15.40625 64.609375 
L 38.90625 1.390625 
C 39.296875 0.390625 39.5 -0.203125 40.296875 -0.203125 
C 41.09375 -0.203125 41.296875 0.390625 41.703125 1.390625 
L 65.40625 65.09375 
L 65.5 65.09375 
L 65.5 6.84375 
C 65.5 2.390625 64.40625 2.390625 57.5 2.390625 
L 57.5 -0.203125 
C 60.203125 0 65.59375 0 68.5 0 
C 71.40625 0 76.90625 0 79.59375 -0.203125 
L 79.59375 2.390625 
C 72.703125 2.390625 71.59375 2.390625 71.59375 6.84375 
L 71.59375 60.546875 
C 71.59375 65 72.703125 65 79.59375 65 
L 79.59375 67.5 
L 66.90625 67.5 
C 64.796875 67.5 64.703125 67.40625 64.09375 65.90625 
L 42.5 7.84375 
z
" id="CMR17-77"/>
       <path d="M 43.796875 67.03125 
C 43.796875 68.8125 43.703125 68.921875 43.09375 68.921875 
C 42.5 68.921875 42.296875 68.515625 41.90625 67.625 
L 38.90625 61.046875 
C 35.09375 66.515625 29.296875 69 23 69 
C 12.796875 69 4.59375 60.953125 4.59375 50.828125 
C 4.59375 47.75 5.296875 43.375 8.703125 39.21875 
C 12.40625 34.65625 15.90625 33.859375 23.90625 31.765625 
C 26.90625 30.96875 31.90625 29.671875 32.90625 29.28125 
C 38.59375 26.90625 41.59375 20.953125 41.59375 15.390625 
C 41.59375 8.234375 36.5 0.59375 27.796875 0.59375 
C 17.09375 0.59375 7.09375 6.546875 6.40625 20.484375 
C 6.296875 22.078125 6.203125 22.171875 5.5 22.171875 
C 4.703125 22.171875 4.59375 22.078125 4.59375 20.078125 
L 4.59375 -0.015625 
C 4.59375 -1.796875 4.703125 -1.90625 5.296875 -1.90625 
C 6 -1.90625 6.203125 -1.40625 7.59375 1.6875 
C 7.703125 1.984375 7.703125 2.1875 9.59375 5.953125 
C 14.59375 -0.609375 23 -2 27.796875 -2 
C 38.703125 -2 46.40625 7.046875 46.40625 17.5625 
C 46.40625 22.71875 44.5 26.6875 43.40625 28.484375 
C 39.203125 34.84375 34.703125 36.03125 29.90625 37.21875 
C 29.203125 37.53125 29 37.53125 23.40625 38.90625 
C 18 40.296875 15.703125 41 13.203125 43.6875 
C 10.40625 46.75 9.40625 49.9375 9.40625 53.109375 
C 9.40625 59.5625 14.59375 66.609375 23.09375 66.609375 
C 33.703125 66.609375 40.296875 59.15625 41.796875 46.765625 
C 42.09375 44.96875 42.203125 44.875 42.90625 44.875 
C 43.796875 44.875 43.796875 45.171875 43.796875 46.859375 
z
" id="CMR17-83"/>
       <path d="M 54.203125 25.234375 
L 52.40625 25.234375 
C 51.59375 15.359375 50.296875 2.59375 33.203125 2.59375 
L 23.90625 2.59375 
C 19.90625 2.59375 19.703125 3.078125 19.703125 6.46875 
L 19.703125 60.90625 
C 19.703125 64.515625 19.90625 65.5 27.5 65.5 
L 29.703125 65.5 
L 29.703125 68 
C 25.59375 68 20.796875 68 16.703125 68 
C 13.59375 68 8 68 5.09375 68 
L 5.09375 65.5 
C 12 65.5 13.09375 65.5 13.09375 61.015625 
L 13.09375 7.0625 
C 13.09375 2.59375 12 2.59375 5.09375 2.59375 
L 5.09375 0 
L 51.796875 0 
z
" id="CMR17-76"/>
       <path d="M 30.90625 42.140625 
C 30.90625 43.953125 30.796875 44.046875 30.203125 44.046875 
C 29.796875 44.046875 29.703125 43.953125 28.5 42.453125 
C 28.203125 42.046875 27.296875 41.03125 27 40.640625 
C 23.796875 44.046875 19.296875 44.046875 17.59375 44.046875 
C 6.5 44.046875 2.5 38.234375 2.5 32.4375 
C 2.5 23.40625 12.703125 21.328125 15.59375 20.703125 
C 21.90625 19.421875 24.09375 19.015625 26.203125 17.203125 
C 27.5 16.015625 29.703125 13.8125 29.703125 10.21875 
C 29.703125 6 27.296875 0.59375 18.09375 0.59375 
C 9.40625 0.59375 6.296875 7.1875 4.5 15.953125 
C 4.203125 17.34375 4.203125 17.453125 3.40625 17.453125 
C 2.59375 17.453125 2.5 17.34375 2.5 15.359375 
L 2.5 0.984375 
C 2.5 -0.796875 2.59375 -0.90625 3.203125 -0.90625 
C 3.703125 -0.90625 3.796875 -0.796875 4.296875 0 
C 4.90625 0.890625 6.40625 3.296875 7 4.3125 
C 9 1.609375 12.5 -1 18.09375 -1 
C 28 -1 33.296875 4.421875 33.296875 12.25 
C 33.296875 17.375 30.59375 20.078125 29.296875 21.28125 
C 26.296875 24.390625 22.796875 25.09375 18.59375 25.890625 
C 13.09375 27.109375 6.09375 28.515625 6.09375 34.640625 
C 6.09375 37.234375 7.5 42.765625 17.59375 42.765625 
C 28.296875 42.765625 28.90625 32.71875 29.09375 29.5 
C 29.203125 29 29.703125 28.890625 30 28.890625 
C 30.90625 28.890625 30.90625 29.203125 30.90625 30.90625 
z
" id="CMR17-115"/>
      </defs>
      <use transform="scale(0.996264)" xlink:href="#CMR17-77"/>
      <use transform="translate(84.686941 0)scale(0.996264)" xlink:href="#CMR17-83"/>
      <use transform="translate(135.58231 0)scale(0.996264)" xlink:href="#CMR17-69"/>
      <use transform="translate(228.244577 0)scale(0.996264)" xlink:href="#CMR17-76"/>
      <use transform="translate(285.625985 0)scale(0.996264)" xlink:href="#CMR17-111"/>
      <use transform="translate(331.316462 0)scale(0.996264)" xlink:href="#CMR17-115"/>
      <use transform="translate(367.1178 0)scale(0.996264)" xlink:href="#CMR17-115"/>
     </g>
    </g>
   </g>
   <g id="line2d_11">
    <path clip-path="url(#pe4d54dd31b)" d="M 99.230342 33.235215 
L 99.391262 197.933222 
L 99.713103 230.961125 
L 100.034944 242.904837 
L 100.517705 250.356966 
L 101.322307 255.184319 
L 101.965988 257.032451 
L 102.448749 257.937971 
L 102.77059 258.268798 
L 103.575192 258.641776 
L 104.540714 260.25035 
L 104.862554 260.519077 
L 105.345315 260.661967 
L 106.471758 261.540955 
L 107.115439 261.851379 
L 107.27636 261.722019 
L 107.598201 261.904348 
L 107.759121 261.593972 
L 108.080962 261.896549 
L 108.241882 261.717303 
L 108.402802 261.75645 
L 108.885563 260.978193 
L 109.046484 260.987055 
L 109.368324 262.072901 
L 109.529245 262.19963 
L 109.690165 262.148771 
L 109.851086 262.552639 
L 110.012006 262.55111 
L 110.172926 262.709551 
L 110.977528 261.699856 
L 111.138448 262.067295 
L 111.299369 262.024243 
L 111.621209 262.861107 
L 111.78213 262.666618 
L 111.94305 262.804274 
L 112.425811 262.314162 
L 112.586732 262.192649 
L 112.747652 262.788046 
L 112.908572 262.873212 
L 113.230413 263.204994 
L 113.391333 263.081417 
L 113.552254 263.133209 
L 114.356856 262.482004 
L 114.517776 262.025687 
L 114.678696 262.114854 
L 114.839617 261.897375 
L 115.161457 263.130112 
L 115.322378 262.744796 
L 115.644218 263.315437 
L 115.805139 263.011039 
L 115.966059 263.480387 
L 116.126979 263.338377 
L 116.2879 263.671826 
L 116.770661 263.592931 
L 116.931581 263.570946 
L 117.092502 263.709686 
L 117.253422 263.522051 
L 117.414342 263.803471 
L 117.897103 263.516264 
L 118.058024 263.666594 
L 118.218944 263.358928 
L 118.540785 263.75214 
L 118.701705 263.322504 
L 118.862626 263.497227 
L 119.023546 263.861499 
L 119.184466 263.337849 
L 119.506307 263.903019 
L 119.667227 263.273351 
L 119.989068 263.897674 
L 120.149988 263.680701 
L 120.310909 263.719376 
L 120.471829 264.024614 
L 120.63275 263.205544 
L 120.95459 263.980193 
L 121.115511 263.438656 
L 121.437351 264.019047 
L 121.598272 263.397138 
L 121.920112 264.000175 
L 122.081033 263.77601 
L 122.402873 263.966908 
L 122.563794 263.281707 
L 122.885635 264.071865 
L 123.046555 263.826279 
L 123.368396 264.186355 
L 123.529316 263.421742 
L 123.851157 264.04574 
L 124.012077 263.82012 
L 124.172997 263.997689 
L 124.494838 263.715769 
L 124.655758 263.440245 
L 124.816679 263.864297 
L 124.977599 263.507097 
L 125.13852 263.507042 
L 125.29944 263.974526 
L 125.46036 263.714177 
L 125.621281 264.191812 
L 125.782201 263.819674 
L 125.943121 263.755353 
L 126.104042 264.001815 
L 126.264962 263.651312 
L 126.425882 263.783825 
L 126.586803 263.177772 
L 127.230484 262.639862 
L 127.552325 264.053135 
L 127.713245 264.028617 
L 127.874166 264.240862 
L 128.035086 264.021525 
L 128.196006 264.31147 
L 128.517847 264.145008 
L 128.678767 264.310805 
L 128.839688 264.158387 
L 129.000608 264.415561 
L 129.161529 264.258806 
L 129.322449 264.369252 
L 129.64429 264.212879 
L 129.80521 263.567654 
L 129.96613 263.75809 
L 130.770732 262.069927 
L 131.092573 263.504296 
L 131.253493 263.224481 
L 131.414414 263.320706 
L 131.575334 263.815681 
L 131.736254 263.543822 
L 132.058095 264.157961 
L 132.219015 263.980094 
L 132.379936 264.332169 
L 132.540856 264.156475 
L 132.862697 264.163316 
L 133.023617 263.976423 
L 133.184537 264.184422 
L 133.345458 264.136301 
L 133.506378 264.3474 
L 133.989139 264.065424 
L 134.793741 263.659869 
L 134.954661 263.62823 
L 135.115582 264.22673 
L 135.276502 264.255143 
L 135.437422 264.470726 
L 136.081104 264.188752 
L 136.242024 264.410596 
L 136.402945 264.183656 
L 136.563865 264.183912 
L 136.885706 263.722402 
L 137.207546 263.548183 
L 137.368467 264.085112 
L 137.529387 264.005573 
L 137.690308 264.497027 
L 138.012148 264.433605 
L 138.173069 264.36712 
L 138.333989 264.162886 
L 138.494909 264.296534 
L 138.65583 264.0879 
L 138.81675 264.253008 
L 139.138591 263.65939 
L 139.460431 263.485264 
L 139.621352 264.378367 
L 139.782272 264.451974 
L 140.104113 264.719116 
L 140.265033 264.714202 
L 140.425954 264.82711 
L 140.586874 264.748229 
L 140.908715 264.805584 
L 141.069635 264.774873 
L 141.230555 264.382104 
L 141.391476 264.376984 
L 141.552396 264.615344 
L 141.713316 264.267933 
L 141.874237 264.217167 
L 142.035157 264.648834 
L 142.196078 264.315888 
L 142.356998 264.297114 
L 142.517918 264.536281 
L 142.678839 264.262733 
L 142.839759 264.644121 
L 143.1616 264.370234 
L 143.32252 264.679668 
L 143.48344 264.537713 
L 143.644361 264.597154 
L 143.966201 264.471831 
L 144.127122 264.134511 
L 144.448963 264.192852 
L 144.609883 264.058972 
L 144.770803 264.595877 
L 144.931724 264.375703 
L 145.092644 264.713527 
L 145.253564 264.536515 
L 145.414485 264.607383 
L 145.575405 264.860045 
L 145.897246 263.966446 
L 146.058166 264.383718 
L 146.219086 263.97345 
L 146.380007 264.429935 
L 146.540927 264.039393 
L 146.701848 264.098701 
L 146.862768 263.600782 
L 147.023688 263.581964 
L 147.184609 263.016089 
L 147.345529 262.910201 
L 147.506449 264.175496 
L 147.66737 264.538716 
L 147.82829 264.477036 
L 147.98921 264.67026 
L 148.150131 264.379126 
L 148.311051 264.616265 
L 148.471972 264.270027 
L 148.632892 264.337926 
L 148.954733 263.71267 
L 149.276573 263.348614 
L 149.437494 264.239545 
L 149.598414 264.456164 
L 149.759334 264.298783 
L 149.920255 264.603938 
L 150.081175 264.367028 
L 150.242095 264.554385 
L 150.563936 264.322072 
L 150.724857 264.506317 
L 150.885777 264.413043 
L 151.046697 264.538463 
L 151.207618 264.402583 
L 151.368538 264.514738 
L 151.529458 264.413702 
L 151.690379 264.477515 
L 152.49498 264.182841 
L 152.655901 264.333296 
L 152.816821 264.288196 
L 152.977742 264.55741 
L 153.138662 264.515661 
L 153.460503 264.590395 
L 153.621423 264.509457 
L 153.782343 264.588414 
L 153.943264 264.42383 
L 154.104184 264.538749 
L 154.265104 264.388677 
L 154.426025 264.533235 
L 154.586945 264.253082 
L 154.747865 264.24878 
L 155.069706 264.081877 
L 155.230627 264.448692 
L 155.391547 264.304359 
L 155.552467 264.819793 
L 155.713388 264.775633 
L 155.874308 264.961216 
L 156.196149 264.945969 
L 156.67891 265.078034 
L 156.83983 265.129768 
L 157.161671 264.851357 
L 157.644432 264.221647 
L 157.805352 264.226686 
L 157.966273 264.371883 
L 158.127193 264.173956 
L 158.288113 264.212157 
L 158.449034 264.129051 
L 158.609954 264.174725 
L 158.770874 263.991272 
L 158.931795 264.050205 
L 159.092715 264.292321 
L 159.253636 264.1022 
L 159.414556 264.593017 
L 159.736397 264.741786 
L 159.897317 264.834982 
L 160.058237 264.716184 
L 160.219158 264.973937 
L 160.380078 264.638848 
L 160.701919 264.995212 
L 161.023759 264.977383 
L 161.18468 265.020863 
L 161.506521 264.566997 
L 161.667441 264.870603 
L 161.828361 264.455616 
L 161.989282 264.516298 
L 162.150202 264.878104 
L 162.311122 264.768773 
L 162.472043 265.042934 
L 162.632963 264.967989 
L 162.793883 265.022634 
L 162.954804 264.883154 
L 163.115724 265.09478 
L 163.276644 264.344457 
L 163.598485 264.785837 
L 163.920326 264.539418 
L 164.081246 264.967551 
L 164.403087 264.576581 
L 164.564007 264.951832 
L 164.724928 264.739292 
L 164.885848 264.777173 
L 165.046768 265.049555 
L 165.207689 264.63373 
L 165.368609 264.538631 
L 165.529529 264.914749 
L 165.69045 264.397617 
L 165.85137 264.468207 
L 166.012291 264.903514 
L 166.173211 264.741463 
L 166.334131 265.061803 
L 166.655972 265.049191 
L 166.816892 264.927747 
L 166.977813 265.056625 
L 167.299653 263.676697 
L 167.460574 264.776955 
L 167.621494 264.879186 
L 167.782415 264.820292 
L 167.943335 264.951822 
L 168.104255 264.701973 
L 168.426096 264.97707 
L 168.747937 264.39161 
L 168.908857 264.656181 
L 169.069777 264.35189 
L 169.230698 264.875911 
L 169.391618 264.665179 
L 169.552538 264.949937 
L 169.713459 264.635343 
L 169.874379 264.953531 
L 170.0353 264.915035 
L 170.19622 264.714196 
L 170.35714 264.956728 
L 170.839901 264.896681 
L 171.000822 265.117613 
L 171.161742 264.849221 
L 171.483583 264.720552 
L 171.644503 264.105469 
L 171.805423 264.207674 
L 171.966344 264.677142 
L 172.127264 264.292538 
L 172.288185 264.45236 
L 172.610025 263.661892 
L 172.770946 263.532713 
L 172.931866 263.207521 
L 173.092786 264.252654 
L 173.253707 264.407319 
L 173.414627 263.859786 
L 173.575547 264.241982 
L 173.897388 264.017231 
L 174.058308 264.600053 
L 174.380149 264.697641 
L 174.54107 264.963317 
L 174.70199 264.679154 
L 174.86291 265.062357 
L 175.023831 264.85298 
L 175.184751 265.012818 
L 175.345671 264.812662 
L 175.506592 264.826356 
L 175.667512 264.504166 
L 175.828432 264.741953 
L 175.989353 264.549351 
L 176.311194 264.736321 
L 176.633034 264.714206 
L 177.115795 264.769983 
L 177.276716 264.636148 
L 177.437636 264.773444 
L 177.598556 264.561232 
L 177.759477 264.673716 
L 177.920397 264.40905 
L 178.081317 264.481394 
L 178.242238 264.383709 
L 178.564079 264.747516 
L 178.885919 264.959494 
L 180.012362 265.291508 
L 180.495123 265.333318 
L 180.816964 263.74519 
L 180.977884 264.927169 
L 181.138804 264.500303 
L 181.299725 264.806466 
L 181.460645 264.274455 
L 181.621565 264.48265 
L 181.782486 264.313995 
L 181.943406 264.568873 
L 182.265247 264.288775 
L 182.426167 264.732065 
L 182.587087 264.737629 
L 182.748008 265.007252 
L 183.391689 265.104443 
L 183.55261 265.283125 
L 184.035371 265.118039 
L 184.196291 265.286677 
L 184.357211 264.434554 
L 184.518132 264.432463 
L 184.679052 264.923728 
L 184.839972 264.860798 
L 185.000893 265.234109 
L 185.644574 265.222073 
L 185.805495 265.118951 
L 185.966415 265.202658 
L 186.127335 264.30184 
L 186.288256 264.06268 
L 186.449176 264.934369 
L 186.610096 264.833727 
L 186.771017 265.132146 
L 187.253778 265.271629 
L 187.575619 264.15536 
L 187.736539 264.424856 
L 187.897459 263.804091 
L 188.05838 263.920078 
L 188.38022 263.582883 
L 188.541141 264.729222 
L 188.862981 264.725221 
L 189.023902 265.037795 
L 189.184822 264.952617 
L 189.345743 265.253403 
L 189.989424 265.228339 
L 190.150344 265.081729 
L 190.472185 265.248892 
L 190.633105 264.959154 
L 190.954946 264.98442 
L 191.115866 265.08555 
L 191.276787 264.853858 
L 191.759548 264.80297 
L 192.081389 265.189444 
L 192.242309 265.262131 
L 192.403229 265.194646 
L 192.56415 265.316107 
L 192.88599 263.664097 
L 193.046911 264.943723 
L 193.207831 264.362341 
L 193.368751 264.679539 
L 193.529672 264.425251 
L 193.690592 264.571435 
L 193.851513 264.564267 
L 194.173353 264.802235 
L 194.495194 264.859619 
L 194.656114 264.966181 
L 194.817035 264.847511 
L 194.977955 265.005975 
L 195.138875 264.853227 
L 195.299796 265.030099 
L 195.460716 264.739145 
L 195.621637 265.220936 
L 195.782557 264.941664 
L 195.943477 265.272146 
L 196.104398 264.94902 
L 196.265318 265.328155 
L 196.908999 265.408664 
L 197.06992 265.503486 
L 197.39176 263.618184 
L 197.552681 264.96134 
L 197.713601 264.721857 
L 197.874522 265.062037 
L 198.035442 264.790836 
L 198.196362 265.163572 
L 198.357283 264.972386 
L 198.518203 265.330555 
L 198.679123 265.256333 
L 198.840044 265.322928 
L 199.161884 265.022063 
L 199.322805 264.30209 
L 199.644645 265.035173 
L 199.805566 265.066909 
L 199.966486 265.262036 
L 200.127407 265.120403 
L 200.449247 265.420289 
L 200.610168 265.481476 
L 200.771088 264.50089 
L 200.932008 264.30449 
L 201.092929 265.096951 
L 201.414769 265.129005 
L 201.57569 265.35626 
L 202.219371 264.957306 
L 202.380292 264.243249 
L 202.863053 264.47554 
L 203.023973 264.792639 
L 203.184893 264.453414 
L 203.345814 264.573619 
L 203.506734 264.302755 
L 203.667654 264.639372 
L 203.989495 264.549574 
L 204.150415 264.880614 
L 204.311336 264.674006 
L 204.472256 265.044599 
L 204.794097 265.18821 
L 205.276858 265.40277 
L 205.437778 265.125846 
L 205.759619 265.389965 
L 205.920539 265.002575 
L 206.08146 264.962156 
L 206.24238 265.288059 
L 206.403301 265.024274 
L 206.564221 265.078022 
L 206.725141 265.330713 
L 207.046982 264.989609 
L 207.207902 264.55885 
L 207.368823 265.033554 
L 207.529743 264.65731 
L 207.690663 265.258283 
L 207.851584 265.172185 
L 208.173424 265.413345 
L 208.334345 265.345718 
L 208.656186 265.505497 
L 208.978026 265.060191 
L 209.138947 264.281057 
L 209.299867 264.347836 
L 209.460787 263.985483 
L 209.621708 264.528781 
L 209.782628 264.331665 
L 209.943548 264.481312 
L 210.104469 264.29679 
L 210.265389 264.523836 
L 210.426309 264.991395 
L 210.58723 264.744964 
L 210.74815 265.206305 
L 210.909071 265.103536 
L 211.069991 265.287181 
L 211.230911 265.257394 
L 211.391832 265.359575 
L 211.713672 265.241229 
L 211.874593 265.46638 
L 212.035513 265.318323 
L 212.196433 265.402626 
L 212.518274 265.235531 
L 212.679194 264.557812 
L 213.001035 265.061827 
L 213.161956 264.918228 
L 213.322876 265.281327 
L 213.483796 265.147357 
L 213.644717 265.452972 
L 213.966557 265.298014 
L 214.127478 265.350499 
L 214.288398 265.152025 
L 214.449318 265.242382 
L 214.610239 265.074489 
L 214.771159 265.28405 
L 214.932079 264.539168 
L 215.093 264.401008 
L 215.25392 264.661907 
L 215.414841 264.528027 
L 215.575761 264.921352 
L 215.736681 264.668078 
L 215.897602 264.892335 
L 216.058522 264.728687 
L 216.219442 264.956092 
L 216.702203 264.997086 
L 216.863124 265.193302 
L 217.024044 265.017921 
L 217.184965 265.196348 
L 217.345885 265.049474 
L 217.506805 265.37169 
L 217.667726 265.210981 
L 217.828646 265.46453 
L 218.150487 265.317831 
L 218.311407 265.220926 
L 218.472327 265.379361 
L 218.794168 264.623135 
L 218.955088 264.786716 
L 219.116009 264.718237 
L 219.276929 265.161935 
L 219.75969 265.143261 
L 219.920611 264.907415 
L 220.081531 265.261191 
L 220.403372 265.085607 
L 220.564292 265.232561 
L 220.725212 264.981593 
L 221.047053 265.246808 
L 221.207973 264.882648 
L 221.368894 264.815774 
L 221.529814 265.209943 
L 221.690735 265.046787 
L 222.173496 265.107183 
L 222.334416 265.347959 
L 222.495336 265.146552 
L 222.656257 265.149863 
L 222.817177 264.285196 
L 223.299938 264.656601 
L 223.460858 265.013191 
L 223.621779 264.863874 
L 223.782699 264.964766 
L 223.94362 264.726081 
L 224.10454 265.156498 
L 224.26546 265.04531 
L 224.426381 265.22067 
L 224.587301 265.099287 
L 224.748221 265.426315 
L 224.909142 265.335578 
L 225.230982 265.45068 
L 225.391903 264.827873 
L 225.552823 264.727017 
L 225.713744 265.105898 
L 225.874664 264.940706 
L 226.035584 265.209901 
L 226.196505 265.019188 
L 226.357425 265.423629 
L 226.679266 265.135564 
L 226.840186 265.293297 
L 227.001106 264.90546 
L 227.162027 264.849795 
L 227.322947 265.222602 
L 227.483867 265.106434 
L 227.805708 265.497754 
L 228.44939 265.269094 
L 228.77123 263.889242 
L 229.414912 264.636409 
L 229.575832 264.542755 
L 229.897673 265.014781 
L 230.702275 265.02101 
L 230.863195 265.265375 
L 231.024115 265.125653 
L 231.185036 265.391128 
L 231.828717 265.416661 
L 232.150558 264.810434 
L 232.794239 265.313775 
L 233.11608 264.936688 
L 233.277 265.173333 
L 233.598841 265.030879 
L 233.759761 265.093657 
L 233.920682 264.875593 
L 234.081602 265.195919 
L 234.564363 265.347007 
L 234.725284 265.141894 
L 234.886204 265.189921 
L 235.047124 265.05239 
L 235.208045 265.300493 
L 235.529885 264.711124 
L 235.690806 264.988327 
L 235.851726 264.895692 
L 236.012646 265.313242 
L 236.173567 265.169262 
L 236.334487 265.418824 
L 236.495408 265.155229 
L 236.656328 265.190597 
L 236.817248 265.417861 
L 236.978169 265.184153 
L 237.300009 265.335213 
L 237.46093 265.067675 
L 237.62185 265.031853 
L 237.78277 264.693179 
L 237.943691 265.053267 
L 238.104611 264.878793 
L 238.265531 265.282998 
L 238.426452 265.04731 
L 238.587372 265.291965 
L 238.909213 265.200505 
L 239.070133 265.421721 
L 239.231054 265.306347 
L 239.391974 265.415481 
L 239.552894 265.237045 
L 239.713815 265.473853 
L 239.874735 263.497322 
L 240.357496 264.996721 
L 240.518416 264.83082 
L 240.679337 265.252328 
L 240.840257 265.253658 
L 241.001178 265.429133 
L 241.162098 265.208098 
L 241.483939 265.155792 
L 241.644859 264.943117 
L 241.805779 265.358985 
L 241.9667 265.280965 
L 242.12762 265.358854 
L 242.28854 265.59371 
L 242.449461 265.066944 
L 242.610381 265.024098 
L 242.771301 265.319234 
L 242.932222 265.104134 
L 243.093142 265.122181 
L 243.254063 265.309305 
L 243.575903 265.220824 
L 243.736824 265.422015 
L 244.058664 264.810734 
L 244.219585 265.106253 
L 244.380505 265.014711 
L 244.541425 265.328016 
L 244.702346 265.150555 
L 245.024187 265.464103 
L 245.185107 265.280456 
L 245.506948 265.463369 
L 245.667868 264.912604 
L 245.828788 264.94054 
L 245.989709 265.221778 
L 246.311549 265.168405 
L 246.47247 265.463934 
L 246.63339 264.995698 
L 246.79431 264.952586 
L 246.955231 265.205807 
L 247.116151 265.143675 
L 247.437992 265.369758 
L 247.759833 265.552221 
L 247.920753 265.534257 
L 248.242594 264.223844 
L 248.403514 265.122672 
L 248.564434 264.839957 
L 248.725355 265.164602 
L 248.886275 264.992309 
L 249.047195 265.417782 
L 249.369036 265.046691 
L 249.529957 265.208779 
L 249.690877 265.047377 
L 249.851797 265.366079 
L 250.173638 265.342218 
L 250.334558 265.504037 
L 250.495479 265.007359 
L 250.656399 265.056293 
L 250.817319 265.263746 
L 250.97824 265.105582 
L 251.30008 265.408029 
L 251.461001 265.260969 
L 251.621921 264.950643 
L 251.782842 265.188591 
L 251.943762 264.946827 
L 252.104682 265.283712 
L 252.748364 265.327389 
L 253.070204 264.59018 
L 253.231125 264.589481 
L 253.392045 264.40129 
L 253.552965 264.689406 
L 253.713886 264.589667 
L 253.874806 264.690748 
L 254.035727 265.024886 
L 254.196647 264.904715 
L 254.357567 265.275214 
L 254.518488 265.252482 
L 254.840328 265.422928 
L 255.001249 265.383653 
L 255.162169 265.532669 
L 255.323089 265.355206 
L 255.64493 265.524234 
L 255.805851 265.169677 
L 255.966771 265.169704 
L 256.127691 265.391774 
L 256.288612 265.044192 
L 256.771373 265.00484 
L 256.932293 265.294555 
L 257.093213 265.143943 
L 257.254134 265.4403 
L 257.575974 265.006079 
L 257.736895 265.298708 
L 257.897815 265.109042 
L 258.058736 265.452789 
L 258.380576 265.164615 
L 258.541497 265.405576 
L 258.702417 265.158011 
L 258.863337 265.477869 
L 259.024258 265.252007 
L 259.185178 265.244581 
L 259.667939 265.545507 
L 259.828859 265.364996 
L 259.98978 265.466998 
L 260.1507 264.104373 
L 260.311621 264.157944 
L 260.633461 264.799803 
L 260.955302 265.249482 
L 261.277143 265.24382 
L 261.598983 265.504974 
L 261.920824 265.569438 
L 262.242665 265.508192 
L 262.403585 265.552663 
L 262.564506 264.835984 
L 262.725426 264.809191 
L 262.886346 265.384143 
L 263.047267 265.234313 
L 263.208187 265.3065 
L 263.369107 265.542051 
L 263.690948 265.180262 
L 263.851868 265.326849 
L 264.012789 264.740371 
L 264.65647 265.298812 
L 264.817391 265.045502 
L 264.978311 265.506278 
L 265.300152 265.042613 
L 265.461072 265.265492 
L 265.621992 265.012381 
L 265.782913 265.361693 
L 265.943833 265.233358 
L 266.104753 265.460529 
L 266.426594 265.405761 
L 266.587515 265.56094 
L 266.748435 265.139987 
L 266.909355 265.114731 
L 267.070276 265.332278 
L 267.231196 265.266 
L 267.392116 265.442249 
L 267.713957 265.149262 
L 267.874877 264.982351 
L 268.035798 265.133475 
L 268.357638 264.884441 
L 268.518559 265.152497 
L 268.679479 265.051798 
L 268.8404 265.388587 
L 269.00132 265.012623 
L 269.16224 265.319956 
L 269.323161 265.296987 
L 269.484081 265.144666 
L 269.645001 265.335034 
L 269.805922 265.217306 
L 269.966842 265.465316 
L 270.127762 265.493231 
L 270.288683 265.337797 
L 270.449603 265.464549 
L 270.771444 265.155279 
L 270.932364 264.491161 
L 271.093285 264.704866 
L 271.254205 264.707539 
L 271.415125 265.170915 
L 271.576046 264.769175 
L 271.736966 264.98784 
L 271.897886 264.607773 
L 272.058807 264.875809 
L 272.380647 264.993118 
L 272.541568 265.184716 
L 272.702488 265.033326 
L 273.185249 265.461163 
L 273.34617 265.580886 
L 273.66801 265.450719 
L 273.828931 265.489278 
L 274.150771 265.136191 
L 274.311692 265.30852 
L 274.472612 265.045775 
L 274.633532 265.349774 
L 274.955373 265.196334 
L 275.116294 265.390086 
L 275.277214 265.184712 
L 275.599055 265.520566 
L 275.920895 265.629529 
L 276.081816 265.541515 
L 276.403656 264.898346 
L 276.564577 265.005915 
L 276.725497 264.938491 
L 276.886417 265.336907 
L 277.208258 265.03318 
L 277.369179 265.105369 
L 277.530099 264.735718 
L 277.691019 264.992312 
L 277.85194 264.991964 
L 278.01286 265.3154 
L 278.17378 265.204735 
L 278.334701 265.439499 
L 278.495621 265.426021 
L 278.656541 265.540756 
L 278.817462 265.476751 
L 279.139302 265.612005 
L 279.461143 265.100261 
L 279.782984 265.212616 
L 280.265745 265.030595 
L 280.426665 264.886081 
L 280.587586 265.124585 
L 280.748506 264.838227 
L 280.909426 265.06965 
L 281.070347 265.039709 
L 281.231267 265.442064 
L 281.392187 265.305226 
L 281.553108 265.557011 
L 281.874949 265.400269 
L 282.035869 265.373546 
L 282.35771 265.138261 
L 282.51863 265.451362 
L 282.67955 265.143399 
L 283.001391 265.387763 
L 283.162311 265.149078 
L 283.805993 265.530046 
L 283.966913 265.242623 
L 284.288754 265.662667 
L 284.610595 265.18611 
L 284.771515 265.400968 
L 284.932435 264.800025 
L 285.254276 265.206633 
L 285.415196 265.151625 
L 285.576117 265.436161 
L 285.737037 265.253563 
L 285.897958 265.604276 
L 286.219798 265.239985 
L 286.380719 265.39395 
L 286.541639 265.211857 
L 286.702559 265.512647 
L 286.86348 265.354353 
L 287.0244 265.371967 
L 287.18532 265.608694 
L 287.346241 265.171398 
L 287.507161 265.087657 
L 287.668081 265.249046 
L 287.829002 264.98832 
L 287.989922 265.380154 
L 288.150843 265.140706 
L 288.472683 265.407295 
L 288.633604 265.178238 
L 288.794524 265.469627 
L 288.955444 265.293859 
L 289.116365 265.519325 
L 289.277285 265.370611 
L 289.438205 265.395598 
L 289.599126 265.552683 
L 289.760046 265.234076 
L 289.920966 265.170108 
L 290.081887 265.429682 
L 290.242807 265.246452 
L 290.564648 265.62712 
L 290.886489 264.9034 
L 291.047409 265.108275 
L 291.208329 264.768019 
L 291.36925 265.165273 
L 291.53017 265.053795 
L 291.69109 265.510334 
L 291.852011 265.381064 
L 292.012931 265.448304 
L 292.334772 265.128782 
L 292.495692 265.479902 
L 292.817533 265.419993 
L 292.978453 265.54425 
L 293.139374 265.219554 
L 293.461214 265.439161 
L 294.265816 265.199635 
L 294.587657 264.844761 
L 294.748577 265.185529 
L 294.909498 265.039721 
L 295.070418 265.453008 
L 295.231338 265.179812 
L 295.392259 265.604821 
L 295.714099 265.507697 
L 295.87502 265.667298 
L 296.19686 265.193915 
L 296.357781 265.439419 
L 296.518701 265.07823 
L 296.679622 265.385928 
L 297.001462 265.304183 
L 297.162383 265.528578 
L 297.323303 265.408792 
L 297.645144 265.750728 
L 297.806064 265.336743 
L 297.966984 265.30713 
L 298.127905 265.409753 
L 298.288825 265.297152 
L 298.610666 265.53237 
L 298.771586 264.903224 
L 298.932507 264.756812 
L 299.093427 264.961789 
L 299.254347 264.581767 
L 299.415268 265.039646 
L 299.576188 264.47147 
L 299.737108 264.813385 
L 299.898029 264.870006 
L 300.058949 264.451217 
L 300.219869 265.257508 
L 300.38079 264.958973 
L 300.54171 265.200073 
L 300.70263 265.0779 
L 301.024471 265.301044 
L 301.185392 265.16136 
L 301.346312 265.421322 
L 301.507232 265.361987 
L 301.829073 265.655357 
L 302.150914 265.776708 
L 302.472754 265.376775 
L 302.633675 265.58526 
L 302.794595 265.257783 
L 303.116436 265.469049 
L 303.277356 265.190568 
L 303.438277 265.533068 
L 303.760117 265.273546 
L 303.921038 265.575672 
L 304.081958 265.359457 
L 304.242878 265.64944 
L 304.564719 265.664336 
L 304.88656 265.654494 
L 305.208401 264.814975 
L 305.369321 265.030348 
L 305.530241 264.761835 
L 305.691162 265.260659 
L 305.852082 264.892282 
L 306.013002 265.147339 
L 306.173923 265.103427 
L 306.334843 265.399293 
L 306.495763 265.31592 
L 306.656684 265.473243 
L 306.817604 265.296966 
L 306.978524 265.456642 
L 307.139445 265.377372 
L 307.300365 265.634611 
L 307.783126 265.491466 
L 307.944047 265.192683 
L 308.104967 265.413827 
L 308.265887 265.419745 
L 308.426808 265.312074 
L 308.587728 265.511187 
L 308.748648 265.255246 
L 309.070489 265.465121 
L 309.231409 265.333238 
L 309.39233 265.613646 
L 309.714171 265.514796 
L 309.875091 265.518021 
L 310.036011 265.088995 
L 310.357852 265.501154 
L 310.679693 265.164837 
L 310.840613 265.41305 
L 311.001533 265.118431 
L 311.162454 265.371607 
L 311.323374 265.339479 
L 311.645215 265.594628 
L 311.806135 265.32179 
L 312.127976 265.433895 
L 312.288896 265.296281 
L 312.449817 265.314963 
L 312.610737 265.534894 
L 313.254418 264.654459 
L 313.415339 265.225477 
L 313.576259 264.833741 
L 313.73718 265.289429 
L 313.8981 265.031434 
L 314.05902 265.322115 
L 314.219941 265.122438 
L 314.380861 265.304209 
L 314.541781 265.184411 
L 315.024542 265.577049 
L 315.185463 265.450033 
L 315.346383 265.623957 
L 315.507303 265.56488 
L 315.668224 265.72448 
L 315.829144 265.622141 
L 316.150985 265.728391 
L 316.311905 265.656715 
L 316.633746 264.990123 
L 316.794666 265.05394 
L 316.955587 264.715724 
L 317.116507 265.303355 
L 317.277427 265.057903 
L 317.438348 265.436887 
L 317.760188 265.224818 
L 317.921109 265.321039 
L 318.082029 265.149123 
L 318.24295 265.487007 
L 318.40387 265.186681 
L 318.725711 265.328453 
L 318.886631 265.13107 
L 319.047551 265.357095 
L 319.208472 265.3017 
L 319.369392 265.5628 
L 319.691233 265.34013 
L 319.852153 265.442753 
L 320.013073 265.328249 
L 320.173994 265.497182 
L 320.495835 265.201943 
L 320.656755 265.378542 
L 320.817675 265.172293 
L 320.978596 265.540475 
L 321.139516 265.524912 
L 321.300436 265.66409 
L 321.783197 265.536925 
L 322.105038 265.500844 
L 322.265958 265.283408 
L 322.426879 265.371979 
L 322.587799 264.93168 
L 322.74872 265.370592 
L 322.90964 265.306928 
L 323.231481 265.582702 
L 323.392401 265.370429 
L 323.714242 265.573449 
L 323.875162 265.566476 
L 324.036082 265.715505 
L 324.197003 265.490016 
L 324.357923 265.548092 
L 324.679764 265.27915 
L 324.840684 265.17162 
L 325.001605 265.516044 
L 325.162525 265.27039 
L 325.484366 265.524913 
L 325.645286 265.325778 
L 325.806206 265.626579 
L 325.967127 265.568701 
L 326.288967 265.693207 
L 326.610808 265.407 
L 326.771729 265.015403 
L 326.932649 265.100868 
L 327.093569 264.741597 
L 327.25449 265.327795 
L 327.41541 265.08822 
L 327.57633 265.528292 
L 327.737251 265.345533 
L 327.898171 265.625755 
L 328.059091 265.532387 
L 328.220012 265.776098 
L 328.702773 265.873973 
L 328.863693 265.551039 
L 329.024614 265.515519 
L 329.185534 264.904933 
L 329.346454 264.915825 
L 329.507375 264.473108 
L 329.668295 264.933709 
L 329.829215 264.704501 
L 330.151056 265.245649 
L 330.311976 264.760731 
L 330.472897 265.406129 
L 330.633817 265.342951 
L 330.794737 265.516188 
L 330.955658 265.493306 
L 331.116578 265.620362 
L 331.438419 265.435772 
L 331.599339 265.63923 
L 331.76026 265.5184 
L 332.0821 265.714117 
L 332.725782 264.746394 
L 332.886702 265.093922 
L 333.047622 264.968188 
L 333.208543 265.436315 
L 333.369463 265.214224 
L 334.013145 265.448421 
L 334.174065 265.637565 
L 334.334985 265.516339 
L 334.495906 265.638682 
L 334.817746 265.517335 
L 334.978667 265.58016 
L 335.300508 265.110776 
L 335.461428 265.352417 
L 335.622348 265.095858 
L 335.783269 265.401132 
L 335.944189 265.285679 
L 336.105109 265.656898 
L 336.26603 265.556109 
L 336.58787 265.583476 
L 336.748791 265.430657 
L 336.909711 265.584888 
L 337.231552 265.365609 
L 337.392472 265.624061 
L 337.553393 265.405363 
L 337.714313 265.63628 
L 338.518915 265.178477 
L 338.679835 265.516832 
L 338.840755 265.404871 
L 339.162596 265.659174 
L 339.484437 265.229303 
L 339.645357 265.397613 
L 339.806278 265.132362 
L 339.967198 265.530502 
L 340.128118 265.445632 
L 340.289039 265.767061 
L 340.610879 265.485866 
L 340.7718 265.730709 
L 340.93272 265.438528 
L 341.254561 265.727456 
L 341.576401 265.166607 
L 341.737322 265.33387 
L 341.898242 264.807205 
L 342.059163 265.553471 
L 342.220083 265.494012 
L 342.381003 265.758693 
L 342.863764 265.854181 
L 343.024685 265.492124 
L 343.346525 265.519502 
L 343.668366 265.404893 
L 343.829287 265.631782 
L 343.990207 265.099099 
L 344.151127 265.027242 
L 344.312048 265.275249 
L 344.472968 264.977157 
L 344.633888 265.385646 
L 344.794809 265.01363 
L 344.955729 265.311674 
L 345.116649 265.051088 
L 345.27757 265.209729 
L 345.43849 265.134005 
L 345.760331 265.384922 
L 346.404012 265.629234 
L 346.725853 265.472254 
L 346.886773 265.729853 
L 347.047694 265.605402 
L 347.369534 265.765501 
L 347.691375 265.621527 
L 348.013216 265.084054 
L 348.174136 265.540621 
L 348.335057 265.393086 
L 348.495977 265.675549 
L 348.978738 265.69541 
L 349.300579 265.164818 
L 349.461499 265.430125 
L 349.622419 265.380106 
L 349.78334 265.633669 
L 349.94426 265.669701 
L 350.10518 265.515774 
L 350.266101 265.661283 
L 350.587942 265.554083 
L 350.748862 265.470926 
L 350.909782 265.55181 
L 351.070703 265.384059 
L 351.231623 264.867247 
L 351.392543 264.994649 
L 351.553464 264.654037 
L 351.714384 264.952868 
L 351.875304 264.758959 
L 352.197145 265.2908 
L 352.358065 265.135897 
L 352.518986 265.43332 
L 352.679906 265.451778 
L 352.840827 265.646635 
L 353.162667 265.49466 
L 353.323588 265.533809 
L 353.484508 265.441657 
L 353.645428 265.701365 
L 353.806349 265.560869 
L 354.128189 265.737749 
L 354.28911 265.509531 
L 354.610951 265.499314 
L 354.771871 265.389228 
L 354.932791 265.587059 
L 355.254632 265.529553 
L 355.415552 265.585029 
L 355.576473 265.405227 
L 355.737393 265.707602 
L 356.059234 265.805534 
L 356.220154 265.850061 
L 356.702915 265.418291 
L 356.863836 265.442642 
L 357.024756 264.928832 
L 357.346597 265.354869 
L 357.507517 265.152413 
L 357.668437 265.450019 
L 357.829358 265.038029 
L 357.990278 265.367886 
L 358.151198 265.20711 
L 358.312119 265.615658 
L 358.473039 265.492288 
L 358.633959 265.683834 
L 358.79488 265.601893 
L 359.116721 265.801459 
L 359.438561 265.917617 
L 359.760402 265.694402 
L 359.921322 265.239853 
L 360.082243 265.452799 
L 360.243163 265.063897 
L 360.565004 265.610256 
L 360.725924 265.551379 
L 360.886844 265.683222 
L 361.208685 265.032347 
L 361.369606 265.250912 
L 361.530526 265.053959 
L 361.691446 265.519054 
L 361.852367 265.301543 
L 362.013287 265.676119 
L 362.335128 265.402091 
L 362.496048 265.57928 
L 362.656968 265.55228 
L 362.817889 265.672116 
L 362.978809 265.63453 
L 363.13973 265.453084 
L 363.30065 265.628574 
L 363.783411 265.407303 
L 363.944331 265.602987 
L 364.105252 265.2266 
L 364.266172 265.442436 
L 364.588013 265.349557 
L 364.748933 265.527115 
L 364.909853 265.309724 
L 365.070774 265.441033 
L 365.231694 265.402617 
L 365.392615 265.197554 
L 365.553535 265.407733 
L 365.714455 265.255523 
L 365.875376 265.722615 
L 366.036296 265.528058 
L 366.358137 265.649135 
L 366.519057 265.448269 
L 366.679977 265.647439 
L 367.001818 265.317269 
L 367.162738 265.598672 
L 367.323659 265.323112 
L 367.484579 265.700065 
L 367.80642 265.578689 
L 367.96734 265.720487 
L 368.128261 265.470852 
L 368.289181 265.684095 
L 368.450101 265.668302 
L 368.771942 265.484174 
L 368.932862 265.667511 
L 369.093783 265.341542 
L 369.254703 265.327001 
L 369.415623 265.443975 
L 369.576544 265.243677 
L 369.737464 265.655962 
L 369.898385 265.378636 
L 370.059305 265.74993 
L 370.220225 265.616281 
L 370.542066 265.746051 
L 370.702986 265.531363 
L 371.024827 265.776623 
L 371.185747 265.782807 
L 371.346668 265.575658 
L 371.507588 265.618773 
L 371.668508 264.64048 
L 372.31219 265.784264 
L 372.47311 265.657096 
L 372.634031 265.822326 
L 372.955871 265.21277 
L 373.116792 265.407134 
L 373.277712 264.928626 
L 373.438632 265.369287 
L 373.599553 265.126819 
L 373.760473 265.504721 
L 373.921394 265.239401 
L 374.082314 265.4745 
L 374.243234 265.211397 
L 374.404155 265.406791 
L 374.565075 265.282548 
L 374.725995 265.561123 
L 374.886916 265.475352 
L 375.047836 265.565063 
L 375.208756 265.472192 
L 375.530597 265.528921 
L 375.691517 265.741981 
L 376.013358 265.678296 
L 376.174279 265.749176 
L 376.335199 265.568735 
L 376.496119 265.758792 
L 376.97888 265.70438 
L 377.139801 265.770135 
L 377.461641 264.836253 
L 377.622562 265.163001 
L 377.783482 264.833336 
L 377.944402 265.257532 
L 378.105323 264.984523 
L 378.427164 265.428676 
L 378.588084 265.210843 
L 378.749004 265.580679 
L 378.909925 265.613309 
L 379.070845 265.765012 
L 379.231765 265.690157 
L 379.392686 265.488064 
L 379.553606 265.692872 
L 379.714526 265.579312 
L 379.875447 265.699865 
L 380.519128 265.581909 
L 380.680049 265.356377 
L 380.840969 265.571559 
L 381.001889 265.36682 
L 381.16281 265.693309 
L 381.48465 265.190311 
L 381.645571 265.408675 
L 381.806491 264.942711 
L 381.967411 265.299391 
L 382.128332 265.161572 
L 382.289252 265.558724 
L 382.450172 265.365914 
L 382.611093 265.528633 
L 382.772013 265.474612 
L 382.932934 265.678779 
L 383.254774 265.76816 
L 383.576615 265.509027 
L 383.737535 265.765082 
L 383.898456 265.688451 
L 384.220296 265.794821 
L 384.542137 265.382539 
L 384.703058 265.507833 
L 384.863978 265.30472 
L 385.185819 265.502168 
L 385.346739 265.034062 
L 385.507659 265.352157 
L 385.66858 264.938827 
L 385.8295 265.416312 
L 385.99042 265.235879 
L 386.955943 265.573686 
L 387.116863 265.588858 
L 387.277783 265.478799 
L 387.438704 265.724871 
L 387.599624 265.713026 
L 387.760544 265.889388 
L 388.082385 265.416436 
L 388.243305 265.749956 
L 388.404226 265.638307 
L 388.565146 265.807474 
L 388.886987 265.364255 
L 389.047907 265.713503 
L 389.208828 265.510584 
L 389.369748 265.772393 
L 390.17435 265.75059 
L 390.33527 265.709425 
L 390.49619 265.840124 
L 390.818031 264.837536 
L 390.978951 265.294351 
L 391.139872 264.997532 
L 391.300792 265.402054 
L 391.461713 265.176527 
L 391.622633 265.524099 
L 391.783553 265.479358 
L 391.944474 265.577606 
L 392.105394 265.446576 
L 392.266314 265.657592 
L 392.427235 265.578716 
L 392.588155 265.830798 
L 392.749075 265.742057 
L 393.070916 265.841371 
L 393.714598 265.664121 
L 393.875518 265.181828 
L 394.036438 265.430264 
L 394.197359 264.85246 
L 394.358279 265.658456 
L 394.519199 265.553554 
L 394.84104 265.85472 
L 395.00196 265.756551 
L 395.162881 265.866899 
L 395.323801 265.555974 
L 395.484722 265.557652 
L 395.645642 265.800832 
L 395.967483 265.30129 
L 396.128403 265.531267 
L 396.289323 265.299712 
L 396.450244 265.729356 
L 396.611164 265.613332 
L 396.772084 265.823367 
L 397.093925 265.707425 
L 397.254845 265.837995 
L 397.415766 265.64687 
L 397.576686 265.633404 
L 397.737607 265.763175 
L 397.898527 265.306377 
L 398.059447 265.197388 
L 398.220368 265.533892 
L 398.381288 265.304863 
L 398.542208 265.751789 
L 398.703129 265.630355 
L 398.864049 265.841185 
L 399.18589 265.835911 
L 399.668651 265.863985 
L 399.829571 265.897458 
L 399.990492 265.781979 
L 400.312332 264.864496 
L 400.473253 265.134074 
L 400.634173 264.939583 
L 400.795093 265.448083 
L 400.956014 265.304735 
L 401.116934 265.670534 
L 401.277854 265.595846 
L 401.438775 265.694389 
L 401.599695 265.587534 
L 401.921536 265.770892 
L 402.243377 265.892117 
L 402.565217 265.584197 
L 402.726138 265.648211 
L 403.047978 265.416245 
L 403.208899 265.507122 
L 403.369819 265.096868 
L 403.530739 265.322902 
L 403.69166 265.299516 
L 403.85258 264.912839 
L 404.013501 265.180047 
L 404.174421 264.995958 
L 404.335341 265.500467 
L 404.496262 265.438543 
L 405.139943 265.76592 
L 405.300863 265.865438 
L 405.622704 265.634667 
L 405.783624 265.811226 
L 405.944545 265.549388 
L 406.105465 265.562876 
L 406.266386 265.695303 
L 406.427306 265.418744 
L 406.749147 265.631807 
L 406.910067 265.37879 
L 407.070987 265.694709 
L 407.231908 265.519378 
L 407.392828 265.729063 
L 407.714669 265.128295 
L 407.875589 265.36072 
L 408.036509 264.933528 
L 408.19743 265.298076 
L 408.35835 265.20327 
L 408.519271 265.430546 
L 408.680191 265.283913 
L 409.162952 265.652295 
L 409.806633 265.642853 
L 410.128474 265.808844 
L 410.289394 265.836563 
L 410.772156 265.646397 
L 410.933076 265.751604 
L 411.254917 265.674163 
L 411.415837 265.718318 
L 411.737678 265.530597 
L 411.898598 265.604089 
L 412.220439 265.177177 
L 412.381359 265.420139 
L 412.54228 264.986094 
L 412.7032 265.446912 
L 412.86412 265.288929 
L 413.025041 265.625776 
L 413.185961 265.468382 
L 413.346881 265.689765 
L 413.507802 265.596889 
L 413.668722 265.818738 
L 413.990563 265.656853 
L 414.151483 265.793366 
L 414.312403 265.600136 
L 414.473324 265.776367 
L 414.795165 265.572868 
L 414.956085 265.794428 
L 415.277926 265.317317 
L 415.438846 265.539085 
L 415.599766 265.285145 
L 415.760687 265.737589 
L 415.921607 265.604864 
L 416.082527 265.854088 
L 416.404368 265.681019 
L 416.565288 265.844308 
L 416.726209 265.792756 
L 416.887129 265.939524 
L 417.36989 265.764015 
L 417.530811 265.875388 
L 417.852651 264.805076 
L 418.013572 265.091745 
L 418.174492 264.967931 
L 418.335412 265.546586 
L 418.496333 265.225268 
L 418.657253 265.403797 
L 418.818173 265.244083 
L 418.979094 265.570214 
L 419.140014 265.413555 
L 419.300935 265.687726 
L 419.461855 265.616698 
L 419.622775 265.689798 
L 419.783696 265.615009 
L 419.944616 265.801518 
L 420.105536 265.770106 
L 420.266457 265.883207 
L 420.588297 265.55776 
L 420.749218 265.756711 
L 420.910138 265.660092 
L 420.910138 265.660092 
" style="fill:none;stroke:#4c72b0;stroke-linecap:square;stroke-width:2;"/>
   </g>
   <g id="patch_3">
    <path d="M 83.146352 277.574739 
L 83.146352 21.6 
" style="fill:none;stroke:#000000;stroke-linecap:square;stroke-linejoin:miter;stroke-width:0.8;"/>
   </g>
   <g id="patch_4">
    <path d="M 436.994128 277.574739 
L 436.994128 21.6 
" style="fill:none;stroke:#000000;stroke-linecap:square;stroke-linejoin:miter;stroke-width:0.8;"/>
   </g>
   <g id="patch_5">
    <path d="M 83.146352 277.574739 
L 436.994128 277.574739 
" style="fill:none;stroke:#000000;stroke-linecap:square;stroke-linejoin:miter;stroke-width:0.8;"/>
   </g>
   <g id="patch_6">
    <path d="M 83.146352 21.6 
L 436.994128 21.6 
" style="fill:none;stroke:#000000;stroke-linecap:square;stroke-linejoin:miter;stroke-width:0.8;"/>
   </g>
   <g id="legend_1">
    <g id="patch_7">
     <path d="M 281.45806 65.475634 
L 422.994128 65.475634 
Q 426.994128 65.475634 426.994128 61.475634 
L 426.994128 35.6 
Q 426.994128 31.6 422.994128 31.6 
L 281.45806 31.6 
Q 277.45806 31.6 277.45806 35.6 
L 277.45806 61.475634 
Q 277.45806 65.475634 281.45806 65.475634 
z
" style="fill:#ffffff;opacity:0.8;stroke:#cccccc;stroke-linejoin:miter;"/>
    </g>
    <g id="line2d_12">
     <path d="M 285.45806 46.6 
L 325.45806 46.6 
" style="fill:none;stroke:#4c72b0;stroke-linecap:square;stroke-width:2;"/>
    </g>
    <g id="line2d_13"/>
    <g id="text_13">
     <!-- Train loss -->
     <g transform="translate(341.45806 53.6)scale(0.2 -0.2)">
      <defs>
       <path d="M 62.203125 67.59375 
L 4.5 67.59375 
L 2.796875 45.59375 
L 4.59375 45.59375 
C 5.90625 62.125 7.296875 65 22.703125 65 
C 24.5 65 27.40625 65 28.203125 64.90625 
C 30.09375 64.609375 30.09375 63.40625 30.09375 61.125 
L 30.09375 7.171875 
C 30.09375 3.59375 29.796875 2.5 21.5 2.5 
L 18.703125 2.5 
L 18.703125 0 
C 23.5 0 28.5 0 33.40625 0 
C 38.296875 0 43.296875 0 48.09375 0 
L 48.09375 2.5 
L 45.296875 2.5 
C 37 2.5 36.703125 3.59375 36.703125 7.171875 
L 36.703125 61.125 
C 36.703125 63.3125 36.703125 64.515625 38.5 64.90625 
C 39.296875 65 42.203125 65 44 65 
C 59.296875 65 60.796875 62.125 62.09375 45.59375 
L 63.90625 45.59375 
z
" id="CMR17-84"/>
       <path d="M 15 23.390625 
C 15 33 19.09375 42 26.59375 42 
C 27.296875 42 28 41.90625 28.703125 41.59375 
C 28.703125 41.59375 26.5 40.890625 26.5 38.3125 
C 26.5 35.90625 28.40625 34.90625 29.90625 34.90625 
C 31.09375 34.90625 33.296875 35.609375 33.296875 38.40625 
C 33.296875 41.609375 30.09375 43.59375 26.703125 43.59375 
C 19.09375 43.59375 15.796875 36.203125 14.796875 32.703125 
L 14.703125 32.703125 
L 14.703125 43.59375 
L 3.09375 42.5 
L 3.09375 39.90625 
C 9 39.90625 9.90625 39.296875 9.90625 34.5 
L 9.90625 6.6875 
C 9.90625 2.875 9.5 2.390625 3.09375 2.390625 
L 3.09375 -0.203125 
C 5.5 0 10.09375 0 12.703125 0 
C 15.59375 0 20.703125 0 23.40625 -0.203125 
L 23.40625 2.390625 
C 16.203125 2.390625 15 2.390625 15 6.875 
z
" id="CMR17-114"/>
       <path d="M 36 25.828125 
C 36 32.375 36 35.84375 31.796875 39.734375 
C 28.09375 43 23.796875 44 20.40625 44 
C 12.5 44 6.796875 37.609375 6.796875 30.796875 
C 6.796875 27 9.796875 27 10.40625 27 
C 11.703125 27 14 27.78125 14 30.53125 
C 14 33 12.09375 34.078125 10.40625 34.078125 
C 10 34.078125 9.5 33.96875 9.203125 33.875 
C 11.296875 40.5 16.703125 42.40625 20.203125 42.40625 
C 25.203125 42.40625 30.703125 37.953125 30.703125 29.453125 
L 30.703125 25 
C 24.796875 25 17.703125 24.203125 12.09375 21.203125 
C 5.796875 17.703125 4 12.703125 4 8.90625 
C 4 1.203125 13 -1 18.296875 -1 
C 23.796875 -1 28.90625 2.171875 31.09375 7.984375 
C 31.296875 3.640625 34.09375 -0.28125 38.5 -0.28125 
C 40.59375 -0.28125 45.90625 1.09375 45.90625 8.859375 
L 45.90625 14.375 
L 44.09375 14.375 
L 44.09375 8.78125 
C 44.09375 2.78125 41.40625 2 40.09375 2 
C 36 2 36 7.15625 36 11.53125 
z
M 30.703125 13.59375 
C 30.703125 4.953125 24.5 0.59375 19 0.59375 
C 14 0.59375 10.09375 4.296875 10.09375 8.90625 
C 10.09375 11.890625 11.40625 17.1875 17.203125 20.390625 
C 22 23.09375 27.5 23.5 30.703125 23.5 
z
" id="CMR17-97"/>
       <path d="M 15.5 61.078125 
C 15.5 63.265625 13.703125 65.15625 11.40625 65.15625 
C 9.203125 65.15625 7.296875 63.375 7.296875 61.078125 
C 7.296875 58.890625 9.09375 57 11.40625 57 
C 13.59375 57 15.5 58.796875 15.5 61.078125 
z
M 3.796875 42.28125 
L 3.796875 39.703125 
C 9.40625 39.703125 10.203125 39.09375 10.203125 34.328125 
L 10.203125 6.671875 
C 10.203125 2.875 9.796875 2.390625 3.40625 2.390625 
L 3.40625 -0.203125 
C 5.796875 0 10.09375 0 12.59375 0 
C 15 0 19.09375 0 21.40625 -0.203125 
L 21.40625 2.390625 
C 15.5 2.390625 15.296875 2.984375 15.296875 6.5625 
L 15.296875 43.375 
z
" id="CMR17-105"/>
       <path d="M 41.5 30.203125 
C 41.5 35.296875 40.5 43.59375 28.703125 43.59375 
C 20.796875 43.59375 16.703125 37.5 15.203125 33.5 
L 15.09375 33.5 
L 15.09375 43.59375 
L 3.296875 42.5 
L 3.296875 39.90625 
C 9.203125 39.90625 10.09375 39.296875 10.09375 34.5 
L 10.09375 6.6875 
C 10.09375 2.875 9.703125 2.390625 3.296875 2.390625 
L 3.296875 -0.203125 
C 5.703125 0 10.09375 0 12.703125 0 
C 15.296875 0 19.796875 0 22.203125 -0.203125 
L 22.203125 2.390625 
C 15.796875 2.390625 15.40625 2.78125 15.40625 6.6875 
L 15.40625 25.90625 
C 15.40625 35.109375 21 42 28 42 
C 35.40625 42 36.203125 35.40625 36.203125 30.59375 
L 36.203125 6.6875 
C 36.203125 2.875 35.796875 2.390625 29.40625 2.390625 
L 29.40625 -0.203125 
C 31.796875 0 36.203125 0 38.796875 0 
C 41.40625 0 45.90625 0 48.296875 -0.203125 
L 48.296875 2.390625 
C 41.90625 2.390625 41.5 2.78125 41.5 6.6875 
z
" id="CMR17-110"/>
       <path d="M 15.296875 68.6875 
L 3.40625 67.59375 
L 3.40625 65 
C 9.296875 65 10.203125 64.40625 10.203125 59.640625 
L 10.203125 6.65625 
C 10.203125 2.875 9.796875 2.390625 3.40625 2.390625 
L 3.40625 -0.203125 
C 5.796875 0 10.203125 0 12.703125 0 
C 15.296875 0 19.703125 0 22.09375 -0.203125 
L 22.09375 2.390625 
C 15.703125 2.390625 15.296875 2.78125 15.296875 6.65625 
z
" id="CMR17-108"/>
      </defs>
      <use transform="scale(0.996264)" xlink:href="#CMR17-84"/>
      <use transform="translate(58.702625 0)scale(0.996264)" xlink:href="#CMR17-114"/>
      <use transform="translate(93.983393 0)scale(0.996264)" xlink:href="#CMR17-97"/>
      <use transform="translate(139.67387 0)scale(0.996264)" xlink:href="#CMR17-105"/>
      <use transform="translate(164.544929 0)scale(0.996264)" xlink:href="#CMR17-110"/>
      <use transform="translate(245.516265 0)scale(0.996264)" xlink:href="#CMR17-108"/>
      <use transform="translate(270.387323 0)scale(0.996264)" xlink:href="#CMR17-111"/>
      <use transform="translate(316.0778 0)scale(0.996264)" xlink:href="#CMR17-115"/>
      <use transform="translate(351.879138 0)scale(0.996264)" xlink:href="#CMR17-115"/>
     </g>
    </g>
   </g>
  </g>
 </g>
 <defs>
  <clipPath id="pe4d54dd31b">
   <rect height="255.974739" width="353.847776" x="83.146352" y="21.6"/>
  </clipPath>
 </defs>
</svg>
