<?xml version="1.0" encoding="utf-8" standalone="no"?>
<!DOCTYPE svg PUBLIC "-//W3C//DTD SVG 1.1//EN"
  "http://www.w3.org/Graphics/SVG/1.1/DTD/svg11.dtd">
<!-- Created with matplotlib (https://matplotlib.org/) -->
<svg height="345.6pt" version="1.1" viewBox="0 0 460.8 345.6" width="460.8pt" xmlns="http://www.w3.org/2000/svg" xmlns:xlink="http://www.w3.org/1999/xlink">
 <metadata>
  <rdf:RDF xmlns:cc="http://creativecommons.org/ns#" xmlns:dc="http://purl.org/dc/elements/1.1/" xmlns:rdf="http://www.w3.org/1999/02/22-rdf-syntax-ns#">
   <cc:Work>
    <dc:type rdf:resource="http://purl.org/dc/dcmitype/StillImage"/>
    <dc:date>2022-09-26T16:59:16.231200</dc:date>
    <dc:format>image/svg+xml</dc:format>
    <dc:creator>
     <cc:Agent>
      <dc:title>Matplotlib v3.3.4, https://matplotlib.org/</dc:title>
     </cc:Agent>
    </dc:creator>
   </cc:Work>
  </rdf:RDF>
 </metadata>
 <defs>
  <style type="text/css">*{stroke-linecap:butt;stroke-linejoin:round;}</style>
 </defs>
 <g id="figure_1">
  <g id="patch_1">
   <path d="M 0 345.6 
L 460.8 345.6 
L 460.8 0 
L 0 0 
z
" style="fill:#ffffff;"/>
  </g>
  <g id="axes_1">
   <g id="patch_2">
    <path d="M 68.588821 277.574739 
L 436.994128 277.574739 
L 436.994128 21.6 
L 68.588821 21.6 
z
" style="fill:#ffffff;"/>
   </g>
   <g id="matplotlib.axis_1">
    <g id="xtick_1">
     <g id="line2d_1">
      <defs>
       <path d="M 0 0 
L 0 3.5 
" id="m2f77fa6199" style="stroke:#000000;stroke-width:0.8;"/>
      </defs>
      <g>
       <use style="stroke:#000000;stroke-width:0.8;" x="85.334517" xlink:href="#m2f77fa6199" y="277.574739"/>
      </g>
     </g>
     <g id="text_1">
      <!-- $\mathdefault{0}$ -->
      <g transform="translate(80.765469 298.411736)scale(0.2 -0.2)">
       <defs>
        <path d="M 42 31.640625 
C 42 37.75 41.90625 48.125 37.703125 56.109375 
C 34 63.109375 28.09375 65.59375 22.90625 65.59375 
C 18.09375 65.59375 12 63.40625 8.203125 56.203125 
C 4.203125 48.71875 3.796875 39.4375 3.796875 31.640625 
C 3.796875 25.953125 3.90625 17.28125 7 9.671875 
C 11.296875 -0.609375 19 -2 22.90625 -2 
C 27.5 -2 34.5 -0.109375 38.59375 9.375 
C 41.59375 16.28125 42 24.359375 42 31.640625 
z
M 22.90625 -0.40625 
C 16.5 -0.40625 12.703125 5.078125 11.296875 12.6875 
C 10.203125 18.5625 10.203125 27.15625 10.203125 32.75 
C 10.203125 40.4375 10.203125 46.828125 11.5 52.921875 
C 13.40625 61.390625 19 64 22.90625 64 
C 27 64 32.296875 61.296875 34.203125 53.125 
C 35.5 47.4375 35.59375 40.734375 35.59375 32.75 
C 35.59375 26.25 35.59375 18.265625 34.40625 12.375 
C 32.296875 1.484375 26.40625 -0.40625 22.90625 -0.40625 
z
" id="CMR17-48"/>
       </defs>
       <use transform="scale(0.996264)" xlink:href="#CMR17-48"/>
      </g>
     </g>
    </g>
    <g id="xtick_2">
     <g id="line2d_2">
      <g>
       <use style="stroke:#000000;stroke-width:0.8;" x="169.104881" xlink:href="#m2f77fa6199" y="277.574739"/>
      </g>
     </g>
     <g id="text_2">
      <!-- $\mathdefault{500}$ -->
      <g transform="translate(155.397738 298.411736)scale(0.2 -0.2)">
       <defs>
        <path d="M 11.40625 57.6875 
C 12.40625 57.28125 16.5 56 20.703125 56 
C 30 56 35.09375 61.109375 38 64.0625 
C 38 64.953125 38 65.5 37.40625 65.5 
C 37.296875 65.5 37.09375 65.5 36.296875 65.046875 
C 32.796875 63.40625 28.703125 62.078125 23.703125 62.078125 
C 20.703125 62.078125 16.203125 62.484375 11.296875 64.671875 
C 10.203125 65.171875 10 65.171875 9.90625 65.171875 
C 9.40625 65.171875 9.296875 65.0625 9.296875 63.078125 
L 9.296875 34.421875 
C 9.296875 32.640625 9.296875 32.140625 10.296875 32.140625 
C 10.796875 32.140625 11 32.34375 11.5 33.03125 
C 14.703125 37.515625 19.09375 39.40625 24.09375 39.40625 
C 27.59375 39.40625 35.09375 37.21875 35.09375 20.140625 
C 35.09375 16.953125 35.09375 11.171875 32.09375 6.578125 
C 29.59375 2.484375 25.703125 0.390625 21.40625 0.390625 
C 14.796875 0.390625 8.09375 5 6.296875 12.71875 
C 6.703125 12.609375 7.5 12.421875 7.90625 12.421875 
C 9.203125 12.421875 11.703125 13.125 11.703125 16.21875 
C 11.703125 18.90625 9.796875 20 7.90625 20 
C 5.59375 20 4.09375 18.59375 4.09375 15.796875 
C 4.09375 7.09375 11 -2 21.59375 -2 
C 31.90625 -2 41.703125 6.875 41.703125 19.75 
C 41.703125 31.71875 33.90625 41 24.203125 41 
C 19.09375 41 14.796875 39.109375 11.40625 35.53125 
z
" id="CMR17-53"/>
       </defs>
       <use transform="scale(0.996264)" xlink:href="#CMR17-53"/>
       <use transform="translate(45.690477 0)scale(0.996264)" xlink:href="#CMR17-48"/>
       <use transform="translate(91.380954 0)scale(0.996264)" xlink:href="#CMR17-48"/>
      </g>
     </g>
    </g>
    <g id="xtick_3">
     <g id="line2d_3">
      <g>
       <use style="stroke:#000000;stroke-width:0.8;" x="252.875245" xlink:href="#m2f77fa6199" y="277.574739"/>
      </g>
     </g>
     <g id="text_3">
      <!-- $\mathdefault{1000}$ -->
      <g transform="translate(234.599054 298.411736)scale(0.2 -0.2)">
       <defs>
        <path d="M 26.59375 63.40625 
C 26.59375 65.5 26.5 65.5 25.09375 65.5 
C 21.203125 61.1875 15.296875 59.796875 9.703125 59.796875 
C 9.40625 59.796875 8.90625 59.796875 8.796875 59.5 
C 8.703125 59.296875 8.703125 59.09375 8.703125 57 
C 11.796875 57 17 57.59375 21 59.984375 
L 21 7.203125 
C 21 3.6875 20.796875 2.5 12.203125 2.5 
L 9.203125 2.5 
L 9.203125 0 
C 14 0 19 0 23.796875 0 
C 28.59375 0 33.59375 0 38.40625 0 
L 38.40625 2.5 
L 35.40625 2.5 
C 26.796875 2.5 26.59375 3.59375 26.59375 7.15625 
z
" id="CMR17-49"/>
       </defs>
       <use transform="scale(0.996264)" xlink:href="#CMR17-49"/>
       <use transform="translate(45.690477 0)scale(0.996264)" xlink:href="#CMR17-48"/>
       <use transform="translate(91.380954 0)scale(0.996264)" xlink:href="#CMR17-48"/>
       <use transform="translate(137.071431 0)scale(0.996264)" xlink:href="#CMR17-48"/>
      </g>
     </g>
    </g>
    <g id="xtick_4">
     <g id="line2d_4">
      <g>
       <use style="stroke:#000000;stroke-width:0.8;" x="336.645609" xlink:href="#m2f77fa6199" y="277.574739"/>
      </g>
     </g>
     <g id="text_4">
      <!-- $\mathdefault{1500}$ -->
      <g transform="translate(318.369418 298.411736)scale(0.2 -0.2)">
       <use transform="scale(0.996264)" xlink:href="#CMR17-49"/>
       <use transform="translate(45.690477 0)scale(0.996264)" xlink:href="#CMR17-53"/>
       <use transform="translate(91.380954 0)scale(0.996264)" xlink:href="#CMR17-48"/>
       <use transform="translate(137.071431 0)scale(0.996264)" xlink:href="#CMR17-48"/>
      </g>
     </g>
    </g>
    <g id="xtick_5">
     <g id="line2d_5">
      <g>
       <use style="stroke:#000000;stroke-width:0.8;" x="420.415973" xlink:href="#m2f77fa6199" y="277.574739"/>
      </g>
     </g>
     <g id="text_5">
      <!-- $\mathdefault{2000}$ -->
      <g transform="translate(402.139782 298.411736)scale(0.2 -0.2)">
       <defs>
        <path d="M 41.703125 15.453125 
L 39.90625 15.453125 
C 38.90625 8.375 38.09375 7.171875 37.703125 6.5625 
C 37.203125 5.765625 30 5.765625 28.59375 5.765625 
L 9.40625 5.765625 
C 13 9.671875 20 16.75 28.5 24.953125 
C 34.59375 30.734375 41.703125 37.53125 41.703125 47.421875 
C 41.703125 59.21875 32.296875 66 21.796875 66 
C 10.796875 66 4.09375 56.3125 4.09375 47.34375 
C 4.09375 43.4375 7 42.9375 8.203125 42.9375 
C 9.203125 42.9375 12.203125 43.546875 12.203125 47.03125 
C 12.203125 50.109375 9.59375 51 8.203125 51 
C 7.59375 51 7 50.90625 6.59375 50.703125 
C 8.5 59.21875 14.296875 63.40625 20.40625 63.40625 
C 29.09375 63.40625 34.796875 56.515625 34.796875 47.421875 
C 34.796875 38.734375 29.703125 31.25 24 24.75 
L 4.09375 2.28125 
L 4.09375 0 
L 39.296875 0 
z
" id="CMR17-50"/>
       </defs>
       <use transform="scale(0.996264)" xlink:href="#CMR17-50"/>
       <use transform="translate(45.690477 0)scale(0.996264)" xlink:href="#CMR17-48"/>
       <use transform="translate(91.380954 0)scale(0.996264)" xlink:href="#CMR17-48"/>
       <use transform="translate(137.071431 0)scale(0.996264)" xlink:href="#CMR17-48"/>
      </g>
     </g>
    </g>
    <g id="text_6">
     <!-- Epoch -->
     <g transform="translate(227.475939 320.124366)scale(0.2 -0.2)">
      <defs>
       <path d="M 60.703125 25.234375 
L 58.90625 25.234375 
C 56.703125 10.5625 55.40625 2.59375 37.796875 2.59375 
L 23.90625 2.59375 
C 19.90625 2.59375 19.703125 3.078125 19.703125 6.46875 
L 19.703125 34 
L 29.09375 34 
C 38.5 34 39.40625 30.625 39.40625 22.34375 
L 41.203125 22.34375 
L 41.203125 48.140625 
L 39.40625 48.140625 
C 39.40625 39.953125 38.5 36.59375 29.09375 36.59375 
L 19.703125 36.59375 
L 19.703125 61.140625 
C 19.703125 64.5 19.90625 65 23.90625 65 
L 37.59375 65 
C 53.09375 65 54.90625 58.890625 56.296875 45.765625 
L 58.09375 45.765625 
L 55.703125 67.578125 
L 5.09375 67.578125 
L 5.09375 65 
C 12 65 13.09375 65 13.09375 60.53125 
L 13.09375 7.046875 
C 13.09375 2.59375 12 2.59375 5.09375 2.59375 
L 5.09375 0 
L 57.09375 0 
z
" id="CMR17-69"/>
       <path d="M 22 -16.609375 
C 15.59375 -16.609375 15.203125 -16.203125 15.203125 -12.328125 
L 15.203125 6.28125 
C 18.09375 2.09375 22.296875 -0.59375 27.59375 -0.59375 
C 37.59375 -0.59375 47.703125 8.171875 47.703125 21.6875 
C 47.703125 34.234375 39 43.78125 28.703125 43.78125 
C 22.703125 43.78125 17.796875 40.5 15 36.53125 
L 15 43.78125 
L 3.09375 42.6875 
L 3.09375 40.109375 
C 9 40.109375 9.90625 39.5 9.90625 34.734375 
L 9.90625 -12.328125 
C 9.90625 -16.109375 9.5 -16.609375 3.09375 -16.609375 
L 3.09375 -19.1875 
C 5.5 -19 9.90625 -19 12.5 -19 
C 15.09375 -19 19.59375 -19 22 -19.1875 
z
M 15.203125 31.4375 
C 15.203125 32.84375 15.203125 34.921875 19.09375 38.609375 
C 19.59375 39.015625 23 42 28 42 
C 35.296875 42 41.296875 32.9375 41.296875 21.59375 
C 41.296875 10.25 34.90625 1 27 1 
C 23.40625 1 19.5 2.6875 16.5 7.375 
C 15.203125 9.5625 15.203125 10.15625 15.203125 11.75 
z
" id="CMR17-112"/>
       <path d="M 43.09375 21.1875 
C 43.09375 34 33.796875 44 22.90625 44 
C 12 44 2.703125 34 2.703125 21.1875 
C 2.703125 8.609375 12 -1 22.90625 -1 
C 33.796875 -1 43.09375 8.609375 43.09375 21.1875 
z
M 22.90625 0.796875 
C 18.203125 0.796875 14.203125 3.59375 11.90625 7.5 
C 9.40625 11.984375 9.09375 17.59375 9.09375 22 
C 9.09375 26.203125 9.296875 31.40625 11.90625 35.90625 
C 13.90625 39.203125 17.796875 42.40625 22.90625 42.40625 
C 27.40625 42.40625 31.203125 39.90625 33.59375 36.40625 
C 36.703125 31.703125 36.703125 25.109375 36.703125 22 
C 36.703125 18.09375 36.5 12.109375 33.796875 7.296875 
C 31 2.703125 26.703125 0.796875 22.90625 0.796875 
z
" id="CMR17-111"/>
       <path d="M 34.90625 35 
C 33 35 30.203125 35 30.203125 31.515625 
C 30.203125 28.71875 32.5 27.921875 33.796875 27.921875 
C 34.5 27.921875 37.40625 28.234375 37.40625 31.625 
C 37.40625 38.546875 30.59375 43.796875 22.90625 43.796875 
C 12.296875 43.796875 3.296875 34.03125 3.296875 21.296875 
C 3.296875 8.0625 12.703125 -1 22.90625 -1 
C 35.296875 -1 38.40625 10.578125 38.40625 11.6875 
C 38.40625 12.09375 38.296875 12.390625 37.59375 12.390625 
C 36.90625 12.390625 36.796875 12.296875 36.40625 10.984375 
C 33.796875 2.8125 28.09375 0.796875 23.796875 0.796875 
C 17.40625 0.796875 9.703125 6.671875 9.703125 21.390625 
C 9.703125 36.53125 17.09375 42 23 42 
C 26.90625 42 32.703125 40.203125 34.90625 35 
z
" id="CMR17-99"/>
       <path d="M 41.5 30.203125 
C 41.5 35.296875 40.5 43.59375 28.703125 43.59375 
C 20.5 43.59375 16.5 37 15.296875 33.703125 
L 15.203125 33.703125 
L 15.203125 68.6875 
L 3.296875 67.59375 
L 3.296875 65 
C 9.203125 65 10.09375 64.40625 10.09375 59.640625 
L 10.09375 6.65625 
C 10.09375 2.875 9.703125 2.390625 3.296875 2.390625 
L 3.296875 -0.203125 
C 5.703125 0 10.09375 0 12.703125 0 
C 15.296875 0 19.796875 0 22.203125 -0.203125 
L 22.203125 2.390625 
C 15.796875 2.390625 15.40625 2.78125 15.40625 6.6875 
L 15.40625 25.90625 
C 15.40625 35.109375 21 42 28 42 
C 35.40625 42 36.203125 35.40625 36.203125 30.59375 
L 36.203125 6.6875 
C 36.203125 2.875 35.796875 2.390625 29.40625 2.390625 
L 29.40625 -0.203125 
C 31.796875 0 36.203125 0 38.796875 0 
C 41.40625 0 45.90625 0 48.296875 -0.203125 
L 48.296875 2.390625 
C 41.90625 2.390625 41.5 2.78125 41.5 6.6875 
z
" id="CMR17-104"/>
      </defs>
      <use transform="scale(0.996264)" xlink:href="#CMR17-69"/>
      <use transform="translate(62.586301 0)scale(0.996264)" xlink:href="#CMR17-112"/>
      <use transform="translate(116.084109 0)scale(0.996264)" xlink:href="#CMR17-111"/>
      <use transform="translate(164.377025 0)scale(0.996264)" xlink:href="#CMR17-99"/>
      <use transform="translate(202.260231 0)scale(0.996264)" xlink:href="#CMR17-104"/>
     </g>
    </g>
   </g>
   <g id="matplotlib.axis_2">
    <g id="ytick_1">
     <g id="line2d_6">
      <defs>
       <path d="M 0 0 
L -3.5 0 
" id="m3b94fc29f9" style="stroke:#000000;stroke-width:0.8;"/>
      </defs>
      <g>
       <use style="stroke:#000000;stroke-width:0.8;" x="68.588821" xlink:href="#m3b94fc29f9" y="266.295615"/>
      </g>
     </g>
     <g id="text_7">
      <!-- $\mathdefault{0}$ -->
      <g transform="translate(52.450726 273.214113)scale(0.2 -0.2)">
       <use transform="scale(0.996264)" xlink:href="#CMR17-48"/>
      </g>
     </g>
    </g>
    <g id="ytick_2">
     <g id="line2d_7">
      <g>
       <use style="stroke:#000000;stroke-width:0.8;" x="68.588821" xlink:href="#m3b94fc29f9" y="207.448841"/>
      </g>
     </g>
     <g id="text_8">
      <!-- $\mathdefault{20}$ -->
      <g transform="translate(43.31263 214.367339)scale(0.2 -0.2)">
       <use transform="scale(0.996264)" xlink:href="#CMR17-50"/>
       <use transform="translate(45.690477 0)scale(0.996264)" xlink:href="#CMR17-48"/>
      </g>
     </g>
    </g>
    <g id="ytick_3">
     <g id="line2d_8">
      <g>
       <use style="stroke:#000000;stroke-width:0.8;" x="68.588821" xlink:href="#m3b94fc29f9" y="148.602068"/>
      </g>
     </g>
     <g id="text_9">
      <!-- $\mathdefault{40}$ -->
      <g transform="translate(43.31263 155.520566)scale(0.2 -0.2)">
       <defs>
        <path d="M 33.59375 64.40625 
C 33.59375 66.5 33.5 66.5 31.703125 66.5 
L 2 19.59375 
L 2 17 
L 27.796875 17 
L 27.796875 7.140625 
C 27.796875 3.5 27.59375 2.5 20.59375 2.5 
L 18.703125 2.5 
L 18.703125 0 
C 21.90625 0 27.296875 0 30.703125 0 
C 34.09375 0 39.5 0 42.703125 0 
L 42.703125 2.5 
L 40.796875 2.5 
C 33.796875 2.5 33.59375 3.5 33.59375 7.140625 
L 33.59375 17 
L 43.796875 17 
L 43.796875 19.59375 
L 33.59375 19.59375 
z
M 28.09375 57.859375 
L 28.09375 19.59375 
L 4 19.59375 
z
" id="CMR17-52"/>
       </defs>
       <use transform="scale(0.996264)" xlink:href="#CMR17-52"/>
       <use transform="translate(45.690477 0)scale(0.996264)" xlink:href="#CMR17-48"/>
      </g>
     </g>
    </g>
    <g id="ytick_4">
     <g id="line2d_9">
      <g>
       <use style="stroke:#000000;stroke-width:0.8;" x="68.588821" xlink:href="#m3b94fc29f9" y="89.755294"/>
      </g>
     </g>
     <g id="text_10">
      <!-- $\mathdefault{60}$ -->
      <g transform="translate(43.31263 96.673792)scale(0.2 -0.2)">
       <defs>
        <path d="M 10.59375 34 
C 10.59375 57.65625 21.796875 63 28.296875 63 
C 30.40625 63 35.5 62.640625 37.5 59 
C 35.90625 59 32.90625 59 32.90625 55.515625 
C 32.90625 52.828125 35.09375 51.921875 36.5 51.921875 
C 37.40625 51.921875 40.09375 52.3125 40.09375 55.625 
C 40.09375 61.78125 35.09375 65.296875 28.203125 65.296875 
C 16.296875 65.296875 3.796875 52.96875 3.796875 31 
C 3.796875 3.953125 15.09375 -2 23.09375 -2 
C 32.796875 -2 42 6.671875 42 20.046875 
C 42 32.515625 33.90625 41.59375 23.703125 41.59375 
C 17.59375 41.59375 13.09375 37.609375 10.59375 30.625 
z
M 23.09375 0.390625 
C 10.796875 0.390625 10.796875 18.75 10.796875 22.4375 
C 10.796875 29.625 14.203125 40 23.5 40 
C 25.203125 40 30.09375 40 33.40625 33.125 
C 35.203125 29.21875 35.203125 25.140625 35.203125 20.140625 
C 35.203125 14.75 35.203125 10.78125 33.09375 6.78125 
C 30.90625 2.671875 27.703125 0.390625 23.09375 0.390625 
z
" id="CMR17-54"/>
       </defs>
       <use transform="scale(0.996264)" xlink:href="#CMR17-54"/>
       <use transform="translate(45.690477 0)scale(0.996264)" xlink:href="#CMR17-48"/>
      </g>
     </g>
    </g>
    <g id="ytick_5">
     <g id="line2d_10">
      <g>
       <use style="stroke:#000000;stroke-width:0.8;" x="68.588821" xlink:href="#m3b94fc29f9" y="30.90852"/>
      </g>
     </g>
     <g id="text_11">
      <!-- $\mathdefault{80}$ -->
      <g transform="translate(43.31263 37.827019)scale(0.2 -0.2)">
       <defs>
        <path d="M 27.203125 35.375 
C 33.5 38.546875 39.90625 43.328125 39.90625 50.984375 
C 39.90625 60.015625 31.09375 65.296875 23 65.296875 
C 13.90625 65.296875 5.90625 58.734375 5.90625 49.6875 
C 5.90625 47.203125 6.5 42.921875 10.40625 39.140625 
C 11.40625 38.15625 15.59375 35.171875 18.296875 33.28125 
C 13.796875 30.984375 3.296875 25.53125 3.296875 14.59375 
C 3.296875 4.359375 13.09375 -2 22.796875 -2 
C 33.5 -2 42.5 5.65625 42.5 15.78125 
C 42.5 24.84375 36.40625 29.015625 32.40625 31.703125 
z
M 14.09375 44.09375 
C 13.296875 44.59375 9.296875 47.671875 9.296875 52.359375 
C 9.296875 58.421875 15.59375 63 22.796875 63 
C 30.703125 63 36.5 57.4375 36.5 50.96875 
C 36.5 41.703125 26.09375 36.421875 25.59375 36.421875 
C 25.5 36.421875 25.40625 36.421875 24.59375 37.03125 
z
M 32.5 23.734375 
C 34 22.640625 38.796875 19.375 38.796875 13.296875 
C 38.796875 5.953125 31.40625 0.390625 23 0.390625 
C 13.90625 0.390625 7 6.84375 7 14.6875 
C 7 22.546875 13.09375 29.09375 20 32.1875 
z
" id="CMR17-56"/>
       </defs>
       <use transform="scale(0.996264)" xlink:href="#CMR17-56"/>
       <use transform="translate(45.690477 0)scale(0.996264)" xlink:href="#CMR17-48"/>
      </g>
     </g>
    </g>
    <g id="text_12">
     <!-- MSE Loss -->
     <g transform="translate(35.436997 189.879276)rotate(-90)scale(0.2 -0.2)">
      <defs>
       <path d="M 20.90625 66 
C 20.296875 67.5 20.203125 67.5 18.09375 67.5 
L 5.296875 67.5 
L 5.296875 65 
C 12.203125 65 13.296875 65 13.296875 60.546875 
L 13.296875 9.53125 
C 13.296875 7.046875 13.296875 2.390625 5.296875 2.390625 
L 5.296875 -0.203125 
C 7.59375 0 11.796875 0 14.296875 0 
C 16.796875 0 21 0 23.296875 -0.203125 
L 23.296875 2.390625 
C 15.296875 2.390625 15.296875 7.046875 15.296875 9.53125 
L 15.296875 64.609375 
L 15.40625 64.609375 
L 38.90625 1.390625 
C 39.296875 0.390625 39.5 -0.203125 40.296875 -0.203125 
C 41.09375 -0.203125 41.296875 0.390625 41.703125 1.390625 
L 65.40625 65.09375 
L 65.5 65.09375 
L 65.5 6.84375 
C 65.5 2.390625 64.40625 2.390625 57.5 2.390625 
L 57.5 -0.203125 
C 60.203125 0 65.59375 0 68.5 0 
C 71.40625 0 76.90625 0 79.59375 -0.203125 
L 79.59375 2.390625 
C 72.703125 2.390625 71.59375 2.390625 71.59375 6.84375 
L 71.59375 60.546875 
C 71.59375 65 72.703125 65 79.59375 65 
L 79.59375 67.5 
L 66.90625 67.5 
C 64.796875 67.5 64.703125 67.40625 64.09375 65.90625 
L 42.5 7.84375 
z
" id="CMR17-77"/>
       <path d="M 43.796875 67.03125 
C 43.796875 68.8125 43.703125 68.921875 43.09375 68.921875 
C 42.5 68.921875 42.296875 68.515625 41.90625 67.625 
L 38.90625 61.046875 
C 35.09375 66.515625 29.296875 69 23 69 
C 12.796875 69 4.59375 60.953125 4.59375 50.828125 
C 4.59375 47.75 5.296875 43.375 8.703125 39.21875 
C 12.40625 34.65625 15.90625 33.859375 23.90625 31.765625 
C 26.90625 30.96875 31.90625 29.671875 32.90625 29.28125 
C 38.59375 26.90625 41.59375 20.953125 41.59375 15.390625 
C 41.59375 8.234375 36.5 0.59375 27.796875 0.59375 
C 17.09375 0.59375 7.09375 6.546875 6.40625 20.484375 
C 6.296875 22.078125 6.203125 22.171875 5.5 22.171875 
C 4.703125 22.171875 4.59375 22.078125 4.59375 20.078125 
L 4.59375 -0.015625 
C 4.59375 -1.796875 4.703125 -1.90625 5.296875 -1.90625 
C 6 -1.90625 6.203125 -1.40625 7.59375 1.6875 
C 7.703125 1.984375 7.703125 2.1875 9.59375 5.953125 
C 14.59375 -0.609375 23 -2 27.796875 -2 
C 38.703125 -2 46.40625 7.046875 46.40625 17.5625 
C 46.40625 22.71875 44.5 26.6875 43.40625 28.484375 
C 39.203125 34.84375 34.703125 36.03125 29.90625 37.21875 
C 29.203125 37.53125 29 37.53125 23.40625 38.90625 
C 18 40.296875 15.703125 41 13.203125 43.6875 
C 10.40625 46.75 9.40625 49.9375 9.40625 53.109375 
C 9.40625 59.5625 14.59375 66.609375 23.09375 66.609375 
C 33.703125 66.609375 40.296875 59.15625 41.796875 46.765625 
C 42.09375 44.96875 42.203125 44.875 42.90625 44.875 
C 43.796875 44.875 43.796875 45.171875 43.796875 46.859375 
z
" id="CMR17-83"/>
       <path d="M 54.203125 25.234375 
L 52.40625 25.234375 
C 51.59375 15.359375 50.296875 2.59375 33.203125 2.59375 
L 23.90625 2.59375 
C 19.90625 2.59375 19.703125 3.078125 19.703125 6.46875 
L 19.703125 60.90625 
C 19.703125 64.515625 19.90625 65.5 27.5 65.5 
L 29.703125 65.5 
L 29.703125 68 
C 25.59375 68 20.796875 68 16.703125 68 
C 13.59375 68 8 68 5.09375 68 
L 5.09375 65.5 
C 12 65.5 13.09375 65.5 13.09375 61.015625 
L 13.09375 7.0625 
C 13.09375 2.59375 12 2.59375 5.09375 2.59375 
L 5.09375 0 
L 51.796875 0 
z
" id="CMR17-76"/>
       <path d="M 30.90625 42.140625 
C 30.90625 43.953125 30.796875 44.046875 30.203125 44.046875 
C 29.796875 44.046875 29.703125 43.953125 28.5 42.453125 
C 28.203125 42.046875 27.296875 41.03125 27 40.640625 
C 23.796875 44.046875 19.296875 44.046875 17.59375 44.046875 
C 6.5 44.046875 2.5 38.234375 2.5 32.4375 
C 2.5 23.40625 12.703125 21.328125 15.59375 20.703125 
C 21.90625 19.421875 24.09375 19.015625 26.203125 17.203125 
C 27.5 16.015625 29.703125 13.8125 29.703125 10.21875 
C 29.703125 6 27.296875 0.59375 18.09375 0.59375 
C 9.40625 0.59375 6.296875 7.1875 4.5 15.953125 
C 4.203125 17.34375 4.203125 17.453125 3.40625 17.453125 
C 2.59375 17.453125 2.5 17.34375 2.5 15.359375 
L 2.5 0.984375 
C 2.5 -0.796875 2.59375 -0.90625 3.203125 -0.90625 
C 3.703125 -0.90625 3.796875 -0.796875 4.296875 0 
C 4.90625 0.890625 6.40625 3.296875 7 4.3125 
C 9 1.609375 12.5 -1 18.09375 -1 
C 28 -1 33.296875 4.421875 33.296875 12.25 
C 33.296875 17.375 30.59375 20.078125 29.296875 21.28125 
C 26.296875 24.390625 22.796875 25.09375 18.59375 25.890625 
C 13.09375 27.109375 6.09375 28.515625 6.09375 34.640625 
C 6.09375 37.234375 7.5 42.765625 17.59375 42.765625 
C 28.296875 42.765625 28.90625 32.71875 29.09375 29.5 
C 29.203125 29 29.703125 28.890625 30 28.890625 
C 30.90625 28.890625 30.90625 29.203125 30.90625 30.90625 
z
" id="CMR17-115"/>
      </defs>
      <use transform="scale(0.996264)" xlink:href="#CMR17-77"/>
      <use transform="translate(84.686941 0)scale(0.996264)" xlink:href="#CMR17-83"/>
      <use transform="translate(135.58231 0)scale(0.996264)" xlink:href="#CMR17-69"/>
      <use transform="translate(228.244577 0)scale(0.996264)" xlink:href="#CMR17-76"/>
      <use transform="translate(285.625985 0)scale(0.996264)" xlink:href="#CMR17-111"/>
      <use transform="translate(331.316462 0)scale(0.996264)" xlink:href="#CMR17-115"/>
      <use transform="translate(367.1178 0)scale(0.996264)" xlink:href="#CMR17-115"/>
     </g>
    </g>
   </g>
   <g id="line2d_11">
    <path clip-path="url(#p8948d1ccd1)" d="M 85.334517 221.709959 
L 85.669598 252.689906 
L 86.00468 257.809798 
L 86.172221 260.440919 
L 86.339761 260.351933 
L 86.674843 261.742036 
L 87.177465 262.881766 
L 88.182709 264.090789 
L 88.685332 264.406322 
L 89.523035 264.765005 
L 90.360739 264.878995 
L 90.52828 264.872217 
L 91.030902 264.520495 
L 91.533524 264.944872 
L 91.701065 264.859835 
L 92.203687 265.058602 
L 94.549257 265.137438 
L 95.051879 265.10328 
L 97.229909 265.409374 
L 97.56499 265.388734 
L 97.732531 265.267308 
L 98.067612 264.561892 
L 98.235153 263.905645 
L 98.402694 264.808786 
L 98.570234 265.065935 
L 98.737775 264.936388 
L 99.072857 265.138133 
L 99.575479 265.080146 
L 99.74302 265.270594 
L 100.078101 265.228384 
L 100.915805 265.447608 
L 102.423671 265.515921 
L 102.926293 265.445654 
L 103.261375 265.322409 
L 103.428916 265.299483 
L 103.763997 265.403716 
L 103.931538 265.345515 
L 104.601701 265.497336 
L 105.439404 265.467569 
L 105.774486 265.29155 
L 105.942027 265.133696 
L 107.282352 265.513352 
L 108.287597 265.490656 
L 108.622678 265.361518 
L 109.1253 265.159484 
L 109.292841 265.471707 
L 109.795463 265.577092 
L 110.633167 265.497687 
L 111.135789 265.178625 
L 111.470871 265.39587 
L 112.141033 265.589443 
L 113.146278 265.372549 
L 113.6489 265.5439 
L 114.654144 265.610243 
L 115.324307 265.405602 
L 115.826929 265.125227 
L 115.99447 265.230529 
L 116.162011 265.537326 
L 116.497092 265.569286 
L 117.502337 265.677815 
L 119.010203 265.607445 
L 119.345285 265.274772 
L 119.512825 264.727501 
L 119.847907 264.563084 
L 120.015448 264.706865 
L 120.182988 265.267375 
L 120.350529 264.912814 
L 120.51807 264.968751 
L 120.853151 265.372825 
L 121.020692 265.347975 
L 121.690855 265.626573 
L 125.04167 265.611459 
L 125.20921 265.536019 
L 125.376751 265.335178 
L 125.879373 265.236987 
L 126.214455 265.513827 
L 126.717077 265.486935 
L 127.38724 265.604094 
L 127.889862 265.573333 
L 128.560025 265.7214 
L 129.73281 265.687653 
L 130.402973 265.356913 
L 130.738054 265.164412 
L 131.073136 265.519006 
L 131.240676 265.521767 
L 131.408217 265.401056 
L 131.910839 265.648868 
L 133.083624 265.651895 
L 133.753787 265.724887 
L 134.759032 265.703474 
L 135.596735 265.468232 
L 136.099358 265.520509 
L 136.434439 265.529153 
L 136.60198 265.413345 
L 137.607224 265.727651 
L 138.94755 265.651085 
L 140.455416 265.640747 
L 140.958039 265.573547 
L 141.460661 265.603964 
L 141.628202 265.52684 
L 142.298364 265.618102 
L 142.800987 265.555166 
L 144.141312 265.701987 
L 144.979016 265.59897 
L 145.314098 265.446897 
L 146.151801 265.73764 
L 146.821964 265.771888 
L 147.492127 265.710615 
L 147.994749 265.222342 
L 148.16229 264.819898 
L 148.329831 265.302561 
L 148.832453 265.614354 
L 149.502616 265.723566 
L 150.50786 265.781283 
L 151.345564 265.672184 
L 151.680645 265.486834 
L 151.848186 265.267269 
L 152.015727 265.3642 
L 152.350808 265.15592 
L 152.518349 265.491114 
L 153.858675 265.458194 
L 154.026215 265.299865 
L 154.193756 265.390617 
L 155.03146 265.108595 
L 155.701623 265.551433 
L 156.539326 265.728844 
L 160.057682 265.801573 
L 161.062926 265.691282 
L 161.733089 265.502984 
L 162.235711 265.756792 
L 163.743578 265.748022 
L 164.2462 265.593505 
L 164.581281 265.462427 
L 164.916363 265.465569 
L 165.083903 265.674452 
L 166.926851 265.795187 
L 167.764555 265.609712 
L 168.099637 265.451181 
L 168.434718 265.361371 
L 168.602259 265.654753 
L 169.607503 265.785105 
L 171.11537 265.804078 
L 171.450451 265.66934 
L 171.785533 265.40711 
L 171.953073 265.074236 
L 172.120614 265.34041 
L 172.455696 265.423816 
L 172.790777 265.579681 
L 173.125858 265.557009 
L 173.628481 265.643838 
L 175.303888 265.472371 
L 175.471429 265.427988 
L 175.638969 265.515124 
L 175.974051 265.432493 
L 176.644214 265.548517 
L 177.314377 265.729122 
L 178.319621 265.818903 
L 180.832732 265.766182 
L 182.005517 265.657114 
L 182.340598 265.780552 
L 184.183546 265.701259 
L 184.518628 265.54775 
L 184.853709 265.428865 
L 185.188791 265.708447 
L 185.691413 265.760073 
L 186.864198 265.818252 
L 187.701902 265.562213 
L 187.869442 265.468919 
L 188.372065 265.690622 
L 188.874687 265.715154 
L 190.047472 265.834996 
L 190.717635 265.696947 
L 190.885176 265.64909 
L 191.220257 265.444969 
L 191.555339 265.382294 
L 191.722879 265.686638 
L 193.230746 265.82415 
L 194.068449 265.705538 
L 194.571072 265.428722 
L 194.906153 265.586764 
L 197.084183 265.756258 
L 197.754345 265.448614 
L 198.089427 265.719246 
L 199.094671 265.810588 
L 200.267456 265.662415 
L 200.770079 265.647458 
L 202.110404 265.779544 
L 203.785812 265.674201 
L 204.288434 265.774233 
L 204.791056 265.800236 
L 205.62876 265.673084 
L 205.7963 265.557102 
L 205.963841 265.616114 
L 206.131382 265.547887 
L 206.801545 265.791854 
L 207.471708 265.797728 
L 208.476952 265.745245 
L 208.979574 265.567396 
L 209.817278 265.759655 
L 210.487441 265.83209 
L 211.660226 265.62356 
L 211.827767 265.474294 
L 211.995307 265.615491 
L 212.162848 265.585512 
L 212.49793 265.767608 
L 212.833011 265.810562 
L 213.335633 265.75559 
L 214.173337 265.760871 
L 214.675959 265.687728 
L 215.513663 265.69724 
L 215.848744 265.786987 
L 216.853988 265.763402 
L 217.859233 265.527922 
L 218.026774 265.753893 
L 218.529396 265.775009 
L 219.53464 265.859332 
L 220.372344 265.694705 
L 220.707425 265.420659 
L 221.042507 265.258681 
L 221.210047 265.664898 
L 224.05824 265.798958 
L 224.393321 265.601151 
L 224.728403 265.294455 
L 225.063484 265.31558 
L 225.231025 265.627582 
L 225.398566 265.562108 
L 225.901188 265.675909 
L 226.236269 265.673246 
L 226.738891 265.688753 
L 229.922165 265.790484 
L 230.592328 265.698659 
L 231.765113 265.802859 
L 233.27298 265.762712 
L 239.807068 265.7857 
L 240.477231 265.837548 
L 241.314935 265.722285 
L 241.482475 265.601727 
L 241.650016 265.618243 
L 241.817557 265.483362 
L 242.48772 265.781444 
L 242.822801 265.713202 
L 244.83329 265.769751 
L 245.503453 265.227118 
L 245.670994 265.618162 
L 245.838534 265.617579 
L 246.006075 265.763075 
L 246.341157 265.803385 
L 248.686727 265.750395 
L 249.35689 265.1694 
L 249.52443 265.667363 
L 250.027053 265.745337 
L 250.529675 265.812424 
L 251.199838 265.844147 
L 252.372623 265.853494 
L 252.875245 265.71616 
L 253.042786 265.547648 
L 253.210326 265.599491 
L 253.545408 265.491309 
L 253.880489 265.696559 
L 254.550652 265.747233 
L 254.885734 265.829362 
L 257.231304 265.717327 
L 257.398845 265.598181 
L 257.566385 265.279597 
L 257.733926 265.473355 
L 257.901467 265.400762 
L 258.906711 265.73681 
L 259.241793 265.753374 
L 260.079496 265.731572 
L 261.587363 265.87842 
L 262.592607 265.778918 
L 263.095229 265.638555 
L 263.26277 265.562514 
L 263.430311 265.77548 
L 264.435555 265.845556 
L 265.4408 265.78136 
L 266.110962 265.756452 
L 267.451288 265.822852 
L 268.959155 265.798101 
L 269.294236 265.756157 
L 269.629318 265.678531 
L 269.964399 265.764475 
L 270.299481 265.731992 
L 271.639806 265.773564 
L 272.47751 265.603689 
L 272.645051 265.806595 
L 274.82308 265.815196 
L 275.828325 265.55313 
L 275.995865 265.755191 
L 277.503732 265.800303 
L 278.173895 265.732027 
L 278.844058 265.841426 
L 279.849302 265.81845 
L 280.351924 265.692548 
L 280.519465 265.553521 
L 281.022087 265.526634 
L 281.189628 265.741001 
L 281.524709 265.764528 
L 283.032576 265.863992 
L 283.87028 265.662895 
L 286.718472 265.810323 
L 287.221094 265.566998 
L 287.723716 265.71206 
L 288.058798 265.745431 
L 290.069287 265.777409 
L 290.90699 265.587113 
L 291.242072 265.785554 
L 292.582397 265.88741 
L 293.420101 265.779028 
L 293.922723 265.53134 
L 294.090264 265.721694 
L 295.095508 265.768478 
L 295.598131 265.880558 
L 296.770916 265.77677 
L 297.608619 265.766791 
L 298.278782 265.842792 
L 299.284027 265.717245 
L 299.451567 265.673456 
L 299.786649 265.831538 
L 300.791893 265.809666 
L 301.294515 265.723176 
L 301.462056 265.66957 
L 301.797138 265.821356 
L 303.305004 265.766678 
L 303.640086 265.793301 
L 304.142708 265.787148 
L 306.320737 265.722691 
L 306.655819 265.812304 
L 307.158441 265.819289 
L 307.828604 265.791197 
L 308.163685 265.758824 
L 308.833848 265.761989 
L 309.33647 265.868286 
L 310.676796 265.720352 
L 310.844337 265.610965 
L 311.179418 265.704526 
L 312.184663 265.841656 
L 312.854826 265.721659 
L 313.86007 265.896184 
L 314.697774 265.77488 
L 315.032855 265.616319 
L 315.200396 265.426191 
L 315.367936 265.691032 
L 315.535477 265.680441 
L 315.870559 265.820523 
L 316.708262 265.866352 
L 317.881047 265.89618 
L 318.216129 265.828684 
L 318.886292 265.143205 
L 319.053832 265.504281 
L 319.723995 265.725492 
L 320.059077 265.779167 
L 320.72924 265.804779 
L 321.566943 265.8499 
L 322.739729 265.909494 
L 323.409891 265.854796 
L 324.080054 265.542633 
L 324.582677 265.824754 
L 325.085299 265.801681 
L 326.090543 265.874137 
L 326.928247 265.874483 
L 327.430869 265.878618 
L 327.933491 265.748484 
L 328.101032 265.545525 
L 328.268573 265.598616 
L 328.436113 265.53004 
L 328.938735 265.773175 
L 329.441358 265.661469 
L 329.94398 265.835333 
L 330.949224 265.905547 
L 331.954469 265.801636 
L 332.624631 265.559273 
L 332.792172 265.803598 
L 334.63512 265.886624 
L 335.640365 265.834526 
L 336.310527 265.324482 
L 336.478068 265.66056 
L 336.645609 265.663253 
L 336.81315 265.786276 
L 337.148231 265.830225 
L 339.326261 265.908459 
L 339.996423 265.700003 
L 340.163964 265.517555 
L 340.331505 265.628167 
L 340.666586 265.579197 
L 340.834127 265.814974 
L 341.336749 265.83936 
L 342.006912 265.909732 
L 344.687564 265.760622 
L 344.855105 265.551707 
L 345.022645 265.549625 
L 345.357727 265.27284 
L 345.525268 265.645349 
L 346.02789 265.740304 
L 346.698053 265.858483 
L 347.870838 265.889091 
L 351.389193 265.842514 
L 351.891815 265.920308 
L 353.0646 265.857312 
L 353.399682 265.571228 
L 353.902304 265.283049 
L 354.069845 265.62989 
L 354.404926 265.604852 
L 354.740008 265.783053 
L 358.090822 265.797142 
L 358.425904 265.642222 
L 358.760985 265.450999 
L 358.928526 265.722863 
L 361.441637 265.922161 
L 362.614422 265.762969 
L 363.117044 265.553335 
L 363.619666 265.713355 
L 363.787207 265.646986 
L 364.45737 265.86541 
L 365.127533 265.910214 
L 366.467859 265.83635 
L 367.138021 265.796814 
L 367.473103 265.899138 
L 371.829162 265.823946 
L 372.666865 265.808879 
L 375.347517 265.851633 
L 375.682599 265.854752 
L 376.520302 265.853799 
L 378.865872 265.84428 
L 379.200954 265.517067 
L 379.368495 265.242888 
L 379.703576 265.538458 
L 379.871117 265.623227 
L 380.038657 265.562518 
L 380.70882 265.759936 
L 382.049146 265.871644 
L 384.729798 265.881833 
L 385.735042 265.774569 
L 386.237664 265.869831 
L 386.907827 265.898143 
L 388.415694 265.783176 
L 388.750775 265.641817 
L 389.085857 265.540765 
L 389.253398 265.768981 
L 389.588479 265.801309 
L 390.258642 265.88195 
L 392.269131 265.8278 
L 392.939294 265.57094 
L 393.274375 265.700534 
L 393.441916 265.636305 
L 393.944538 265.826091 
L 397.462893 265.852557 
L 397.965515 265.543615 
L 398.300597 265.749233 
L 398.635678 265.783625 
L 398.97076 265.772419 
L 399.473382 265.900085 
L 401.31633 265.824494 
L 401.986493 265.609707 
L 402.154034 265.80744 
L 405.672389 265.872447 
L 407.012715 265.870214 
L 408.017959 265.931929 
L 409.023203 265.778495 
L 409.525826 265.653768 
L 409.693366 265.679072 
L 409.860907 265.848802 
L 410.363529 265.869226 
L 410.866151 265.931553 
L 411.871396 265.804504 
L 412.374018 265.717222 
L 412.709099 265.865431 
L 413.546803 265.906297 
L 415.892373 265.922425 
L 416.897618 265.880704 
L 417.735321 265.845489 
L 418.405484 265.308323 
L 418.573025 265.655875 
L 420.248432 265.932005 
L 420.248432 265.932005 
" style="fill:none;stroke:#4c72b0;stroke-linecap:square;stroke-width:2;"/>
   </g>
   <g id="line2d_12">
    <path clip-path="url(#p8948d1ccd1)" d="M 85.334517 153.999045 
L 85.502058 197.474747 
L 85.669598 72.836891 
L 85.837139 33.235215 
L 86.172221 226.617864 
L 86.339761 228.715149 
L 86.507302 213.338373 
L 86.674843 215.806408 
L 86.842384 224.78351 
L 87.177465 216.208327 
L 87.345006 227.925523 
L 87.512546 230.38406 
L 87.680087 222.273258 
L 87.847628 222.273146 
L 88.182709 227.22326 
L 88.35025 229.405335 
L 88.517791 225.459708 
L 88.685332 226.436081 
L 88.852872 229.028381 
L 89.020413 229.161513 
L 89.187954 227.628325 
L 89.355494 230.061843 
L 89.523035 227.294707 
L 89.690576 229.744447 
L 89.858117 228.152882 
L 90.193198 229.842206 
L 90.360739 228.412359 
L 90.52828 235.482546 
L 90.69582 223.143875 
L 90.863361 239.231226 
L 91.030902 225.248178 
L 91.198442 232.762647 
L 91.365983 233.55995 
L 91.533524 231.200621 
L 91.701065 235.046056 
L 91.868605 231.419407 
L 92.036146 234.272974 
L 92.203687 231.944708 
L 92.371228 234.69558 
L 92.538768 231.288189 
L 92.706309 235.765436 
L 92.87385 234.969305 
L 93.04139 233.056368 
L 93.208931 235.684055 
L 93.376472 234.231933 
L 93.544013 235.329811 
L 93.711553 231.690967 
L 93.879094 237.092841 
L 94.046635 232.092123 
L 94.381716 237.271975 
L 94.549257 227.861745 
L 94.716798 240.129852 
L 94.884338 230.118954 
L 95.21942 234.431552 
L 95.386961 231.987935 
L 95.554501 235.868833 
L 95.722042 229.855409 
L 95.889583 238.849903 
L 96.057124 228.849786 
L 96.224664 237.124311 
L 96.392205 232.35149 
L 96.559746 232.461155 
L 96.727286 235.157868 
L 96.894827 232.664287 
L 97.229909 235.695583 
L 97.397449 230.510017 
L 97.56499 237.688242 
L 97.732531 234.004527 
L 97.900072 224.838424 
L 98.067612 245.475243 
L 98.235153 229.395941 
L 98.402694 232.466925 
L 98.570234 230.676937 
L 98.905316 238.248031 
L 99.072857 232.186669 
L 99.240397 240.355637 
L 99.407938 235.225827 
L 99.575479 240.996437 
L 99.74302 232.558107 
L 99.91056 241.366538 
L 100.078101 232.449314 
L 100.245642 240.037245 
L 100.413182 233.818714 
L 100.580723 239.407838 
L 100.748264 234.818004 
L 100.915805 239.287212 
L 101.083345 236.595028 
L 101.250886 237.848974 
L 101.418427 237.294797 
L 101.753508 238.333481 
L 101.921049 236.685526 
L 102.08859 239.310216 
L 102.256131 237.009193 
L 102.423671 239.563567 
L 102.758753 237.402562 
L 102.926293 242.327697 
L 103.093834 234.471061 
L 103.261375 242.891011 
L 103.428916 236.077116 
L 103.763997 240.197427 
L 103.931538 237.69721 
L 104.099079 241.659603 
L 104.266619 236.52566 
L 104.43416 242.042534 
L 104.601701 238.253613 
L 104.769241 240.519066 
L 104.936782 241.264921 
L 105.104323 236.836184 
L 105.271864 243.307393 
L 105.439404 237.98851 
L 105.606945 238.23676 
L 105.774486 244.645741 
L 105.942027 233.035309 
L 106.109567 243.354237 
L 106.277108 237.678485 
L 106.444649 238.25925 
L 106.612189 240.536158 
L 106.77973 240.439622 
L 106.947271 241.491707 
L 107.114812 238.939539 
L 107.282352 243.684512 
L 107.449893 238.500835 
L 107.617434 242.415795 
L 107.952515 238.414149 
L 108.120056 244.283224 
L 108.287597 237.92146 
L 108.622678 242.98404 
L 108.790219 235.684785 
L 108.95776 245.897437 
L 109.1253 237.670471 
L 109.292841 240.175327 
L 109.460382 239.598303 
L 109.627923 242.123325 
L 109.795463 241.511843 
L 109.963004 241.484058 
L 110.130545 244.46337 
L 110.298085 238.967167 
L 110.465626 244.112646 
L 110.800708 238.000298 
L 110.968248 246.858413 
L 111.135789 236.896433 
L 111.30333 241.529224 
L 111.638411 240.077899 
L 111.805952 242.131603 
L 111.973493 241.538798 
L 112.141033 244.096747 
L 112.308574 239.506122 
L 112.476115 245.577242 
L 112.643656 241.088508 
L 112.811196 240.804684 
L 112.978737 245.380512 
L 113.146278 237.82413 
L 113.313819 244.075161 
L 113.481359 240.644897 
L 113.6489 240.978458 
L 113.816441 243.742028 
L 113.983981 241.090164 
L 114.151522 244.291466 
L 114.319063 241.270569 
L 114.486604 243.413229 
L 114.654144 243.829987 
L 114.821685 239.852254 
L 114.989226 246.592902 
L 115.156767 239.723831 
L 115.324307 241.715488 
L 115.491848 246.274878 
L 115.659389 236.027738 
L 115.826929 246.009291 
L 115.99447 238.967812 
L 116.162011 241.827109 
L 116.329552 240.184797 
L 116.497092 244.681828 
L 116.664633 241.258961 
L 116.832174 243.539355 
L 116.999715 242.06592 
L 117.167255 243.015505 
L 117.334796 243.123878 
L 117.502337 242.639431 
L 117.669877 243.302133 
L 117.837418 242.694763 
L 118.004959 243.919655 
L 118.1725 242.844299 
L 118.34004 243.392192 
L 118.507581 244.521638 
L 118.675122 241.828277 
L 118.842663 245.369978 
L 119.010203 244.102427 
L 119.177744 237.886252 
L 119.345285 251.167958 
L 119.512825 236.873322 
L 119.847907 243.146112 
L 120.015448 242.405284 
L 120.182988 234.188939 
L 120.350529 243.856358 
L 120.51807 239.908961 
L 120.685611 246.464417 
L 120.853151 236.086281 
L 121.020692 246.750044 
L 121.188233 239.716931 
L 121.355773 244.540829 
L 121.523314 240.082335 
L 121.690855 244.502986 
L 121.858396 242.218565 
L 122.025936 244.154559 
L 122.193477 243.344723 
L 122.361018 243.985436 
L 122.528559 243.467313 
L 122.696099 245.252902 
L 122.86364 243.971762 
L 123.198721 244.900707 
L 123.366262 244.476375 
L 123.533803 245.218893 
L 123.701344 244.632589 
L 123.868884 245.368293 
L 124.036425 245.288566 
L 124.203966 244.514328 
L 124.371507 246.603828 
L 124.539047 243.530589 
L 124.706588 246.202559 
L 124.874129 245.970948 
L 125.04167 241.876504 
L 125.20921 250.031711 
L 125.376751 240.501655 
L 125.711832 245.711206 
L 125.879373 242.02638 
L 126.046914 245.137922 
L 126.214455 243.69132 
L 126.381995 245.974767 
L 126.549536 242.525419 
L 126.717077 247.510106 
L 126.884618 243.783432 
L 127.052158 244.837183 
L 127.219699 243.491981 
L 127.38724 246.164418 
L 127.55478 243.170503 
L 127.722321 247.324032 
L 127.889862 242.612187 
L 128.057403 245.788602 
L 128.224943 243.850625 
L 128.392484 245.967753 
L 128.560025 244.676967 
L 128.727566 245.991968 
L 128.895106 245.918575 
L 129.062647 245.082854 
L 129.230188 246.719878 
L 129.397728 244.349872 
L 129.565269 246.148159 
L 129.73281 246.694785 
L 129.900351 242.410688 
L 130.067891 249.940119 
L 130.235432 242.171755 
L 130.570514 247.589238 
L 130.738054 242.292557 
L 130.905595 246.0794 
L 131.073136 244.094116 
L 131.240676 246.220135 
L 131.408217 243.613217 
L 131.575758 247.996177 
L 131.743299 244.755728 
L 131.910839 245.440887 
L 132.07838 244.65068 
L 132.245921 246.867416 
L 132.413462 244.264627 
L 132.581002 248.15606 
L 132.748543 243.764776 
L 132.916084 246.554949 
L 133.083624 244.734131 
L 133.251165 246.886039 
L 133.418706 245.206904 
L 133.586247 247.549559 
L 133.753787 245.739905 
L 133.921328 247.153883 
L 134.25641 245.912467 
L 134.42395 248.044585 
L 134.591491 244.797762 
L 134.759032 247.602882 
L 134.926572 247.339395 
L 135.094113 243.394658 
L 135.261654 251.053895 
L 135.429195 243.255577 
L 135.596735 246.25041 
L 135.764276 247.172076 
L 135.931817 244.833082 
L 136.099358 247.79458 
L 136.266898 246.309527 
L 136.434439 248.760238 
L 136.60198 244.347015 
L 136.76952 249.810677 
L 136.937061 245.516157 
L 137.104602 246.571992 
L 137.272143 246.408209 
L 137.439683 247.427783 
L 137.607224 246.225267 
L 137.774765 248.996034 
L 137.942306 245.394413 
L 138.109846 248.584324 
L 138.277387 246.439676 
L 138.444928 246.829372 
L 138.612468 248.950363 
L 138.780009 245.59608 
L 138.94755 249.540614 
L 139.115091 245.963892 
L 139.450172 248.447464 
L 139.617713 246.051596 
L 139.785254 249.937775 
L 139.952794 245.724463 
L 140.120335 248.653326 
L 140.287876 247.664961 
L 140.455416 245.904594 
L 140.622957 251.025483 
L 140.790498 244.80489 
L 140.958039 249.20535 
L 141.125579 246.777557 
L 141.29312 246.493956 
L 141.460661 249.689998 
L 141.628202 245.981834 
L 141.795742 250.340217 
L 141.963283 245.369372 
L 142.130824 249.723033 
L 142.298364 247.271209 
L 142.465905 248.095029 
L 142.633446 249.829705 
L 142.800987 245.650855 
L 142.968527 250.844962 
L 143.136068 246.066649 
L 143.303609 249.163446 
L 143.47115 248.741344 
L 143.63869 247.239391 
L 143.806231 250.577625 
L 143.973772 246.608713 
L 144.141312 249.001263 
L 144.308853 248.892436 
L 144.476394 246.296024 
L 144.643935 251.322476 
L 144.811475 246.50583 
L 144.979016 248.036514 
L 145.146557 250.78618 
L 145.314098 245.131951 
L 145.481638 250.930277 
L 145.649179 246.954974 
L 145.81672 247.525541 
L 145.984261 248.91419 
L 146.151801 248.575165 
L 146.319342 248.874256 
L 146.486883 248.393476 
L 146.654423 250.081713 
L 146.821964 248.607339 
L 147.157046 250.195245 
L 147.324586 247.179766 
L 147.492127 251.707711 
L 147.827209 245.681121 
L 147.994749 254.30569 
L 148.16229 244.477973 
L 148.329831 248.321169 
L 148.497371 247.672884 
L 148.664912 248.642423 
L 148.832453 246.329665 
L 148.999994 250.121612 
L 149.335075 247.809327 
L 149.502616 249.783164 
L 149.837697 248.34959 
L 150.005238 248.997543 
L 150.172779 249.149699 
L 150.340319 249.791378 
L 150.50786 249.698349 
L 150.675401 248.763197 
L 150.842942 250.997588 
L 151.010482 248.550168 
L 151.178023 249.559823 
L 151.345564 251.906593 
L 151.513105 245.15003 
L 151.680645 253.180749 
L 151.848186 247.027489 
L 152.015727 245.926763 
L 152.183267 252.475805 
L 152.350808 248.40379 
L 152.518349 249.252998 
L 152.68589 248.282138 
L 152.85343 250.667126 
L 153.020971 248.964651 
L 153.188512 250.92353 
L 153.356053 249.006206 
L 153.523593 248.827891 
L 153.858675 249.436614 
L 154.193756 248.694415 
L 154.361297 251.613919 
L 154.528838 247.038719 
L 154.696378 252.099763 
L 154.863919 245.472066 
L 155.03146 254.052508 
L 155.199001 243.920699 
L 155.366541 253.409208 
L 155.534082 244.253336 
L 155.701623 252.02624 
L 155.869163 247.63271 
L 156.036704 250.7353 
L 156.204245 249.579927 
L 156.539326 250.844729 
L 156.706867 250.29696 
L 156.874408 250.894625 
L 157.041949 250.409462 
L 157.209489 251.13084 
L 157.37703 250.738152 
L 157.544571 250.993278 
L 157.712111 250.978826 
L 157.879652 250.84853 
L 158.047193 251.2075 
L 158.214734 250.577926 
L 158.382274 251.535711 
L 158.549815 250.631656 
L 158.717356 251.659482 
L 158.884897 250.623108 
L 159.052437 251.693129 
L 159.219978 250.865821 
L 159.387519 251.589432 
L 159.555059 251.27488 
L 159.7226 251.244599 
L 159.890141 252.046657 
L 160.057682 250.735931 
L 160.225222 252.204087 
L 160.392763 251.077696 
L 160.560304 251.074757 
L 160.727845 252.96406 
L 160.895385 249.190806 
L 161.062926 253.144993 
L 161.230467 249.874343 
L 161.398007 250.043338 
L 161.565548 253.53137 
L 161.733089 249.034346 
L 161.90063 252.220557 
L 162.06817 250.063662 
L 162.235711 251.253832 
L 162.403252 250.81002 
L 162.570793 252.038365 
L 162.738333 250.943162 
L 162.905874 251.055203 
L 163.073415 252.467843 
L 163.240955 250.210706 
L 163.408496 252.555245 
L 163.743578 250.521712 
L 163.911118 254.166783 
L 164.078659 248.263078 
L 164.2462 252.861191 
L 164.581281 249.601432 
L 164.748822 253.898201 
L 164.916363 249.762618 
L 165.083903 251.218398 
L 165.251444 250.224579 
L 165.418985 252.452421 
L 165.586526 250.719827 
L 165.754066 252.767523 
L 165.921607 250.269341 
L 166.089148 251.951854 
L 166.256689 251.098406 
L 166.424229 251.063778 
L 166.59177 252.163986 
L 166.759311 251.036843 
L 166.926851 252.942348 
L 167.094392 251.480084 
L 167.261933 250.999923 
L 167.429474 254.044617 
L 167.597014 248.867717 
L 167.764555 253.529606 
L 168.099637 249.39248 
L 168.267177 254.879458 
L 168.434718 249.81507 
L 168.602259 250.951569 
L 168.7698 250.452466 
L 168.93734 252.258781 
L 169.104881 250.825066 
L 169.272422 252.807242 
L 169.439962 250.558152 
L 169.607503 252.02956 
L 169.775044 251.539267 
L 169.942585 251.50758 
L 170.110125 251.870208 
L 170.277666 251.755185 
L 170.445207 252.585939 
L 170.612748 251.914802 
L 170.780288 251.839628 
L 170.947829 253.266108 
L 171.11537 250.732713 
L 171.28291 252.979506 
L 171.450451 253.245131 
L 171.617992 248.150183 
L 171.785533 256.306678 
L 171.953073 247.993573 
L 172.288155 251.252714 
L 172.455696 251.39045 
L 172.623236 249.269305 
L 172.790777 251.023485 
L 172.958318 251.365696 
L 173.125858 250.970719 
L 173.293399 251.948129 
L 173.46094 251.516331 
L 173.628481 251.466457 
L 173.963562 252.218196 
L 174.131103 251.707627 
L 174.298644 251.938737 
L 174.466184 251.919551 
L 174.633725 251.312036 
L 174.801266 252.858573 
L 174.968806 251.78467 
L 175.136347 253.10885 
L 175.303888 251.172372 
L 175.471429 253.553229 
L 175.638969 249.785449 
L 175.80651 253.926048 
L 175.974051 248.618966 
L 176.141592 254.647573 
L 176.309132 248.261208 
L 176.476673 255.005069 
L 176.644214 248.394396 
L 176.811754 254.431699 
L 176.979295 249.126553 
L 177.146836 253.882844 
L 177.314377 250.020742 
L 177.481917 253.754204 
L 177.649458 251.224356 
L 177.816999 253.704637 
L 177.98454 252.011084 
L 178.15208 253.158653 
L 178.319621 252.231801 
L 178.487162 253.010208 
L 178.654702 252.792283 
L 178.822243 252.781143 
L 178.989784 253.239412 
L 179.157325 252.400432 
L 179.324865 253.232857 
L 179.492406 252.250538 
L 179.659947 253.062304 
L 179.827488 252.994924 
L 179.995028 252.318368 
L 180.162569 253.909298 
L 180.33011 251.875778 
L 180.49765 253.541537 
L 180.832732 251.788823 
L 181.000273 254.917912 
L 181.167813 250.508609 
L 181.335354 253.760662 
L 181.670436 251.732147 
L 181.837976 254.331544 
L 182.005517 251.270914 
L 182.173058 253.40241 
L 182.340598 251.616809 
L 182.508139 253.424195 
L 182.67568 252.395256 
L 182.843221 253.186173 
L 183.010761 253.278588 
L 183.178302 252.152836 
L 183.345843 254.020999 
L 183.513384 252.250708 
L 183.848465 254.175545 
L 184.016006 250.8013 
L 184.183546 255.343112 
L 184.351087 250.419026 
L 184.518628 251.959885 
L 184.686169 254.674395 
L 184.853709 251.245681 
L 185.02125 253.566145 
L 185.188791 251.674086 
L 185.356332 253.026389 
L 185.523872 251.904686 
L 185.691413 253.997408 
L 185.858954 251.713944 
L 186.026494 253.311638 
L 186.194035 252.966438 
L 186.361576 252.332564 
L 186.529117 253.820741 
L 186.696657 252.243068 
L 186.864198 254.018795 
L 187.19928 251.904251 
L 187.36682 255.76051 
L 187.534361 250.217028 
L 187.701902 254.372916 
L 187.869442 252.328847 
L 188.036983 251.948742 
L 188.204524 253.836345 
L 188.372065 251.827961 
L 188.539605 253.434449 
L 188.707146 251.473937 
L 188.874687 254.385436 
L 189.042228 251.881888 
L 189.209768 253.403215 
L 189.54485 252.572651 
L 189.712391 253.533734 
L 189.879931 252.396757 
L 190.047472 253.813293 
L 190.382553 252.7177 
L 190.550094 255.25408 
L 190.717635 250.707573 
L 190.885176 254.859234 
L 191.220257 251.08774 
L 191.387798 255.894966 
L 191.555339 251.05708 
L 191.722879 252.51522 
L 191.89042 252.258111 
L 192.057961 253.884081 
L 192.225501 252.312811 
L 192.393042 253.881359 
L 192.560583 251.785804 
L 192.728124 253.663123 
L 192.895664 252.883089 
L 193.063205 252.915914 
L 193.230746 253.770403 
L 193.398287 252.862622 
L 193.565827 254.509379 
L 193.733368 252.397448 
L 194.068449 254.984602 
L 194.23599 250.864076 
L 194.403531 256.258437 
L 194.571072 251.231837 
L 194.738612 252.27912 
L 194.906153 254.14337 
L 195.073694 252.525601 
L 195.241235 253.216473 
L 195.408775 252.08338 
L 195.576316 254.281094 
L 195.743857 252.53542 
L 195.911397 254.576353 
L 196.078938 252.569869 
L 196.246479 254.084763 
L 196.41402 253.666267 
L 196.58156 252.570043 
L 196.749101 254.988054 
L 196.916642 252.048979 
L 197.084183 254.458181 
L 197.251723 254.310804 
L 197.419264 251.445431 
L 197.586805 256.320485 
L 197.754345 250.992518 
L 197.921886 253.085448 
L 198.089427 253.177403 
L 198.256968 253.536345 
L 198.424508 253.127779 
L 198.75959 253.546967 
L 198.927131 252.390926 
L 199.094671 254.432122 
L 199.262212 253.138228 
L 199.429753 253.511854 
L 199.597293 254.980669 
L 199.764834 251.576189 
L 199.932375 255.223347 
L 200.099916 252.430218 
L 200.267456 252.216833 
L 200.434997 255.825227 
L 200.602538 251.336222 
L 200.770079 254.562418 
L 200.937619 252.566538 
L 201.10516 253.708656 
L 201.272701 252.915415 
L 201.440241 253.589397 
L 201.607782 253.499488 
L 201.775323 252.423631 
L 201.942864 254.948985 
L 202.110404 252.442 
L 202.277945 254.228913 
L 202.445486 254.798123 
L 202.613027 251.794782 
L 202.780567 255.651373 
L 202.948108 251.014548 
L 203.283189 254.733948 
L 203.45073 252.580727 
L 203.618271 255.380515 
L 203.785812 251.980828 
L 203.953352 254.296227 
L 204.120893 252.446012 
L 204.288434 254.573707 
L 204.455975 253.134238 
L 204.623515 253.36211 
L 204.791056 254.749502 
L 204.958597 252.031848 
L 205.126137 255.19235 
L 205.461219 252.385002 
L 205.62876 256.18466 
L 205.7963 250.825951 
L 205.963841 254.816619 
L 206.131382 253.613595 
L 206.298923 253.31118 
L 206.466463 254.344017 
L 206.634004 252.575844 
L 206.801545 254.246337 
L 206.969085 252.525693 
L 207.136626 255.236778 
L 207.304167 253.024174 
L 207.639248 254.74475 
L 207.806789 252.306565 
L 207.97433 255.213983 
L 208.141871 253.034504 
L 208.309411 253.342668 
L 208.476952 255.924908 
L 208.644493 251.447655 
L 208.812033 255.918752 
L 208.979574 253.20201 
L 209.147115 252.378842 
L 209.314656 255.73851 
L 209.482196 252.094661 
L 209.649737 253.871039 
L 209.817278 252.966179 
L 209.984819 254.68645 
L 210.152359 252.933874 
L 210.3199 254.632758 
L 210.487441 253.103946 
L 210.822522 254.930619 
L 210.990063 252.406414 
L 211.157604 255.881492 
L 211.492685 252.521173 
L 211.660226 256.595352 
L 211.827767 251.400746 
L 211.995307 254.556214 
L 212.162848 253.069251 
L 212.330389 253.889645 
L 212.49793 253.419262 
L 212.833011 254.124495 
L 213.000552 252.868047 
L 213.168092 255.534567 
L 213.335633 253.04045 
L 213.670715 255.15624 
L 213.838255 252.706536 
L 214.005796 255.596016 
L 214.173337 252.676212 
L 214.508418 255.560152 
L 214.675959 252.251453 
L 214.8435 256.135798 
L 215.01104 252.213505 
L 215.346122 254.734327 
L 215.513663 253.225084 
L 215.681203 254.777161 
L 215.848744 252.868957 
L 216.016285 255.108991 
L 216.183826 253.023176 
L 216.351366 254.749549 
L 216.518907 254.246532 
L 216.686448 253.101307 
L 216.853988 256.030244 
L 217.021529 252.274027 
L 217.356611 255.663377 
L 217.524151 251.433232 
L 217.691692 256.322275 
L 217.859233 251.498755 
L 218.026774 254.273696 
L 218.194314 252.720811 
L 218.361855 255.132817 
L 218.529396 253.429006 
L 218.864477 254.562413 
L 219.032018 253.782079 
L 219.199559 254.506204 
L 219.367099 254.037803 
L 219.53464 255.049149 
L 219.702181 254.488205 
L 219.869722 253.537793 
L 220.037262 256.205021 
L 220.204803 252.61756 
L 220.372344 255.292127 
L 220.539884 255.674414 
L 220.707425 251.390026 
L 220.874966 257.177051 
L 221.042507 250.289535 
L 221.210047 252.96063 
L 221.377588 252.652755 
L 221.545129 255.16984 
L 221.71267 253.582581 
L 221.88021 254.757366 
L 222.047751 253.307147 
L 222.215292 254.709798 
L 222.382832 253.710838 
L 222.717914 254.949671 
L 222.885455 254.510881 
L 223.220536 254.933802 
L 223.388077 254.319062 
L 223.555618 255.610063 
L 223.890699 253.876036 
L 224.05824 257.056555 
L 224.22578 252.618671 
L 224.393321 256.058009 
L 224.560862 255.751513 
L 224.728403 252.135587 
L 224.895943 257.172386 
L 225.063484 251.402848 
L 225.231025 253.22696 
L 225.398566 252.881062 
L 225.566106 255.494321 
L 225.733647 254.77376 
L 225.901188 255.256258 
L 226.068728 253.692358 
L 226.236269 255.149333 
L 226.40381 254.503655 
L 226.571351 254.769781 
L 226.738891 253.779883 
L 226.906432 255.974594 
L 227.073973 254.847185 
L 227.241514 255.147436 
L 227.409054 253.860047 
L 227.576595 255.444478 
L 227.744136 254.608881 
L 227.911676 255.715601 
L 228.079217 253.730969 
L 228.246758 256.12682 
L 228.414299 254.49325 
L 228.581839 255.462042 
L 228.74938 254.800273 
L 229.084462 255.607795 
L 229.252002 254.290299 
L 229.419543 256.091153 
L 229.587084 255.044166 
L 229.754624 254.791749 
L 229.922165 256.728435 
L 230.089706 253.35141 
L 230.257247 256.474217 
L 230.424787 254.363882 
L 230.592328 254.231799 
L 230.759869 256.676543 
L 230.92741 253.497143 
L 231.09495 255.958947 
L 231.262491 254.098681 
L 231.430032 255.528092 
L 231.597572 254.608753 
L 231.932654 255.644464 
L 232.100195 253.847983 
L 232.267735 256.32188 
L 232.435276 254.645364 
L 232.770358 256.175515 
L 232.937898 253.745038 
L 233.105439 256.585252 
L 233.27298 254.335619 
L 233.440521 255.252898 
L 233.608061 256.807189 
L 233.775602 253.42533 
L 233.943143 256.799217 
L 234.110683 254.037094 
L 234.278224 255.294277 
L 234.445765 255.380844 
L 234.613306 255.000919 
L 234.780846 255.665697 
L 234.948387 254.078045 
L 235.115928 256.506821 
L 235.283469 254.030824 
L 235.451009 255.956961 
L 235.61855 255.775544 
L 235.786091 253.303121 
L 235.953631 257.221354 
L 236.121172 252.989549 
L 236.288713 256.197162 
L 236.623794 255.141758 
L 236.791335 256.051204 
L 236.958876 253.626378 
L 237.126417 257.172622 
L 237.293957 253.965668 
L 237.461498 256.420027 
L 237.629039 254.852632 
L 237.796579 254.40515 
L 237.96412 256.917948 
L 238.131661 253.271475 
L 238.299202 257.104123 
L 238.634283 254.65663 
L 238.801824 257.158598 
L 238.969365 253.604007 
L 239.136905 256.938066 
L 239.304446 255.292964 
L 239.471987 255.012083 
L 239.639527 256.570555 
L 239.807068 254.401777 
L 239.974609 256.38193 
L 240.14215 255.445596 
L 240.30969 255.489535 
L 240.477231 256.577698 
L 240.644772 254.515408 
L 240.812313 256.709327 
L 241.147394 254.381616 
L 241.314935 257.933289 
L 241.482475 253.240339 
L 241.650016 256.312348 
L 241.817557 256.224602 
L 241.985098 254.818009 
L 242.152638 255.946661 
L 242.320179 254.243984 
L 242.48772 256.520244 
L 242.655261 254.184252 
L 242.822801 257.398906 
L 242.990342 254.796369 
L 243.157883 255.680851 
L 243.325423 255.75507 
L 243.492964 255.191201 
L 243.660505 256.114155 
L 243.828046 255.41902 
L 243.995586 256.441124 
L 244.163127 255.726036 
L 244.330668 255.554492 
L 244.498209 257.11446 
L 244.665749 254.047454 
L 244.83329 257.489649 
L 245.168371 253.439662 
L 245.335912 258.750442 
L 245.503453 253.345501 
L 245.670994 254.888954 
L 245.838534 255.167208 
L 246.006075 256.144846 
L 246.173616 254.733313 
L 246.341157 255.595738 
L 246.508697 254.822083 
L 246.676238 255.924686 
L 246.843779 255.273888 
L 247.011319 256.113415 
L 247.17886 255.374084 
L 247.513942 256.779984 
L 247.681482 255.214172 
L 247.849023 256.617929 
L 248.184105 255.321471 
L 248.351645 257.494056 
L 248.519186 254.297768 
L 248.686727 257.100152 
L 248.854267 256.912028 
L 249.021808 252.846781 
L 249.189349 258.659345 
L 249.35689 252.395844 
L 249.52443 254.179468 
L 249.691971 254.532285 
L 249.859512 256.497312 
L 250.027053 255.25689 
L 250.194593 256.169158 
L 250.362134 254.994168 
L 250.529675 256.476505 
L 250.697215 255.106551 
L 250.864756 256.530585 
L 251.032297 255.648708 
L 251.199838 256.627755 
L 251.367378 256.187501 
L 251.534919 256.113703 
L 251.70246 256.258746 
L 251.870001 256.229459 
L 252.037541 257.108611 
L 252.205082 255.571238 
L 252.372623 257.066988 
L 252.540163 257.038898 
L 252.707704 254.383145 
L 252.875245 258.661971 
L 253.042786 254.489819 
L 253.210326 255.32828 
L 253.377867 257.913108 
L 253.545408 255.260804 
L 253.712949 256.23478 
L 253.880489 253.965937 
L 254.04803 257.577149 
L 254.215571 255.239504 
L 254.383111 257.123523 
L 254.550652 254.982635 
L 254.718193 256.309538 
L 254.885734 254.748954 
L 255.053274 256.424731 
L 255.220815 255.912479 
L 255.555897 256.876058 
L 255.890978 256.092457 
L 256.058519 256.996415 
L 256.3936 256.252338 
L 256.561141 257.398344 
L 256.728682 255.650846 
L 256.896222 257.01164 
L 257.063763 257.459914 
L 257.231304 253.298449 
L 257.398845 259.292258 
L 257.566385 254.081654 
L 257.733926 254.284982 
L 257.901467 257.401168 
L 258.404089 253.995479 
L 258.57163 257.287023 
L 258.73917 256.291983 
L 258.906711 256.515694 
L 259.074252 255.276782 
L 259.241793 256.419269 
L 259.409333 255.309692 
L 259.576874 256.24778 
L 259.744415 255.369105 
L 259.911956 256.948154 
L 260.079496 255.318214 
L 260.247037 257.486336 
L 260.414578 255.278362 
L 260.582118 257.068829 
L 260.749659 256.016638 
L 260.9172 256.875696 
L 261.084741 256.271643 
L 261.419822 257.05866 
L 261.587363 256.062869 
L 261.754904 257.052405 
L 261.922444 256.711391 
L 262.089985 255.954379 
L 262.257526 257.963593 
L 262.425066 255.299441 
L 262.592607 257.138613 
L 262.760148 257.155474 
L 262.927689 254.791729 
L 263.095229 258.699993 
L 263.26277 254.294872 
L 263.430311 256.506458 
L 263.597852 256.558599 
L 263.765392 256.845238 
L 263.932933 256.494483 
L 264.100474 256.414917 
L 264.268014 257.124662 
L 264.435555 255.611203 
L 264.603096 257.860664 
L 264.770637 256.733725 
L 264.938177 256.819357 
L 265.105718 257.603706 
L 265.273259 255.189577 
L 265.4408 257.90234 
L 265.60834 255.948774 
L 265.775881 256.663948 
L 265.943422 258.167045 
L 266.110962 255.30155 
L 266.278503 257.942051 
L 266.446044 256.146657 
L 266.781125 257.338475 
L 266.948666 256.282533 
L 267.116207 258.027277 
L 267.283748 255.468819 
L 267.451288 257.532533 
L 267.618829 257.101679 
L 267.78637 255.685727 
L 267.95391 258.781302 
L 268.121451 254.65984 
L 268.288992 257.819711 
L 268.456533 256.659865 
L 268.624073 256.948275 
L 268.791614 256.771067 
L 268.959155 255.725865 
L 269.126696 257.952822 
L 269.294236 255.600322 
L 269.461777 258.777073 
L 269.629318 255.700986 
L 269.964399 257.411441 
L 270.13194 255.047318 
L 270.299481 258.443856 
L 270.467021 255.926585 
L 270.634562 257.641626 
L 270.802103 256.514357 
L 270.969644 256.716102 
L 271.137184 257.899977 
L 271.304725 255.697756 
L 271.472266 258.561106 
L 271.807347 255.908195 
L 271.974888 258.951489 
L 272.142429 254.855523 
L 272.309969 258.059631 
L 272.47751 256.782369 
L 272.645051 257.024197 
L 272.812592 256.025689 
L 272.980132 257.298186 
L 273.147673 257.19714 
L 273.315214 256.631958 
L 273.482754 257.9556 
L 273.650295 256.469331 
L 273.817836 256.94063 
L 273.985377 258.013043 
L 274.152917 256.313822 
L 274.320458 257.954606 
L 274.487999 256.881407 
L 274.65554 256.653194 
L 274.82308 258.752794 
L 274.990621 255.177659 
L 275.158162 258.578434 
L 275.493243 255.31177 
L 275.660784 258.879783 
L 275.828325 254.992291 
L 275.995865 257.246506 
L 276.163406 256.717639 
L 276.330947 257.894152 
L 276.498488 255.579267 
L 276.666028 257.728885 
L 276.833569 256.46995 
L 277.00111 256.31712 
L 277.168651 258.089743 
L 277.336191 255.977513 
L 277.503732 258.299976 
L 277.838813 255.976634 
L 278.006354 258.358007 
L 278.173895 255.523055 
L 278.341436 258.057817 
L 278.508976 257.256472 
L 278.676517 257.032618 
L 278.844058 257.242648 
L 279.011599 256.482032 
L 279.179139 257.67246 
L 279.34668 256.582839 
L 279.514221 258.13758 
L 279.849302 256.629081 
L 280.016843 258.64514 
L 280.184384 255.123178 
L 280.351924 258.44187 
L 280.519465 257.829078 
L 280.687006 255.001535 
L 280.854547 258.853257 
L 281.022087 254.475409 
L 281.189628 257.398953 
L 281.357169 256.387187 
L 281.524709 258.371736 
L 281.69225 256.490048 
L 281.859791 257.925691 
L 282.027332 256.587695 
L 282.194872 257.24495 
L 282.362413 257.358706 
L 282.529954 257.001936 
L 282.697495 258.149579 
L 282.865035 256.810738 
L 283.200117 258.03806 
L 283.367657 255.571568 
L 283.535198 259.473917 
L 283.702739 255.342435 
L 284.03782 258.244049 
L 284.205361 256.600357 
L 284.372902 256.945842 
L 284.540443 256.194988 
L 284.707983 258.745968 
L 284.875524 255.573329 
L 285.043065 258.865837 
L 285.210605 256.304324 
L 285.545687 257.002165 
L 285.713228 256.929328 
L 285.880768 257.875717 
L 286.048309 257.081528 
L 286.21585 258.256344 
L 286.383391 256.921033 
L 286.550931 256.845343 
L 286.718472 258.94755 
L 286.886013 255.163404 
L 287.053553 258.688287 
L 287.388635 255.854131 
L 287.556176 258.186237 
L 287.723716 255.684785 
L 287.891257 257.811713 
L 288.058798 256.205487 
L 288.226339 258.712687 
L 288.393879 256.023369 
L 288.56142 257.588614 
L 288.728961 256.703823 
L 288.896501 256.98592 
L 289.064042 257.635374 
L 289.231583 257.134309 
L 289.399124 258.153553 
L 289.566664 257.062746 
L 289.734205 257.328372 
L 289.901746 258.469529 
L 290.069287 255.769885 
L 290.236827 259.339549 
L 290.404368 256.336975 
L 290.571909 256.131512 
L 290.739449 259.020423 
L 290.90699 256.133485 
L 291.074531 257.310604 
L 291.242072 256.93378 
L 291.409612 258.441183 
L 291.577153 255.843866 
L 291.744694 258.539767 
L 291.912235 256.579241 
L 292.079775 257.27723 
L 292.247316 257.10283 
L 292.582397 257.947313 
L 292.749938 257.373779 
L 292.917479 258.520503 
L 293.08502 257.065411 
L 293.25256 257.033706 
L 293.420101 259.132094 
L 293.587642 255.016776 
L 293.755183 258.878008 
L 294.090264 256.172387 
L 294.257805 257.72468 
L 294.425345 256.545786 
L 294.592886 257.898022 
L 294.760427 256.429776 
L 294.927968 258.73792 
L 295.095508 256.081697 
L 295.263049 257.986449 
L 295.43059 257.081428 
L 295.598131 257.194749 
L 295.765671 257.850955 
L 295.933212 257.030267 
L 296.100753 258.669842 
L 296.268293 257.188933 
L 296.603375 258.34187 
L 296.770916 255.972622 
L 296.938456 259.146684 
L 297.105997 256.225639 
L 297.441079 258.585422 
L 297.608619 256.5543 
L 297.77616 258.042436 
L 297.943701 257.028328 
L 298.111241 258.198209 
L 298.278782 256.414524 
L 298.446323 258.637463 
L 298.613864 257.026942 
L 298.781404 256.702848 
L 298.948945 258.915105 
L 299.116486 255.660198 
L 299.284027 259.034315 
L 299.619108 256.806902 
L 299.786649 257.816702 
L 299.95419 257.027244 
L 300.12173 258.261924 
L 300.289271 257.067417 
L 300.456812 258.72858 
L 300.624352 256.630695 
L 300.959434 258.580947 
L 301.126975 255.430567 
L 301.294515 259.468604 
L 301.462056 256.824026 
L 301.629597 257.254178 
L 301.797138 258.000627 
L 301.964678 257.108833 
L 302.132219 258.492845 
L 302.29976 256.979575 
L 302.4673 258.584143 
L 302.634841 256.861708 
L 302.969923 258.573609 
L 303.137463 255.637593 
L 303.305004 259.332091 
L 303.472545 256.96854 
L 303.640086 257.350648 
L 303.807626 258.729012 
L 303.975167 256.195683 
L 304.142708 259.191626 
L 304.310248 257.166257 
L 304.477789 258.121346 
L 304.812871 257.190173 
L 304.980411 258.702369 
L 305.147952 256.391183 
L 305.315493 258.895359 
L 305.483034 257.218218 
L 305.650574 256.867969 
L 305.818115 259.223822 
L 305.985656 255.47507 
L 306.153196 259.252435 
L 306.488278 256.933452 
L 306.655819 258.78226 
L 306.823359 256.552774 
L 306.9909 258.855559 
L 307.158441 256.777072 
L 307.325982 258.484168 
L 307.493522 257.257992 
L 307.661063 257.213353 
L 307.828604 259.225093 
L 307.996144 255.474898 
L 308.163685 259.341055 
L 308.498767 256.350362 
L 308.666307 259.266022 
L 308.833848 256.507478 
L 309.001389 258.479203 
L 309.16893 257.587158 
L 309.33647 257.815898 
L 309.504011 257.801103 
L 309.671552 257.508252 
L 309.839092 258.825353 
L 310.006633 256.634359 
L 310.174174 258.485431 
L 310.341715 258.236845 
L 310.509255 255.758999 
L 310.676796 260.174088 
L 310.844337 256.54466 
L 311.011878 257.313481 
L 311.179418 258.859499 
L 311.346959 256.851325 
L 311.68204 258.168822 
L 311.849581 258.191598 
L 312.017122 256.231614 
L 312.184663 259.469629 
L 312.352203 256.924402 
L 312.519744 257.09442 
L 312.687285 259.295005 
L 312.854826 256.605736 
L 313.022366 258.382185 
L 313.189907 257.824096 
L 313.357448 257.841341 
L 313.524988 257.189247 
L 313.692529 258.404827 
L 314.027611 257.390164 
L 314.195151 258.938343 
L 314.362692 256.614874 
L 314.530233 258.403463 
L 314.697774 258.962364 
L 314.865314 255.036263 
L 315.032855 260.132129 
L 315.200396 256.640058 
L 315.367936 257.056883 
L 315.535477 258.787997 
L 315.870559 257.408049 
L 316.20564 258.851283 
L 316.373181 257.442479 
L 316.540722 258.612162 
L 316.875803 257.653991 
L 317.043344 258.168065 
L 317.210884 257.748521 
L 317.378425 258.276951 
L 317.713507 258.143033 
L 317.881047 258.330453 
L 318.048588 256.879091 
L 318.216129 259.359998 
L 318.55121 256.375758 
L 318.718751 260.245098 
L 318.886292 257.012498 
L 319.053832 257.898907 
L 319.221373 257.251205 
L 319.388914 258.960768 
L 319.723995 256.866019 
L 319.891536 256.562599 
L 320.059077 257.981208 
L 320.226618 257.559962 
L 320.394158 258.146229 
L 320.561699 257.407002 
L 320.72924 258.68168 
L 320.896781 257.006966 
L 321.064321 258.881329 
L 321.231862 257.216912 
L 321.399403 258.813652 
L 321.566943 257.74513 
L 321.734484 258.644239 
L 321.902025 257.712262 
L 322.069566 258.565354 
L 322.404647 258.054879 
L 322.572188 258.650732 
L 322.739729 257.872272 
L 323.07481 258.65054 
L 323.242351 256.946748 
L 323.409891 259.50897 
L 323.577432 257.563569 
L 323.744973 257.181058 
L 323.912514 260.076083 
L 324.080054 256.357164 
L 324.247595 258.199469 
L 324.415136 257.091901 
L 324.582677 258.101438 
L 324.750217 256.741915 
L 324.917758 258.294293 
L 325.085299 258.557283 
L 325.252839 257.087128 
L 325.42038 258.379768 
L 325.587921 257.441767 
L 325.755462 258.472793 
L 325.923002 258.149091 
L 326.090543 258.687715 
L 326.258084 258.29336 
L 326.425625 257.511002 
L 326.593165 258.977285 
L 326.760706 257.590446 
L 327.095787 259.0046 
L 327.263328 257.372602 
L 327.430869 258.999351 
L 327.59841 258.464759 
L 327.76595 256.519983 
L 327.933491 260.424001 
L 328.101032 256.482985 
L 328.268573 257.446933 
L 328.436113 259.073867 
L 328.603654 257.392317 
L 328.938735 256.624247 
L 329.106276 259.319916 
L 329.273817 256.584989 
L 329.441358 258.82488 
L 329.608898 258.199558 
L 329.776439 256.964022 
L 329.94398 258.225435 
L 330.111521 258.029482 
L 330.446602 258.156792 
L 330.781683 258.543454 
L 330.949224 257.502018 
L 331.116765 258.817576 
L 331.284306 258.078174 
L 331.451846 257.879481 
L 331.619387 259.391584 
L 331.786928 256.791911 
L 331.954469 259.059467 
L 332.122009 258.637568 
L 332.28955 256.242075 
L 332.457091 260.06654 
L 332.624631 256.612637 
L 332.792172 258.075066 
L 332.959713 257.989799 
L 333.127254 258.641409 
L 333.294794 257.458015 
L 333.462335 258.157832 
L 333.629876 258.165115 
L 333.797417 257.480066 
L 333.964957 258.788082 
L 334.132498 258.116962 
L 334.300039 258.535338 
L 334.467579 258.55587 
L 334.63512 257.615118 
L 334.802661 258.792149 
L 334.970202 257.851414 
L 335.305283 258.855309 
L 335.472824 257.089889 
L 335.640365 259.507962 
L 335.975446 255.994456 
L 336.142987 260.490624 
L 336.310527 256.573156 
L 336.478068 258.116517 
L 336.645609 258.194361 
L 336.81315 258.661551 
L 336.98069 256.92329 
L 337.148231 257.506103 
L 337.315772 257.50665 
L 337.483313 257.998923 
L 337.650853 257.590239 
L 337.818394 258.661917 
L 337.985935 257.988031 
L 338.321016 258.320332 
L 338.488557 257.47204 
L 338.656098 258.304269 
L 338.823638 258.389774 
L 338.991179 257.738924 
L 339.15872 258.799039 
L 339.326261 257.942781 
L 339.493801 258.011576 
L 339.661342 259.471433 
L 339.828883 256.024275 
L 339.996423 259.374328 
L 340.163964 258.199673 
L 340.331505 255.735954 
L 340.499046 260.06197 
L 340.666586 256.764464 
L 340.834127 257.661154 
L 341.001668 257.627762 
L 341.169209 257.850529 
L 341.336749 257.803754 
L 341.50429 258.381294 
L 341.671831 258.461368 
L 341.839371 257.87772 
L 342.006912 258.547011 
L 342.174453 258.149844 
L 342.341994 258.33046 
L 342.509534 258.814225 
L 342.677075 257.835706 
L 342.844616 258.546387 
L 343.347238 258.276345 
L 343.514779 258.550317 
L 343.68232 258.003408 
L 343.84986 259.08445 
L 344.017401 257.442197 
L 344.352482 259.098468 
L 344.520023 256.412415 
L 344.687564 260.041291 
L 345.022645 255.67011 
L 345.190186 260.759976 
L 345.357727 257.076344 
L 345.525268 258.114509 
L 345.692808 257.79622 
L 345.860349 258.896628 
L 346.02789 257.792771 
L 346.19543 257.666495 
L 346.362971 257.792394 
L 346.530512 258.47945 
L 346.698053 258.195951 
L 346.865593 258.527619 
L 347.033134 257.883158 
L 347.200675 259.229177 
L 347.368216 257.702168 
L 347.535756 258.820369 
L 347.703297 257.787367 
L 347.870838 258.824893 
L 348.038378 258.555532 
L 348.205919 257.941714 
L 348.37346 258.923539 
L 348.541001 257.696748 
L 348.708541 258.899372 
L 348.876082 257.866562 
L 349.043623 258.831737 
L 349.378704 258.125319 
L 349.546245 259.084975 
L 349.713786 257.214181 
L 349.881326 259.182419 
L 350.216408 257.8157 
L 350.383949 259.767128 
L 350.551489 257.170246 
L 350.71903 258.775274 
L 350.886571 258.650459 
L 351.054112 257.42136 
L 351.221652 259.142769 
L 351.389193 257.626358 
L 351.556734 258.652351 
L 351.891815 258.312234 
L 352.059356 258.658951 
L 352.226897 258.002507 
L 352.394437 259.05356 
L 352.561978 257.963114 
L 352.729519 258.43445 
L 352.89706 259.33257 
L 353.0646 257.471738 
L 353.399682 259.706692 
L 353.567222 255.26696 
L 353.734763 260.677112 
L 353.902304 255.484148 
L 354.069845 258.319403 
L 354.237385 256.701006 
L 354.404926 259.368789 
L 354.572467 258.181813 
L 354.740008 258.762105 
L 354.907548 258.146652 
L 355.075089 258.762667 
L 355.24263 258.559943 
L 355.41017 259.608888 
L 355.577711 258.854416 
L 355.745252 259.573745 
L 355.912793 257.892625 
L 356.080333 259.113793 
L 356.247874 258.593002 
L 356.415415 258.902736 
L 356.582956 258.654763 
L 356.918037 258.967796 
L 357.085578 258.672876 
L 357.253118 259.089438 
L 357.420659 258.446469 
L 357.5882 258.59907 
L 357.755741 259.594496 
L 357.923281 256.948453 
L 358.090822 260.001921 
L 358.425904 256.494127 
L 358.593444 260.709113 
L 358.760985 257.472246 
L 358.928526 258.261704 
L 359.096066 258.360466 
L 359.263607 258.995447 
L 359.431148 256.735227 
L 359.598689 258.956998 
L 359.766229 258.258413 
L 359.93377 258.402383 
L 360.101311 258.398156 
L 360.268852 259.007725 
L 360.436392 258.593305 
L 360.603933 259.003952 
L 360.939014 258.344854 
L 361.106555 258.640439 
L 361.441637 258.527331 
L 361.609177 258.851048 
L 361.776718 257.732757 
L 361.944259 259.455957 
L 362.1118 257.946579 
L 362.27934 258.104086 
L 362.446881 259.888318 
L 362.614422 257.152611 
L 362.949503 259.550681 
L 363.117044 257.727982 
L 363.284585 259.065022 
L 363.452125 257.826451 
L 363.619666 259.606892 
L 363.787207 257.732115 
L 363.954748 259.503438 
L 364.122288 258.320467 
L 364.289829 258.077598 
L 364.45737 257.590586 
L 364.624911 259.205999 
L 364.792451 258.433059 
L 364.959992 259.276909 
L 365.127533 258.819784 
L 365.295073 259.27272 
L 365.462614 258.303276 
L 365.797696 258.974906 
L 365.965236 257.819678 
L 366.132777 259.720566 
L 366.300318 257.831565 
L 366.635399 259.638741 
L 366.80294 257.131222 
L 366.970481 259.677717 
L 367.138021 257.562302 
L 367.473103 258.957458 
L 367.640644 258.436144 
L 367.808184 259.325087 
L 367.975725 258.127273 
L 368.143266 259.254074 
L 368.310807 258.484877 
L 368.478347 258.758864 
L 368.645888 259.636806 
L 368.813429 257.608237 
L 368.980969 259.759122 
L 369.316051 257.393912 
L 369.483592 260.349355 
L 369.651132 257.670335 
L 369.818673 259.276661 
L 370.321295 258.239424 
L 370.656377 259.155553 
L 370.823917 257.497301 
L 370.991458 259.963929 
L 371.158999 257.755752 
L 371.32654 258.964206 
L 371.49408 259.075193 
L 371.661621 257.707041 
L 371.829162 258.968018 
L 371.996703 258.023471 
L 372.164243 259.632596 
L 372.331784 257.703057 
L 372.499325 259.933747 
L 372.666865 257.73675 
L 372.834406 258.033974 
L 373.001947 259.711261 
L 373.169488 257.182212 
L 373.337028 260.353333 
L 373.504569 258.122862 
L 373.67211 257.996093 
L 373.839651 258.812095 
L 374.007191 258.15073 
L 374.174732 259.356825 
L 374.342273 258.438042 
L 374.509813 259.306448 
L 374.677354 258.190209 
L 375.012436 259.016693 
L 375.179976 257.692406 
L 375.347517 259.579609 
L 375.515058 258.311494 
L 375.682599 258.47883 
L 375.850139 259.395088 
L 376.01768 257.426601 
L 376.185221 259.81073 
L 376.520302 258.052774 
L 376.687843 259.784053 
L 376.855384 257.623099 
L 377.022924 259.699636 
L 377.358006 258.188116 
L 377.525547 259.509097 
L 377.693087 258.286811 
L 378.028169 259.226939 
L 378.195709 258.147579 
L 378.36325 259.619299 
L 378.698332 257.977528 
L 378.865872 260.596063 
L 379.033413 256.667263 
L 379.200954 260.064003 
L 379.368495 259.377741 
L 379.536035 257.449421 
L 379.703576 258.157447 
L 379.871117 258.084485 
L 380.038657 260.121546 
L 380.206198 258.608538 
L 380.373739 259.349895 
L 380.70882 257.734805 
L 381.211443 258.859945 
L 381.378983 259.080546 
L 381.546524 259.056602 
L 381.714065 259.327781 
L 381.881605 258.762455 
L 382.049146 258.93527 
L 382.216687 258.350812 
L 382.384228 259.242936 
L 382.551768 258.471054 
L 382.719309 259.377151 
L 382.88685 258.089222 
L 383.054391 259.495599 
L 383.221931 258.476394 
L 383.557013 259.03477 
L 383.724553 258.267691 
L 383.892094 259.596135 
L 384.059635 258.358747 
L 384.227176 259.160964 
L 384.394716 259.180492 
L 384.562257 257.960062 
L 384.729798 259.905908 
L 384.897339 258.178911 
L 385.064879 258.784382 
L 385.23242 259.938605 
L 385.399961 257.485931 
L 385.567501 260.027253 
L 385.735042 258.385626 
L 385.902583 258.248623 
L 386.070124 259.580911 
L 386.237664 258.356122 
L 386.405205 259.326842 
L 386.572746 258.850747 
L 386.740287 259.071686 
L 386.907827 258.739102 
L 387.075368 259.096824 
L 387.242909 258.966401 
L 387.41045 258.362834 
L 387.57799 259.434514 
L 387.745531 258.807054 
L 387.913072 258.636118 
L 388.080612 259.87388 
L 388.248153 257.200319 
L 388.415694 259.653814 
L 388.583235 259.413985 
L 388.750775 256.60251 
L 388.918316 260.990167 
L 389.085857 257.397628 
L 389.253398 258.988989 
L 389.420938 259.004406 
L 389.588479 259.38134 
L 389.75602 257.823907 
L 389.92356 259.817515 
L 390.091101 258.281667 
L 390.258642 259.374455 
L 390.426183 258.998822 
L 390.593723 258.994987 
L 390.761264 259.477091 
L 390.928805 258.673125 
L 391.096346 258.791653 
L 391.263886 259.281606 
L 391.431427 258.618267 
L 391.598968 259.411901 
L 391.934049 258.321024 
L 392.10159 260.215494 
L 392.269131 257.331645 
L 392.436671 259.741945 
L 392.604212 259.728968 
L 392.771753 256.969686 
L 392.939294 260.368495 
L 393.106834 257.672023 
L 393.274375 259.497153 
L 393.441916 259.04226 
L 393.609456 259.981384 
L 393.776997 258.047241 
L 393.944538 259.00191 
L 394.112079 258.262702 
L 394.279619 259.035026 
L 394.44716 258.895897 
L 394.614701 259.277048 
L 394.782242 258.925205 
L 394.949782 259.556419 
L 395.117323 258.077732 
L 395.284864 259.648388 
L 395.452404 258.511572 
L 395.787486 259.03372 
L 395.955027 258.274538 
L 396.122567 259.490071 
L 396.290108 258.762068 
L 396.457649 258.868253 
L 396.62519 259.40683 
L 396.79273 258.261119 
L 396.960271 259.553716 
L 397.127812 258.501916 
L 397.295352 258.542559 
L 397.462893 260.428585 
L 397.630434 257.157678 
L 397.797975 260.10207 
L 398.133056 257.910389 
L 398.300597 259.361862 
L 398.468138 258.503588 
L 398.635678 259.673098 
L 398.803219 258.870605 
L 398.97076 260.076479 
L 399.1383 258.084454 
L 399.305841 259.109408 
L 399.473382 258.352338 
L 399.640923 259.04252 
L 399.808463 258.85128 
L 399.976004 258.840597 
L 400.143545 259.290265 
L 400.311086 258.454295 
L 400.646167 258.973872 
L 400.813708 258.051656 
L 400.981248 259.823865 
L 401.148789 258.253897 
L 401.31633 258.077344 
L 401.483871 260.513978 
L 401.651411 256.548636 
L 401.818952 260.592826 
L 402.154034 257.68858 
L 402.321574 257.696503 
L 402.489115 258.92066 
L 402.656656 258.580545 
L 402.991737 259.668978 
L 403.159278 258.299391 
L 403.326819 259.950849 
L 403.494359 258.508984 
L 403.6619 259.011613 
L 403.996982 258.437893 
L 404.164522 259.604737 
L 404.332063 258.272232 
L 404.499604 259.238397 
L 404.667144 259.022792 
L 404.834685 258.040526 
L 405.002226 259.783138 
L 405.169767 257.950736 
L 405.504848 259.768161 
L 405.672389 257.535365 
L 405.83993 259.987364 
L 406.00747 258.27925 
L 406.175011 257.802537 
L 406.342552 260.357101 
L 406.510092 257.189324 
L 406.677633 259.867266 
L 407.012715 258.381957 
L 407.180255 258.90118 
L 407.347796 258.921092 
L 407.515337 258.706171 
L 407.682878 259.06904 
L 407.850418 259.163189 
L 408.017959 258.458857 
L 408.1855 259.503144 
L 408.520581 257.848094 
L 408.688122 260.162499 
L 408.855663 257.457113 
L 409.190744 260.041118 
L 409.358285 256.414181 
L 409.525826 260.723479 
L 409.693366 257.807665 
L 409.860907 258.421962 
L 410.028448 258.560117 
L 410.195989 259.170151 
L 410.363529 258.38359 
L 410.53107 259.661832 
L 410.698611 258.533594 
L 410.866151 259.181425 
L 411.033692 259.229049 
L 411.201233 258.382893 
L 411.368774 259.844495 
L 411.536314 257.868816 
L 411.703855 259.325448 
L 411.871396 259.765751 
L 412.038937 257.049458 
L 412.206477 260.406951 
L 412.374018 258.057349 
L 412.709099 259.580003 
L 412.87664 259.131112 
L 413.044181 258.190516 
L 413.211722 259.597097 
L 413.379262 258.680753 
L 413.546803 258.937391 
L 413.714344 259.94021 
L 413.881885 258.086039 
L 414.049425 259.749095 
L 414.384507 257.673701 
L 414.552047 260.447319 
L 414.719588 257.633784 
L 414.887129 259.64034 
L 415.05467 259.768209 
L 415.22221 258.009852 
L 415.389751 260.061933 
L 415.557292 258.541699 
L 415.892373 259.361689 
L 416.227455 258.868801 
L 416.394995 259.289794 
L 416.730077 258.811972 
L 416.897618 259.532904 
L 417.065158 258.707068 
L 417.40024 259.468006 
L 417.567781 258.112311 
L 417.735321 259.590469 
L 417.902862 259.595184 
L 418.070403 256.747267 
L 418.237943 261.266222 
L 418.405484 256.427684 
L 418.573025 258.932139 
L 418.740566 259.116011 
L 418.908106 259.742746 
L 419.075647 258.23486 
L 419.243188 259.571823 
L 419.410729 258.891922 
L 419.578269 258.872444 
L 419.74581 259.524982 
L 419.913351 259.313224 
L 420.080891 259.492996 
L 420.248432 259.433098 
L 420.248432 259.433098 
" style="fill:none;stroke:#dd8452;stroke-linecap:square;stroke-width:2;"/>
   </g>
   <g id="patch_3">
    <path d="M 68.588821 277.574739 
L 68.588821 21.6 
" style="fill:none;stroke:#000000;stroke-linecap:square;stroke-linejoin:miter;stroke-width:0.8;"/>
   </g>
   <g id="patch_4">
    <path d="M 436.994128 277.574739 
L 436.994128 21.6 
" style="fill:none;stroke:#000000;stroke-linecap:square;stroke-linejoin:miter;stroke-width:0.8;"/>
   </g>
   <g id="patch_5">
    <path d="M 68.588821 277.574739 
L 436.994128 277.574739 
" style="fill:none;stroke:#000000;stroke-linecap:square;stroke-linejoin:miter;stroke-width:0.8;"/>
   </g>
   <g id="patch_6">
    <path d="M 68.588821 21.6 
L 436.994128 21.6 
" style="fill:none;stroke:#000000;stroke-linecap:square;stroke-linejoin:miter;stroke-width:0.8;"/>
   </g>
   <g id="legend_1">
    <g id="patch_7">
     <path d="M 242.541877 93.753759 
L 422.994128 93.753759 
Q 426.994128 93.753759 426.994128 89.753759 
L 426.994128 35.6 
Q 426.994128 31.6 422.994128 31.6 
L 242.541877 31.6 
Q 238.541877 31.6 238.541877 35.6 
L 238.541877 89.753759 
Q 238.541877 93.753759 242.541877 93.753759 
z
" style="fill:#ffffff;opacity:0.8;stroke:#cccccc;stroke-linejoin:miter;"/>
    </g>
    <g id="line2d_13">
     <path d="M 246.541877 46.6 
L 286.541877 46.6 
" style="fill:none;stroke:#4c72b0;stroke-linecap:square;stroke-width:2;"/>
    </g>
    <g id="line2d_14"/>
    <g id="text_13">
     <!-- Train loss -->
     <g transform="translate(302.541877 53.6)scale(0.2 -0.2)">
      <defs>
       <path d="M 62.203125 67.59375 
L 4.5 67.59375 
L 2.796875 45.59375 
L 4.59375 45.59375 
C 5.90625 62.125 7.296875 65 22.703125 65 
C 24.5 65 27.40625 65 28.203125 64.90625 
C 30.09375 64.609375 30.09375 63.40625 30.09375 61.125 
L 30.09375 7.171875 
C 30.09375 3.59375 29.796875 2.5 21.5 2.5 
L 18.703125 2.5 
L 18.703125 0 
C 23.5 0 28.5 0 33.40625 0 
C 38.296875 0 43.296875 0 48.09375 0 
L 48.09375 2.5 
L 45.296875 2.5 
C 37 2.5 36.703125 3.59375 36.703125 7.171875 
L 36.703125 61.125 
C 36.703125 63.3125 36.703125 64.515625 38.5 64.90625 
C 39.296875 65 42.203125 65 44 65 
C 59.296875 65 60.796875 62.125 62.09375 45.59375 
L 63.90625 45.59375 
z
" id="CMR17-84"/>
       <path d="M 15 23.390625 
C 15 33 19.09375 42 26.59375 42 
C 27.296875 42 28 41.90625 28.703125 41.59375 
C 28.703125 41.59375 26.5 40.890625 26.5 38.3125 
C 26.5 35.90625 28.40625 34.90625 29.90625 34.90625 
C 31.09375 34.90625 33.296875 35.609375 33.296875 38.40625 
C 33.296875 41.609375 30.09375 43.59375 26.703125 43.59375 
C 19.09375 43.59375 15.796875 36.203125 14.796875 32.703125 
L 14.703125 32.703125 
L 14.703125 43.59375 
L 3.09375 42.5 
L 3.09375 39.90625 
C 9 39.90625 9.90625 39.296875 9.90625 34.5 
L 9.90625 6.6875 
C 9.90625 2.875 9.5 2.390625 3.09375 2.390625 
L 3.09375 -0.203125 
C 5.5 0 10.09375 0 12.703125 0 
C 15.59375 0 20.703125 0 23.40625 -0.203125 
L 23.40625 2.390625 
C 16.203125 2.390625 15 2.390625 15 6.875 
z
" id="CMR17-114"/>
       <path d="M 36 25.828125 
C 36 32.375 36 35.84375 31.796875 39.734375 
C 28.09375 43 23.796875 44 20.40625 44 
C 12.5 44 6.796875 37.609375 6.796875 30.796875 
C 6.796875 27 9.796875 27 10.40625 27 
C 11.703125 27 14 27.78125 14 30.53125 
C 14 33 12.09375 34.078125 10.40625 34.078125 
C 10 34.078125 9.5 33.96875 9.203125 33.875 
C 11.296875 40.5 16.703125 42.40625 20.203125 42.40625 
C 25.203125 42.40625 30.703125 37.953125 30.703125 29.453125 
L 30.703125 25 
C 24.796875 25 17.703125 24.203125 12.09375 21.203125 
C 5.796875 17.703125 4 12.703125 4 8.90625 
C 4 1.203125 13 -1 18.296875 -1 
C 23.796875 -1 28.90625 2.171875 31.09375 7.984375 
C 31.296875 3.640625 34.09375 -0.28125 38.5 -0.28125 
C 40.59375 -0.28125 45.90625 1.09375 45.90625 8.859375 
L 45.90625 14.375 
L 44.09375 14.375 
L 44.09375 8.78125 
C 44.09375 2.78125 41.40625 2 40.09375 2 
C 36 2 36 7.15625 36 11.53125 
z
M 30.703125 13.59375 
C 30.703125 4.953125 24.5 0.59375 19 0.59375 
C 14 0.59375 10.09375 4.296875 10.09375 8.90625 
C 10.09375 11.890625 11.40625 17.1875 17.203125 20.390625 
C 22 23.09375 27.5 23.5 30.703125 23.5 
z
" id="CMR17-97"/>
       <path d="M 15.5 61.078125 
C 15.5 63.265625 13.703125 65.15625 11.40625 65.15625 
C 9.203125 65.15625 7.296875 63.375 7.296875 61.078125 
C 7.296875 58.890625 9.09375 57 11.40625 57 
C 13.59375 57 15.5 58.796875 15.5 61.078125 
z
M 3.796875 42.28125 
L 3.796875 39.703125 
C 9.40625 39.703125 10.203125 39.09375 10.203125 34.328125 
L 10.203125 6.671875 
C 10.203125 2.875 9.796875 2.390625 3.40625 2.390625 
L 3.40625 -0.203125 
C 5.796875 0 10.09375 0 12.59375 0 
C 15 0 19.09375 0 21.40625 -0.203125 
L 21.40625 2.390625 
C 15.5 2.390625 15.296875 2.984375 15.296875 6.5625 
L 15.296875 43.375 
z
" id="CMR17-105"/>
       <path d="M 41.5 30.203125 
C 41.5 35.296875 40.5 43.59375 28.703125 43.59375 
C 20.796875 43.59375 16.703125 37.5 15.203125 33.5 
L 15.09375 33.5 
L 15.09375 43.59375 
L 3.296875 42.5 
L 3.296875 39.90625 
C 9.203125 39.90625 10.09375 39.296875 10.09375 34.5 
L 10.09375 6.6875 
C 10.09375 2.875 9.703125 2.390625 3.296875 2.390625 
L 3.296875 -0.203125 
C 5.703125 0 10.09375 0 12.703125 0 
C 15.296875 0 19.796875 0 22.203125 -0.203125 
L 22.203125 2.390625 
C 15.796875 2.390625 15.40625 2.78125 15.40625 6.6875 
L 15.40625 25.90625 
C 15.40625 35.109375 21 42 28 42 
C 35.40625 42 36.203125 35.40625 36.203125 30.59375 
L 36.203125 6.6875 
C 36.203125 2.875 35.796875 2.390625 29.40625 2.390625 
L 29.40625 -0.203125 
C 31.796875 0 36.203125 0 38.796875 0 
C 41.40625 0 45.90625 0 48.296875 -0.203125 
L 48.296875 2.390625 
C 41.90625 2.390625 41.5 2.78125 41.5 6.6875 
z
" id="CMR17-110"/>
       <path d="M 15.296875 68.6875 
L 3.40625 67.59375 
L 3.40625 65 
C 9.296875 65 10.203125 64.40625 10.203125 59.640625 
L 10.203125 6.65625 
C 10.203125 2.875 9.796875 2.390625 3.40625 2.390625 
L 3.40625 -0.203125 
C 5.796875 0 10.203125 0 12.703125 0 
C 15.296875 0 19.703125 0 22.09375 -0.203125 
L 22.09375 2.390625 
C 15.703125 2.390625 15.296875 2.78125 15.296875 6.65625 
z
" id="CMR17-108"/>
      </defs>
      <use transform="scale(0.996264)" xlink:href="#CMR17-84"/>
      <use transform="translate(58.702625 0)scale(0.996264)" xlink:href="#CMR17-114"/>
      <use transform="translate(93.983393 0)scale(0.996264)" xlink:href="#CMR17-97"/>
      <use transform="translate(139.67387 0)scale(0.996264)" xlink:href="#CMR17-105"/>
      <use transform="translate(164.544929 0)scale(0.996264)" xlink:href="#CMR17-110"/>
      <use transform="translate(245.516265 0)scale(0.996264)" xlink:href="#CMR17-108"/>
      <use transform="translate(270.387323 0)scale(0.996264)" xlink:href="#CMR17-111"/>
      <use transform="translate(316.0778 0)scale(0.996264)" xlink:href="#CMR17-115"/>
      <use transform="translate(351.879138 0)scale(0.996264)" xlink:href="#CMR17-115"/>
     </g>
    </g>
    <g id="line2d_15">
     <path d="M 246.541877 74.878125 
L 286.541877 74.878125 
" style="fill:none;stroke:#dd8452;stroke-linecap:square;stroke-width:2;"/>
    </g>
    <g id="line2d_16"/>
    <g id="text_14">
     <!-- Validation loss -->
     <g transform="translate(302.541877 81.878125)scale(0.2 -0.2)">
      <defs>
       <path d="M 59 58.515625 
C 59.90625 60.71875 61.5 65 68.203125 65 
L 68.203125 67.6875 
C 65.90625 67.484375 63.296875 67.484375 60.796875 67.484375 
C 58.40625 67.484375 54.296875 67.484375 52 67.6875 
L 52 65 
C 57 65 57.203125 61.5 57.203125 60.90625 
C 57.203125 59.796875 56.90625 59.109375 56.59375 58.3125 
L 36.90625 6.96875 
L 16.296875 60.71875 
C 16 61.421875 15.796875 61.921875 15.796875 62.40625 
C 15.796875 65 19.796875 65 21.90625 65 
L 21.90625 67.484375 
C 18.703125 67.484375 14 67.484375 10.703125 67.484375 
C 8.09375 67.484375 3.40625 67.484375 1 67.6875 
L 1 65 
C 6.796875 65 7.90625 64.609375 9.09375 61.421875 
L 32.90625 -0.40625 
C 33.40625 -1.796875 33.5 -2 34.59375 -2 
C 35.703125 -2 35.796875 -1.796875 36.296875 -0.40625 
z
" id="CMR17-86"/>
       <path d="M 29.203125 67.59375 
L 29.203125 65 
C 35.09375 65 36 64.40625 36 59.6875 
L 36 36.640625 
C 35.59375 37.140625 31.5 43.59375 23.40625 43.59375 
C 13.203125 43.59375 3.296875 34.5 3.296875 21.3125 
C 3.296875 8.203125 12.59375 -1 22.40625 -1 
C 30.90625 -1 35.296875 5.265625 35.796875 5.9375 
L 35.796875 -0.984375 
L 47.90625 -0.984375 
L 47.90625 2 
C 42 2 41.09375 2.59375 41.09375 7.390625 
L 41.09375 68.6875 
z
M 35.796875 11.796875 
C 35.796875 8.796875 34 6.09375 31.703125 4.09375 
C 28.296875 1.09375 24.90625 0.59375 23 0.59375 
C 20.09375 0.59375 9.703125 2.09375 9.703125 21.1875 
C 9.703125 40.8125 21.296875 42 23.90625 42 
C 28.5 42 32.203125 39.40625 34.5 35.796875 
C 35.796875 33.703125 35.796875 33.40625 35.796875 31.609375 
z
" id="CMR17-100"/>
       <path d="M 15.09375 40 
L 29.09375 40 
L 29.09375 42.578125 
L 15.09375 42.578125 
L 15.09375 61 
L 13.296875 61 
C 13.09375 50.703125 9.59375 41.6875 1.09375 41.6875 
L 1.09375 40 
L 9.796875 40 
L 9.796875 12.046875 
C 9.796875 10.15625 9.796875 -1 21.40625 -1 
C 27.296875 -1 30.703125 4.78125 30.703125 12.140625 
L 30.703125 17.8125 
L 28.90625 17.8125 
L 28.90625 12.234375 
C 28.90625 5.375 26.203125 0.796875 22 0.796875 
C 19.09375 0.796875 15.09375 2.78125 15.09375 11.84375 
z
" id="CMR17-116"/>
      </defs>
      <use transform="scale(0.996264)" xlink:href="#CMR17-86"/>
      <use transform="translate(61.265174 0)scale(0.996264)" xlink:href="#CMR17-97"/>
      <use transform="translate(106.955652 0)scale(0.996264)" xlink:href="#CMR17-108"/>
      <use transform="translate(131.82671 0)scale(0.996264)" xlink:href="#CMR17-105"/>
      <use transform="translate(156.697768 0)scale(0.996264)" xlink:href="#CMR17-100"/>
      <use transform="translate(207.593138 0)scale(0.996264)" xlink:href="#CMR17-97"/>
      <use transform="translate(253.283615 0)scale(0.996264)" xlink:href="#CMR17-116"/>
      <use transform="translate(288.564383 0)scale(0.996264)" xlink:href="#CMR17-105"/>
      <use transform="translate(313.435442 0)scale(0.996264)" xlink:href="#CMR17-111"/>
      <use transform="translate(359.125919 0)scale(0.996264)" xlink:href="#CMR17-110"/>
      <use transform="translate(440.097255 0)scale(0.996264)" xlink:href="#CMR17-108"/>
      <use transform="translate(464.968313 0)scale(0.996264)" xlink:href="#CMR17-111"/>
      <use transform="translate(510.658791 0)scale(0.996264)" xlink:href="#CMR17-115"/>
      <use transform="translate(546.460128 0)scale(0.996264)" xlink:href="#CMR17-115"/>
     </g>
    </g>
   </g>
  </g>
 </g>
 <defs>
  <clipPath id="p8948d1ccd1">
   <rect height="255.974739" width="368.405307" x="68.588821" y="21.6"/>
  </clipPath>
 </defs>
</svg>
