<?xml version="1.0" encoding="utf-8" standalone="no"?>
<!DOCTYPE svg PUBLIC "-//W3C//DTD SVG 1.1//EN"
  "http://www.w3.org/Graphics/SVG/1.1/DTD/svg11.dtd">
<!-- Created with matplotlib (https://matplotlib.org/) -->
<svg height="345.6pt" version="1.1" viewBox="0 0 460.8 345.6" width="460.8pt" xmlns="http://www.w3.org/2000/svg" xmlns:xlink="http://www.w3.org/1999/xlink">
 <metadata>
  <rdf:RDF xmlns:cc="http://creativecommons.org/ns#" xmlns:dc="http://purl.org/dc/elements/1.1/" xmlns:rdf="http://www.w3.org/1999/02/22-rdf-syntax-ns#">
   <cc:Work>
    <dc:type rdf:resource="http://purl.org/dc/dcmitype/StillImage"/>
    <dc:date>2022-10-28T16:28:15.246596</dc:date>
    <dc:format>image/svg+xml</dc:format>
    <dc:creator>
     <cc:Agent>
      <dc:title>Matplotlib v3.3.4, https://matplotlib.org/</dc:title>
     </cc:Agent>
    </dc:creator>
   </cc:Work>
  </rdf:RDF>
 </metadata>
 <defs>
  <style type="text/css">*{stroke-linecap:butt;stroke-linejoin:round;}</style>
 </defs>
 <g id="figure_1">
  <g id="patch_1">
   <path d="M 0 345.6 
L 460.8 345.6 
L 460.8 0 
L 0 0 
z
" style="fill:#ffffff;"/>
  </g>
  <g id="axes_1">
   <g id="patch_2">
    <path d="M 68.588821 277.574739 
L 436.994128 277.574739 
L 436.994128 21.6 
L 68.588821 21.6 
z
" style="fill:#ffffff;"/>
   </g>
   <g id="matplotlib.axis_1">
    <g id="xtick_1">
     <g id="line2d_1">
      <defs>
       <path d="M 0 0 
L 0 3.5 
" id="mc25f17e5bb" style="stroke:#000000;stroke-width:0.8;"/>
      </defs>
      <g>
       <use style="stroke:#000000;stroke-width:0.8;" x="85.334517" xlink:href="#mc25f17e5bb" y="277.574739"/>
      </g>
     </g>
     <g id="text_1">
      <!-- $\mathdefault{0}$ -->
      <g transform="translate(80.765469 298.411736)scale(0.2 -0.2)">
       <defs>
        <path d="M 42 31.640625 
C 42 37.75 41.90625 48.125 37.703125 56.109375 
C 34 63.109375 28.09375 65.59375 22.90625 65.59375 
C 18.09375 65.59375 12 63.40625 8.203125 56.203125 
C 4.203125 48.71875 3.796875 39.4375 3.796875 31.640625 
C 3.796875 25.953125 3.90625 17.28125 7 9.671875 
C 11.296875 -0.609375 19 -2 22.90625 -2 
C 27.5 -2 34.5 -0.109375 38.59375 9.375 
C 41.59375 16.28125 42 24.359375 42 31.640625 
z
M 22.90625 -0.40625 
C 16.5 -0.40625 12.703125 5.078125 11.296875 12.6875 
C 10.203125 18.5625 10.203125 27.15625 10.203125 32.75 
C 10.203125 40.4375 10.203125 46.828125 11.5 52.921875 
C 13.40625 61.390625 19 64 22.90625 64 
C 27 64 32.296875 61.296875 34.203125 53.125 
C 35.5 47.4375 35.59375 40.734375 35.59375 32.75 
C 35.59375 26.25 35.59375 18.265625 34.40625 12.375 
C 32.296875 1.484375 26.40625 -0.40625 22.90625 -0.40625 
z
" id="CMR17-48"/>
       </defs>
       <use transform="scale(0.996264)" xlink:href="#CMR17-48"/>
      </g>
     </g>
    </g>
    <g id="xtick_2">
     <g id="line2d_2">
      <g>
       <use style="stroke:#000000;stroke-width:0.8;" x="169.104881" xlink:href="#mc25f17e5bb" y="277.574739"/>
      </g>
     </g>
     <g id="text_2">
      <!-- $\mathdefault{500}$ -->
      <g transform="translate(155.397738 298.411736)scale(0.2 -0.2)">
       <defs>
        <path d="M 11.40625 57.6875 
C 12.40625 57.28125 16.5 56 20.703125 56 
C 30 56 35.09375 61.109375 38 64.0625 
C 38 64.953125 38 65.5 37.40625 65.5 
C 37.296875 65.5 37.09375 65.5 36.296875 65.046875 
C 32.796875 63.40625 28.703125 62.078125 23.703125 62.078125 
C 20.703125 62.078125 16.203125 62.484375 11.296875 64.671875 
C 10.203125 65.171875 10 65.171875 9.90625 65.171875 
C 9.40625 65.171875 9.296875 65.0625 9.296875 63.078125 
L 9.296875 34.421875 
C 9.296875 32.640625 9.296875 32.140625 10.296875 32.140625 
C 10.796875 32.140625 11 32.34375 11.5 33.03125 
C 14.703125 37.515625 19.09375 39.40625 24.09375 39.40625 
C 27.59375 39.40625 35.09375 37.21875 35.09375 20.140625 
C 35.09375 16.953125 35.09375 11.171875 32.09375 6.578125 
C 29.59375 2.484375 25.703125 0.390625 21.40625 0.390625 
C 14.796875 0.390625 8.09375 5 6.296875 12.71875 
C 6.703125 12.609375 7.5 12.421875 7.90625 12.421875 
C 9.203125 12.421875 11.703125 13.125 11.703125 16.21875 
C 11.703125 18.90625 9.796875 20 7.90625 20 
C 5.59375 20 4.09375 18.59375 4.09375 15.796875 
C 4.09375 7.09375 11 -2 21.59375 -2 
C 31.90625 -2 41.703125 6.875 41.703125 19.75 
C 41.703125 31.71875 33.90625 41 24.203125 41 
C 19.09375 41 14.796875 39.109375 11.40625 35.53125 
z
" id="CMR17-53"/>
       </defs>
       <use transform="scale(0.996264)" xlink:href="#CMR17-53"/>
       <use transform="translate(45.690477 0)scale(0.996264)" xlink:href="#CMR17-48"/>
       <use transform="translate(91.380954 0)scale(0.996264)" xlink:href="#CMR17-48"/>
      </g>
     </g>
    </g>
    <g id="xtick_3">
     <g id="line2d_3">
      <g>
       <use style="stroke:#000000;stroke-width:0.8;" x="252.875245" xlink:href="#mc25f17e5bb" y="277.574739"/>
      </g>
     </g>
     <g id="text_3">
      <!-- $\mathdefault{1000}$ -->
      <g transform="translate(234.599054 298.411736)scale(0.2 -0.2)">
       <defs>
        <path d="M 26.59375 63.40625 
C 26.59375 65.5 26.5 65.5 25.09375 65.5 
C 21.203125 61.1875 15.296875 59.796875 9.703125 59.796875 
C 9.40625 59.796875 8.90625 59.796875 8.796875 59.5 
C 8.703125 59.296875 8.703125 59.09375 8.703125 57 
C 11.796875 57 17 57.59375 21 59.984375 
L 21 7.203125 
C 21 3.6875 20.796875 2.5 12.203125 2.5 
L 9.203125 2.5 
L 9.203125 0 
C 14 0 19 0 23.796875 0 
C 28.59375 0 33.59375 0 38.40625 0 
L 38.40625 2.5 
L 35.40625 2.5 
C 26.796875 2.5 26.59375 3.59375 26.59375 7.15625 
z
" id="CMR17-49"/>
       </defs>
       <use transform="scale(0.996264)" xlink:href="#CMR17-49"/>
       <use transform="translate(45.690477 0)scale(0.996264)" xlink:href="#CMR17-48"/>
       <use transform="translate(91.380954 0)scale(0.996264)" xlink:href="#CMR17-48"/>
       <use transform="translate(137.071431 0)scale(0.996264)" xlink:href="#CMR17-48"/>
      </g>
     </g>
    </g>
    <g id="xtick_4">
     <g id="line2d_4">
      <g>
       <use style="stroke:#000000;stroke-width:0.8;" x="336.645609" xlink:href="#mc25f17e5bb" y="277.574739"/>
      </g>
     </g>
     <g id="text_4">
      <!-- $\mathdefault{1500}$ -->
      <g transform="translate(318.369418 298.411736)scale(0.2 -0.2)">
       <use transform="scale(0.996264)" xlink:href="#CMR17-49"/>
       <use transform="translate(45.690477 0)scale(0.996264)" xlink:href="#CMR17-53"/>
       <use transform="translate(91.380954 0)scale(0.996264)" xlink:href="#CMR17-48"/>
       <use transform="translate(137.071431 0)scale(0.996264)" xlink:href="#CMR17-48"/>
      </g>
     </g>
    </g>
    <g id="xtick_5">
     <g id="line2d_5">
      <g>
       <use style="stroke:#000000;stroke-width:0.8;" x="420.415973" xlink:href="#mc25f17e5bb" y="277.574739"/>
      </g>
     </g>
     <g id="text_5">
      <!-- $\mathdefault{2000}$ -->
      <g transform="translate(402.139782 298.411736)scale(0.2 -0.2)">
       <defs>
        <path d="M 41.703125 15.453125 
L 39.90625 15.453125 
C 38.90625 8.375 38.09375 7.171875 37.703125 6.5625 
C 37.203125 5.765625 30 5.765625 28.59375 5.765625 
L 9.40625 5.765625 
C 13 9.671875 20 16.75 28.5 24.953125 
C 34.59375 30.734375 41.703125 37.53125 41.703125 47.421875 
C 41.703125 59.21875 32.296875 66 21.796875 66 
C 10.796875 66 4.09375 56.3125 4.09375 47.34375 
C 4.09375 43.4375 7 42.9375 8.203125 42.9375 
C 9.203125 42.9375 12.203125 43.546875 12.203125 47.03125 
C 12.203125 50.109375 9.59375 51 8.203125 51 
C 7.59375 51 7 50.90625 6.59375 50.703125 
C 8.5 59.21875 14.296875 63.40625 20.40625 63.40625 
C 29.09375 63.40625 34.796875 56.515625 34.796875 47.421875 
C 34.796875 38.734375 29.703125 31.25 24 24.75 
L 4.09375 2.28125 
L 4.09375 0 
L 39.296875 0 
z
" id="CMR17-50"/>
       </defs>
       <use transform="scale(0.996264)" xlink:href="#CMR17-50"/>
       <use transform="translate(45.690477 0)scale(0.996264)" xlink:href="#CMR17-48"/>
       <use transform="translate(91.380954 0)scale(0.996264)" xlink:href="#CMR17-48"/>
       <use transform="translate(137.071431 0)scale(0.996264)" xlink:href="#CMR17-48"/>
      </g>
     </g>
    </g>
    <g id="text_6">
     <!-- Epoch -->
     <g transform="translate(227.475939 320.124366)scale(0.2 -0.2)">
      <defs>
       <path d="M 60.703125 25.234375 
L 58.90625 25.234375 
C 56.703125 10.5625 55.40625 2.59375 37.796875 2.59375 
L 23.90625 2.59375 
C 19.90625 2.59375 19.703125 3.078125 19.703125 6.46875 
L 19.703125 34 
L 29.09375 34 
C 38.5 34 39.40625 30.625 39.40625 22.34375 
L 41.203125 22.34375 
L 41.203125 48.140625 
L 39.40625 48.140625 
C 39.40625 39.953125 38.5 36.59375 29.09375 36.59375 
L 19.703125 36.59375 
L 19.703125 61.140625 
C 19.703125 64.5 19.90625 65 23.90625 65 
L 37.59375 65 
C 53.09375 65 54.90625 58.890625 56.296875 45.765625 
L 58.09375 45.765625 
L 55.703125 67.578125 
L 5.09375 67.578125 
L 5.09375 65 
C 12 65 13.09375 65 13.09375 60.53125 
L 13.09375 7.046875 
C 13.09375 2.59375 12 2.59375 5.09375 2.59375 
L 5.09375 0 
L 57.09375 0 
z
" id="CMR17-69"/>
       <path d="M 22 -16.609375 
C 15.59375 -16.609375 15.203125 -16.203125 15.203125 -12.328125 
L 15.203125 6.28125 
C 18.09375 2.09375 22.296875 -0.59375 27.59375 -0.59375 
C 37.59375 -0.59375 47.703125 8.171875 47.703125 21.6875 
C 47.703125 34.234375 39 43.78125 28.703125 43.78125 
C 22.703125 43.78125 17.796875 40.5 15 36.53125 
L 15 43.78125 
L 3.09375 42.6875 
L 3.09375 40.109375 
C 9 40.109375 9.90625 39.5 9.90625 34.734375 
L 9.90625 -12.328125 
C 9.90625 -16.109375 9.5 -16.609375 3.09375 -16.609375 
L 3.09375 -19.1875 
C 5.5 -19 9.90625 -19 12.5 -19 
C 15.09375 -19 19.59375 -19 22 -19.1875 
z
M 15.203125 31.4375 
C 15.203125 32.84375 15.203125 34.921875 19.09375 38.609375 
C 19.59375 39.015625 23 42 28 42 
C 35.296875 42 41.296875 32.9375 41.296875 21.59375 
C 41.296875 10.25 34.90625 1 27 1 
C 23.40625 1 19.5 2.6875 16.5 7.375 
C 15.203125 9.5625 15.203125 10.15625 15.203125 11.75 
z
" id="CMR17-112"/>
       <path d="M 43.09375 21.1875 
C 43.09375 34 33.796875 44 22.90625 44 
C 12 44 2.703125 34 2.703125 21.1875 
C 2.703125 8.609375 12 -1 22.90625 -1 
C 33.796875 -1 43.09375 8.609375 43.09375 21.1875 
z
M 22.90625 0.796875 
C 18.203125 0.796875 14.203125 3.59375 11.90625 7.5 
C 9.40625 11.984375 9.09375 17.59375 9.09375 22 
C 9.09375 26.203125 9.296875 31.40625 11.90625 35.90625 
C 13.90625 39.203125 17.796875 42.40625 22.90625 42.40625 
C 27.40625 42.40625 31.203125 39.90625 33.59375 36.40625 
C 36.703125 31.703125 36.703125 25.109375 36.703125 22 
C 36.703125 18.09375 36.5 12.109375 33.796875 7.296875 
C 31 2.703125 26.703125 0.796875 22.90625 0.796875 
z
" id="CMR17-111"/>
       <path d="M 34.90625 35 
C 33 35 30.203125 35 30.203125 31.515625 
C 30.203125 28.71875 32.5 27.921875 33.796875 27.921875 
C 34.5 27.921875 37.40625 28.234375 37.40625 31.625 
C 37.40625 38.546875 30.59375 43.796875 22.90625 43.796875 
C 12.296875 43.796875 3.296875 34.03125 3.296875 21.296875 
C 3.296875 8.0625 12.703125 -1 22.90625 -1 
C 35.296875 -1 38.40625 10.578125 38.40625 11.6875 
C 38.40625 12.09375 38.296875 12.390625 37.59375 12.390625 
C 36.90625 12.390625 36.796875 12.296875 36.40625 10.984375 
C 33.796875 2.8125 28.09375 0.796875 23.796875 0.796875 
C 17.40625 0.796875 9.703125 6.671875 9.703125 21.390625 
C 9.703125 36.53125 17.09375 42 23 42 
C 26.90625 42 32.703125 40.203125 34.90625 35 
z
" id="CMR17-99"/>
       <path d="M 41.5 30.203125 
C 41.5 35.296875 40.5 43.59375 28.703125 43.59375 
C 20.5 43.59375 16.5 37 15.296875 33.703125 
L 15.203125 33.703125 
L 15.203125 68.6875 
L 3.296875 67.59375 
L 3.296875 65 
C 9.203125 65 10.09375 64.40625 10.09375 59.640625 
L 10.09375 6.65625 
C 10.09375 2.875 9.703125 2.390625 3.296875 2.390625 
L 3.296875 -0.203125 
C 5.703125 0 10.09375 0 12.703125 0 
C 15.296875 0 19.796875 0 22.203125 -0.203125 
L 22.203125 2.390625 
C 15.796875 2.390625 15.40625 2.78125 15.40625 6.6875 
L 15.40625 25.90625 
C 15.40625 35.109375 21 42 28 42 
C 35.40625 42 36.203125 35.40625 36.203125 30.59375 
L 36.203125 6.6875 
C 36.203125 2.875 35.796875 2.390625 29.40625 2.390625 
L 29.40625 -0.203125 
C 31.796875 0 36.203125 0 38.796875 0 
C 41.40625 0 45.90625 0 48.296875 -0.203125 
L 48.296875 2.390625 
C 41.90625 2.390625 41.5 2.78125 41.5 6.6875 
z
" id="CMR17-104"/>
      </defs>
      <use transform="scale(0.996264)" xlink:href="#CMR17-69"/>
      <use transform="translate(62.586301 0)scale(0.996264)" xlink:href="#CMR17-112"/>
      <use transform="translate(116.084109 0)scale(0.996264)" xlink:href="#CMR17-111"/>
      <use transform="translate(164.377025 0)scale(0.996264)" xlink:href="#CMR17-99"/>
      <use transform="translate(202.260231 0)scale(0.996264)" xlink:href="#CMR17-104"/>
     </g>
    </g>
   </g>
   <g id="matplotlib.axis_2">
    <g id="ytick_1">
     <g id="line2d_6">
      <defs>
       <path d="M 0 0 
L -3.5 0 
" id="m8bb068fd61" style="stroke:#000000;stroke-width:0.8;"/>
      </defs>
      <g>
       <use style="stroke:#000000;stroke-width:0.8;" x="68.588821" xlink:href="#m8bb068fd61" y="267.026081"/>
      </g>
     </g>
     <g id="text_7">
      <!-- $\mathdefault{0}$ -->
      <g transform="translate(52.450726 273.94458)scale(0.2 -0.2)">
       <use transform="scale(0.996264)" xlink:href="#CMR17-48"/>
      </g>
     </g>
    </g>
    <g id="ytick_2">
     <g id="line2d_7">
      <g>
       <use style="stroke:#000000;stroke-width:0.8;" x="68.588821" xlink:href="#m8bb068fd61" y="191.712345"/>
      </g>
     </g>
     <g id="text_8">
      <!-- $\mathdefault{10}$ -->
      <g transform="translate(43.31263 198.630844)scale(0.2 -0.2)">
       <use transform="scale(0.996264)" xlink:href="#CMR17-49"/>
       <use transform="translate(45.690477 0)scale(0.996264)" xlink:href="#CMR17-48"/>
      </g>
     </g>
    </g>
    <g id="ytick_3">
     <g id="line2d_8">
      <g>
       <use style="stroke:#000000;stroke-width:0.8;" x="68.588821" xlink:href="#m8bb068fd61" y="116.398609"/>
      </g>
     </g>
     <g id="text_9">
      <!-- $\mathdefault{20}$ -->
      <g transform="translate(43.31263 123.317108)scale(0.2 -0.2)">
       <use transform="scale(0.996264)" xlink:href="#CMR17-50"/>
       <use transform="translate(45.690477 0)scale(0.996264)" xlink:href="#CMR17-48"/>
      </g>
     </g>
    </g>
    <g id="ytick_4">
     <g id="line2d_9">
      <g>
       <use style="stroke:#000000;stroke-width:0.8;" x="68.588821" xlink:href="#m8bb068fd61" y="41.084873"/>
      </g>
     </g>
     <g id="text_10">
      <!-- $\mathdefault{30}$ -->
      <g transform="translate(43.31263 48.003372)scale(0.2 -0.2)">
       <defs>
        <path d="M 22.09375 33.703125 
C 31 33.703125 34.90625 25.96875 34.90625 17.03125 
C 34.90625 5 28.5 0.390625 22.703125 0.390625 
C 17.40625 0.390625 8.796875 3.03125 6.09375 10.828125 
C 6.59375 10.625 7.09375 10.625 7.59375 10.625 
C 10 10.625 11.796875 12.21875 11.796875 14.8125 
C 11.796875 17.703125 9.59375 19 7.59375 19 
C 5.90625 19 3.296875 18.203125 3.296875 14.46875 
C 3.296875 5.234375 12.296875 -2 22.90625 -2 
C 34 -2 42.5 6.71875 42.5 16.953125 
C 42.5 26.671875 34.5 33.703125 25 34.796875 
C 32.59375 36.375 39.90625 43.0625 39.90625 52.015625 
C 39.90625 59.6875 32 65.296875 23 65.296875 
C 13.90625 65.296875 5.90625 59.828125 5.90625 52.015625 
C 5.90625 48.59375 8.5 48 9.796875 48 
C 11.90625 48 13.703125 49.296875 13.703125 51.890625 
C 13.703125 54.46875 11.90625 55.765625 9.796875 55.765625 
C 9.40625 55.765625 8.90625 55.765625 8.5 55.578125 
C 11.40625 61.859375 19.296875 63 22.796875 63 
C 26.296875 63 32.90625 61.328125 32.90625 51.875 
C 32.90625 49.109375 32.5 44.1875 29.09375 39.84375 
C 26.09375 36 22.703125 36 19.40625 35.6875 
C 18.90625 35.6875 16.59375 35.453125 16.203125 35.453125 
C 15.5 35.359375 15.09375 35.265625 15.09375 34.5 
C 15.09375 33.796875 15.203125 33.703125 17.203125 33.703125 
z
" id="CMR17-51"/>
       </defs>
       <use transform="scale(0.996264)" xlink:href="#CMR17-51"/>
       <use transform="translate(45.690477 0)scale(0.996264)" xlink:href="#CMR17-48"/>
      </g>
     </g>
    </g>
    <g id="text_11">
     <!-- MSE Loss -->
     <g transform="translate(35.436997 189.879276)rotate(-90)scale(0.2 -0.2)">
      <defs>
       <path d="M 20.90625 66 
C 20.296875 67.5 20.203125 67.5 18.09375 67.5 
L 5.296875 67.5 
L 5.296875 65 
C 12.203125 65 13.296875 65 13.296875 60.546875 
L 13.296875 9.53125 
C 13.296875 7.046875 13.296875 2.390625 5.296875 2.390625 
L 5.296875 -0.203125 
C 7.59375 0 11.796875 0 14.296875 0 
C 16.796875 0 21 0 23.296875 -0.203125 
L 23.296875 2.390625 
C 15.296875 2.390625 15.296875 7.046875 15.296875 9.53125 
L 15.296875 64.609375 
L 15.40625 64.609375 
L 38.90625 1.390625 
C 39.296875 0.390625 39.5 -0.203125 40.296875 -0.203125 
C 41.09375 -0.203125 41.296875 0.390625 41.703125 1.390625 
L 65.40625 65.09375 
L 65.5 65.09375 
L 65.5 6.84375 
C 65.5 2.390625 64.40625 2.390625 57.5 2.390625 
L 57.5 -0.203125 
C 60.203125 0 65.59375 0 68.5 0 
C 71.40625 0 76.90625 0 79.59375 -0.203125 
L 79.59375 2.390625 
C 72.703125 2.390625 71.59375 2.390625 71.59375 6.84375 
L 71.59375 60.546875 
C 71.59375 65 72.703125 65 79.59375 65 
L 79.59375 67.5 
L 66.90625 67.5 
C 64.796875 67.5 64.703125 67.40625 64.09375 65.90625 
L 42.5 7.84375 
z
" id="CMR17-77"/>
       <path d="M 43.796875 67.03125 
C 43.796875 68.8125 43.703125 68.921875 43.09375 68.921875 
C 42.5 68.921875 42.296875 68.515625 41.90625 67.625 
L 38.90625 61.046875 
C 35.09375 66.515625 29.296875 69 23 69 
C 12.796875 69 4.59375 60.953125 4.59375 50.828125 
C 4.59375 47.75 5.296875 43.375 8.703125 39.21875 
C 12.40625 34.65625 15.90625 33.859375 23.90625 31.765625 
C 26.90625 30.96875 31.90625 29.671875 32.90625 29.28125 
C 38.59375 26.90625 41.59375 20.953125 41.59375 15.390625 
C 41.59375 8.234375 36.5 0.59375 27.796875 0.59375 
C 17.09375 0.59375 7.09375 6.546875 6.40625 20.484375 
C 6.296875 22.078125 6.203125 22.171875 5.5 22.171875 
C 4.703125 22.171875 4.59375 22.078125 4.59375 20.078125 
L 4.59375 -0.015625 
C 4.59375 -1.796875 4.703125 -1.90625 5.296875 -1.90625 
C 6 -1.90625 6.203125 -1.40625 7.59375 1.6875 
C 7.703125 1.984375 7.703125 2.1875 9.59375 5.953125 
C 14.59375 -0.609375 23 -2 27.796875 -2 
C 38.703125 -2 46.40625 7.046875 46.40625 17.5625 
C 46.40625 22.71875 44.5 26.6875 43.40625 28.484375 
C 39.203125 34.84375 34.703125 36.03125 29.90625 37.21875 
C 29.203125 37.53125 29 37.53125 23.40625 38.90625 
C 18 40.296875 15.703125 41 13.203125 43.6875 
C 10.40625 46.75 9.40625 49.9375 9.40625 53.109375 
C 9.40625 59.5625 14.59375 66.609375 23.09375 66.609375 
C 33.703125 66.609375 40.296875 59.15625 41.796875 46.765625 
C 42.09375 44.96875 42.203125 44.875 42.90625 44.875 
C 43.796875 44.875 43.796875 45.171875 43.796875 46.859375 
z
" id="CMR17-83"/>
       <path d="M 54.203125 25.234375 
L 52.40625 25.234375 
C 51.59375 15.359375 50.296875 2.59375 33.203125 2.59375 
L 23.90625 2.59375 
C 19.90625 2.59375 19.703125 3.078125 19.703125 6.46875 
L 19.703125 60.90625 
C 19.703125 64.515625 19.90625 65.5 27.5 65.5 
L 29.703125 65.5 
L 29.703125 68 
C 25.59375 68 20.796875 68 16.703125 68 
C 13.59375 68 8 68 5.09375 68 
L 5.09375 65.5 
C 12 65.5 13.09375 65.5 13.09375 61.015625 
L 13.09375 7.0625 
C 13.09375 2.59375 12 2.59375 5.09375 2.59375 
L 5.09375 0 
L 51.796875 0 
z
" id="CMR17-76"/>
       <path d="M 30.90625 42.140625 
C 30.90625 43.953125 30.796875 44.046875 30.203125 44.046875 
C 29.796875 44.046875 29.703125 43.953125 28.5 42.453125 
C 28.203125 42.046875 27.296875 41.03125 27 40.640625 
C 23.796875 44.046875 19.296875 44.046875 17.59375 44.046875 
C 6.5 44.046875 2.5 38.234375 2.5 32.4375 
C 2.5 23.40625 12.703125 21.328125 15.59375 20.703125 
C 21.90625 19.421875 24.09375 19.015625 26.203125 17.203125 
C 27.5 16.015625 29.703125 13.8125 29.703125 10.21875 
C 29.703125 6 27.296875 0.59375 18.09375 0.59375 
C 9.40625 0.59375 6.296875 7.1875 4.5 15.953125 
C 4.203125 17.34375 4.203125 17.453125 3.40625 17.453125 
C 2.59375 17.453125 2.5 17.34375 2.5 15.359375 
L 2.5 0.984375 
C 2.5 -0.796875 2.59375 -0.90625 3.203125 -0.90625 
C 3.703125 -0.90625 3.796875 -0.796875 4.296875 0 
C 4.90625 0.890625 6.40625 3.296875 7 4.3125 
C 9 1.609375 12.5 -1 18.09375 -1 
C 28 -1 33.296875 4.421875 33.296875 12.25 
C 33.296875 17.375 30.59375 20.078125 29.296875 21.28125 
C 26.296875 24.390625 22.796875 25.09375 18.59375 25.890625 
C 13.09375 27.109375 6.09375 28.515625 6.09375 34.640625 
C 6.09375 37.234375 7.5 42.765625 17.59375 42.765625 
C 28.296875 42.765625 28.90625 32.71875 29.09375 29.5 
C 29.203125 29 29.703125 28.890625 30 28.890625 
C 30.90625 28.890625 30.90625 29.203125 30.90625 30.90625 
z
" id="CMR17-115"/>
      </defs>
      <use transform="scale(0.996264)" xlink:href="#CMR17-77"/>
      <use transform="translate(84.686941 0)scale(0.996264)" xlink:href="#CMR17-83"/>
      <use transform="translate(135.58231 0)scale(0.996264)" xlink:href="#CMR17-69"/>
      <use transform="translate(228.244577 0)scale(0.996264)" xlink:href="#CMR17-76"/>
      <use transform="translate(285.625985 0)scale(0.996264)" xlink:href="#CMR17-111"/>
      <use transform="translate(331.316462 0)scale(0.996264)" xlink:href="#CMR17-115"/>
      <use transform="translate(367.1178 0)scale(0.996264)" xlink:href="#CMR17-115"/>
     </g>
    </g>
   </g>
   <g id="line2d_10">
    <path clip-path="url(#p107456c29a)" d="M 85.334517 33.235215 
L 85.669598 206.355751 
L 85.837139 208.997811 
L 86.00468 204.475931 
L 86.507302 230.551833 
L 86.674843 231.011875 
L 86.842384 230.887453 
L 87.009924 232.437773 
L 87.512546 240.833929 
L 87.847628 244.594893 
L 88.182709 247.979557 
L 88.517791 249.700507 
L 89.020413 253.978795 
L 89.187954 254.310211 
L 89.690576 256.351929 
L 90.025657 257.830468 
L 90.360739 258.291628 
L 90.69582 259.553097 
L 91.365983 260.735416 
L 91.701065 261.221948 
L 92.371228 261.859996 
L 92.87385 262.326928 
L 94.884338 263.440485 
L 96.392205 263.828618 
L 98.067612 264.117609 
L 102.256131 264.557947 
L 104.601701 264.669358 
L 107.114812 264.751917 
L 109.1253 264.718118 
L 109.460382 264.861781 
L 109.963004 264.772485 
L 110.465626 264.875322 
L 110.968248 264.848035 
L 111.470871 264.895187 
L 112.141033 264.898443 
L 112.811196 264.9065 
L 113.6489 264.908657 
L 114.821685 264.958537 
L 115.324307 264.836673 
L 115.659389 264.659599 
L 115.826929 264.646195 
L 116.162011 264.965847 
L 116.329552 264.980522 
L 116.664633 264.803353 
L 117.334796 264.968402 
L 117.669877 264.899843 
L 118.34004 264.991861 
L 118.842663 264.978521 
L 119.345285 265.03541 
L 120.350529 265.004866 
L 121.188233 265.052672 
L 121.690855 264.918552 
L 122.193477 264.797307 
L 122.86364 265.019807 
L 123.198721 264.878715 
L 124.036425 265.036858 
L 124.539047 265.014299 
L 125.20921 265.086905 
L 126.046914 264.980622 
L 126.884618 265.090269 
L 127.722321 264.934407 
L 128.560025 265.102722 
L 129.230188 265.03519 
L 130.067891 265.139326 
L 130.570514 265.007536 
L 131.073136 264.752517 
L 131.408217 264.968603 
L 131.743299 265.142278 
L 132.245921 264.954536 
L 132.748543 265.16384 
L 133.586247 265.063014 
L 134.088869 265.168492 
L 134.759032 265.074874 
L 135.596735 265.159445 
L 136.434439 265.010364 
L 137.104602 265.19578 
L 138.277387 265.126936 
L 138.780009 265.196685 
L 139.952794 265.008658 
L 140.455416 265.214103 
L 141.628202 265.155538 
L 142.465905 265.22491 
L 142.968527 265.126125 
L 143.303609 264.868572 
L 143.47115 264.62514 
L 143.63869 264.595159 
L 143.806231 264.690266 
L 144.141312 265.218915 
L 144.476394 264.90193 
L 144.643935 264.93248 
L 144.979016 265.229296 
L 145.314098 265.007874 
L 146.151801 265.09899 
L 146.486883 265.193781 
L 146.821964 265.236412 
L 147.324586 265.169485 
L 147.994749 265.245786 
L 148.664912 265.220723 
L 149.502616 265.258767 
L 150.172779 265.107559 
L 150.675401 264.977075 
L 151.010482 265.137 
L 151.345564 265.276056 
L 152.183267 265.138871 
L 152.85343 265.282027 
L 154.193756 265.200604 
L 154.863919 265.300786 
L 155.534082 265.222401 
L 156.539326 264.970311 
L 156.874408 265.157757 
L 157.209489 265.304934 
L 158.047193 265.160483 
L 158.549815 265.312245 
L 159.219978 265.224106 
L 161.062926 265.277404 
L 161.398007 265.120323 
L 161.90063 264.608884 
L 162.06817 264.723326 
L 162.403252 265.267285 
L 162.570793 265.273144 
L 162.905874 264.983983 
L 163.408496 265.313256 
L 163.743578 265.121687 
L 164.581281 265.204848 
L 164.916363 265.283957 
L 165.251444 265.335808 
L 165.921607 265.259577 
L 166.424229 265.339735 
L 167.261933 265.338935 
L 168.434718 265.344593 
L 168.93734 265.188539 
L 169.439962 264.886854 
L 169.607503 264.916563 
L 169.942585 265.313084 
L 170.110125 265.353618 
L 170.612748 265.14473 
L 171.11537 265.363193 
L 171.617992 265.179151 
L 172.455696 265.32868 
L 172.958318 265.283184 
L 174.131103 265.347308 
L 175.638969 265.289487 
L 176.309132 265.387265 
L 176.979295 265.193514 
L 177.314377 265.113206 
L 177.649458 265.245076 
L 178.15208 265.390098 
L 179.157325 265.264135 
L 179.995028 265.395354 
L 180.665191 265.173922 
L 181.000273 265.074107 
L 181.167813 265.096719 
L 181.670436 265.404103 
L 182.340598 265.241635 
L 183.010761 265.403392 
L 184.016006 265.264098 
L 184.518628 265.422003 
L 186.194035 265.338898 
L 186.529117 265.425767 
L 187.869442 265.328316 
L 188.372065 265.419757 
L 189.377309 265.272327 
L 190.717635 265.352922 
L 191.722879 265.22668 
L 192.393042 265.433339 
L 193.398287 265.285299 
L 194.23599 265.433854 
L 195.073694 265.257673 
L 195.576316 265.066055 
L 196.246479 265.428037 
L 196.749101 265.187254 
L 197.586805 265.409964 
L 198.089427 265.313999 
L 200.267456 265.29994 
L 200.770079 265.297729 
L 201.272701 265.456531 
L 201.942864 265.345539 
L 202.780567 265.207107 
L 203.283189 265.459551 
L 204.120893 265.363091 
L 204.958597 265.461882 
L 205.62876 265.29978 
L 206.298923 265.193791 
L 206.801545 265.460056 
L 207.471708 265.186956 
L 208.141871 265.455351 
L 208.812033 265.342078 
L 209.482196 265.460548 
L 210.487441 265.381589 
L 211.995307 265.448157 
L 212.49793 265.324036 
L 213.168092 265.038551 
L 213.503174 265.310276 
L 213.838255 265.452777 
L 214.173337 265.261643 
L 214.508418 265.348818 
L 214.8435 265.479103 
L 215.681203 265.325623 
L 216.183826 265.481341 
L 217.524151 265.447138 
L 218.026774 265.458923 
L 219.199559 265.40512 
L 220.539884 265.478401 
L 221.042507 265.319609 
L 221.545129 264.70894 
L 221.71267 264.798706 
L 222.047751 265.422033 
L 222.215292 265.3809 
L 222.382832 265.113653 
L 222.550373 265.094358 
L 222.885455 265.464504 
L 223.388077 265.246794 
L 223.723158 265.472397 
L 224.22578 265.344754 
L 224.560862 265.483127 
L 225.231025 265.365377 
L 225.733647 265.487215 
L 226.40381 265.439439 
L 227.241514 265.489544 
L 229.084462 265.451071 
L 230.92741 265.478055 
L 231.430032 265.311452 
L 231.932654 264.684722 
L 232.100195 264.846785 
L 232.435276 265.467086 
L 232.602817 265.352967 
L 232.770358 265.078526 
L 232.937898 265.152378 
L 233.27298 265.46322 
L 233.608061 265.243752 
L 234.278224 265.436475 
L 234.613306 265.399105 
L 235.115928 265.503358 
L 235.953631 265.460701 
L 236.623794 265.500723 
L 238.466742 265.51366 
L 239.136905 265.475113 
L 239.807068 265.173426 
L 239.974609 265.094894 
L 240.30969 265.340966 
L 240.477231 265.494332 
L 240.812313 265.326675 
L 240.979853 265.263077 
L 241.650016 265.461209 
L 241.985098 265.265148 
L 242.320179 265.385223 
L 242.655261 265.513099 
L 243.325423 265.357642 
L 243.828046 265.511408 
L 244.498209 265.445291 
L 245.168371 265.525731 
L 248.184105 265.441019 
L 248.686727 265.533447 
L 249.52443 265.372272 
L 250.027053 265.229561 
L 251.199838 265.41726 
L 251.70246 265.432859 
L 252.372623 265.53044 
L 253.210326 265.30381 
L 253.545408 265.294692 
L 254.215571 265.53991 
L 255.220815 265.469479 
L 256.22606 265.534246 
L 257.063763 265.394898 
L 257.398845 265.12833 
L 257.733926 264.778339 
L 257.901467 264.929694 
L 258.236548 265.507524 
L 258.73917 265.198039 
L 259.074252 265.510122 
L 259.409333 265.232382 
L 260.079496 265.478173 
L 260.414578 265.394718 
L 260.9172 265.53539 
L 261.419822 265.460259 
L 262.089985 265.537131 
L 262.927689 265.506333 
L 264.100474 265.547856 
L 265.105718 265.454837 
L 265.943422 265.298813 
L 266.613585 265.514703 
L 267.116207 265.375878 
L 268.121451 265.499958 
L 268.791614 265.468062 
L 269.629318 265.56669 
L 270.634562 265.368528 
L 271.137184 265.385539 
L 271.639806 265.564557 
L 272.142429 265.431094 
L 272.645051 265.361118 
L 272.980132 265.440501 
L 273.315214 265.562491 
L 273.817836 265.463672 
L 274.320458 265.398074 
L 275.325702 265.544315 
L 276.163406 265.51188 
L 277.503732 265.576395 
L 278.341436 265.515445 
L 278.676517 265.304792 
L 278.844058 265.092332 
L 279.179139 264.3514 
L 279.34668 264.157686 
L 279.681761 265.497914 
L 280.016843 264.897578 
L 280.351924 265.470559 
L 280.519465 265.147513 
L 280.687006 265.186685 
L 280.854547 265.504881 
L 281.189628 265.198658 
L 281.524709 265.531508 
L 281.859791 265.384474 
L 282.194872 265.521412 
L 282.529954 265.42666 
L 282.865035 265.538975 
L 283.200117 265.464538 
L 283.535198 265.563441 
L 284.03782 265.519144 
L 284.540443 265.543631 
L 286.21585 265.577352 
L 291.744694 265.528441 
L 292.079775 265.362568 
L 292.582397 264.684309 
L 292.749938 264.863046 
L 293.08502 265.558253 
L 293.420101 265.12445 
L 293.587642 265.22438 
L 293.755183 265.498042 
L 293.922723 265.514995 
L 294.257805 265.289204 
L 294.592886 265.581998 
L 295.095508 265.471221 
L 295.43059 265.588131 
L 295.933212 265.532997 
L 296.435834 265.579877 
L 296.938456 265.587779 
L 298.278782 265.60445 
L 300.959434 265.550405 
L 301.964678 265.373734 
L 302.132219 265.341382 
L 302.802382 265.591399 
L 303.305004 265.555264 
L 304.310248 265.60196 
L 305.483034 265.556161 
L 306.488278 265.473516 
L 307.325982 265.617358 
L 307.828604 265.565354 
L 308.833848 265.194043 
L 309.504011 265.584837 
L 309.839092 265.445822 
L 311.011878 265.542741 
L 311.346959 265.486167 
L 312.184663 265.634481 
L 313.524988 265.608746 
L 315.200396 265.653245 
L 315.703018 265.557327 
L 316.038099 265.158594 
L 316.540722 263.68921 
L 316.875803 265.533209 
L 317.210884 264.805612 
L 317.378425 265.331582 
L 317.545966 265.438302 
L 317.713507 265.034483 
L 318.048588 265.541552 
L 318.216129 265.261388 
L 318.38367 265.246033 
L 318.55121 265.564358 
L 318.886292 265.267707 
L 319.053832 265.552356 
L 319.221373 265.545139 
L 319.388914 265.322335 
L 319.723995 265.617489 
L 320.059077 265.484354 
L 320.394158 265.615239 
L 320.72924 265.544912 
L 321.064321 265.612031 
L 321.399403 265.578435 
L 321.902025 265.60915 
L 322.237106 265.637053 
L 325.42038 265.669512 
L 327.095787 265.68268 
L 332.457091 265.581136 
L 333.127254 265.293846 
L 333.294794 265.327768 
L 333.629876 265.662735 
L 333.797417 265.680738 
L 334.300039 265.504489 
L 334.802661 265.679492 
L 335.472824 265.618899 
L 335.975446 265.687554 
L 338.656098 265.701882 
L 339.326261 265.533282 
L 339.996423 264.859301 
L 340.163964 264.964526 
L 340.499046 265.679478 
L 340.834127 265.251321 
L 341.001668 265.375414 
L 341.169209 265.659535 
L 341.336749 265.626435 
L 341.50429 265.439237 
L 341.671831 265.440787 
L 342.006912 265.700634 
L 342.509534 265.531031 
L 342.844616 265.703948 
L 343.347238 265.573951 
L 343.68232 265.706597 
L 344.184942 265.622763 
L 344.687564 265.685845 
L 351.054112 265.553918 
L 351.556734 265.223904 
L 351.891815 265.279836 
L 352.226897 265.717889 
L 352.394437 265.709037 
L 352.729519 265.507382 
L 353.399682 265.72109 
L 353.902304 265.665285 
L 354.404926 265.738544 
L 355.41017 265.676163 
L 355.912793 265.747191 
L 356.415415 265.688018 
L 356.918037 265.55522 
L 358.090822 265.645449 
L 358.593444 265.514906 
L 359.096066 265.679392 
L 359.431148 265.737195 
L 360.771474 265.76317 
L 361.441637 265.69039 
L 361.944259 265.555926 
L 362.446881 265.32768 
L 363.117044 265.752378 
L 363.452125 265.572982 
L 363.787207 265.679795 
L 364.122288 265.782678 
L 364.959992 265.713883 
L 365.630155 265.79261 
L 367.138021 265.704108 
L 367.808184 265.799014 
L 369.316051 265.534023 
L 369.651132 265.669228 
L 369.986214 265.803982 
L 370.488836 265.653961 
L 370.823917 265.601962 
L 372.164243 265.723034 
L 372.834406 265.714688 
L 373.67211 265.810119 
L 374.342273 265.645716 
L 375.179976 265.45937 
L 375.682599 265.800433 
L 376.185221 265.567486 
L 376.855384 265.768781 
L 377.358006 265.605683 
L 378.028169 265.802701 
L 378.698332 265.706491 
L 379.368495 265.836068 
L 381.043902 265.825508 
L 382.049146 265.804269 
L 382.384228 265.637983 
L 382.719309 265.167093 
L 382.88685 264.651185 
L 383.221931 264.743236 
L 383.389472 265.531257 
L 383.557013 265.756108 
L 383.724553 265.314754 
L 383.892094 265.318833 
L 384.227176 265.766423 
L 384.562257 265.449142 
L 384.729798 265.757774 
L 384.897339 265.761013 
L 385.064879 265.536086 
L 385.567501 265.794785 
L 385.735042 265.661977 
L 385.902583 265.672819 
L 386.237664 265.822118 
L 386.572746 265.743217 
L 387.075368 265.819428 
L 387.57799 265.839078 
L 388.918316 265.850184 
L 389.92356 265.872225 
L 392.604212 265.776466 
L 393.106834 265.465065 
L 393.274375 265.308119 
L 393.944538 265.814436 
L 394.279619 265.622243 
L 394.782242 265.838805 
L 395.117323 265.67546 
L 395.787486 265.844594 
L 396.122567 265.775963 
L 400.311086 265.903197 
L 401.818952 265.786294 
L 402.154034 265.343282 
L 402.489115 264.422192 
L 402.656656 263.9615 
L 402.991737 265.781126 
L 403.326819 265.129731 
L 403.6619 265.762322 
L 403.829441 265.345503 
L 403.996982 265.339918 
L 404.164522 265.791359 
L 404.499604 265.322137 
L 404.667144 265.718147 
L 404.834685 265.74486 
L 405.002226 265.448288 
L 405.337307 265.851088 
L 405.504848 265.679217 
L 405.672389 265.687222 
L 405.83993 265.838647 
L 406.00747 265.838865 
L 406.175011 265.72546 
L 406.677633 265.8021 
L 406.845174 265.739287 
L 407.347796 265.848573 
L 407.682878 265.825463 
L 408.017959 265.878215 
L 408.520581 265.88719 
L 409.693366 265.903953 
L 411.033692 265.886192 
L 417.065158 265.897938 
L 417.735321 265.904764 
L 418.740566 265.789964 
L 419.410729 265.939524 
L 420.248432 265.708175 
L 420.248432 265.708175 
" style="fill:none;stroke:#4c72b0;stroke-linecap:square;stroke-width:2;"/>
   </g>
   <g id="patch_3">
    <path d="M 68.588821 277.574739 
L 68.588821 21.6 
" style="fill:none;stroke:#000000;stroke-linecap:square;stroke-linejoin:miter;stroke-width:0.8;"/>
   </g>
   <g id="patch_4">
    <path d="M 436.994128 277.574739 
L 436.994128 21.6 
" style="fill:none;stroke:#000000;stroke-linecap:square;stroke-linejoin:miter;stroke-width:0.8;"/>
   </g>
   <g id="patch_5">
    <path d="M 68.588821 277.574739 
L 436.994128 277.574739 
" style="fill:none;stroke:#000000;stroke-linecap:square;stroke-linejoin:miter;stroke-width:0.8;"/>
   </g>
   <g id="patch_6">
    <path d="M 68.588821 21.6 
L 436.994128 21.6 
" style="fill:none;stroke:#000000;stroke-linecap:square;stroke-linejoin:miter;stroke-width:0.8;"/>
   </g>
   <g id="legend_1">
    <g id="patch_7">
     <path d="M 281.45806 65.475634 
L 422.994128 65.475634 
Q 426.994128 65.475634 426.994128 61.475634 
L 426.994128 35.6 
Q 426.994128 31.6 422.994128 31.6 
L 281.45806 31.6 
Q 277.45806 31.6 277.45806 35.6 
L 277.45806 61.475634 
Q 277.45806 65.475634 281.45806 65.475634 
z
" style="fill:#ffffff;opacity:0.8;stroke:#cccccc;stroke-linejoin:miter;"/>
    </g>
    <g id="line2d_11">
     <path d="M 285.45806 46.6 
L 325.45806 46.6 
" style="fill:none;stroke:#4c72b0;stroke-linecap:square;stroke-width:2;"/>
    </g>
    <g id="line2d_12"/>
    <g id="text_12">
     <!-- Train loss -->
     <g transform="translate(341.45806 53.6)scale(0.2 -0.2)">
      <defs>
       <path d="M 62.203125 67.59375 
L 4.5 67.59375 
L 2.796875 45.59375 
L 4.59375 45.59375 
C 5.90625 62.125 7.296875 65 22.703125 65 
C 24.5 65 27.40625 65 28.203125 64.90625 
C 30.09375 64.609375 30.09375 63.40625 30.09375 61.125 
L 30.09375 7.171875 
C 30.09375 3.59375 29.796875 2.5 21.5 2.5 
L 18.703125 2.5 
L 18.703125 0 
C 23.5 0 28.5 0 33.40625 0 
C 38.296875 0 43.296875 0 48.09375 0 
L 48.09375 2.5 
L 45.296875 2.5 
C 37 2.5 36.703125 3.59375 36.703125 7.171875 
L 36.703125 61.125 
C 36.703125 63.3125 36.703125 64.515625 38.5 64.90625 
C 39.296875 65 42.203125 65 44 65 
C 59.296875 65 60.796875 62.125 62.09375 45.59375 
L 63.90625 45.59375 
z
" id="CMR17-84"/>
       <path d="M 15 23.390625 
C 15 33 19.09375 42 26.59375 42 
C 27.296875 42 28 41.90625 28.703125 41.59375 
C 28.703125 41.59375 26.5 40.890625 26.5 38.3125 
C 26.5 35.90625 28.40625 34.90625 29.90625 34.90625 
C 31.09375 34.90625 33.296875 35.609375 33.296875 38.40625 
C 33.296875 41.609375 30.09375 43.59375 26.703125 43.59375 
C 19.09375 43.59375 15.796875 36.203125 14.796875 32.703125 
L 14.703125 32.703125 
L 14.703125 43.59375 
L 3.09375 42.5 
L 3.09375 39.90625 
C 9 39.90625 9.90625 39.296875 9.90625 34.5 
L 9.90625 6.6875 
C 9.90625 2.875 9.5 2.390625 3.09375 2.390625 
L 3.09375 -0.203125 
C 5.5 0 10.09375 0 12.703125 0 
C 15.59375 0 20.703125 0 23.40625 -0.203125 
L 23.40625 2.390625 
C 16.203125 2.390625 15 2.390625 15 6.875 
z
" id="CMR17-114"/>
       <path d="M 36 25.828125 
C 36 32.375 36 35.84375 31.796875 39.734375 
C 28.09375 43 23.796875 44 20.40625 44 
C 12.5 44 6.796875 37.609375 6.796875 30.796875 
C 6.796875 27 9.796875 27 10.40625 27 
C 11.703125 27 14 27.78125 14 30.53125 
C 14 33 12.09375 34.078125 10.40625 34.078125 
C 10 34.078125 9.5 33.96875 9.203125 33.875 
C 11.296875 40.5 16.703125 42.40625 20.203125 42.40625 
C 25.203125 42.40625 30.703125 37.953125 30.703125 29.453125 
L 30.703125 25 
C 24.796875 25 17.703125 24.203125 12.09375 21.203125 
C 5.796875 17.703125 4 12.703125 4 8.90625 
C 4 1.203125 13 -1 18.296875 -1 
C 23.796875 -1 28.90625 2.171875 31.09375 7.984375 
C 31.296875 3.640625 34.09375 -0.28125 38.5 -0.28125 
C 40.59375 -0.28125 45.90625 1.09375 45.90625 8.859375 
L 45.90625 14.375 
L 44.09375 14.375 
L 44.09375 8.78125 
C 44.09375 2.78125 41.40625 2 40.09375 2 
C 36 2 36 7.15625 36 11.53125 
z
M 30.703125 13.59375 
C 30.703125 4.953125 24.5 0.59375 19 0.59375 
C 14 0.59375 10.09375 4.296875 10.09375 8.90625 
C 10.09375 11.890625 11.40625 17.1875 17.203125 20.390625 
C 22 23.09375 27.5 23.5 30.703125 23.5 
z
" id="CMR17-97"/>
       <path d="M 15.5 61.078125 
C 15.5 63.265625 13.703125 65.15625 11.40625 65.15625 
C 9.203125 65.15625 7.296875 63.375 7.296875 61.078125 
C 7.296875 58.890625 9.09375 57 11.40625 57 
C 13.59375 57 15.5 58.796875 15.5 61.078125 
z
M 3.796875 42.28125 
L 3.796875 39.703125 
C 9.40625 39.703125 10.203125 39.09375 10.203125 34.328125 
L 10.203125 6.671875 
C 10.203125 2.875 9.796875 2.390625 3.40625 2.390625 
L 3.40625 -0.203125 
C 5.796875 0 10.09375 0 12.59375 0 
C 15 0 19.09375 0 21.40625 -0.203125 
L 21.40625 2.390625 
C 15.5 2.390625 15.296875 2.984375 15.296875 6.5625 
L 15.296875 43.375 
z
" id="CMR17-105"/>
       <path d="M 41.5 30.203125 
C 41.5 35.296875 40.5 43.59375 28.703125 43.59375 
C 20.796875 43.59375 16.703125 37.5 15.203125 33.5 
L 15.09375 33.5 
L 15.09375 43.59375 
L 3.296875 42.5 
L 3.296875 39.90625 
C 9.203125 39.90625 10.09375 39.296875 10.09375 34.5 
L 10.09375 6.6875 
C 10.09375 2.875 9.703125 2.390625 3.296875 2.390625 
L 3.296875 -0.203125 
C 5.703125 0 10.09375 0 12.703125 0 
C 15.296875 0 19.796875 0 22.203125 -0.203125 
L 22.203125 2.390625 
C 15.796875 2.390625 15.40625 2.78125 15.40625 6.6875 
L 15.40625 25.90625 
C 15.40625 35.109375 21 42 28 42 
C 35.40625 42 36.203125 35.40625 36.203125 30.59375 
L 36.203125 6.6875 
C 36.203125 2.875 35.796875 2.390625 29.40625 2.390625 
L 29.40625 -0.203125 
C 31.796875 0 36.203125 0 38.796875 0 
C 41.40625 0 45.90625 0 48.296875 -0.203125 
L 48.296875 2.390625 
C 41.90625 2.390625 41.5 2.78125 41.5 6.6875 
z
" id="CMR17-110"/>
       <path d="M 15.296875 68.6875 
L 3.40625 67.59375 
L 3.40625 65 
C 9.296875 65 10.203125 64.40625 10.203125 59.640625 
L 10.203125 6.65625 
C 10.203125 2.875 9.796875 2.390625 3.40625 2.390625 
L 3.40625 -0.203125 
C 5.796875 0 10.203125 0 12.703125 0 
C 15.296875 0 19.703125 0 22.09375 -0.203125 
L 22.09375 2.390625 
C 15.703125 2.390625 15.296875 2.78125 15.296875 6.65625 
z
" id="CMR17-108"/>
      </defs>
      <use transform="scale(0.996264)" xlink:href="#CMR17-84"/>
      <use transform="translate(58.702625 0)scale(0.996264)" xlink:href="#CMR17-114"/>
      <use transform="translate(93.983393 0)scale(0.996264)" xlink:href="#CMR17-97"/>
      <use transform="translate(139.67387 0)scale(0.996264)" xlink:href="#CMR17-105"/>
      <use transform="translate(164.544929 0)scale(0.996264)" xlink:href="#CMR17-110"/>
      <use transform="translate(245.516265 0)scale(0.996264)" xlink:href="#CMR17-108"/>
      <use transform="translate(270.387323 0)scale(0.996264)" xlink:href="#CMR17-111"/>
      <use transform="translate(316.0778 0)scale(0.996264)" xlink:href="#CMR17-115"/>
      <use transform="translate(351.879138 0)scale(0.996264)" xlink:href="#CMR17-115"/>
     </g>
    </g>
   </g>
  </g>
 </g>
 <defs>
  <clipPath id="p107456c29a">
   <rect height="255.974739" width="368.405307" x="68.588821" y="21.6"/>
  </clipPath>
 </defs>
</svg>
