<?xml version="1.0" encoding="utf-8" standalone="no"?>
<!DOCTYPE svg PUBLIC "-//W3C//DTD SVG 1.1//EN"
  "http://www.w3.org/Graphics/SVG/1.1/DTD/svg11.dtd">
<!-- Created with matplotlib (https://matplotlib.org/) -->
<svg height="345.6pt" version="1.1" viewBox="0 0 460.8 345.6" width="460.8pt" xmlns="http://www.w3.org/2000/svg" xmlns:xlink="http://www.w3.org/1999/xlink">
 <metadata>
  <rdf:RDF xmlns:cc="http://creativecommons.org/ns#" xmlns:dc="http://purl.org/dc/elements/1.1/" xmlns:rdf="http://www.w3.org/1999/02/22-rdf-syntax-ns#">
   <cc:Work>
    <dc:type rdf:resource="http://purl.org/dc/dcmitype/StillImage"/>
    <dc:date>2022-10-28T17:33:08.276603</dc:date>
    <dc:format>image/svg+xml</dc:format>
    <dc:creator>
     <cc:Agent>
      <dc:title>Matplotlib v3.3.4, https://matplotlib.org/</dc:title>
     </cc:Agent>
    </dc:creator>
   </cc:Work>
  </rdf:RDF>
 </metadata>
 <defs>
  <style type="text/css">*{stroke-linecap:butt;stroke-linejoin:round;}</style>
 </defs>
 <g id="figure_1">
  <g id="patch_1">
   <path d="M 0 345.6 
L 460.8 345.6 
L 460.8 0 
L 0 0 
z
" style="fill:#ffffff;"/>
  </g>
  <g id="axes_1">
   <g id="patch_2">
    <path d="M 68.588821 277.574739 
L 436.994128 277.574739 
L 436.994128 21.6 
L 68.588821 21.6 
z
" style="fill:#ffffff;"/>
   </g>
   <g id="matplotlib.axis_1">
    <g id="xtick_1">
     <g id="line2d_1">
      <defs>
       <path d="M 0 0 
L 0 3.5 
" id="m3fb8e88153" style="stroke:#000000;stroke-width:0.8;"/>
      </defs>
      <g>
       <use style="stroke:#000000;stroke-width:0.8;" x="85.334517" xlink:href="#m3fb8e88153" y="277.574739"/>
      </g>
     </g>
     <g id="text_1">
      <!-- $\mathdefault{0}$ -->
      <g transform="translate(80.765469 298.411736)scale(0.2 -0.2)">
       <defs>
        <path d="M 42 31.640625 
C 42 37.75 41.90625 48.125 37.703125 56.109375 
C 34 63.109375 28.09375 65.59375 22.90625 65.59375 
C 18.09375 65.59375 12 63.40625 8.203125 56.203125 
C 4.203125 48.71875 3.796875 39.4375 3.796875 31.640625 
C 3.796875 25.953125 3.90625 17.28125 7 9.671875 
C 11.296875 -0.609375 19 -2 22.90625 -2 
C 27.5 -2 34.5 -0.109375 38.59375 9.375 
C 41.59375 16.28125 42 24.359375 42 31.640625 
z
M 22.90625 -0.40625 
C 16.5 -0.40625 12.703125 5.078125 11.296875 12.6875 
C 10.203125 18.5625 10.203125 27.15625 10.203125 32.75 
C 10.203125 40.4375 10.203125 46.828125 11.5 52.921875 
C 13.40625 61.390625 19 64 22.90625 64 
C 27 64 32.296875 61.296875 34.203125 53.125 
C 35.5 47.4375 35.59375 40.734375 35.59375 32.75 
C 35.59375 26.25 35.59375 18.265625 34.40625 12.375 
C 32.296875 1.484375 26.40625 -0.40625 22.90625 -0.40625 
z
" id="CMR17-48"/>
       </defs>
       <use transform="scale(0.996264)" xlink:href="#CMR17-48"/>
      </g>
     </g>
    </g>
    <g id="xtick_2">
     <g id="line2d_2">
      <g>
       <use style="stroke:#000000;stroke-width:0.8;" x="169.104881" xlink:href="#m3fb8e88153" y="277.574739"/>
      </g>
     </g>
     <g id="text_2">
      <!-- $\mathdefault{500}$ -->
      <g transform="translate(155.397738 298.411736)scale(0.2 -0.2)">
       <defs>
        <path d="M 11.40625 57.6875 
C 12.40625 57.28125 16.5 56 20.703125 56 
C 30 56 35.09375 61.109375 38 64.0625 
C 38 64.953125 38 65.5 37.40625 65.5 
C 37.296875 65.5 37.09375 65.5 36.296875 65.046875 
C 32.796875 63.40625 28.703125 62.078125 23.703125 62.078125 
C 20.703125 62.078125 16.203125 62.484375 11.296875 64.671875 
C 10.203125 65.171875 10 65.171875 9.90625 65.171875 
C 9.40625 65.171875 9.296875 65.0625 9.296875 63.078125 
L 9.296875 34.421875 
C 9.296875 32.640625 9.296875 32.140625 10.296875 32.140625 
C 10.796875 32.140625 11 32.34375 11.5 33.03125 
C 14.703125 37.515625 19.09375 39.40625 24.09375 39.40625 
C 27.59375 39.40625 35.09375 37.21875 35.09375 20.140625 
C 35.09375 16.953125 35.09375 11.171875 32.09375 6.578125 
C 29.59375 2.484375 25.703125 0.390625 21.40625 0.390625 
C 14.796875 0.390625 8.09375 5 6.296875 12.71875 
C 6.703125 12.609375 7.5 12.421875 7.90625 12.421875 
C 9.203125 12.421875 11.703125 13.125 11.703125 16.21875 
C 11.703125 18.90625 9.796875 20 7.90625 20 
C 5.59375 20 4.09375 18.59375 4.09375 15.796875 
C 4.09375 7.09375 11 -2 21.59375 -2 
C 31.90625 -2 41.703125 6.875 41.703125 19.75 
C 41.703125 31.71875 33.90625 41 24.203125 41 
C 19.09375 41 14.796875 39.109375 11.40625 35.53125 
z
" id="CMR17-53"/>
       </defs>
       <use transform="scale(0.996264)" xlink:href="#CMR17-53"/>
       <use transform="translate(45.690477 0)scale(0.996264)" xlink:href="#CMR17-48"/>
       <use transform="translate(91.380954 0)scale(0.996264)" xlink:href="#CMR17-48"/>
      </g>
     </g>
    </g>
    <g id="xtick_3">
     <g id="line2d_3">
      <g>
       <use style="stroke:#000000;stroke-width:0.8;" x="252.875245" xlink:href="#m3fb8e88153" y="277.574739"/>
      </g>
     </g>
     <g id="text_3">
      <!-- $\mathdefault{1000}$ -->
      <g transform="translate(234.599054 298.411736)scale(0.2 -0.2)">
       <defs>
        <path d="M 26.59375 63.40625 
C 26.59375 65.5 26.5 65.5 25.09375 65.5 
C 21.203125 61.1875 15.296875 59.796875 9.703125 59.796875 
C 9.40625 59.796875 8.90625 59.796875 8.796875 59.5 
C 8.703125 59.296875 8.703125 59.09375 8.703125 57 
C 11.796875 57 17 57.59375 21 59.984375 
L 21 7.203125 
C 21 3.6875 20.796875 2.5 12.203125 2.5 
L 9.203125 2.5 
L 9.203125 0 
C 14 0 19 0 23.796875 0 
C 28.59375 0 33.59375 0 38.40625 0 
L 38.40625 2.5 
L 35.40625 2.5 
C 26.796875 2.5 26.59375 3.59375 26.59375 7.15625 
z
" id="CMR17-49"/>
       </defs>
       <use transform="scale(0.996264)" xlink:href="#CMR17-49"/>
       <use transform="translate(45.690477 0)scale(0.996264)" xlink:href="#CMR17-48"/>
       <use transform="translate(91.380954 0)scale(0.996264)" xlink:href="#CMR17-48"/>
       <use transform="translate(137.071431 0)scale(0.996264)" xlink:href="#CMR17-48"/>
      </g>
     </g>
    </g>
    <g id="xtick_4">
     <g id="line2d_4">
      <g>
       <use style="stroke:#000000;stroke-width:0.8;" x="336.645609" xlink:href="#m3fb8e88153" y="277.574739"/>
      </g>
     </g>
     <g id="text_4">
      <!-- $\mathdefault{1500}$ -->
      <g transform="translate(318.369418 298.411736)scale(0.2 -0.2)">
       <use transform="scale(0.996264)" xlink:href="#CMR17-49"/>
       <use transform="translate(45.690477 0)scale(0.996264)" xlink:href="#CMR17-53"/>
       <use transform="translate(91.380954 0)scale(0.996264)" xlink:href="#CMR17-48"/>
       <use transform="translate(137.071431 0)scale(0.996264)" xlink:href="#CMR17-48"/>
      </g>
     </g>
    </g>
    <g id="xtick_5">
     <g id="line2d_5">
      <g>
       <use style="stroke:#000000;stroke-width:0.8;" x="420.415973" xlink:href="#m3fb8e88153" y="277.574739"/>
      </g>
     </g>
     <g id="text_5">
      <!-- $\mathdefault{2000}$ -->
      <g transform="translate(402.139782 298.411736)scale(0.2 -0.2)">
       <defs>
        <path d="M 41.703125 15.453125 
L 39.90625 15.453125 
C 38.90625 8.375 38.09375 7.171875 37.703125 6.5625 
C 37.203125 5.765625 30 5.765625 28.59375 5.765625 
L 9.40625 5.765625 
C 13 9.671875 20 16.75 28.5 24.953125 
C 34.59375 30.734375 41.703125 37.53125 41.703125 47.421875 
C 41.703125 59.21875 32.296875 66 21.796875 66 
C 10.796875 66 4.09375 56.3125 4.09375 47.34375 
C 4.09375 43.4375 7 42.9375 8.203125 42.9375 
C 9.203125 42.9375 12.203125 43.546875 12.203125 47.03125 
C 12.203125 50.109375 9.59375 51 8.203125 51 
C 7.59375 51 7 50.90625 6.59375 50.703125 
C 8.5 59.21875 14.296875 63.40625 20.40625 63.40625 
C 29.09375 63.40625 34.796875 56.515625 34.796875 47.421875 
C 34.796875 38.734375 29.703125 31.25 24 24.75 
L 4.09375 2.28125 
L 4.09375 0 
L 39.296875 0 
z
" id="CMR17-50"/>
       </defs>
       <use transform="scale(0.996264)" xlink:href="#CMR17-50"/>
       <use transform="translate(45.690477 0)scale(0.996264)" xlink:href="#CMR17-48"/>
       <use transform="translate(91.380954 0)scale(0.996264)" xlink:href="#CMR17-48"/>
       <use transform="translate(137.071431 0)scale(0.996264)" xlink:href="#CMR17-48"/>
      </g>
     </g>
    </g>
    <g id="text_6">
     <!-- Epoch -->
     <g transform="translate(227.475939 320.124366)scale(0.2 -0.2)">
      <defs>
       <path d="M 60.703125 25.234375 
L 58.90625 25.234375 
C 56.703125 10.5625 55.40625 2.59375 37.796875 2.59375 
L 23.90625 2.59375 
C 19.90625 2.59375 19.703125 3.078125 19.703125 6.46875 
L 19.703125 34 
L 29.09375 34 
C 38.5 34 39.40625 30.625 39.40625 22.34375 
L 41.203125 22.34375 
L 41.203125 48.140625 
L 39.40625 48.140625 
C 39.40625 39.953125 38.5 36.59375 29.09375 36.59375 
L 19.703125 36.59375 
L 19.703125 61.140625 
C 19.703125 64.5 19.90625 65 23.90625 65 
L 37.59375 65 
C 53.09375 65 54.90625 58.890625 56.296875 45.765625 
L 58.09375 45.765625 
L 55.703125 67.578125 
L 5.09375 67.578125 
L 5.09375 65 
C 12 65 13.09375 65 13.09375 60.53125 
L 13.09375 7.046875 
C 13.09375 2.59375 12 2.59375 5.09375 2.59375 
L 5.09375 0 
L 57.09375 0 
z
" id="CMR17-69"/>
       <path d="M 22 -16.609375 
C 15.59375 -16.609375 15.203125 -16.203125 15.203125 -12.328125 
L 15.203125 6.28125 
C 18.09375 2.09375 22.296875 -0.59375 27.59375 -0.59375 
C 37.59375 -0.59375 47.703125 8.171875 47.703125 21.6875 
C 47.703125 34.234375 39 43.78125 28.703125 43.78125 
C 22.703125 43.78125 17.796875 40.5 15 36.53125 
L 15 43.78125 
L 3.09375 42.6875 
L 3.09375 40.109375 
C 9 40.109375 9.90625 39.5 9.90625 34.734375 
L 9.90625 -12.328125 
C 9.90625 -16.109375 9.5 -16.609375 3.09375 -16.609375 
L 3.09375 -19.1875 
C 5.5 -19 9.90625 -19 12.5 -19 
C 15.09375 -19 19.59375 -19 22 -19.1875 
z
M 15.203125 31.4375 
C 15.203125 32.84375 15.203125 34.921875 19.09375 38.609375 
C 19.59375 39.015625 23 42 28 42 
C 35.296875 42 41.296875 32.9375 41.296875 21.59375 
C 41.296875 10.25 34.90625 1 27 1 
C 23.40625 1 19.5 2.6875 16.5 7.375 
C 15.203125 9.5625 15.203125 10.15625 15.203125 11.75 
z
" id="CMR17-112"/>
       <path d="M 43.09375 21.1875 
C 43.09375 34 33.796875 44 22.90625 44 
C 12 44 2.703125 34 2.703125 21.1875 
C 2.703125 8.609375 12 -1 22.90625 -1 
C 33.796875 -1 43.09375 8.609375 43.09375 21.1875 
z
M 22.90625 0.796875 
C 18.203125 0.796875 14.203125 3.59375 11.90625 7.5 
C 9.40625 11.984375 9.09375 17.59375 9.09375 22 
C 9.09375 26.203125 9.296875 31.40625 11.90625 35.90625 
C 13.90625 39.203125 17.796875 42.40625 22.90625 42.40625 
C 27.40625 42.40625 31.203125 39.90625 33.59375 36.40625 
C 36.703125 31.703125 36.703125 25.109375 36.703125 22 
C 36.703125 18.09375 36.5 12.109375 33.796875 7.296875 
C 31 2.703125 26.703125 0.796875 22.90625 0.796875 
z
" id="CMR17-111"/>
       <path d="M 34.90625 35 
C 33 35 30.203125 35 30.203125 31.515625 
C 30.203125 28.71875 32.5 27.921875 33.796875 27.921875 
C 34.5 27.921875 37.40625 28.234375 37.40625 31.625 
C 37.40625 38.546875 30.59375 43.796875 22.90625 43.796875 
C 12.296875 43.796875 3.296875 34.03125 3.296875 21.296875 
C 3.296875 8.0625 12.703125 -1 22.90625 -1 
C 35.296875 -1 38.40625 10.578125 38.40625 11.6875 
C 38.40625 12.09375 38.296875 12.390625 37.59375 12.390625 
C 36.90625 12.390625 36.796875 12.296875 36.40625 10.984375 
C 33.796875 2.8125 28.09375 0.796875 23.796875 0.796875 
C 17.40625 0.796875 9.703125 6.671875 9.703125 21.390625 
C 9.703125 36.53125 17.09375 42 23 42 
C 26.90625 42 32.703125 40.203125 34.90625 35 
z
" id="CMR17-99"/>
       <path d="M 41.5 30.203125 
C 41.5 35.296875 40.5 43.59375 28.703125 43.59375 
C 20.5 43.59375 16.5 37 15.296875 33.703125 
L 15.203125 33.703125 
L 15.203125 68.6875 
L 3.296875 67.59375 
L 3.296875 65 
C 9.203125 65 10.09375 64.40625 10.09375 59.640625 
L 10.09375 6.65625 
C 10.09375 2.875 9.703125 2.390625 3.296875 2.390625 
L 3.296875 -0.203125 
C 5.703125 0 10.09375 0 12.703125 0 
C 15.296875 0 19.796875 0 22.203125 -0.203125 
L 22.203125 2.390625 
C 15.796875 2.390625 15.40625 2.78125 15.40625 6.6875 
L 15.40625 25.90625 
C 15.40625 35.109375 21 42 28 42 
C 35.40625 42 36.203125 35.40625 36.203125 30.59375 
L 36.203125 6.6875 
C 36.203125 2.875 35.796875 2.390625 29.40625 2.390625 
L 29.40625 -0.203125 
C 31.796875 0 36.203125 0 38.796875 0 
C 41.40625 0 45.90625 0 48.296875 -0.203125 
L 48.296875 2.390625 
C 41.90625 2.390625 41.5 2.78125 41.5 6.6875 
z
" id="CMR17-104"/>
      </defs>
      <use transform="scale(0.996264)" xlink:href="#CMR17-69"/>
      <use transform="translate(62.586301 0)scale(0.996264)" xlink:href="#CMR17-112"/>
      <use transform="translate(116.084109 0)scale(0.996264)" xlink:href="#CMR17-111"/>
      <use transform="translate(164.377025 0)scale(0.996264)" xlink:href="#CMR17-99"/>
      <use transform="translate(202.260231 0)scale(0.996264)" xlink:href="#CMR17-104"/>
     </g>
    </g>
   </g>
   <g id="matplotlib.axis_2">
    <g id="ytick_1">
     <g id="line2d_6">
      <defs>
       <path d="M 0 0 
L -3.5 0 
" id="m4fc841c80e" style="stroke:#000000;stroke-width:0.8;"/>
      </defs>
      <g>
       <use style="stroke:#000000;stroke-width:0.8;" x="68.588821" xlink:href="#m4fc841c80e" y="266.899088"/>
      </g>
     </g>
     <g id="text_7">
      <!-- $\mathdefault{0}$ -->
      <g transform="translate(52.450726 273.817586)scale(0.2 -0.2)">
       <use transform="scale(0.996264)" xlink:href="#CMR17-48"/>
      </g>
     </g>
    </g>
    <g id="ytick_2">
     <g id="line2d_7">
      <g>
       <use style="stroke:#000000;stroke-width:0.8;" x="68.588821" xlink:href="#m4fc841c80e" y="191.734069"/>
      </g>
     </g>
     <g id="text_8">
      <!-- $\mathdefault{10}$ -->
      <g transform="translate(43.31263 198.652568)scale(0.2 -0.2)">
       <use transform="scale(0.996264)" xlink:href="#CMR17-49"/>
       <use transform="translate(45.690477 0)scale(0.996264)" xlink:href="#CMR17-48"/>
      </g>
     </g>
    </g>
    <g id="ytick_3">
     <g id="line2d_8">
      <g>
       <use style="stroke:#000000;stroke-width:0.8;" x="68.588821" xlink:href="#m4fc841c80e" y="116.569051"/>
      </g>
     </g>
     <g id="text_9">
      <!-- $\mathdefault{20}$ -->
      <g transform="translate(43.31263 123.487549)scale(0.2 -0.2)">
       <use transform="scale(0.996264)" xlink:href="#CMR17-50"/>
       <use transform="translate(45.690477 0)scale(0.996264)" xlink:href="#CMR17-48"/>
      </g>
     </g>
    </g>
    <g id="ytick_4">
     <g id="line2d_9">
      <g>
       <use style="stroke:#000000;stroke-width:0.8;" x="68.588821" xlink:href="#m4fc841c80e" y="41.404032"/>
      </g>
     </g>
     <g id="text_10">
      <!-- $\mathdefault{30}$ -->
      <g transform="translate(43.31263 48.32253)scale(0.2 -0.2)">
       <defs>
        <path d="M 22.09375 33.703125 
C 31 33.703125 34.90625 25.96875 34.90625 17.03125 
C 34.90625 5 28.5 0.390625 22.703125 0.390625 
C 17.40625 0.390625 8.796875 3.03125 6.09375 10.828125 
C 6.59375 10.625 7.09375 10.625 7.59375 10.625 
C 10 10.625 11.796875 12.21875 11.796875 14.8125 
C 11.796875 17.703125 9.59375 19 7.59375 19 
C 5.90625 19 3.296875 18.203125 3.296875 14.46875 
C 3.296875 5.234375 12.296875 -2 22.90625 -2 
C 34 -2 42.5 6.71875 42.5 16.953125 
C 42.5 26.671875 34.5 33.703125 25 34.796875 
C 32.59375 36.375 39.90625 43.0625 39.90625 52.015625 
C 39.90625 59.6875 32 65.296875 23 65.296875 
C 13.90625 65.296875 5.90625 59.828125 5.90625 52.015625 
C 5.90625 48.59375 8.5 48 9.796875 48 
C 11.90625 48 13.703125 49.296875 13.703125 51.890625 
C 13.703125 54.46875 11.90625 55.765625 9.796875 55.765625 
C 9.40625 55.765625 8.90625 55.765625 8.5 55.578125 
C 11.40625 61.859375 19.296875 63 22.796875 63 
C 26.296875 63 32.90625 61.328125 32.90625 51.875 
C 32.90625 49.109375 32.5 44.1875 29.09375 39.84375 
C 26.09375 36 22.703125 36 19.40625 35.6875 
C 18.90625 35.6875 16.59375 35.453125 16.203125 35.453125 
C 15.5 35.359375 15.09375 35.265625 15.09375 34.5 
C 15.09375 33.796875 15.203125 33.703125 17.203125 33.703125 
z
" id="CMR17-51"/>
       </defs>
       <use transform="scale(0.996264)" xlink:href="#CMR17-51"/>
       <use transform="translate(45.690477 0)scale(0.996264)" xlink:href="#CMR17-48"/>
      </g>
     </g>
    </g>
    <g id="text_11">
     <!-- MSE Loss -->
     <g transform="translate(35.436997 189.879276)rotate(-90)scale(0.2 -0.2)">
      <defs>
       <path d="M 20.90625 66 
C 20.296875 67.5 20.203125 67.5 18.09375 67.5 
L 5.296875 67.5 
L 5.296875 65 
C 12.203125 65 13.296875 65 13.296875 60.546875 
L 13.296875 9.53125 
C 13.296875 7.046875 13.296875 2.390625 5.296875 2.390625 
L 5.296875 -0.203125 
C 7.59375 0 11.796875 0 14.296875 0 
C 16.796875 0 21 0 23.296875 -0.203125 
L 23.296875 2.390625 
C 15.296875 2.390625 15.296875 7.046875 15.296875 9.53125 
L 15.296875 64.609375 
L 15.40625 64.609375 
L 38.90625 1.390625 
C 39.296875 0.390625 39.5 -0.203125 40.296875 -0.203125 
C 41.09375 -0.203125 41.296875 0.390625 41.703125 1.390625 
L 65.40625 65.09375 
L 65.5 65.09375 
L 65.5 6.84375 
C 65.5 2.390625 64.40625 2.390625 57.5 2.390625 
L 57.5 -0.203125 
C 60.203125 0 65.59375 0 68.5 0 
C 71.40625 0 76.90625 0 79.59375 -0.203125 
L 79.59375 2.390625 
C 72.703125 2.390625 71.59375 2.390625 71.59375 6.84375 
L 71.59375 60.546875 
C 71.59375 65 72.703125 65 79.59375 65 
L 79.59375 67.5 
L 66.90625 67.5 
C 64.796875 67.5 64.703125 67.40625 64.09375 65.90625 
L 42.5 7.84375 
z
" id="CMR17-77"/>
       <path d="M 43.796875 67.03125 
C 43.796875 68.8125 43.703125 68.921875 43.09375 68.921875 
C 42.5 68.921875 42.296875 68.515625 41.90625 67.625 
L 38.90625 61.046875 
C 35.09375 66.515625 29.296875 69 23 69 
C 12.796875 69 4.59375 60.953125 4.59375 50.828125 
C 4.59375 47.75 5.296875 43.375 8.703125 39.21875 
C 12.40625 34.65625 15.90625 33.859375 23.90625 31.765625 
C 26.90625 30.96875 31.90625 29.671875 32.90625 29.28125 
C 38.59375 26.90625 41.59375 20.953125 41.59375 15.390625 
C 41.59375 8.234375 36.5 0.59375 27.796875 0.59375 
C 17.09375 0.59375 7.09375 6.546875 6.40625 20.484375 
C 6.296875 22.078125 6.203125 22.171875 5.5 22.171875 
C 4.703125 22.171875 4.59375 22.078125 4.59375 20.078125 
L 4.59375 -0.015625 
C 4.59375 -1.796875 4.703125 -1.90625 5.296875 -1.90625 
C 6 -1.90625 6.203125 -1.40625 7.59375 1.6875 
C 7.703125 1.984375 7.703125 2.1875 9.59375 5.953125 
C 14.59375 -0.609375 23 -2 27.796875 -2 
C 38.703125 -2 46.40625 7.046875 46.40625 17.5625 
C 46.40625 22.71875 44.5 26.6875 43.40625 28.484375 
C 39.203125 34.84375 34.703125 36.03125 29.90625 37.21875 
C 29.203125 37.53125 29 37.53125 23.40625 38.90625 
C 18 40.296875 15.703125 41 13.203125 43.6875 
C 10.40625 46.75 9.40625 49.9375 9.40625 53.109375 
C 9.40625 59.5625 14.59375 66.609375 23.09375 66.609375 
C 33.703125 66.609375 40.296875 59.15625 41.796875 46.765625 
C 42.09375 44.96875 42.203125 44.875 42.90625 44.875 
C 43.796875 44.875 43.796875 45.171875 43.796875 46.859375 
z
" id="CMR17-83"/>
       <path d="M 54.203125 25.234375 
L 52.40625 25.234375 
C 51.59375 15.359375 50.296875 2.59375 33.203125 2.59375 
L 23.90625 2.59375 
C 19.90625 2.59375 19.703125 3.078125 19.703125 6.46875 
L 19.703125 60.90625 
C 19.703125 64.515625 19.90625 65.5 27.5 65.5 
L 29.703125 65.5 
L 29.703125 68 
C 25.59375 68 20.796875 68 16.703125 68 
C 13.59375 68 8 68 5.09375 68 
L 5.09375 65.5 
C 12 65.5 13.09375 65.5 13.09375 61.015625 
L 13.09375 7.0625 
C 13.09375 2.59375 12 2.59375 5.09375 2.59375 
L 5.09375 0 
L 51.796875 0 
z
" id="CMR17-76"/>
       <path d="M 30.90625 42.140625 
C 30.90625 43.953125 30.796875 44.046875 30.203125 44.046875 
C 29.796875 44.046875 29.703125 43.953125 28.5 42.453125 
C 28.203125 42.046875 27.296875 41.03125 27 40.640625 
C 23.796875 44.046875 19.296875 44.046875 17.59375 44.046875 
C 6.5 44.046875 2.5 38.234375 2.5 32.4375 
C 2.5 23.40625 12.703125 21.328125 15.59375 20.703125 
C 21.90625 19.421875 24.09375 19.015625 26.203125 17.203125 
C 27.5 16.015625 29.703125 13.8125 29.703125 10.21875 
C 29.703125 6 27.296875 0.59375 18.09375 0.59375 
C 9.40625 0.59375 6.296875 7.1875 4.5 15.953125 
C 4.203125 17.34375 4.203125 17.453125 3.40625 17.453125 
C 2.59375 17.453125 2.5 17.34375 2.5 15.359375 
L 2.5 0.984375 
C 2.5 -0.796875 2.59375 -0.90625 3.203125 -0.90625 
C 3.703125 -0.90625 3.796875 -0.796875 4.296875 0 
C 4.90625 0.890625 6.40625 3.296875 7 4.3125 
C 9 1.609375 12.5 -1 18.09375 -1 
C 28 -1 33.296875 4.421875 33.296875 12.25 
C 33.296875 17.375 30.59375 20.078125 29.296875 21.28125 
C 26.296875 24.390625 22.796875 25.09375 18.59375 25.890625 
C 13.09375 27.109375 6.09375 28.515625 6.09375 34.640625 
C 6.09375 37.234375 7.5 42.765625 17.59375 42.765625 
C 28.296875 42.765625 28.90625 32.71875 29.09375 29.5 
C 29.203125 29 29.703125 28.890625 30 28.890625 
C 30.90625 28.890625 30.90625 29.203125 30.90625 30.90625 
z
" id="CMR17-115"/>
      </defs>
      <use transform="scale(0.996264)" xlink:href="#CMR17-77"/>
      <use transform="translate(84.686941 0)scale(0.996264)" xlink:href="#CMR17-83"/>
      <use transform="translate(135.58231 0)scale(0.996264)" xlink:href="#CMR17-69"/>
      <use transform="translate(228.244577 0)scale(0.996264)" xlink:href="#CMR17-76"/>
      <use transform="translate(285.625985 0)scale(0.996264)" xlink:href="#CMR17-111"/>
      <use transform="translate(331.316462 0)scale(0.996264)" xlink:href="#CMR17-115"/>
      <use transform="translate(367.1178 0)scale(0.996264)" xlink:href="#CMR17-115"/>
     </g>
    </g>
   </g>
   <g id="line2d_10">
    <path clip-path="url(#p6e3623b35e)" d="M 85.334517 33.235215 
L 85.669598 205.885874 
L 85.837139 209.603517 
L 86.00468 206.166219 
L 86.507302 231.625368 
L 86.842384 232.486682 
L 87.177465 237.988416 
L 87.847628 246.380443 
L 88.182709 248.762272 
L 88.35025 249.366202 
L 89.187954 254.767793 
L 90.025657 258.123909 
L 90.193198 258.364465 
L 90.69582 259.953648 
L 91.533524 261.199202 
L 92.036146 261.733418 
L 92.371228 261.988334 
L 92.706309 262.208651 
L 93.376472 262.677359 
L 94.046635 263.044654 
L 94.716798 263.297688 
L 95.554501 263.586313 
L 99.407938 264.236829 
L 102.423671 264.444158 
L 102.926293 264.504761 
L 103.428916 264.542814 
L 104.099079 264.533273 
L 104.936782 264.635362 
L 106.277108 264.623471 
L 106.77973 264.715085 
L 107.952515 264.684252 
L 108.287597 264.755553 
L 108.95776 264.679283 
L 109.460382 264.794464 
L 110.633167 264.758646 
L 111.30333 264.831406 
L 112.811196 264.778544 
L 113.313819 264.873447 
L 114.486604 264.757427 
L 114.821685 264.896618 
L 115.324307 264.787409 
L 115.659389 264.734134 
L 116.664633 264.900905 
L 117.334796 264.826967 
L 119.512825 264.951397 
L 119.847907 264.829517 
L 120.182988 264.34893 
L 120.350529 263.951353 
L 120.51807 263.997673 
L 120.853151 264.941365 
L 121.188233 264.410122 
L 121.523314 264.961336 
L 121.858396 264.634919 
L 122.193477 264.97744 
L 122.528559 264.745232 
L 122.86364 264.990143 
L 123.198721 264.840874 
L 123.533803 265.001258 
L 124.036425 264.94649 
L 124.371507 264.989618 
L 124.706588 264.950782 
L 125.20921 264.997858 
L 125.711832 265.017939 
L 127.219699 265.033387 
L 128.224943 265.05277 
L 129.565269 265.023505 
L 129.900351 264.885119 
L 130.402973 264.455989 
L 130.570514 264.553247 
L 130.905595 265.041216 
L 131.073136 265.029859 
L 131.408217 264.799968 
L 131.910839 265.054529 
L 132.245921 264.897175 
L 132.916084 265.047775 
L 133.251165 264.961489 
L 133.921328 265.084897 
L 134.42395 265.032309 
L 135.261654 265.101205 
L 136.099358 265.075781 
L 137.942306 265.131557 
L 138.277387 265.061669 
L 138.612468 264.709541 
L 139.115091 263.680848 
L 139.450172 265.072479 
L 139.617713 264.780608 
L 139.785254 264.254819 
L 140.120335 265.103341 
L 140.287876 264.758226 
L 140.455416 264.697952 
L 140.622957 265.060933 
L 140.790498 265.033094 
L 140.958039 264.776872 
L 141.29312 265.134156 
L 141.628202 264.899913 
L 141.963283 265.127828 
L 142.130824 264.997432 
L 144.141312 265.1302 
L 145.481638 265.188387 
L 150.172779 265.044634 
L 150.675401 264.601904 
L 150.842942 264.635785 
L 151.178023 265.152654 
L 151.345564 265.20871 
L 151.680645 264.926992 
L 152.015727 265.127471 
L 152.183267 265.22484 
L 152.85343 265.113936 
L 153.188512 265.232302 
L 153.858675 265.13299 
L 154.361297 265.234447 
L 155.199001 265.121967 
L 156.036704 265.256702 
L 157.544571 265.158747 
L 158.214734 265.261715 
L 159.052437 265.067168 
L 159.555059 264.968576 
L 160.225222 265.279136 
L 161.230467 265.079697 
L 161.90063 265.284332 
L 162.570793 265.055793 
L 162.905874 265.039438 
L 163.576037 265.28103 
L 164.2462 265.119472 
L 165.083903 265.297762 
L 166.59177 265.207417 
L 167.429474 265.30582 
L 168.099637 265.216897 
L 168.602259 264.931761 
L 168.93734 264.785461 
L 169.104881 264.828911 
L 169.607503 265.304022 
L 170.110125 265.030116 
L 170.947829 265.194955 
L 171.28291 265.13883 
L 171.785533 265.326619 
L 172.790777 265.224098 
L 173.293399 265.336952 
L 174.633725 265.229507 
L 175.136347 265.334281 
L 176.141592 265.236278 
L 177.314377 265.337516 
L 177.98454 265.224776 
L 178.487162 264.859393 
L 178.822243 264.678028 
L 179.324865 265.32964 
L 179.827488 264.987437 
L 180.33011 265.335888 
L 180.832732 265.111975 
L 181.335354 265.346808 
L 182.005517 265.193691 
L 182.508139 265.345353 
L 183.010761 265.232476 
L 183.680924 265.331558 
L 184.351087 265.261701 
L 185.02125 265.36722 
L 185.858954 265.224709 
L 186.361576 265.228254 
L 187.031739 265.370776 
L 187.701902 265.199458 
L 188.204524 265.152622 
L 189.042228 265.36913 
L 190.215013 265.186473 
L 190.885176 265.380468 
L 192.225501 265.219893 
L 192.895664 265.385259 
L 194.068449 265.201085 
L 194.906153 265.367942 
L 196.078938 265.139353 
L 196.749101 265.388748 
L 198.089427 265.316724 
L 198.75959 265.395672 
L 199.429753 265.253511 
L 199.932375 264.936145 
L 200.099916 264.803348 
L 200.267456 264.841344 
L 200.770079 265.373539 
L 201.10516 265.090244 
L 201.272701 265.097774 
L 201.607782 265.387744 
L 201.942864 265.247815 
L 202.277945 265.189267 
L 202.780567 265.395152 
L 203.45073 265.297925 
L 204.120893 265.396916 
L 204.958597 265.369647 
L 206.634004 265.363187 
L 207.136626 265.127924 
L 207.471708 264.932952 
L 207.639248 264.916659 
L 208.141871 265.39709 
L 208.644493 265.151407 
L 209.147115 265.394108 
L 209.649737 265.263325 
L 210.3199 265.413136 
L 211.325144 265.330125 
L 212.162848 265.39753 
L 213.335633 265.364761 
L 215.01104 265.436322 
L 215.513663 265.386426 
L 215.848744 265.190311 
L 216.183826 264.590786 
L 216.518907 264.233768 
L 216.853988 265.361937 
L 217.18907 264.871428 
L 217.356611 265.00865 
L 217.524151 265.361359 
L 217.691692 265.256162 
L 217.859233 264.998684 
L 218.361855 265.312277 
L 218.529396 265.15611 
L 219.032018 265.369112 
L 219.367099 265.234819 
L 219.702181 265.420798 
L 220.204803 265.31554 
L 220.539884 265.419549 
L 221.042507 265.339121 
L 221.545129 265.42016 
L 222.382832 265.433319 
L 224.560862 265.410624 
L 225.566106 265.430864 
L 227.073973 265.439225 
L 227.576595 265.256397 
L 228.246758 264.839027 
L 228.581839 265.381224 
L 228.74938 265.40257 
L 229.084462 265.128689 
L 229.587084 265.420729 
L 229.922165 265.236541 
L 230.592328 265.419854 
L 231.09495 265.27433 
L 232.100195 265.396684 
L 232.770358 265.398957 
L 233.440521 265.436697 
L 234.445765 265.29896 
L 235.115928 265.463996 
L 236.121172 265.372365 
L 237.293957 265.458768 
L 237.96412 265.253136 
L 238.466742 264.972445 
L 238.801824 265.244286 
L 239.136905 265.452242 
L 239.471987 265.296529 
L 239.807068 265.392476 
L 240.14215 265.466273 
L 240.812313 265.344088 
L 242.152638 265.463482 
L 242.990342 265.246589 
L 243.325423 265.133948 
L 243.660505 265.226274 
L 243.995586 265.454948 
L 244.330668 265.412293 
L 244.665749 265.318447 
L 245.503453 265.468988 
L 246.676238 265.266473 
L 247.346401 265.484339 
L 248.184105 265.384132 
L 248.686727 265.5038 
L 249.35689 265.367516 
L 250.027053 265.104503 
L 250.697215 265.481187 
L 251.199838 265.265341 
L 251.70246 265.496399 
L 252.372623 265.339319 
L 253.042786 265.5058 
L 254.215571 265.337884 
L 254.718193 265.517003 
L 255.890978 265.402219 
L 256.561141 265.516654 
L 258.069008 265.415846 
L 258.73917 265.521684 
L 260.414578 265.410356 
L 261.084741 265.537465 
L 261.754904 265.446331 
L 262.089985 265.276446 
L 262.760148 264.646756 
L 263.26277 265.380068 
L 263.430311 265.039436 
L 263.597852 265.111817 
L 263.765392 265.396329 
L 263.932933 265.459433 
L 264.268014 265.204248 
L 264.603096 265.505006 
L 264.938177 265.27342 
L 265.60834 265.438179 
L 265.943422 265.397308 
L 266.446044 265.520114 
L 267.116207 265.472275 
L 267.78637 265.534818 
L 268.624073 265.488997 
L 269.796858 265.528354 
L 270.299481 265.337746 
L 270.634562 264.973346 
L 270.802103 264.635402 
L 270.969644 264.550306 
L 271.137184 264.663217 
L 271.472266 265.497581 
L 271.639806 265.180338 
L 271.807347 265.116117 
L 272.142429 265.504121 
L 272.47751 265.259227 
L 272.812592 265.522556 
L 273.147673 265.344003 
L 273.817836 265.454057 
L 274.152917 265.407035 
L 274.487999 265.550563 
L 276.163406 265.515302 
L 277.503732 265.539647 
L 280.016843 265.541061 
L 280.519465 265.322412 
L 281.189628 264.782519 
L 281.524709 265.542686 
L 281.69225 265.462397 
L 281.859791 265.214614 
L 282.027332 265.179627 
L 282.194872 265.472248 
L 282.362413 265.535233 
L 282.697495 265.276122 
L 283.200117 265.517623 
L 283.367657 265.372743 
L 283.702739 265.500391 
L 284.03782 265.555314 
L 284.372902 265.43357 
L 284.875524 265.586948 
L 285.545687 265.540482 
L 286.21585 265.609662 
L 287.221094 265.586459 
L 288.728961 265.596872 
L 289.231583 265.46773 
L 289.901746 265.020841 
L 290.069287 265.116447 
L 290.404368 265.589705 
L 290.90699 265.341789 
L 291.242072 265.608097 
L 291.912235 265.478484 
L 292.247316 265.62483 
L 292.749938 265.508063 
L 293.25256 265.412126 
L 293.922723 265.603039 
L 294.425345 265.476409 
L 295.095508 265.646695 
L 296.770916 265.64856 
L 298.111241 265.614157 
L 298.446323 265.43201 
L 298.781404 264.79997 
L 298.948945 264.24504 
L 299.116486 264.281754 
L 299.284027 264.689311 
L 299.451567 265.518079 
L 299.786649 264.828661 
L 300.12173 265.528697 
L 300.289271 265.145191 
L 300.624352 265.590492 
L 300.959434 265.32598 
L 301.294515 265.614449 
L 301.629597 265.394809 
L 301.964678 265.641806 
L 302.4673 265.469212 
L 302.802382 265.65099 
L 303.305004 265.471127 
L 303.807626 265.632615 
L 304.142708 265.556933 
L 304.812871 265.660603 
L 305.315493 265.621991 
L 306.488278 265.589349 
L 310.844337 265.571997 
L 311.179418 265.246064 
L 311.346959 264.893177 
L 311.5145 264.815307 
L 311.68204 264.91848 
L 312.017122 265.653922 
L 312.352203 265.289926 
L 312.687285 265.634682 
L 313.022366 265.439709 
L 313.524988 265.65205 
L 313.86007 265.547394 
L 314.362692 265.696901 
L 315.032855 265.543462 
L 315.535477 265.72392 
L 316.540722 265.707912 
L 317.043344 265.712043 
L 318.216129 265.643206 
L 319.053832 265.730966 
L 320.561699 265.628331 
L 321.399403 265.757342 
L 321.902025 265.592914 
L 322.572188 265.151454 
L 323.07481 265.7189 
L 323.409891 265.446061 
L 323.912514 265.74081 
L 324.415136 265.535548 
L 324.917758 265.768669 
L 325.923002 265.581709 
L 326.258084 265.772292 
L 327.095787 265.661607 
L 327.59841 265.764677 
L 328.268573 265.570393 
L 329.106276 265.775063 
L 330.279061 265.590898 
L 331.116765 265.77503 
L 333.462335 265.660688 
L 333.964957 265.379922 
L 334.300039 265.431241 
L 334.802661 265.787679 
L 335.305283 265.640266 
L 336.310527 265.731 
L 336.645609 265.432667 
L 337.148231 264.628579 
L 337.315772 264.880862 
L 337.483313 265.634016 
L 337.650853 265.568969 
L 337.818394 265.064931 
L 338.153475 265.732897 
L 338.488557 265.406828 
L 338.823638 265.739198 
L 339.15872 265.486374 
L 339.493801 265.791167 
L 339.996423 265.576024 
L 340.499046 265.80705 
L 341.001668 265.717151 
L 341.50429 265.816398 
L 342.174453 265.775811 
L 342.844616 265.803694 
L 344.184942 265.839945 
L 345.190186 265.764671 
L 345.860349 265.269986 
L 346.02789 265.38097 
L 346.362971 265.821079 
L 346.698053 265.584851 
L 347.368216 265.722541 
L 347.703297 265.667857 
L 348.205919 265.845679 
L 349.043623 265.651314 
L 349.546245 265.846531 
L 350.383949 265.813556 
L 351.221652 265.820969 
L 352.394437 265.671135 
L 352.729519 265.849999 
L 353.399682 265.644735 
L 353.902304 265.851308 
L 355.075089 265.76861 
L 355.912793 265.855537 
L 356.415415 265.728684 
L 357.085578 265.197289 
L 357.5882 265.80003 
L 357.923281 265.446536 
L 358.258363 265.820933 
L 358.760985 265.461253 
L 359.096066 265.817031 
L 359.263607 265.830211 
L 359.598689 265.61067 
L 360.268852 265.812696 
L 360.603933 265.660734 
L 360.939014 265.787982 
L 361.274096 265.845033 
L 361.776718 265.682498 
L 362.27934 265.865395 
L 363.117044 265.792418 
L 363.787207 265.859703 
L 364.792451 265.754749 
L 365.462614 265.871425 
L 365.965236 265.730475 
L 366.467859 265.505425 
L 366.80294 265.752506 
L 366.970481 265.865295 
L 367.640644 265.693893 
L 367.975725 265.865951 
L 368.980969 265.754803 
L 369.316051 265.854623 
L 371.32654 265.742849 
L 371.996703 265.359799 
L 372.331784 265.821749 
L 372.499325 265.815521 
L 372.834406 265.573511 
L 373.337028 265.859905 
L 373.839651 265.629571 
L 374.509813 265.844263 
L 375.179976 265.731462 
L 375.515058 265.845869 
L 375.850139 265.832546 
L 376.352761 265.762976 
L 378.195709 265.76864 
L 378.698332 265.648508 
L 379.033413 265.7729 
L 379.368495 265.885439 
L 380.206198 265.733606 
L 381.211443 265.865236 
L 382.384228 265.751599 
L 383.221931 265.861724 
L 384.227176 265.714203 
L 385.399961 265.850431 
L 386.572746 265.675297 
L 386.907827 265.878023 
L 387.242909 265.802736 
L 387.57799 265.718523 
L 388.248153 265.890076 
L 389.253398 265.595508 
L 389.588479 265.880319 
L 390.258642 265.785816 
L 390.593723 265.900994 
L 391.096346 265.717299 
L 391.598968 265.534434 
L 391.934049 265.79407 
L 392.10159 265.887624 
L 392.604212 265.724858 
L 392.939294 265.895368 
L 393.776997 265.784734 
L 394.112079 265.894474 
L 396.960271 265.875966 
L 399.473382 265.797537 
L 399.808463 265.205962 
L 400.143545 264.324862 
L 400.311086 264.711812 
L 400.478626 265.74658 
L 400.813708 264.844259 
L 400.981248 265.681371 
L 401.31633 265.089199 
L 401.483871 265.733951 
L 401.818952 265.236391 
L 401.986493 265.79126 
L 402.321574 265.256808 
L 402.489115 265.660425 
L 402.656656 265.712542 
L 402.824196 265.430831 
L 403.159278 265.785893 
L 403.326819 265.586165 
L 403.6619 265.820839 
L 403.996982 265.713813 
L 404.164522 265.845766 
L 405.504848 265.849663 
L 405.83993 265.877209 
L 406.510092 265.893547 
L 408.353041 265.917008 
L 411.368774 265.840883 
L 412.038937 265.657398 
L 412.709099 265.871763 
L 413.044181 265.791774 
L 413.546803 265.914332 
L 414.384507 265.796612 
L 415.05467 265.910701 
L 415.724833 265.873454 
L 416.562536 265.910551 
L 417.735321 265.773139 
L 418.237943 265.902903 
L 418.740566 265.784139 
L 419.913351 265.855942 
L 420.248432 265.836632 
L 420.248432 265.836632 
" style="fill:none;stroke:#4c72b0;stroke-linecap:square;stroke-width:2;"/>
   </g>
   <g id="line2d_11">
    <path clip-path="url(#p6e3623b35e)" d="M 85.334517 158.195252 
L 85.502058 206.965728 
L 85.669598 215.755276 
L 85.837139 213.11882 
L 86.339761 231.953031 
L 86.507302 232.214892 
L 86.674843 232.742006 
L 87.680087 244.481993 
L 87.847628 245.830591 
L 88.182709 246.496886 
L 88.517791 249.579507 
L 88.852872 252.023726 
L 90.69582 259.095569 
L 91.533524 260.671253 
L 91.868605 260.985728 
L 92.036146 261.057931 
L 92.371228 260.988671 
L 92.706309 261.415832 
L 93.376472 262.373056 
L 93.879094 262.75589 
L 94.549257 263.094706 
L 95.051879 263.243892 
L 96.224664 263.514967 
L 101.083345 263.961317 
L 101.250886 263.873049 
L 101.585968 263.940498 
L 101.921049 264.028064 
L 102.423671 263.939125 
L 102.758753 264.015357 
L 103.093834 264.095543 
L 103.596456 264.005407 
L 103.763997 264.090892 
L 103.931538 264.025196 
L 104.266619 264.096661 
L 104.936782 264.165376 
L 105.104323 264.10758 
L 105.271864 264.167713 
L 105.439404 264.05139 
L 105.606945 264.131651 
L 105.774486 264.024088 
L 105.942027 264.156253 
L 106.109567 264.099699 
L 106.444649 264.208913 
L 107.114812 264.168788 
L 107.282352 264.001892 
L 107.449893 264.142467 
L 107.617434 264.040252 
L 107.784975 264.213173 
L 108.287597 264.229799 
L 108.455137 264.083174 
L 108.622678 264.186588 
L 108.790219 264.111035 
L 108.95776 264.234413 
L 109.963004 264.105853 
L 110.130545 264.228203 
L 110.298085 264.137178 
L 110.465626 264.26508 
L 110.800708 264.285307 
L 111.638411 264.258121 
L 111.805952 264.105492 
L 111.973493 264.214061 
L 112.141033 264.048672 
L 112.308574 264.211693 
L 112.476115 264.102206 
L 112.643656 264.28291 
L 112.811196 264.242193 
L 113.146278 264.33367 
L 113.6489 264.124899 
L 113.816441 264.235526 
L 113.983981 264.051853 
L 114.151522 264.242607 
L 114.319063 264.130433 
L 114.486604 264.319921 
L 114.989226 264.328682 
L 115.156767 264.162628 
L 115.324307 264.283676 
L 115.491848 264.117336 
L 115.659389 264.304687 
L 115.826929 264.202513 
L 116.162011 264.341061 
L 116.832174 264.352431 
L 116.999715 264.205235 
L 117.167255 264.335254 
L 117.334796 264.197063 
L 117.502337 264.340628 
L 117.669877 264.26857 
L 117.837418 264.381297 
L 118.004959 264.309647 
L 118.507581 264.377781 
L 119.680366 264.335136 
L 119.847907 263.964357 
L 120.015448 263.973602 
L 120.182988 263.278177 
L 120.350529 263.682431 
L 120.51807 263.7783 
L 120.685611 264.357642 
L 120.853151 264.236017 
L 121.020692 263.697185 
L 121.355773 264.34189 
L 121.523314 264.129289 
L 121.858396 264.135985 
L 122.025936 264.373017 
L 122.193477 264.307559 
L 122.361018 264.025494 
L 122.528559 264.311961 
L 122.696099 264.357378 
L 122.86364 264.231754 
L 123.031181 264.331439 
L 123.198721 264.285209 
L 123.533803 264.364694 
L 123.701344 264.204208 
L 123.868884 264.370891 
L 126.549536 264.34888 
L 126.884618 264.389994 
L 127.38724 264.345883 
L 127.55478 264.420204 
L 127.722321 264.341066 
L 128.224943 264.422134 
L 128.895106 264.401972 
L 129.397728 264.405294 
L 129.565269 264.255987 
L 129.73281 264.316465 
L 129.900351 264.016993 
L 130.067891 264.102848 
L 130.235432 263.714871 
L 130.402973 264.064012 
L 130.570514 264.046352 
L 130.738054 264.406961 
L 130.905595 264.407689 
L 131.073136 264.111643 
L 131.240676 264.276556 
L 131.408217 264.191085 
L 131.575758 264.42448 
L 131.743299 264.413245 
L 131.910839 264.199332 
L 132.07838 264.330719 
L 132.245921 264.224312 
L 132.413462 264.42505 
L 132.916084 264.388274 
L 133.083624 264.22174 
L 133.251165 264.395828 
L 133.586247 264.427365 
L 133.753787 264.444648 
L 133.921328 264.325542 
L 134.088869 264.410107 
L 134.25641 264.305501 
L 134.42395 264.424937 
L 134.759032 264.445151 
L 135.261654 264.416516 
L 135.429195 264.328556 
L 135.596735 264.424135 
L 135.764276 264.32655 
L 135.931817 264.415754 
L 136.099358 264.335154 
L 136.266898 264.43822 
L 136.76952 264.397779 
L 137.607224 264.465177 
L 138.277387 264.343223 
L 138.444928 263.929828 
L 138.612468 263.849723 
L 138.780009 262.917907 
L 139.115091 263.508326 
L 139.282631 264.408625 
L 139.450172 264.219693 
L 139.617713 263.434524 
L 139.785254 264.215216 
L 139.952794 264.426219 
L 140.120335 263.979723 
L 140.455416 264.306556 
L 140.958039 264.139011 
L 141.125579 264.42229 
L 141.29312 264.364461 
L 141.460661 264.120704 
L 141.628202 264.40354 
L 141.795742 264.429276 
L 141.963283 264.242672 
L 142.130824 264.391877 
L 145.481638 264.443934 
L 145.984261 264.45379 
L 146.486883 264.463303 
L 147.994749 264.442701 
L 148.329831 264.426462 
L 149.502616 264.46741 
L 149.670157 264.3872 
L 149.837697 264.447819 
L 150.005238 264.233706 
L 150.172779 264.29074 
L 150.340319 263.88221 
L 150.50786 264.066102 
L 150.675401 263.799176 
L 150.842942 264.287026 
L 151.345564 264.430582 
L 151.513105 264.107971 
L 151.680645 264.358094 
L 151.848186 264.316667 
L 152.015727 264.472054 
L 152.183267 264.46428 
L 152.350808 264.252739 
L 152.518349 264.389716 
L 152.68589 264.290221 
L 152.85343 264.476272 
L 153.356053 264.440502 
L 153.523593 264.27163 
L 153.691134 264.44168 
L 153.858675 264.399619 
L 154.193756 264.486556 
L 154.361297 264.386275 
L 154.528838 264.47308 
L 154.696378 264.279242 
L 154.863919 264.428373 
L 155.03146 264.288197 
L 155.199001 264.477423 
L 155.366541 264.381299 
L 155.701623 264.458542 
L 156.036704 264.526638 
L 156.204245 264.406273 
L 156.371786 264.473581 
L 156.539326 264.29049 
L 156.706867 264.435376 
L 156.874408 264.252727 
L 157.041949 264.423711 
L 157.209489 264.261749 
L 157.37703 264.462659 
L 157.544571 264.399945 
L 157.879652 264.461304 
L 158.884897 264.404475 
L 159.052437 264.15912 
L 159.219978 264.360218 
L 159.387519 264.12032 
L 159.555059 264.372465 
L 159.7226 264.309594 
L 159.890141 264.510185 
L 160.392763 264.502474 
L 160.560304 264.233044 
L 160.727845 264.39144 
L 160.895385 264.168639 
L 161.062926 264.393305 
L 161.230467 264.286664 
L 161.398007 264.501082 
L 161.90063 264.506239 
L 162.06817 264.317805 
L 162.235711 264.414433 
L 162.403252 264.1769 
L 162.570793 264.369241 
L 162.738333 264.167661 
L 162.905874 264.419224 
L 163.073415 264.370417 
L 163.408496 264.500706 
L 163.576037 264.370628 
L 163.743578 264.44369 
L 163.911118 264.227385 
L 164.078659 264.411308 
L 164.2462 264.301819 
L 164.413741 264.507325 
L 164.581281 264.437427 
L 164.916363 264.535765 
L 165.083903 264.463275 
L 165.251444 264.516311 
L 165.418985 264.350209 
L 165.586526 264.470948 
L 165.754066 264.265851 
L 165.921607 264.419094 
L 166.089148 264.278698 
L 166.256689 264.477923 
L 166.424229 264.349778 
L 166.59177 264.508648 
L 166.759311 264.428658 
L 167.094392 264.498069 
L 167.429474 264.522604 
L 167.597014 264.420999 
L 167.764555 264.484706 
L 167.932096 264.34237 
L 168.099637 264.421308 
L 168.267177 264.145289 
L 168.434718 264.289209 
L 168.602259 263.935156 
L 168.7698 264.169545 
L 168.93734 263.908914 
L 169.104881 264.368576 
L 169.439962 264.467473 
L 169.607503 264.487182 
L 169.775044 264.165872 
L 169.942585 264.379775 
L 170.110125 264.154879 
L 170.277666 264.477126 
L 170.780288 264.475473 
L 170.947829 264.239794 
L 171.11537 264.431188 
L 171.28291 264.342619 
L 171.617992 264.51746 
L 172.120614 264.313995 
L 172.288155 264.456755 
L 172.455696 264.288404 
L 172.623236 264.452398 
L 172.790777 264.417624 
L 172.958318 264.544367 
L 173.46094 264.512145 
L 173.628481 264.347326 
L 173.796021 264.45064 
L 173.963562 264.228955 
L 174.131103 264.415905 
L 174.298644 264.259016 
L 174.466184 264.479624 
L 174.633725 264.427018 
L 174.968806 264.495004 
L 175.136347 264.412565 
L 175.303888 264.491988 
L 175.471429 264.304933 
L 175.638969 264.463534 
L 175.80651 264.328441 
L 175.974051 264.504356 
L 176.141592 264.351137 
L 176.309132 264.49665 
L 176.811754 264.505334 
L 177.816999 264.4629 
L 177.98454 264.231359 
L 178.15208 264.374141 
L 178.319621 263.902265 
L 178.487162 264.121838 
L 178.654702 263.733753 
L 178.822243 264.264636 
L 178.989784 264.26619 
L 179.157325 264.460159 
L 179.324865 264.477844 
L 179.492406 264.086002 
L 179.659947 264.358353 
L 179.827488 264.175002 
L 179.995028 264.506516 
L 180.162569 264.512778 
L 180.33011 264.339212 
L 180.49765 264.440067 
L 180.665191 264.221397 
L 180.832732 264.478973 
L 181.000273 264.414133 
L 181.335354 264.529072 
L 181.502895 264.303266 
L 181.670436 264.457486 
L 181.837976 264.272506 
L 182.005517 264.536044 
L 183.010761 264.349613 
L 183.345843 264.521286 
L 184.183546 264.35127 
L 184.351087 264.516396 
L 184.518628 264.457849 
L 184.853709 264.513243 
L 185.02125 264.460904 
L 185.188791 264.53261 
L 185.356332 264.414727 
L 185.523872 264.495376 
L 185.691413 264.267934 
L 185.858954 264.420663 
L 186.026494 264.242041 
L 186.194035 264.470648 
L 186.361576 264.340768 
L 186.529117 264.515503 
L 186.864198 264.493289 
L 187.031739 264.527519 
L 187.19928 264.392692 
L 187.36682 264.475773 
L 187.534361 264.239648 
L 187.701902 264.407902 
L 187.869442 264.164238 
L 188.036983 264.396949 
L 188.204524 264.231303 
L 188.372065 264.511445 
L 188.539605 264.425359 
L 188.874687 264.50336 
L 189.042228 264.413939 
L 189.209768 264.503349 
L 189.377309 264.280545 
L 189.54485 264.440171 
L 189.712391 264.181361 
L 189.879931 264.428134 
L 190.047472 264.218875 
L 190.215013 264.460262 
L 190.382553 264.362671 
L 190.717635 264.503322 
L 190.885176 264.442584 
L 191.052716 264.510493 
L 191.220257 264.310079 
L 191.387798 264.472527 
L 191.555339 264.24657 
L 191.722879 264.417459 
L 191.89042 264.222233 
L 192.057961 264.45777 
L 192.225501 264.329445 
L 192.393042 264.509188 
L 193.398287 264.244993 
L 193.565827 264.434216 
L 193.733368 264.219043 
L 193.900909 264.442114 
L 194.068449 264.275038 
L 194.23599 264.486046 
L 195.073694 264.516698 
L 195.241235 264.27292 
L 195.408775 264.413231 
L 195.576316 264.145068 
L 195.743857 264.3789 
L 195.911397 264.157212 
L 196.078938 264.447695 
L 196.246479 264.349716 
L 196.41402 264.540712 
L 196.916642 264.497558 
L 197.084183 264.312151 
L 197.251723 264.467249 
L 197.419264 264.265611 
L 197.586805 264.461486 
L 197.754345 264.288211 
L 197.921886 264.503457 
L 198.089427 264.431205 
L 198.424508 264.477226 
L 199.094671 264.465879 
L 199.262212 264.279305 
L 199.429753 264.426727 
L 199.597293 264.044505 
L 199.764834 264.238523 
L 199.932375 263.770639 
L 200.099916 264.170056 
L 200.267456 264.008325 
L 200.434997 264.480155 
L 200.602538 264.498773 
L 200.770079 264.247258 
L 200.937619 264.379518 
L 201.10516 264.099043 
L 201.272701 264.472929 
L 201.775323 264.48392 
L 201.942864 264.196852 
L 202.110404 264.435202 
L 202.277945 264.327581 
L 202.445486 264.512841 
L 202.948108 264.480898 
L 203.115649 264.288817 
L 203.283189 264.504425 
L 203.45073 264.404114 
L 203.618271 264.514361 
L 204.288434 264.384629 
L 204.455975 264.494976 
L 204.623515 264.421269 
L 204.791056 264.535504 
L 204.958597 264.40365 
L 205.126137 264.512845 
L 205.62876 264.448249 
L 205.963841 264.510929 
L 206.131382 264.439205 
L 206.298923 264.500297 
L 206.466463 264.385491 
L 206.634004 264.48648 
L 206.801545 264.228805 
L 206.969085 264.386518 
L 207.136626 263.95895 
L 207.304167 264.197365 
L 207.471708 263.859317 
L 207.639248 264.337176 
L 207.806789 264.30574 
L 208.141871 264.491664 
L 208.309411 264.125361 
L 208.476952 264.389593 
L 208.644493 264.261715 
L 208.812033 264.506618 
L 208.979574 264.504801 
L 209.147115 264.34149 
L 209.314656 264.487696 
L 209.482196 264.27364 
L 209.649737 264.489579 
L 209.817278 264.417661 
L 210.152359 264.508734 
L 210.3199 264.404662 
L 210.487441 264.508987 
L 210.654981 264.341815 
L 210.822522 264.480041 
L 210.990063 264.2899 
L 211.157604 264.513058 
L 211.325144 264.41016 
L 211.492685 264.502658 
L 211.827767 264.486976 
L 211.995307 264.525433 
L 212.162848 264.381903 
L 212.330389 264.459431 
L 212.49793 264.340205 
L 212.66547 264.509372 
L 212.833011 264.3308 
L 213.000552 264.473003 
L 213.168092 264.361189 
L 213.335633 264.524892 
L 213.503174 264.407537 
L 213.670715 264.497714 
L 213.838255 264.439638 
L 214.173337 264.448383 
L 214.8435 264.531805 
L 215.346122 264.378993 
L 215.513663 264.481764 
L 215.681203 264.139167 
L 215.848744 264.225873 
L 216.016285 263.514973 
L 216.183826 263.716546 
L 216.351366 263.121664 
L 216.518907 264.137959 
L 216.686448 264.411158 
L 216.853988 264.187166 
L 217.021529 264.206778 
L 217.18907 263.957932 
L 217.356611 264.496624 
L 217.524151 264.446357 
L 217.691692 263.955923 
L 217.859233 264.427788 
L 218.026774 264.473815 
L 218.194314 264.325761 
L 218.361855 264.365184 
L 218.529396 264.252812 
L 218.696936 264.554554 
L 218.864477 264.550349 
L 219.032018 264.265063 
L 219.199559 264.480793 
L 219.367099 264.402712 
L 219.702181 264.513536 
L 219.869722 264.312086 
L 220.037262 264.52573 
L 220.372344 264.476198 
L 220.539884 264.535999 
L 220.707425 264.372954 
L 220.874966 264.540478 
L 221.042507 264.430446 
L 221.377588 264.542535 
L 221.545129 264.486995 
L 221.71267 264.565079 
L 221.88021 264.423231 
L 222.550373 264.572281 
L 222.717914 264.451692 
L 222.885455 264.535447 
L 223.052995 264.451627 
L 223.220536 264.53623 
L 223.555618 264.496063 
L 224.05824 264.516831 
L 224.22578 264.427961 
L 224.393321 264.546047 
L 224.560862 264.403989 
L 224.728403 264.537995 
L 224.895943 264.404486 
L 225.063484 264.488631 
L 225.231025 264.392541 
L 225.398566 264.523058 
L 225.733647 264.485364 
L 226.068728 264.531779 
L 226.906432 264.547412 
L 227.073973 264.385491 
L 227.241514 264.511687 
L 227.409054 264.239382 
L 227.576595 264.360153 
L 227.744136 263.866202 
L 227.911676 264.177636 
L 228.079217 263.727614 
L 228.246758 264.343886 
L 228.74938 264.458543 
L 228.916921 264.062563 
L 229.084462 264.4677 
L 229.419543 264.464666 
L 229.587084 264.523836 
L 229.754624 264.192521 
L 229.922165 264.448956 
L 230.089706 264.382517 
L 230.424787 264.513278 
L 230.592328 264.319917 
L 230.759869 264.496558 
L 230.92741 264.219724 
L 231.09495 264.456871 
L 231.262491 264.382884 
L 231.430032 264.552786 
L 231.932654 264.527716 
L 232.100195 264.327871 
L 232.267735 264.532192 
L 232.435276 264.357291 
L 232.602817 264.514525 
L 232.770358 264.432075 
L 233.105439 264.521389 
L 233.27298 264.432365 
L 233.440521 264.54294 
L 233.608061 264.339975 
L 233.775602 264.495169 
L 233.943143 264.228426 
L 234.110683 264.464347 
L 234.278224 264.244171 
L 234.445765 264.512855 
L 234.613306 264.419811 
L 234.948387 264.518525 
L 235.115928 264.406644 
L 235.283469 264.516805 
L 235.451009 264.321858 
L 235.61855 264.510049 
L 235.786091 264.323845 
L 235.953631 264.525641 
L 236.121172 264.346194 
L 236.288713 264.516538 
L 236.456254 264.482552 
L 236.623794 264.572929 
L 237.293957 264.428704 
L 237.461498 264.522599 
L 237.629039 264.27401 
L 237.796579 264.441474 
L 237.96412 264.05008 
L 238.131661 264.29466 
L 238.299202 263.865677 
L 238.466742 264.350411 
L 238.634283 264.191952 
L 238.801824 264.582487 
L 238.969365 264.534559 
L 239.136905 264.311292 
L 239.304446 264.499108 
L 239.471987 264.27442 
L 239.639527 264.561458 
L 239.974609 264.529075 
L 240.14215 264.567281 
L 240.30969 264.314743 
L 240.477231 264.490731 
L 240.644772 264.320116 
L 240.812313 264.543885 
L 240.979853 264.39928 
L 241.147394 264.585637 
L 241.314935 264.473531 
L 241.650016 264.553271 
L 242.152638 264.41354 
L 242.320179 264.55657 
L 242.48772 264.337189 
L 242.655261 264.527536 
L 242.822801 264.169924 
L 242.990342 264.395125 
L 243.157883 264.068122 
L 243.325423 264.43228 
L 243.492964 264.168658 
L 243.660505 264.529208 
L 243.995586 264.50515 
L 244.163127 264.592755 
L 244.330668 264.284443 
L 244.498209 264.52136 
L 244.665749 264.324666 
L 244.83329 264.555878 
L 245.168371 264.518042 
L 245.335912 264.566973 
L 245.503453 264.401781 
L 245.670994 264.535699 
L 245.838534 264.284293 
L 246.006075 264.495478 
L 246.173616 264.193109 
L 246.341157 264.485156 
L 246.508697 264.216389 
L 246.676238 264.551013 
L 246.843779 264.403926 
L 247.17886 264.563039 
L 247.346401 264.440967 
L 247.513942 264.590599 
L 247.681482 264.28823 
L 247.849023 264.52231 
L 248.016564 264.362618 
L 248.184105 264.57769 
L 248.351645 264.462506 
L 248.686727 264.580925 
L 248.854267 264.441728 
L 249.021808 264.555662 
L 249.189349 264.313843 
L 249.35689 264.481782 
L 249.52443 264.117929 
L 249.691971 264.398979 
L 249.859512 264.014054 
L 250.027053 264.442185 
L 250.194593 264.232535 
L 250.362134 264.563773 
L 250.529675 264.60151 
L 250.697215 264.363039 
L 250.864756 264.521549 
L 251.032297 264.195132 
L 251.199838 264.534637 
L 251.367378 264.479447 
L 251.70246 264.597629 
L 251.870001 264.314592 
L 252.037541 264.513249 
L 252.205082 264.310029 
L 252.372623 264.55009 
L 252.540163 264.429197 
L 252.875245 264.607549 
L 253.042786 264.438149 
L 253.210326 264.546523 
L 253.377867 264.287923 
L 253.545408 264.531931 
L 253.712949 264.187662 
L 253.880489 264.527658 
L 254.04803 264.26575 
L 254.215571 264.562651 
L 254.383111 264.508767 
L 254.718193 264.60098 
L 254.885734 264.38501 
L 255.053274 264.56775 
L 255.220815 264.31475 
L 255.388356 264.54045 
L 255.555897 264.295257 
L 255.723437 264.568222 
L 255.890978 264.42486 
L 256.058519 264.591902 
L 256.3936 264.542613 
L 256.561141 264.608949 
L 256.728682 264.422904 
L 256.896222 264.550754 
L 257.063763 264.368971 
L 257.231304 264.581238 
L 257.398845 264.317812 
L 257.566385 264.531234 
L 257.733926 264.316553 
L 257.901467 264.57129 
L 258.069008 264.417521 
L 258.404089 264.567027 
L 258.73917 264.575901 
L 258.906711 264.43083 
L 259.074252 264.586444 
L 259.241793 264.392521 
L 259.409333 264.549814 
L 259.576874 264.323135 
L 259.744415 264.556003 
L 259.911956 264.2772 
L 260.079496 264.525308 
L 260.247037 264.334972 
L 260.414578 264.574396 
L 260.582118 264.480292 
L 260.749659 264.606686 
L 261.419822 264.448068 
L 261.587363 264.554621 
L 261.754904 264.307164 
L 261.922444 264.474847 
L 262.089985 263.964042 
L 262.257526 264.224127 
L 262.425066 263.472867 
L 262.592607 264.002183 
L 262.760148 263.836463 
L 262.927689 264.577156 
L 263.095229 264.588559 
L 263.26277 263.980535 
L 263.430311 264.374455 
L 263.597852 264.374743 
L 263.932933 264.510974 
L 264.100474 264.158468 
L 264.268014 264.584743 
L 264.435555 264.616278 
L 264.603096 264.311202 
L 264.770637 264.427252 
L 264.938177 264.310197 
L 265.105718 264.611088 
L 265.273259 264.610364 
L 265.4408 264.440101 
L 265.60834 264.544105 
L 265.775881 264.352412 
L 265.943422 264.595373 
L 266.278503 264.5431 
L 266.446044 264.612615 
L 266.613585 264.393459 
L 266.781125 264.595126 
L 266.948666 264.45251 
L 267.116207 264.639316 
L 267.451288 264.558053 
L 267.618829 264.60219 
L 267.78637 264.463825 
L 267.95391 264.582582 
L 268.121451 264.412496 
L 268.288992 264.564096 
L 268.456533 264.433943 
L 268.624073 264.601893 
L 268.791614 264.494954 
L 269.126696 264.575875 
L 269.629318 264.475185 
L 269.796858 264.607646 
L 269.964399 264.331294 
L 270.13194 264.49968 
L 270.299481 264.036171 
L 270.467021 264.216085 
L 270.634562 263.4593 
L 270.802103 263.902344 
L 270.969644 263.452142 
L 271.137184 264.455965 
L 271.304725 264.557877 
L 271.472266 264.054667 
L 271.639806 264.342921 
L 271.807347 264.347991 
L 271.974888 264.543772 
L 272.142429 264.486411 
L 272.309969 264.123472 
L 272.47751 264.586616 
L 272.645051 264.633039 
L 272.812592 264.386987 
L 272.980132 264.495489 
L 273.147673 264.316931 
L 273.315214 264.602412 
L 273.482754 264.603693 
L 273.650295 264.388362 
L 273.817836 264.554187 
L 273.985377 264.344198 
L 274.152917 264.59397 
L 274.487999 264.535372 
L 274.65554 264.600209 
L 274.82308 264.359872 
L 274.990621 264.548059 
L 275.158162 264.48033 
L 275.493243 264.556139 
L 275.660784 264.456862 
L 275.828325 264.568028 
L 275.995865 264.439124 
L 276.163406 264.58349 
L 276.330947 264.516694 
L 276.666028 264.567795 
L 276.833569 264.520749 
L 277.00111 264.605997 
L 277.168651 264.490797 
L 277.336191 264.587594 
L 277.503732 264.481461 
L 277.671273 264.606746 
L 277.838813 264.512152 
L 278.341436 264.587834 
L 279.011599 264.560979 
L 279.514221 264.579062 
L 279.681761 264.504886 
L 279.849302 264.588555 
L 280.016843 264.375903 
L 280.184384 264.542499 
L 280.351924 264.164142 
L 280.519465 264.353502 
L 280.687006 263.69538 
L 280.854547 264.07246 
L 281.022087 263.601834 
L 281.189628 264.377722 
L 281.357169 264.505641 
L 281.69225 264.400356 
L 281.859791 264.010951 
L 282.027332 264.53306 
L 282.194872 264.613215 
L 282.362413 264.261877 
L 282.529954 264.431491 
L 282.697495 264.26618 
L 282.865035 264.575839 
L 283.032576 264.606539 
L 283.200117 264.264868 
L 283.367657 264.482008 
L 283.535198 264.409218 
L 283.702739 264.574772 
L 283.87028 264.583864 
L 284.03782 264.336038 
L 284.205361 264.541145 
L 284.372902 264.425388 
L 284.540443 264.600322 
L 284.875524 264.461937 
L 285.043065 264.593566 
L 285.210605 264.410298 
L 285.378146 264.563362 
L 285.545687 264.460504 
L 285.713228 264.611422 
L 286.383391 264.47531 
L 286.550931 264.575547 
L 286.718472 264.474096 
L 286.886013 264.614313 
L 287.053553 264.485662 
L 287.221094 264.594893 
L 287.388635 264.516972 
L 287.891257 264.574947 
L 288.393879 264.600332 
L 288.56142 264.519584 
L 288.728961 264.641843 
L 288.896501 264.402221 
L 289.064042 264.514011 
L 289.231583 264.196144 
L 289.399124 264.413691 
L 289.566664 263.829146 
L 289.734205 264.194066 
L 289.901746 263.916768 
L 290.069287 264.520979 
L 290.236827 264.531933 
L 290.404368 264.411028 
L 290.571909 264.495346 
L 290.739449 264.19429 
L 290.90699 264.562463 
L 291.074531 264.608758 
L 291.242072 264.486132 
L 291.409612 264.522181 
L 291.577153 264.237443 
L 291.744694 264.560874 
L 291.912235 264.453859 
L 292.247316 264.586382 
L 292.414857 264.451386 
L 292.582397 264.55831 
L 292.749938 264.263668 
L 292.917479 264.494201 
L 293.08502 264.23597 
L 293.25256 264.552385 
L 293.420101 264.506219 
L 293.755183 264.568972 
L 293.922723 264.397215 
L 294.090264 264.581897 
L 294.257805 264.292423 
L 294.425345 264.593781 
L 294.592886 264.472766 
L 294.927968 264.570631 
L 295.263049 264.610822 
L 295.43059 264.432133 
L 295.598131 264.598381 
L 295.765671 264.495435 
L 295.933212 264.591271 
L 296.100753 264.466836 
L 296.268293 264.619887 
L 296.435834 264.554333 
L 296.603375 264.620544 
L 296.770916 264.527958 
L 297.273538 264.615257 
L 297.441079 264.553539 
L 297.608619 264.610851 
L 297.77616 264.507489 
L 297.943701 264.623374 
L 298.111241 264.369781 
L 298.278782 264.50496 
L 298.446323 263.933438 
L 298.613864 264.05772 
L 298.781404 262.996225 
L 298.948945 263.541972 
L 299.116486 263.503131 
L 299.284027 264.587414 
L 299.451567 264.395198 
L 299.619108 263.685419 
L 299.786649 264.469866 
L 299.95419 264.554461 
L 300.12173 264.00328 
L 300.289271 264.482195 
L 300.456812 264.556919 
L 300.624352 264.288344 
L 300.791893 264.49502 
L 300.959434 264.46951 
L 301.126975 264.580589 
L 301.294515 264.553981 
L 301.462056 264.277782 
L 301.629597 264.615643 
L 302.132219 264.575225 
L 302.29976 264.311721 
L 302.634841 264.637825 
L 302.802382 264.463847 
L 302.969923 264.520539 
L 303.137463 264.275183 
L 303.305004 264.604232 
L 303.975167 264.384887 
L 304.142708 264.594957 
L 304.310248 264.541298 
L 304.64533 264.623886 
L 304.812871 264.482502 
L 304.980411 264.625748 
L 305.147952 264.494607 
L 305.315493 264.629258 
L 305.985656 264.474751 
L 306.153196 264.650302 
L 306.320737 264.406677 
L 306.488278 264.577534 
L 306.655819 264.45794 
L 306.823359 264.642324 
L 306.9909 264.537602 
L 307.325982 264.628547 
L 307.493522 264.517113 
L 307.661063 264.599637 
L 307.828604 264.474947 
L 307.996144 264.591824 
L 308.163685 264.460144 
L 308.331226 264.62842 
L 308.498767 264.505021 
L 308.666307 264.618646 
L 308.833848 264.536243 
L 309.001389 264.629672 
L 309.16893 264.543407 
L 309.33647 264.64247 
L 309.504011 264.541255 
L 310.006633 264.644083 
L 310.174174 264.491456 
L 310.341715 264.616131 
L 310.509255 264.491455 
L 310.676796 264.634867 
L 310.844337 264.200546 
L 311.011878 264.36922 
L 311.179418 263.623507 
L 311.346959 264.000223 
L 311.5145 263.705145 
L 311.68204 264.57504 
L 311.849581 264.546161 
L 312.017122 264.257868 
L 312.184663 264.453393 
L 312.352203 264.292396 
L 312.519744 264.566195 
L 312.687285 264.622667 
L 312.854826 264.294636 
L 313.189907 264.566925 
L 313.524988 264.597292 
L 313.692529 264.333771 
L 313.86007 264.582755 
L 314.362692 264.62462 
L 314.530233 264.341906 
L 314.697774 264.544124 
L 314.865314 264.342085 
L 315.032855 264.650152 
L 315.200396 264.516857 
L 315.535477 264.697312 
L 315.703018 264.46161 
L 315.870559 264.594839 
L 316.038099 264.42794 
L 316.20564 264.662805 
L 316.373181 264.512817 
L 316.708262 264.650255 
L 316.875803 264.530646 
L 317.043344 264.620973 
L 317.210884 264.429563 
L 317.378425 264.641401 
L 317.545966 264.365511 
L 317.713507 264.579425 
L 317.881047 264.403348 
L 318.048588 264.636577 
L 318.216129 264.459915 
L 318.38367 264.651865 
L 319.053832 264.522747 
L 319.221373 264.643908 
L 319.388914 264.451629 
L 319.556455 264.624982 
L 319.723995 264.391997 
L 319.891536 264.614635 
L 320.059077 264.351132 
L 320.226618 264.607511 
L 320.394158 264.441323 
L 320.561699 264.653903 
L 320.72924 264.474229 
L 320.896781 264.640309 
L 321.399403 264.629441 
L 321.566943 264.431057 
L 321.734484 264.578253 
L 321.902025 264.181613 
L 322.069566 264.427363 
L 322.237106 263.892621 
L 322.404647 264.259816 
L 322.572188 264.099574 
L 322.739729 264.599689 
L 322.907269 264.597207 
L 323.07481 264.366002 
L 323.242351 264.543125 
L 323.409891 264.291256 
L 323.577432 264.616094 
L 323.744973 264.666613 
L 323.912514 264.412614 
L 324.080054 264.519068 
L 324.247595 264.347403 
L 324.415136 264.622168 
L 324.582677 264.520476 
L 324.917758 264.642044 
L 325.085299 264.395672 
L 325.252839 264.572074 
L 325.42038 264.28532 
L 325.587921 264.560861 
L 325.755462 264.322196 
L 325.923002 264.651056 
L 326.090543 264.681568 
L 326.258084 264.575969 
L 326.425625 264.605743 
L 326.593165 264.395068 
L 326.760706 264.634256 
L 326.928247 264.423992 
L 327.095787 264.66304 
L 327.59841 264.611801 
L 327.76595 264.421082 
L 327.933491 264.647979 
L 328.101032 264.291934 
L 328.268573 264.570118 
L 328.436113 264.466834 
L 328.603654 264.667126 
L 328.938735 264.626064 
L 329.106276 264.703612 
L 329.273817 264.484928 
L 329.441358 264.586451 
L 329.608898 264.391816 
L 329.776439 264.655091 
L 329.94398 264.303325 
L 330.111521 264.546211 
L 330.279061 264.415237 
L 330.446602 264.666199 
L 330.614143 264.52377 
L 330.781683 264.685383 
L 331.284306 264.658367 
L 331.451846 264.558509 
L 331.619387 264.716074 
L 331.786928 264.469165 
L 331.954469 264.644061 
L 332.122009 264.522073 
L 332.28955 264.690019 
L 332.457091 264.512129 
L 332.624631 264.691118 
L 332.792172 264.521753 
L 332.959713 264.647916 
L 333.127254 264.438075 
L 333.294794 264.652695 
L 333.462335 264.279862 
L 333.629876 264.535273 
L 333.797417 264.10295 
L 333.964957 264.478148 
L 334.132498 264.171001 
L 334.300039 264.630673 
L 334.63512 264.655776 
L 334.802661 264.678993 
L 334.970202 264.411695 
L 335.137742 264.583647 
L 335.305283 264.453455 
L 335.472824 264.706379 
L 335.640365 264.612147 
L 335.975446 264.717902 
L 336.142987 264.48103 
L 336.310527 264.589146 
L 336.478068 264.171583 
L 336.645609 264.289624 
L 336.81315 263.361838 
L 336.98069 263.870332 
L 337.148231 263.65831 
L 337.315772 264.641613 
L 337.483313 264.626911 
L 337.650853 263.878295 
L 337.818394 264.525529 
L 337.985935 264.693487 
L 338.153475 264.340492 
L 338.656098 264.675867 
L 338.823638 264.593068 
L 338.991179 264.304628 
L 339.15872 264.679674 
L 339.326261 264.697577 
L 339.493801 264.515391 
L 339.661342 264.579191 
L 339.828883 264.330086 
L 339.996423 264.65623 
L 340.331505 264.648879 
L 340.499046 264.705867 
L 340.666586 264.524724 
L 340.834127 264.700072 
L 341.001668 264.569997 
L 341.336749 264.734867 
L 341.50429 264.609763 
L 341.671831 264.693906 
L 341.839371 264.539482 
L 342.006912 264.714963 
L 342.174453 264.620653 
L 342.509534 264.734379 
L 342.677075 264.630868 
L 342.844616 264.690755 
L 343.012157 264.603338 
L 343.179697 264.73016 
L 343.347238 264.641388 
L 343.84986 264.70831 
L 345.022645 264.711433 
L 345.190186 264.374407 
L 345.357727 264.514832 
L 345.525268 263.978839 
L 345.692808 264.383312 
L 345.860349 264.109787 
L 346.02789 264.690931 
L 346.19543 264.740874 
L 346.362971 264.529585 
L 346.530512 264.645554 
L 346.698053 264.464974 
L 346.865593 264.757073 
L 347.033134 264.762566 
L 347.200675 264.542721 
L 347.368216 264.668083 
L 347.535756 264.467763 
L 347.703297 264.731284 
L 347.870838 264.644128 
L 348.205919 264.757737 
L 348.37346 264.478707 
L 348.541001 264.621865 
L 348.708541 264.354038 
L 348.876082 264.647709 
L 349.043623 264.475283 
L 349.211164 264.730326 
L 350.71903 264.689053 
L 350.886571 264.725735 
L 351.054112 264.606843 
L 351.221652 264.705616 
L 351.389193 264.471289 
L 351.556734 264.65518 
L 351.724274 264.384494 
L 351.891815 264.653973 
L 352.059356 264.307195 
L 352.226897 264.679725 
L 352.89706 264.523955 
L 353.0646 264.701004 
L 353.232141 264.367685 
L 353.399682 264.704705 
L 354.069845 264.611366 
L 354.237385 264.723529 
L 354.404926 264.456491 
L 354.572467 264.66797 
L 354.740008 264.509782 
L 354.907548 264.717407 
L 355.075089 264.577616 
L 355.24263 264.716457 
L 355.577711 264.714133 
L 355.745252 264.73265 
L 355.912793 264.6376 
L 356.080333 264.749431 
L 356.247874 264.468065 
L 356.415415 264.559153 
L 356.582956 264.164096 
L 356.750496 264.417655 
L 356.918037 263.897127 
L 357.253118 264.64133 
L 357.420659 264.650332 
L 357.5882 264.535487 
L 357.755741 264.251964 
L 357.923281 264.684258 
L 358.090822 264.689187 
L 358.258363 264.529365 
L 358.425904 264.601725 
L 358.593444 264.255867 
L 358.760985 264.623998 
L 359.096066 264.674903 
L 359.263607 264.637018 
L 359.431148 264.371716 
L 359.598689 264.658689 
L 359.766229 264.558767 
L 360.101311 264.757228 
L 360.268852 264.491623 
L 360.436392 264.657854 
L 360.603933 264.478571 
L 360.771474 264.728216 
L 361.274096 264.733724 
L 361.441637 264.460846 
L 361.609177 264.689233 
L 361.776718 264.587292 
L 361.944259 264.74474 
L 362.446881 264.771237 
L 362.614422 264.499097 
L 362.781962 264.711134 
L 362.949503 264.599194 
L 363.284585 264.701717 
L 363.619666 264.730894 
L 363.787207 264.597131 
L 363.954748 264.715752 
L 364.122288 264.556664 
L 364.289829 264.704406 
L 364.45737 264.525097 
L 364.624911 264.710465 
L 364.792451 264.613287 
L 364.959992 264.732856 
L 365.630155 264.542418 
L 365.797696 264.696415 
L 365.965236 264.391793 
L 366.132777 264.583043 
L 366.300318 264.252434 
L 366.467859 264.610322 
L 366.635399 264.589756 
L 366.80294 264.739997 
L 366.970481 264.702401 
L 367.138021 264.508786 
L 367.305562 264.701024 
L 367.473103 264.457777 
L 367.640644 264.721746 
L 367.808184 264.746484 
L 367.975725 264.649818 
L 368.143266 264.699348 
L 368.310807 264.4684 
L 368.478347 264.671861 
L 368.645888 264.478527 
L 368.813429 264.672958 
L 368.980969 264.622332 
L 369.316051 264.766036 
L 369.483592 264.643798 
L 369.651132 264.760737 
L 369.818673 264.613944 
L 369.986214 264.697012 
L 370.153755 264.604853 
L 370.321295 264.749018 
L 371.158999 264.687258 
L 371.32654 264.34372 
L 371.49408 264.537306 
L 371.661621 264.050679 
L 371.829162 264.450045 
L 371.996703 264.363827 
L 372.164243 264.757885 
L 372.331784 264.726632 
L 372.499325 264.448229 
L 372.666865 264.639383 
L 372.834406 264.453236 
L 373.001947 264.775707 
L 373.169488 264.793317 
L 373.337028 264.60418 
L 373.504569 264.733456 
L 373.67211 264.452268 
L 373.839651 264.730241 
L 374.007191 264.63857 
L 374.342273 264.764939 
L 374.509813 264.635413 
L 374.677354 264.751323 
L 374.844895 264.477077 
L 375.012436 264.713474 
L 375.179976 264.670055 
L 375.515058 264.802353 
L 375.682599 264.660765 
L 375.850139 264.741088 
L 376.01768 264.508703 
L 376.185221 264.728722 
L 376.352761 264.574953 
L 376.520302 264.778163 
L 376.687843 264.671917 
L 376.855384 264.767056 
L 377.190465 264.729382 
L 377.358006 264.782764 
L 377.525547 264.654139 
L 377.693087 264.77124 
L 377.860628 264.592399 
L 378.028169 264.729206 
L 378.195709 264.464215 
L 378.36325 264.712358 
L 378.530791 264.421866 
L 378.698332 264.671346 
L 378.865872 264.616627 
L 379.033413 264.776536 
L 379.368495 264.690239 
L 379.536035 264.781817 
L 379.703576 264.498418 
L 379.871117 264.715289 
L 380.038657 264.540395 
L 380.206198 264.725268 
L 380.373739 264.666428 
L 380.54128 264.796453 
L 380.876361 264.735041 
L 381.043902 264.800323 
L 381.211443 264.639383 
L 381.378983 264.772784 
L 381.546524 264.57848 
L 381.714065 264.690451 
L 381.881605 264.490069 
L 382.049146 264.75581 
L 382.216687 264.523594 
L 382.384228 264.759221 
L 382.551768 264.692115 
L 382.88685 264.811785 
L 383.054391 264.719076 
L 383.221931 264.783324 
L 383.389472 264.584471 
L 383.557013 264.727047 
L 383.724553 264.511718 
L 383.892094 264.727557 
L 384.059635 264.507075 
L 384.227176 264.737801 
L 384.394716 264.623034 
L 384.562257 264.793699 
L 385.23242 264.674912 
L 385.399961 264.778508 
L 385.567501 264.519556 
L 385.735042 264.675271 
L 385.902583 264.410911 
L 386.070124 264.613816 
L 386.237664 264.365064 
L 386.405205 264.687091 
L 386.572746 264.600075 
L 386.740287 264.819346 
L 386.907827 264.850455 
L 387.075368 264.63224 
L 387.242909 264.723208 
L 387.41045 264.553951 
L 387.57799 264.75361 
L 387.745531 264.694609 
L 388.080612 264.821349 
L 388.248153 264.620783 
L 388.415694 264.74589 
L 388.583235 264.390808 
L 388.750775 264.54299 
L 388.918316 264.264211 
L 389.085857 264.65722 
L 389.253398 264.566477 
L 389.420938 264.832159 
L 389.588479 264.830338 
L 389.75602 264.578187 
L 389.92356 264.731501 
L 390.091101 264.663184 
L 390.258642 264.801902 
L 390.761264 264.782897 
L 390.928805 264.452393 
L 391.096346 264.671404 
L 391.263886 264.310549 
L 391.431427 264.512533 
L 391.598968 264.409987 
L 391.766508 264.779693 
L 392.269131 264.747253 
L 392.436671 264.53882 
L 392.771753 264.815547 
L 393.274375 264.550011 
L 393.441916 264.736043 
L 393.609456 264.565227 
L 393.776997 264.774679 
L 394.614701 264.751274 
L 394.782242 264.554565 
L 394.949782 264.80198 
L 395.117323 264.702522 
L 395.452404 264.839484 
L 395.955027 264.678592 
L 396.122567 264.810311 
L 396.290108 264.623673 
L 396.457649 264.780243 
L 396.62519 264.702091 
L 396.79273 264.785029 
L 396.960271 264.684334 
L 397.127812 264.831417 
L 397.295352 264.697143 
L 397.797975 264.828426 
L 397.965515 264.742916 
L 398.300597 264.767495 
L 398.97076 264.826842 
L 399.1383 264.696289 
L 399.305841 264.752691 
L 399.473382 264.311624 
L 399.640923 264.370109 
L 399.808463 263.294815 
L 399.976004 263.638354 
L 400.143545 263.516303 
L 400.311086 264.765315 
L 400.646167 263.739654 
L 400.813708 264.80417 
L 400.981248 264.50833 
L 401.148789 263.900182 
L 401.31633 264.763396 
L 401.651411 264.169696 
L 401.818952 264.882247 
L 402.154034 264.196256 
L 402.321574 264.845192 
L 402.489115 264.821224 
L 402.656656 264.283159 
L 402.991737 264.864022 
L 403.159278 264.596104 
L 403.494359 264.838342 
L 403.6619 264.725933 
L 403.829441 264.847867 
L 404.164522 264.811096 
L 404.332063 264.894802 
L 404.499604 264.710183 
L 404.667144 264.904783 
L 405.83993 264.821053 
L 406.00747 264.930453 
L 406.175011 264.770642 
L 406.510092 264.888469 
L 406.677633 264.77097 
L 407.180255 264.906873 
L 407.347796 264.796846 
L 407.682878 264.888206 
L 407.850418 264.784478 
L 408.1855 264.882874 
L 409.190744 264.869236 
L 410.698611 264.809773 
L 410.866151 264.88993 
L 411.033692 264.752797 
L 411.201233 264.872756 
L 411.368774 264.632038 
L 411.536314 264.761471 
L 411.703855 264.45879 
L 411.871396 264.770337 
L 412.038937 264.531052 
L 412.206477 264.859954 
L 412.374018 264.904158 
L 412.541559 264.789776 
L 412.709099 264.835598 
L 412.87664 264.701221 
L 413.044181 264.895799 
L 413.379262 264.845244 
L 413.546803 264.876786 
L 413.714344 264.667807 
L 413.881885 264.828657 
L 414.049425 264.639738 
L 414.216966 264.834505 
L 414.384507 264.686635 
L 414.552047 264.863721 
L 416.897618 264.859295 
L 417.065158 264.626799 
L 417.232699 264.842053 
L 417.40024 264.567547 
L 417.567781 264.8189 
L 417.735321 264.77029 
L 417.902862 264.887441 
L 418.405484 264.876424 
L 418.573025 264.621215 
L 418.740566 264.836832 
L 418.908106 264.719022 
L 419.243188 264.869393 
L 420.080891 264.693389 
L 420.248432 264.862755 
L 420.248432 264.862755 
" style="fill:none;stroke:#dd8452;stroke-linecap:square;stroke-width:2;"/>
   </g>
   <g id="patch_3">
    <path d="M 68.588821 277.574739 
L 68.588821 21.6 
" style="fill:none;stroke:#000000;stroke-linecap:square;stroke-linejoin:miter;stroke-width:0.8;"/>
   </g>
   <g id="patch_4">
    <path d="M 436.994128 277.574739 
L 436.994128 21.6 
" style="fill:none;stroke:#000000;stroke-linecap:square;stroke-linejoin:miter;stroke-width:0.8;"/>
   </g>
   <g id="patch_5">
    <path d="M 68.588821 277.574739 
L 436.994128 277.574739 
" style="fill:none;stroke:#000000;stroke-linecap:square;stroke-linejoin:miter;stroke-width:0.8;"/>
   </g>
   <g id="patch_6">
    <path d="M 68.588821 21.6 
L 436.994128 21.6 
" style="fill:none;stroke:#000000;stroke-linecap:square;stroke-linejoin:miter;stroke-width:0.8;"/>
   </g>
   <g id="legend_1">
    <g id="patch_7">
     <path d="M 242.541877 93.753759 
L 422.994128 93.753759 
Q 426.994128 93.753759 426.994128 89.753759 
L 426.994128 35.6 
Q 426.994128 31.6 422.994128 31.6 
L 242.541877 31.6 
Q 238.541877 31.6 238.541877 35.6 
L 238.541877 89.753759 
Q 238.541877 93.753759 242.541877 93.753759 
z
" style="fill:#ffffff;opacity:0.8;stroke:#cccccc;stroke-linejoin:miter;"/>
    </g>
    <g id="line2d_12">
     <path d="M 246.541877 46.6 
L 286.541877 46.6 
" style="fill:none;stroke:#4c72b0;stroke-linecap:square;stroke-width:2;"/>
    </g>
    <g id="line2d_13"/>
    <g id="text_12">
     <!-- Train loss -->
     <g transform="translate(302.541877 53.6)scale(0.2 -0.2)">
      <defs>
       <path d="M 62.203125 67.59375 
L 4.5 67.59375 
L 2.796875 45.59375 
L 4.59375 45.59375 
C 5.90625 62.125 7.296875 65 22.703125 65 
C 24.5 65 27.40625 65 28.203125 64.90625 
C 30.09375 64.609375 30.09375 63.40625 30.09375 61.125 
L 30.09375 7.171875 
C 30.09375 3.59375 29.796875 2.5 21.5 2.5 
L 18.703125 2.5 
L 18.703125 0 
C 23.5 0 28.5 0 33.40625 0 
C 38.296875 0 43.296875 0 48.09375 0 
L 48.09375 2.5 
L 45.296875 2.5 
C 37 2.5 36.703125 3.59375 36.703125 7.171875 
L 36.703125 61.125 
C 36.703125 63.3125 36.703125 64.515625 38.5 64.90625 
C 39.296875 65 42.203125 65 44 65 
C 59.296875 65 60.796875 62.125 62.09375 45.59375 
L 63.90625 45.59375 
z
" id="CMR17-84"/>
       <path d="M 15 23.390625 
C 15 33 19.09375 42 26.59375 42 
C 27.296875 42 28 41.90625 28.703125 41.59375 
C 28.703125 41.59375 26.5 40.890625 26.5 38.3125 
C 26.5 35.90625 28.40625 34.90625 29.90625 34.90625 
C 31.09375 34.90625 33.296875 35.609375 33.296875 38.40625 
C 33.296875 41.609375 30.09375 43.59375 26.703125 43.59375 
C 19.09375 43.59375 15.796875 36.203125 14.796875 32.703125 
L 14.703125 32.703125 
L 14.703125 43.59375 
L 3.09375 42.5 
L 3.09375 39.90625 
C 9 39.90625 9.90625 39.296875 9.90625 34.5 
L 9.90625 6.6875 
C 9.90625 2.875 9.5 2.390625 3.09375 2.390625 
L 3.09375 -0.203125 
C 5.5 0 10.09375 0 12.703125 0 
C 15.59375 0 20.703125 0 23.40625 -0.203125 
L 23.40625 2.390625 
C 16.203125 2.390625 15 2.390625 15 6.875 
z
" id="CMR17-114"/>
       <path d="M 36 25.828125 
C 36 32.375 36 35.84375 31.796875 39.734375 
C 28.09375 43 23.796875 44 20.40625 44 
C 12.5 44 6.796875 37.609375 6.796875 30.796875 
C 6.796875 27 9.796875 27 10.40625 27 
C 11.703125 27 14 27.78125 14 30.53125 
C 14 33 12.09375 34.078125 10.40625 34.078125 
C 10 34.078125 9.5 33.96875 9.203125 33.875 
C 11.296875 40.5 16.703125 42.40625 20.203125 42.40625 
C 25.203125 42.40625 30.703125 37.953125 30.703125 29.453125 
L 30.703125 25 
C 24.796875 25 17.703125 24.203125 12.09375 21.203125 
C 5.796875 17.703125 4 12.703125 4 8.90625 
C 4 1.203125 13 -1 18.296875 -1 
C 23.796875 -1 28.90625 2.171875 31.09375 7.984375 
C 31.296875 3.640625 34.09375 -0.28125 38.5 -0.28125 
C 40.59375 -0.28125 45.90625 1.09375 45.90625 8.859375 
L 45.90625 14.375 
L 44.09375 14.375 
L 44.09375 8.78125 
C 44.09375 2.78125 41.40625 2 40.09375 2 
C 36 2 36 7.15625 36 11.53125 
z
M 30.703125 13.59375 
C 30.703125 4.953125 24.5 0.59375 19 0.59375 
C 14 0.59375 10.09375 4.296875 10.09375 8.90625 
C 10.09375 11.890625 11.40625 17.1875 17.203125 20.390625 
C 22 23.09375 27.5 23.5 30.703125 23.5 
z
" id="CMR17-97"/>
       <path d="M 15.5 61.078125 
C 15.5 63.265625 13.703125 65.15625 11.40625 65.15625 
C 9.203125 65.15625 7.296875 63.375 7.296875 61.078125 
C 7.296875 58.890625 9.09375 57 11.40625 57 
C 13.59375 57 15.5 58.796875 15.5 61.078125 
z
M 3.796875 42.28125 
L 3.796875 39.703125 
C 9.40625 39.703125 10.203125 39.09375 10.203125 34.328125 
L 10.203125 6.671875 
C 10.203125 2.875 9.796875 2.390625 3.40625 2.390625 
L 3.40625 -0.203125 
C 5.796875 0 10.09375 0 12.59375 0 
C 15 0 19.09375 0 21.40625 -0.203125 
L 21.40625 2.390625 
C 15.5 2.390625 15.296875 2.984375 15.296875 6.5625 
L 15.296875 43.375 
z
" id="CMR17-105"/>
       <path d="M 41.5 30.203125 
C 41.5 35.296875 40.5 43.59375 28.703125 43.59375 
C 20.796875 43.59375 16.703125 37.5 15.203125 33.5 
L 15.09375 33.5 
L 15.09375 43.59375 
L 3.296875 42.5 
L 3.296875 39.90625 
C 9.203125 39.90625 10.09375 39.296875 10.09375 34.5 
L 10.09375 6.6875 
C 10.09375 2.875 9.703125 2.390625 3.296875 2.390625 
L 3.296875 -0.203125 
C 5.703125 0 10.09375 0 12.703125 0 
C 15.296875 0 19.796875 0 22.203125 -0.203125 
L 22.203125 2.390625 
C 15.796875 2.390625 15.40625 2.78125 15.40625 6.6875 
L 15.40625 25.90625 
C 15.40625 35.109375 21 42 28 42 
C 35.40625 42 36.203125 35.40625 36.203125 30.59375 
L 36.203125 6.6875 
C 36.203125 2.875 35.796875 2.390625 29.40625 2.390625 
L 29.40625 -0.203125 
C 31.796875 0 36.203125 0 38.796875 0 
C 41.40625 0 45.90625 0 48.296875 -0.203125 
L 48.296875 2.390625 
C 41.90625 2.390625 41.5 2.78125 41.5 6.6875 
z
" id="CMR17-110"/>
       <path d="M 15.296875 68.6875 
L 3.40625 67.59375 
L 3.40625 65 
C 9.296875 65 10.203125 64.40625 10.203125 59.640625 
L 10.203125 6.65625 
C 10.203125 2.875 9.796875 2.390625 3.40625 2.390625 
L 3.40625 -0.203125 
C 5.796875 0 10.203125 0 12.703125 0 
C 15.296875 0 19.703125 0 22.09375 -0.203125 
L 22.09375 2.390625 
C 15.703125 2.390625 15.296875 2.78125 15.296875 6.65625 
z
" id="CMR17-108"/>
      </defs>
      <use transform="scale(0.996264)" xlink:href="#CMR17-84"/>
      <use transform="translate(58.702625 0)scale(0.996264)" xlink:href="#CMR17-114"/>
      <use transform="translate(93.983393 0)scale(0.996264)" xlink:href="#CMR17-97"/>
      <use transform="translate(139.67387 0)scale(0.996264)" xlink:href="#CMR17-105"/>
      <use transform="translate(164.544929 0)scale(0.996264)" xlink:href="#CMR17-110"/>
      <use transform="translate(245.516265 0)scale(0.996264)" xlink:href="#CMR17-108"/>
      <use transform="translate(270.387323 0)scale(0.996264)" xlink:href="#CMR17-111"/>
      <use transform="translate(316.0778 0)scale(0.996264)" xlink:href="#CMR17-115"/>
      <use transform="translate(351.879138 0)scale(0.996264)" xlink:href="#CMR17-115"/>
     </g>
    </g>
    <g id="line2d_14">
     <path d="M 246.541877 74.878125 
L 286.541877 74.878125 
" style="fill:none;stroke:#dd8452;stroke-linecap:square;stroke-width:2;"/>
    </g>
    <g id="line2d_15"/>
    <g id="text_13">
     <!-- Validation loss -->
     <g transform="translate(302.541877 81.878125)scale(0.2 -0.2)">
      <defs>
       <path d="M 59 58.515625 
C 59.90625 60.71875 61.5 65 68.203125 65 
L 68.203125 67.6875 
C 65.90625 67.484375 63.296875 67.484375 60.796875 67.484375 
C 58.40625 67.484375 54.296875 67.484375 52 67.6875 
L 52 65 
C 57 65 57.203125 61.5 57.203125 60.90625 
C 57.203125 59.796875 56.90625 59.109375 56.59375 58.3125 
L 36.90625 6.96875 
L 16.296875 60.71875 
C 16 61.421875 15.796875 61.921875 15.796875 62.40625 
C 15.796875 65 19.796875 65 21.90625 65 
L 21.90625 67.484375 
C 18.703125 67.484375 14 67.484375 10.703125 67.484375 
C 8.09375 67.484375 3.40625 67.484375 1 67.6875 
L 1 65 
C 6.796875 65 7.90625 64.609375 9.09375 61.421875 
L 32.90625 -0.40625 
C 33.40625 -1.796875 33.5 -2 34.59375 -2 
C 35.703125 -2 35.796875 -1.796875 36.296875 -0.40625 
z
" id="CMR17-86"/>
       <path d="M 29.203125 67.59375 
L 29.203125 65 
C 35.09375 65 36 64.40625 36 59.6875 
L 36 36.640625 
C 35.59375 37.140625 31.5 43.59375 23.40625 43.59375 
C 13.203125 43.59375 3.296875 34.5 3.296875 21.3125 
C 3.296875 8.203125 12.59375 -1 22.40625 -1 
C 30.90625 -1 35.296875 5.265625 35.796875 5.9375 
L 35.796875 -0.984375 
L 47.90625 -0.984375 
L 47.90625 2 
C 42 2 41.09375 2.59375 41.09375 7.390625 
L 41.09375 68.6875 
z
M 35.796875 11.796875 
C 35.796875 8.796875 34 6.09375 31.703125 4.09375 
C 28.296875 1.09375 24.90625 0.59375 23 0.59375 
C 20.09375 0.59375 9.703125 2.09375 9.703125 21.1875 
C 9.703125 40.8125 21.296875 42 23.90625 42 
C 28.5 42 32.203125 39.40625 34.5 35.796875 
C 35.796875 33.703125 35.796875 33.40625 35.796875 31.609375 
z
" id="CMR17-100"/>
       <path d="M 15.09375 40 
L 29.09375 40 
L 29.09375 42.578125 
L 15.09375 42.578125 
L 15.09375 61 
L 13.296875 61 
C 13.09375 50.703125 9.59375 41.6875 1.09375 41.6875 
L 1.09375 40 
L 9.796875 40 
L 9.796875 12.046875 
C 9.796875 10.15625 9.796875 -1 21.40625 -1 
C 27.296875 -1 30.703125 4.78125 30.703125 12.140625 
L 30.703125 17.8125 
L 28.90625 17.8125 
L 28.90625 12.234375 
C 28.90625 5.375 26.203125 0.796875 22 0.796875 
C 19.09375 0.796875 15.09375 2.78125 15.09375 11.84375 
z
" id="CMR17-116"/>
      </defs>
      <use transform="scale(0.996264)" xlink:href="#CMR17-86"/>
      <use transform="translate(61.265174 0)scale(0.996264)" xlink:href="#CMR17-97"/>
      <use transform="translate(106.955652 0)scale(0.996264)" xlink:href="#CMR17-108"/>
      <use transform="translate(131.82671 0)scale(0.996264)" xlink:href="#CMR17-105"/>
      <use transform="translate(156.697768 0)scale(0.996264)" xlink:href="#CMR17-100"/>
      <use transform="translate(207.593138 0)scale(0.996264)" xlink:href="#CMR17-97"/>
      <use transform="translate(253.283615 0)scale(0.996264)" xlink:href="#CMR17-116"/>
      <use transform="translate(288.564383 0)scale(0.996264)" xlink:href="#CMR17-105"/>
      <use transform="translate(313.435442 0)scale(0.996264)" xlink:href="#CMR17-111"/>
      <use transform="translate(359.125919 0)scale(0.996264)" xlink:href="#CMR17-110"/>
      <use transform="translate(440.097255 0)scale(0.996264)" xlink:href="#CMR17-108"/>
      <use transform="translate(464.968313 0)scale(0.996264)" xlink:href="#CMR17-111"/>
      <use transform="translate(510.658791 0)scale(0.996264)" xlink:href="#CMR17-115"/>
      <use transform="translate(546.460128 0)scale(0.996264)" xlink:href="#CMR17-115"/>
     </g>
    </g>
   </g>
  </g>
 </g>
 <defs>
  <clipPath id="p6e3623b35e">
   <rect height="255.974739" width="368.405307" x="68.588821" y="21.6"/>
  </clipPath>
 </defs>
</svg>
